<svg width="33" height="33" viewBox="0 0 33 33" fill="none" xmlns="http://www.w3.org/2000/svg">
<path fill-rule="evenodd" clip-rule="evenodd" d="M10.0648 0.554258C11.7755 0.475508 12.3209 0.458008 16.6784 0.458008C21.0359 0.458008 21.5813 0.476966 23.2905 0.554258C24.9996 0.631549 26.1663 0.904258 27.1871 1.29947C28.2561 1.70342 29.2259 2.33488 30.028 3.15155C30.8446 3.95217 31.4746 4.92051 31.8771 5.99092C32.2738 7.01176 32.545 8.17842 32.6238 9.88467C32.7025 11.5982 32.7201 12.1436 32.7201 16.4997C32.7201 20.8572 32.7011 21.4026 32.6238 23.1132C32.5465 24.8195 32.2738 25.9861 31.8771 27.007C31.4746 28.0775 30.8436 29.0475 30.028 29.8493C29.2259 30.6659 28.2561 31.2959 27.1871 31.6984C26.1663 32.0951 24.9996 32.3663 23.2934 32.4451C21.5813 32.5238 21.0359 32.5413 16.6784 32.5413C12.3209 32.5413 11.7755 32.5224 10.0648 32.4451C8.35859 32.3678 7.19193 32.0951 6.17109 31.6984C5.10056 31.2959 4.13062 30.6648 3.3288 29.8493C2.51269 29.0481 1.88114 28.0787 1.47818 27.0084C1.08297 25.9876 0.811719 24.8209 0.732969 23.1147C0.654219 21.4011 0.636719 20.8557 0.636719 16.4997C0.636719 12.1422 0.655677 11.5968 0.732969 9.88759C0.81026 8.17842 1.08297 7.01176 1.47818 5.99092C1.88173 4.92063 2.51377 3.95117 3.33026 3.15009C4.13094 2.33416 5.09991 1.70261 6.16964 1.29947C7.19047 0.904258 8.35714 0.633008 10.0634 0.554258H10.0648ZM23.1607 3.44176C21.469 3.36447 20.9615 3.34842 16.6784 3.34842C12.3953 3.34842 11.8878 3.36447 10.1961 3.44176C8.6313 3.51322 7.78255 3.77426 7.21672 3.99447C6.46859 4.28613 5.93339 4.63176 5.37193 5.19322C4.8397 5.711 4.43011 6.34134 4.17318 7.03801C3.95297 7.60384 3.69193 8.45259 3.62047 10.0174C3.54318 11.709 3.52714 12.2165 3.52714 16.4997C3.52714 20.7828 3.54318 21.2903 3.62047 22.982C3.69193 24.5468 3.95297 25.3955 4.17318 25.9613C4.42984 26.657 4.83964 27.2884 5.37193 27.8061C5.88964 28.3384 6.52109 28.7482 7.21672 29.0049C7.78255 29.2251 8.6313 29.4861 10.1961 29.5576C11.8878 29.6349 12.3938 29.6509 16.6784 29.6509C20.963 29.6509 21.469 29.6349 23.1607 29.5576C24.7255 29.4861 25.5742 29.2251 26.1401 29.0049C26.8882 28.7132 27.4234 28.3676 27.9848 27.8061C28.5171 27.2884 28.9269 26.657 29.1836 25.9613C29.4038 25.3955 29.6648 24.5468 29.7363 22.982C29.8136 21.2903 29.8296 20.7828 29.8296 16.4997C29.8296 12.2165 29.8136 11.709 29.7363 10.0174C29.6648 8.45259 29.4038 7.60384 29.1836 7.03801C28.8919 6.28988 28.5463 5.75467 27.9848 5.19322C27.467 4.66103 26.8367 4.25144 26.1401 3.99447C25.5742 3.77426 24.7255 3.51322 23.1607 3.44176ZM14.6294 21.4449C15.7737 21.9212 17.0479 21.9855 18.2343 21.6268C19.4207 21.268 20.4458 20.5085 21.1345 19.4779C21.8231 18.4474 22.1326 17.2097 22.0101 15.9763C21.8876 14.7429 21.3407 13.5903 20.4628 12.7153C19.9031 12.156 19.2264 11.7277 18.4814 11.4613C17.7363 11.195 16.9415 11.0971 16.1541 11.1747C15.3667 11.2524 14.6063 11.5037 13.9277 11.9105C13.249 12.3173 12.6691 12.8695 12.2295 13.5274C11.7898 14.1852 11.5016 14.9324 11.3854 15.715C11.2692 16.4977 11.328 17.2964 11.5575 18.0536C11.787 18.8108 12.1816 19.5076 12.7128 20.0941C13.244 20.6805 13.8985 21.1418 14.6294 21.4449ZM10.848 10.6693C11.6136 9.9036 12.5226 9.29624 13.523 8.88187C14.5234 8.46749 15.5956 8.25422 16.6784 8.25422C17.7612 8.25422 18.8334 8.46749 19.8338 8.88187C20.8342 9.29624 21.7431 9.9036 22.5088 10.6693C23.2745 11.4349 23.8818 12.3439 24.2962 13.3443C24.7106 14.3447 24.9238 15.4169 24.9238 16.4997C24.9238 17.5825 24.7106 18.6547 24.2962 19.6551C23.8818 20.6555 23.2745 21.5644 22.5088 22.3301C20.9625 23.8764 18.8652 24.7451 16.6784 24.7451C14.4916 24.7451 12.3943 23.8764 10.848 22.3301C9.30165 20.7838 8.43293 18.6865 8.43293 16.4997C8.43293 14.3128 9.30165 12.2156 10.848 10.6693ZM26.7526 9.48217C26.9423 9.30319 27.0942 9.08796 27.1992 8.84922C27.3043 8.61048 27.3604 8.35309 27.3642 8.09228C27.368 7.83147 27.3194 7.57256 27.2214 7.33086C27.1233 7.08915 26.9778 6.86959 26.7933 6.68515C26.6089 6.50071 26.3893 6.35515 26.1476 6.2571C25.9059 6.15904 25.647 6.11047 25.3862 6.11427C25.1254 6.11808 24.868 6.17417 24.6293 6.27923C24.3905 6.38429 24.1753 6.53619 23.9963 6.72592C23.6482 7.09493 23.4576 7.58506 23.465 8.09228C23.4724 8.5995 23.6772 9.08387 24.0359 9.44257C24.3946 9.80127 24.879 10.006 25.3862 10.0134C25.8934 10.0208 26.3836 9.83026 26.7526 9.48217Z" fill="#6184F4"/>
</svg>
