<svg width="30" height="31" viewBox="0 0 30 31" fill="none" xmlns="http://www.w3.org/2000/svg">
<path fill-rule="evenodd" clip-rule="evenodd" d="M10.9277 11.0801H16.344V13.778C17.1242 12.2264 19.125 10.8322 22.1306 10.8322C27.8925 10.8322 29.2604 13.921 29.2604 19.588V30.0837H23.4271V20.8787C23.4271 17.6514 22.6469 15.8314 20.6606 15.8314C17.9058 15.8314 16.761 17.7928 16.761 20.8772V30.0837H10.9277V11.0801ZM0.925 29.8357H6.75833V10.8322H0.925V29.8357ZM7.59396 4.63574C7.59417 5.12469 7.49721 5.60879 7.30869 6.05993C7.12017 6.51107 6.84387 6.92024 6.49583 7.26366C5.79058 7.96457 4.83597 8.3569 3.84167 8.35449C2.84911 8.35383 1.8967 7.96249 1.19042 7.26512C0.843642 6.92053 0.568271 6.5109 0.380085 6.05971C0.191898 5.60851 0.0945946 5.12461 0.09375 4.63574C0.09375 3.64845 0.4875 2.70345 1.19188 2.00637C1.89754 1.30806 2.85035 0.916556 3.84313 0.916993C4.83771 0.916993 5.79146 1.30928 6.49583 2.00637C7.19875 2.70345 7.59396 3.64845 7.59396 4.63574Z" fill="#6184F4"/>
</svg>
