<svg width="34" height="27" viewBox="0 0 34 27" fill="none" xmlns="http://www.w3.org/2000/svg">
<path d="M33.6559 3.19988C32.4382 3.73947 31.1301 4.10405 29.7548 4.26884C31.1738 3.41979 32.2354 2.08348 32.7415 0.509259C31.4084 1.30112 29.9493 1.8585 28.4278 2.15718C27.4046 1.06469 26.0493 0.340568 24.5724 0.0972415C23.0955 -0.146085 21.5796 0.104996 20.26 0.811502C18.9404 1.51801 17.891 2.64041 17.2747 4.00445C16.6583 5.36849 16.5096 6.89785 16.8515 8.35509C14.1502 8.21946 11.5076 7.51735 9.09525 6.29433C6.68287 5.07131 4.55461 3.3547 2.84859 1.25593C2.26526 2.26218 1.92984 3.42884 1.92984 4.67134C1.92919 5.78988 2.20464 6.89128 2.73175 7.87783C3.25886 8.86438 4.02133 9.70556 4.95151 10.3268C3.87275 10.2924 2.81778 10.0009 1.87443 9.47655V9.56405C1.87432 11.1328 2.41697 12.6534 3.41032 13.8676C4.40366 15.0818 5.78651 15.915 7.32422 16.2257C6.32349 16.4966 5.27429 16.5364 4.25589 16.3424C4.68974 17.6922 5.53484 18.8726 6.67288 19.7183C7.81092 20.564 9.18493 21.0326 10.6026 21.0586C8.19606 22.9478 5.22405 23.9725 2.16464 23.968C1.62269 23.9682 1.0812 23.9365 0.542969 23.8732C3.64845 25.8699 7.26346 26.9296 10.9555 26.9255C23.4534 26.9255 30.2857 16.5743 30.2857 7.59676C30.2857 7.30509 30.2784 7.01051 30.2653 6.71884C31.5942 5.75776 32.7414 4.56765 33.653 3.20426L33.6559 3.19988Z" fill="#6184F4"/>
</svg>
