<svg width="189" height="189" viewBox="0 0 189 189" fill="none" xmlns="http://www.w3.org/2000/svg">
<rect x="44" y="44" width="101" height="101" rx="34.1216" fill="url(#paint0_linear_173_4653)"/>
<g filter="url(#filter0_f_173_4653)">
<rect x="51.0684" y="51.0693" width="86.86" height="86.86" rx="34.1216" fill="#4898FF"/>
</g>
<path d="M83.7658 110.293H105.234C105.755 110.293 106.015 110.683 106.015 111.074C106.015 111.594 105.625 111.854 105.234 111.854H83.7658C83.2454 111.854 82.9851 111.464 82.9851 111.074C82.9851 110.683 83.2454 110.293 83.7658 110.293ZM86.8884 106.129H102.111C102.632 106.129 102.892 106.52 102.892 106.91C102.892 107.431 102.502 107.691 102.111 107.691H86.8884C86.368 107.691 86.1078 107.3 86.1078 106.91C85.9777 106.52 86.368 106.129 86.8884 106.129ZM86.4981 91.9473C86.4981 91.4269 86.8885 91.1667 87.2788 91.1667H91.5725V86.873C91.5725 86.3525 91.9628 86.0923 92.3531 86.0923H96.5167C97.0372 86.0923 97.2973 86.4827 97.2973 86.873V91.1667H101.591C102.112 91.1667 102.372 91.557 102.372 91.9473V96.1109C102.372 96.6314 101.981 96.8915 101.591 96.8915H97.2973V101.185C97.2973 101.706 96.907 101.966 96.5167 101.966H92.3531C91.8327 101.966 91.5725 101.576 91.5725 101.185V96.8915H87.4089C86.8885 96.8915 86.6283 96.5012 86.6283 96.1109V91.9473H86.4981ZM80.1227 118.62H108.877C110.569 118.62 112 117.319 112 115.758V80.8879C112 79.3265 110.569 78.0254 108.877 78.0254H104.193V80.6276C104.193 81.1481 103.803 81.4083 103.413 81.5384H85.7175C85.197 81.5384 84.8067 81.1481 84.8067 80.6276V78.0254H80.1227C78.4313 78.0254 77 79.3265 77 80.8879V115.758C77 117.319 78.4313 118.62 80.1227 118.62Z" fill="white"/>
<path d="M102.503 74.2528H98.5996C98.2092 74.2528 97.8189 73.9926 97.8189 73.6022C97.5587 72.171 96.1275 71 94.4361 71C92.8747 71 91.4435 72.0409 91.0531 73.6022C90.923 73.9926 90.6628 74.2528 90.2725 74.2528H86.3691V79.8476H102.373V74.2528H102.503Z" fill="white"/>
<path d="M93.0744 96.3271V100.621H95.5465V96.3271C95.5465 95.8067 95.9368 95.5464 96.3272 95.5464H100.621V93.0743H96.3272C95.8067 93.0743 95.5465 92.684 95.5465 92.2937V88H93.0744V92.2937C93.0744 92.8141 92.6841 93.0743 92.2937 93.0743H88V95.5464H92.2937C92.6841 95.5464 93.0744 95.9368 93.0744 96.3271Z" fill="white"/>
<defs>
<filter id="filter0_f_173_4653" x="0.568371" y="0.569347" width="187.859" height="187.86" filterUnits="userSpaceOnUse" color-interpolation-filters="sRGB">
<feFlood flood-opacity="0" result="BackgroundImageFix"/>
<feBlend mode="normal" in="SourceGraphic" in2="BackgroundImageFix" result="shape"/>
<feGaussianBlur stdDeviation="25.25" result="effect1_foregroundBlur_173_4653"/>
</filter>
<linearGradient id="paint0_linear_173_4653" x1="94.5" y1="44" x2="94.5" y2="145" gradientUnits="userSpaceOnUse">
<stop stop-color="#4898FF"/>
<stop offset="1" stop-color="#3282EF"/>
</linearGradient>
</defs>
</svg>
