<svg width="920" height="695" viewBox="0 0 920 695" fill="none" xmlns="http://www.w3.org/2000/svg">
<g opacity="0.3">
<path d="M100.699 274.895C100.699 274.895 96.1194 288.367 86.4318 281.607C76.7442 274.847 53.4416 262.167 40.8201 269.374C28.1986 276.58 25.9483 295.359 32.9453 300.001C39.9423 304.643 42.3943 310.723 33.239 319.943C24.0838 329.163 30.1624 338.722 39.1234 339.942C48.0845 341.161 53.831 336.367 53.7746 341.957C53.7182 347.548 54.9364 350.598 42.4313 358.671C29.9262 366.743 31.3875 372.148 48.0016 364.313C64.6158 356.478 65.185 343.637 71.8884 333.939C78.5919 324.24 114.647 336.969 126.491 353.76C138.335 370.551 139.983 388.677 141.887 402.838C143.791 416.999 162.039 416.125 167.659 428.151C173.28 440.178 181.917 451.009 183.137 447.65C184.356 444.29 181.41 440.683 180.882 436.75C180.353 432.818 193.823 443.807 196.554 452.237C199.285 460.667 214.005 469.064 221.058 468.116C228.112 467.168 238.762 468.931 244.103 473.007C249.445 477.082 261.91 486.609 265.825 486.083C269.739 485.556 269.44 483.191 272.121 485.236C274.801 487.281 275.732 494.337 275.111 501.602C274.49 508.866 268.532 512.091 279.072 525.054C289.612 538.018 303.007 543.397 304.802 556.747C306.597 570.096 299.789 620.543 301.691 634.686C303.592 648.829 318.442 663.655 322.859 661.408C327.277 659.161 322.385 651.867 321.436 644.813C320.488 637.76 327.586 631.131 326.749 624.907C325.912 618.683 330.368 610.848 334.534 605.495C338.699 600.141 346.104 595.932 349.685 587.461C353.266 578.991 360.309 570.863 362.636 564.949C364.963 559.034 365.725 558.142 371.405 546.984C377.086 535.825 376.051 527.994 379.033 520.393C382.015 512.793 380.892 498.564 371.035 496.694C361.178 494.823 347.23 491.887 343.433 487.549C339.635 483.211 321.332 477.665 318.099 477.383C314.865 477.101 309.301 471.367 302.916 471.417C298.655 471.398 294.399 471.706 290.185 472.339C286.27 472.865 276.482 477.377 276.482 477.377L266.289 478.747L256.902 473.673C256.902 473.673 258.668 463.041 252.179 462.316C248.966 461.838 245.71 461.715 242.47 461.95C242.47 461.95 245.912 451.9 241.097 451.74C236.282 451.579 228.488 459.036 226.125 459.354C223.761 459.672 214.138 447.375 217.208 440.571C220.279 433.767 222.696 427.841 230.332 425.216C237.968 422.592 244.195 415.363 249.959 422.577C255.722 429.792 268.61 442.457 267.448 433.817C266.286 425.176 260.241 421.195 260.207 415.616C260.174 410.038 270.771 411 269.292 399.996C267.812 388.992 270.903 382.204 275.296 379.226C279.689 376.248 293.229 376.007 290.976 365.125C288.723 354.243 283.816 365.28 278.581 361.998C273.347 358.717 281.495 348.016 290.911 346.75C300.328 345.484 307.857 342.066 304.457 334.534C301.057 327.002 290.132 323.604 284.115 314.092C278.097 304.579 274.805 316.151 268.563 311.389C262.321 306.627 251.965 300.765 252.553 311.154C253.142 321.543 260.323 333.287 258.822 339.88C257.32 346.473 247.17 354.302 243.061 347.508C238.952 340.715 241.691 337.316 232.31 332.976C222.93 328.636 212.898 325.191 210.734 315.105C208.57 305.02 213.822 297.096 220.915 289.751C228.009 282.406 237.371 275.546 235.225 265.458C233.079 255.37 226.254 252.284 225.74 260.342C225.226 268.4 216.603 269.56 212.62 263.704C208.637 257.848 201.144 255.66 201.881 261.144C202.618 266.628 201.789 272.341 195.511 273.185C189.233 274.029 179.071 269.886 175.251 271.116C171.431 272.346 170.472 276.552 165.674 277.197C160.875 277.842 153.257 280.464 151.023 275.181C148.788 269.899 138.292 269.694 131.01 269.075C123.727 268.456 113.324 268.257 111.085 269.366C108.847 270.475 104.632 274.366 100.699 274.895Z" fill="white" fill-opacity="0.3"/>
<path d="M291.841 448.185C291.841 448.185 287.908 448.714 274.509 444.124C261.109 439.534 251.217 443.27 257.916 445.565C264.616 447.86 277.011 450.987 277.011 450.987C277.011 450.987 263.555 451.988 275.864 454.337C288.172 456.685 303.498 451.429 291.841 448.185Z" fill="white" fill-opacity="0.3"/>
<path d="M440.986 386.59C440.986 386.59 438.971 401.241 437.03 404.698C435.089 408.154 426.305 414.129 425.122 423.085C423.938 432.041 427.972 444.281 433.735 451.495C439.498 458.709 443.52 458.977 454.946 460.636C466.372 462.296 482.42 456.942 488.802 456.874C495.184 456.806 488.233 470.541 488.76 474.455C489.286 478.37 506.056 484.123 507.782 491.09C509.509 498.057 504.459 513.906 512.002 522.478C519.546 531.051 522.756 537.029 523.493 542.513C524.23 547.997 523.031 556.973 539.059 557.206C555.087 557.439 565.106 548.911 566.097 538.383C567.087 527.854 565.699 517.665 572.241 512.781C578.784 507.898 581.435 497.973 578.704 489.543C575.973 481.113 572.715 468.769 578.36 463.217C584.004 457.664 595.398 447.335 595.032 438.606C594.667 429.876 588.648 438.656 577.383 432.182C566.117 425.707 551.964 403.625 548.775 397.663C545.585 391.7 544.828 386.201 555.052 396.819C565.277 407.437 570.787 430.663 584.136 428.868C597.486 427.073 614.104 408.071 613.822 400.101C613.541 392.132 605.553 398.018 595.188 392.23C584.824 386.443 576.222 370.005 588.658 373.163C601.094 376.322 618.875 389.872 625.153 389.028C631.43 388.184 649.315 378.598 651.797 391.047C654.279 403.496 652.296 424.534 663.388 423.851C674.481 423.167 669.538 410.168 672.071 405.107C674.605 400.047 689.939 383.513 694.294 386.123C698.649 388.733 697.976 401.624 708.272 401.03C718.569 400.435 722.837 402.267 720.209 406.624C717.581 410.981 718.616 424.414 722.319 422.318C726.023 420.223 719.538 407.504 727.138 410.486C734.738 413.468 744.649 404.128 744.122 400.213C743.596 396.299 729.629 393.365 732.593 385.767C735.557 378.169 747.922 374.927 756.456 372.972C764.99 371.016 771.045 356.63 766.129 349.302C761.214 341.974 757.263 336.904 761.76 334.701C766.258 332.499 757.778 328.846 757.46 326.483C757.142 324.119 763.372 316.909 768.713 320.984C774.055 325.059 772.553 331.652 777.101 335.834C781.649 340.016 786.271 338.605 785.427 332.328C784.373 326.814 782.841 321.404 780.847 316.157C780.847 316.157 787.074 308.929 791.123 309.266C795.172 309.603 804.229 293.913 805.997 283.299C807.766 272.685 804.574 266.704 799.866 267.337C795.158 267.97 785.761 258.049 793.61 250.584C801.458 243.12 814.123 236.642 820.718 238.161C827.314 239.68 831.597 235.89 834.686 229.084C837.775 222.277 847.173 221.014 851.881 220.381C856.59 219.748 859.714 207.335 861.346 213.598C862.978 219.862 847.497 235.442 845.52 244.505C843.543 253.568 842.196 267.321 849.374 267.164C856.553 267.007 857.887 253.164 858.622 246.747C859.357 240.33 858.644 229.15 863.25 227.759C867.856 226.369 870.637 229.154 876.953 222.721C883.269 216.289 892.594 214.209 893.091 206.153C893.587 198.097 894.423 180.409 884.638 172.928C874.854 165.446 870.073 171.69 861.079 176.095C852.084 180.5 838.67 163.92 838.67 163.92C832.574 163.722 826.471 164.008 820.42 164.776C811.003 166.042 805.594 155.585 799.212 155.653C792.83 155.721 795.066 165.797 789.013 168.998C782.961 172.2 781.273 170.847 776.492 171.49C771.712 172.133 767.287 174.325 765.084 169.828C762.882 165.331 757.885 157.94 752.304 157.956C746.723 157.972 740.842 161.903 737.703 162.325C734.564 162.747 723.049 160.292 719.91 160.714C716.771 161.136 705.309 165.083 705.309 165.083C705.309 165.083 719.301 138.426 715.311 132.517C711.321 126.607 698.562 126.779 691.818 130.166C685.074 133.552 677.904 133.634 673.618 137.406C669.331 141.178 656.306 145.243 653.211 152.142C650.117 159.041 651.232 161.187 646.286 165.929C641.341 170.671 642.157 176.879 643.795 183.05C645.433 189.221 635.773 176.93 630.745 181.609C625.718 186.289 622.967 189.046 625.273 194.319C627.58 199.592 634.704 205.044 633.875 210.757C633.045 216.47 621.896 222.744 620.841 214.897C619.786 207.05 621.947 175.593 613.413 177.548C604.879 179.504 604.009 190.787 607.427 198.316C610.845 205.846 612.821 208.794 608.113 209.427C603.404 210.06 595.754 200.694 591.785 206.829C587.817 212.964 574.59 215.532 568.399 217.154C562.207 218.777 554.181 230.25 550.002 234.816C545.822 239.382 545.097 245.87 536.56 247.808C528.024 249.745 520.219 233.219 524.133 232.693C528.048 232.166 543.23 238.132 541.962 228.698C540.693 219.263 517.466 212.469 506.269 212.376C495.072 212.284 478.441 219.314 476.675 229.946C474.909 240.578 478.482 255.268 469.644 266.851C460.806 278.434 456.11 291.04 463.957 289.985C471.804 288.929 475.004 276.525 476.991 285.845C478.979 295.164 488.361 293.095 490.145 288.061C491.929 283.028 490.609 273.619 489.447 264.978C488.286 256.337 500.3 238.744 503.614 245.497C506.928 252.251 498.192 264.592 499.146 271.681C500.099 278.771 511.118 271.669 517.396 270.825C523.674 269.981 529.033 274.054 519.034 276.996C509.035 279.939 508.259 280.043 506.844 287.414C505.429 294.785 509.222 299.087 500.105 302.719C490.988 306.35 467.711 305.476 464.162 314.732C460.614 323.988 458.904 329.029 454.407 331.232C449.909 333.434 440.37 333.927 442.834 340.777C445.298 347.627 449.534 343.072 448.139 350.458C446.745 357.845 437.4 347.899 435.001 353.823C432.602 359.747 443.833 383.857 449.946 375.78C456.06 367.704 458.507 356.264 458.507 356.264C458.507 356.264 465.472 354.519 466.619 351.169C467.766 347.82 477.008 339.378 481.537 349.164C486.067 358.949 490.44 355.956 491.082 360.736C491.725 365.517 484.608 372.001 491.239 367.914C497.871 363.827 501.908 364.074 498.297 354.973C494.685 345.872 484.567 336.047 489.593 337.777C494.619 339.508 501.158 346.617 504.334 351.792C507.509 356.967 521.308 371.089 522.031 364.582C522.754 358.076 518.141 347.53 520.504 347.212C522.867 346.894 526.713 339.986 527.429 333.425C528.145 326.864 548.729 331.351 553.402 336.324C558.074 341.297 550.946 347.839 542.251 349.008C533.556 350.177 523.468 357.925 531.207 362.485C538.947 367.046 548.403 353.782 551.15 362.192C553.896 370.601 551.021 378.995 544.744 379.839C538.466 380.683 530.179 378.602 524.695 379.339C519.211 380.076 519.472 388.03 508.946 387.058C498.421 386.086 494.735 376.976 486.223 372.537C477.711 368.099 471.091 372.956 465.131 376.163C459.171 379.37 444.07 379.748 440.986 386.59Z" fill="white" fill-opacity="0.3"/>
<path d="M603.435 138.577C603.435 138.577 600.787 148.52 595.142 154.072C589.497 159.625 575.105 176.748 576.267 185.389C577.429 194.03 585.535 200.91 574.127 199.249C562.719 197.587 571.848 164.403 578.64 155.501C585.432 146.599 585.958 150.514 591.707 145.737C597.456 140.96 601.815 132.404 603.435 138.577Z" fill="white" fill-opacity="0.3"/>
<path d="M762.392 423.266C762.392 423.266 752.976 424.532 750.82 432.811C748.664 441.09 762.242 446.464 765.438 440.451C768.633 434.438 766.085 427.508 767.135 423.437C768.186 419.365 766.47 417.943 762.392 423.266Z" fill="white" fill-opacity="0.3"/>
<path d="M736.927 441.897C736.927 441.897 727.61 413.581 726.336 422.549C725.551 427.605 726.247 432.781 728.34 437.45C728.34 437.45 704.822 423.036 708.558 432.928C712.294 442.821 729.608 446.884 738.3 452.107C746.991 457.33 747.668 456.357 759.192 458.885C770.717 461.412 776.914 454.096 768.08 453.686C759.246 453.276 744.048 447.33 740.699 446.183C739.745 445.87 738.892 445.308 738.228 444.554C737.565 443.8 737.116 442.883 736.927 441.897Z" fill="white" fill-opacity="0.3"/>
<path d="M830.882 433.268C830.882 433.268 793.748 424.67 798.748 432.079C803.748 439.487 815.963 435.274 818.847 438.963C821.731 442.652 824.363 450.214 829.847 449.477C835.331 448.739 839.74 445.741 843.408 449.251C847.075 452.762 854.884 457.295 856.775 453.056C858.666 448.816 852.474 444.837 847.82 439.861C843.166 434.885 830.882 433.268 830.882 433.268Z" fill="white" fill-opacity="0.3"/>
<path d="M834.166 457.694C834.166 457.694 834.953 469.562 827.002 469.842C819.051 470.121 823.735 457.425 813.745 460.44C803.756 463.454 806.37 471.018 800.886 471.755C795.402 472.493 786.39 476.9 786.036 480.143C785.683 483.386 779.809 487.372 775.1 488.005C770.392 488.638 767.057 499.481 769.364 504.754C771.67 510.027 775.77 516.749 776.497 522.16C777.225 527.572 777.87 532.371 786.175 528.848C794.48 525.326 806.363 512.488 817.107 515.084C827.851 517.68 838.261 529.816 845.068 532.904C851.874 535.993 856.333 539.379 860.444 528.431C864.555 517.483 871.05 506.234 869.362 493.678C867.674 481.123 858.926 481.491 850.289 470.659C841.652 459.828 835.652 450.993 834.166 457.694Z" fill="white" fill-opacity="0.3"/>
<path d="M921.485 530.563C921.485 530.563 924.041 531.818 916.722 536.805C909.404 541.793 908.572 547.488 914.488 549.962C920.403 552.435 925.953 539.623 927.708 535.328C929.463 531.033 930.622 521.346 921.485 530.563Z" fill="white" fill-opacity="0.3"/>
<path d="M600.744 492.971C600.744 492.971 596.707 492.724 591.961 498.945C587.214 505.167 592.329 507.693 591.71 514.975C591.091 522.258 593.714 529.876 599.358 524.324C605.003 518.771 609.136 501.429 608.292 495.152C607.448 488.874 605.084 483.59 600.744 492.971Z" fill="white" fill-opacity="0.3"/>
<path d="M486.905 115.88C486.905 115.88 488.12 118.912 477.595 117.94C467.069 116.967 464.772 123.649 462.533 124.758C460.295 125.867 447.44 119.588 449.5 128.898C451.559 138.208 463.442 149.411 466.424 141.811C469.406 134.211 467.2 141.707 463.442 149.411C459.685 157.115 471.159 165.141 475.023 158.23C478.887 151.32 476.037 130.123 479.351 136.877C482.665 143.631 488.268 155.66 492.236 149.525C496.205 143.39 481.646 130.177 481.013 125.469C480.38 120.761 483.78 128.293 489.425 122.74C495.069 117.188 493.864 114.099 486.905 115.88Z" fill="white" fill-opacity="0.3"/>
<path d="M692.866 108.169C692.866 108.169 694.528 96.7611 686.785 98.5919C679.042 100.423 671.248 107.88 679.048 112.488C686.848 117.096 692.866 108.169 692.866 108.169Z" fill="white" fill-opacity="0.3"/>
<path d="M675.872 88.8747C673.881 85.9468 664.649 64.8189 660.712 71.7393C656.776 78.6598 666.136 94.1873 666.136 94.1873C666.136 94.1873 663.842 100.887 670.999 100.714C678.157 100.542 675.872 88.8747 675.872 88.8747Z" fill="white" fill-opacity="0.3"/>
<path d="M301.246 108.077C297.508 109.369 280.142 99.7299 272.574 108.736C265.006 117.743 264.837 122.632 261.596 134.179C258.355 145.726 264.022 152.219 262.772 154.811C261.523 157.403 263.355 153.135 254.783 160.679C246.21 168.222 244.305 166.073 251.068 174.034C257.832 181.995 249.867 182.992 259.563 189.678C269.259 196.363 270.499 181.816 281.181 189.967C291.864 198.117 288.739 210.53 298.182 233.227C307.625 255.925 315.833 293.205 321.404 298.847C326.974 304.49 335.086 304.997 337.556 294.27C340.025 283.543 344.762 264.541 355.677 256.663C366.592 248.786 382.045 238.738 380.884 230.097C379.722 221.456 372.908 218.314 374.419 211.793C375.93 205.272 382.055 209.168 380.682 198.958L377.823 177.689C376.663 169.067 372.348 148.857 373.603 146.301C374.857 143.745 378.976 132.723 378.668 130.432C378.36 128.141 382.904 120.275 384.156 117.701C385.428 114.322 385.975 110.713 385.762 107.109C385.444 104.745 388.619 98.7171 381.99 102.822C375.361 106.928 376.289 113.965 371.262 118.645C366.234 123.325 359.478 126.62 358.423 118.773C357.368 110.926 363.947 100.437 355.998 100.734C350.363 101.2 344.872 102.749 339.825 105.296C339.825 105.296 347.164 100.324 349.308 98.5113C351.451 96.6987 359.2 94.7753 361.302 92.1052C363.404 89.4351 363.386 83.8361 363.386 83.8361C361.227 81.8875 358.563 80.5847 355.699 80.0761C350.778 79.1217 350.04 73.6377 345.121 72.7013C340.202 71.7649 326.048 72.768 326.048 72.768C326.048 72.768 311.763 79.482 308.853 81.4711C306.1 83.539 303.468 85.7632 300.97 88.1324C300.97 88.1324 299.662 96.2973 302.447 99.1184C305.232 101.94 308.882 105.453 301.246 108.077Z" fill="white" fill-opacity="0.3"/>
<path d="M252.644 121.003C252.644 121.003 249.873 130.173 248.265 135.972C246.374 142.329 243.996 148.53 241.154 154.523C238.084 161.327 236.143 164.783 236.458 167.128C236.773 169.473 241.341 173.671 235.811 180.071C231.682 184.548 227.146 188.632 222.262 192.269C222.262 192.269 220.85 199.658 214.254 198.139C207.659 196.62 210.01 184.33 211.829 180.1C213.648 175.87 209.823 165.181 205.423 168.105C201.023 171.029 198.527 176.232 192.902 170.597C187.278 164.962 184.162 152.58 183.318 146.302C182.474 140.025 181.315 131.402 186.445 133.908C191.575 136.413 207.77 143.896 209.894 141.939C212.018 139.983 205.7 134.514 201.918 130.156C198.137 125.797 190.335 121.318 198.343 115.448C206.351 109.578 215.655 107.611 221.412 102.76C227.17 97.9087 230.672 94.3156 238.819 95.6262C246.965 96.9367 253.737 93.6204 256.926 99.5828C258.985 103.676 260.388 108.067 261.082 112.596L252.644 121.003Z" fill="white" fill-opacity="0.3"/>
<path d="M218.336 204.734C218.336 204.734 217.56 204.839 208.286 201.292C199.012 197.746 191.983 181.115 191.008 191.622C190.033 202.13 203.399 212.344 209.24 214.809C215.081 217.275 237.912 214.15 233.624 206.021C229.335 197.893 218.336 204.734 218.336 204.734Z" fill="white" fill-opacity="0.3"/>
<path d="M254.6 236.626C250.456 235.586 238.837 232.355 232.72 228.384C226.603 224.413 216.103 217.762 213.022 224.622C209.941 231.483 214.831 249.962 221.638 253.051C228.444 256.139 236.715 246.212 243.256 253.34C249.798 260.468 257.994 267.336 257.09 273.041C256.185 278.746 253.754 283.884 261.084 290.869C268.415 297.854 277.165 297.504 275.792 287.294C274.419 277.084 265.728 271.861 271.901 270.241C278.075 268.622 285.48 275.615 280.789 265.043C276.099 254.47 270.939 251.197 268.065 247.58C265.191 243.963 254.6 236.626 254.6 236.626Z" fill="white" fill-opacity="0.3"/>
<path d="M184.164 259.688C184.164 259.688 175.999 258.38 174.619 248.116C173.239 237.851 163.711 226.405 162.317 233.792C160.923 241.179 155.718 244.266 148.703 239.626C141.688 234.986 133.752 224.042 128.286 230.378C122.82 236.715 105.478 251.021 121.93 254.41C138.382 257.8 142.399 246.148 144.274 248.21C146.149 250.272 142.916 249.991 145.751 259.196C148.587 268.402 157.842 271.951 164.914 271C171.985 270.049 172.5 261.991 176.061 264.708C179.621 267.425 188.798 270.25 184.164 259.688Z" fill="white" fill-opacity="0.3"/>
</g>
</svg>
