<svg width="186" height="186" viewBox="0 0 186 186" fill="none" xmlns="http://www.w3.org/2000/svg">
<g filter="url(#filter0_f_173_4627)">
<rect x="50" y="50" width="86" height="86" rx="33.7838" fill="#C171DF"/>
</g>
<rect x="43" y="43" width="100" height="100" rx="33.7838" fill="url(#paint0_linear_173_4627)"/>
<path d="M89.2371 72.2478C83.2545 73.2948 77.7205 77.034 74.5796 82.2688C74.2804 82.7175 74.1309 83.1662 74.1309 83.1662C74.1309 83.1662 74.7291 83.3158 75.477 83.3158H76.8231L77.5709 82.2688C80.4127 78.5297 84.0023 76.1366 88.1902 75.0896C93.5746 73.7435 98.959 74.6409 103.596 77.7818C105.091 78.6792 107.036 80.6236 108.083 82.1193L108.98 83.3158H110.476H111.971L111.822 83.0167C111.672 82.8671 111.373 82.2688 110.924 81.6705C108.83 78.3801 106.138 75.987 102.549 74.3417C100.455 73.2948 99.7068 72.9957 97.4633 72.547C96.2668 72.2478 95.6685 72.2478 93.2755 72.0982C91.0319 71.9487 90.4337 71.9487 89.2371 72.2478Z" fill="white"/>
<path d="M82.9582 88.251L83.2573 88.5501V93.0371C83.2573 96.0285 83.2573 97.6737 83.1078 97.8233C82.6591 98.7207 80.4156 98.7207 79.9669 97.8233C79.8173 97.6737 79.8173 96.0285 79.8173 93.1867C79.8173 88.9988 79.8173 88.8492 80.1164 88.5501C80.266 88.4005 80.5651 88.1014 80.8643 88.1014C81.4625 87.8023 82.5095 87.9519 82.9582 88.251ZM79.3686 85.7083C78.1721 86.0075 76.9755 86.4562 76.5268 87.204L76.0781 87.6527V92.738C76.0781 96.1781 76.0781 97.9728 76.2277 98.272C76.3773 99.0198 77.4242 99.7677 78.4712 100.067C79.3686 100.366 79.6677 100.366 81.7617 100.366C84.3043 100.366 85.0521 100.216 86.2487 99.4685C87.4452 98.7207 87.4452 98.8702 87.4452 92.8875C87.4452 87.204 87.4452 87.3536 86.6974 86.6057C85.8 85.7083 84.6034 85.4092 82.3599 85.4092C80.8643 85.5587 79.9669 85.5588 79.3686 85.7083Z" fill="white"/>
<path d="M95.5207 88.1024C96.119 88.4016 96.119 88.7007 96.119 93.1877V97.5251L95.6703 97.9739C95.2216 98.4226 95.2216 98.4225 94.3242 98.4225C93.5763 98.4225 93.2772 98.4225 92.9781 98.1234L92.5294 97.8243V93.3373C92.5294 88.252 92.5294 88.4016 93.4268 88.1024C94.1746 87.8033 95.072 87.9528 95.5207 88.1024ZM92.2302 85.7093C90.2859 86.0085 89.0893 86.9059 88.7902 88.1024C88.6406 88.4016 88.6406 90.1964 88.6406 93.4868V98.4225L89.0893 99.0208C89.9867 100.217 91.7815 100.816 94.7729 100.666C97.0164 100.666 98.0633 100.367 98.9607 99.4695C99.8582 98.7217 99.8582 98.7217 99.8582 93.1877C99.8582 88.5511 99.8582 88.1024 99.559 87.6537C99.2599 86.9059 98.3625 86.3076 97.3155 86.0085C96.4181 85.5598 93.5763 85.4102 92.2302 85.7093Z" fill="white"/>
<path d="M71.8887 85.8595C71.2905 86.0091 70.8418 86.3082 70.6922 86.6074C70.3931 86.9065 69.9444 87.2056 68.8974 87.3552L68 87.5048V88.103C68 89.15 68.7478 89.7483 69.9444 89.7483H70.3931V93.9362V98.124L69.9444 98.4232C69.4957 98.7223 69.4957 98.8719 69.4957 99.7693V100.667H72.3374H75.4784V99.7693C75.4784 98.8719 75.4784 98.8719 74.8801 98.4232L74.2818 97.9745V91.8422V85.71H73.2348C72.7861 85.71 72.1879 85.71 71.8887 85.8595Z" fill="white"/>
<path d="M105.092 87.803C105.242 87.9526 105.242 88.4013 105.242 89.2987C105.242 90.3456 105.242 90.4952 104.943 90.7943C104.644 91.0935 104.046 91.0935 103.746 90.6448C103.447 90.3456 103.447 87.9526 103.746 87.803C104.195 87.3543 104.793 87.3543 105.092 87.803ZM102.849 85.8586C101.204 86.3073 100.605 87.3543 100.605 89.4482C100.605 90.6448 101.054 91.5422 101.652 91.9909C102.251 92.4396 103.597 92.5892 104.793 92.5892C107.486 92.4396 108.383 91.5422 108.383 88.9996C108.383 87.803 108.233 87.3543 107.635 86.7561C106.738 85.8587 104.494 85.4099 102.849 85.8586Z" fill="white"/>
<path d="M111.077 85.859C111.077 86.0085 109.731 88.7008 108.085 91.8417C106.44 94.9826 104.945 98.273 104.496 99.1705L103.748 100.666H105.543H107.338L110.927 93.3373C112.872 89.299 114.517 86.0086 114.517 86.0086C114.517 86.0086 113.769 86.0086 112.722 86.0086C111.675 85.7094 111.226 85.7094 111.077 85.859Z" fill="white"/>
<path d="M114.666 95.7304C114.965 95.8799 114.965 96.0295 114.965 97.226C114.965 98.4226 114.965 98.5721 114.666 98.7217C114.366 99.0208 113.918 99.0208 113.619 98.7217C113.319 98.4226 113.17 97.0765 113.319 96.3286C113.319 95.7304 113.918 95.2817 114.666 95.7304ZM112.572 93.9355C110.926 94.2347 110.328 95.2817 110.328 97.226C110.328 98.8713 110.777 99.7686 111.824 100.367C112.272 100.666 112.572 100.666 114.067 100.666C115.563 100.666 115.862 100.666 116.46 100.367C117.358 99.9182 117.806 99.1704 117.956 97.9739C118.255 95.4312 117.059 94.0851 114.366 93.9355C113.619 93.9355 112.871 93.9355 112.572 93.9355Z" fill="white"/>
<path d="M74.1331 103.806C76.5262 107.994 80.1158 111.285 84.6028 113.229C90.2864 115.622 97.0169 115.473 102.551 112.78C105.542 111.285 108.234 109.041 110.029 106.648C110.777 105.601 112.273 103.358 112.273 103.208C112.273 103.208 111.674 103.059 110.927 103.059H109.581L108.982 103.956C106.29 108.144 101.953 110.986 96.8673 112.033C95.2221 112.332 91.1838 112.332 89.5385 112.033C86.9959 111.434 84.6028 110.537 82.5089 109.191C81.1628 108.293 78.1714 105.302 77.4236 103.956L76.8253 103.059H75.3297H73.834L74.1331 103.806Z" fill="white"/>
<defs>
<filter id="filter0_f_173_4627" x="7.62939e-06" y="7.62939e-06" width="186" height="186" filterUnits="userSpaceOnUse" color-interpolation-filters="sRGB">
<feFlood flood-opacity="0" result="BackgroundImageFix"/>
<feBlend mode="normal" in="SourceGraphic" in2="BackgroundImageFix" result="shape"/>
<feGaussianBlur stdDeviation="25" result="effect1_foregroundBlur_173_4627"/>
</filter>
<linearGradient id="paint0_linear_173_4627" x1="93" y1="43" x2="93" y2="143" gradientUnits="userSpaceOnUse">
<stop stop-color="#D892F3"/>
<stop offset="1" stop-color="#C171DF"/>
</linearGradient>
</defs>
</svg>
