<svg width="186" height="186" viewBox="0 0 186 186" fill="none" xmlns="http://www.w3.org/2000/svg">
<g filter="url(#filter0_f_173_4666)">
<rect x="50" y="50" width="86" height="86" rx="33.7838" fill="#F5575D"/>
</g>
<rect x="43" y="43" width="100" height="100" rx="33.7838" fill="url(#paint0_linear_173_4666)"/>
<path d="M108 82.342H76.75V81.092L104.25 78.892V81.092H108V77.342C108 74.592 105.772 72.662 103.052 73.0495L77.95 76.6345C75.2275 77.0245 73 79.592 73 82.342V107.342C73 108.668 73.5268 109.94 74.4645 110.878C75.4021 111.815 76.6739 112.342 78 112.342H108C109.326 112.342 110.598 111.815 111.536 110.878C112.473 109.94 113 108.668 113 107.342V87.342C113 86.0159 112.473 84.7442 111.536 83.8065C110.598 82.8688 109.326 82.342 108 82.342ZM104.25 99.857C103.757 99.8568 103.27 99.7597 102.815 99.571C102.359 99.3823 101.946 99.1059 101.598 98.7574C101.25 98.409 100.973 97.9953 100.785 97.5401C100.597 97.085 100.5 96.5971 100.5 96.1045C100.5 95.6119 100.597 95.1241 100.786 94.6691C100.975 94.214 101.251 93.8006 101.6 93.4523C101.948 93.1041 102.362 92.8279 102.817 92.6396C103.272 92.4512 103.76 92.3543 104.253 92.3545C105.247 92.3548 106.201 92.7504 106.905 93.4541C107.608 94.1578 108.003 95.1121 108.002 96.107C108.002 97.1019 107.607 98.0559 106.903 98.7592C106.199 99.4624 105.245 99.8573 104.25 99.857Z" fill="white"/>
<defs>
<filter id="filter0_f_173_4666" x="7.62939e-06" y="7.62939e-06" width="186" height="186" filterUnits="userSpaceOnUse" color-interpolation-filters="sRGB">
<feFlood flood-opacity="0" result="BackgroundImageFix"/>
<feBlend mode="normal" in="SourceGraphic" in2="BackgroundImageFix" result="shape"/>
<feGaussianBlur stdDeviation="25" result="effect1_foregroundBlur_173_4666"/>
</filter>
<linearGradient id="paint0_linear_173_4666" x1="93" y1="43" x2="93" y2="143" gradientUnits="userSpaceOnUse">
<stop stop-color="#FC797E"/>
<stop offset="1" stop-color="#F24A52"/>
</linearGradient>
</defs>
</svg>
