<svg width="24" height="25" viewBox="0 0 24 25" fill="none" xmlns="http://www.w3.org/2000/svg">
<path d="M11.0746 3.0578C11.3946 2.2138 12.6056 2.2138 12.9266 3.0578L14.9966 8.7918C15.0688 8.97859 15.1959 9.13909 15.3613 9.2521C15.5266 9.36511 15.7223 9.42533 15.9226 9.4248H21.0096C21.9496 9.4248 22.3596 10.5948 21.6206 11.1678L18.0006 14.4248C17.8384 14.5495 17.7199 14.7223 17.6621 14.9185C17.6042 15.1146 17.61 15.3241 17.6786 15.5168L19.0006 21.1198C19.3226 22.0198 18.2806 22.7928 17.4926 22.2388L12.5756 19.1188C12.4072 19.0005 12.2064 18.937 12.0006 18.937C11.7948 18.937 11.594 19.0005 11.4256 19.1188L6.50856 22.2388C5.72157 22.7928 4.67856 22.0188 5.00056 21.1198L6.32257 15.5168C6.39114 15.3241 6.39692 15.1146 6.33907 14.9185C6.28122 14.7223 6.16272 14.5495 6.00057 14.4248L2.38056 11.1678C1.64056 10.5948 2.05256 9.4248 2.99056 9.4248H8.07756C8.27786 9.42547 8.47363 9.36531 8.63898 9.25228C8.80433 9.13924 8.93147 8.97867 9.00357 8.7918L11.0736 3.0578H11.0746Z" fill="#FBB123"/>
</svg>
