<svg width="302" height="430" viewBox="0 0 302 430" fill="none" xmlns="http://www.w3.org/2000/svg">
<path d="M133.532 424.809C133.284 418.847 138.071 359.987 138.071 359.987L109.518 378.865C112.53 413.318 114.469 424.087 114.572 429.843C114.448 430.321 114.392 430.815 114.407 431.308C114.407 438.116 122.866 441.789 129.447 446.327C135.079 450.348 141.034 453.895 147.251 456.932C152.038 459.119 161.693 459.325 162.951 456.519C154.947 450.949 143.29 442.593 136.915 436.239C133.883 433.165 133.759 430.772 133.532 424.809Z" fill="#9E6767"/>
<path d="M114.507 428.152C114.157 428.161 113.82 428.285 113.547 428.505C113.275 428.725 113.083 429.029 113.001 429.37C112.692 430.834 112.362 435.043 111.701 437.416C110.678 441.59 110.343 445.904 110.711 450.186C111.268 452.868 118.118 454.746 122.471 456.272C127.565 458.288 132.339 461.034 136.644 464.421C142.896 468.639 150.161 471.11 157.688 471.58C165.383 471.58 174.048 469.249 176.049 465.989C178.504 461.966 176.565 459.635 165.156 454.807C163.093 453.9 155.398 449.815 152.777 448.329C145.784 444.306 138.852 438.715 135.633 431.598C135.344 430.71 134.762 429.946 133.983 429.431C133.275 429.151 132.499 429.086 131.755 429.246C129.865 429.494 128.019 430.001 126.267 430.752C124.74 431.433 122.553 432.196 122.595 433.991C122.638 434.616 122.784 435.229 123.028 435.806C123.172 436.178 123.275 436.652 123.028 436.879C122.78 437.106 122.244 436.879 121.955 436.59C120.835 435.56 119.807 434.435 118.881 433.228C118.342 432.603 117.733 432.042 117.065 431.556C116.391 431.208 115.737 430.822 115.106 430.401C114.363 429.762 114.548 428.936 114.507 428.152Z" fill="#6084F4"/>
<path opacity="0.9" d="M114.507 428.152C114.157 428.161 113.82 428.285 113.547 428.505C113.275 428.725 113.083 429.029 113.001 429.37C112.692 430.834 112.362 435.043 111.701 437.416C110.678 441.59 110.343 445.904 110.711 450.186C111.268 452.868 118.118 454.746 122.471 456.272C127.565 458.288 132.339 461.034 136.644 464.421C142.896 468.639 150.161 471.11 157.688 471.58C165.383 471.58 174.048 469.249 176.049 465.989C178.504 461.966 176.565 459.635 165.156 454.807C163.093 453.9 155.398 449.815 152.777 448.329C145.784 444.306 138.852 438.715 135.633 431.598C135.344 430.71 134.762 429.946 133.983 429.431C133.275 429.151 132.499 429.086 131.755 429.246C129.865 429.494 128.019 430.001 126.267 430.752C124.74 431.433 122.553 432.196 122.595 433.991C122.638 434.616 122.784 435.229 123.028 435.806C123.172 436.178 123.275 436.652 123.028 436.879C122.78 437.106 122.244 436.879 121.955 436.59C120.835 435.56 119.807 434.435 118.881 433.228C118.342 432.603 117.733 432.042 117.065 431.556C116.391 431.208 115.737 430.822 115.106 430.401C114.363 429.762 114.548 428.936 114.507 428.152Z" fill="white"/>
<path d="M150.073 456.107C157.17 458.706 154.199 459.903 152.136 460.233C150.073 460.563 138.189 454.044 130.907 448.865C123.314 443.378 118.528 437.395 115.681 435.373C114.629 434.63 113.515 433.702 112.504 432.835C112.69 431.412 112.834 430.112 112.978 429.431C113.057 429.089 113.248 428.783 113.521 428.562C113.794 428.342 114.133 428.219 114.484 428.214C114.484 429.06 114.361 429.823 115.041 430.463C115.673 430.884 116.327 431.27 117.001 431.618C117.668 432.104 118.278 432.664 118.817 433.289C119.743 434.496 120.771 435.622 121.891 436.652C128.101 443.77 142.976 453.528 150.073 456.107Z" fill="#6084F4"/>
<path d="M78.3636 380.928L49.4805 380.412C49.9137 399.681 52.9671 421.096 53.4828 439.189C53.4828 442.614 53.4828 465.679 54.6794 472.673C56.5981 483.216 69.121 481.792 69.7606 475.479C70.4001 469.166 68.956 442.263 68.9972 439.478C68.9972 427.884 74.3406 408.284 77.2496 387.447C77.2289 386.416 78.2192 381.918 78.3636 380.928Z" fill="#9E6767"/>
<path d="M63.941 181.366C59.2368 192.198 56.1772 203.671 54.8634 215.407C51.5831 258.092 49.9327 320.088 49.9327 320.088C49.5407 324.565 46.7143 334.694 44.8162 354.335C42.5675 377.524 48.8186 455.426 48.8186 455.426C48.8186 455.426 62.7032 463.678 73.5756 454.291C73.5756 454.291 86.1192 346.186 89.0487 323.121C91.5863 302.985 98.6833 259.433 98.6833 259.433L104.047 326.091C104.047 326.091 103.284 344.205 103.82 355.924C104.439 369.54 111.103 436.714 111.103 436.714C111.103 436.714 130.187 443.171 138.707 434.011C138.707 434.011 140.77 337.768 141.018 321.367C141.575 289.224 139.904 229.292 138.769 196.633L63.941 181.366Z" fill="#6084F4"/>
<path opacity="0.6" d="M63.941 181.366C59.2368 192.198 56.1772 203.671 54.8634 215.407C51.5831 258.092 49.9327 320.088 49.9327 320.088C49.5407 324.565 46.7143 334.694 44.8162 354.335C42.5675 377.524 48.8186 455.426 48.8186 455.426C48.8186 455.426 62.7032 463.678 73.5756 454.291C73.5756 454.291 86.1192 346.186 89.0487 323.121C91.5863 302.985 98.6833 259.433 98.6833 259.433L104.047 326.091C104.047 326.091 103.284 344.205 103.82 355.924C104.439 369.54 111.103 436.714 111.103 436.714C111.103 436.714 130.187 443.171 138.707 434.011C138.707 434.011 140.77 337.768 141.018 321.367C141.575 289.224 139.904 229.292 138.769 196.633L63.941 181.366Z" fill="white"/>
<path opacity="0.2" d="M98.6016 259.475L101.572 238.968C101.572 238.968 118.882 236.657 126.742 229.292C124.494 232.804 121.501 235.777 117.975 238.002C114.448 240.227 110.475 241.649 106.338 242.166L103.264 260.733L103.058 318.5L98.6016 259.475Z" fill="black"/>
<path d="M154.139 187.308L140.606 204.06C140.606 204.06 131.198 188.463 131.569 188.463C131.941 188.463 143.494 169.545 143.494 169.545L154.139 187.308Z" fill="#9E6767"/>
<path d="M110.816 81.4717C121.441 81.3066 133.201 81.0178 143.475 93.2106C151.418 102.68 172.936 132.038 177.268 139.547C182.158 148.047 182.839 151.493 179.001 157.847C175.164 164.201 152.181 190.568 152.181 190.568C146.88 186.006 142.885 180.118 140.607 173.506L154.141 150.812L128.146 112.418L110.816 81.4717Z" fill="#37474F"/>
<path d="M110.236 80.9969C126.741 79.594 133.962 81.9252 140.275 88.6096C144.69 93.2928 171.737 129.438 171.737 129.438C171.737 129.438 170.602 136.576 150.508 147.284L128.453 121.536L110.236 80.9969Z" fill="#6084F4"/>
<path opacity="0.6" d="M110.236 80.9969C126.741 79.594 133.962 81.9252 140.275 88.6096C144.69 93.2928 171.737 129.438 171.737 129.438C171.737 129.438 170.602 136.576 150.508 147.284L128.453 121.536L110.236 80.9969Z" fill="white"/>
<path d="M84.3887 81.7604C80.6545 82.6682 67.3476 82.6682 58.5795 85.7834C53.8138 87.4751 52.741 93.4168 52.1633 100.225C50.9049 114.811 53.1742 142.167 53.1742 142.167L52.9886 211.962C65.0783 220.75 114.737 225.227 140.174 206.66C140.174 206.66 137.059 123.558 137.059 110.623C137.059 97.6874 129.88 82.1524 110.033 80.9971L84.3887 81.7604Z" fill="#6084F4"/>
<path opacity="0.75" d="M84.3887 81.7604C80.6545 82.6682 67.3476 82.6682 58.5795 85.7834C53.8138 87.4751 52.741 93.4168 52.1633 100.225C50.9049 114.811 53.1742 142.167 53.1742 142.167L52.9886 211.962C65.0783 220.75 114.737 225.227 140.174 206.66C140.174 206.66 137.059 123.558 137.059 110.623C137.059 97.6874 129.88 82.1524 110.033 80.9971L84.3887 81.7604Z" fill="white"/>
<path d="M108.42 85.4941C104.005 89.0633 92.2041 90.0948 84.0137 86.7939C91.7154 95.3404 100.098 103.247 109.08 110.437C111.675 102.285 111.443 93.4968 108.42 85.4941Z" fill="#455A64"/>
<path d="M88.4512 26.6347C88.4471 31.2424 89.8097 35.7477 92.3666 39.5808C94.9235 43.4139 98.5598 46.4026 102.816 48.1687C107.071 49.9347 111.755 50.399 116.275 49.5026C120.794 48.6062 124.947 46.3894 128.206 43.1327C131.466 39.8761 133.686 35.7259 134.587 31.207C135.487 26.6882 135.027 22.0039 133.265 17.7466C131.502 13.4893 128.517 9.85032 124.686 7.29003C120.855 4.72973 116.351 3.36316 111.743 3.36316C105.569 3.36316 99.6481 5.81431 95.2806 10.178C90.9131 14.5417 88.4566 20.4608 88.4512 26.6347Z" fill="black"/>
<path d="M71.4922 43.1396C71.4922 43.1396 75.2676 60.8615 76.7737 63.7705C77.7878 65.5619 79.4485 66.8978 81.4156 67.5047L81.1474 55.023L71.4922 43.1396Z" fill="black"/>
<path d="M76.2152 17.784C74.8978 17.629 73.5624 17.777 72.311 18.2168C71.0595 18.6566 69.9251 19.3765 68.9944 20.3216C65.8791 23.4988 67.6121 33.4429 71.4907 43.1806L78.5877 44.0058L76.2152 17.784Z" fill="black"/>
<path d="M80.7353 44.0061C79.3118 44.852 77.2694 42.1081 75.5157 40.2719C73.7621 38.4358 68.0268 35.9188 65.2003 41.9636C62.3739 48.0085 67.7173 56.2195 72.2355 57.6431C80.0339 60.0775 81.1892 55.0848 81.1892 55.0848L81.7669 83.968C90.0068 93.6378 99.1689 102.482 109.123 110.375C111.785 103.65 111.785 91.4364 107.06 82.3795V73.8795C110.531 74.4354 114.052 74.6153 117.561 74.416C123.276 73.5495 126.887 69.0313 128.62 62.8214C131.405 52.8773 132.457 44.8313 130.105 25.2527C127.505 3.79659 102.542 3.56963 89.0702 12.0489C75.5983 20.5282 80.7353 44.0061 80.7353 44.0061Z" fill="#9E6767"/>
<path d="M129.69 15.6799C124.986 19.4966 121.912 21.539 112.814 21.8691C106.609 22.0989 100.434 20.9062 94.7616 18.3825C94.439 20.562 93.5096 22.6068 92.0796 24.2829C90.2677 26.0904 88.0956 27.4962 85.7047 28.4091C85.2095 32.267 85.2301 37.2184 84.9826 41.097C84.9826 42.4174 84.9826 49.3494 81.8054 47.2863C80.7702 46.3975 79.8548 45.3781 79.0822 44.2535C77.9752 42.8544 76.7832 41.5246 75.513 40.2718C73.0579 38.0437 76.2145 17.7842 76.2145 17.7842C75.3677 16.0007 75.0781 14.0033 75.3836 12.0528C75.689 10.1023 76.5753 8.28909 77.9268 6.84985C81.2896 3.1363 85.9935 -1.4025 101.26 0.413009C112.153 1.71275 123.954 5.09621 133.589 0.413009C134.992 5.88018 133.052 12.9359 129.69 15.6799Z" fill="black"/>
<path d="M76.237 19.3519L67.6133 14.7306C67.8987 14.1577 68.2965 13.6482 68.7831 13.2324C69.2696 12.8167 69.8349 12.5032 70.4453 12.3106C71.0557 12.1181 71.6985 12.0505 72.3356 12.1118C72.9726 12.1731 73.5908 12.3621 74.1533 12.6675C75.2778 13.3152 76.1169 14.363 76.5031 15.6019C76.8893 16.8409 76.7943 18.1799 76.237 19.3519Z" fill="black"/>
<path d="M107.06 73.8798C107.06 73.8798 94.2686 71.3216 89.8123 68.9284C87.1682 67.5422 85.0092 65.3832 83.623 62.7391C84.3024 65.3546 85.4946 67.809 87.1303 69.9599C90.4106 74.0861 107.06 77.2013 107.06 77.2013V73.8798Z" fill="#874C4C"/>
<path d="M104.667 40.7261C104.642 41.2628 104.461 41.7807 104.145 42.2153C103.829 42.65 103.393 42.9824 102.89 43.1712C102.387 43.36 101.839 43.397 101.316 43.2776C100.792 43.1581 100.314 42.8875 99.943 42.4993C99.5715 42.1111 99.3222 41.6223 99.226 41.0937C99.1298 40.5651 99.1909 40.0199 99.4017 39.5257C99.6125 39.0314 99.9638 38.61 100.412 38.3136C100.86 38.0172 101.385 37.8589 101.923 37.8584C102.665 37.88 103.369 38.193 103.883 38.7296C104.396 39.2663 104.678 39.9834 104.667 40.7261Z" fill="black"/>
<path d="M101.984 31.4416L96.3107 34.5568C95.9092 33.7792 95.8246 32.8764 96.0747 32.0378C96.3247 31.1991 96.8899 30.49 97.6517 30.0593C98.0246 29.8545 98.4352 29.7276 98.8586 29.6865C99.2821 29.6454 99.7094 29.6909 100.115 29.8202C100.52 29.9495 100.895 30.16 101.216 30.4387C101.538 30.7174 101.799 31.0586 101.984 31.4416Z" fill="black"/>
<path d="M102.562 56.7146L111.846 60.1806C111.644 60.8046 111.319 61.3815 110.889 61.8767C110.459 62.3718 109.933 62.775 109.344 63.0621C108.754 63.3492 108.113 63.5142 107.458 63.5473C106.803 63.5803 106.148 63.4808 105.533 63.2546C104.284 62.7645 103.276 61.8076 102.722 60.5868C102.167 59.3659 102.11 57.977 102.562 56.7146Z" fill="#874C4C"/>
<path d="M127.837 33.5253L122.617 29.5436C122.859 29.193 123.17 28.8953 123.531 28.6688C123.891 28.4423 124.294 28.2916 124.715 28.2259C125.136 28.1603 125.566 28.1811 125.978 28.287C126.391 28.393 126.778 28.5819 127.115 28.8422C127.811 29.3823 128.274 30.1688 128.409 31.0399C128.543 31.911 128.338 32.8005 127.837 33.5253Z" fill="black"/>
<path d="M126.123 40.4364C126.103 40.9579 125.93 41.4619 125.626 41.8858C125.321 42.3097 124.899 42.6347 124.411 42.8204C123.923 43.0061 123.392 43.0443 122.883 42.9303C122.373 42.8162 121.909 42.555 121.547 42.179C121.185 41.803 120.941 41.3289 120.847 40.8157C120.752 40.3024 120.811 39.7727 121.015 39.2924C121.219 38.8121 121.56 38.4023 121.995 38.1142C122.43 37.8261 122.94 37.6723 123.462 37.6719C123.819 37.6772 124.171 37.7531 124.498 37.8952C124.825 38.0373 125.121 38.2428 125.369 38.4998C125.616 38.7568 125.81 39.0603 125.94 39.3926C126.069 39.725 126.132 40.0798 126.123 40.4364Z" fill="black"/>
<path d="M113.023 36.7646L113.931 53.4756L122.658 50.5048L113.023 36.7646Z" fill="#874C4C"/>
<path d="M79.6831 83.596C76.2996 84.3181 75.3712 98.6153 76.1965 115.925C76.3409 118.772 76.5266 121.041 76.4647 122.114H74.546C74.546 121.082 74.546 118.854 74.2778 116.069C73.4113 102.37 73.3082 82.5026 79.2705 81.5948C80.06 81.404 80.873 81.3275 81.6843 81.3679V83.431L79.6831 83.596Z" fill="#6084F4"/>
<path opacity="0.2" d="M79.6831 83.596C76.2996 84.3181 75.3712 98.6153 76.1965 115.925C76.3409 118.772 76.5266 121.041 76.4647 122.114H74.546C74.546 121.082 74.546 118.854 74.2778 116.069C73.4113 102.37 73.3082 82.5026 79.2705 81.5948C80.06 81.404 80.873 81.3275 81.6843 81.3679V83.431L79.6831 83.596Z" fill="black"/>
<path d="M71.7814 167.461H71.6164V166.12C73.219 165.99 74.7542 165.418 76.052 164.469C74.663 163.551 73.4243 162.424 72.3797 161.127C70.1929 158.321 65.4271 138.227 66.8919 133.544C68.1298 129.624 71.9878 120.959 75.4125 120.814C78.8372 120.814 83.3347 129.067 84.882 132.78C86.7388 137.319 83.7061 157.744 81.7874 160.735C80.8389 162.107 79.6916 163.331 78.3833 164.366C79.7506 165.215 81.3336 165.652 82.9427 165.625L83.1078 166.966C81.0141 166.997 78.9589 166.401 77.2073 165.253C75.6374 166.476 73.7593 167.24 71.7814 167.461ZM75.5569 122.176C73.4938 122.176 69.9247 128.675 68.2742 133.956C66.9126 138.248 71.4926 157.702 73.5144 160.302C74.5626 161.604 75.8171 162.726 77.228 163.623C78.5813 162.606 79.765 161.38 80.7352 159.992C82.5095 157.228 85.4391 137.464 83.7267 133.296C81.7049 128.221 77.5993 122.176 75.5569 122.176Z" fill="#455A64"/>
<path d="M85.1527 166.223C85.1859 166.637 85.0937 167.05 84.8881 167.411C84.6825 167.771 84.3731 168.061 84.0003 168.243C83.6274 168.424 83.2084 168.49 82.798 168.43C82.3875 168.37 82.0047 168.187 81.6995 167.906C81.3942 167.626 81.1807 167.259 81.0868 166.855C80.9929 166.451 81.0229 166.028 81.173 165.642C81.3231 165.255 81.5863 164.922 81.9282 164.688C82.2701 164.453 82.6749 164.326 83.0897 164.325C83.6094 164.323 84.1106 164.518 84.4931 164.87C84.8756 165.222 85.1112 165.705 85.1527 166.223Z" fill="#263238"/>
<path d="M73.6196 166.697C73.6527 167.11 73.5605 167.524 73.3549 167.884C73.1493 168.245 72.8399 168.535 72.4671 168.716C72.0942 168.898 71.6752 168.963 71.2648 168.903C70.8543 168.843 70.4715 168.661 70.1663 168.38C69.861 168.099 69.6475 167.733 69.5536 167.329C69.4597 166.925 69.4897 166.502 69.6398 166.115C69.7899 165.729 70.0531 165.396 70.395 165.161C70.7369 164.926 71.1417 164.8 71.5565 164.799C72.0762 164.797 72.5774 164.992 72.9599 165.344C73.3424 165.696 73.578 166.179 73.6196 166.697Z" fill="#263238"/>
<path d="M85.3538 141.631H84.2191C84.1043 141.616 83.9989 141.559 83.9229 141.472C83.8469 141.384 83.8055 141.272 83.8065 141.156C84.1414 138.604 84.0226 136.013 83.4558 133.502C81.3927 128.633 77.2665 122.506 75.5335 122.588C73.8005 122.671 70.1282 129.108 68.5397 134.142C68.2131 136.692 68.3178 139.28 68.8491 141.796C68.8671 141.913 68.8382 142.033 68.7688 142.129C68.6994 142.226 68.5949 142.291 68.4778 142.311L67.3637 142.476C67.2462 142.494 67.1264 142.466 67.03 142.396C66.9335 142.327 66.8682 142.222 66.8479 142.105C66.2314 139.284 66.1544 136.372 66.621 133.523C67.4669 130.841 71.4486 120.732 75.451 120.567C79.4534 120.401 84.2604 130.119 85.3332 132.739C86.0382 135.529 86.2063 138.427 85.8283 141.28C85.804 141.385 85.7428 141.479 85.6558 141.543C85.5688 141.607 85.4617 141.638 85.3538 141.631Z" fill="#6084F4"/>
<g opacity="0.2">
<path d="M85.3558 141.631H84.2211C84.1062 141.616 84.0009 141.559 83.9249 141.472C83.8489 141.384 83.8075 141.272 83.8085 141.156C84.1433 138.604 84.0246 136.013 83.4577 133.502C81.3946 128.633 77.2685 122.506 75.5355 122.588C73.8025 122.671 70.1302 129.108 68.5416 134.142C68.2151 136.692 68.3197 139.28 68.8511 141.796C68.869 141.913 68.8402 142.033 68.7708 142.129C68.7013 142.226 68.5968 142.291 68.4797 142.311L67.3657 142.476C67.2482 142.494 67.1284 142.466 67.0319 142.396C66.9355 142.327 66.8701 142.222 66.8499 142.105C66.2334 139.284 66.1564 136.372 66.623 133.523C67.4688 130.841 71.4506 120.732 75.453 120.567C79.4553 120.401 84.2623 130.119 85.3351 132.739C86.0402 135.529 86.2082 138.427 85.8303 141.28C85.806 141.385 85.7448 141.479 85.6578 141.543C85.5708 141.607 85.4637 141.638 85.3558 141.631Z" fill="black"/>
</g>
<path d="M107.061 79.4502C110.114 79.8628 119.439 84.4841 123.937 98.4306C128.434 112.377 128.063 134.225 128.063 140.332C128.063 146.439 127.506 151.019 127.506 151.019H125.319C125.319 151.019 125.628 143.241 125.711 139.342C126.02 122.177 124.947 107.529 121.585 98.6987C117.458 88.1358 112.817 84.7523 107.143 82.0703L107.061 79.4502Z" fill="#6084F4"/>
<path opacity="0.2" d="M107.061 79.4502C110.114 79.8628 119.439 84.4841 123.937 98.4306C128.434 112.377 128.063 134.225 128.063 140.332C128.063 146.439 127.506 151.019 127.506 151.019H125.319C125.319 151.019 125.628 143.241 125.711 139.342C126.02 122.177 124.947 107.529 121.585 98.6987C117.458 88.1358 112.817 84.7523 107.143 82.0703L107.061 79.4502Z" fill="black"/>
<path d="M125.94 159.931C130.292 159.931 133.821 156.402 133.821 152.05C133.821 147.697 130.292 144.169 125.94 144.169C121.587 144.169 118.059 147.697 118.059 152.05C118.059 156.402 121.587 159.931 125.94 159.931Z" fill="#455A64"/>
<path d="M125.94 156.526C128.412 156.526 130.417 154.522 130.417 152.049C130.417 149.577 128.412 147.572 125.94 147.572C123.467 147.572 121.463 149.577 121.463 152.049C121.463 154.522 123.467 156.526 125.94 156.526Z" fill="#37474F"/>
<path d="M81.5814 213.962V279.981C81.6122 280.214 81.5784 280.45 81.4838 280.665C81.3892 280.88 81.2374 281.064 81.045 281.198L78.0741 282.952C77.9175 282.983 77.7563 282.983 77.5996 282.952C77.3013 282.942 77.0104 282.857 76.7538 282.704L1.9257 239.586C1.36745 239.217 0.903223 238.723 0.570082 238.142C0.23694 237.562 0.0441177 236.912 0.00702762 236.244V170.225C-0.016757 169.99 0.0200634 169.753 0.113966 169.536C0.207868 169.32 0.355725 169.13 0.543434 168.987H0.667214L3.47301 167.357C3.62441 167.274 3.79512 167.231 3.96815 167.234C4.27254 167.246 4.56957 167.331 4.83465 167.481L44.0333 190.175L48.6752 192.857L55.6071 196.839H55.7928L79.6008 210.579C79.7377 210.659 79.8687 210.749 79.9928 210.847C80.38 211.182 80.7078 211.579 80.9624 212.023C81.3351 212.604 81.5485 213.273 81.5814 213.962Z" fill="#6084F4"/>
<path opacity="0.5" d="M81.0248 212.065L78.1365 213.757C78.0499 213.606 77.9534 213.462 77.8477 213.324C77.6476 213.053 77.4194 212.804 77.1669 212.581L76.7749 212.292L52.9669 198.573L45.9111 194.446L43.0641 192.817L1.96745 169.194C1.78578 169.069 1.5779 168.988 1.35976 168.955C1.14161 168.923 0.919007 168.941 0.708984 169.009L3.51476 167.379C3.66616 167.295 3.83689 167.252 4.00992 167.255C4.31612 167.256 4.61613 167.341 4.87641 167.503L44.075 190.196L48.7169 192.878L55.6489 196.86H55.8346L79.6426 210.6C79.7794 210.68 79.9104 210.77 80.0346 210.869C80.4309 211.208 80.7659 211.612 81.0248 212.065Z" fill="white"/>
<path d="M0.0294832 170.308V236.327C0.0657146 237 0.26019 237.656 0.597134 238.24C0.934077 238.824 1.40399 239.321 1.96877 239.689L77.0031 283.014C77.1764 283.117 77.3739 283.171 77.5753 283.172C77.7766 283.173 77.9746 283.121 78.1489 283.02C78.3232 282.919 78.4676 282.774 78.5672 282.599C78.6667 282.424 78.7179 282.225 78.7155 282.024V215.654C78.6898 214.983 78.4908 214.329 78.1378 213.756C77.8082 213.171 77.3408 212.676 76.7762 212.312L52.9682 198.572L45.9125 194.446L1.96877 169.194C1.7871 169.069 1.57922 168.987 1.36108 168.955C1.14293 168.923 0.920328 168.941 0.710305 169.008C0.48627 169.139 0.3036 169.33 0.183201 169.56C0.0628019 169.79 0.00953253 170.049 0.0294832 170.308Z" fill="#6084F4"/>
<path d="M78.1384 213.757C78.0518 213.606 77.9553 213.461 77.8496 213.323C77.9618 213.456 78.0586 213.602 78.1384 213.757Z" fill="#6084F4"/>
<path opacity="0.2" d="M77.9727 282.972L80.9641 281.24C81.1424 281.089 81.2823 280.898 81.372 280.683C81.4617 280.468 81.4987 280.234 81.4799 280.002V213.983C81.4542 213.311 81.2552 212.657 80.9022 212.085L78.0139 213.777C78.3605 214.351 78.5524 215.005 78.571 215.675V281.941C78.5792 282.152 78.5274 282.361 78.4214 282.543C78.3155 282.726 78.1599 282.875 77.9727 282.972Z" fill="black"/>
<path d="M18.9072 175.176C34.9373 109.653 43.169 89.5584 62.6445 89.806C68.3386 96.5935 62.3351 117.74 58.5184 128.014C58.5184 128.014 41.2916 170.101 38.0938 185.12C35.288 198.324 32.1109 214.911 32.3172 226.258C32.3754 228.272 33.1679 230.194 34.5453 231.664C38.197 235.625 38.2176 238.823 40.5695 243.196C42.4263 246.642 44.4687 247.921 43.8911 248.684C43.13 249.507 42.0858 250.011 40.9682 250.095C39.8506 250.179 38.7426 249.837 37.8669 249.138C36.1556 247.894 34.6218 246.422 33.3075 244.764C33.7263 249.936 34.9298 255.015 36.8766 259.825L41.0028 262.177C41.0028 262.177 39.7649 266.406 29.924 263.58C18.804 260.402 14.8222 259.02 13.6463 240.164C13.0844 233.225 13.0154 226.255 13.44 219.306C15.1111 201.398 16.3283 185.677 18.9072 175.176Z" fill="#9E6767"/>
<path d="M63.1169 84.5039C63.1169 84.5039 48.1595 85.0403 43.4557 92.2405C38.0091 100.493 33.2641 115.368 24.1246 147.944C14.9851 180.52 12.2 204.163 11.7461 222.462C11.7461 222.462 23.1962 227.806 33.7592 221.72C33.7592 221.72 38.4424 193.435 42.5892 178.395C46.736 163.355 60.0429 130.738 60.0429 130.738C60.0429 130.738 70.5233 107.095 63.1169 84.5039Z" fill="#37474F"/>
<path d="M67.3858 83.6992C56.3071 84.8545 46.3424 84.5038 40.8546 94.778C34.6653 106.373 20.8633 148.418 20.8633 148.418C24.5771 152.512 29.0783 155.815 34.0977 158.13C39.1171 160.444 44.5516 161.723 50.0765 161.89L63.4041 124.569C63.4041 124.569 72.1928 99.7706 67.3858 83.6992Z" fill="#6084F4"/>
<g opacity="0.6">
<path d="M67.3878 83.6992C56.309 84.8545 46.3443 84.5038 40.8565 94.778C34.6673 106.373 20.8652 148.418 20.8652 148.418C24.5791 152.512 29.0802 155.815 34.0996 158.13C39.119 160.444 44.5536 161.723 50.0785 161.89L63.406 124.569C63.406 124.569 72.1948 99.7706 67.3878 83.6992Z" fill="white"/>
</g>
<path d="M82.9637 268.346C83.8508 268.903 84.2428 267.211 84.4491 264.735V260.155C84.4491 260.155 87.9563 263.291 88.8022 252.687C89.7512 241.031 84.5316 238.906 84.5316 238.906C84.5316 238.906 84.5316 236.966 84.5316 233.129C84.5316 229.292 83.727 228.343 82.8399 227.703L81.5195 227.043V267.541C81.5195 267.541 82.0559 267.789 82.9637 268.346Z" fill="#37474F"/>
<path d="M78.6717 262.59C78.6717 259.124 78.3416 257.061 76.1135 255.699C73.8854 254.338 72.4825 253.636 72.4825 253.636L71.8223 232.16C71.8223 232.16 75.4946 234.635 76.753 235.378C78.0115 236.121 78.8161 231.726 78.6717 230.447L81.6838 231.809L82.0345 264.983L78.6717 262.59Z" fill="#37474F"/>
<path d="M71.4307 260.506L74.0508 262.095C75.5156 262.961 76.1139 258.505 75.495 252.13L76.1139 237.936C75.4537 231.561 75.3505 225.723 73.8857 224.856L71.2656 223.268L71.4307 260.506Z" fill="#37474F"/>
<path d="M200.078 171.842C211.014 172.148 214.101 176.523 220.703 185.926C227.306 195.329 249.689 230.897 249.689 230.897L281.414 243.161L277.326 261.681C277.326 261.681 250.466 256.326 236.729 253.505C234.936 253.258 233.225 252.601 231.728 251.583C230.232 250.565 228.991 249.215 228.103 247.638C226.345 244.96 208.704 217.201 208.704 217.201L200.078 171.842Z" fill="#E6E6E6"/>
<path d="M191.721 172.128C201.941 169.552 206.602 175.317 210.118 181.633C215.616 191.731 218.928 212.295 219.398 250.05C219.684 274.293 228.127 303.586 229.619 326.582C231.888 361.128 232.971 388.029 232.971 388.029C212.52 385.341 191.905 384.098 171.279 384.309L191.721 172.128Z" fill="#E0E0E0"/>
<path d="M132.175 523.657C132.175 523.657 126.042 481.241 128.556 456.364C130.784 435.023 133.912 426.09 134.362 421.246C134.362 421.246 137.959 371.165 136.978 328.749C136.508 308.675 137.489 286.456 151.798 262.744L152.309 261.804C153.577 269.571 165.555 274.62 176.246 275.806C186.467 276.951 199.385 274.886 214.696 269.673C218.11 289.788 221.994 328.115 225.959 369.836C228.003 390.277 227.554 407.448 228.003 420.592C228.453 438.396 226.838 508.203 226.838 508.203V511.146C226.838 514.397 227.738 516.666 230.007 521.817C232.869 528.464 236.844 534.575 241.76 539.887C243.293 541.44 253.841 550.108 255.272 551.947C259.851 556.935 250.816 560.124 244.009 559.449C236.813 558.734 225.612 556.383 222.321 552.131C220.133 549.31 218.232 539.192 215.963 536.31C208.359 526.641 205.211 522.471 205.068 519.303C204.782 513.579 206.663 511.249 207.276 507.999C206.458 501.253 192.762 465.992 191.863 446.327C191.864 437.627 192.417 428.936 193.519 420.305L181.458 352.011C178.801 371.246 173.732 414.561 171.892 428.359C169.357 447.349 159.975 479.462 154.067 504.707C152.261 511.226 150.969 517.876 150.204 524.597L150.061 526.804C150.061 529.605 149.774 559.511 148.875 565.847C146.994 579.073 135.261 577.806 133.033 567.217C131.132 558.223 132.195 530.136 132.134 526.702L132.175 523.657Z" fill="#F28F8F"/>
<path d="M190.021 453.952C189.211 443.19 189.602 432.372 191.186 421.696L181.088 354.444C181.088 354.444 174.281 418.466 173.054 428.38C171.828 438.294 153.451 545.345 153.451 545.345C144.028 550.946 131.906 549.168 124.016 544.977C124.016 501.683 125.365 458.327 126.939 446.328C128.322 438.134 130.199 430.031 132.56 422.064C132.56 422.064 133.562 358.921 133.5 334.943C133.439 310.966 135.258 294.94 139.817 284.167C143.365 276.33 147.57 268.808 152.388 261.682C152.388 261.682 155.884 273.497 183.643 273.517C211.402 273.538 214.468 266.526 214.468 266.526C214.468 266.526 222.645 294.899 225.302 337.785C227.489 372.351 228 388.07 228.655 403.483C229.207 416.606 229.554 431.774 229.861 458.286C230.085 478.298 232.906 522.308 232.906 522.308C232.906 522.308 219.374 529.442 196.991 521.266C196.991 521.266 191.411 471.225 190.021 453.952Z" fill="#455A64"/>
<path d="M181.09 354.444L186.548 313.766C194.602 312.937 202.114 309.322 207.786 303.545C207.786 303.545 204.679 313.398 191.638 318.917L184.279 354.607L189.655 411.843L181.09 354.444Z" fill="#37474F"/>
<path d="M168.152 174.97L155.07 176.36C146.403 178.404 142.478 182.308 141.599 189.994C139.974 198.285 140.127 206.827 142.049 215.055C144.808 225.868 152.126 252.381 152.126 252.381C152.126 252.381 142.601 276.215 138.104 288.235C168.949 308.349 207.011 300.5 219.869 288.235C218.806 276.726 214.717 266.015 213.736 255.733C213.736 255.733 214.411 239.707 215.678 232.757C225.449 222.107 224.202 211.927 219.766 203.71C211.59 188.543 199.489 175.215 195.544 175.235L168.152 174.97Z" fill="#6084F4"/>
<path opacity="0.6" d="M168.152 174.97L155.07 176.36C146.403 178.404 142.478 182.308 141.599 189.994C139.974 198.285 140.127 206.827 142.049 215.055C144.808 225.868 152.126 252.381 152.126 252.381C152.126 252.381 142.601 276.215 138.104 288.235C168.949 308.349 207.011 300.5 219.869 288.235C218.806 276.726 214.717 266.015 213.736 255.733C213.736 255.733 214.411 239.707 215.678 232.757C225.449 222.107 224.202 211.927 219.766 203.71C211.59 188.543 199.489 175.215 195.544 175.235L168.152 174.97Z" fill="white"/>
<path d="M167.372 174.969C167.372 174.969 178.145 203.28 180.598 222.495C183.051 241.71 174.629 299.784 173.32 334.186C172.36 359.247 169.989 395.326 169.989 395.326C162.348 396.05 154.646 395.782 147.074 394.529C134.4 392.137 130.476 390.073 123.26 385.351C123.26 385.351 129.515 322.412 132.581 297.944C135.484 274.927 147.871 252.237 147.871 252.237L132.99 190.729C132.99 190.729 133.726 180.325 143.497 177.422C152.797 174.663 167.372 174.969 167.372 174.969Z" fill="#FAFAFA"/>
<path d="M148.321 232.511C148.321 232.511 150.365 225.193 153.125 212.683C155.884 200.173 155.476 192.896 154.494 187.438L138.346 211.109L147.871 252.299C141.368 264.711 136.555 277.938 133.562 291.628C143.313 264.073 154.004 255.794 154.004 255.794L148.321 232.511Z" fill="#F5F5F5"/>
<path d="M166.924 165.852C165.35 165.525 163.96 166.22 162.672 168.387C161.384 170.554 158.584 175.194 158.584 175.194C158.584 175.194 157.112 190.443 158.584 194.225C159.831 197.516 173.792 209.842 173.792 209.842C173.792 209.842 170.133 223.558 170.01 228.035C169.888 232.511 178.657 249.6 179.638 258.329C179.638 258.329 182.398 230.876 181.11 221.023C178.592 205.01 173.852 189.426 167.026 174.724L166.924 165.852Z" fill="#EBEBEB"/>
<path d="M133.908 338.418C131.864 334.473 131.864 331.611 128.635 328.034C127.242 326.566 126.268 324.752 125.814 322.78C125.14 319.604 124.879 316.354 125.037 313.111L106.517 313.398C106.374 319.53 105.536 328.402 106.701 334.963C109.665 351.602 112.956 358.655 119.906 360.597C131.067 363.663 134.072 358.961 130.495 350.621C128.956 347.154 127.917 343.485 127.408 339.726C128.587 341.225 129.962 342.559 131.496 343.692C132.272 344.321 133.256 344.635 134.253 344.571C135.249 344.506 136.185 344.068 136.872 343.344C137.322 342.67 135.442 341.504 133.908 338.418Z" fill="#F28F8F"/>
<path d="M151.981 175.807C151.981 175.807 140.002 175.071 132.991 180.795C125.98 186.518 121.626 202.565 116.474 218.611C111.323 234.658 106.744 250.234 105.048 261.538C103.637 270.92 105.477 320.654 105.477 320.654C112.83 321.345 120.233 320.031 126.899 316.852L131.908 263.705L151.981 209.249C155.66 198.405 155.66 186.651 151.981 175.807Z" fill="#F0F0F0"/>
<path d="M163.305 209.76C163.305 208.554 163.203 205.999 162.999 202.749C161.977 186.886 161.507 172.536 166.883 171.392L167.353 173.579C163.428 174.417 164.736 194.899 165.309 202.605C165.513 205.917 165.677 208.533 165.615 209.842L163.305 209.76Z" fill="#6084F4"/>
<path d="M160.119 262.784H159.976V261.21C161.83 261.064 163.606 260.406 165.107 259.309C163.51 258.267 162.077 256.992 160.855 255.528C158.32 252.257 152.801 228.954 154.498 223.537C155.929 218.999 160.405 208.962 164.392 208.799C168.357 208.799 173.57 218.284 175.369 222.658C177.535 227.911 173.999 251.603 171.771 255.057C170.682 256.65 169.359 258.07 167.846 259.268C169.432 260.241 171.259 260.751 173.12 260.74L173.304 262.294C170.876 262.303 168.5 261.592 166.477 260.25C164.634 261.669 162.433 262.547 160.119 262.784ZM164.494 210.271C162.143 210.271 157.953 217.834 156.031 223.925C154.478 228.913 159.792 251.46 162.163 254.587C163.416 256.101 164.907 257.399 166.579 258.43C168.16 257.257 169.541 255.835 170.667 254.219C172.711 251.01 176.104 228.095 174.122 223.271C171.607 217.282 166.844 210.271 164.494 210.271Z" fill="#455A64"/>
<path d="M175.613 261.333C175.59 261.912 175.351 262.462 174.942 262.873C174.534 263.284 173.986 263.526 173.407 263.552C172.828 263.577 172.261 263.385 171.817 263.012C171.374 262.638 171.087 262.112 171.013 261.538C170.991 260.926 171.21 260.331 171.623 259.879C172.036 259.428 172.61 259.157 173.221 259.126C173.83 259.103 174.424 259.323 174.872 259.737C175.32 260.15 175.586 260.724 175.613 261.333Z" fill="#263238"/>
<path d="M162.244 261.906C162.284 262.224 162.258 262.546 162.167 262.852C162.076 263.159 161.922 263.444 161.715 263.688C161.508 263.932 161.253 264.13 160.965 264.271C160.678 264.411 160.364 264.49 160.045 264.503C159.725 264.515 159.406 264.462 159.108 264.345C158.811 264.228 158.54 264.05 158.315 263.824C158.089 263.597 157.913 263.326 157.798 263.027C157.683 262.729 157.63 262.41 157.645 262.09C157.671 261.512 157.913 260.965 158.323 260.557C158.734 260.149 159.282 259.91 159.86 259.887C160.438 259.863 161.004 260.058 161.445 260.432C161.887 260.806 162.172 261.332 162.244 261.906Z" fill="#263238"/>
<path d="M175.857 232.839L174.549 232.737C174.411 232.726 174.283 232.663 174.192 232.56C174.1 232.457 174.052 232.322 174.058 232.185C174.416 229.226 174.284 226.229 173.67 223.313C171.339 217.671 166.556 210.578 164.471 210.66C162.386 210.742 158.196 218.223 156.295 224.049C155.905 227.011 156.022 230.018 156.642 232.941C156.66 233.074 156.625 233.208 156.544 233.315C156.464 233.422 156.345 233.493 156.213 233.513L154.905 233.718C154.767 233.735 154.627 233.698 154.516 233.614C154.406 233.53 154.332 233.406 154.312 233.268C153.608 230.009 153.518 226.646 154.046 223.354C155.027 220.226 159.627 208.514 164.267 208.33C168.907 208.146 174.487 219.388 175.734 222.414C176.541 225.661 176.735 229.03 176.307 232.348C176.299 232.469 176.25 232.583 176.168 232.673C176.086 232.762 175.977 232.82 175.857 232.839Z" fill="#6084F4"/>
<path d="M300.671 214.135L241.289 235.087L224.936 305.752L226.264 307.163L282.723 286.067L301.999 215.545L300.671 214.135Z" fill="#6084F4"/>
<path opacity="0.35" d="M242.597 236.497L226.264 307.163L224.936 305.752L241.289 235.087L242.597 236.497Z" fill="black"/>
<path opacity="0.25" d="M301.999 215.545L242.596 236.497L226.264 307.163L282.723 286.067L301.999 215.545Z" fill="black"/>
<g opacity="0.2">
<path d="M273.893 271.718C274.444 273.108 278.982 276.154 285.585 275.602L286.689 271.514L273.893 271.718Z" fill="black"/>
</g>
<g opacity="0.1">
<path d="M284.115 230.018C284.115 230.018 284.319 228.955 284.606 227.647C284.892 226.339 281.376 227.034 276.817 229.18L266.086 232.43C261.527 234.576 257.194 236.191 256.928 237.499L256.438 239.871L284.115 230.018Z" fill="black"/>
</g>
<path d="M287.629 219.307C287.813 218.489 286.444 218.653 284.563 219.143L281.129 220.308C281.129 220.308 282.519 216.874 274.424 219.082C265.532 221.494 265.328 225.93 265.328 225.93C263.94 226.542 262.513 227.061 261.055 227.483C258.091 228.444 257.764 229.037 257.54 229.855L257.09 231.367L287.363 220.779C287.363 220.779 287.466 220.124 287.629 219.307Z" fill="#37474F"/>
<path d="M284.46 223.844C281.639 225.112 280.372 225.725 280.065 227.749C279.759 229.772 279.493 231.019 279.493 231.019L263.712 237.152C263.712 237.152 264.571 233.758 264.775 232.634C264.979 231.51 262.915 231.489 260.176 232.757L260.83 229.915L285.359 220.799L284.46 223.844Z" fill="#37474F"/>
<path d="M284.911 230.059C284.911 230.059 285.136 228.996 285.402 227.688C285.667 226.379 282.192 227.054 277.634 229.221L266.902 232.471C262.344 234.617 258.01 236.232 257.745 237.54L257.254 239.911L284.911 230.059Z" fill="#37474F"/>
<path d="M295.396 239.707C295.396 239.707 293.352 247.475 292.739 249.437C292.125 251.399 282.518 255.876 277.592 256.489C268.27 257.654 267.208 259.658 269.415 266.281C271.459 272.413 277.592 274.682 285.952 273.68C288.591 273.172 291.048 271.974 293.073 270.207C295.098 268.441 296.619 266.169 297.481 263.623C300.2 255.815 298.728 247.495 299.811 242.957C300.895 238.419 297.767 237.009 295.396 239.707Z" fill="#F28F8F"/>
<path d="M179.415 89.5859H182.828C192.083 89.5859 200.958 93.2622 207.502 99.8059C214.046 106.35 217.722 115.225 217.722 124.479V160.354C217.722 166.455 215.3 172.306 210.987 176.622C206.675 180.938 200.826 183.365 194.725 183.371H144.521V124.479C144.521 115.225 148.198 106.35 154.741 99.8059C161.285 93.2622 170.161 89.5859 179.415 89.5859Z" fill="#6084F4"/>
<path opacity="0.15" d="M179.415 89.5859H182.828C192.083 89.5859 200.958 93.2622 207.502 99.8059C214.046 106.35 217.722 115.225 217.722 124.479V160.354C217.722 166.455 215.3 172.306 210.987 176.622C206.675 180.938 200.826 183.365 194.725 183.371H144.521V124.479C144.521 115.225 148.198 106.35 154.741 99.8059C161.285 93.2622 170.161 89.5859 179.415 89.5859Z" fill="black"/>
<path d="M157.662 171.146H179.473V197.72C179.473 203.234 177.283 208.521 173.384 212.42C169.485 216.319 164.198 218.509 158.684 218.509H157.662V171.146Z" fill="#6084F4"/>
<path opacity="0.3" d="M157.662 171.146H179.473V197.72C179.473 203.234 177.283 208.521 173.384 212.42C169.485 216.319 164.198 218.509 158.684 218.509H157.662V171.146Z" fill="black"/>
<path d="M205.742 108.351C210.668 111.887 212.344 115.914 211.874 138.441C211.384 157.41 205.21 162.112 202.103 163.542C198.996 164.973 193.027 164.074 187.222 163.093V176.604C189.243 178.329 190.607 180.696 191.085 183.309C191.474 184.72 186.793 186.927 175.243 185.353C172.77 185.135 170.388 184.31 168.31 182.951C166.231 181.593 164.519 179.743 163.326 177.565V134.925C163.326 134.925 163.326 117.631 175.734 110.845C180.229 108.205 185.259 106.611 190.454 106.179C195.648 105.747 200.873 106.49 205.742 108.351Z" fill="#F28F8F"/>
<path d="M163.326 134.925C163.326 134.925 174.63 114.729 191.085 112.276C207.541 109.823 211.179 118.081 211.179 118.081C211.179 118.081 209.135 99.4185 191.085 99.8886C166.27 100.481 163.326 119.492 163.326 134.925Z" fill="#6084F4"/>
<path opacity="0.4" d="M163.326 134.925C163.326 134.925 174.63 114.729 191.085 112.276C207.541 109.823 211.179 118.081 211.179 118.081C211.179 118.081 209.135 99.4185 191.085 99.8886C166.27 100.481 163.326 119.492 163.326 134.925Z" fill="black"/>
<path d="M187.384 133.535C187.399 133.849 187.352 134.163 187.245 134.459C187.139 134.754 186.975 135.026 186.763 135.259C186.552 135.491 186.296 135.68 186.012 135.814C185.727 135.948 185.419 136.024 185.105 136.039C184.791 136.054 184.477 136.006 184.181 135.9C183.886 135.793 183.614 135.63 183.381 135.418C183.149 135.206 182.96 134.951 182.826 134.666C182.692 134.382 182.616 134.074 182.601 133.76C182.576 133.441 182.615 133.121 182.714 132.817C182.814 132.514 182.973 132.233 183.183 131.991C183.392 131.75 183.647 131.552 183.933 131.41C184.219 131.268 184.531 131.184 184.85 131.164C185.499 131.147 186.129 131.386 186.603 131.83C187.077 132.274 187.358 132.886 187.384 133.535Z" fill="black"/>
<path d="M185.442 148.109L194.253 150.93C194.095 151.514 193.822 152.06 193.45 152.536C193.079 153.013 192.615 153.41 192.088 153.706C191.561 154.001 190.979 154.188 190.379 154.255C189.778 154.323 189.17 154.269 188.59 154.099C187.391 153.704 186.392 152.859 185.805 151.741C185.217 150.623 185.087 149.321 185.442 148.109Z" fill="#B16668"/>
<path d="M208.092 126.462L203.268 123.11C203.468 122.772 203.737 122.48 204.057 122.252C204.377 122.024 204.742 121.866 205.126 121.787C205.511 121.708 205.908 121.71 206.292 121.794C206.676 121.877 207.038 122.04 207.356 122.272C207.993 122.742 208.424 123.44 208.561 124.22C208.698 125 208.53 125.802 208.092 126.462Z" fill="black"/>
<path d="M180.416 126.175L185.261 122.803C185.058 122.466 184.788 122.176 184.467 121.95C184.146 121.725 183.782 121.568 183.397 121.491C183.012 121.414 182.616 121.419 182.233 121.504C181.85 121.589 181.488 121.753 181.172 121.985C180.536 122.456 180.104 123.152 179.963 123.93C179.823 124.709 179.985 125.512 180.416 126.175Z" fill="black"/>
<path d="M206.99 133.044C206.99 133.511 206.852 133.969 206.594 134.359C206.336 134.749 205.97 135.055 205.54 135.239C205.11 135.423 204.636 135.477 204.175 135.395C203.715 135.312 203.289 135.096 202.95 134.774C202.611 134.451 202.375 134.037 202.269 133.581C202.163 133.125 202.193 132.649 202.356 132.21C202.518 131.772 202.806 131.39 203.182 131.113C203.559 130.837 204.009 130.676 204.476 130.652C204.798 130.644 205.119 130.699 205.419 130.815C205.72 130.931 205.995 131.105 206.229 131.327C206.462 131.549 206.65 131.815 206.78 132.11C206.911 132.404 206.982 132.722 206.99 133.044Z" fill="black"/>
<path d="M195.297 131.94L195.685 146.392L203.249 144.042L195.297 131.94Z" fill="#B16668"/>
<path d="M187.221 163.032C181.088 162.235 168.517 158.617 166.555 153.608C167.338 156.136 168.88 158.363 170.97 159.986C174.731 163.216 187.323 166.854 187.323 166.854L187.221 163.032Z" fill="#B16668"/>
<path d="M194.991 165.587L187.244 163.052C187.244 163.721 186.98 164.362 186.509 164.837C186.038 165.312 185.398 165.581 184.73 165.587H172.608C171.386 165.584 170.178 165.341 169.05 164.871C167.923 164.401 166.899 163.714 166.037 162.848C165.175 161.983 164.493 160.956 164.028 159.826C163.563 158.697 163.325 157.487 163.327 156.266L155.601 165.587H144.522V180.243C144.519 181.435 144.751 182.616 145.205 183.718C145.658 184.82 146.324 185.822 147.165 186.667C148.006 187.512 149.005 188.182 150.105 188.641C151.205 189.1 152.385 189.337 153.577 189.34H186.999C189.9 189.332 192.772 188.752 195.45 187.634C198.128 186.516 200.559 184.882 202.606 182.824C204.652 180.767 206.273 178.326 207.376 175.642C208.479 172.958 209.042 170.083 209.034 167.181V165.587H194.991Z" fill="#6084F4"/>
<path opacity="0.15" d="M194.991 165.587L187.244 163.052C187.244 163.721 186.98 164.362 186.509 164.837C186.038 165.312 185.398 165.581 184.73 165.587H172.608C171.386 165.584 170.178 165.341 169.05 164.871C167.923 164.401 166.899 163.714 166.037 162.848C165.175 161.983 164.493 160.956 164.028 159.826C163.563 158.697 163.325 157.487 163.327 156.266L155.601 165.587H144.522V180.243C144.519 181.435 144.751 182.616 145.205 183.718C145.658 184.82 146.324 185.822 147.165 186.667C148.006 187.512 149.005 188.182 150.105 188.641C151.205 189.1 152.385 189.337 153.577 189.34H186.999C189.9 189.332 192.772 188.752 195.45 187.634C198.128 186.516 200.559 184.882 202.606 182.824C204.652 180.767 206.273 178.326 207.376 175.642C208.479 172.958 209.042 170.083 209.034 167.181V165.587H194.991Z" fill="black"/>
</svg>
