<svg width="302" height="431" viewBox="0 0 302 431" fill="none" xmlns="http://www.w3.org/2000/svg">
<path d="M164.914 423.631C165.147 417.423 160.515 356.071 160.515 356.071L191.014 377.715C184.669 414.278 183.421 422.886 183.315 428.866C183.442 429.366 183.499 429.882 183.484 430.397C183.484 437.494 175.257 441.322 168.869 446.061C163.444 450.223 157.663 453.919 151.59 457.111C146.958 459.387 137.525 459.594 136.361 456.676C144.123 450.862 155.397 442.192 161.615 435.529C164.576 432.363 164.703 429.859 164.914 423.631Z" fill="#FFA8A7"/>
<path d="M183.38 427.127C183.737 427.142 184.078 427.278 184.345 427.512C184.611 427.746 184.786 428.064 184.839 428.41C185.156 429.92 185.474 434.307 186.108 436.79C187.108 441.153 187.429 445.639 187.06 450.095C186.531 452.909 179.89 454.854 175.639 456.427C170.642 458.563 166.006 461.43 161.891 464.931C155.946 469.283 148.846 471.869 141.439 472.38C133.973 472.38 125.555 469.959 123.609 466.566C121.24 462.428 123.101 459.945 134.184 454.916C136.299 453.965 143.66 449.702 146.176 448.15C152.966 444.012 159.692 438.135 162.822 430.727C163.074 429.821 163.633 429.026 164.408 428.472C165.075 428.192 165.816 428.127 166.523 428.286C168.379 428.537 170.184 429.068 171.874 429.858C173.355 430.541 175.47 431.348 175.427 433.21C175.403 433.864 175.259 434.509 175.004 435.114C174.877 435.487 174.772 436.004 175.11 436.211C175.448 436.418 175.871 436.211 176.146 435.942C177.243 434.85 178.247 433.674 179.15 432.424C179.652 431.77 180.243 431.186 180.905 430.686C181.556 430.322 182.185 429.921 182.788 429.486C183.507 428.824 183.359 427.996 183.38 427.127Z" fill="#6084F4"/>
<path opacity="0.9" d="M183.38 427.127C183.737 427.142 184.078 427.278 184.345 427.512C184.611 427.746 184.786 428.064 184.839 428.41C185.156 429.92 185.474 434.307 186.108 436.79C187.108 441.153 187.429 445.639 187.06 450.095C186.531 452.909 179.89 454.854 175.639 456.427C170.642 458.563 166.006 461.43 161.891 464.931C155.946 469.283 148.846 471.869 141.439 472.38C133.973 472.38 125.555 469.959 123.609 466.566C121.24 462.428 123.101 459.945 134.184 454.916C136.299 453.965 143.66 449.702 146.176 448.15C152.966 444.012 159.692 438.135 162.822 430.727C163.074 429.821 163.633 429.026 164.408 428.472C165.075 428.192 165.816 428.127 166.523 428.286C168.379 428.537 170.184 429.068 171.874 429.858C173.355 430.541 175.47 431.348 175.427 433.21C175.403 433.864 175.259 434.509 175.004 435.114C174.877 435.487 174.772 436.004 175.11 436.211C175.448 436.418 175.871 436.211 176.146 435.942C177.243 434.85 178.247 433.674 179.15 432.424C179.652 431.77 180.243 431.186 180.905 430.686C181.556 430.322 182.185 429.921 182.788 429.486C183.507 428.824 183.359 427.996 183.38 427.127Z" fill="white"/>
<path d="M148.862 456.261C141.967 458.972 144.907 460.234 146.747 460.503C148.587 460.772 160.283 454.13 167.347 448.667C174.411 443.205 179.382 436.707 182.152 434.597C183.168 433.81 184.267 432.859 185.261 431.969C185.071 430.479 184.923 429.113 184.775 428.41C184.721 428.064 184.547 427.746 184.28 427.512C184.014 427.278 183.673 427.142 183.316 427.127C183.316 427.996 183.443 428.824 182.766 429.486C182.163 429.921 181.534 430.322 180.883 430.686C180.221 431.186 179.631 431.77 179.128 432.424C178.225 433.674 177.221 434.85 176.125 435.942C168.459 444.369 159.202 451.268 148.862 456.261Z" fill="#6084F4"/>
<path d="M223.801 377.922L254.574 377.384C254.13 397.476 250.852 419.782 250.344 438.653C250.239 442.191 250.344 466.235 249.075 473.54C246.96 484.507 233.699 483.037 232.98 476.457C232.261 469.877 233.847 441.84 233.805 438.943C233.805 426.838 228.115 406.435 225.091 384.709C224.922 383.653 223.949 378.956 223.801 377.922Z" fill="#FFA8A7"/>
<path d="M239.152 169.945C244.164 181.23 247.422 193.184 248.818 205.412C252.329 249.92 250.425 313.796 250.425 313.796C250.827 318.452 253.852 329.005 255.861 349.469C258.272 373.658 255.269 455.599 255.269 455.599C255.269 455.599 240.463 464.207 228.979 454.399C228.979 454.399 215.591 341.751 212.503 317.831C209.795 296.85 202.224 251.451 202.224 251.451L193.383 318.576C193.383 318.576 194.208 337.468 193.637 349.614C192.96 363.809 188.899 436.128 188.899 436.128C188.899 436.128 168.595 442.853 159.521 433.293C159.521 433.293 157.406 332.999 157.047 315.907C156.454 282.407 157.047 221.365 162.609 186.23L239.152 169.945Z" fill="#6084F4"/>
<path opacity="0.6" d="M239.152 169.945C244.164 181.23 247.422 193.184 248.818 205.412C252.329 249.92 250.425 313.796 250.425 313.796C250.827 318.452 253.852 329.005 255.861 349.469C258.272 373.658 255.269 455.599 255.269 455.599C255.269 455.599 240.463 464.207 228.979 454.399C228.979 454.399 215.591 341.751 212.503 317.831C209.795 296.85 202.224 251.451 202.224 251.451L193.383 318.576C193.383 318.576 194.208 337.468 193.637 349.614C192.96 363.809 188.899 436.128 188.899 436.128C188.899 436.128 168.595 442.853 159.521 433.293C159.521 433.293 157.406 332.999 157.047 315.907C156.454 282.407 157.047 221.365 162.609 186.23L239.152 169.945Z" fill="white"/>
<path opacity="0.2" d="M202.228 251.348L199.055 229.974C199.055 229.974 180.612 227.573 172.258 219.896C174.655 223.556 177.845 226.656 181.602 228.977C185.36 231.297 189.592 232.782 194 233.326L197.257 252.631L194.444 310.403L202.228 251.348Z" fill="black"/>
<path d="M215.211 137.293C218.882 137.565 222.573 137.419 226.209 136.859C228.838 136.483 231.35 135.547 233.569 134.116C235.787 132.686 237.657 130.797 239.048 128.582C239.626 127.193 240.379 125.879 241.29 124.671C242.897 122.954 245.52 122.457 247.635 121.34C249.438 120.301 250.97 118.867 252.112 117.151C253.253 115.435 253.972 113.483 254.212 111.449C254.627 107.403 253.949 103.322 252.245 99.6132C250.701 95.8473 247.592 92.4124 245.731 88.7706C241.887 82.2994 239.581 75.0646 238.984 67.6026C238.392 60.3397 238.646 52.8285 238.392 45.5035C238.117 37.2267 237.927 25.5978 227.711 16.5346C225.182 14.2984 221.971 12.9387 218.574 12.6652C214.344 5.09194 205.884 1.76053 198.82 0.581087C192.872 -0.28111 186.821 -0.18325 180.905 0.870774C174.947 1.76763 169.392 4.36627 164.937 8.3406C160.82 12.2492 158.383 17.5488 158.127 23.1561C157.963 27.6966 159.557 32.1302 162.589 35.5713C161.101 36.8975 160.049 38.6258 159.565 40.5374C159.036 44.6758 160.136 49.5799 167.285 52.2491L177.691 61.7054C175.902 68.3674 174.803 75.1889 174.412 82.0663C174.412 86.4737 174.412 90.9018 174.835 95.2886C175.956 108.407 179.467 123.947 191.608 131.976C195.143 134.263 199.126 135.806 203.304 136.507C204.996 136.845 206.716 137.039 208.443 137.087C210.579 137.066 212.927 137.19 215.211 137.293Z" fill="#6084F4"/>
<g opacity="0.2">
<path d="M215.217 137.293C218.888 137.565 222.579 137.419 226.215 136.859C228.844 136.483 231.356 135.547 233.575 134.116C235.793 132.686 237.663 130.797 239.053 128.582C239.632 127.193 240.385 125.879 241.295 124.671C242.903 122.954 245.525 122.457 247.64 121.34C249.444 120.301 250.976 118.867 252.118 117.151C253.259 115.435 253.978 113.483 254.218 111.449C254.633 107.403 253.955 103.322 252.251 99.6132C250.707 95.8473 247.598 92.4124 245.737 88.7706C241.893 82.2994 239.587 75.0646 238.99 67.6026C238.398 60.3397 238.652 52.8285 238.398 45.5035C238.123 37.2267 237.933 25.5978 227.717 16.5346C225.188 14.2984 221.977 12.9387 218.58 12.6652C214.35 5.09194 205.89 1.76053 198.826 0.581087C192.878 -0.28111 186.826 -0.18325 180.911 0.870774C174.953 1.76763 169.397 4.36627 164.943 8.3406C160.825 12.2492 158.389 17.5488 158.132 23.1561C157.969 27.6966 159.563 32.1302 162.595 35.5713C161.107 36.8975 160.054 38.6258 159.571 40.5374C159.042 44.6758 160.142 49.5799 167.291 52.2491L177.697 61.7054C175.908 68.3674 174.809 75.1889 174.418 82.0663C174.418 86.4737 174.418 90.9018 174.841 95.2886C175.962 108.407 179.473 123.947 191.613 131.976C195.149 134.263 199.132 135.806 203.309 136.507C205.002 136.845 206.722 137.039 208.449 137.087C210.585 137.066 212.933 137.19 215.217 137.293Z" fill="black"/>
</g>
<path d="M149.393 194.218L163.796 211.682C163.796 211.682 173.821 195.418 173.419 195.418C173.017 195.418 160.729 175.698 160.729 175.698L149.393 194.218Z" fill="#FFC4C3"/>
<path d="M178.516 82.17C167.201 82.0045 161.131 86.9706 152.819 99.7169C145.754 110.58 129.363 136.59 124.752 144.432C119.549 153.289 118.809 156.848 122.891 163.51C126.761 169.718 151.465 197.611 151.465 197.611C157.106 192.845 161.36 186.707 163.796 179.816L149.392 156.248L177.078 116.208L178.516 82.17Z" fill="#455A64"/>
<path d="M179.232 81.6725C171.047 81.2586 165.971 82.914 161.043 87.5904C156.115 92.2668 130.734 133.899 130.734 133.899C130.734 133.899 131.94 141.328 153.365 152.522L176.736 125.726L179.232 81.6725Z" fill="#6084F4"/>
<path opacity="0.6" d="M179.232 81.6725C171.047 81.2586 165.971 82.914 161.043 87.5904C156.115 92.2668 130.734 133.899 130.734 133.899C130.734 133.899 131.94 141.328 153.365 152.522L176.736 125.726L179.232 81.6725Z" fill="white"/>
<path d="M164.049 137.79C164.853 146.564 165.064 163.738 165.064 163.738C161.807 186.168 159.988 208.226 159.988 208.226C194.23 226.125 245.16 211.495 251.653 204.088C248.439 182.113 241.353 168.435 236.721 156.061L245.308 118.671C245.308 118.671 230.503 106.649 231.857 82.2528L211.616 80.1836L192.306 80.7216L178.579 81.6734C171.7 88.2106 165.675 95.5571 160.644 103.545C153.918 114.139 153.664 127.217 164.049 137.79Z" fill="#6084F4"/>
<g opacity="0.75">
<path d="M164.049 137.79C164.853 146.564 165.064 163.738 165.064 163.738C161.807 186.168 159.988 208.226 159.988 208.226C194.23 226.125 245.16 211.495 251.653 204.088C248.439 182.113 241.353 168.435 236.721 156.061L245.308 118.671C245.308 118.671 230.503 106.649 231.857 82.2528L211.616 80.1836L192.306 80.7216L178.579 81.6734C171.7 88.2106 165.675 95.5571 160.644 103.545C153.918 114.139 153.664 127.217 164.049 137.79Z" fill="white"/>
</g>
<path opacity="0.1" d="M190.297 136.921C190.297 136.921 199.243 144.66 210.22 141.597C213.292 140.855 216.116 139.348 218.417 137.224C220.718 135.099 222.419 132.429 223.355 129.472C223.355 129.472 223.714 141.556 209.903 144.784C206.205 145.707 202.302 145.441 198.771 144.025C195.239 142.609 192.268 140.118 190.297 136.921Z" fill="black"/>
<path d="M176.166 18.3145C171.936 20.5078 165.739 28.4949 166.627 50.5733C167.325 67.8719 172.464 72.3 175.425 73.6036C178.386 74.9072 184.203 74.2864 189.85 73.6036L189.575 83.9496C189.575 83.9496 179.232 101.021 185.049 108.035C193.727 105.948 201.625 101.5 207.828 95.2061C214.173 88.9985 214.173 83.8462 214.173 83.8462L214.638 61.2505C214.638 61.2505 217.853 64.3543 223.585 59.8641C228.322 56.1602 230.036 49.7871 226.525 46.2487C225.602 45.4041 224.494 44.7781 223.285 44.4188C222.077 44.0595 220.8 43.9767 219.553 44.1766C218.306 44.3765 217.123 44.8539 216.095 45.572C215.067 46.29 214.221 47.2295 213.623 48.3179C213.623 48.3179 207.278 48.5869 206.22 37.1028C206.22 37.1028 196.808 36.2752 191.648 33.6887C179.867 27.9363 177.519 21.17 176.166 18.3145Z" fill="#FFC4C3"/>
<path d="M198.735 91.4607C189.154 91.4607 188.16 88.8328 189.217 84.4668C187.483 87.5292 179.869 101.703 184.987 107.952C193.675 105.89 201.592 101.472 207.829 95.206C211.061 92.4829 213.291 88.7974 214.174 84.7151C211.763 88.6673 206.349 91.5435 198.735 91.4607Z" fill="#455A64"/>
<path d="M189.854 73.4583C197.954 71.5547 208.043 67.6439 210.074 63.1123C208.957 66.0298 207.11 68.6266 204.701 70.6649C200.979 73.5204 189.748 76.8725 189.748 76.8725L189.854 73.4583Z" fill="#F28F8F"/>
<path d="M192.876 42.6075C192.834 43.2738 193.057 43.9302 193.499 44.4392C193.94 44.9483 194.566 45.2706 195.245 45.3388C195.904 45.4337 196.574 45.2692 197.109 44.8814C197.645 44.4935 198.001 43.9139 198.1 43.2696C198.142 42.6055 197.918 41.9515 197.476 41.4458C197.034 40.9401 196.408 40.6221 195.731 40.5589C195.076 40.4637 194.408 40.6254 193.873 41.0089C193.339 41.3925 192.98 41.9669 192.876 42.6075Z" fill="black"/>
<path d="M192.117 58.9531L183.086 61.1258C183.225 61.7104 183.481 62.2621 183.841 62.7485C184.2 63.2349 184.655 63.6462 185.179 63.9584C185.703 64.2706 186.285 64.4773 186.892 64.5665C187.499 64.6557 188.117 64.6256 188.712 64.4779C189.905 64.1748 190.929 63.427 191.565 62.3945C192.202 61.3619 192.4 60.1267 192.117 58.9531Z" fill="#F28F8F"/>
<path d="M191.968 61.4989C191.375 61.0144 190.626 60.7506 189.853 60.7539C188.967 60.7539 188.117 61.0984 187.49 61.7115C186.863 62.3246 186.511 63.1562 186.511 64.0233C186.491 64.1882 186.491 64.3549 186.511 64.5199C187.166 64.664 187.845 64.664 188.5 64.5199C189.295 64.3518 190.032 63.9853 190.64 63.456C191.248 62.9266 191.706 62.2524 191.968 61.4989Z" fill="#FFA8A7"/>
<path d="M170.733 36.668L175.556 33.44C175.341 33.1306 175.066 32.8658 174.747 32.6608C174.427 32.4558 174.07 32.3146 173.694 32.2453C173.319 32.1761 172.933 32.1802 172.559 32.2574C172.185 32.3346 171.831 32.4833 171.516 32.6951C171.197 32.9052 170.924 33.1748 170.712 33.4884C170.5 33.802 170.354 34.1534 170.281 34.5225C170.209 34.8916 170.211 35.2712 170.289 35.6393C170.366 36.0075 170.517 36.3571 170.733 36.668Z" fill="black"/>
<path d="M194.213 34.868L199.585 37.2683C199.765 36.9459 199.875 36.59 199.906 36.2237C199.937 35.8574 199.889 35.4888 199.766 35.1417C199.642 34.7946 199.445 34.4767 199.188 34.2086C198.931 33.9405 198.62 33.7281 198.274 33.5851C197.554 33.2714 196.742 33.2288 195.992 33.4656C195.243 33.7024 194.609 34.2019 194.213 34.868Z" fill="black"/>
<path d="M171.729 41.4063C171.682 42.0684 171.901 42.7223 172.339 43.2287C172.778 43.7351 173.401 44.0538 174.077 44.1169C174.403 44.1668 174.737 44.1526 175.058 44.0752C175.379 43.9979 175.681 43.8589 175.947 43.6664C176.212 43.4739 176.436 43.2317 176.605 42.9538C176.774 42.6759 176.885 42.368 176.932 42.0477C176.969 41.3944 176.752 40.7515 176.325 40.2485C175.897 39.7455 175.29 39.4198 174.627 39.3371C174.296 39.2782 173.957 39.2857 173.63 39.3589C173.303 39.4322 172.995 39.5698 172.724 39.7634C172.453 39.9569 172.225 40.2024 172.054 40.4848C171.883 40.7673 171.772 41.0808 171.729 41.4063Z" fill="black"/>
<path d="M185.051 40.9307L183.761 54.9392L176.041 52.1871L185.051 40.9307Z" fill="#FFA8A7"/>
<path d="M262.122 181.285C260.651 183.674 259.026 185.968 257.257 188.155C255.868 190.111 253.789 191.497 251.42 192.045C246.547 192.674 241.751 193.776 237.101 195.335C233.019 196.597 230.439 196.266 230.291 197.28C230.122 198.604 230.841 200.136 234.521 200.901C237.233 201.204 239.972 201.204 242.685 200.901C239.449 204.654 235.681 207.936 231.496 210.647C223.227 215.986 220.414 220.021 229.022 225.132C235.367 228.877 246.259 227.863 261.382 214.061C268.657 207.092 275.25 199.472 281.073 191.3L262.122 181.285Z" fill="#FFC4C3"/>
<path d="M280.378 193.514C304.722 163.821 305.124 158.793 297.954 148.405C255.357 86.7017 255.505 87.2189 234.207 82.8115C224.943 98.4133 234.207 113.622 241.927 122.126L272.933 159.662C268.851 168.125 264.473 176.215 261.343 181.657C261.343 181.657 269.105 191.052 280.378 193.514Z" fill="#455A64"/>
<path d="M231.733 82.2949C243.408 82.8122 251.995 84.3641 260.201 94.2342C268.978 104.704 289.325 133.549 289.325 133.549C289.325 133.549 283.868 149.979 261.957 155.503L234.355 120.824C234.355 120.824 224.33 101.414 231.733 82.2949Z" fill="#6084F4"/>
<path opacity="0.6" d="M231.733 82.2949C243.408 82.8122 251.995 84.3641 260.201 94.2342C268.978 104.704 289.325 133.549 289.325 133.549C289.325 133.549 283.868 149.979 261.957 155.503L234.355 120.824C234.355 120.824 224.33 101.414 231.733 82.2949Z" fill="white"/>
<path d="M216.27 80.7209C219.887 81.4865 220.86 96.3641 219.992 114.408C219.844 117.387 219.633 119.746 219.696 120.926H221.811C221.811 119.85 221.917 117.532 222.108 114.718C223.017 100.461 223.123 79.7484 216.778 78.7966C215.935 78.5889 215.064 78.5121 214.197 78.569V80.6382L216.27 80.7209Z" fill="#6084F4"/>
<path opacity="0.2" d="M216.27 80.7209C219.887 81.4865 220.86 96.3641 219.992 114.408C219.844 117.387 219.633 119.746 219.696 120.926H221.811C221.811 119.85 221.917 117.532 222.108 114.718C223.017 100.461 223.123 79.7484 216.778 78.7966C215.935 78.5889 215.064 78.5121 214.197 78.569V80.6382L216.27 80.7209Z" fill="black"/>
<path d="M218.765 165.828C216.882 167.034 214.67 167.655 212.42 167.607L212.589 166.221C214.304 166.229 215.989 165.77 217.453 164.897C216.054 163.826 214.834 162.549 213.837 161.11C211.722 158.006 208.549 136.714 210.537 131.976C212.187 128.044 216.988 119.561 220.626 119.561H220.732C224.391 119.705 228.494 128.727 229.805 132.824C231.37 137.707 226.294 158.648 223.968 161.565C222.852 162.912 221.533 164.085 220.055 165.042C221.43 166.038 223.065 166.633 224.771 166.759V168.166H224.602C222.469 167.944 220.445 167.133 218.765 165.828ZM211.912 132.452C210.093 136.797 213.181 157.386 215.085 160.282C216.118 161.732 217.382 163.011 218.828 164.069C220.354 163.135 221.718 161.968 222.868 160.614C224.983 157.882 229.911 137.625 228.473 133.135C226.717 127.651 222.847 120.947 220.711 120.864C218.49 120.926 214.112 127.237 211.912 132.452Z" fill="#455A64"/>
<path d="M210.436 166.821C210.436 167.37 210.658 167.896 211.055 168.284C211.452 168.672 211.99 168.89 212.551 168.89C212.969 168.89 213.378 168.769 213.726 168.542C214.073 168.314 214.345 167.991 214.505 167.613C214.665 167.235 214.707 166.819 214.625 166.417C214.543 166.016 214.342 165.647 214.046 165.358C213.75 165.069 213.373 164.872 212.963 164.792C212.553 164.712 212.128 164.753 211.741 164.909C211.355 165.066 211.024 165.331 210.792 165.672C210.56 166.012 210.436 166.412 210.436 166.821Z" fill="#263238"/>
<path d="M222.723 167.339C222.723 167.748 222.847 168.148 223.079 168.488C223.312 168.829 223.642 169.094 224.028 169.25C224.415 169.407 224.84 169.448 225.25 169.368C225.661 169.288 226.037 169.091 226.333 168.802C226.629 168.513 226.831 168.144 226.912 167.742C226.994 167.341 226.952 166.925 226.792 166.547C226.632 166.169 226.361 165.846 226.013 165.618C225.665 165.391 225.256 165.27 224.838 165.27C224.277 165.27 223.739 165.488 223.342 165.876C222.946 166.264 222.723 166.79 222.723 167.339Z" fill="#263238"/>
<path d="M210.223 141.205H211.429C211.554 141.194 211.67 141.137 211.753 141.044C211.836 140.951 211.879 140.831 211.873 140.708C211.541 138.045 211.663 135.346 212.233 132.721C214.348 127.652 218.768 121.278 220.693 121.361C222.617 121.444 226.446 128.148 228.138 133.383C228.484 136.045 228.37 138.746 227.799 141.37C227.786 141.493 227.82 141.616 227.894 141.715C227.969 141.815 228.078 141.883 228.201 141.908L229.407 142.095C229.532 142.106 229.658 142.07 229.757 141.992C229.855 141.915 229.92 141.803 229.935 141.681C230.593 138.75 230.679 135.724 230.189 132.762C229.28 129.948 225.05 119.437 220.777 119.251C216.505 119.064 211.387 129.203 210.202 131.935C209.454 134.849 209.275 137.874 209.673 140.853C209.699 140.971 209.771 141.074 209.874 141.14C209.977 141.206 210.103 141.229 210.223 141.205Z" fill="#6084F4"/>
<g opacity="0.2">
<path d="M210.221 141.205H211.427C211.552 141.194 211.668 141.137 211.751 141.044C211.834 140.951 211.877 140.831 211.871 140.708C211.539 138.045 211.661 135.346 212.231 132.721C214.346 127.652 218.766 121.278 220.691 121.361C222.615 121.444 226.444 128.148 228.136 133.383C228.482 136.045 228.368 138.746 227.797 141.37C227.784 141.493 227.818 141.616 227.892 141.715C227.967 141.815 228.076 141.883 228.199 141.908L229.405 142.095C229.531 142.106 229.656 142.07 229.755 141.992C229.853 141.915 229.918 141.803 229.933 141.681C230.591 138.75 230.677 135.724 230.187 132.762C229.278 129.948 225.048 119.437 220.775 119.251C216.503 119.064 211.385 129.203 210.2 131.935C209.452 134.849 209.273 137.874 209.672 140.853C209.697 140.971 209.769 141.074 209.872 141.14C209.975 141.206 210.101 141.229 210.221 141.205Z" fill="black"/>
</g>
<path d="M189.684 78.0312C186.448 78.4658 176.444 83.287 171.706 97.8128C166.969 112.339 167.265 135.059 167.476 141.473C167.688 147.888 168.068 152.626 168.068 152.626H171.114C171.114 152.626 170.585 145.549 170.437 141.473C170.289 137.397 170.818 108.18 174.435 98.9509C178.771 87.9634 183.677 83.7216 189.684 80.9282V78.0312Z" fill="#6084F4"/>
<path opacity="0.2" d="M189.684 78.0312C186.448 78.4658 176.444 83.287 171.706 97.8128C166.969 112.339 167.265 135.059 167.476 141.473C167.688 147.888 168.068 152.626 168.068 152.626H171.114C171.114 152.626 170.585 145.549 170.437 141.473C170.289 137.397 170.818 108.18 174.435 98.9509C178.771 87.9634 183.677 83.7216 189.684 80.9282V78.0312Z" fill="black"/>
<path d="M177.967 153.703C177.967 155.34 177.471 156.94 176.541 158.301C175.612 159.662 174.29 160.723 172.745 161.349C171.199 161.976 169.498 162.14 167.857 161.82C166.215 161.501 164.708 160.713 163.525 159.555C162.342 158.398 161.536 156.923 161.209 155.317C160.883 153.712 161.051 152.048 161.691 150.535C162.331 149.023 163.416 147.73 164.807 146.821C166.198 145.911 167.834 145.426 169.507 145.426C171.751 145.426 173.903 146.298 175.489 147.85C177.076 149.402 177.967 151.507 177.967 153.703Z" fill="#455A64"/>
<path d="M169.571 158.379C172.211 158.379 174.351 156.285 174.351 153.703C174.351 151.12 172.211 149.026 169.571 149.026C166.931 149.026 164.791 151.12 164.791 153.703C164.791 156.285 166.931 158.379 169.571 158.379Z" fill="#37474F"/>
<path d="M51.0682 192.711C45.7867 204.419 26.7773 249.24 26.7773 249.24L51.0682 267.879C53.1233 264.864 65.803 227.875 65.803 227.875L75.359 177.148C63.1314 177.477 55.9387 181.967 51.0682 192.711Z" fill="#E6E6E6"/>
<path d="M144.882 303.904C145.231 321.004 148.848 434.022 148.848 434.022C150.122 443.254 150.876 452.55 151.109 461.867C151.581 484.421 150.225 542.96 150.225 542.96C148.766 552.494 123.776 550.813 121.454 546.405C121.454 546.405 115.289 462.769 112.412 440.399C109.946 420.9 101.808 357.132 101.808 357.132L95.4164 419.813C95.6726 427.13 95.5079 434.455 94.9232 441.752C94.204 452.004 90.8131 521.103 90.8131 521.103C90.8131 524.896 65.9468 529.202 62.4943 520.365C62.4943 520.365 60.6859 425.39 60.4393 415.897C60.2338 405.091 61.734 302.756 61.734 302.756L144.882 303.904Z" fill="#37474F"/>
<path d="M99.7911 333.205C92.6071 330.44 86.0573 326.256 80.5352 320.902C80.5352 320.902 83.5972 329.842 96.1947 337.306L95.3727 415.221L101.723 357.174L99.7911 333.205Z" fill="#263238"/>
<path d="M116.46 174.914C119.666 175.673 129.818 178.4 138.059 181.311C142.224 182.892 145.838 185.649 148.458 189.246C154.438 197.96 149.054 217.337 144.635 253.834C144.985 277.393 145.663 306.693 145.663 306.693C134.792 314.587 84.1342 319.939 61.2819 303.289C61.2819 303.289 60.5215 214.856 62.0423 203.353C64.9193 181.352 73.5712 175.468 91.3886 174.422L116.46 174.914Z" fill="#455A64"/>
<path d="M85.3266 200.749C83.7237 206.244 74.2498 244.935 75.5856 258.549C76.6044 265.537 78.4961 272.37 81.2165 278.889C85.3266 288.588 88.0599 279.915 90.3616 274.194C92.2853 268.847 93.5751 263.293 94.2045 257.647C94.9649 250.348 92.0261 228.121 93.1564 202.081C92.7305 201.48 92.19 200.969 91.5658 200.576C90.9416 200.184 90.2459 199.918 89.5186 199.795C88.7913 199.671 88.0467 199.691 87.3274 199.855C86.6081 200.019 85.9282 200.322 85.3266 200.749Z" fill="#6084F4"/>
<path opacity="0.2" d="M85.3266 200.749C83.7237 206.244 74.2498 244.935 75.5856 258.549C76.6044 265.537 78.4961 272.37 81.2165 278.889C85.3266 288.588 88.0599 279.915 90.3616 274.194C92.2853 268.847 93.5751 263.293 94.2045 257.647C94.9649 250.348 92.0261 228.121 93.1564 202.081C92.7305 201.48 92.19 200.969 91.5658 200.576C90.9416 200.184 90.2459 199.918 89.5186 199.795C88.7913 199.671 88.0467 199.691 87.3274 199.855C86.6081 200.019 85.9282 200.322 85.3266 200.749Z" fill="black"/>
<path d="M84.896 188.324C81.1352 191.522 85.2454 200.749 85.2454 200.749C87.9299 200.167 90.7361 200.644 93.0752 202.082C93.0752 202.082 100.556 198.883 100.576 193.368C100.576 188.324 95.2124 189.943 91.4106 189.267C87.6087 188.59 85.4303 185.638 84.896 188.324Z" fill="#6084F4"/>
<path opacity="0.2" d="M84.896 188.324C81.1352 191.522 85.2454 200.749 85.2454 200.749C87.9299 200.167 90.7361 200.644 93.0752 202.082C93.0752 202.082 100.556 198.883 100.576 193.368C100.576 188.324 95.2124 189.943 91.4106 189.267C87.6087 188.59 85.4303 185.638 84.896 188.324Z" fill="black"/>
<path opacity="0.2" d="M85.3262 200.749C85.9427 198.575 88.8814 198.698 91.2448 198.042C92.5749 197.521 93.6899 196.568 94.4096 195.336C95.6221 193.285 94.4095 189.779 92.7038 189.41C96.3619 189.677 100.657 188.857 100.657 193.367C100.657 198.883 93.156 202.082 93.156 202.082C90.8169 200.644 88.0106 200.166 85.3262 200.749Z" fill="black"/>
<path d="M110.972 121.235C110.861 125.938 109.354 130.502 106.643 134.351C103.931 138.2 100.137 141.16 95.7391 142.857C91.3414 144.554 86.5381 144.912 81.9366 143.885C77.3351 142.859 73.1422 140.494 69.8881 137.089C66.6339 133.685 64.4648 129.394 63.655 124.759C62.8452 120.125 63.4311 115.354 65.3386 111.052C67.2461 106.75 70.3896 103.109 74.3714 100.589C78.3532 98.0692 82.9945 96.7842 87.7083 96.8964C94.0277 97.0469 100.028 99.6954 104.391 104.26C108.753 108.824 111.121 114.93 110.972 121.235Z" fill="#263238"/>
<path d="M127.928 138.561C127.928 138.561 123.633 156.563 122.03 159.495C120.951 161.308 119.214 162.637 117.18 163.206L117.755 150.473L127.928 138.561Z" fill="#263238"/>
<path d="M123.715 112.499C125.069 112.374 126.433 112.558 127.704 113.038C128.975 113.517 130.12 114.28 131.052 115.267C134.155 118.589 132.141 128.697 127.928 138.56L120.633 139.216L123.715 112.499Z" fill="#263238"/>
<path d="M118.455 139.175C119.893 140.077 122.051 137.33 123.901 135.484C125.75 133.639 131.669 131.22 134.443 137.535C137.217 143.85 131.525 152.052 126.86 153.384C118.825 155.681 117.756 150.555 117.756 150.555L116.4 183.013C110.707 189.943 97.3287 190.333 90.7114 188.979C85.4093 187.913 85.3271 184.161 90.547 178.42L90.7936 169.111C87.232 169.593 83.6291 169.696 80.0457 169.418C74.2093 168.373 70.6129 163.677 69.0099 157.301C66.5438 147.561 65.9479 136.694 68.3934 118.897C71.4144 97.0394 97.1643 97.429 110.707 106.43C124.25 115.432 118.455 139.175 118.455 139.175Z" fill="#F28F8F"/>
<path d="M118.393 141.615C119.133 141.615 122.031 137.084 123.901 135.464C126.47 133.25 123.716 112.479 123.716 112.479C124.628 110.683 124.976 108.654 124.716 106.657C124.456 104.66 123.599 102.788 122.257 101.284C117.16 95.4198 110.461 93.6974 102.816 93.882C100.021 93.882 97.2675 94.1895 94.4726 94.2305C91.1419 94.2054 87.8376 93.6374 84.6905 92.5492C80.4159 91.1754 76.2852 89.3301 71.908 88.3049C71.2345 88.0347 70.5028 87.9419 69.783 88.0352C69.0633 88.1286 68.3796 88.405 67.7978 88.838C67.4631 89.2803 67.229 89.7901 67.1119 90.3319C66.9948 90.8737 66.9975 91.4344 67.1197 91.9751C67.4506 94.5127 68.5145 96.8993 70.1817 98.8439C68.6896 98.5843 67.1712 98.5086 65.6606 98.6184C64.0976 98.7102 62.6281 99.392 61.5505 100.525C60.8795 101.368 60.4583 102.381 60.3349 103.45C60.2114 104.519 60.3904 105.601 60.8517 106.574C61.8039 108.508 63.3428 110.094 65.2496 111.105C68.8728 113.189 73.1404 113.86 77.2306 112.992C77.6989 114.076 78.3914 115.049 79.2625 115.847C80.1337 116.646 81.164 117.252 82.2861 117.626C85.7079 119.099 89.4009 119.842 93.1277 119.807C96.8545 119.772 100.533 118.959 103.926 117.421C104.675 118.541 105.499 119.609 106.392 120.619C107.401 121.608 108.534 122.462 109.762 123.162C110.344 123.503 110.948 123.804 111.571 124.064C112.275 124.234 112.963 124.467 113.626 124.761C114.386 125.335 114.304 126.811 114.448 127.816C114.838 130.42 115.167 133.045 115.66 135.649C115.817 137.55 116.415 139.389 117.407 141.021C117.52 141.184 117.666 141.322 117.836 141.424C118.006 141.527 118.196 141.592 118.393 141.615Z" fill="#263238"/>
<path d="M123.652 114.119L132.591 109.608C132.324 109.011 131.939 108.475 131.46 108.03C130.98 107.585 130.415 107.242 129.799 107.02C129.184 106.798 128.529 106.702 127.876 106.738C127.222 106.774 126.582 106.941 125.994 107.229C124.791 107.857 123.876 108.923 123.44 110.206C123.004 111.489 123.08 112.89 123.652 114.119Z" fill="#263238"/>
<path d="M90.7932 169.029C90.7932 169.029 103.925 166.712 108.569 164.395C111.3 163.044 113.557 160.899 115.043 158.244C114.279 160.897 112.993 163.371 111.262 165.523C107.83 169.624 90.7109 172.699 90.7109 172.699L90.7932 169.029Z" fill="#B16668"/>
<path d="M95.1689 135.976C95.214 136.49 95.4093 136.978 95.7306 137.381C96.0518 137.784 96.4849 138.084 96.9758 138.243C97.4666 138.403 97.9936 138.414 98.4911 138.277C98.9886 138.14 99.4345 137.859 99.7735 137.471C100.112 137.082 100.329 136.603 100.397 136.092C100.465 135.582 100.381 135.063 100.155 134.6C99.9291 134.136 99.5718 133.75 99.1274 133.488C98.6829 133.226 98.1711 133.1 97.6555 133.126C97.3044 133.15 96.9614 133.242 96.6461 133.398C96.3309 133.554 96.0497 133.771 95.8186 134.036C95.5875 134.301 95.4113 134.608 95.2998 134.942C95.1883 135.275 95.1438 135.626 95.1689 135.976Z" fill="black"/>
<path d="M96.8984 126.135L102.653 128.923C103.012 128.135 103.052 127.238 102.765 126.421C102.477 125.603 101.885 124.928 101.111 124.535C100.731 124.356 100.318 124.254 99.8971 124.238C99.4764 124.221 99.0567 124.29 98.6632 124.439C98.2697 124.588 97.9105 124.816 97.6072 125.107C97.304 125.398 97.0629 125.748 96.8984 126.135Z" fill="black"/>
<path d="M69.7691 128.657L75.9343 126.607C75.8158 126.203 75.6162 125.828 75.3477 125.504C75.0791 125.18 74.7473 124.914 74.3723 124.722C73.9973 124.53 73.5871 124.416 73.1667 124.388C72.7463 124.359 72.3244 124.417 71.9269 124.556C71.106 124.829 70.4228 125.409 70.0206 126.173C69.6184 126.938 69.5282 127.828 69.7691 128.657Z" fill="black"/>
<path d="M72.7494 135.238C72.7236 135.751 72.8494 136.261 73.1113 136.704C73.3732 137.146 73.7597 137.503 74.2227 137.728C74.6857 137.954 75.2049 138.038 75.7158 137.972C76.2267 137.906 76.7069 137.691 77.0967 137.355C77.4865 137.019 77.7687 136.576 77.9085 136.081C78.0482 135.586 78.0393 135.062 77.8827 134.572C77.7261 134.082 77.4288 133.649 77.0277 133.326C76.6267 133.004 76.1394 132.806 75.6265 132.757C74.9154 132.706 74.2132 132.939 73.6738 133.404C73.1345 133.869 72.802 134.529 72.7494 135.238Z" fill="black"/>
<path d="M86.9312 133.741L85.9859 149.468L77.7656 146.638L86.9312 133.741Z" fill="#B16668"/>
<path d="M95.8261 152.154L85.5508 154.963C85.7045 155.653 85.996 156.304 86.4079 156.878C86.8198 157.453 87.3437 157.938 87.9481 158.306C88.5525 158.673 89.2251 158.915 89.9254 159.018C90.6258 159.12 91.3397 159.08 92.0242 158.9C93.4096 158.485 94.5798 157.55 95.2888 156.292C95.9977 155.034 96.1904 153.551 95.8261 152.154Z" fill="#9A4A4D"/>
<path d="M95.846 154.758C95.389 154.603 94.9107 154.52 94.4281 154.512C93.2159 154.516 92.0485 154.97 91.1524 155.784C90.2563 156.599 89.6953 157.716 89.5781 158.92H89.7631C90.4939 159.083 91.2517 159.083 91.9826 158.92C92.943 158.639 93.8092 158.103 94.4893 157.37C95.1695 156.637 95.6382 155.735 95.846 154.758Z" fill="#F28F8F"/>
<path d="M90.7109 188.897C97.9859 187.38 115.166 180.696 116.831 172.269L117.057 167.655C119.872 167.655 121.167 170.813 122.564 175.303C123.14 187.175 110.604 198.001 98.0065 200.913C97.587 198.163 96.6453 195.519 95.2321 193.121C94.1799 191.296 92.6057 189.825 90.7109 188.897Z" fill="#37474F"/>
<path d="M116.771 173.766C116.771 173.766 111.407 200.646 109.064 218.874C106.722 237.102 107.194 288.383 108.427 320.984C109.332 344.728 112.887 388.647 112.887 388.647C112.887 388.647 118.764 389.837 132.944 387.499C140.267 386.536 147.324 384.124 153.7 380.405C153.7 380.405 151.46 313.685 149.775 290.392C148.213 268.925 148.275 257.094 148.275 257.094L153.351 208.069C153.351 208.069 152.961 177.313 143.363 175.96C133.417 174.422 116.771 173.766 116.771 173.766Z" fill="#FAFAFA"/>
<path d="M125.995 217.767C125.995 216.639 125.995 214.199 126.303 211.144C127.249 196.115 125.872 174.381 120.796 173.294L120.344 175.344C124.063 176.144 124.639 203.701 124.187 211.001C123.981 214.138 123.817 216.619 123.878 217.87L125.995 217.767Z" fill="#6084F4"/>
<path d="M143.647 335.747C146.277 331.277 146.421 327.955 150.388 323.957C152.092 322.322 153.327 320.262 153.963 317.99C154.928 314.33 155.412 310.559 155.402 306.774L178.419 307.841C178.231 316.375 177.289 324.876 175.603 333.245C171.205 352.375 167.095 360.351 158.731 362.402C145.558 365.375 142.291 359.716 146.935 350.222C148.929 346.265 150.354 342.048 151.169 337.694C149.745 339.373 148.092 340.843 146.257 342.062C145.32 342.761 144.153 343.08 142.989 342.955C141.826 342.829 140.754 342.268 139.989 341.385C139.414 340.462 141.571 339.191 143.647 335.747Z" fill="#F28F8F"/>
<path d="M139.477 175.816C139.477 175.816 150.862 175.652 157.253 181.393C163.644 187.134 167.097 202.471 171.207 217.87C175.317 233.268 179.016 248.215 180.105 258.878C181.03 267.817 179.55 314.238 179.55 314.238C179.55 314.238 163.747 317.58 153.718 312.188L154.54 259.985L137.976 207.556C134.953 197.101 135.48 185.941 139.477 175.816Z" fill="#F0F0F0"/>
<path d="M117.138 164.888C118.638 164.6 120.015 165.38 121.248 167.451C122.481 169.521 125.153 173.868 125.153 173.868C125.153 173.868 126.529 188.221 125.153 191.891C123.961 195.008 115.966 209.709 115.966 209.709C115.966 209.709 116.501 224.062 116.624 228.163C116.747 232.264 108.404 250.205 107.561 258.468C107.561 258.468 107.15 224.882 108.363 215.553C110.418 199.334 113.213 179.015 116.83 172.351L117.138 164.888Z" fill="#EBEBEB"/>
<path d="M122.851 265.151C120.928 266.422 118.663 267.079 116.357 267.037L116.542 265.561C118.305 265.594 120.039 265.117 121.536 264.187C120.101 263.05 118.847 261.702 117.816 260.189C115.761 256.908 112.35 234.498 114.405 229.433C116.09 225.332 121.063 216.311 124.824 216.311H124.927C128.708 216.475 132.942 225.968 134.298 230.294C135.921 235.42 130.681 257.483 128.277 260.579C127.106 262.002 125.719 263.234 124.166 264.228C125.59 265.271 127.277 265.896 129.037 266.033V267.529H128.852C126.67 267.306 124.592 266.482 122.851 265.151ZM115.72 230.069C113.829 234.641 117.035 256.334 119.008 259.389C120.069 260.911 121.366 262.254 122.851 263.367C124.417 262.39 125.807 261.156 126.961 259.717C129.181 256.867 134.216 235.502 132.736 230.786C130.928 225.004 126.941 217.951 124.721 217.869C122.584 217.869 118.063 224.492 115.72 230.069Z" fill="#455A64"/>
<path d="M114.261 266.217C114.237 266.647 114.342 267.074 114.562 267.445C114.781 267.815 115.106 268.112 115.496 268.298C115.885 268.484 116.32 268.55 116.748 268.489C117.175 268.427 117.574 268.24 117.894 267.952C118.215 267.664 118.442 267.288 118.548 266.87C118.654 266.453 118.633 266.013 118.488 265.608C118.343 265.202 118.081 264.849 117.735 264.592C117.388 264.336 116.973 264.188 116.542 264.167C115.968 264.139 115.405 264.339 114.978 264.723C114.551 265.107 114.293 265.644 114.261 266.217Z" fill="#263238"/>
<path d="M126.942 266.751C126.914 267.187 127.016 267.621 127.236 267.998C127.457 268.375 127.784 268.677 128.178 268.868C128.571 269.058 129.013 269.127 129.446 269.065C129.879 269.004 130.283 268.815 130.608 268.523C130.933 268.231 131.163 267.849 131.27 267.426C131.376 267.003 131.353 266.557 131.204 266.147C131.056 265.737 130.788 265.38 130.435 265.123C130.082 264.865 129.66 264.718 129.223 264.701C128.65 264.678 128.091 264.88 127.665 265.263C127.238 265.646 126.979 266.18 126.942 266.751Z" fill="#263238"/>
<path d="M114.038 239.214H115.292C115.419 239.203 115.537 239.144 115.621 239.049C115.706 238.953 115.75 238.828 115.744 238.701C115.391 235.898 115.516 233.056 116.114 230.295C118.313 224.943 122.875 218.238 124.848 218.32C126.821 218.402 130.787 225.476 132.534 230.992C132.877 233.788 132.752 236.622 132.164 239.378C132.146 239.502 132.176 239.629 132.249 239.732C132.321 239.835 132.431 239.907 132.554 239.931L133.808 240.116C133.936 240.134 134.066 240.101 134.169 240.024C134.273 239.947 134.343 239.833 134.363 239.706C135.034 236.612 135.118 233.42 134.609 230.295C133.685 227.342 129.307 216.249 124.909 216.065C120.512 215.88 115.189 226.563 114.018 229.433C113.239 232.5 113.05 235.687 113.463 238.824C113.488 238.952 113.562 239.064 113.67 239.137C113.778 239.21 113.91 239.238 114.038 239.214Z" fill="#6084F4"/>
<path d="M90.7509 170.218C88.6958 170.382 87.9149 173.088 83.3937 174.319C74.968 176.82 68.3712 177.804 64.8981 182.356C59.2467 189.881 60.3565 196.032 58.9385 234.129C57.5205 272.225 57.0684 380.712 57.0684 380.712C61.1104 382.542 65.5163 383.433 69.9537 383.316C69.9537 383.316 69.6248 263.593 70.4263 236.651C71.2278 209.708 75.3173 196.606 81.1537 187.728C82.6879 181.683 85.9172 176.199 90.4632 171.92L90.7509 170.218Z" fill="#FAFAFA"/>
<path d="M81.2178 187.831C75.3814 196.709 71.2919 209.831 70.4904 236.753C70.3876 239.972 70.3054 244.463 70.2232 249.876C70.2232 249.876 65.4144 225.476 66.2775 220.289C67.1407 215.101 72.751 204.357 72.751 204.357C72.0425 195.709 73.6899 187.03 77.5187 179.24C78.3196 177.805 79.3232 176.493 80.4985 175.344C81.6485 174.435 82.8644 173.613 84.136 172.883C86.054 171.404 88.3438 170.482 90.7533 170.218V172.084C86.1273 176.312 82.8173 181.778 81.2178 187.831Z" fill="#EBEBEB"/>
<path d="M90.7097 172.084C88.3054 173.514 86.1646 175.345 84.3802 177.497C82.1644 180.454 80.7775 183.945 80.3622 187.614C79.9468 191.282 80.518 194.995 82.0169 198.37C82.8033 196.025 84.078 193.873 85.7571 192.055C87.0955 190.58 88.8057 189.489 90.7097 188.897C88.3875 186.437 89.2918 182.131 90.5454 178.338L90.7097 172.084Z" fill="#37474F"/>
<path d="M1.50022 224.431L68.0637 247.867L86.3743 326.889L84.8947 328.468L21.5987 304.888L0 226.009L1.50022 224.431Z" fill="#6084F4"/>
<path opacity="0.35" d="M66.5625 249.446L84.8937 328.468L86.3733 326.89L68.0627 247.867L66.5625 249.446Z" fill="black"/>
<path opacity="0.25" d="M0 226.01L66.5635 249.446L84.8947 328.468L21.5987 304.888L0 226.01Z" fill="black"/>
<g opacity="0.2">
<path d="M31.4636 288.834C30.8471 290.372 25.7505 293.796 18.3728 293.181L17.0781 288.588L31.4636 288.834Z" fill="black"/>
</g>
<g opacity="0.1">
<path d="M20.0581 242.207L19.5032 239.542C19.2155 238.086 23.1201 238.844 28.2372 241.264L40.2594 244.893C45.3765 247.313 50.2059 249.096 50.5347 250.573L51.0895 253.218L20.0581 242.207Z" fill="black"/>
</g>
<path d="M16.1123 230.212C15.9068 229.29 17.4276 229.495 19.5648 230.048L23.3873 231.361C23.3873 231.361 21.8254 227.506 30.9088 229.966C40.8759 232.652 41.1841 237.635 41.1841 237.635C42.7049 238.303 44.2624 238.885 45.8491 239.378C49.1578 240.444 49.5277 241.1 49.7949 242.023L50.2881 243.704L16.3589 231.791C16.3589 231.791 16.2973 231.176 16.1123 230.212Z" fill="#37474F"/>
<path d="M19.6661 235.277C22.8104 236.691 24.1256 237.327 24.5777 239.644C25.112 242.228 25.2353 243.294 25.2353 243.294L42.9089 250.245C42.9089 250.245 41.943 246.451 41.7169 245.201C41.4909 243.95 43.772 243.909 46.8752 245.324L46.1354 242.166L18.6797 231.914L19.6661 235.277Z" fill="#37474F"/>
<path d="M19.1305 242.248L18.5757 239.603C18.2674 238.127 22.172 238.906 27.3097 241.305L39.3112 244.934C44.4284 247.354 49.2783 249.035 49.5866 250.614L50.1208 253.259L19.1305 242.248Z" fill="#37474F"/>
<path d="M7.41904 253.055C7.41904 253.055 9.76182 261.707 10.3783 263.901C10.9949 266.095 21.9073 271.119 27.3738 271.795C37.8135 273.087 38.9849 275.363 36.4777 282.744C34.1555 289.572 27.3737 292.135 17.9821 290.946C15.0228 290.376 12.2677 289.035 9.99709 287.057C7.72649 285.08 6.02151 282.538 5.05573 279.689C2.01424 270.975 3.65831 261.666 2.44582 256.581C1.23333 251.496 4.74746 250.02 7.41904 253.055Z" fill="#F28F8F"/>
</svg>
