<svg width="248" height="250" viewBox="0 0 248 250" fill="none" xmlns="http://www.w3.org/2000/svg">
<path d="M121.162 250C187.787 250 241.797 218.817 241.797 180.351C241.797 141.885 187.787 110.702 121.162 110.702C54.5373 110.702 0.527344 141.885 0.527344 180.351C0.527344 218.817 54.5373 250 121.162 250Z" fill="#F5F5F5"/>
<path d="M185.579 233.55C198.898 233.55 209.694 226.78 209.694 218.429C209.694 210.079 198.898 203.309 185.579 203.309C172.261 203.309 161.465 210.079 161.465 218.429C161.465 226.78 172.261 233.55 185.579 233.55Z" fill="#E6E6E6"/>
<path d="M229.369 164.204L224.367 161.396C224.367 161.396 223.895 152.261 224.614 144.974C225.619 134.733 232.233 122.403 240.127 125.323C248.021 128.242 236.505 138.646 233.951 147.337C231.396 156.029 229.369 164.204 229.369 164.204Z" fill="#37474F"/>
<path d="M227.04 163.131C227.075 163.131 227.109 163.123 227.142 163.109C227.174 163.094 227.203 163.074 227.227 163.048C227.251 163.023 227.269 162.992 227.282 162.959C227.294 162.926 227.299 162.891 227.298 162.856C226.523 140.1 237.853 128.647 237.966 128.534C238.016 128.485 238.044 128.418 238.044 128.348C238.045 128.278 238.018 128.211 237.968 128.161C237.919 128.111 237.852 128.083 237.782 128.082C237.712 128.082 237.645 128.109 237.595 128.158C237.477 128.271 225.984 139.887 226.765 162.879C226.766 162.913 226.774 162.947 226.789 162.979C226.804 163.01 226.824 163.039 226.85 163.062C226.875 163.086 226.905 163.104 226.938 163.116C226.97 163.128 227.005 163.133 227.04 163.131Z" fill="white"/>
<path d="M232.114 165.787L228.987 163.979C228.987 163.979 228.454 157.522 231.62 149.673C234.377 142.84 241.221 137.175 244.657 138.365C248.093 139.555 248.026 141.998 246.342 144.541C244.657 147.085 234.456 153.216 232.114 165.787Z" fill="#455A64"/>
<path d="M230.491 165.096C230.526 165.097 230.561 165.091 230.593 165.078C230.626 165.065 230.656 165.046 230.681 165.021C230.706 164.997 230.726 164.967 230.74 164.935C230.753 164.902 230.76 164.868 230.76 164.833C230.698 150.442 244.207 140.69 244.347 140.617C244.404 140.575 244.442 140.513 244.454 140.444C244.465 140.375 244.449 140.304 244.409 140.246C244.389 140.218 244.363 140.193 244.334 140.175C244.304 140.156 244.271 140.144 244.237 140.138C244.202 140.132 244.167 140.133 244.133 140.141C244.099 140.149 244.067 140.164 244.039 140.185C243.898 140.28 230.165 150.167 230.227 164.833C230.227 164.867 230.234 164.902 230.247 164.934C230.26 164.966 230.28 164.995 230.304 165.019C230.329 165.044 230.358 165.063 230.39 165.076C230.422 165.09 230.456 165.096 230.491 165.096Z" fill="white"/>
<path d="M139.503 122.302L136.252 120.444C136.108 120.336 135.995 120.193 135.922 120.029C135.849 119.865 135.82 119.685 135.837 119.506V97.845C135.869 97.2641 136.063 96.7039 136.398 96.228L139.632 98.0921C139.308 98.5669 139.125 99.1235 139.104 99.6978V121.376C139.084 121.551 139.11 121.73 139.18 121.892C139.25 122.055 139.361 122.196 139.503 122.302Z" fill="#6184F4"/>
<path opacity="0.55" d="M139.503 122.302L136.252 120.444C136.108 120.336 135.995 120.193 135.922 120.029C135.849 119.865 135.82 119.685 135.837 119.506V97.845C135.869 97.2641 136.063 96.7039 136.398 96.228L139.632 98.0921C139.308 98.5669 139.125 99.1235 139.104 99.6978V121.376C139.084 121.551 139.11 121.73 139.18 121.892C139.25 122.055 139.361 122.196 139.503 122.302Z" fill="white"/>
<path d="M140.537 97.1489L185.892 70.9681C186.706 70.4965 187.363 70.8783 187.363 71.8159V93.5219C187.336 94.0318 187.189 94.5282 186.933 94.9703C186.677 95.4123 186.321 95.7876 185.892 96.0653L140.537 122.207C139.729 122.673 139.066 122.291 139.066 121.353V99.6979C139.095 99.1876 139.243 98.6911 139.499 98.2484C139.754 97.8057 140.11 97.4291 140.537 97.1489Z" fill="#6184F4"/>
<path opacity="0.7" d="M140.537 97.1489L185.892 70.9681C186.706 70.4965 187.363 70.8783 187.363 71.8159V93.5219C187.336 94.0318 187.189 94.5282 186.933 94.9703C186.677 95.4123 186.321 95.7876 185.892 96.0653L140.537 122.207C139.729 122.673 139.066 122.291 139.066 121.353V99.6979C139.095 99.1876 139.243 98.6911 139.499 98.2484C139.754 97.8057 140.11 97.4291 140.537 97.1489Z" fill="white"/>
<path d="M183.679 69.0088L186.879 70.8335C186.717 70.773 186.541 70.7531 186.369 70.7756C186.197 70.7981 186.033 70.8623 185.891 70.9627L140.537 97.149C140.153 97.3861 139.83 97.709 139.593 98.0923L136.359 96.2282C136.59 95.8487 136.908 95.5292 137.286 95.2962L182.64 69.1099C182.838 68.9879 183.065 68.9201 183.297 68.9134C183.43 68.9123 183.562 68.9451 183.679 69.0088Z" fill="#6184F4"/>
<path opacity="0.85" d="M183.679 69.0088L186.879 70.8335C186.717 70.773 186.541 70.7531 186.369 70.7756C186.197 70.7981 186.033 70.8623 185.891 70.9627L140.537 97.149C140.153 97.3861 139.83 97.709 139.593 98.0923L136.359 96.2282C136.59 95.8487 136.908 95.5292 137.286 95.2962L182.64 69.1099C182.838 68.9879 183.065 68.9201 183.297 68.9134C183.43 68.9123 183.562 68.9451 183.679 69.0088Z" fill="white"/>
<path d="M144.082 99.1532L182.34 77.0205C182.733 76.7959 183.048 76.9531 183.048 77.3742C183.03 77.6118 182.958 77.8419 182.835 78.0458C182.712 78.2497 182.542 78.4217 182.34 78.5477L144.082 100.669C143.695 100.894 143.375 100.736 143.375 100.315C143.394 100.08 143.468 99.8522 143.591 99.6504C143.714 99.4486 143.882 99.2784 144.082 99.1532Z" fill="#6184F4"/>
<path d="M144.082 114.639L182.34 92.5172C182.733 92.2926 183.048 92.4498 183.048 92.8765C183.031 93.1133 182.958 93.3426 182.835 93.5456C182.712 93.7487 182.542 93.9196 182.34 94.0443L144.082 116.143C143.695 116.368 143.375 116.205 143.375 115.784C143.398 115.552 143.473 115.328 143.596 115.129C143.718 114.931 143.885 114.763 144.082 114.639Z" fill="#6184F4"/>
<path d="M144.082 106.885L182.34 84.7577C182.733 84.5331 183.048 84.6959 183.048 85.117C183.03 85.3543 182.956 85.5841 182.833 85.7879C182.711 85.9916 182.542 86.1638 182.34 86.2904L144.082 108.412C143.695 108.636 143.375 108.474 143.375 108.053C143.393 107.816 143.467 107.587 143.59 107.384C143.713 107.182 143.881 107.01 144.082 106.885Z" fill="#6184F4"/>
<path d="M144.082 110.747L182.34 88.6259C182.733 88.4013 183.048 88.5585 183.048 88.9796C183.03 89.2171 182.958 89.4472 182.835 89.6511C182.712 89.8551 182.542 90.0271 182.34 90.153L144.082 112.274C143.695 112.499 143.375 112.342 143.375 111.921C143.393 111.683 143.466 111.453 143.589 111.25C143.711 111.046 143.881 110.874 144.082 110.747Z" fill="#6184F4"/>
<path d="M144.082 103.016L182.34 80.8946C182.733 80.67 183.048 80.8272 183.048 81.2539C183.031 81.4907 182.958 81.72 182.835 81.923C182.712 82.1261 182.542 82.297 182.34 82.4217L144.082 104.532C143.695 104.756 143.375 104.594 143.375 104.173C143.396 103.938 143.471 103.712 143.593 103.511C143.716 103.311 143.883 103.141 144.082 103.016Z" fill="#6184F4"/>
<path d="M139.258 89.2434L136.17 87.486C136.026 87.3787 135.912 87.236 135.84 87.0717C135.767 86.9075 135.738 86.7272 135.755 86.5484V28.9317C135.785 28.3504 135.98 27.7896 136.316 27.3147L139.326 29.0552C139.02 29.52 138.847 30.0599 138.826 30.6161V88.2945C138.805 88.4771 138.834 88.6618 138.91 88.829C138.987 88.9962 139.107 89.1395 139.258 89.2434Z" fill="#263238"/>
<path d="M186.416 1.69001C186.144 1.66574 185.871 1.73291 185.642 1.88091L140.287 28.0673C139.89 28.3156 139.557 28.6542 139.316 29.0554L136.301 27.3149C136.535 26.9382 136.852 26.6196 137.227 26.3829L182.582 0.20215C182.779 0.0769271 183.005 0.00709998 183.239 2.54357e-05C183.372 -0.00104682 183.503 0.0317985 183.62 0.0954732L186.416 1.69001Z" fill="#37474F"/>
<path d="M140.291 28.0675L185.646 1.88677C186.46 1.41514 187.117 1.79693 187.117 2.73457V60.4636C187.09 60.9736 186.943 61.4699 186.687 61.912C186.431 62.3541 186.074 62.7293 185.646 63.007L140.297 89.1484C139.483 89.6144 138.82 89.2326 138.82 88.295V30.6165C138.849 30.1062 138.997 29.6097 139.253 29.167C139.508 28.7243 139.864 28.3477 140.291 28.0675Z" fill="#455A64"/>
<path d="M142.804 29.948L183.509 6.44539C184.239 6.0243 184.829 6.36679 184.829 7.20898V59.0539C184.804 59.5118 184.672 59.9573 184.443 60.3544C184.213 60.7515 183.894 61.0888 183.509 61.3391L142.804 84.7967C142.074 85.2178 141.484 84.8753 141.484 84.0331V32.2331C141.509 31.7753 141.641 31.3297 141.871 30.9326C142.1 30.5356 142.42 30.1982 142.804 29.948Z" fill="#F0F0F0"/>
<path d="M176.642 51.1932C175.927 49.9442 174.792 48.9902 173.438 48.5016C172.084 48.013 170.601 48.0218 169.253 48.5263C169.253 48.5263 169.018 52.8664 171.241 59.0986C171.241 59.0986 180.926 73.2136 182.857 74.5274L185.536 65.6451C185.536 65.6451 178.467 54.0511 176.642 51.1932Z" fill="#B16668"/>
<path d="M152.911 54.2082C150.626 55.0785 150.969 57.577 151.042 59.7947C151.081 61.1591 151.305 63.4723 151.451 66.6445L152.103 76.8574L151.957 99.0125C159.385 101.545 168.834 99.3157 176.762 90.5064C176.762 90.5064 176.318 62.1528 176.318 57.4984C176.318 57.285 176.318 57.0773 176.318 56.8639C176.038 50.497 172.877 47.7739 169.266 48.5375C168.11 48.7845 165.606 49.5818 163.949 50.0984L159.402 51.5694C159.402 51.5694 155.191 53.338 152.911 54.2082Z" fill="#6184F4"/>
<path opacity="0.2" d="M152.911 54.2082C150.626 55.0785 150.969 57.577 151.042 59.7947C151.081 61.1591 151.305 63.4723 151.451 66.6445L152.103 76.8574L151.957 99.0125C159.385 101.545 168.834 99.3157 176.762 90.5064C176.762 90.5064 176.318 62.1528 176.318 57.4984C176.318 57.285 176.318 57.0773 176.318 56.8639C176.038 50.497 172.877 47.7739 169.266 48.5375C168.11 48.7845 165.606 49.5818 163.949 50.0984L159.402 51.5694C159.402 51.5694 155.191 53.338 152.911 54.2082Z" fill="black"/>
<path d="M170.114 32.1486C170.114 30.0993 170.434 27.4099 172.517 26.4274C173.572 25.9277 175.077 25.7199 176.082 26.3712C177.087 27.0225 177.727 27.9433 177.547 29.2234C177.372 30.1792 176.893 31.0531 176.183 31.7163C176.06 31.8109 175.968 31.9399 175.919 32.0868C175.9 32.2053 175.91 32.3265 175.947 32.4406C176.217 33.7038 176.2 35.1524 175.341 36.1181C175.045 36.4466 174.672 36.6954 174.255 36.8415C173.838 36.9877 173.391 37.0267 172.955 36.9547C172.465 36.8389 172.008 36.6128 171.619 36.2936C171.229 35.9745 170.918 35.5707 170.709 35.1131C170.281 34.1852 170.077 33.1698 170.114 32.1486Z" fill="#263238"/>
<path d="M156.379 39.3466C156.379 39.3466 157.536 45.3036 157.996 46.2076C158.135 46.4707 158.338 46.6946 158.586 46.8585C158.834 47.0224 159.12 47.121 159.416 47.1452L159.338 42.7658L156.379 39.3466Z" fill="#263238"/>
<path d="M157.803 29.9871C157.803 29.9871 156.73 30.2509 156.68 30.279C156.185 30.4635 155.741 30.7616 155.383 31.1493C155.104 31.445 154.902 31.8038 154.792 32.1949C154.683 32.586 154.67 32.9978 154.754 33.3951C154.934 33.9739 155.261 34.4962 155.703 34.911C155.363 35.2579 155.097 35.6706 154.922 36.1238C154.751 36.5818 154.751 37.0863 154.922 37.5443C155.042 37.8108 155.197 38.06 155.383 38.2854C155.793 38.8075 156.276 39.3185 156.983 39.2399C157.5 39.1837 158.022 39.0995 158.538 39.0321L157.803 29.9871Z" fill="#263238"/>
<path d="M159.19 38.8806C158.757 39.3017 158.134 38.4988 157.595 37.9935C157.056 37.4882 155.304 37.0727 154.428 39.4364C153.553 41.8002 155.203 44.265 156.584 44.3997C158.965 44.6243 159.324 42.7659 159.324 42.7659L159.403 52.5465C162.003 57.987 172.715 55.9152 167.263 50.267V47.2632C168.355 47.168 169.432 46.9418 170.469 46.5894C172.221 45.809 173.327 43.9169 173.838 41.5868C174.691 37.8419 174.618 35.6242 174.332 28.8698C174.136 24.2322 165.865 22.8005 161.744 26.8991C157.623 30.9978 159.19 38.8806 159.19 38.8806Z" fill="#B16668"/>
<path d="M157.581 37.9934C157.301 37.7745 157.329 37.1344 157.312 36.8256C157.283 36.0769 157.296 35.3271 157.351 34.5798C157.424 33.4007 157.75 32.1655 157.48 31.0089C157.347 30.5885 157.306 30.1439 157.362 29.7063C157.394 29.4872 157.495 29.2841 157.651 29.1265C157.807 28.969 158.008 28.8652 158.227 28.8305C157.969 28.1549 157.897 27.4222 158.021 26.7095C158.144 25.9969 158.457 25.3307 158.927 24.7811C159.398 24.2316 160.007 23.8191 160.692 23.5871C161.377 23.3551 162.112 23.3122 162.82 23.4629C163.009 22.8159 163.37 22.2323 163.865 21.7737C164.359 21.3151 164.968 20.9986 165.627 20.8578C166.382 20.6984 167.164 20.7254 167.907 20.9364C168.285 21.0386 168.636 21.2229 168.935 21.4762C169.234 21.7295 169.473 22.0455 169.636 22.4018C170.102 21.4024 171.713 20.5041 173.184 20.6725C174.419 20.8185 175.688 21.582 176.109 22.5814C176.397 23.2304 176.545 23.9323 176.545 24.642C176.545 25.3517 176.397 26.0535 176.109 26.7025C175.879 27.1537 175.555 27.5498 175.157 27.8638C174.76 28.1778 174.3 28.4022 173.807 28.5217C172.805 28.7644 171.746 28.5988 170.865 28.0613C170.863 28.5922 170.69 29.1083 170.371 29.533C170.053 29.9577 169.606 30.2686 169.097 30.4194C168.389 30.6479 167.634 30.6847 166.907 30.5261C166.224 30.2651 165.603 29.8655 165.082 29.3526C165.037 29.8323 164.861 30.2903 164.572 30.6765C164.284 31.0627 163.896 31.3622 163.449 31.5423C163 31.7107 162.52 31.7793 162.042 31.7435C161.564 31.7076 161.099 31.5681 160.681 31.3346C160.889 32.0025 161.007 32.6957 161.029 33.3951C161.06 33.7586 161.004 34.1243 160.866 34.4619C160.791 34.6263 160.671 34.7662 160.52 34.8655C160.369 34.9648 160.193 35.0195 160.012 35.0233C160.417 36.0462 160.562 37.1535 160.434 38.2461C160.421 38.6831 160.249 39.1004 159.951 39.4195C158.979 40.3179 158.182 38.4651 157.581 37.9934Z" fill="#263238"/>
<path d="M157.807 30.5429L155.168 29.6165C155.544 28.6452 156.437 28.0669 157.167 28.3195C157.897 28.5722 158.177 29.5716 157.807 30.5429Z" fill="#263238"/>
<path d="M167.232 47.2634C167.232 47.2634 163.302 47.3981 161.955 46.9265C161.135 46.6407 160.457 46.0493 160.062 45.2758C160.255 46.0937 160.623 46.86 161.141 47.5216C162.14 48.7288 167.232 48.4537 167.232 48.4537V47.2634Z" fill="#9A4A4D"/>
<path d="M166.224 36.6461C166.224 36.8911 166.148 37.13 166.007 37.3307C165.867 37.5314 165.668 37.6843 165.438 37.769C165.006 37.887 164.652 37.5557 164.652 37.0392C164.654 36.7944 164.73 36.5559 164.871 36.3553C165.011 36.1548 165.209 36.0016 165.438 35.9162C165.871 35.7983 166.224 36.1296 166.224 36.6461Z" fill="#263238"/>
<path d="M165.629 34.0744L163.72 35.2871C163.637 34.9985 163.647 34.6911 163.747 34.4081C163.848 34.1251 164.035 33.8808 164.281 33.7095C164.39 33.6301 164.514 33.5761 164.646 33.5515C164.778 33.5269 164.914 33.5324 165.043 33.5674C165.173 33.6025 165.292 33.6663 165.394 33.754C165.495 33.8418 165.576 33.9513 165.629 34.0744Z" fill="#263238"/>
<path d="M166.881 41.9407L168.667 42.2326C168.616 42.5171 168.467 42.7746 168.245 42.9596C168.023 43.1445 167.743 43.245 167.454 43.2433C166.96 43.1646 166.702 42.5807 166.881 41.9407Z" fill="#9A4A4D"/>
<path d="M173.32 33.6984L171.793 32.7496C172.102 32.16 172.697 31.8962 173.118 32.1544C173.334 32.3433 173.473 32.6042 173.51 32.8883C173.547 33.1725 173.48 33.4605 173.32 33.6984Z" fill="#263238"/>
<path d="M172.922 35.0681C172.921 35.3124 172.846 35.5508 172.707 35.7514C172.568 35.952 172.37 36.1054 172.142 36.191C171.709 36.3089 171.355 35.9777 171.355 35.4611C171.358 35.2165 171.434 34.9784 171.575 34.778C171.715 34.5776 171.913 34.4243 172.142 34.3382C172.574 34.2203 172.922 34.5459 172.922 35.0681Z" fill="#263238"/>
<path d="M168.668 35.2871L168.758 40.7445L171.565 39.2791L168.668 35.2871Z" fill="#9A4A4D"/>
<path d="M151.491 100.939C151.618 102.413 152.044 103.845 152.743 105.15C153.516 106.363 154.462 107.458 155.55 108.4C155.666 108.49 155.751 108.613 155.791 108.754C155.831 109.046 155.499 109.248 155.23 109.316C154.616 109.407 153.99 109.284 153.456 108.968C153.056 108.734 152.687 108.449 152.361 108.12C152.249 108.019 151.552 107.525 151.552 107.412C151.773 108.595 152.186 109.733 152.776 110.781C153.357 111.683 153.88 112.621 154.343 113.588C154.607 114.223 154.73 115.042 154.242 115.525C154.035 115.7 153.791 115.825 153.529 115.89C152.64 116.141 151.7 116.151 150.805 115.92C149.911 115.69 149.093 115.226 148.436 114.576C147.86 113.95 147.38 113.243 147.01 112.477C146.785 112.055 146.583 111.622 146.404 111.18C146.105 110.408 145.874 109.611 145.713 108.799C145.281 106.851 145.118 104.869 144.821 102.915C143.937 96.6923 143.583 90.4056 143.765 84.123C144.776 63.3154 146.196 56.2804 152.922 54.2086C154.826 55.6235 155.679 61.6816 153.675 67.0828C152.68 73.116 152.028 79.2007 151.721 85.3077C151.597 88.1936 151.131 94.0103 151.266 96.8962C151.328 98.1875 151.328 99.4789 151.491 100.939Z" fill="#B16668"/>
<path d="M16.5029 193.27L13.2521 191.412C13.1084 191.304 12.9948 191.162 12.922 190.997C12.8493 190.833 12.8199 190.653 12.8366 190.474V168.819C12.8688 168.238 13.0633 167.678 13.398 167.202L16.5759 169.066C16.2521 169.541 16.0692 170.097 16.0481 170.672V192.322C16.0295 192.506 16.0621 192.692 16.1423 192.86C16.2225 193.027 16.3473 193.169 16.5029 193.27Z" fill="#6184F4"/>
<path opacity="0.55" d="M16.5029 193.27L13.2521 191.412C13.1084 191.304 12.9948 191.162 12.922 190.997C12.8493 190.833 12.8199 190.653 12.8366 190.474V168.819C12.8688 168.238 13.0633 167.678 13.398 167.202L16.5759 169.066C16.2521 169.541 16.0692 170.097 16.0481 170.672V192.322C16.0295 192.506 16.0621 192.692 16.1423 192.86C16.2225 193.027 16.3473 193.169 16.5029 193.27Z" fill="white"/>
<path d="M17.5374 168.123L62.8919 141.937C63.7004 141.465 64.3629 141.847 64.3629 142.784V164.49C64.334 165.001 64.1853 165.498 63.9288 165.941C63.6722 166.384 63.3151 166.76 62.8863 167.039L17.5374 193.175C16.7233 193.641 16.0664 193.259 16.0664 192.322V170.666C16.0934 170.156 16.2407 169.66 16.4964 169.218C16.7521 168.776 17.1088 168.401 17.5374 168.123Z" fill="#6184F4"/>
<path opacity="0.7" d="M17.5374 168.123L62.8919 141.937C63.7004 141.465 64.3629 141.847 64.3629 142.784V164.49C64.334 165.001 64.1853 165.498 63.9288 165.941C63.6722 166.384 63.3151 166.76 62.8863 167.039L17.5374 193.175C16.7233 193.641 16.0664 193.259 16.0664 192.322V170.666C16.0934 170.156 16.2407 169.66 16.4964 169.218C16.7521 168.776 17.1088 168.401 17.5374 168.123Z" fill="white"/>
<path d="M60.6802 139.982L63.8805 141.807C63.7177 141.747 63.5426 141.727 63.3704 141.749C63.1982 141.772 63.0341 141.836 62.8923 141.936L17.5378 168.123C17.1485 168.358 16.8196 168.681 16.5777 169.066L13.3438 167.202C13.582 166.828 13.9052 166.517 14.287 166.292L59.6415 140.106C59.8394 139.984 60.066 139.916 60.2984 139.909C60.4298 139.901 60.5611 139.926 60.6802 139.982Z" fill="#6184F4"/>
<path opacity="0.85" d="M60.6802 139.982L63.8805 141.807C63.7177 141.747 63.5426 141.727 63.3704 141.749C63.1982 141.772 63.0341 141.836 62.8923 141.936L17.5378 168.123C17.1485 168.358 16.8196 168.681 16.5777 169.066L13.3438 167.202C13.582 166.828 13.9052 166.517 14.287 166.292L59.6415 140.106C59.8394 139.984 60.066 139.916 60.2984 139.909C60.4298 139.901 60.5611 139.926 60.6802 139.982Z" fill="white"/>
<path d="M21.0707 170.121L59.3284 148C59.7158 147.775 60.0358 147.932 60.0358 148.359C60.0175 148.596 59.9439 148.824 59.821 149.027C59.6982 149.23 59.5294 149.401 59.3284 149.527L21.0707 171.648C20.6777 171.873 20.3633 171.716 20.3633 171.295C20.3803 171.057 20.4533 170.827 20.5763 170.623C20.6992 170.419 20.8686 170.247 21.0707 170.121Z" fill="#6184F4"/>
<path d="M21.0707 185.584L59.3452 163.485C59.7327 163.26 60.0527 163.423 60.0527 163.844C60.0343 164.081 59.9608 164.31 59.8379 164.512C59.715 164.715 59.5463 164.886 59.3452 165.012L21.0707 187.111C20.6777 187.336 20.3633 187.173 20.3633 186.752C20.3803 186.515 20.4533 186.286 20.5763 186.083C20.6993 185.88 20.8688 185.709 21.0707 185.584Z" fill="#6184F4"/>
<path d="M21.0707 177.853L59.3284 155.731C59.7158 155.507 60.0358 155.664 60.0358 156.085C60.0175 156.322 59.9439 156.552 59.8211 156.755C59.6983 156.959 59.5296 157.131 59.3284 157.258L21.0707 179.38C20.6777 179.604 20.3633 179.447 20.3633 179.026C20.3794 178.788 20.4521 178.558 20.5751 178.354C20.6981 178.15 20.868 177.978 21.0707 177.853Z" fill="#6184F4"/>
<path d="M21.0707 181.716L59.3284 159.594C59.7158 159.37 60.0358 159.527 60.0358 159.948C60.0183 160.185 59.9452 160.415 59.8223 160.619C59.6994 160.823 59.5302 160.995 59.3284 161.121L21.0707 183.243C20.6777 183.467 20.3633 183.31 20.3633 182.889C20.3803 182.652 20.4533 182.421 20.5763 182.218C20.6992 182.014 20.8686 181.842 21.0707 181.716Z" fill="#6184F4"/>
<path d="M21.0707 173.99L59.3284 151.863C59.7158 151.638 60.0358 151.801 60.0358 152.222C60.0175 152.459 59.9439 152.688 59.821 152.89C59.6982 153.093 59.5294 153.264 59.3284 153.39L21.0707 175.517C20.6777 175.742 20.3633 175.579 20.3633 175.158C20.3803 174.921 20.4533 174.692 20.5763 174.489C20.6993 174.286 20.8688 174.115 21.0707 173.99Z" fill="#6184F4"/>
<path d="M16.3142 160.116L13.2094 158.382C13.0653 158.274 12.9514 158.131 12.8786 157.967C12.8058 157.803 12.7766 157.623 12.7939 157.444V99.8272C12.824 99.2459 13.0187 98.6851 13.3553 98.2102L16.3648 99.9507C16.0586 100.416 15.8858 100.955 15.8651 101.512V159.19C15.85 159.371 15.8838 159.552 15.9628 159.715C16.0418 159.878 16.1632 160.016 16.3142 160.116Z" fill="#263238"/>
<path d="M63.475 72.585C63.2027 72.5607 62.9301 72.6279 62.7002 72.7759L17.3457 98.9622C16.9487 99.2106 16.6159 99.5492 16.3744 99.9504L13.3594 98.2099C13.5938 97.8332 13.9105 97.5146 14.2858 97.2779L59.6403 71.0971C59.8371 70.9719 60.064 70.9021 60.2972 70.895C60.4305 70.8939 60.5619 70.9268 60.679 70.9904L63.475 72.585Z" fill="#37474F"/>
<path d="M17.346 98.9569L62.7005 72.7762C63.509 72.3045 64.1715 72.6863 64.1715 73.624V131.353C64.1428 131.863 63.9947 132.36 63.7392 132.802C63.4838 133.245 63.128 133.622 62.7005 133.902L17.346 160.038C16.5319 160.504 15.875 160.128 15.875 159.19V101.506C15.9029 100.995 16.0506 100.499 16.3061 100.056C16.5617 99.6129 16.9179 99.2365 17.346 98.9569Z" fill="#455A64"/>
<path d="M19.671 100.748L60.371 77.2452C61.1009 76.8241 61.6904 77.1666 61.6904 78.0088V129.798C61.6667 130.256 61.5347 130.702 61.3054 131.099C61.076 131.496 60.7558 131.833 60.371 132.083L19.671 155.568C18.9411 155.99 18.3516 155.647 18.3516 154.805V103.033C18.3762 102.575 18.5085 102.13 18.7378 101.732C18.9671 101.335 19.2868 100.998 19.671 100.748Z" fill="#F0F0F0"/>
<path d="M52.3515 122.358C49.1737 118.231 43.9297 118.815 43.9297 118.815C44.3921 122.403 45.2643 125.926 46.5292 129.314C46.5292 129.314 56.22 143.424 58.1514 144.743L60.8295 135.855C60.8295 135.855 54.4121 125.042 52.3515 122.358Z" fill="#FFBDA7"/>
<path d="M42.7969 119.017C44.1703 118.576 45.6119 118.386 47.0527 118.456C49.3379 118.602 52.1508 121.19 53.8295 123.885C56.0753 127.49 57.5688 130.061 57.5688 130.061C57.5688 130.061 56.8221 134.295 51.0447 136.119L45.6996 129.146L42.7969 119.017Z" fill="#6184F4"/>
<path opacity="0.5" d="M42.7969 119.017C44.1703 118.576 45.6119 118.386 47.0527 118.456C49.3379 118.602 52.1508 121.19 53.8295 123.885C56.0753 127.49 57.5688 130.061 57.5688 130.061C57.5688 130.061 56.8221 134.295 51.0447 136.119L45.6996 129.146L42.7969 119.017Z" fill="black"/>
<path d="M28.0514 135.558L27.3047 147.348L27.9054 169.408C35.3335 171.94 44.7828 169.711 52.7106 160.902C52.7106 160.902 52.385 131.605 51.3519 126.603C50.1111 120.578 47.1522 117.282 41.1558 119.427L35.2774 121.774L29.2305 124.183C29.2305 124.183 28.0514 133.278 28.0514 135.558Z" fill="#6184F4"/>
<path opacity="0.4" d="M28.0514 135.558L27.3047 147.348L27.9054 169.408C35.3335 171.94 44.7828 169.711 52.7106 160.902C52.7106 160.902 52.385 131.605 51.3519 126.603C50.1111 120.578 47.1522 117.282 41.1558 119.427L35.2774 121.774L29.2305 124.183C29.2305 124.183 28.0514 133.278 28.0514 135.558Z" fill="black"/>
<path d="M35.8125 102.679C35.8125 107.676 39.3216 110.787 43.6729 109.625C48.0242 108.462 51.5333 103.477 51.5333 98.4797C51.5333 93.4827 47.7996 93.4827 43.4708 94.6449C39.1419 95.8071 35.8125 97.6824 35.8125 102.679Z" fill="#263238"/>
<path d="M34.5438 113.134L33.2299 111.612L33.7633 109.422L32.6404 100.77C32.1839 100.694 31.7149 100.766 31.3025 100.977C30.8901 101.187 30.5561 101.524 30.3497 101.938C28.4688 105.352 32.8538 115.846 33.2299 116.575C33.3684 116.839 33.5712 117.064 33.8194 117.229C34.0677 117.394 34.3535 117.493 34.6504 117.519L34.5438 113.134Z" fill="#263238"/>
<path d="M34.3894 109.248C33.9571 109.669 33.3339 108.866 32.7949 108.361C32.2559 107.856 30.5041 107.44 29.6283 109.804C28.7524 112.168 30.3975 114.638 31.7787 114.767C34.1648 114.992 34.5186 113.133 34.5186 113.133L34.6028 123.296C38.5947 127.535 47.7914 125.463 42.4632 120.662V117.647C43.5563 117.552 44.6344 117.328 45.6747 116.979C47.4265 116.193 48.5269 114.307 49.0435 111.971C49.8969 108.232 50.2225 105.307 49.4982 98.5859C48.701 91.2196 41.0764 93.1847 36.9441 97.2833C32.8117 101.382 34.3894 109.248 34.3894 109.248Z" fill="#FFBDA7"/>
<path d="M34.3108 109.961C33.5809 109.77 33.1037 108.602 32.7949 108.361C32.4861 108.12 32.5366 107.502 32.5254 107.193C32.5519 106.435 32.5331 105.676 32.4692 104.919C32.313 104.124 32.2266 103.316 32.2109 102.505C32.2109 100.821 32.2502 98.4738 32.9408 96.9186C34.2153 94.0495 36.2029 93.3252 38.6003 92.5561C40.4419 91.9946 42.4575 92.0507 44.2654 91.3658C45.7443 90.7033 47.0984 89.7917 48.2686 88.6708C48.7122 88.2946 49.3298 87.9016 49.8182 88.2104C50.0495 88.3905 50.2088 88.6474 50.2674 88.9347C50.535 89.7986 50.6172 90.7093 50.5088 91.6072C50.7178 91.6224 50.9275 91.5899 51.1221 91.512C51.3166 91.4342 51.4909 91.3132 51.6317 91.158C51.716 91.057 51.8058 90.9391 51.9349 90.9391C52.0641 90.9391 52.2044 91.1468 52.2325 91.3208C52.3383 92.0747 52.2711 92.8427 52.036 93.5667C51.0029 97.1825 47.4096 99.3721 43.7433 100.214C41.691 100.776 39.5364 100.853 37.4493 100.439C37.1985 100.386 36.9368 100.432 36.7194 100.568C36.5331 100.71 36.3957 100.906 36.3264 101.13C35.9278 102.157 36.3264 104.257 36.2254 105.672C36.0738 107.395 35.8099 108.855 35.1586 109.669C35.0699 109.805 34.9384 109.908 34.7848 109.961C34.6313 110.014 34.4644 110.014 34.3108 109.961Z" fill="#263238"/>
<path d="M32.4106 100.916L29.7773 99.9842C30.1479 99.0129 31.0406 98.4346 31.7705 98.6929C32.5004 98.9512 32.7868 99.9393 32.4106 100.916Z" fill="#263238"/>
<path d="M42.4415 117.648C42.4415 117.648 38.5113 117.788 37.1695 117.311C36.3496 117.025 35.6718 116.434 35.2773 115.66C35.4691 116.477 35.8349 117.243 36.3497 117.906C37.3491 119.113 42.4415 118.838 42.4415 118.838V117.648Z" fill="#F0997A"/>
<path d="M41.504 106.98C41.5035 107.224 41.4285 107.463 41.2891 107.663C41.1496 107.864 40.9524 108.017 40.7235 108.103C40.2856 108.215 39.9375 107.889 39.9375 107.367C39.9392 107.123 40.0153 106.884 40.1557 106.683C40.2961 106.483 40.4941 106.33 40.7235 106.244C41.1559 106.132 41.504 106.458 41.504 106.98Z" fill="#263238"/>
<path d="M40.247 103.572L38.5627 105.088C38.4526 104.806 38.4313 104.498 38.5015 104.204C38.5718 103.91 38.7302 103.644 38.9557 103.443C39.0357 103.341 39.14 103.261 39.2591 103.211C39.3782 103.16 39.5081 103.14 39.6368 103.153C39.7656 103.166 39.889 103.211 39.9956 103.284C40.1023 103.357 40.1888 103.456 40.247 103.572Z" fill="#263238"/>
<path d="M42.0895 112.28L43.8805 112.578C43.8268 112.861 43.6755 113.117 43.453 113.3C43.2304 113.484 42.9507 113.584 42.6622 113.583C42.1737 113.515 41.9154 112.92 42.0895 112.28Z" fill="#F0997A"/>
<path d="M48.6912 102.101L47.1641 101.163C47.4729 100.602 48.068 100.31 48.4891 100.602C48.6952 100.787 48.8286 101.039 48.8657 101.314C48.9027 101.589 48.8409 101.867 48.6912 102.101Z" fill="#263238"/>
<path d="M48.3596 104.88C48.3579 105.125 48.2818 105.363 48.1414 105.564C48.0011 105.764 47.803 105.918 47.5736 106.003C47.1413 106.121 46.7932 105.79 46.7932 105.273C46.7887 105.024 46.8613 104.78 47.001 104.574C47.1407 104.368 47.3407 104.21 47.5736 104.122C48.0171 104.032 48.3596 104.358 48.3596 104.88Z" fill="#263238"/>
<path d="M44.1484 104.925L44.2383 110.388L47.0456 108.917L44.1484 104.925Z" fill="#F0997A"/>
<path d="M18.7546 158.359C21.225 132.004 24.5825 125.564 29.4223 124.902C31.32 126.317 31.9208 132.369 30.5789 138.646C30.5789 138.646 27.839 152.857 27.5975 157.972C27.3842 162.463 26.1434 167.966 26.6936 171.503C26.7946 172.126 27.1203 173.945 27.4572 174.366C28.5801 175.747 28.305 176.387 29.1415 177.465C29.8153 178.308 30.9326 178.813 30.8259 179.15C30.6631 179.554 29.9276 180.076 28.7597 179.537C28.0806 179.173 27.502 178.646 27.0754 178.004C27.0754 178.004 27.1989 179.689 28.7597 182.249C30.2251 184.703 30.6575 187.263 26.5757 186.791C24.2681 186.527 22.5725 185.876 21.079 179.925C20.6635 178.28 20.3267 175.293 20.001 173.142C19.0409 166.938 18.4121 161.986 18.7546 158.359Z" fill="#FFBDA7"/>
<path d="M29.4872 124.098C29.4872 124.098 24.5969 125.059 23.2325 129.606C22.1096 133.447 21.1776 136.905 19.9648 144.968C21.2383 146.132 22.8182 146.909 24.5182 147.205C26.2183 147.502 27.9677 147.306 29.5601 146.641C29.5601 146.641 32.1428 136.125 32.4011 131.397C32.6818 126.221 29.4872 124.098 29.4872 124.098Z" fill="#6184F4"/>
<path opacity="0.5" d="M29.4872 124.098C29.4872 124.098 24.5969 125.059 23.2325 129.606C22.1096 133.447 21.1776 136.905 19.9648 144.968C21.2383 146.132 22.8182 146.909 24.5182 147.205C26.2183 147.502 27.9677 147.306 29.5601 146.641C29.5601 146.641 32.1428 136.125 32.4011 131.397C32.6818 126.221 29.4872 124.098 29.4872 124.098Z" fill="black"/>
<path d="M78.0571 157.247L74.8062 155.389C74.6634 155.28 74.5504 155.137 74.4777 154.973C74.405 154.809 74.3751 154.63 74.3908 154.451V132.796C74.423 132.215 74.6175 131.655 74.9522 131.179L78.1862 133.043C77.8642 133.518 77.6831 134.075 77.664 134.649V156.298C77.6388 156.477 77.6619 156.659 77.731 156.826C77.8002 156.993 77.9127 157.139 78.0571 157.247Z" fill="#6184F4"/>
<path opacity="0.55" d="M78.0571 157.247L74.8062 155.389C74.6634 155.28 74.5504 155.137 74.4777 154.973C74.405 154.809 74.3751 154.63 74.3908 154.451V132.796C74.423 132.215 74.6175 131.655 74.9522 131.179L78.1862 133.043C77.8642 133.518 77.6831 134.075 77.664 134.649V156.298C77.6388 156.477 77.6619 156.659 77.731 156.826C77.8002 156.993 77.9127 157.139 78.0571 157.247Z" fill="white"/>
<path d="M79.096 132.1L124.445 105.913C125.259 105.442 125.916 105.823 125.916 106.761V128.467C125.889 128.977 125.742 129.473 125.486 129.915C125.23 130.357 124.874 130.733 124.445 131.01L79.096 157.152C78.2819 157.618 77.625 157.236 77.625 156.298V134.643C77.652 134.133 77.7993 133.637 78.055 133.195C78.3107 132.753 78.6674 132.377 79.096 132.1Z" fill="#6184F4"/>
<path opacity="0.7" d="M79.096 132.1L124.445 105.913C125.259 105.442 125.916 105.823 125.916 106.761V128.467C125.889 128.977 125.742 129.473 125.486 129.915C125.23 130.357 124.874 130.733 124.445 131.01L79.096 157.152C78.2819 157.618 77.625 157.236 77.625 156.298V134.643C77.652 134.133 77.7993 133.637 78.055 133.195C78.3107 132.753 78.6674 132.377 79.096 132.1Z" fill="white"/>
<path d="M122.234 103.971L125.434 105.795C125.271 105.735 125.096 105.715 124.924 105.738C124.752 105.76 124.588 105.824 124.446 105.925L79.0913 132.1C78.7081 132.337 78.3852 132.66 78.1481 133.043L74.9141 131.179C75.1448 130.799 75.4623 130.48 75.8405 130.247L121.195 104.061C121.395 103.939 121.623 103.871 121.857 103.864C121.99 103.866 122.12 103.902 122.234 103.971Z" fill="#6184F4"/>
<path opacity="0.85" d="M122.234 103.971L125.434 105.795C125.271 105.735 125.096 105.715 124.924 105.738C124.752 105.76 124.588 105.824 124.446 105.925L79.0913 132.1C78.7081 132.337 78.3852 132.66 78.1481 133.043L74.9141 131.179C75.1448 130.799 75.4623 130.48 75.8405 130.247L121.195 104.061C121.395 103.939 121.623 103.871 121.857 103.864C121.99 103.866 122.12 103.902 122.234 103.971Z" fill="white"/>
<path d="M82.6393 134.098L120.903 111.977C121.29 111.752 121.604 111.909 121.604 112.33C121.588 112.567 121.516 112.797 121.394 113.001C121.272 113.205 121.104 113.377 120.903 113.504L82.6393 135.625C82.2519 135.85 81.9375 135.693 81.9375 135.272C81.9548 135.035 82.0273 134.805 82.1492 134.602C82.271 134.398 82.4389 134.225 82.6393 134.098Z" fill="#6184F4"/>
<path d="M82.6393 149.561L120.903 127.434C121.29 127.209 121.604 127.372 121.604 127.793C121.587 128.029 121.515 128.258 121.393 128.461C121.271 128.664 121.103 128.835 120.903 128.961L82.6393 151.088C82.2519 151.313 81.9375 151.15 81.9375 150.729C81.9548 150.493 82.0273 150.264 82.1492 150.061C82.2711 149.858 82.439 149.687 82.6393 149.561Z" fill="#6184F4"/>
<path d="M82.6393 141.829L120.903 119.691C121.29 119.467 121.604 119.624 121.604 120.045C121.587 120.282 121.515 120.511 121.393 120.715C121.271 120.919 121.103 121.091 120.903 121.218L82.6393 143.34C82.2519 143.564 81.9375 143.407 81.9375 142.98C81.9573 142.747 82.0311 142.522 82.1529 142.322C82.2747 142.123 82.4412 141.954 82.6393 141.829Z" fill="#6184F4"/>
<path d="M82.6393 145.692L120.903 123.571C121.29 123.346 121.604 123.504 121.604 123.925C121.588 124.162 121.516 124.392 121.394 124.595C121.272 124.799 121.104 124.972 120.903 125.098L82.6393 147.203C82.2519 147.427 81.9375 147.27 81.9375 146.849C81.9574 146.615 82.031 146.389 82.1528 146.188C82.2745 145.988 82.4411 145.818 82.6393 145.692Z" fill="#6184F4"/>
<path d="M82.6393 137.967L120.903 115.84C121.29 115.615 121.604 115.778 121.604 116.199C121.587 116.435 121.515 116.664 121.393 116.867C121.271 117.069 121.103 117.241 120.903 117.367L82.6393 139.494C82.2519 139.718 81.9375 139.556 81.9375 139.135C81.9548 138.899 82.0273 138.67 82.1492 138.467C82.2711 138.264 82.439 138.093 82.6393 137.967Z" fill="#6184F4"/>
<path d="M77.9949 124.8L74.9125 123.06C74.7684 122.953 74.6545 122.81 74.5817 122.646C74.5089 122.481 74.4798 122.301 74.497 122.122V64.4888C74.5271 63.9074 74.7219 63.3467 75.0585 62.8718L78.0679 64.6123C77.7617 65.0771 77.5889 65.6169 77.5682 66.1731V123.852C77.5466 124.034 77.5749 124.218 77.6501 124.385C77.7252 124.552 77.8444 124.696 77.9949 124.8Z" fill="#263238"/>
<path d="M125.159 37.2471C124.886 37.2228 124.614 37.29 124.384 37.438L79.0293 63.6243C78.6323 63.8727 78.2995 64.2113 78.058 64.6125L75.043 62.872C75.2774 62.4953 75.5941 62.1767 75.9694 61.94L121.324 35.7592C121.521 35.634 121.748 35.5642 121.981 35.5571C122.114 35.556 122.245 35.5889 122.363 35.6525L125.159 37.2471Z" fill="#37474F"/>
<path d="M79.0313 63.6243L124.38 37.4379C125.194 36.9719 125.851 37.3481 125.851 38.2913V96.0204C125.824 96.5303 125.677 97.0267 125.421 97.4688C125.166 97.9108 124.809 98.2861 124.38 98.5638L79.0257 124.7C78.2172 125.171 77.5547 124.789 77.5547 123.852V66.1733C77.5836 65.6624 77.7324 65.1654 77.9889 64.7226C78.2454 64.2798 78.6025 63.9036 79.0313 63.6243Z" fill="#455A64"/>
<path d="M81.3585 65.4099L122.064 41.9073C122.794 41.4862 123.384 41.8287 123.384 42.6709V94.4878C123.359 94.9456 123.227 95.3912 122.997 95.7882C122.768 96.1853 122.448 96.5227 122.064 96.7729L81.3585 120.253C80.6286 120.674 80.0391 120.332 80.0391 119.489V67.7006C80.0637 67.242 80.196 66.7957 80.4252 66.3977C80.6545 65.9998 80.9742 65.6614 81.3585 65.4099Z" fill="#F0F0F0"/>
<path d="M115.463 111.634C109.438 90.3944 109.371 86.9302 109.73 84.4261C115.199 83.1067 117.59 86.8572 119.05 93.1792C119.752 96.2167 121.773 107.777 123.025 112.611C124.148 116.85 125.507 121.398 127.158 124.402C127.292 124.656 127.484 124.875 127.719 125.04C127.955 125.205 128.226 125.311 128.511 125.351C130.044 125.57 130.498 126.429 131.745 127.069C132.722 127.563 133.429 127.439 133.401 127.782C133.329 128.163 133.142 128.513 132.867 128.785C132.591 129.058 132.239 129.241 131.857 129.309C131.243 129.375 130.622 129.335 130.021 129.191C130.76 130.159 131.665 130.988 132.694 131.639C135.097 133.194 135.843 135.569 131.683 136.743C130.049 137.197 127.006 136.681 123.385 131.791C122.179 130.04 121.178 128.156 120.403 126.176C118.343 120.96 116.664 115.879 115.463 111.634Z" fill="#FFA8A7"/>
<path d="M100.834 86.8688C100.834 86.8688 94.8718 88.9855 93.3334 89.7098C97.2636 94.426 92.5586 107.295 92.5586 107.295L95.0683 115.963L113.933 109.355C117.055 101.495 117.667 97.9295 117.392 95.7735C116.769 90.8888 113.849 87.6829 109.728 84.4265L100.834 86.8688Z" fill="#6184F4"/>
<path d="M115.003 81.6359L105.166 84.7239C103.667 85.1951 102.077 85.3068 100.526 85.0502C98.9757 84.7936 97.5069 84.1758 96.239 83.2467C94.971 82.3176 93.9394 81.1033 93.2275 79.7018C92.5155 78.3004 92.1432 76.7511 92.1406 75.1792V73.0905C92.1406 66.0386 97.0927 58.998 103.201 57.3698L104.027 57.1508C110.135 55.5113 115.087 59.9019 115.087 66.9538V68.9245C115.087 75.2353 115.003 81.6359 115.003 81.6359Z" fill="#37474F"/>
<path d="M95.9457 60.2948C95.3393 59.6996 94.3231 59.9242 93.6718 60.7945L94.8846 61.996C94.5974 61.9619 94.3067 62.0189 94.0536 62.1588C93.6143 62.4055 93.26 62.7795 93.0375 63.2315C92.815 63.6835 92.7347 64.1924 92.8072 64.691L95.9569 63.0796C95.9405 63.0073 95.9198 62.9361 95.8952 62.8662C96.4903 62.0016 96.5296 60.8731 95.9457 60.2948Z" fill="#37474F"/>
<path d="M110.777 62.6472C111.9 63.3827 113.472 64.7021 113.326 72.1189C113.203 78.4016 111.445 80.4173 110.564 81.1023C109.682 81.7872 107.981 81.9669 106.331 82.0904V86.0543C106.331 86.0543 109.188 88.7605 109.042 90.546C108.896 92.3314 106.331 93.7968 102.457 91.4218C101.092 90.5125 99.9429 89.317 99.0878 87.9183L99.1215 79.4403C99.1215 79.4403 98.1501 80.7878 96.5051 79.5639C95.8104 79.0135 95.3469 78.2232 95.2056 77.3484C95.0643 76.4735 95.2554 75.5774 95.7415 74.8364C95.9542 74.5065 96.2351 74.226 96.5654 74.0139C96.8957 73.8018 97.2676 73.663 97.656 73.6068C97.8838 73.5962 98.1113 73.6319 98.3248 73.7117C98.5383 73.7916 98.7334 73.914 98.8982 74.0715C99.0631 74.2289 99.1942 74.4182 99.2837 74.6279C99.3732 74.8376 99.4193 75.0632 99.419 75.2912V75.7572C99.419 75.7572 100.621 75.9425 100.699 73.5956C100.744 72.293 102.299 70.2268 103.821 68.9243C106.409 66.6953 109.705 66.6672 110.777 62.6472Z" fill="#FFA8A7"/>
<path d="M106.598 71.7319C106.608 71.9479 106.552 72.1617 106.436 72.3444C106.321 72.5272 106.152 72.6701 105.953 72.7538C105.576 72.8773 105.256 72.6134 105.239 72.1923C105.229 71.9756 105.286 71.7609 105.401 71.5772C105.516 71.3935 105.685 71.2496 105.885 71.1649C106.256 71.0245 106.581 71.2828 106.598 71.7319Z" fill="#263238"/>
<path d="M107.053 77.1165L109.058 77.3186C109.008 77.6353 108.851 77.9253 108.613 78.14C108.374 78.3547 108.07 78.4809 107.749 78.4976C107.199 78.4415 106.885 77.8239 107.053 77.1165Z" fill="#F28F8F"/>
<path d="M112.493 68.3182L111.117 67.5827C111.364 67.0605 111.881 66.8022 112.24 67.0212C112.436 67.1673 112.57 67.3811 112.617 67.6209C112.664 67.8607 112.619 68.1093 112.493 68.3182Z" fill="#263238"/>
<path d="M104.648 70.3561L106.024 68.8795C105.771 68.4977 105.26 68.509 104.901 68.9188C104.713 69.1014 104.588 69.3386 104.542 69.5966C104.497 69.8547 104.534 70.1204 104.648 70.3561Z" fill="#263238"/>
<path d="M112.329 70.5585C112.341 70.7756 112.285 70.9909 112.17 71.175C112.054 71.359 111.884 71.5026 111.683 71.586C111.307 71.7095 110.987 71.4456 110.97 71.0245C110.959 70.8077 111.015 70.5926 111.131 70.4087C111.246 70.2249 111.416 70.0811 111.616 69.9971C111.986 69.8511 112.312 70.115 112.329 70.5585Z" fill="#263238"/>
<path d="M109.055 70.7828L109.161 75.4878L111.317 74.1403L109.055 70.7828Z" fill="#F28F8F"/>
<path d="M106.333 82.0737C104.593 82.2759 101.011 82.0737 100.449 80.5634C100.646 81.2788 101.092 81.9003 101.707 82.3152C102.779 83.0844 106.333 83.3258 106.333 83.3258V82.0737Z" fill="#F28F8F"/>
<path d="M83.0607 123.656C84.9191 103.359 85.9803 91.922 93.3354 89.7098C94.4302 90.1085 95.4465 92.5171 95.6374 94.2633C95.9686 97.2165 95.57 102.315 93.7396 104.931C93.7396 104.931 91.432 117.092 90.5393 124.093C89.9217 128.939 88.5911 135.918 88.8999 139.848C89.0461 140.558 89.3577 141.224 89.8094 141.791L91.0559 143.862C91.3013 144.297 91.5831 144.71 91.898 145.098C92.1844 145.429 92.5157 145.715 92.8245 146.024C93.0547 146.249 93.2792 146.585 93.0883 146.855C93.0143 146.942 92.9169 147.006 92.8076 147.04C92.4418 147.179 92.0492 147.231 91.6599 147.194C91.2706 147.157 90.895 147.032 90.5618 146.827C90.1463 146.569 89.8094 146.192 89.3771 145.968C89.4129 146.692 89.6187 147.398 89.9779 148.028C90.2249 148.539 90.472 149.056 90.7471 149.561C91.0437 150.067 91.3063 150.592 91.5331 151.133C91.7664 151.675 91.8234 152.276 91.6959 152.851C91.553 153.291 91.2901 153.681 90.9369 153.979C90.5837 154.276 90.1543 154.469 89.6971 154.536C88.7787 154.654 87.8468 154.47 87.0414 154.014C84.2735 152.582 83.3471 149.707 82.999 146.821C82.661 144.421 82.4735 142.002 82.4375 139.578C82.5442 133.167 82.7014 127.608 83.0607 123.656Z" fill="#FFA8A7"/>
<path d="M99.1148 87.3349C97.9168 87.591 96.7753 88.0628 95.7461 88.7273C95.7461 88.7273 98.3962 93.8478 102.944 94.5889C107.492 95.33 107.817 92.2701 107.817 92.2701C104.971 92.388 102.096 91.1528 99.1148 87.3349Z" fill="#455A64"/>
<path d="M106.332 85.28V86.0549C108.263 88.5702 108.853 90.743 107.786 92.2702C107.786 92.2702 110.97 93.3538 111.531 91.0181C112.093 88.6825 108.05 84.8983 108.05 84.8983C107.462 84.941 106.883 85.0696 106.332 85.28Z" fill="#455A64"/>
<path d="M64.8639 24.3672L61.4951 26.3154C61.5127 26.1663 61.5221 26.0164 61.5232 25.8662V24.8949C61.5232 23.1544 60.3048 22.4526 58.8001 23.3172C58.1501 23.715 57.5945 24.2495 57.1719 24.8837C56.9305 22.694 55.2124 21.8855 53.135 23.087C51.9473 23.8588 50.9589 24.9004 50.2505 26.1269C49.5421 27.3535 49.1338 28.7301 49.0589 30.1445V31.6043C49.0447 32.1844 49.1618 32.7602 49.4013 33.2887L46.5941 34.9057C46.155 35.1935 45.7892 35.58 45.526 36.0343C45.2628 36.4885 45.1095 36.998 45.0781 37.5221C45.0781 38.4878 45.7575 38.8808 46.5941 38.398L64.8639 27.8594C65.3019 27.571 65.6666 27.1842 65.9288 26.73C66.191 26.2758 66.3435 25.7666 66.3742 25.243C66.3798 24.2773 65.7061 23.8899 64.8639 24.3672Z" fill="#EBEBEB"/>
<path d="M42.5978 15.4177L40.7226 16.1308V12.0378C40.7226 8.79255 38.1342 8.01213 35.327 9.63474C32.5197 11.263 30.2345 15.21 30.2345 18.4552V19.0504C29.8389 18.9265 29.42 18.8949 29.0103 18.9582C28.6005 19.0214 28.2107 19.1778 27.8708 19.4153C26.8046 20.1104 25.9174 21.0472 25.2813 22.1496C24.6453 23.252 24.2782 24.4889 24.2101 25.7598V26.0293L21.633 27.5228C20.9307 27.9803 20.346 28.597 19.9266 29.3228C19.5071 30.0486 19.2646 30.863 19.2188 31.7C19.2188 33.2384 20.3024 33.8616 21.633 33.0924L42.5978 20.9874C43.2995 20.5295 43.8832 19.9126 44.3017 19.1868C44.7202 18.461 44.9617 17.6468 45.0065 16.8102C45.0065 15.2605 43.9285 14.6485 42.5978 15.4177Z" fill="#EBEBEB"/>
<path d="M159.578 132.605C158.786 131.953 157.568 131.819 156.108 132.363C153.183 133.447 150.387 136.821 149.859 139.892C149.595 141.431 149.955 142.604 150.741 143.261L204.388 191.333C205.477 192.361 207.24 192.613 209.385 191.822C213.472 190.306 217.386 185.595 218.116 181.294C218.503 179.048 217.93 177.364 216.712 176.471L159.578 132.605Z" fill="#6184F4"/>
<path opacity="0.15" d="M158.234 140.47C160.673 137.53 161.273 134.004 159.574 132.594C157.875 131.184 154.52 132.425 152.081 135.365C149.641 138.305 149.042 141.831 150.741 143.241C152.44 144.651 155.795 143.41 158.234 140.47Z" fill="black"/>
<path d="M139.375 120.988C138.431 121.396 137.598 122.021 136.942 122.812C136.286 123.604 135.827 124.539 135.602 125.542C135.501 125.897 135.497 126.272 135.59 126.63C135.683 126.987 135.869 127.313 136.13 127.574L152.485 141.145C152.789 141.354 153.143 141.479 153.511 141.505C153.88 141.532 154.248 141.46 154.579 141.296C155.523 140.888 156.357 140.263 157.014 139.472C157.67 138.681 158.131 137.746 158.358 136.743C158.459 136.386 158.462 136.009 158.369 135.651C158.275 135.293 158.087 134.966 157.824 134.705L141.475 121.14C141.17 120.93 140.815 120.805 140.445 120.778C140.076 120.752 139.707 120.824 139.375 120.988Z" fill="#263238"/>
<path opacity="0.1" d="M156.805 141.908L212.187 190.25C211.325 190.889 210.381 191.411 209.38 191.799C207.235 192.591 205.45 192.361 204.377 191.305L150.77 143.272C151.567 143.929 152.774 144.053 154.239 143.514C155.179 143.128 156.047 142.585 156.805 141.908Z" fill="black"/>
<path d="M168.058 68.5987C168.058 68.0373 168.013 67.4758 167.968 66.9143C167.923 66.3529 167.9 65.8195 167.844 65.2805C167.844 64.9155 167.777 64.5618 167.732 64.1969C167.637 63.2593 167.502 62.3272 167.345 61.4457C167.277 61.0415 167.204 60.6316 167.126 60.2274C167.047 59.8231 166.968 59.4638 166.89 59.1045C166.654 58.0826 166.401 57.0832 166.115 56.1231C165.963 55.6684 165.823 55.2136 165.671 54.77C165.641 54.7035 165.619 54.6338 165.604 54.5623C165.441 54.1187 165.284 53.692 165.116 53.2709C164.947 52.8498 164.734 52.3052 164.509 51.8448C164.352 51.5023 164.206 51.1711 164.026 50.8398C163.925 50.5916 163.805 50.3514 163.667 50.1212C163.528 49.8254 163.374 49.5369 163.207 49.2565C163.174 49.1903 163.136 49.1265 163.094 49.0656C162.96 48.8186 162.802 48.5659 162.656 48.3189C162.51 48.0718 162.449 48.0045 162.353 47.8473C161.646 46.7279 160.848 45.6688 159.967 44.6806C159.815 44.5122 159.664 44.3438 159.529 44.1809L159.153 43.7879C159.001 43.6251 158.833 43.4735 158.664 43.3051C158.212 42.8463 157.732 42.415 157.227 42.0137C156.991 41.8116 156.744 41.6207 156.492 41.4523C156.239 41.2838 155.998 41.0817 155.734 40.8908C155.338 40.5998 154.925 40.3317 154.498 40.0879L154.167 39.8802L154.1 39.824L146.357 35.2762L146.245 35.2089C142.47 33.1062 138.208 32.0353 133.887 32.104C127.459 32.104 120.21 34.2095 112.524 38.6337C86.1354 53.8773 64.7383 90.9391 64.7383 121.421C64.7383 136.625 70.0553 147.315 78.6512 152.301L78.7298 152.34L86.4835 156.877L86.5733 156.927L86.6856 156.989L86.8092 157.056C87.1797 157.27 87.5503 157.466 87.9321 157.651C88.3139 157.837 88.8865 158.095 89.3694 158.28C89.7992 158.469 90.2398 158.632 90.6888 158.769C90.9169 158.851 91.1493 158.92 91.385 158.976C91.6334 159.071 91.8887 159.146 92.1486 159.201C92.4035 159.278 92.6621 159.342 92.9234 159.392C93.1075 159.446 93.2951 159.487 93.4849 159.515C93.8161 159.583 94.1755 159.656 94.5236 159.701C94.6 159.725 94.6793 159.738 94.7594 159.74C95.1693 159.807 95.5903 159.869 96.0002 159.908C103.119 160.655 111.395 158.645 120.255 153.536C146.644 138.298 168.063 101.219 168.063 70.7491C168.097 70.0417 168.08 69.323 168.058 68.5987ZM80.9644 140.521C79.8593 136.444 79.3152 132.236 79.3474 128.012C79.3474 99.1307 100.481 62.5181 125.494 48.0775C129.146 45.9147 133.088 44.2832 137.2 43.2321C139.171 42.7445 141.193 42.4901 143.224 42.4741C144.247 42.4694 145.269 42.5483 146.279 42.7099H146.363C151.483 48.768 152.236 58.47 152.236 63.6579C152.236 92.5392 131.125 129.152 106.101 143.587C99.7339 147.259 93.614 149.201 88.3644 149.201C87.2748 149.209 86.1892 149.071 85.136 148.792C83.1943 146.349 81.7744 143.535 80.9644 140.521Z" fill="#6184F4"/>
<path opacity="0.15" d="M161.22 68.7276C161.22 84.0723 155.257 101.59 145.914 116.816C145.477 117.541 145.027 118.248 144.567 118.961C144.18 119.573 143.781 120.185 143.365 120.792C142.49 122.094 141.602 123.38 140.67 124.638C140.232 125.238 139.789 125.833 139.334 126.417C138.879 127.001 138.346 127.703 137.841 128.338C136.881 129.55 135.887 130.729 134.876 131.88C134.214 132.65 133.534 133.402 132.849 134.126C127.347 140.044 121.334 145.041 115.079 148.645C113.883 149.336 112.704 149.965 111.531 150.532C107.727 152.464 103.605 153.695 99.364 154.165C98.6791 154.232 98.0053 154.26 97.354 154.26C97.0059 154.26 96.6747 154.26 96.3434 154.232H96.3041C95.6681 154.205 95.0344 154.139 94.4064 154.035C94.0976 153.991 93.7944 153.94 93.5024 153.873C93.209 153.816 92.9185 153.745 92.6322 153.659C89.6698 152.907 87.0364 151.203 85.1367 148.808C86.1879 149.088 87.2718 149.226 88.3595 149.218C93.6091 149.218 99.729 147.281 106.096 143.604C131.12 129.168 152.231 92.5559 152.231 63.6745C152.231 58.4867 151.478 48.7847 146.358 42.7266H146.274C152.798 43.7709 156.509 48.2064 158.598 53.3325C159.19 54.79 159.667 56.2919 160.024 57.8241C160.024 57.9084 160.063 57.9926 160.08 58.0768C160.147 58.3519 160.215 58.6383 160.265 58.9078C160.316 59.1773 160.372 59.4692 160.423 59.7162C160.439 59.7847 160.452 59.8541 160.462 59.924C160.518 60.216 160.568 60.5023 160.613 60.783C160.776 61.8554 160.911 62.8997 161.001 63.8991C161.001 64.1911 161.051 64.4606 161.068 64.7413C161.085 65.022 161.102 65.1624 161.113 65.3645C161.113 65.4487 161.113 65.5386 161.113 65.6228C161.113 65.8474 161.141 66.0663 161.152 66.2853C161.152 66.3471 161.152 66.4032 161.152 66.4706C161.152 66.7457 161.152 67.032 161.18 67.2847C161.214 67.7675 161.22 68.2616 161.22 68.7276Z" fill="black"/>
<path opacity="0.1" d="M85.8188 156.523L78.6434 152.306C70.0475 147.281 64.7305 136.585 64.7305 121.426C64.7305 107.828 68.9919 92.9321 76.0438 79.255L84.213 83.9544C77.1555 97.6315 72.4786 112.375 72.4786 125.968C72.4786 140.83 77.5373 151.374 85.8188 156.523Z" fill="black"/>
<path opacity="0.4" d="M154.171 39.8799L154.104 39.8238L146.367 35.276H146.339L146.232 35.2086C142.46 33.1086 138.202 32.0378 133.885 32.1038C127.462 32.1038 120.208 34.2036 112.522 38.6335C97.9242 47.0554 84.8029 62.2147 76.0273 79.2605L84.1572 84.0441L83.9832 84.381C92.77 67.5373 105.801 52.305 120.27 43.1869C133.369 34.9335 145.8 34.8212 154.48 40.0989L154.171 39.8799Z" fill="white"/>
<path opacity="0.3" d="M157.062 66.2799C157.062 95.1612 135.929 131.774 110.916 146.215C107.264 148.377 103.322 150.009 99.2094 151.06C97.2379 151.548 95.2159 151.802 93.185 151.818C91.0986 151.844 89.0247 151.491 87.0651 150.774C83.9603 148.168 82.085 144.395 80.9621 140.521C79.857 136.444 79.3129 132.236 79.3451 128.012C79.3451 99.1307 100.478 62.5181 125.491 48.0775C129.144 45.9147 133.085 44.2832 137.198 43.2321C139.169 42.7445 141.191 42.4901 143.222 42.4741C145.308 42.4481 147.381 42.8 149.342 43.5128C152.452 46.118 154.328 49.8966 155.451 53.7706C156.552 57.8482 157.094 62.0564 157.062 66.2799Z" fill="white"/>
<path d="M75.9296 153.064L71.4042 150.476C71.1921 150.318 71.0242 150.108 70.917 149.866C70.8098 149.624 70.7669 149.358 70.7923 149.095V64.4665C70.8307 63.6141 71.1112 62.7903 71.6008 62.0915L76.0194 64.6461C75.5725 65.3292 75.3202 66.1211 75.2895 66.9369V151.694C75.2652 151.959 75.3117 152.225 75.4242 152.466C75.5366 152.707 75.7111 152.913 75.9296 153.064Z" fill="#263238"/>
<path d="M145.214 24.4459C144.819 24.4147 144.425 24.5133 144.091 24.7266L77.4463 63.1977C76.8645 63.5626 76.3761 64.0587 76.0202 64.6462L71.6016 62.0916C71.9427 61.5362 72.4077 61.0673 72.9603 60.7216L139.583 22.2618C139.872 22.0777 140.206 21.9749 140.548 21.9643C140.745 21.9627 140.938 22.011 141.11 22.1046L145.214 24.4459Z" fill="#37474F"/>
<path d="M77.4507 63.1918L144.073 24.732C145.263 24.0414 146.235 24.5973 146.235 25.9785V110.758C146.193 111.508 145.976 112.237 145.601 112.886C145.225 113.536 144.702 114.088 144.073 114.498L77.4507 152.918C76.2548 153.603 75.2891 153.047 75.2891 151.666V66.9143C75.3326 66.1679 75.5509 65.4421 75.9263 64.7955C76.3018 64.1489 76.8239 63.5996 77.4507 63.1918Z" fill="#455A64"/>
<path d="M80.8701 65.8197L140.66 31.2957C141.726 30.6781 142.597 31.1778 142.597 32.4186V108.53C142.562 109.204 142.369 109.861 142.032 110.446C141.696 111.032 141.225 111.529 140.66 111.898L80.8645 146.361C79.7921 146.978 78.9219 146.479 78.9219 145.238V69.1604C78.9628 68.49 79.1604 67.8386 79.4988 67.2584C79.8371 66.6782 80.3068 66.1855 80.8701 65.8197Z" fill="#F0F0F0"/>
<path d="M130.964 133.728C122.115 102.528 122.02 97.4191 122.542 93.764C130.577 91.827 134.074 97.3292 136.23 106.621C137.269 111.113 140.234 128.08 142.075 135.166C143.692 141.392 145.719 148.079 148.139 152.526C148.337 152.898 148.62 153.218 148.966 153.459C149.311 153.7 149.709 153.856 150.127 153.913C152.372 154.233 153.046 155.502 154.882 156.434C156.319 157.169 157.381 156.995 157.313 157.489C157.208 158.051 156.933 158.566 156.527 158.967C156.121 159.369 155.602 159.637 155.039 159.735C154.27 159.87 153.675 159.735 152.35 159.556C153.435 160.982 154.766 162.202 156.28 163.16C159.806 165.445 160.907 168.96 154.792 170.656C152.395 171.318 147.92 170.56 142.609 163.385C140.838 160.814 139.368 158.049 138.229 155.142C135.197 147.422 132.738 139.961 130.964 133.728Z" fill="#FFA8A7"/>
<path d="M109.49 97.3399C109.49 97.3399 100.731 100.45 98.4628 101.517C104.201 108.44 97.3398 127.344 97.3398 127.344L101.029 140.084C97.0591 147.012 128.175 134.149 128.742 130.37C133.324 118.788 134.216 113.588 133.795 110.422C132.886 103.246 128.596 98.5358 122.566 93.7522L109.49 97.3399Z" fill="#6184F4"/>
<path d="M101.016 140.084C108.494 139.888 125.355 133.431 128.729 130.371C133.311 118.788 134.203 113.589 133.782 110.422" fill="#6184F4"/>
<path d="M130.292 89.6483L115.845 94.1848C113.641 94.8774 111.305 95.0415 109.026 94.6638C106.746 94.286 104.588 93.3771 102.725 92.0105C100.862 90.6439 99.3467 88.858 98.302 86.7973C97.2572 84.7366 96.7122 82.4588 96.7109 80.1484V77.1334C96.7109 66.7745 103.982 56.4268 112.954 54.0238L114.167 53.6982C123.15 51.2895 130.415 57.7406 130.415 68.1051V70.9966C130.415 80.2495 130.292 89.6483 130.292 89.6483Z" fill="#37474F"/>
<path d="M102.296 58.302C101.415 57.4317 99.9158 57.7405 98.9557 59.0375L100.741 60.8005C100.318 60.7554 99.8914 60.8396 99.5171 61.0419C98.8713 61.404 98.3508 61.954 98.0249 62.6189C97.699 63.2837 97.583 64.032 97.6924 64.7644L102.319 62.4006C102.294 62.2918 102.263 62.1849 102.223 62.0806C103.105 60.8117 103.155 59.1498 102.296 58.302Z" fill="#37474F"/>
<path d="M124.088 61.7662C125.773 62.8386 128.052 64.7756 127.833 75.6735C127.653 84.9038 125.071 87.8683 123.779 88.8677C122.488 89.8671 119.984 90.1366 117.558 90.3219V96.1442C117.558 96.1442 121.752 100.125 121.545 102.708C121.337 105.29 117.558 107.48 111.871 103.993C109.874 102.655 108.191 100.901 106.936 98.8504L106.986 86.3917C106.986 86.3917 105.56 88.3792 103.14 86.5826C102.12 85.7729 101.439 84.6109 101.231 83.3249C101.023 82.0389 101.304 80.7216 102.017 79.6317C102.328 79.1474 102.74 78.7357 103.225 78.4247C103.709 78.1137 104.255 77.9107 104.825 77.8295C105.161 77.8092 105.498 77.8589 105.814 77.9755C106.13 78.092 106.419 78.2729 106.661 78.5066C106.904 78.7404 107.096 79.0219 107.224 79.3335C107.352 79.645 107.415 79.9798 107.407 80.3167V81.0017C107.407 81.0017 109.176 81.2768 109.294 77.8295C109.361 75.9149 111.646 72.8886 113.881 70.9685C117.688 67.7064 122.516 67.6671 124.088 61.7662Z" fill="#FFA8A7"/>
<path d="M117.942 75.1006C117.958 75.4193 117.875 75.7352 117.705 76.0053C117.536 76.2755 117.287 76.487 116.993 76.611C116.431 76.7906 115.971 76.4032 115.943 75.7463C115.929 75.4287 116.012 75.1145 116.182 74.8456C116.352 74.5767 116.599 74.366 116.892 74.2416C117.442 74.0619 117.914 74.4494 117.942 75.1006Z" fill="#263238"/>
<path d="M118.612 83.0175L121.554 83.3151C121.307 84.3538 120.431 85.1286 119.639 85.0444C118.848 84.9602 118.365 84.0562 118.612 83.0175Z" fill="#F28F8F"/>
<path d="M126.623 70.0927L124.602 69.0147C124.972 68.2455 125.724 67.8917 126.286 68.1669C126.847 68.442 126.971 69.3235 126.623 70.0927Z" fill="#263238"/>
<path d="M115.081 73.0909L117.103 70.9293C116.732 70.3678 115.98 70.3678 115.418 70.9798C115.148 71.252 114.97 71.6022 114.91 71.981C114.849 72.3598 114.909 72.7481 115.081 73.0909Z" fill="#263238"/>
<path d="M126.364 73.3827C126.379 73.7014 126.297 74.0173 126.127 74.2874C125.957 74.5576 125.709 74.7691 125.415 74.8931C124.853 75.0671 124.393 74.6853 124.365 74.0284C124.351 73.7108 124.434 73.3966 124.604 73.1277C124.773 72.8588 125.021 72.6481 125.314 72.5237C125.864 72.3441 126.335 72.7315 126.364 73.3827Z" fill="#263238"/>
<path d="M121.555 73.7142L121.718 80.6257L124.884 78.6438L121.555 73.7142Z" fill="#F28F8F"/>
<path d="M117.555 90.3222C114.995 90.6198 109.734 90.2829 108.914 88.1045C109.204 89.1544 109.859 90.0663 110.761 90.676C112.333 91.7989 117.555 92.1638 117.555 92.1638V90.3222Z" fill="#F28F8F"/>
<path d="M83.3917 151.38C86.126 121.561 87.6813 104.779 98.4837 101.517C100.095 102.079 101.589 105.661 101.852 108.204C102.335 112.539 101.751 120.034 99.0452 123.891C99.0452 123.891 95.6764 141.757 94.3458 152.037C93.4362 159.157 91.4823 169.414 91.9371 175.186C92.027 176.275 92.7232 177.123 93.2734 178.038L95.1037 181.076C95.4651 181.716 95.8802 182.325 96.3446 182.895C96.76 183.383 97.2485 183.804 97.7033 184.254C98.0402 184.585 98.3714 185.101 98.0907 185.478C97.9829 185.605 97.8406 185.699 97.6808 185.747C97.1402 185.954 96.5593 186.034 95.9829 185.98C95.4065 185.927 94.8502 185.741 94.357 185.438C93.745 185.057 93.2341 184.501 92.6109 184.175C92.6639 185.238 92.9679 186.273 93.498 187.196C93.8573 187.954 94.2166 188.712 94.6209 189.442C95.0666 190.178 95.4624 190.943 95.8056 191.732C96.1469 192.531 96.2313 193.416 96.047 194.264C95.8325 194.907 95.4438 195.477 94.9243 195.911C94.4049 196.345 93.775 196.626 93.1049 196.724C91.7547 196.892 90.3861 196.621 89.2028 195.949C85.1435 193.849 83.7848 189.627 83.2682 185.388C82.7813 181.861 82.5169 178.308 82.4766 174.748C82.6113 165.366 82.8303 157.18 83.3917 151.38Z" fill="#FFA8A7"/>
<path d="M106.932 98.0253C105.163 98.3998 103.478 99.0923 101.957 100.069C101.957 100.069 105.854 107.593 112.535 108.682C119.216 109.771 119.688 105.274 119.688 105.274C115.55 105.448 111.322 103.64 106.932 98.0253Z" fill="#455A64"/>
<path d="M117.555 94.988V96.1109C120.39 99.8053 121.26 102.994 119.688 105.24C119.688 105.24 124.371 106.829 125.191 103.404C126.01 99.9793 120.081 94.4209 120.081 94.4209C119.216 94.4854 118.365 94.6765 117.555 94.988Z" fill="#455A64"/>
<path d="M194.891 121.937C198.782 121.504 200.275 122.644 201.724 125.867C203.105 128.944 207.338 138.219 207.125 140.381C206.911 142.542 198.063 151.745 198.063 151.745L195.542 148.679L201.011 139.482L196.659 130.201L194.891 121.937Z" fill="#FFA8A7"/>
<path d="M187.078 118.916L187.808 126.552L194.63 126.125L194.085 117.659L187.078 118.916Z" fill="#FFA8A7"/>
<path d="M178.337 104.24C178.278 103.881 178.278 103.515 178.337 103.156C178.422 102.692 178.608 102.252 178.88 101.866C179.153 101.48 179.505 101.158 179.914 100.922C180.323 100.687 180.779 100.542 181.249 100.499C181.719 100.456 182.193 100.516 182.638 100.674C182.506 99.9733 182.613 99.2482 182.941 98.6151C183.27 97.9821 183.802 97.4775 184.451 97.1821C184.956 96.9906 185.494 96.9029 186.033 96.9241C186.572 96.9454 187.102 97.0751 187.59 97.3056C188.176 97.5113 188.663 97.9303 188.954 98.479C189.299 97.9005 189.807 97.436 190.414 97.1432C191.02 96.8503 191.7 96.742 192.367 96.8317C193.035 96.9214 193.662 97.2051 194.17 97.6476C194.678 98.0902 195.045 98.6721 195.225 99.3212C196.264 99.091 197.73 99.5514 198.196 100.584C198.723 101.758 198.078 103.212 198.319 104.442C198.476 105.239 198.819 105.986 198.965 106.794C199.114 107.695 199.198 108.605 199.217 109.517C199.369 113.285 190.616 115.733 190.796 118.321L186.141 112.645C186.141 112.409 185.479 111.819 185.333 111.623C185.052 111.247 184.805 110.848 184.547 110.455C183.745 109.308 182.63 108.415 181.335 107.883C180.42 107.462 179.628 106.815 179.033 106.003C178.67 105.475 178.432 104.872 178.337 104.24Z" fill="#263238"/>
<path d="M182.015 110.539C182.015 110.539 180.505 112.785 180.701 113.021C181.054 113.253 181.446 113.42 181.858 113.515L182.015 110.539Z" fill="#F28F8F"/>
<path d="M186.63 103.409C185.164 104.156 182.626 105.531 181.969 110.854C181.301 116.311 182.531 118.209 183.294 118.922C183.805 119.405 186.444 119.579 187.82 119.163C189.538 118.635 193.272 116.828 195.018 114.009C197.073 110.691 197.499 106.272 195.124 104.543C191.784 102.123 187.876 102.797 186.63 103.409Z" fill="#FFA8A7"/>
<path d="M183.434 119.04C184.051 119.376 185.809 119.517 187.117 119.326L187.072 118.349C186.511 118.59 185.928 118.778 185.331 118.91C184.709 119.048 184.069 119.091 183.434 119.04Z" fill="#F28F8F"/>
<path d="M185.991 103.262C185.367 103.49 184.787 103.825 184.278 104.251C184.023 104.463 183.816 104.727 183.672 105.025C183.561 105.303 183.519 105.604 183.548 105.901C183.592 106.311 183.742 106.702 183.983 107.036C184.224 107.37 184.549 107.635 184.924 107.805C184.725 108.073 184.588 108.383 184.524 108.712C184.46 109.04 184.47 109.378 184.553 109.702C184.822 110.457 185.287 111.125 185.901 111.639C185.932 111.675 185.97 111.704 186.013 111.724C186.056 111.731 186.1 111.728 186.142 111.715C186.184 111.702 186.223 111.68 186.254 111.651C187.175 111.033 187.748 109.966 189.062 110.399C190.774 110.96 190.69 113.071 189.348 114.385C188.869 114.869 188.235 115.169 187.557 115.233C187.213 115.241 186.877 115.123 186.614 114.901C186.614 114.901 186.664 117.653 189.056 118.747C190.724 119.233 192.492 119.254 194.171 118.809C195.075 117.658 196.591 116.193 197.837 114.879C201.942 110.561 202.177 104.29 196.119 102.308C195.912 102.241 195.704 102.179 195.49 102.123C193.542 101.614 191.502 101.57 189.533 101.994C188.563 102.203 187.621 102.525 186.726 102.954L185.991 103.262Z" fill="#263238"/>
<path d="M185.791 113.565C185.632 113.512 185.485 113.427 185.359 113.316C185.234 113.205 185.132 113.069 185.06 112.918C184.987 112.767 184.946 112.602 184.939 112.435C184.931 112.267 184.957 112.1 185.016 111.943C185.135 111.624 185.375 111.364 185.684 111.221C185.993 111.078 186.346 111.063 186.666 111.179L185.791 113.565Z" fill="#263238"/>
<path d="M186.466 218.277C186.711 219.026 186.917 219.787 187.084 220.557C187.258 221.404 187.505 222.802 187.207 223.454C186.91 224.105 185.753 224.504 183.962 224.487C182.805 224.487 180.997 225.267 179.757 225.958C178.516 226.648 175.826 226.957 174.468 226.794C172.873 226.609 171.222 225.671 170.964 225.026C170.706 224.38 170.493 223.459 174.805 222.078C174.844 222.078 180.026 220.394 181.845 218.372L186.466 218.277Z" fill="#263238"/>
<path d="M186.464 218.395L185.639 218.294L181.843 218.372C180.024 220.377 174.842 222.067 174.803 222.078L174.112 222.308C173.365 222.915 174 223.942 175.796 224.099C177.593 224.256 183.123 222.415 184.353 221.803C184.997 221.5 185.539 221.017 185.914 220.412C186.288 219.807 186.48 219.106 186.464 218.395Z" fill="#FFA8A7"/>
<path d="M186.467 216.767C186.467 216.767 186.467 217.805 186.467 218.395C186.467 218.984 185.77 219.872 183.957 219.81C182.682 219.765 181.795 219.422 181.846 218.372V216.862L186.467 216.767Z" fill="#FFA8A7"/>
<path d="M198.647 211.456C198.973 211.59 199.04 212.219 199.057 213.471C199.057 214.414 199.226 216.071 198.108 216.368C196.991 216.666 195.38 216.458 194.689 215.549C193.836 214.426 193.263 213.415 192.039 212.028C190.972 210.821 189.793 209.693 189.417 208.025C189.058 206.526 189.417 205.886 190.439 205.482C191.461 205.077 192.398 205.409 193.807 206.605C194.206 206.871 194.631 207.095 195.076 207.273C196.025 207.553 198.322 211.321 198.647 211.456Z" fill="#263238"/>
<path d="M198.675 210.299L198.635 211.832C198.635 211.832 197.608 213.842 194.756 211.832C194.694 211.686 194.441 208.716 194.441 208.716L198.675 210.299Z" fill="#FFA8A7"/>
<path d="M195.091 207.278C194.646 207.1 194.22 206.876 193.822 206.61C192.699 206.239 190.251 206.666 191.346 208.334C192.25 209.71 193.409 210.9 194.759 211.843C196.051 212.477 196.505 211.691 196.505 211.691L196.045 208.092C195.793 207.752 195.467 207.473 195.091 207.278Z" fill="#FFA8A7"/>
<path d="M200.739 189.076C200.474 186.377 199.909 183.716 199.055 181.142C199.055 181.142 200.02 174.371 200.778 167.869C202.564 152.62 201.374 152.379 199.218 147.095C199.218 147.095 179.668 144.58 178.854 152.71C177.832 162.816 178.292 182.467 178.466 186.06C178.64 189.654 178.927 191.276 179.993 198.8C180.807 204.527 181.577 217.042 181.577 217.042C184.137 218.518 186.63 216.789 186.63 216.789C186.63 216.789 189.078 201.394 189.022 197.25C188.982 194.186 188.546 191.141 187.725 188.188C187.725 188.188 189.409 171.687 189.808 169.065C189.808 169.065 190.279 174.326 190.453 177.919C190.627 181.513 191.576 184.96 192.458 191.647C193.199 197.447 194.434 209.552 194.434 209.552C197 211.028 198.791 210.36 198.791 210.36C198.791 210.36 201.329 194.106 200.739 189.076Z" fill="#6184F4"/>
<g opacity="0.4">
<path d="M200.739 189.075C200.474 186.377 199.909 183.716 199.055 181.142C199.055 181.142 200.02 174.371 200.778 167.869C202.564 152.62 201.374 152.379 199.218 147.095C199.218 147.095 179.668 144.58 178.854 152.71C177.832 162.816 178.292 182.467 178.466 186.06C178.64 189.654 178.927 191.276 179.993 198.8C180.807 204.527 181.577 217.042 181.577 217.042C184.137 218.518 186.63 216.789 186.63 216.789C186.63 216.789 189.078 201.394 189.022 197.25C188.982 194.186 188.546 191.14 187.725 188.188C187.725 188.188 189.409 171.687 189.808 169.065C189.808 169.065 190.279 174.326 190.453 177.919C190.627 181.513 191.576 184.96 192.458 191.647C193.199 197.447 194.434 209.552 194.434 209.552C197 211.028 198.791 210.36 198.791 210.36C198.791 210.36 201.329 194.106 200.739 189.075Z" fill="black"/>
</g>
<path opacity="0.15" d="M189.805 169.037L190.748 161.907C193.503 161.901 196.177 160.97 198.339 159.262C198.339 159.262 197.059 161.867 191.865 163.007L190.849 170.345L190.484 178.43C190.312 175.271 190.085 172.14 189.805 169.037Z" fill="black"/>
<path d="M199.901 125.114C199.239 123.149 197.886 121.993 194.893 121.959H194.365C194.152 123.082 190.643 124.059 187.459 122.936C187.021 123.014 185.506 123.183 184.809 123.278L183.288 123.497C180.975 124.255 179.953 128.281 179.728 134.653C179.504 141.026 178.555 154.664 178.555 154.664C178.555 154.664 183.535 157.336 191.39 156.303C198.425 155.377 201.546 151.25 201.305 151.767C200.24 148.253 198.896 144.83 197.285 141.531C200.991 132.453 200.889 128.04 199.901 125.114Z" fill="#455A64"/>
<path d="M187.5 156.55C188.801 156.566 190.101 156.489 191.391 156.32C197.808 155.478 201.031 151.963 201.301 151.75C200.249 148.243 198.907 144.831 197.286 141.548C199.161 136.95 200.06 133.553 200.363 130.937C200.06 132.846 197.241 140.234 193.553 142.447C193.553 142.447 195.63 142.772 197.41 145.215C199.19 147.657 197.73 156.028 187.5 156.55Z" fill="#37474F"/>
<path d="M184.809 123.295C181.744 123.683 179.318 124.323 177.977 127.225C175.731 132.183 173.255 136.254 171.469 138.168C169.56 140.212 161.734 143.783 159.971 143.519C158.208 143.255 156.45 141.206 155.541 141.728C154.631 142.25 156.316 144.221 156.203 144.664C156.091 145.108 152.896 144.872 151.386 143.805C149.876 142.738 149.314 144.928 151.268 147.23C153.222 149.532 156.883 149.7 160.886 148.914C164.889 148.128 172.407 146.012 175.484 143.491C179.195 140.436 180.458 138.123 182.036 135.383C187.735 129.499 184.809 123.295 184.809 123.295Z" fill="#FFA8A7"/>
</svg>
