<svg width="202" height="157" viewBox="0 0 202 157" fill="none" xmlns="http://www.w3.org/2000/svg">
<g opacity="0.3">
<path d="M202 94.8159C201.998 93.1717 201.612 91.5508 200.872 90.0822C200.133 88.6137 199.061 87.3381 197.741 86.3571C196.422 85.3761 194.892 84.7166 193.272 84.4314C191.653 84.1462 189.99 84.243 188.414 84.7141C188.573 83.6414 188.655 82.5586 188.659 81.4742C188.659 75.5484 186.305 69.8654 182.115 65.6752C177.924 61.4851 172.241 59.1311 166.316 59.1311C164.932 59.1342 163.551 59.2621 162.189 59.5132C159.992 55.8872 156.673 53.0755 152.736 51.5033C148.798 49.9312 144.456 49.6842 140.365 50.7996C136.275 51.915 132.659 54.3323 130.064 57.6857C127.469 61.039 126.038 65.1461 125.985 69.3857H125.664C123.257 69.3155 120.86 69.7291 118.615 70.6019C116.371 71.4746 114.324 72.7889 112.596 74.4669C110.869 76.1448 109.496 78.1523 108.558 80.3705C107.62 82.5887 107.137 84.9726 107.137 87.3809C107.137 89.7892 107.62 92.173 108.558 94.3913C109.496 96.6095 110.869 98.617 112.596 100.295C114.324 101.973 116.371 103.287 118.615 104.16C120.86 105.033 123.257 105.446 125.664 105.376H191.746C194.496 105.304 197.109 104.159 199.025 102.186C200.941 100.212 202.009 97.5668 202 94.8159Z" fill="#263238"/>
<g opacity="0.7">
<path opacity="0.3" d="M202 94.8157C201.998 93.1715 201.612 91.5506 200.872 90.0821C200.133 88.6135 199.061 87.338 197.741 86.3569C196.422 85.3759 194.892 84.7165 193.272 84.4312C191.653 84.146 189.99 84.2428 188.414 84.7139C188.573 83.6412 188.655 82.5584 188.659 81.474C188.659 75.5482 186.305 69.8652 182.115 65.675C177.924 61.4849 172.241 59.1309 166.316 59.1309C164.932 59.134 163.551 59.2619 162.189 59.513C159.992 55.887 156.673 53.0753 152.736 51.5032C148.798 49.931 144.456 49.684 140.365 50.7994C136.275 51.9149 132.659 54.3321 130.064 57.6855C127.469 61.0389 126.038 65.1459 125.985 69.3855H125.664C123.257 69.3153 120.86 69.7289 118.615 70.6017C116.371 71.4745 114.324 72.7887 112.596 74.4667C110.869 76.1446 109.496 78.1521 108.558 80.3703C107.62 82.5886 107.137 84.9724 107.137 87.3807C107.137 89.789 107.62 92.1729 108.558 94.3911C109.496 96.6093 110.869 98.6168 112.596 100.295C114.324 101.973 116.371 103.287 118.615 104.16C120.86 105.033 123.257 105.446 125.664 105.376H191.746C194.496 105.304 197.109 104.159 199.025 102.185C200.941 100.212 202.009 97.5666 202 94.8157Z" fill="white"/>
<path opacity="0.3" d="M150.336 70.5793C150.332 67.9834 149.72 65.4243 148.548 63.1058C147.376 60.7872 145.677 58.7733 143.586 57.2244C141.495 55.6755 139.07 54.6344 136.504 54.1841C133.938 53.7338 131.302 53.8866 128.805 54.6304C129.058 52.9368 129.187 51.2273 129.193 49.5152C129.193 40.1594 125.462 31.1869 118.822 24.5714C112.182 17.9559 103.175 14.2394 93.7844 14.2394C91.5909 14.2443 89.4023 14.4461 87.2452 14.8426C83.7627 9.1178 78.5036 4.6786 72.2634 2.19648C66.0232 -0.28564 59.1414 -0.675672 52.6589 1.08541C46.1764 2.8465 40.4459 6.6629 36.3342 11.9573C32.2226 17.2517 29.9534 23.736 29.87 30.4295H29.3614C25.5464 30.3188 21.7479 30.9717 18.1907 32.3497C14.6336 33.7276 11.3901 35.8027 8.65235 38.4519C5.91458 41.101 3.73815 44.2705 2.25196 47.7727C0.765766 51.2749 0 55.0385 0 58.8408C0 62.6431 0.765766 66.4068 2.25196 69.909C3.73815 73.4111 5.91458 76.5807 8.65235 79.2298C11.3901 81.879 14.6336 83.954 18.1907 85.332C21.7479 86.71 25.5464 87.3629 29.3614 87.2521H134.085C138.443 87.1387 142.584 85.3306 145.621 82.2147C148.658 79.0988 150.35 74.9225 150.336 70.5793Z" fill="white"/>
</g>
<path d="M182.499 120.842C186.809 119.314 177.762 110.144 177.762 110.144C177.762 110.144 178.19 122.324 182.499 120.842Z" fill="black"/>
<path d="M185.527 127.719C185.527 127.719 185.94 139.945 190.25 138.493C194.559 137.041 185.527 127.719 185.527 127.719Z" fill="black"/>
<path d="M193.273 145.386C193.273 145.386 193.686 157.612 197.996 156.16C202.305 154.708 193.273 145.386 193.273 145.386Z" fill="black"/>
<path d="M168.179 120.949C172.489 119.421 163.441 110.175 163.441 110.175C163.441 110.175 163.869 122.446 168.179 120.949Z" fill="black"/>
<path d="M171.207 127.826C171.207 127.826 171.62 140.052 175.929 138.616C180.239 137.179 171.207 127.826 171.207 127.826Z" fill="black"/>
<path d="M178.953 145.493C178.953 145.493 179.366 157.719 183.675 156.191C187.985 154.662 178.953 145.493 178.953 145.493Z" fill="black"/>
<path d="M153.859 121.056C158.169 119.528 149.137 110.282 149.137 110.282C149.137 110.282 149.549 122.554 153.859 121.056Z" fill="black"/>
<path d="M156.887 127.949C156.887 127.949 157.299 140.175 161.609 138.723C165.919 137.271 156.887 127.949 156.887 127.949Z" fill="black"/>
<path d="M164.633 145.6C164.633 145.6 165.045 157.826 169.355 156.298C173.665 154.769 164.633 145.6 164.633 145.6Z" fill="black"/>
<path d="M134.816 110.389C134.816 110.389 135.229 122.615 139.539 121.163C143.848 119.711 134.816 110.389 134.816 110.389Z" fill="black"/>
<path d="M142.566 128.132C142.566 128.132 142.979 140.358 147.289 138.906C151.598 137.455 142.566 128.132 142.566 128.132Z" fill="black"/>
<path d="M150.312 145.707C150.312 145.707 150.725 157.933 155.035 156.481C159.344 155.029 150.312 145.707 150.312 145.707Z" fill="black"/>
<g opacity="0.7">
<path d="M182.499 120.842C186.809 119.314 177.762 110.144 177.762 110.144C177.762 110.144 178.19 122.324 182.499 120.842Z" fill="white"/>
<path d="M185.523 127.719C185.523 127.719 185.936 139.945 190.246 138.493C194.555 137.041 185.523 127.719 185.523 127.719Z" fill="white"/>
<path d="M193.273 145.386C193.273 145.386 193.686 157.612 197.996 156.16C202.305 154.708 193.273 145.386 193.273 145.386Z" fill="white"/>
<path d="M168.179 120.949C172.489 119.421 163.441 110.175 163.441 110.175C163.441 110.175 163.869 122.446 168.179 120.949Z" fill="white"/>
<path d="M171.203 127.826C171.203 127.826 171.616 140.052 175.925 138.615C180.235 137.179 171.203 127.826 171.203 127.826Z" fill="white"/>
<path d="M178.953 145.493C178.953 145.493 179.366 157.719 183.675 156.191C187.985 154.662 178.953 145.493 178.953 145.493Z" fill="white"/>
<path d="M153.859 121.056C158.169 119.528 149.137 110.282 149.137 110.282C149.137 110.282 149.549 122.554 153.859 121.056Z" fill="white"/>
<path d="M156.883 127.949C156.883 127.949 157.295 140.175 161.605 138.723C165.915 137.271 156.883 127.949 156.883 127.949Z" fill="white"/>
<path d="M164.633 145.6C164.633 145.6 165.045 157.826 169.355 156.298C173.665 154.769 164.633 145.6 164.633 145.6Z" fill="white"/>
<path d="M134.816 110.388C134.816 110.388 135.229 122.614 139.539 121.163C143.848 119.711 134.816 110.388 134.816 110.388Z" fill="white"/>
<path d="M142.566 128.132C142.566 128.132 142.979 140.358 147.289 138.906C151.598 137.454 142.566 128.132 142.566 128.132Z" fill="white"/>
<path d="M150.312 145.707C150.312 145.707 150.725 157.933 155.035 156.481C159.344 155.029 150.312 145.707 150.312 145.707Z" fill="white"/>
</g>
<g opacity="0.7">
<path d="M96.9642 100.97C101.274 99.4417 92.2266 90.2722 92.2266 90.2722C92.2266 90.2722 92.6545 102.452 96.9642 100.97Z" fill="white"/>
<path d="M99.9883 107.847C99.9883 107.847 100.401 120.073 104.711 118.621C109.02 117.169 99.9883 107.847 99.9883 107.847Z" fill="white"/>
<path d="M107.738 125.514C107.738 125.514 108.151 137.74 112.461 136.288C116.77 134.836 107.738 125.514 107.738 125.514Z" fill="white"/>
<path d="M82.6439 101.077C86.9535 99.5485 77.9062 90.3026 77.9062 90.3026C77.9062 90.3026 78.3342 102.574 82.6439 101.077Z" fill="white"/>
<path d="M85.668 107.954C85.668 107.954 86.0806 120.18 90.3903 118.743C94.7 117.307 85.668 107.954 85.668 107.954Z" fill="white"/>
<path d="M93.418 125.621C93.418 125.621 93.8306 137.847 98.1403 136.319C102.45 134.79 93.418 125.621 93.418 125.621Z" fill="white"/>
<path d="M68.3239 101.184C72.6336 99.6556 63.6016 90.4097 63.6016 90.4097C63.6016 90.4097 64.0142 102.682 68.3239 101.184Z" fill="white"/>
<path d="M71.3477 108.077C71.3477 108.077 71.7603 120.303 76.07 118.851C80.3796 117.399 71.3477 108.077 71.3477 108.077Z" fill="white"/>
<path d="M79.0977 125.728C79.0977 125.728 79.5103 137.954 83.82 136.426C88.1296 134.897 79.0977 125.728 79.0977 125.728Z" fill="white"/>
<path d="M49.2812 90.5164C49.2812 90.5164 49.6939 102.742 54.0036 101.291C58.3133 99.8388 49.2812 90.5164 49.2812 90.5164Z" fill="white"/>
<path d="M57.0312 108.26C57.0312 108.26 57.4439 120.486 61.7536 119.034C66.0632 117.582 57.0312 108.26 57.0312 108.26Z" fill="white"/>
<path d="M64.7773 125.835C64.7773 125.835 65.19 138.061 69.4997 136.609C73.8093 135.157 64.7773 125.835 64.7773 125.835Z" fill="white"/>
</g>
</g>
</svg>
