<svg width="589" height="957" viewBox="0 0 589 957" fill="none" xmlns="http://www.w3.org/2000/svg">
<g opacity="0.4">
<path d="M956.578 539.157C948.119 547.617 927.609 543.956 916.575 540.348C903.79 536.179 906.732 524.48 909.832 512.062C911.038 507.569 912.003 503.014 912.722 498.418C900.707 504.513 889.795 517.526 884.524 533.097C884.471 533.251 884.388 533.393 884.28 533.515C884.172 533.637 884.042 533.737 883.895 533.808C883.749 533.88 883.59 533.922 883.427 533.932C883.265 533.942 883.102 533.92 882.947 533.867C882.793 533.814 882.651 533.732 882.529 533.624C882.407 533.516 882.307 533.385 882.236 533.239C882.164 533.092 882.122 532.933 882.112 532.771C882.102 532.608 882.124 532.445 882.177 532.291C887.886 515.477 899.884 501.623 913.037 495.511C913.448 491.569 913.206 487.586 912.319 483.724L911.531 480.413C908.501 467.61 905.628 455.525 896.573 451.444C889.34 448.169 878.831 450.341 864.329 458.047C858.751 461.007 853.702 464.872 849.389 469.484C864.855 477.278 880.145 490.186 881.651 502.762C882.772 511.974 876.73 519.558 863.681 525.32C849.074 531.73 837.743 529.681 832.821 519.505C826.743 506.982 831.787 486.035 845.256 470.255C840.335 467.917 835.147 466.188 829.808 465.105C826.194 464.504 822.625 463.662 819.124 462.583C817.512 464.063 815.797 465.426 813.993 466.664C815.876 470.315 817.418 474.132 818.599 478.066C821.699 488.557 817.653 496.141 807.145 499.398C799.683 501.71 788.947 501.588 777.247 499.486C771.987 501.072 766.365 500.993 761.152 499.258C756.667 497.878 752.717 495.151 749.837 491.447C731.342 483.81 715.141 472.198 710.657 458.502C706.489 445.751 704.895 434.489 705.823 425.644C696.523 422.79 684.385 422.212 668.132 425.084C652.877 427.763 643.104 431.582 639.548 436.153C668.009 435.715 683.142 443.246 691.111 450.375C693.906 452.621 696.197 455.43 697.836 458.619C699.474 461.809 700.423 465.307 700.621 468.888C700.604 470.481 699.623 472.408 695.034 472.653C681.496 473.371 637.289 457.503 635.485 441.547C635.379 440.625 635.415 439.692 635.59 438.78C631.054 438.973 626.185 439.358 620.965 439.988C609.406 441.354 602.505 444.857 600.456 450.409C599.09 454.087 599.861 458.781 602.646 464.193C631.194 476.313 655.347 496.683 655.189 504.512C655.18 505.323 654.891 506.106 654.371 506.729C653.85 507.351 653.131 507.774 652.334 507.927C646.467 509.556 625.029 495.124 611.368 480.307C607.279 476.053 603.721 471.318 600.771 466.207C597.374 464.771 593.906 463.475 590.385 462.337C579.106 458.658 571.487 459.061 567.669 463.475C563.851 467.889 563.781 475.63 566.566 486.506C575.833 488.305 584.602 492.08 592.277 497.576C605.028 506.823 607.287 518.401 605.378 525.459C604.93 527.752 603.784 529.851 602.097 531.469C600.411 533.087 598.266 534.144 595.955 534.496C589.335 535.197 582.364 529.347 576.9 518.523C571.909 508.967 567.844 498.956 564.762 488.626C554.51 486.521 543.853 487.78 534.374 492.216C526.16 496.472 516.44 505.632 516.72 525.178C516.685 528.727 517.355 532.248 518.69 535.537C520.024 538.826 521.998 541.818 524.496 544.339C534.208 540.666 544.428 538.515 554.796 537.964C566.601 537.509 575.428 539.926 579.562 544.725C580.482 545.577 581.068 546.729 581.216 547.974C581.364 549.219 581.063 550.477 580.368 551.52C578.286 554.071 575.404 555.842 572.188 556.547C572.761 557.397 573.198 558.33 573.484 559.314C575.411 566.11 571.418 577.459 564.745 584.132C556.18 592.697 532.483 596.672 513.06 595.148C510.433 597.776 507.823 600.7 505.021 603.783C479.082 632.314 468.118 650.949 472.427 659.146C476.735 667.343 495.02 664.576 509.89 662.632L514.234 662.071C516.388 643.804 524.742 627.042 536.039 620.825C542.677 617.234 546.337 618.408 548.229 620.054C551.995 623.294 552.257 631.579 548.755 641.036C545.024 651.317 536.389 663.525 524.812 663.612C522.047 663.683 519.287 663.906 516.546 664.278C516.01 669.617 516.081 674.999 516.756 680.321C518.034 689.762 522.623 706.19 539.104 710.061C544.32 711.404 549.766 711.589 555.06 710.604C561.523 703.931 566.497 700.638 568.669 701.899C569.129 702.177 569.462 702.625 569.596 703.145C569.73 703.666 569.655 704.218 569.387 704.684C568.529 706.908 564.133 711.2 556.269 712.968C553.466 715.771 550.261 719.606 546.426 724.493C529.332 746.421 530.523 754.407 532.677 757.157C534.481 759.417 538.264 760.327 543.518 759.907C548.755 742.025 562.521 721.813 573.801 716.629C583.609 712.11 590.509 715.823 593.172 721.323C594.189 723.926 594.585 726.73 594.326 729.512C594.068 732.295 593.163 734.978 591.683 737.349C589.178 741.85 583.854 748.295 572.732 753.427C564.086 757.558 554.918 760.492 545.48 762.149C543.776 767.466 543.415 773.122 544.429 778.613C545.918 784.515 550.297 787.247 557.337 786.722C588.951 784.603 611.212 744.092 611.439 743.689C611.521 743.541 611.631 743.41 611.763 743.304C611.896 743.198 612.047 743.12 612.21 743.072C612.373 743.025 612.543 743.011 612.711 743.029C612.879 743.048 613.042 743.1 613.191 743.181C613.339 743.263 613.47 743.373 613.576 743.505C613.682 743.637 613.76 743.789 613.807 743.952C613.855 744.114 613.869 744.285 613.851 744.453C613.832 744.621 613.78 744.784 613.699 744.933C612.77 746.667 590.562 787.055 557.565 789.261C547.021 789.962 543.308 784.217 542.047 779.243C540.944 773.677 541.203 767.927 542.8 762.482C537.634 762.779 533.185 761.869 530.733 758.751C525.986 752.779 530.61 740.764 544.464 723.022C547.214 719.501 549.841 716.384 552.293 713.651C547.665 714.019 543.008 713.623 538.509 712.478C525.215 709.343 516.616 698.046 514.286 680.654C513.58 675.329 513.468 669.943 513.953 664.593L510.188 665.101C494.67 667.098 475.176 669.777 470.272 660.214C465.368 650.651 476.157 631.806 503.199 602.067L509.942 594.798C500.677 593.765 492.69 591.383 488.259 587.582C484.494 584.342 481.394 578.58 488.014 569.612C495.913 558.876 508.471 550.697 521.834 545.32C516.772 539.782 514.01 532.523 514.11 525.02C513.865 504.248 524.286 494.388 533.113 489.834C542.721 485.301 553.509 483.898 563.956 485.823C561.574 476.015 561.329 466.943 565.848 461.688C570.366 456.434 578.826 455.716 591.209 459.797C593.871 460.638 596.568 461.654 599.213 462.687C597.178 458.567 596.784 453.828 598.109 449.429C600.509 442.931 608.092 438.885 620.65 437.396C626.342 436.713 631.614 436.31 636.518 436.135C639.811 430.25 650.372 425.784 667.799 422.614C684.21 419.724 696.628 420.303 706.208 423.192C706.734 417.561 709.428 412.355 713.722 408.673C723.092 401.58 738.96 405.398 760.888 420.075C764 422.138 766.999 424.366 769.873 426.748C779.559 429.428 792.485 438.185 802.906 450.288C803.782 451.164 804.517 452.179 805.27 453.143C801.61 447.275 801.452 439.096 802.17 427.414C802.555 421.074 805.69 416.467 810.805 414.751C814.042 413.874 817.465 413.955 820.658 414.984C823.85 416.013 826.676 417.946 828.792 420.548C834.852 427.659 835.045 438.01 829.265 449.045C827.098 453.258 824.338 457.139 821.068 460.569C824.058 461.43 827.093 462.125 830.158 462.653C835.955 463.822 841.58 465.717 846.902 468.293C851.521 463.232 856.956 458.981 862.98 455.718C878.13 447.574 889.462 445.489 897.396 449.08C907.555 453.669 910.69 466.927 913.738 479.748L914.526 483.023C915.376 486.742 915.66 490.569 915.366 494.372C918.422 493.166 921.638 492.416 924.912 492.148C937.084 491.22 947.576 498.033 954.546 511.274C960.974 523.587 961.868 532.607 957.034 538.281L956.578 539.157ZM915.384 497.192C914.694 502.425 913.647 507.603 912.249 512.692C908.746 526.704 907.24 534.691 917.328 537.983C931.322 542.555 949.205 544.079 955.387 536.81C959.433 532.029 958.487 523.867 952.585 512.535C946.069 499.995 936.647 493.83 925.385 494.688C921.938 494.98 918.561 495.826 915.384 497.192ZM847.655 471.498C834.66 486.526 829.405 506.877 835.098 518.489C839.424 527.404 849.197 529.086 862.736 523.113C874.663 517.842 880.215 511.099 879.252 503.094C877.921 491.43 862.823 478.924 847.725 471.428L847.655 471.498ZM546.128 759.679C554.953 758.073 563.516 755.262 571.577 751.325C582.12 746.456 587.094 740.466 589.406 736.298C590.718 734.258 591.536 731.941 591.794 729.53C592.053 727.118 591.745 724.68 590.895 722.409C588.373 716.979 582.067 715.613 574.799 718.958C564.483 723.67 551.487 742.725 546.198 759.609L546.128 759.679ZM781.276 497.734C789.626 499.268 798.204 499.042 806.462 497.069C815.727 494.179 819.002 488.032 816.234 478.819C815.127 475.114 813.679 471.52 811.908 468.083C806.702 471.262 800.811 473.154 794.727 473.6C794.572 478.108 793.512 482.54 791.609 486.63C789.444 491.343 785.821 495.236 781.276 497.734ZM818.476 459.728L818.651 459.553C822.054 456.132 824.913 452.21 827.128 447.924C832.365 437.888 832.26 428.535 826.9 422.23C825.104 420.006 822.705 418.347 819.99 417.452C817.275 416.558 814.359 416.465 811.593 417.186C807.442 418.569 804.955 422.282 804.587 427.694C803.571 446.26 804.5 454.824 818.546 459.798L818.476 459.728ZM812.749 464.51C814.018 463.636 815.234 462.689 816.392 461.672C812.876 460.466 809.683 458.471 807.057 455.84C809.186 458.601 811.134 461.497 812.889 464.51L812.749 464.51ZM776.739 497.016C779.499 496.057 782.031 494.538 784.177 492.555C786.323 490.572 788.036 488.168 789.21 485.492C790.953 481.754 791.93 477.704 792.082 473.582C791.206 473.582 790.296 473.547 789.402 473.459C774.48 472.233 762.272 461.462 756.79 444.63C753.112 433.421 756.055 428.972 759.155 427.239C760.909 426.292 762.891 425.849 764.882 425.96C763.165 424.664 761.361 423.385 759.452 422.107C738.803 408.288 723.477 404.312 715.176 410.617C711.307 414.006 708.908 418.767 708.485 423.893C729.327 431.389 735.755 450.393 741.238 466.699C744.268 475.648 747.017 483.863 751.589 489.59C759.77 492.932 768.266 495.443 776.95 497.086L776.739 497.016ZM794.569 471.025C800.25 470.574 805.743 468.779 810.595 465.788C807.842 460.867 804.59 456.243 800.892 451.987C793.712 443.38 784.826 436.355 774.795 431.355C788.754 444.718 794.516 458.922 794.779 471.095L794.569 471.025ZM560.087 709.01C561.521 708.403 562.884 707.639 564.15 706.733C565.116 706.054 565.958 705.212 566.637 704.246C564.266 705.489 562.117 707.116 560.279 709.063L560.087 709.01ZM755.424 493.601C757.32 495.061 759.461 496.17 761.747 496.876C764.632 497.8 767.652 498.226 770.679 498.137C765.58 496.921 760.552 495.424 755.617 493.653L755.424 493.601ZM759.295 430.181C756.44 433.036 757.543 438.938 759.032 443.93C764.286 460.008 775.373 469.904 789.595 470.99C790.418 471.042 791.259 471.077 792.1 471.077C791.837 458.274 784.953 442.914 768.612 429.13C765.921 428.188 762.976 428.275 760.346 429.375C760.036 429.638 759.759 429.938 759.522 430.269L759.295 430.181ZM708.1 426.415C707.643 437.048 709.267 447.668 712.882 457.678C716.892 469.991 730.834 480.535 747.245 487.874C743.689 481.426 740.852 474.607 738.785 467.539C733.531 451.391 727.576 433.666 708.328 426.503L708.1 426.415ZM516.861 661.791C519.499 661.445 522.153 661.234 524.812 661.16C534.48 661.09 542.66 650.599 546.478 640.231C549.49 631.999 549.578 624.485 546.635 621.963C544.271 619.914 540.207 621.385 537.23 623.067C527.002 628.636 519.085 644.609 516.861 661.791ZM638.147 438.64C637.882 439.464 637.798 440.337 637.902 441.197C639.443 454.578 680.97 470.849 694.859 470.131C695.823 470.079 698.082 469.851 698.099 468.818C698.117 466.173 697.241 459.167 689.447 452.214C683.054 446.451 668.377 437.939 638.147 438.64ZM604.642 467.696C607.141 471.549 609.978 475.171 613.119 478.52C627.376 493.968 647.518 506.578 651.599 505.44C652.527 505.177 652.615 504.739 652.65 504.389C652.79 498.434 631.509 479.711 604.642 467.696ZM515.267 592.836C533.587 593.852 555.27 590.104 562.993 582.381C569.001 576.373 572.784 565.9 571.085 559.997C570.829 558.946 570.276 557.992 569.491 557.247C565.284 558.142 560.988 558.548 556.688 558.456C548.614 562.256 535.723 571.644 515.302 592.871L515.267 592.836ZM567.284 488.976C570.3 498.727 574.199 508.183 578.931 517.227C583.975 527.14 590.035 532.5 595.675 532.009C597.479 531.684 599.14 530.815 600.436 529.519C601.732 528.223 602.601 526.562 602.926 524.758C604.642 518.453 602.471 508.049 590.753 499.52C583.733 494.453 575.744 490.887 567.284 489.046L567.284 488.976ZM569.999 554.533C573.167 554.036 576.081 552.502 578.283 550.172C578.739 549.436 579.177 548.263 577.635 546.476C573.992 542.238 565.655 540.066 554.761 540.486C545.07 540.999 535.508 542.947 526.388 546.266C530.749 549.744 535.782 552.284 541.17 553.727C546.003 555.084 550.987 555.831 556.005 555.951C561.399 553.429 565.148 553.044 567.757 553.692C568.557 553.865 569.325 554.16 570.034 554.568L569.999 554.533ZM519.225 585.235C533.482 570.978 544.025 562.677 551.767 558.228C547.929 557.885 544.13 557.193 540.417 556.161C534.246 554.513 528.527 551.489 523.691 547.316C510.345 552.501 497.769 560.557 489.941 571.188C485.474 577.231 485.422 582.047 489.818 585.813C494.214 589.579 502.446 591.786 511.991 592.644C514.584 590.017 516.965 587.565 519.26 585.27L519.225 585.235Z" fill="#263238"/>
<path d="M632.613 754.706L632.385 754.933C630.914 755.774 607.024 769.155 581.296 771.8C585.131 779.558 587.601 787.808 586.41 795.094C585.927 798.078 584.754 800.908 582.984 803.359C581.215 805.809 578.897 807.813 576.217 809.21C567.95 813.974 553.676 807.687 538.193 792.379C517.315 771.852 493.636 732.829 506.001 709.956C511.286 700.827 518.871 693.243 527.999 687.958C520.848 679.669 516.063 669.608 514.145 658.831C512.663 652.009 512.813 644.934 514.581 638.181C516.349 631.427 519.686 625.187 524.32 619.966C503.075 618.723 479.834 614.011 473.528 606.9C465.296 597.372 457.415 575.654 463.755 563.254C466.032 558.841 471.129 553.779 482.671 554.847C491.956 555.982 501.175 557.601 510.291 559.699C509.1 553.526 509.454 547.154 511.324 541.151C516.789 521.15 522.866 511.289 530.975 509.135C533.222 508.679 535.536 508.674 537.785 509.119C540.034 509.564 542.172 510.45 544.076 511.727C533.322 490.464 533.83 471.356 541.431 461.828C545.442 456.732 555.197 449.603 575.216 459.254C584.694 463.875 593.92 468.997 602.854 474.597C602.594 469.995 602.936 465.379 603.87 460.865C607.793 440.829 621.63 418.761 628.39 418.34C629.208 418.305 630.012 418.563 630.657 419.067C631.302 419.571 631.747 420.288 631.911 421.09C633.96 427.378 631.42 437.554 628.951 447.379C626.481 457.205 624.012 466.961 626.919 470.113C627.48 470.625 628.159 470.991 628.896 471.177C629.632 471.364 630.403 471.365 631.14 471.182C637.831 470.376 646.693 458.887 656.081 446.697C669.882 428.797 687.046 406.518 706.697 405.223C714.421 404.715 719.01 405.836 721.129 408.726C724.089 412.771 721.655 419.269 718.502 427.431C715.017 436.381 710.656 447.608 713.353 458.011C713.756 459.64 714.509 461.619 715.805 461.899C719.763 462.705 728.24 451.496 736.437 440.672C750.133 422.597 765.633 402.123 777.561 409.672C789.909 417.466 780.819 438.185 772.026 458.257C765.126 474.02 757.998 490.326 762.832 497.612C767.315 504.372 797.896 492.638 824.885 482.287C859.371 469.064 880.686 461.515 885.976 467.925C888.165 470.57 887.219 475.054 883.121 481.639C864.03 512.359 847.532 525.67 839.633 532.133C837.768 533.383 836.113 534.92 834.729 536.687C834.799 536.832 834.84 536.989 834.848 537.149C834.857 537.31 834.834 537.471 834.78 537.622C834.727 537.774 834.643 537.913 834.535 538.032C834.427 538.151 834.296 538.248 834.151 538.316C833.848 538.452 833.505 538.465 833.193 538.35C832.882 538.235 832.628 538.003 832.487 537.703C831.436 535.566 833.52 533.867 838.074 530.189C845.833 523.936 862.174 510.713 881.054 480.378C885.31 473.53 885.065 470.693 884.154 469.467C879.6 463.967 851.069 474.913 825.779 484.651C795.233 496.386 766.352 507.437 760.782 499.03C755.213 490.623 762.289 474.44 769.785 457.311C778.156 438.22 786.808 418.464 776.265 411.808C766.229 405.486 750.834 425.855 738.434 442.213C727.505 456.645 720.534 465.437 715.332 464.369C713.248 463.966 711.812 462.075 710.954 458.659C708.151 447.45 712.705 435.89 716.19 426.59C718.975 419.427 721.374 413.244 719.168 410.232C717.696 408.2 713.58 407.307 706.872 407.745C688.36 408.988 671.563 430.758 658.077 448.273C647.937 461.426 639.179 472.775 631.455 473.704C630.321 473.947 629.143 473.9 628.031 473.566C626.92 473.232 625.911 472.623 625.098 471.795C621.385 467.591 623.784 457.976 626.569 446.854C629.021 437.396 631.403 427.518 629.616 421.878C629.266 420.792 628.828 420.81 628.583 420.845C623.942 421.108 610.42 440.479 606.357 461.356C605.279 466.235 604.989 471.255 605.499 476.226C620.964 486.156 632.822 495.877 631.245 499.17C630.545 500.641 628.706 501.709 616.13 495.684C612.622 494.033 609.593 491.515 607.328 488.368C605.063 485.22 603.638 481.548 603.187 477.697C593.8 471.665 584.062 466.197 574.025 461.321C560.382 454.683 549.453 455.383 543.27 463.212C535.686 472.827 536.422 493.109 548.472 514.582C551.032 516.552 553.454 518.693 555.723 520.992C567.178 532.447 581.067 550.084 580.139 553.184C580.052 553.426 579.913 553.646 579.731 553.828C579.55 554.009 579.33 554.149 579.088 554.235C578.124 554.428 576.163 554.813 557.265 531.746C553.254 526.88 549.662 521.683 546.528 516.211C540.731 511.955 535.809 510.431 531.571 511.552C524.39 513.443 518.873 522.779 513.654 541.799C511.74 547.805 511.516 554.222 513.006 560.347C540.906 566.495 575.287 576.286 574.989 581.733C574.867 583.922 571.784 584.728 564.008 584.587C538.349 584.184 522.148 578.983 514.442 568.719C512.978 566.766 511.826 564.597 511.027 562.291C501.612 560.078 492.073 558.434 482.46 557.369C474.299 556.634 468.747 559.033 465.979 564.463C460.637 574.919 466.768 595.376 475.385 605.394C481.2 612.12 505.527 616.481 526.772 617.549C530.162 614.279 534.053 611.571 538.297 609.528C548.017 604.957 557.458 605.324 561.854 610.491C562.247 610.852 562.556 611.294 562.76 611.788C562.963 612.281 563.056 612.813 563.031 613.346C563.005 613.879 562.864 614.4 562.615 614.873C562.366 615.345 562.017 615.756 561.591 616.078C557.423 619.651 543.359 620.93 527.578 620.247C522.708 625.209 519.151 631.306 517.227 637.987C515.304 644.668 515.075 651.724 516.562 658.516C518.475 669.021 523.237 678.8 530.328 686.784C545.04 678.552 561.574 675.995 570.454 680.006C575.953 682.423 577.95 687.292 575.883 693.317C573.204 701.146 566.478 705.209 557.353 704.561C548.228 703.913 538.052 698.711 529.803 690.077C520.928 695.186 513.562 702.552 508.453 711.427C497.699 731.043 516.089 767.193 540.119 790.803C554.586 805.024 568.002 811.33 575.183 807.231C577.536 806.002 579.568 804.238 581.116 802.082C582.664 799.925 583.686 797.436 584.098 794.814C585.254 787.808 582.679 779.734 578.844 772.045C567.036 773.326 555.119 770.948 544.708 765.231C530.889 757.017 529.488 750.011 529.891 746.526C530.291 744.36 531.32 742.36 532.849 740.774C534.378 739.189 536.34 738.089 538.49 737.611C542.809 736.394 547.384 736.428 551.685 737.708C555.985 738.989 559.833 741.463 562.783 744.845C569.457 752.304 575.285 760.481 580.157 769.225C606.166 766.791 630.932 752.919 631.299 752.727C631.438 752.64 631.593 752.583 631.755 752.559C631.917 752.535 632.082 752.545 632.239 752.588C632.397 752.631 632.544 752.705 632.672 752.808C632.8 752.91 632.905 753.037 632.981 753.182C633.105 753.439 633.136 753.732 633.069 754.009C633.002 754.287 632.841 754.533 632.613 754.706ZM534.182 742.725C533.071 743.807 532.361 745.233 532.168 746.771C531.835 749.626 533.166 755.546 545.794 763.06C555.411 768.323 566.392 770.563 577.302 769.488C572.601 761.28 567.041 753.594 560.716 746.561C558.09 743.516 554.652 741.281 550.803 740.118C546.954 738.955 542.853 738.912 538.981 739.993C537.186 740.508 535.54 741.444 534.182 742.725ZM532.045 688.501C539.821 696.452 549.191 701.234 557.441 701.847C565.69 702.46 571.154 699.062 573.466 692.301C575.13 687.415 573.747 683.964 569.368 682.038C561.171 678.535 545.846 680.969 532.045 688.501ZM530.275 617.549C544.392 618.005 556.547 616.919 559.962 614.029C560.488 613.504 560.908 613.083 559.91 611.91C556.319 607.654 548.052 607.549 539.365 611.647C536.06 613.222 532.98 615.231 530.205 617.619L530.275 617.549ZM513.864 562.817C514.524 564.333 515.359 565.767 516.351 567.09C523.444 576.566 539.488 581.575 563.99 581.978C566.714 582.266 569.468 582.095 572.135 581.47C569.245 577.914 540.206 568.912 513.794 562.887L513.864 562.817ZM606.007 479.431C606.67 482.436 608.016 485.247 609.942 487.647C611.868 490.046 614.321 491.97 617.111 493.267C624.73 496.928 627.637 497.593 628.583 497.734C627.252 495.176 618.688 487.908 605.937 479.501L606.007 479.431ZM552.728 521.465C554.655 524.303 556.774 527.192 559.121 530.03C564.422 536.732 570.057 543.162 576.005 549.296C569.569 539.697 562.181 530.772 553.954 522.656C553.499 522.341 553.079 521.921 552.658 521.535L552.728 521.465Z" fill="#263238"/>
<path d="M650.95 809.334C647.868 812.493 644.339 815.184 640.477 817.32C638.497 818.389 635.59 819.65 633.541 818.161C630.546 815.972 631.789 809.404 633.225 800.331C634.959 790.576 637.078 778.438 634.224 769.628C633.751 768.245 633.015 766.563 631.947 766.441C628.619 766.055 621.963 776.879 616.639 785.602C608.863 798.282 601.524 810.244 595.289 808.213C583.362 804.307 593.765 749.487 595.972 738.558C596.003 738.398 596.065 738.246 596.155 738.11C596.245 737.974 596.361 737.857 596.496 737.766C596.631 737.675 596.782 737.611 596.942 737.579C597.101 737.546 597.266 737.546 597.426 737.577C597.585 737.608 597.738 737.67 597.873 737.76C598.009 737.85 598.126 737.966 598.217 738.1C598.308 738.235 598.372 738.387 598.404 738.547C598.437 738.706 598.437 738.871 598.406 739.03C593.467 763.551 588.458 803.379 596.077 805.848C600.438 807.302 608.25 794.551 614.502 784.305C621.386 773.079 627.323 763.393 632.227 763.989C634.154 764.199 635.572 765.793 636.571 768.858C639.636 778.263 637.429 790.733 635.677 800.752C634.434 807.74 633.173 814.956 634.924 816.217C635.257 816.55 636.378 816.725 639.233 815.201C654.891 806.829 668.569 782.362 664.961 769.331C664.915 769.174 664.9 769.01 664.918 768.848C664.936 768.686 664.986 768.529 665.066 768.386C665.147 768.244 665.255 768.12 665.384 768.02C665.513 767.92 665.662 767.848 665.82 767.807C666.136 767.719 666.473 767.76 666.759 767.921C667.045 768.082 667.255 768.35 667.343 768.665C670.514 779.717 662.58 797.704 650.95 809.334Z" fill="#263238"/>
<path d="M692.967 780.172C692.888 780.301 692.78 780.409 692.652 780.488C692.319 780.645 658.219 795.27 626.553 790.716C612.436 788.684 597.899 775.128 587.705 754.461C578.23 735.247 575.13 715.578 580.156 706.594C580.322 706.309 580.592 706.1 580.91 706.012C581.227 705.923 581.566 705.962 581.855 706.121C582.137 706.284 582.343 706.553 582.428 706.868C582.514 707.183 582.471 707.518 582.311 707.802C577.687 715.929 580.927 735.142 589.93 753.357C599.755 773.306 613.574 786.355 626.903 788.264C657.868 792.713 691.339 778.368 691.654 778.228C691.803 778.16 691.964 778.123 692.128 778.119C692.292 778.115 692.454 778.144 692.607 778.205C692.759 778.265 692.897 778.356 693.013 778.471C693.129 778.587 693.221 778.725 693.283 778.876C693.366 779.099 693.38 779.342 693.324 779.573C693.268 779.804 693.144 780.013 692.967 780.172Z" fill="#263238"/>
<path d="M593.313 807.775C591.273 810.006 588.733 811.722 585.902 812.781C583.07 813.841 580.028 814.214 577.024 813.87C562.33 812.206 547.075 794.113 537.914 775.916C532.552 780.97 528.071 786.883 524.656 793.412C518.964 804.289 515.899 813.449 515.584 820.665C515.549 820.979 515.397 821.268 515.156 821.473C514.916 821.678 514.607 821.783 514.291 821.767C513.976 821.752 513.678 821.616 513.46 821.388C513.241 821.161 513.117 820.858 513.114 820.542C513.464 812.871 516.512 803.623 522.449 792.256C526.132 785.327 530.971 779.078 536.758 773.779C533.708 767.582 531.449 761.027 530.033 754.268C529.388 750.602 528.535 746.976 527.476 743.409C523.485 747.216 518.959 750.42 514.042 752.919C501.432 759.399 489.487 759.084 481.325 752.008C475.055 746.613 472.323 738.066 474.634 731.306C476.578 725.614 481.798 722.111 488.944 721.725C510.714 720.587 521.923 721.918 528.456 738.82C529.774 737.352 530.997 735.802 532.117 734.179C526.19 730.85 520.615 726.93 515.478 722.479C501.694 710.586 491.378 695.611 488.19 684.332C485.343 680.925 482.678 677.37 480.204 673.683C458.941 641.912 461.095 626.552 466.63 619.231C470.027 614.782 475.72 611.962 483.128 610.824C479.748 599.737 479.012 585.305 482.252 566.162C485.667 545.933 490.817 533.883 497.595 530.222C497.752 524.53 498.173 518.4 498.908 511.815C500.502 497.505 505.021 488.853 512.324 486.068C517.582 484.501 523.244 485.048 528.105 487.592C526.791 484.387 525.6 481.165 524.514 477.907C519.785 463.755 520.416 453.982 526.388 448.85C532.36 443.719 542.957 444.051 554.394 446.941C552.187 433.946 553.553 421.02 558.86 410.949C564.166 400.878 575.253 389.161 599.038 389.687C607.835 389.646 616.314 392.973 622.735 398.987C628.812 383.487 638.217 368.932 650.495 359.948C660.723 352.416 667.309 356.024 671.057 360.403C675.523 365.605 678.326 374.958 679.569 385.799C682.214 383.154 685.174 380.58 688.204 377.83C722.234 346.917 744.04 334.605 754.846 340.227C765.653 345.849 762.973 368.32 760.714 386.308L760.136 390.949C766.074 390.43 772.05 390.536 777.965 391.264C798.545 393.909 811.961 403.962 815.762 419.533C817.098 424.852 817.512 430.362 816.988 435.821C820.211 432.914 823.959 429.796 828.145 426.521C848.426 410.758 862.175 405.521 869.058 410.933C872.299 413.508 873.735 418.377 873.402 425.085C879.682 423.246 886.308 422.922 892.738 424.14C898.518 425.576 905.261 429.832 904.56 442.022C902.319 480.028 855.906 505.284 853.926 506.352C853.633 506.501 853.293 506.529 852.979 506.431C852.665 506.333 852.402 506.116 852.245 505.827C852.094 505.538 852.063 505.202 852.158 504.891C852.253 504.579 852.466 504.318 852.753 504.163C853.226 503.9 899.937 478.487 902.091 441.864C902.581 433.457 899.236 428.291 892.125 426.539C885.812 425.392 879.315 425.794 873.192 427.712C871.516 438.615 868.204 449.202 863.366 459.116C856.799 473.565 846.395 482.813 835.554 483.846C832.9 484.233 830.19 483.911 827.701 482.911C825.212 481.911 823.033 480.27 821.384 478.154C818.074 473.547 817.986 467.19 821.086 460.342C826.971 447.451 850.248 431.706 870.845 425.786C871.3 419.551 870.214 415.032 867.482 412.895C861.807 408.411 848.356 413.946 829.633 428.5C823.994 432.914 819.65 436.662 816.375 439.762C814.396 448.747 809.614 453.774 807.075 454.772C806.579 455.061 805.991 455.147 805.433 455.013C804.876 454.879 804.391 454.536 804.08 454.054C802.661 451.584 806.427 445.892 814.081 438.554C815.225 432.395 815.022 426.061 813.485 419.988C808.721 400.407 789.052 395.065 777.755 393.611C771.851 392.876 765.885 392.782 759.961 393.331C759.537 396.567 759.286 399.824 759.207 403.086C759.225 416.135 745.704 425.838 734.109 430.181C722.988 434.297 713.337 434.139 709.449 429.691C707.558 427.554 706.156 423.385 710.237 415.837C717.12 403.034 736.614 393.453 757.701 391.106L758.349 385.905C760.503 368.688 763.236 347.25 753.778 342.346C744.32 337.442 722.707 349.807 689.938 379.564C686.4 382.787 683.072 385.869 679.99 388.812C682.004 411.318 677.573 438.588 667.765 448.396C660.199 455.962 647.238 460.481 639.444 458.256C638.19 457.902 637.01 457.326 635.959 456.557C635.221 460.319 633.196 463.707 630.231 466.138C629.06 466.851 627.679 467.14 626.32 466.955C624.962 466.77 623.708 466.122 622.77 465.122C617.025 460.148 614.258 449.604 614.766 435.68C615.384 423.973 617.775 412.428 621.859 401.439C618.876 398.443 615.327 396.069 611.418 394.458C607.509 392.846 603.318 392.028 599.09 392.051C576.567 391.561 566.023 402.63 561.154 411.983C555.97 421.931 554.761 434.734 557.108 447.554C569.112 451.222 580.746 456.007 591.857 461.846C604.468 468.327 611.246 476.401 610.475 483.967C610.06 486.547 608.867 488.938 607.054 490.819C605.241 492.701 602.897 493.983 600.334 494.493C592.225 496.683 578.879 494.056 568.09 479.203C561.651 470.338 557.184 460.198 554.989 449.463C542.239 446.101 532.938 446.398 528.069 450.567C523.2 454.735 522.552 463.86 526.931 476.996C528.297 481.094 529.839 485.158 531.52 489.116C537.262 492.353 542.605 496.25 547.441 500.728C565.043 516.719 582.277 541.87 580.403 548.753C580.262 549.654 579.802 550.474 579.108 551.065C578.415 551.656 577.532 551.979 576.62 551.976C567.863 552.221 543.868 523.742 529.663 491.008C523.201 487.662 517.613 486.699 513.305 488.31C506.93 490.727 502.936 498.679 501.465 512.025C500.782 518.172 500.397 523.882 500.222 529.207C501.308 528.964 502.425 528.899 503.532 529.014C521.8 531.063 540.786 582.836 539.91 598.144C539.647 603.135 537.458 604.099 535.794 604.186C528.543 604.186 520.784 600.14 514.479 593.099C506.212 583.852 497.315 566.162 497.665 533.13C492.2 537.193 487.857 548.507 484.827 566.495C481.622 585.428 482.445 599.597 485.913 610.421C496.194 609.423 509.33 611.314 523.972 616.219C540.033 621.561 553.659 640.476 562.662 661.914C566.811 665.203 569.884 669.654 571.489 674.7C573.525 680.678 573.702 687.132 571.997 693.212C574.502 706.891 574.677 719.502 571.997 728.241C568.267 739.923 559.685 744.372 547.775 740.764C543.213 739.355 538.792 737.525 534.569 735.299C533.105 737.474 531.465 739.524 529.665 741.429C530.953 745.479 531.971 749.61 532.712 753.795C534.028 760.121 536.128 766.257 538.965 772.062C556.935 756.685 581 751.045 595.537 757.876C607.394 763.533 609.986 776.494 602.63 793.413C600.446 798.738 597.286 803.609 593.313 807.775ZM539.859 774.182C548.703 791.994 563.678 809.911 577.287 811.4C586.535 812.451 594.241 806.041 600.231 792.309C607.079 776.564 604.995 765.057 594.346 759.978C581.683 754.005 557.811 758.436 539.859 774.182ZM830.492 451.812C827.59 454.546 825.195 457.772 823.416 461.34C820.649 467.4 820.649 472.864 823.416 476.753C824.809 478.517 826.646 479.878 828.739 480.697C830.832 481.516 833.106 481.762 835.326 481.412C845.292 480.413 854.942 471.709 861.09 458.135C865.626 448.75 868.822 438.775 870.582 428.501C855.702 433.207 842.063 441.184 830.667 451.847L830.492 451.812ZM535.707 733.25C539.732 735.359 543.941 737.095 548.283 738.435C559.037 741.692 566.165 738.067 569.423 727.523C571.997 719.589 571.962 709.046 570.141 697.486C567.317 702.81 562.809 707.048 557.32 709.536C552.504 711.805 547.265 713.035 541.942 713.144C541.571 720.232 539.46 727.119 535.795 733.198L535.707 733.25ZM479.696 727.856C478.526 729.03 477.64 730.455 477.104 732.024C476.24 735.291 476.34 738.738 477.394 741.949C478.448 745.16 480.409 747.997 483.041 750.116C490.415 756.474 501.344 756.684 513.026 750.677C518.046 748.113 522.641 744.794 526.652 740.834C520.75 724.248 510.784 723.074 489.084 724.283C485.623 724.287 482.284 725.558 479.696 727.856ZM542.065 710.534C546.996 710.482 551.858 709.371 556.322 707.276C559.376 705.909 562.114 703.924 564.362 701.446C566.611 698.968 568.322 696.052 569.387 692.88C567.336 682.721 564.255 672.797 560.192 663.263C553.537 658.078 544.114 654.821 533.92 651.318C514.111 644.504 492.499 637.078 484.004 613.101C477.086 614.099 471.814 616.639 468.731 620.702C461.41 630.3 466.139 648.13 482.358 672.265C483.987 674.664 485.633 676.941 487.315 679.078C487.024 676.654 487.457 674.198 488.558 672.019C490.537 668.534 495.564 665.294 508.472 669.62C528.106 676.188 540.629 690.498 541.977 707.924C542.012 708.73 542.047 709.641 542.065 710.534ZM492.692 689.184C498.53 701.317 506.89 712.064 517.212 720.71C522.287 725.117 527.798 728.996 533.658 732.287C537.157 726.557 539.196 720.056 539.595 713.354C525.234 712.758 508.35 705.682 492.709 689.166L492.692 689.184ZM806.462 452.477C807.61 451.808 808.606 450.908 809.387 449.833C810.873 447.918 812.044 445.777 812.855 443.493C808.213 448.309 806.742 451.251 806.409 452.39L806.462 452.477ZM564.869 667.729C567.188 673.956 569.101 680.327 570.596 686.802C570.788 683.012 570.283 679.219 569.107 675.61C568.202 672.703 566.745 669.997 564.816 667.641L564.869 667.729ZM490.537 683.001C506.37 701.566 524.445 710.114 539.63 710.622C539.63 709.781 539.595 708.94 539.525 708.1C538.334 691.776 526.354 678.185 507.701 671.967C501.501 669.9 493.69 668.464 490.782 673.298C489.496 676.356 489.39 679.782 490.485 682.913L490.537 683.001ZM486.859 612.768C495.353 635.274 515.933 642.438 534.901 648.971C543.105 651.422 551.016 654.764 558.493 658.937C549.543 639.478 536.88 623.067 523.341 618.565C509.102 613.854 496.509 611.945 486.719 612.768L486.859 612.768ZM717.576 410.285C715.578 412.245 713.879 414.487 712.532 416.94C710.64 420.408 708.941 425.154 711.411 428.009C714.528 431.547 723.548 431.46 733.339 427.799C744.18 423.718 756.843 414.804 756.843 403.034C756.895 399.86 757.117 396.691 757.509 393.541C741.185 395.397 726.088 401.632 717.436 410.285L717.576 410.285ZM500.327 531.799C499.767 566.863 509.768 583.974 516.476 591.453C524.743 600.701 532.852 601.699 535.934 601.699C537.195 601.699 537.511 599.387 537.581 597.986C538.491 581.768 519.26 533.253 503.392 531.466C502.312 531.335 501.217 531.449 500.187 531.799L500.327 531.799ZM533.412 493.039C547.651 524.548 569.754 549.699 576.69 549.524C577.216 549.489 577.759 549.331 578.039 548.175C579.405 543.306 564.255 519.399 545.794 502.62C541.919 499.054 537.727 495.847 533.271 493.039L533.412 493.039ZM636.747 453.737C637.68 454.746 638.884 455.464 640.215 455.804C647.133 457.783 659.235 453.457 666.066 446.627C674.998 437.694 679.131 412.334 677.695 391.036C653.105 414.68 642.456 429.778 637.955 439.043C638.076 443.977 637.623 448.908 636.607 453.738L636.747 453.737ZM557.809 450.287C559.977 460.187 564.137 469.542 570.034 477.784C580.228 491.481 592.26 494.091 599.634 492.147C601.719 491.789 603.643 490.794 605.139 489.297C606.635 487.801 607.631 485.878 607.988 483.792C608.654 477.277 602.383 470.096 590.719 464.106C580.15 458.494 569.087 453.868 557.669 450.287L557.809 450.287ZM623.856 403.471C620.123 413.838 617.928 424.695 617.341 435.698C616.815 448.763 619.407 458.782 624.504 463.178C626.939 465.297 628.497 464.299 629.023 463.983C631.16 462.617 632.911 459.079 634.084 454.263C633.574 453.452 633.212 452.556 633.016 451.618C632.298 448.623 632.753 444.35 635.521 438.29C635.362 432.666 634.539 427.081 633.068 421.651C631.29 414.991 628.101 408.79 623.716 403.471L623.856 403.471ZM624.766 400.879C629.805 406.706 633.431 413.616 635.363 421.073C636.525 425.319 637.293 429.664 637.657 434.051C643.525 423.63 655.364 408.848 677.397 387.866C676.329 376.744 673.684 367.059 669.306 361.944C664.927 356.83 659.095 356.778 652.089 361.892C639.846 370.771 630.616 385.326 624.714 400.791L624.766 400.879Z" fill="#263238"/>
<path d="M865.434 528.298C865.334 528.428 865.209 528.537 865.067 528.618C864.925 528.7 864.768 528.753 864.605 528.774C864.443 528.796 864.277 528.784 864.119 528.742C863.961 528.699 863.812 528.626 863.682 528.525C863.552 528.425 863.443 528.301 863.362 528.159C863.28 528.016 863.227 527.86 863.206 527.697C863.185 527.534 863.196 527.369 863.238 527.211C863.281 527.052 863.355 526.904 863.455 526.774C863.682 526.371 879.568 497.735 882.125 467.61C871.934 461.881 862.406 455.044 853.716 447.223C849.781 443.832 846.89 439.393 845.38 434.422C843.87 429.452 843.803 424.155 845.186 419.148C846.815 413.771 850.651 410.18 855.047 409.602C861.878 408.797 869.566 414.909 876.712 426.784C883.858 438.659 885.803 452.723 884.769 466.367C893.719 471.008 903.247 474.091 911.461 472.742C914.469 472.248 917.319 471.054 919.78 469.256C922.241 467.458 924.245 465.106 925.631 462.391C930.377 454.142 922.916 438.414 906.294 421.512C878.726 393.454 836.657 371.806 814.045 384.153C803.744 390.075 795.245 398.683 789.455 409.059C799.701 418.85 805.849 430.812 806.567 441.303C807.285 451.794 802.609 459.063 793.834 461.988C786.811 464.317 781.399 462.023 778.579 455.525C774.078 445.174 776.915 426.258 786.198 409.374C776.871 401.058 765.459 395.434 753.183 393.103C733.339 389.337 718.329 396.115 708.661 405.783C709.589 424.016 708.363 440.164 704.44 444.753C702.724 446.75 700.482 446.82 698.275 444.963C692.285 439.884 691.882 428.902 697.259 417.64C699.544 412.903 702.558 408.553 706.192 404.75C704.773 380.107 699.536 351.856 691.602 344.973C679.849 334.797 655.96 327.511 643.927 333.728C637.675 336.969 634.977 343.379 635.888 352.802C637.232 363.986 639.238 375.08 641.896 386.027C644.557 386.969 647.064 388.296 649.339 389.967C661.337 398.987 667.397 417.658 668.133 447.292C668.325 456.137 667.485 459.64 665.103 459.78C659.323 460.13 647.448 420.583 639.934 387.988C632.821 386.177 625.345 386.377 618.339 388.566C596.428 394.398 585.674 400.703 583.45 408.988C582.049 413.892 583.941 419.777 589.02 426.607C595.369 430.31 601.408 434.522 607.077 439.2C633.84 461.199 633.384 463.44 633.192 464.404C633.132 464.669 632.998 464.912 632.806 465.104C632.614 465.296 632.371 465.43 632.106 465.49C628.883 466.47 609.407 451.583 594.887 437.063C592.255 434.46 589.804 431.68 587.549 428.744C562.468 414.522 538.928 413.541 527.842 422.281C518.839 429.392 518.174 442.072 525.95 458.01C531.646 469.651 538.027 480.945 545.059 491.831C549.524 492.385 553.778 494.056 557.427 496.688C561.075 499.321 564.002 502.831 565.936 506.893C572.942 521.29 571.839 523.305 570.21 524.128C566.76 525.792 555.48 512.41 543.693 494.108C537.661 493.4 531.553 493.696 525.618 494.983C501.868 499.642 479.818 515.037 479.485 520.309C479.467 520.642 479.432 521.272 480.886 521.71C487.419 523.9 498.786 521.15 509.767 518.47C522.027 515.493 533.587 512.691 538.421 516.929C539.355 517.856 540.043 519.001 540.423 520.261C540.802 521.522 540.86 522.857 540.593 524.145C539.612 532.972 526.599 542.973 511.484 554.585C491.342 570.033 466.314 589.246 465.036 610.736C464.563 618.565 465.597 623.276 468.136 625.151C471.709 627.778 478.802 624.993 487.174 621.91C497.841 617.83 511.134 612.768 524.095 616.131C527.983 617.147 530.172 618.706 530.575 621.14C531.819 627.358 520.084 636.185 505.232 647.394C486.369 661.598 462.865 679.253 470.396 691.093C478.295 703.475 501.029 693.702 523.184 684.087C542.801 675.68 561.418 667.606 571.121 674.052C580.825 680.497 568.057 713.722 554.746 748.786C543.782 777.895 531.364 810.874 537.915 816.269C539.929 817.933 544.378 816.812 550.648 812.854C585.572 791.311 600.616 772.588 607.85 763.603C612.018 758.454 613.91 756.107 616.257 757.263C616.404 757.334 616.535 757.434 616.643 757.557C616.75 757.68 616.832 757.824 616.883 757.979C616.933 758.135 616.952 758.299 616.938 758.462C616.924 758.624 616.877 758.783 616.8 758.927C616.654 759.218 616.4 759.44 616.091 759.545C615.783 759.65 615.446 759.629 615.153 759.487C614.4 759.435 612.053 762.342 609.794 765.162C602.455 774.252 587.218 793.203 551.944 814.955C544.43 819.597 539.299 820.595 536.339 818.16C528.422 811.645 539.561 782.116 552.434 747.91C564.186 716.752 577.479 681.425 569.493 676.101C560.911 670.391 542.1 678.518 523.903 686.346C500.889 696.294 477.069 706.558 468.049 692.389C459.309 678.675 482.778 660.985 503.48 645.397C515.933 635.992 528.806 626.307 527.878 621.595C527.615 620.282 526.056 619.248 523.219 618.513C511.029 615.36 498.138 620.264 487.787 624.205C478.452 627.76 471.009 630.475 466.402 627.13C463.092 624.695 461.778 619.423 462.304 610.561C463.617 587.95 489.171 568.351 509.733 552.623C524.41 541.449 537.002 531.694 537.878 523.917C538.084 523.024 538.067 522.093 537.829 521.207C537.591 520.322 537.138 519.508 536.512 518.838C532.676 515.458 521.187 518.225 510.1 520.94C499.014 523.654 487.034 526.492 479.853 524.11C478.949 523.941 478.138 523.446 477.573 522.72C477.008 521.994 476.729 521.087 476.788 520.169C477.278 512.498 501.623 497.155 524.882 492.566C530.419 491.409 536.088 491.02 541.731 491.411C535.07 480.984 528.972 470.209 523.463 459.131C512.219 436.082 520.276 424.943 526.055 420.389C537.072 411.685 559.315 411.334 584.203 424.208C580.735 418.358 579.667 413.156 580.911 408.48C583.398 399.232 594.712 392.402 617.586 386.307C624.596 384.176 632.034 383.863 639.199 385.396C636.657 374.78 634.693 364.033 633.314 353.204C632.052 340.069 637.71 334.236 642.684 331.679C656.94 324.428 682.021 333.641 693.108 343.256C701.235 350.297 706.699 377.865 708.346 402.666C718.557 393.26 733.794 386.955 753.621 390.739C766.244 393.097 777.995 398.822 787.634 407.307C793.649 396.756 802.39 388.015 812.942 381.999C839.038 367.813 884.349 395.573 908.203 419.849C925.893 437.818 933.319 454.282 927.925 463.67C926.368 466.703 924.122 469.33 921.366 471.337C918.61 473.345 915.422 474.678 912.057 475.229C903.615 476.665 893.842 473.618 884.787 468.976C882.055 498.751 866.73 526.336 865.766 528.035C865.68 528.15 865.565 528.24 865.434 528.298ZM850.633 414.366C849.173 415.922 848.099 417.8 847.498 419.848C846.32 424.4 846.435 429.19 847.83 433.679C849.226 438.169 851.847 442.18 855.397 445.262C863.667 452.715 872.702 459.273 882.352 464.826C883.07 451.987 881.249 438.992 874.611 427.94C865.713 413.123 858.743 411.546 855.467 412.054C853.635 412.234 851.924 413.053 850.633 414.366ZM788.247 411.213C779.56 427.221 776.757 445.016 780.873 454.491C783.185 459.816 787.284 461.532 793.134 459.746C800.857 457.171 804.763 450.708 804.238 441.636C803.467 431.618 797.775 420.461 788.247 411.213ZM706.367 408.358C703.609 411.509 701.282 415.014 699.449 418.779C694.562 429.025 694.72 438.815 699.834 443.124C701.305 444.385 701.971 443.86 702.549 443.212C705.964 439.271 707.102 424.962 706.367 408.358ZM642.509 389.127C649.725 420.022 660.532 454.894 664.753 457.398C665.068 456.873 665.716 454.859 665.488 447.625C664.787 419.182 658.797 400.546 647.711 392.227C646.108 390.987 644.362 389.946 642.509 389.127ZM594.064 432.912C594.905 433.753 595.816 434.664 596.639 435.487C606.39 445.442 617.182 454.32 628.83 461.969C621.467 454.58 613.659 447.649 605.448 441.214C601.822 438.233 598.046 435.439 594.134 432.842L594.064 432.912ZM546.775 494.843C557.091 510.449 565.954 520.747 568.774 521.886C568.774 520.905 568.178 517.787 563.554 508.084C561.984 504.727 559.659 501.779 556.761 499.47C553.862 497.16 550.468 495.553 546.845 494.773L546.775 494.843Z" fill="#263238"/>
<path d="M494.07 326.056C490.567 329.559 486.364 333.202 481.828 337.177C474.153 343.656 466.822 350.531 459.865 357.774C450.862 367.407 440.581 371.803 429.302 370.822C414.66 369.596 399.212 358.877 388.213 342.344C386.069 339.381 384.552 336.013 383.754 332.444C382.956 328.876 382.894 325.182 383.572 321.589C386.251 308.401 398.564 299.591 400.368 298.312C402.763 294.922 405.435 291.735 408.354 288.784C409.624 287.366 410.816 285.881 411.927 284.336C418.933 275.193 433.522 256.155 456.169 250.813C465.837 248.537 475.645 251.059 484.507 258.135C497.047 268.083 506.523 286.456 506.523 300.923C506.681 310.923 501.724 318.402 494.07 326.056ZM462.527 351.469C468.744 345.251 474.769 340.032 480.199 335.303C494.123 323.166 504.176 314.409 504.158 300.835C504.158 289.135 496.767 270.85 483.071 260.026C479.517 256.948 475.301 254.73 470.751 253.545C466.2 252.361 461.438 252.241 456.834 253.195C435.029 258.327 420.807 276.892 413.994 285.807C412.806 287.439 411.532 289.006 410.176 290.501C407.294 293.409 404.663 296.555 402.312 299.906C402.233 300.055 402.111 300.177 401.962 300.256C401.839 300.379 388.651 309.154 386.024 322.114C385.414 325.387 385.479 328.749 386.214 331.995C386.949 335.242 388.338 338.304 390.297 340.995C400.964 356.986 415.623 367.232 429.512 368.335C439.951 369.211 449.531 365.06 458.026 356.04C459.584 354.517 461.073 352.958 462.544 351.487L462.527 351.469Z" fill="#263238"/>
<path d="M441.072 320.346C441.008 320.444 440.924 320.527 440.826 320.591L419.476 332.238C419.335 332.32 419.178 332.372 419.015 332.391C418.853 332.411 418.688 332.397 418.531 332.351C418.374 332.306 418.228 332.228 418.101 332.125C417.975 332.021 417.871 331.893 417.795 331.748C417.643 331.458 417.61 331.122 417.701 330.808C417.793 330.495 418.002 330.229 418.285 330.066L439.635 318.419C439.78 318.339 439.939 318.288 440.103 318.271C440.267 318.253 440.434 318.268 440.592 318.315C440.75 318.363 440.897 318.441 441.025 318.546C441.152 318.651 441.258 318.781 441.334 318.927C441.444 319.162 441.478 319.424 441.431 319.679C441.384 319.933 441.258 320.167 441.072 320.346Z" fill="#263238"/>
<path d="M441.072 313.235C440.961 313.35 440.827 313.442 440.68 313.505C440.533 313.568 440.374 313.602 440.214 313.603L415.344 313.953C415.174 313.968 415.002 313.947 414.841 313.892C414.679 313.837 414.531 313.749 414.405 313.634C414.279 313.519 414.178 313.379 414.108 313.223C414.039 313.067 414.003 312.899 414.001 312.728C414 312.557 414.034 312.388 414.101 312.231C414.169 312.075 414.268 311.933 414.392 311.816C414.516 311.7 414.663 311.61 414.824 311.553C414.985 311.495 415.156 311.472 415.326 311.484L440.197 311.134C440.444 311.129 440.687 311.199 440.895 311.334C441.102 311.469 441.265 311.663 441.361 311.891C441.457 312.119 441.482 312.371 441.434 312.613C441.386 312.856 441.266 313.079 441.09 313.253L441.072 313.235Z" fill="#263238"/>
<path d="M458.869 305.809C458.641 306.028 458.339 306.152 458.023 306.155C457.707 306.159 457.402 306.041 457.17 305.827C457.049 305.72 456.95 305.59 456.88 305.444C456.81 305.298 456.769 305.14 456.761 304.978C456.753 304.817 456.777 304.655 456.832 304.503C456.888 304.351 456.973 304.212 457.082 304.093L470.674 289.206C470.9 288.97 471.209 288.831 471.535 288.817C471.862 288.804 472.181 288.918 472.425 289.136C472.545 289.246 472.642 289.379 472.71 289.527C472.778 289.674 472.817 289.834 472.823 289.997C472.83 290.16 472.804 290.322 472.748 290.475C472.691 290.627 472.606 290.768 472.495 290.887L458.921 305.757L458.869 305.809Z" fill="#263238"/>
<path d="M452.492 304.583C452.362 304.717 452.202 304.819 452.026 304.88C451.849 304.941 451.661 304.959 451.476 304.934C451.314 304.92 451.157 304.874 451.013 304.798C450.869 304.722 450.742 304.619 450.639 304.493C450.536 304.367 450.459 304.222 450.414 304.066C450.368 303.91 450.354 303.746 450.373 303.585L453.297 276.735C453.311 276.573 453.357 276.416 453.433 276.272C453.509 276.128 453.612 276.001 453.738 275.898C453.864 275.795 454.009 275.719 454.165 275.673C454.321 275.627 454.485 275.613 454.646 275.632C454.974 275.668 455.276 275.831 455.485 276.086C455.695 276.342 455.796 276.669 455.767 276.998L452.842 303.848C452.822 304.128 452.697 304.391 452.492 304.583Z" fill="#263238"/>
<path d="M477.312 319.698C477.155 319.852 476.962 319.964 476.751 320.022C476.539 320.08 476.316 320.083 476.103 320.031C476.103 320.031 463.37 316.721 455.559 323.341C447.747 329.962 448.22 342.905 448.238 343.027C448.256 343.195 448.24 343.365 448.19 343.526C448.141 343.688 448.059 343.837 447.949 343.966C447.839 344.094 447.705 344.199 447.553 344.273C447.402 344.348 447.237 344.391 447.068 344.399C446.899 344.407 446.731 344.381 446.573 344.322C446.415 344.263 446.27 344.172 446.149 344.055C446.027 343.938 445.93 343.797 445.865 343.642C445.8 343.486 445.767 343.319 445.768 343.15C445.733 342.59 445.173 328.858 453.965 321.432C462.757 314.006 476.191 317.492 476.751 317.632C477.07 317.719 477.341 317.927 477.508 318.212C477.675 318.496 477.724 318.835 477.644 319.155C477.576 319.359 477.463 319.545 477.312 319.698Z" fill="#263238"/>
<path d="M473.754 276.665C473.593 276.829 473.39 276.945 473.168 277.001C472.945 277.057 472.711 277.049 472.493 276.98C472.337 276.932 472.192 276.853 472.068 276.748C471.943 276.643 471.841 276.513 471.767 276.368C471.694 276.222 471.65 276.064 471.64 275.901C471.629 275.738 471.651 275.575 471.704 275.421L473.316 270.552C473.696 269.274 473.768 267.924 473.528 266.612C473.287 265.3 472.741 264.064 471.932 263.003C471.827 262.878 471.748 262.733 471.7 262.577C471.651 262.422 471.633 262.258 471.648 262.095C471.663 261.932 471.709 261.774 471.785 261.63C471.861 261.485 471.964 261.357 472.09 261.252C472.215 261.147 472.36 261.068 472.516 261.02C472.671 260.971 472.835 260.953 472.998 260.968C473.161 260.983 473.319 261.029 473.463 261.105C473.608 261.181 473.736 261.284 473.841 261.41C474.923 262.792 475.656 264.414 475.979 266.14C476.302 267.865 476.206 269.643 475.698 271.323L474.069 276.174C474.01 276.363 473.901 276.533 473.754 276.665Z" fill="#263238"/>
<path d="M487.046 277.033C486.982 277.131 486.899 277.214 486.801 277.278C486.661 277.357 486.507 277.408 486.347 277.427C486.187 277.447 486.025 277.434 485.87 277.39C485.715 277.346 485.571 277.271 485.445 277.171C485.319 277.071 485.214 276.946 485.137 276.805C484.753 276.189 484.173 275.72 483.489 275.475C482.806 275.23 482.059 275.224 481.372 275.456C480.598 275.705 479.925 276.195 479.449 276.853C478.974 277.512 478.72 278.305 478.727 279.117C478.727 279.447 478.596 279.763 478.363 279.996C478.129 280.229 477.813 280.36 477.483 280.36C477.154 280.36 476.837 280.229 476.604 279.996C476.371 279.763 476.24 279.447 476.24 279.117C476.227 277.761 476.656 276.438 477.462 275.348C478.268 274.258 479.406 273.46 480.706 273.074C481.927 272.69 483.243 272.73 484.438 273.188C485.634 273.646 486.639 274.495 487.291 275.596C487.411 275.83 487.452 276.097 487.408 276.355C487.364 276.614 487.237 276.852 487.046 277.033Z" fill="#263238"/>
<path d="M489.919 270.868C489.728 271.054 489.482 271.174 489.218 271.212C488.954 271.25 488.684 271.203 488.448 271.078C487.517 270.578 486.695 269.895 486.033 269.07C485.371 268.246 484.882 267.297 484.595 266.279C484.548 265.954 484.633 265.624 484.83 265.361C485.027 265.098 485.321 264.924 485.646 264.878C485.971 264.831 486.301 264.916 486.564 265.113C486.827 265.31 487 265.604 487.047 265.929C487.501 267.216 488.437 268.277 489.657 268.889C489.941 269.054 490.15 269.325 490.239 269.642C490.327 269.959 490.288 270.299 490.129 270.588L489.919 270.868Z" fill="#263238"/>
<path d="M628.092 315.163C627.927 315.325 627.72 315.439 627.495 315.491C627.269 315.544 627.034 315.533 626.814 315.461C623.871 314.445 554.707 290.818 545.161 281.272C542.234 278.034 539.991 274.238 538.568 270.112C537.144 265.985 536.569 261.614 536.877 257.26C537.033 253.159 538.072 249.14 539.922 245.477C541.771 241.814 544.389 238.593 547.595 236.032C562.938 223.912 587.931 233.073 588.965 233.475C589.134 233.537 589.289 233.632 589.42 233.756L600.454 244.79C600.601 244.937 600.708 245.118 600.766 245.317C600.824 245.515 600.831 245.726 600.787 245.928C600.73 246.123 600.624 246.301 600.481 246.445C600.337 246.589 600.159 246.694 599.964 246.751L591.995 249.816L615.937 265.037C616.089 265.141 616.218 265.275 616.314 265.432C616.411 265.589 616.473 265.765 616.498 265.947C616.517 266.132 616.496 266.319 616.436 266.494C616.375 266.67 616.277 266.83 616.147 266.963L608.196 274.915L619.458 292.202C619.625 292.461 619.689 292.774 619.637 293.079C619.585 293.384 619.421 293.658 619.177 293.848L613.258 298.437L628.04 313.219C628.237 313.416 628.361 313.675 628.389 313.953C628.418 314.23 628.35 314.509 628.198 314.743L628.092 315.163ZM546.772 240.148C542.224 244.79 539.564 250.958 539.311 257.452C539.024 261.453 539.549 265.471 540.855 269.264C542.162 273.057 544.222 276.546 546.913 279.521C554.619 287.227 606.042 305.583 622.523 311.345L610.578 299.4C610.451 299.275 610.352 299.125 610.289 298.958C610.226 298.792 610.199 298.614 610.21 298.437C610.223 298.263 610.272 298.094 610.353 297.941C610.435 297.787 610.547 297.652 610.683 297.543L616.883 292.709L605.691 275.563C605.529 275.326 605.456 275.04 605.485 274.754C605.514 274.469 605.643 274.203 605.849 274.004L613.433 266.42L588.72 250.71C588.524 250.588 588.367 250.414 588.264 250.208C588.162 250.001 588.12 249.77 588.142 249.541C588.164 249.312 588.249 249.093 588.388 248.91C588.527 248.727 588.715 248.586 588.93 248.503L597.407 245.245L587.896 235.735C585.304 234.824 562.64 227.363 549.154 238.011C548.319 238.676 547.524 239.39 546.772 240.148Z" fill="#263238"/>
<path d="M642.21 319.927C642.063 320.072 641.882 320.18 641.685 320.242C641.447 320.312 641.194 320.307 640.96 320.229C640.725 320.151 640.519 320.003 640.371 319.804L625.396 300.1C625.257 299.928 625.168 299.721 625.14 299.501C625.112 299.282 625.147 299.058 625.239 298.857L628.882 290.835L619.862 278.838C619.67 278.575 619.582 278.251 619.616 277.927L621.876 260.605L610.754 253.932C610.54 253.803 610.37 253.611 610.266 253.383C610.163 253.154 610.132 252.9 610.176 252.654L611.647 243.826L596.339 228.519C596.172 228.353 596.056 228.142 596.007 227.912C595.957 227.682 595.975 227.443 596.059 227.223C597.696 223.283 600.137 219.729 603.225 216.785C606.313 213.842 609.981 211.575 613.994 210.129C619.362 208.012 625.112 207.038 630.878 207.267C636.644 207.496 642.298 208.924 647.482 211.46C669.743 222.196 659.9 258.031 652.036 278.435C647.16 291.544 643.982 305.223 642.578 319.139C642.551 319.436 642.421 319.715 642.21 319.927ZM627.866 299.242L640.494 315.864C642.051 302.818 645.143 290.002 649.706 277.682C657.237 258.066 666.835 223.703 646.361 213.842C641.493 211.45 636.179 210.1 630.759 209.88C625.339 209.66 619.933 210.574 614.887 212.563C611.35 213.853 608.102 215.827 605.328 218.372C602.555 220.917 600.309 223.984 598.721 227.398L613.907 242.583C614.044 242.725 614.148 242.897 614.208 243.085C614.269 243.273 614.286 243.473 614.257 243.669L612.733 252.198L623.82 258.871C624.026 258.991 624.192 259.171 624.295 259.387C624.398 259.602 624.434 259.844 624.398 260.08L622.174 277.717L631.334 289.925C631.464 290.105 631.545 290.316 631.57 290.537C631.594 290.758 631.561 290.981 631.474 291.186L627.866 299.242Z" fill="#263238"/>
<path d="M449.903 698.203C448.327 699.779 446.786 701.321 445.279 702.827L441.006 707.1C431.881 716.225 416.276 720.026 393.332 718.66C382.227 718.064 381.79 711.847 381.264 705.296C381.189 700.961 380.173 696.694 378.287 692.791C373.274 683.277 367.374 674.258 360.667 665.853C352.277 655.082 356.516 632.033 373.592 595.41C392.613 554.672 394.907 541.063 394.994 540.625C395.292 538.086 398.042 516.56 404.732 511.831C408.11 509.241 412.263 507.865 416.52 507.926C418.621 507.751 421.283 507.54 424.891 506.945C437.257 504.878 440.374 512.69 444.017 521.727C446.452 527.84 446.627 531.063 446.294 532.726L468.59 542.552C468.802 542.646 468.984 542.798 469.114 542.99C469.244 543.182 469.317 543.406 469.326 543.638C469.332 543.869 469.275 544.097 469.161 544.298C469.047 544.499 468.88 544.664 468.678 544.777L449.71 554.707L449.692 572.659C449.697 572.822 449.667 572.983 449.605 573.132C445.384 583.908 442.28 595.088 440.34 606.497C439.723 612.326 437.658 617.907 434.332 622.733C433.336 623.926 432.608 625.319 432.197 626.818C431.786 628.317 431.702 629.886 431.951 631.42C432.476 637.305 439.622 644.556 447.188 652.193C452.066 656.869 456.58 661.91 460.692 667.273C468.223 677.676 459.396 688.71 449.903 698.203ZM405.45 514.231C400.862 518.82 398.007 534.81 397.324 540.818C397.254 541.378 395.205 554.567 375.746 596.304C359.318 631.508 354.869 654.346 362.523 664.172C369.331 672.68 375.313 681.817 380.388 691.46C382.458 695.659 383.571 700.265 383.646 704.946C384.119 711.479 384.504 715.507 393.472 716.138C415.733 717.381 430.707 713.931 439.307 705.331L443.616 701.023C454.334 690.724 466.349 679.165 458.66 668.464C454.629 663.206 450.203 658.265 445.419 653.681C437.485 645.747 430.094 638.181 429.481 631.403C429.202 629.584 429.306 627.727 429.785 625.951C430.265 624.175 431.11 622.518 432.266 621.087C435.402 616.574 437.337 611.335 437.888 605.867C439.823 594.328 442.921 583.014 447.135 572.099L447.153 553.656C447.156 553.428 447.22 553.204 447.336 553.007C447.453 552.811 447.619 552.648 447.818 552.535L465.157 543.463L444.14 534.215C443.956 534.135 443.795 534.009 443.672 533.85C443.55 533.691 443.47 533.503 443.439 533.304C443.401 533.107 443.412 532.904 443.47 532.712C443.528 532.519 443.631 532.344 443.772 532.201C443.772 532.201 444.771 530.187 441.635 522.323C437.695 512.462 435.172 507.418 425.224 509.064C421.511 509.695 418.814 509.905 416.642 510.08C412.839 509.995 409.125 511.233 406.134 513.583C405.888 513.779 405.659 513.996 405.45 514.231Z" fill="#263238"/>
<path d="M410.04 677.991C409.958 678.106 409.857 678.207 409.742 678.289C409.445 678.428 409.104 678.444 408.796 678.332C408.487 678.221 408.235 677.991 408.096 677.694C407.658 676.8 397.709 655.853 394.907 639.985C392.823 628.058 397.762 616.323 401.387 607.758C402.542 605.304 403.52 602.769 404.312 600.175C406.134 592.924 406.151 576.337 406.151 576.162L406.169 575.9C407.237 571.328 409.671 558.385 408.971 554.917C408.939 554.756 408.938 554.59 408.97 554.429C409.002 554.268 409.065 554.115 409.156 553.979C409.247 553.842 409.365 553.725 409.501 553.633C409.637 553.542 409.791 553.478 409.952 553.446C410.113 553.414 410.278 553.414 410.439 553.446C410.6 553.477 410.754 553.541 410.89 553.632C411.027 553.723 411.144 553.84 411.236 553.976C411.327 554.113 411.391 554.266 411.423 554.427C412.351 559.103 409.128 574.026 408.708 576.232C408.691 577.966 408.603 593.432 406.799 600.7C405.983 603.399 404.983 606.038 403.804 608.599C400.284 616.883 395.432 628.25 397.482 639.442C400.214 654.995 410.355 676.31 410.46 676.52C410.574 676.776 410.595 677.063 410.518 677.332C410.441 677.602 410.272 677.835 410.04 677.991Z" fill="#263238"/>
<path d="M428.728 674.261L428.448 674.541C428.15 674.681 427.809 674.698 427.499 674.59C427.188 674.482 426.932 674.257 426.784 673.963C426.346 673.07 416.433 652.263 414.559 644.749C412.685 637.235 418.622 617.286 419.183 615.255L420.128 595.779L422.93 557.422C422.94 557.26 422.982 557.102 423.053 556.957C423.125 556.811 423.225 556.682 423.347 556.576C423.469 556.47 423.612 556.389 423.766 556.339C423.92 556.289 424.082 556.27 424.244 556.284C424.572 556.311 424.877 556.465 425.092 556.714C425.308 556.963 425.419 557.286 425.4 557.615L422.598 595.936L421.722 615.588L421.67 615.885C421.53 616.025 415.242 637.13 417.011 644.189C418.78 651.247 428.973 672.72 429.079 672.93C429.152 673.162 429.158 673.411 429.096 673.646C429.034 673.882 428.907 674.095 428.728 674.261Z" fill="#263238"/>
<path d="M329.561 622.627C327.247 624.883 324.476 626.615 321.435 627.706C307.283 633.066 297.247 625.307 288.385 618.476C284.927 615.577 281.156 613.074 277.14 611.015C271.355 608.813 265.264 607.519 259.083 607.179C250.536 606.233 242.462 605.34 239.239 599.84C234.965 592.589 239.642 582.273 246.718 566.651C248.662 562.359 250.886 557.473 253.198 552.114C259.836 536.403 254.441 530.658 248.696 524.563C245.776 521.797 243.395 518.513 241.673 514.878C238.188 506.418 248.241 494.473 259.923 480.585C266.689 472.884 272.954 464.759 278.681 456.257C290.818 437.114 290.731 432.823 290.626 432.227C290.45 432.018 290.341 431.763 290.31 431.492C288.734 413.101 303.201 385.534 318.999 376.847C334.797 368.16 350.332 377.74 363.748 386.322C367.843 389.084 372.114 391.577 376.534 393.783C383.231 396.931 390.115 399.663 397.148 401.963C405.328 404.678 410.74 406.482 412.421 410.545C414.102 414.608 412.946 419.372 411.808 423.944C411.042 426.587 410.567 429.306 410.389 432.053C410.337 434.662 414.383 438.568 421.686 442.964C422.407 443.389 422.972 444.033 423.3 444.802C423.628 445.571 423.7 446.424 423.508 447.238C423.341 448.116 422.894 448.917 422.234 449.52C421.575 450.123 420.737 450.496 419.847 450.583L394.732 453.49C392.98 456.433 384.451 470.322 379.459 473.702C375.133 476.627 371.122 481.093 370.895 493.826C370.842 495.805 370.86 497.784 370.86 499.816C371.357 513.952 369.274 528.059 364.712 541.448C362.038 550.677 357.522 559.268 351.437 566.704C347.811 571.199 344.692 576.08 342.136 581.258C339.606 587.248 338.051 593.605 337.53 600.086C336.304 608.773 335.201 616.988 329.561 622.627ZM292.535 431.124C292.654 431.292 292.737 431.483 292.78 431.684C293.918 435.73 286.807 448.165 280.607 457.868C274.808 466.451 268.479 474.664 261.657 482.459C250.535 495.647 240.937 507.066 243.932 514.195C245.544 517.563 247.765 520.603 250.483 523.162C256.49 529.555 262.726 536.175 255.387 553.287C253.128 558.594 250.921 563.498 248.924 567.842C242.164 582.729 237.698 592.589 241.306 598.755C243.898 603.168 251.377 604.026 259.293 604.902C265.727 605.258 272.067 606.611 278.086 608.913C282.284 611.06 286.227 613.675 289.838 616.707C298.578 623.45 307.633 630.439 320.489 625.57C332.136 621.139 333.467 611.33 335.008 599.981C335.572 593.22 337.228 586.596 339.912 580.365C342.532 575.036 345.733 570.014 349.457 565.39C355.376 558.159 359.773 549.807 362.383 540.835C366.857 527.7 368.898 513.859 368.408 499.991C368.39 497.942 368.39 495.945 368.425 493.949C368.635 482.88 371.508 476.259 378.093 471.81C383.102 468.413 392.84 452.019 392.945 451.844C393.039 451.679 393.17 451.54 393.328 451.436C393.487 451.332 393.668 451.268 393.856 451.249L419.672 448.201C420.035 448.151 420.372 447.983 420.631 447.724C420.89 447.465 421.058 447.128 421.108 446.765C421.188 446.456 421.164 446.13 421.041 445.836C420.917 445.542 420.701 445.296 420.425 445.136C412.001 440.215 407.867 435.731 407.937 432.053C408.144 429.143 408.672 426.264 409.514 423.471C410.599 419.092 411.58 415.029 410.249 411.631C408.918 408.233 404.014 406.972 396.448 404.415C389.242 402.145 382.182 399.437 375.308 396.306C370.786 394.052 366.416 391.507 362.224 388.687C349.404 380.49 334.832 371.172 320.014 379.299C305.197 387.425 291.291 413.837 292.535 431.124Z" fill="#263238"/>
<path d="M283.18 571.03C283.073 571.153 282.943 571.253 282.797 571.326C282.651 571.399 282.492 571.442 282.329 571.454C282.001 571.477 281.677 571.368 281.428 571.152C281.18 570.936 281.027 570.63 281.004 570.302C280.981 569.973 281.09 569.649 281.306 569.401C281.393 569.313 289.59 557.894 287.698 546.369C286.895 542.247 285.333 538.309 283.092 534.757C280.552 530.291 278.205 526.122 280.517 519.817C282.584 514.248 287.418 508.713 292.112 503.389C295.7 499.766 298.76 495.657 301.202 491.181C304.529 483.44 310.992 469.761 311.815 468.027L314.215 446.852C314.241 446.687 314.294 446.527 314.372 446.379L318.751 438.848C318.915 438.566 319.183 438.36 319.498 438.275C319.813 438.19 320.149 438.232 320.432 438.393C320.712 438.563 320.917 438.833 321.005 439.149C321.093 439.464 321.057 439.801 320.905 440.092L316.649 447.395L314.25 468.5C314.242 468.634 314.206 468.766 314.145 468.885C314.04 468.99 307.017 483.965 303.479 492.162C300.97 496.908 297.791 501.267 294.038 505.105C289.485 510.254 284.773 515.596 282.899 520.763C281.025 525.93 282.812 529.187 285.281 533.654C287.666 537.459 289.317 541.676 290.15 546.089C292.217 558.664 283.688 570.487 283.32 570.995L283.18 571.03Z" fill="#263238"/>
<path d="M300.854 580.19C300.692 580.352 300.489 580.467 300.267 580.522C300.045 580.578 299.812 580.572 299.593 580.505C299.282 580.395 299.026 580.171 298.876 579.877C298.726 579.584 298.694 579.245 298.787 578.929C298.962 578.754 306.966 553.516 304.181 544.285C301.099 534.197 302.71 518.014 310.521 508.591C318.333 499.168 329.297 478.606 328.806 471.986C328.246 464.595 329.349 455.014 334.008 450.355C334.243 450.129 334.557 450.003 334.884 450.003C335.21 450.003 335.524 450.129 335.759 450.355C335.992 450.588 336.122 450.903 336.122 451.231C336.122 451.56 335.992 451.875 335.759 452.107C331.661 456.205 330.785 465.278 331.276 471.793C331.854 479.587 320.119 500.92 312.43 510.185C305.074 519.047 303.638 534.144 306.476 543.637C309.453 553.621 301.432 578.701 301.081 579.752C301.036 579.912 300.959 580.061 300.854 580.19Z" fill="#263238"/>
<path d="M317.736 588.562C317.576 588.731 317.369 588.85 317.142 588.903C316.914 588.956 316.676 588.941 316.458 588.859C316.303 588.807 316.161 588.724 316.039 588.616C315.916 588.509 315.817 588.378 315.745 588.231C315.673 588.085 315.631 587.926 315.622 587.763C315.612 587.6 315.634 587.437 315.687 587.283C318.699 578.631 326.161 554.916 324.462 549.259L324.041 547.893C321.449 539.486 316.037 521.954 326.948 507.96L331.45 502.268C340.732 490.533 349.454 479.499 351.906 469.061C353.812 461.111 356.288 453.308 359.315 445.714C359.446 445.417 359.687 445.183 359.987 445.059C360.287 444.935 360.623 444.931 360.926 445.048C361.079 445.109 361.218 445.2 361.335 445.315C361.452 445.431 361.545 445.568 361.609 445.72C361.673 445.871 361.705 446.034 361.705 446.198C361.705 446.363 361.673 446.526 361.609 446.677C358.612 454.156 356.159 461.841 354.271 469.674C351.696 480.655 342.781 491.917 333.341 503.844L328.857 509.519C318.734 522.515 323.884 539.188 326.353 547.228L326.773 548.594C329.015 556.055 319.102 584.884 317.964 588.159C317.912 588.305 317.835 588.442 317.736 588.562Z" fill="#263238"/>
<path d="M349.298 686.398C349.153 686.547 348.972 686.656 348.772 686.713L318.28 695.698L323.412 709.412C323.476 709.589 323.501 709.779 323.482 709.967C323.464 710.155 323.404 710.336 323.307 710.498C323.2 710.655 323.06 710.787 322.896 710.884C322.733 710.981 322.55 711.041 322.361 711.058L294.635 713.808L296.317 725.613C296.367 725.904 296.307 726.204 296.148 726.453C295.99 726.702 295.744 726.883 295.459 726.961L255.281 739.116C255.129 739.168 254.968 739.188 254.809 739.177C254.649 739.165 254.493 739.121 254.351 739.047C254.208 738.973 254.082 738.872 253.98 738.748C253.878 738.625 253.802 738.482 253.757 738.328L247.206 718.712C247.153 718.558 247.131 718.395 247.141 718.232C247.151 718.069 247.193 717.91 247.264 717.764C247.336 717.617 247.436 717.486 247.558 717.379C247.68 717.271 247.823 717.188 247.977 717.136L274.914 708.098L268.801 689.69C268.74 689.504 268.723 689.307 268.753 689.113C268.782 688.919 268.857 688.735 268.972 688.576C269.086 688.417 269.237 688.288 269.411 688.198C269.586 688.109 269.779 688.062 269.975 688.062L305.004 688.062L295.949 674.068C295.813 673.864 295.744 673.624 295.75 673.379C295.757 673.135 295.838 672.898 295.984 672.702C296.125 672.494 296.327 672.333 296.561 672.243C296.796 672.152 297.053 672.135 297.297 672.194L348.685 684.349C348.951 684.414 349.189 684.563 349.362 684.775C349.536 684.987 349.636 685.249 349.648 685.522C349.649 685.849 349.523 686.162 349.298 686.398ZM292.411 711.759C292.611 711.564 292.87 711.441 293.147 711.409L320.522 708.764L315.478 695.313C315.423 695.153 315.401 694.984 315.413 694.815C315.425 694.647 315.471 694.483 315.548 694.332C315.606 694.171 315.699 694.025 315.82 693.904C315.941 693.782 316.087 693.69 316.248 693.631L343.571 685.68L299.714 675.311L308.332 688.622C308.448 688.81 308.512 689.025 308.517 689.245C308.523 689.466 308.469 689.684 308.362 689.877C308.255 690.07 308.098 690.23 307.908 690.342C307.718 690.454 307.501 690.514 307.281 690.514L271.604 690.531L277.611 708.519C277.712 708.83 277.688 709.168 277.544 709.462C277.401 709.756 277.148 709.983 276.841 710.095L249.974 719.027L255.753 736.331L293.76 724.842L292.148 712.722C292.123 712.556 292.132 712.387 292.174 712.224C292.216 712.061 292.291 711.909 292.394 711.776L292.411 711.759Z" fill="#263238"/>
<path d="M354.99 357.319C354.813 357.469 354.597 357.565 354.368 357.596C354.138 357.627 353.904 357.592 353.694 357.494L319.821 342.677C319.623 342.582 319.452 342.44 319.324 342.262C319.195 342.085 319.113 341.878 319.085 341.661C319.063 341.44 319.101 341.216 319.197 341.016C319.293 340.815 319.442 340.644 319.628 340.523L330.732 332.921L314.724 313.41C314.6 313.248 314.516 313.059 314.479 312.858C314.443 312.657 314.455 312.45 314.514 312.254C314.571 312.059 314.676 311.881 314.82 311.737C314.964 311.594 315.142 311.488 315.337 311.431L327.089 308.086L317.333 284.108C317.271 283.961 317.238 283.803 317.237 283.643C317.236 283.484 317.266 283.325 317.326 283.177C317.386 283.029 317.475 282.894 317.588 282.78C317.7 282.667 317.834 282.576 317.981 282.515L347.879 269.432C348.041 269.356 348.218 269.319 348.397 269.322C348.576 269.325 348.752 269.369 348.912 269.449C349.076 269.51 349.226 269.605 349.35 269.729C349.474 269.853 349.569 270.003 349.63 270.167L358.983 301.938C359.064 302.227 359.038 302.535 358.909 302.805C358.78 303.076 358.557 303.291 358.282 303.41L349.192 307.561L359.894 328.771C360.021 329.024 360.058 329.314 359.997 329.591C359.937 329.869 359.783 330.117 359.561 330.294L350.821 337.283L355.253 356.286C355.292 356.467 355.289 356.654 355.244 356.834C355.198 357.013 355.111 357.179 354.99 357.319ZM322.903 341.346L352.24 354.394L348.142 337.195C348.09 336.968 348.104 336.73 348.181 336.51C348.259 336.29 348.397 336.096 348.58 335.951L357.144 329.103L346.39 307.56C346.312 307.414 346.263 307.253 346.248 307.088C346.233 306.922 346.252 306.755 346.302 306.597C346.362 306.442 346.454 306.301 346.572 306.183C346.689 306.065 346.83 305.974 346.986 305.914L356.303 301.676L347.651 272.286L320.136 284.319L329.962 308.436C330.029 308.598 330.062 308.773 330.055 308.948C330.049 309.123 330.005 309.295 329.926 309.452C329.863 309.61 329.768 309.753 329.648 309.874C329.527 309.994 329.384 310.089 329.226 310.153L317.912 313.235L333.587 332.413C333.793 332.69 333.887 333.034 333.85 333.377C333.826 333.546 333.767 333.708 333.677 333.853C333.586 333.998 333.466 334.122 333.324 334.217L322.903 341.346Z" fill="#263238"/>
<path d="M219.832 646.009L207.572 658.269C207.346 658.495 207.041 658.625 206.721 658.632C206.401 658.638 206.091 658.521 205.856 658.304C204.385 656.833 190.758 644.432 192.667 637.094C192.93 636.025 193.35 634.799 193.771 633.468C196.082 626.427 199.235 616.83 190.233 611.155C184.067 607.267 178.2 606.128 174.995 608.037C173.983 608.773 173.201 609.781 172.739 610.943C172.277 612.106 172.155 613.376 172.385 614.605C172.788 617.76 173.774 620.813 175.293 623.607C177.447 628.179 179.461 632.47 175.451 637.461C174.823 638.431 173.948 639.215 172.917 639.735C171.886 640.256 170.736 640.492 169.583 640.421C166.045 639.896 163.961 635.535 163.611 634.449C162.28 632.592 148.828 612.661 159.81 599.122C166.851 590.47 180.407 588.193 190.898 589.577C199.638 590.821 205.943 594.569 208.167 599.841C213.177 611.33 211.46 627.128 211.162 629.983L220.042 644.467C220.193 644.708 220.255 644.995 220.217 645.276C220.178 645.558 220.042 645.817 219.832 646.009ZM206.749 655.589L217.38 644.958L208.78 630.929C208.615 630.688 208.547 630.394 208.588 630.106C208.693 630 210.935 612.696 205.89 600.751C204.016 596.355 198.254 593.115 190.53 591.976C181.125 590.628 168.094 592.764 161.736 600.628C151.543 613.169 165.52 632.89 165.66 633.1C165.737 633.15 165.803 633.216 165.853 633.293C166.325 634.431 168.024 637.496 170.074 637.794C171.183 637.946 172.374 637.245 173.647 635.692C176.712 631.962 175.24 628.844 173.191 624.518C171.545 621.453 170.482 618.11 170.056 614.658C169.76 612.968 169.962 611.229 170.637 609.653C171.311 608.076 172.43 606.73 173.857 605.778C177.955 603.291 184.628 604.464 191.721 608.93C202.353 615.639 198.692 626.76 196.275 634.116C195.872 635.395 195.487 636.586 195.207 637.602C193.981 642.26 202.458 651.473 206.784 655.554L206.749 655.589Z" fill="#263238"/>
<path d="M236.243 677.588L234.491 679.339C231.269 682.562 218.413 675.031 213.211 669.829C212.527 669.192 211.995 668.409 211.652 667.54C211.31 666.67 211.166 665.735 211.232 664.802C211.565 659.25 218.588 653.733 218.973 653.558L219.131 653.4C219.989 652.962 227.643 649.267 231.321 652.945C232.127 653.751 232.792 654.416 233.546 654.959C236.347 657.276 238.642 660.143 240.289 663.384C243.651 669.304 239.168 674.663 236.243 677.588ZM218.29 657.394C216.015 659.354 214.431 661.995 213.772 664.925C213.731 665.498 213.82 666.073 214.032 666.606C214.244 667.14 214.574 667.619 214.998 668.007C221.023 674.032 231.374 678.499 232.793 677.5L233.458 676.835C237.381 673.087 240.656 669.006 238.169 664.557C236.67 661.549 234.551 658.893 231.952 656.763C231.269 656.08 230.445 655.467 229.605 654.626C227.591 652.612 222.266 654.574 220.375 655.485C219.647 656.083 218.951 656.721 218.29 657.394Z" fill="#263238"/>
<path d="M465.667 792.641L453.494 804.814C453.271 805.037 452.971 805.168 452.655 805.177C452.339 805.187 452.032 805.076 451.795 804.866C450.324 803.395 436.715 790.977 438.607 783.656C438.887 782.57 439.272 781.344 439.728 780.013C442.022 772.99 445.175 763.357 436.172 757.682C430.025 753.811 424.14 752.655 420.935 754.599C419.922 755.326 419.139 756.328 418.676 757.485C418.214 758.642 418.092 759.908 418.325 761.132C418.74 764.293 419.731 767.35 421.25 770.152C423.387 774.706 425.418 779.015 421.408 784.006C420.789 784.981 419.92 785.772 418.891 786.296C417.861 786.82 416.71 787.057 415.558 786.984C412.002 786.441 409.936 782.097 409.48 781.116C408.149 779.225 394.698 759.328 405.679 745.79C412.703 737.155 426.259 734.843 436.768 736.244C445.507 737.488 451.795 741.219 454.037 746.508C458.959 758.12 457.33 773.831 456.997 776.72L465.877 791.205C466.001 791.435 466.048 791.699 466.01 791.958C465.972 792.217 465.852 792.456 465.667 792.641ZM452.584 802.221L463.232 791.573L454.615 777.561C454.476 777.311 454.42 777.022 454.457 776.738C454.545 776.65 456.804 759.329 451.743 747.366C449.886 742.988 444.106 739.73 436.4 738.609C426.995 737.26 413.964 739.397 407.589 747.243C397.378 759.801 411.372 779.505 411.512 779.715C411.593 779.76 411.66 779.827 411.705 779.908C412.195 781.064 413.894 784.129 415.926 784.409C417.012 784.584 418.238 783.884 419.499 782.342C422.564 778.612 421.11 775.477 419.061 771.151C417.41 768.081 416.341 764.731 415.908 761.272C415.623 759.588 415.829 757.857 416.499 756.286C417.17 754.715 418.278 753.37 419.691 752.41C423.824 749.923 430.497 751.097 437.573 755.545C448.205 762.253 444.562 773.393 442.145 780.749C441.742 782.027 441.339 783.201 441.076 784.234C439.798 788.91 448.292 798.141 452.584 802.221Z" fill="#263238"/>
<path d="M482.112 824.22L480.361 825.971C477.138 829.194 464.3 821.68 459.098 816.478C458.414 815.841 457.882 815.059 457.539 814.189C457.197 813.32 457.053 812.384 457.119 811.452C457.469 805.917 464.58 800.488 464.843 800.225L465.018 800.05C465.876 799.612 473.548 795.934 477.226 799.612C478.014 800.4 478.697 801.083 479.45 801.626C482.243 803.954 484.531 806.826 486.176 810.068C489.486 815.971 485.002 821.33 482.112 824.22ZM464.16 804.026C461.881 805.979 460.291 808.613 459.624 811.539C459.586 812.116 459.678 812.694 459.893 813.231C460.108 813.767 460.441 814.249 460.867 814.639C466.892 820.664 477.243 825.131 478.627 824.132L479.31 823.449C483.233 819.701 486.508 815.62 484.004 811.154C482.497 808.151 480.379 805.496 477.786 803.36C477.103 802.677 476.28 802.064 475.439 801.223C473.425 799.209 468.083 801.153 466.209 802.082C465.47 802.693 464.774 803.355 464.125 804.061L464.16 804.026Z" fill="#263238"/>
<path d="M496.731 191.58L489.007 199.304C488.786 199.525 488.487 199.653 488.174 199.66C487.86 199.666 487.557 199.551 487.326 199.339C485.68 197.867 477.57 190.249 478.814 185.432C479.014 184.644 479.253 183.866 479.532 183.103C481.371 177.516 482.474 172.629 477.465 169.476C473.7 167.112 470.127 166.306 468.27 167.497C467.71 167.931 467.28 168.509 467.027 169.17C466.774 169.831 466.707 170.549 466.834 171.245C467.094 173.19 467.705 175.071 468.638 176.797C470.004 179.705 471.405 182.682 468.656 186.028C468.216 186.707 467.603 187.256 466.878 187.616C466.154 187.977 465.346 188.136 464.54 188.077C463.586 187.786 462.712 187.279 461.987 186.595C461.261 185.912 460.702 185.07 460.354 184.136C459.338 182.7 450.843 170.002 458.007 161.192C462.56 155.587 471.405 154.029 478.183 155.027C483.875 155.85 488.009 158.302 489.498 161.823C492.65 169.179 491.67 178.847 491.337 181.001L496.889 190.056C497.033 190.292 497.096 190.569 497.067 190.844C497.039 191.12 496.921 191.378 496.731 191.58ZM488.114 196.694L494.297 190.511L488.937 181.859C488.798 181.609 488.743 181.32 488.78 181.036C488.78 181.036 490.251 170.107 487.081 162.663C485.977 160.019 482.457 158.04 477.71 157.356C471.861 156.551 463.804 157.812 459.846 162.681C453.558 170.405 462.263 182.612 462.368 182.717L462.56 182.91C462.893 183.698 463.892 185.362 464.872 185.502C465.853 185.642 466.239 184.942 466.729 184.346C468.41 182.279 467.78 180.668 466.361 177.708C465.301 175.712 464.613 173.54 464.329 171.298C464.131 170.14 464.27 168.95 464.729 167.869C465.189 166.788 465.95 165.863 466.921 165.203C469.724 163.521 474.015 164.24 478.726 167.2C485.767 171.648 483.298 179.197 481.809 183.698L481.126 185.887C480.618 188.357 484.646 193.366 488.114 196.694Z" fill="#263238"/>
<path d="M507.084 211.669L505.998 212.755C503.511 215.242 494.946 209.795 491.881 206.73C491.409 206.278 491.041 205.73 490.802 205.122C490.563 204.514 490.459 203.861 490.498 203.209C490.69 199.514 495.051 196.099 495.542 195.713C495.587 195.654 495.64 195.601 495.699 195.556C496.277 195.258 501.409 192.788 503.966 195.346C504.457 195.836 504.877 196.256 505.28 196.659C507.104 198.155 508.596 200.017 509.658 202.124C512.04 206.117 509.081 209.672 507.084 211.669ZM495.647 198.901C494.338 200.052 493.42 201.583 493.02 203.28C493.002 203.581 493.053 203.882 493.168 204.161C493.284 204.44 493.46 204.69 493.685 204.891C497.188 208.394 503.283 211.196 504.457 210.828L504.772 210.513C507.049 208.236 509.116 205.819 507.679 203.262C506.746 201.41 505.44 199.77 503.844 198.446C503.406 198.008 502.95 197.552 502.407 197.009C501.497 196.099 498.729 196.834 497.118 197.605C496.621 197.991 496.147 198.406 495.699 198.848L495.647 198.901Z" fill="#263238"/>
<path d="M472.18 428.131L464.457 435.854C464.234 436.078 463.933 436.208 463.618 436.218C463.302 436.228 462.994 436.117 462.758 435.907C461.199 434.348 453.02 426.799 454.263 421.983C454.438 421.317 454.701 420.529 454.981 419.653C456.82 414.066 457.924 409.18 452.914 406.027C449.149 403.663 445.576 402.857 443.737 404.065C443.17 404.49 442.734 405.064 442.477 405.723C442.22 406.382 442.153 407.101 442.283 407.796C442.549 409.747 443.166 411.634 444.105 413.366C445.453 416.256 446.855 419.233 444.122 422.596C443.674 423.269 443.055 423.812 442.329 424.169C441.603 424.526 440.796 424.684 439.989 424.627C439.035 424.336 438.162 423.829 437.436 423.146C436.71 422.462 436.151 421.621 435.803 420.687C434.805 419.268 426.292 406.552 433.456 397.743C438.01 392.138 446.854 390.579 453.632 391.578C459.325 392.401 463.476 394.871 464.947 398.373C468.099 405.73 467.119 415.397 466.786 417.552L472.338 426.607C472.487 426.842 472.552 427.12 472.523 427.396C472.495 427.672 472.374 427.931 472.18 428.131ZM463.563 433.245L469.746 427.062L464.386 418.41C464.225 418.161 464.163 417.862 464.211 417.569C464.211 417.569 465.665 406.658 462.512 399.197C461.409 396.552 457.888 394.573 453.142 393.89C447.292 393.084 439.218 394.397 435.295 399.231C429.007 406.955 437.694 419.145 437.8 419.251C437.873 419.304 437.938 419.369 437.992 419.443C438.343 420.214 439.341 421.878 440.322 422.018C441.302 422.158 441.705 421.44 442.178 420.862C443.877 418.813 443.229 417.184 441.81 414.224C440.739 412.225 440.044 410.046 439.761 407.796C439.563 406.639 439.701 405.448 440.161 404.367C440.621 403.287 441.382 402.361 442.353 401.701C445.156 400.02 449.447 400.738 454.158 403.698C461.199 408.146 458.729 415.695 457.241 420.196L456.558 422.386C456.067 424.908 460.183 430.005 463.563 433.245Z" fill="#263238"/>
<path d="M482.601 448.185L481.515 449.271C479.028 451.758 470.463 446.311 467.381 443.228C466.909 442.776 466.541 442.228 466.302 441.62C466.063 441.012 465.959 440.36 465.997 439.708C466.19 436.012 470.551 432.597 471.059 432.229L471.217 432.071C471.794 431.774 476.926 429.304 479.483 431.861C479.974 432.352 480.394 432.772 480.797 433.175C482.622 434.671 484.113 436.532 485.176 438.639C487.523 442.668 484.545 446.241 482.601 448.185ZM471.164 435.417C469.854 436.567 468.935 438.098 468.537 439.795C468.514 440.093 468.561 440.392 468.674 440.668C468.786 440.945 468.961 441.191 469.185 441.389C472.688 444.892 478.783 447.694 479.956 447.326L480.272 447.011C482.566 444.717 484.615 442.317 483.179 439.76C482.246 437.908 480.94 436.268 479.343 434.944C478.905 434.506 478.45 434.05 477.907 433.508C476.996 432.597 474.247 433.35 472.6 434.121C472.096 434.524 471.616 434.956 471.164 435.417Z" fill="#263238"/>
<path d="M619.403 148.18L611.679 155.904C611.458 156.126 611.159 156.253 610.846 156.26C610.532 156.266 610.229 156.151 609.998 155.939C608.352 154.467 600.242 146.849 601.486 142.032L602.204 139.703C604.043 134.116 605.146 129.229 600.137 126.076C596.389 123.694 592.799 122.906 590.96 124.115C590.393 124.539 589.957 125.113 589.7 125.772C589.443 126.432 589.376 127.15 589.506 127.845C589.772 129.797 590.389 131.684 591.327 133.415C592.694 136.287 594.077 139.282 591.345 142.645C590.897 143.318 590.278 143.861 589.552 144.218C588.826 144.575 588.019 144.733 587.212 144.677C586.258 144.386 585.384 143.879 584.658 143.195C583.932 142.512 583.374 141.67 583.026 140.736C582.027 139.317 573.515 126.602 580.679 117.792C585.232 112.187 594.077 110.629 600.855 111.627C606.565 112.433 610.698 114.92 612.17 118.423C615.322 125.779 614.341 135.447 614.026 137.584L619.578 146.639C619.729 146.877 619.794 147.16 619.762 147.44C619.73 147.72 619.604 147.981 619.403 148.18ZM610.786 153.294L616.969 147.111L611.609 138.459C611.458 138.207 611.397 137.911 611.434 137.619C611.434 137.619 612.905 126.69 609.735 119.246C608.632 116.601 605.111 114.622 600.365 113.939C594.532 113.116 586.458 114.394 582.518 119.281C576.23 127.005 584.917 139.195 585.022 139.3L585.215 139.492C585.548 140.281 586.546 141.945 587.527 142.085C588.508 142.225 588.893 141.524 589.383 140.929C591.082 138.879 590.434 137.251 589.016 134.291C587.981 132.337 587.304 130.213 587.019 128.02C586.823 126.863 586.964 125.674 587.423 124.594C587.882 123.514 588.642 122.588 589.611 121.925C592.413 120.244 596.704 120.962 601.416 123.922C608.457 128.371 605.987 135.92 604.498 140.421L603.815 142.61C603.307 144.975 607.353 150.001 610.786 153.294Z" fill="#263238"/>
<path d="M485.316 719.816C468.222 736.91 435.329 745.282 415.801 746.595C397.323 747.804 386.079 732.881 373.048 715.577C365.625 705.001 357.1 695.243 347.617 686.468C343.098 682.544 340.506 675.854 339.858 666.694C336.757 620.368 382.557 523.741 405.431 497.785C427.079 473.265 450.128 464.823 491.917 449.515C504.72 444.804 519.134 439.567 535.826 432.964C574.76 417.604 586.285 402.857 586.985 396.552C587.124 395.769 587.029 394.962 586.711 394.233C586.393 393.504 585.867 392.885 585.199 392.454C581.643 390.089 571.993 390.282 556.493 398.776C533.829 411.141 506.839 420.827 501.147 412.893C496.733 406.798 505.911 393.662 528.872 372.487C557 346.531 582.641 346.321 607.442 346.146C633.836 345.918 658.777 345.743 682.929 311.923C702.23 284.881 705.014 253.442 690.232 227.941C674.469 200.583 642.522 186.431 604.761 190.039C604.6 190.058 604.436 190.044 604.28 189.998C604.124 189.952 603.979 189.876 603.853 189.773C603.728 189.67 603.624 189.543 603.548 189.399C603.472 189.255 603.426 189.098 603.413 188.936C603.382 188.611 603.48 188.287 603.687 188.035C603.894 187.782 604.192 187.621 604.516 187.587C643.275 183.857 676.115 198.482 692.386 226.697C707.624 253.109 704.839 285.494 684.926 313.359C660.143 348.125 634.519 348.388 607.459 348.615C583.132 348.808 557.999 349.035 530.553 374.308C501.199 401.386 501.62 409.302 503.161 411.439C507.014 416.833 530.414 410.178 555.302 396.604C569.033 389.108 580.995 386.744 586.53 390.457C587.567 391.14 588.389 392.103 588.901 393.235C589.412 394.367 589.592 395.62 589.42 396.85C588.492 405.344 574.165 420.512 536.754 435.259C520.028 441.862 505.561 447.151 492.793 451.827C451.354 466.995 428.532 475.349 407.287 499.431C385.184 524.477 339.332 621.647 342.345 666.519C342.905 675.031 345.235 681.143 349.228 684.611C359.579 693.561 367.846 704.525 375.115 714.001C387.708 730.727 398.584 745.176 415.678 744.056C434.436 742.812 477.364 732.672 490.255 709.377C495.754 699.429 495.159 688.15 488.503 675.785C470.2 641.789 469.359 600.35 474.719 572.957C474.75 572.797 474.812 572.645 474.902 572.509C474.992 572.374 475.107 572.257 475.242 572.166C475.377 572.075 475.529 572.011 475.688 571.979C475.848 571.946 476.012 571.945 476.172 571.976C476.332 572.007 476.484 572.07 476.62 572.16C476.756 572.249 476.873 572.365 476.964 572.5C477.055 572.635 477.118 572.787 477.151 572.946C477.183 573.106 477.184 573.27 477.153 573.43C471.899 600.437 472.687 641.194 490.727 674.576C497.803 687.712 498.416 699.78 492.461 710.533C490.527 713.948 488.122 717.073 485.316 719.816Z" fill="#263238"/>
<path d="M481.131 556.564L483.829 583.046L475.824 574.586L464.51 577.353L481.131 556.564Z" fill="#263238"/>
<path d="M498.101 362.031C493.215 366.823 487.576 370.781 481.41 373.748C458.255 385.308 424.575 385.956 395.589 375.499C350.331 359.036 307.894 347.353 286.806 384.309C280.877 395.476 275.67 407.013 271.219 418.847C271.098 419.154 270.86 419.4 270.558 419.531C270.256 419.662 269.914 419.668 269.607 419.548C269.301 419.427 269.055 419.189 268.923 418.887C268.792 418.585 268.786 418.243 268.907 417.936C273.43 405.976 278.713 394.317 284.722 383.03C306.808 344.376 350.191 356.303 396.517 373.135C424.803 383.381 457.783 382.838 480.376 371.594C487.413 368.305 493.675 363.567 498.755 357.691C503.834 351.814 507.616 344.932 509.853 337.494C513.846 324.428 513.075 309.471 512.234 293.602C510.255 255.789 508.013 212.913 578.036 192.772C581.066 191.879 584.131 191.091 587.161 190.408C587.481 190.338 587.816 190.399 588.092 190.576C588.368 190.754 588.562 191.033 588.632 191.353C588.673 191.512 588.681 191.678 588.656 191.84C588.63 192.002 588.573 192.157 588.486 192.296C588.399 192.435 588.285 192.555 588.151 192.649C588.016 192.743 587.864 192.809 587.704 192.842C584.796 193.438 581.696 194.296 578.719 195.137C510.623 214.787 512.707 254.808 514.739 293.515C515.597 309.576 516.386 324.761 512.252 338.247C509.589 347.229 504.724 355.405 498.101 362.031Z" fill="#263238"/>
<path d="M604.655 188.813L582.149 203.017L586.16 192.071L578.646 183.191L604.655 188.813Z" fill="#263238"/>
<path d="M218.482 545.353C217.529 546.509 216.169 547.255 214.682 547.437C213.018 547.455 211.722 546.264 210.811 543.917C201.371 519.379 262.46 398.494 265.07 393.363C265.14 393.212 265.239 393.076 265.363 392.964C265.486 392.852 265.631 392.767 265.788 392.712C265.945 392.657 266.112 392.635 266.278 392.646C266.444 392.658 266.607 392.702 266.755 392.778C266.904 392.853 267.035 392.958 267.142 393.085C267.25 393.213 267.33 393.361 267.379 393.52C267.427 393.679 267.443 393.846 267.426 394.012C267.408 394.178 267.358 394.338 267.277 394.484C266.646 395.745 204.068 519.519 213.105 543.024C213.403 543.742 213.964 544.968 214.664 544.968C221.25 544.933 238.396 498.957 252.127 461.967C255.612 452.597 259.133 443.156 262.495 434.084C262.555 433.932 262.644 433.793 262.757 433.675C262.87 433.558 263.006 433.463 263.155 433.398C263.305 433.333 263.466 433.298 263.63 433.296C263.793 433.293 263.955 433.323 264.107 433.383C264.413 433.5 264.66 433.733 264.795 434.032C264.93 434.331 264.94 434.67 264.825 434.977C261.392 443.98 257.872 453.385 254.457 462.86C237.853 507.522 226.399 537.436 218.482 545.353Z" fill="#263238"/>
<path d="M270.131 418.356L270.779 444.961L263.458 435.923L251.951 437.797L270.131 418.356Z" fill="#263238"/>
<path d="M484.075 738.889C457.156 765.809 413.562 789.296 391.897 781.081C380.39 776.58 376.379 763.462 372.578 750.658C367.061 732.006 361.824 714.368 334.694 721.286C313.992 726.576 295.164 740.43 278.525 752.69C266.791 761.307 255.722 769.468 245.844 773.076C245.687 773.155 245.516 773.199 245.342 773.207C245.167 773.215 244.993 773.185 244.83 773.121C244.668 773.056 244.521 772.958 244.399 772.832C244.277 772.707 244.183 772.557 244.124 772.393C244.064 772.229 244.04 772.054 244.052 771.879C244.065 771.705 244.115 771.535 244.198 771.381C244.281 771.227 244.395 771.093 244.534 770.987C244.673 770.88 244.833 770.805 245.003 770.764C254.531 767.262 265.46 759.205 277.054 750.693C293.851 738.345 312.889 724.316 334.046 718.922C363.505 711.426 369.303 731.025 374.925 749.993C378.726 762.761 382.264 774.846 392.737 778.804C418.519 788.578 479.749 748.96 498.735 716.664C515.391 688.378 515.373 655.258 498.664 609.3C483.846 568.631 481.517 521.079 489.398 507.313C497.28 493.547 632.035 410.214 655.382 399.337C669.289 392.927 679.745 392.489 691.917 392.052C703.605 391.858 715.244 390.509 726.666 388.023C736.824 385.782 742.394 382.384 742.814 378.215C743.48 371.7 731.78 362.943 719.888 357.671C711.884 354.115 702.618 357.916 691.024 362.575C679.429 367.234 664.892 373.188 646.59 373.661L631.247 373.976C613.33 374.379 590.806 374.729 589.405 377.286C589.405 377.286 589.738 378.32 594.642 380.562C597.654 381.928 600.79 383.206 603.802 384.432C614.398 388.758 623.558 392.489 623.944 398.654C624.224 403.523 618.812 408.865 606.902 415.486C587.917 426.029 560.717 437.536 538.876 446.766C523.201 453.404 509.662 459.131 507.788 461.005C507.648 461.142 507.481 461.249 507.298 461.32C506.807 461.46 459.886 476.365 455.805 492.671C454.579 497.4 455.105 498.976 455.63 499.502C458.117 501.428 469.694 495.211 487.226 485.77C493.164 482.565 499.977 478.905 507.771 474.789L537.37 459.201C537.512 459.126 537.668 459.081 537.828 459.067C537.989 459.053 538.15 459.071 538.303 459.12C538.456 459.169 538.598 459.247 538.721 459.352C538.843 459.456 538.944 459.583 539.016 459.727C539.168 460.015 539.199 460.351 539.104 460.663C539.009 460.974 538.795 461.236 538.509 461.391L508.909 476.978C501.133 481.042 494.355 484.702 488.347 487.942C466.77 499.572 457.872 504.406 454.089 501.463C451.812 499.677 452.425 495.736 453.336 492.128C457.644 474.929 501.956 460.427 506.212 459.078C508.804 456.872 519.015 452.511 537.86 444.524C559.648 435.312 586.743 423.84 605.624 413.366C616.307 407.411 621.614 402.525 621.387 398.829C621.124 394.223 612.156 390.545 602.804 386.762C599.756 385.536 596.604 384.24 593.574 382.856C588.512 380.562 586.515 378.74 586.936 376.778C587.794 372.663 599.704 372.032 631.072 371.454C636.064 371.367 641.23 371.279 646.38 371.139C664.297 370.736 678.589 364.817 689.938 360.263C702.146 355.306 711.779 351.383 720.746 355.376C730.239 359.58 746.054 369.196 745.126 378.426C744.583 383.838 738.523 387.866 727.051 390.405C715.487 392.93 703.7 394.297 691.865 394.486C679.5 394.976 669.727 395.327 656.275 401.562C629.566 413.874 498.436 496.349 491.412 508.522C483.934 521.85 486.421 568.404 501.028 608.442C518.018 655.135 517.983 688.903 500.924 717.907C496.199 725.572 490.539 732.621 484.075 738.889Z" fill="#263238"/>
<path d="M553.57 452.353L536.423 472.687L536.914 461.057L527.071 454.857L553.57 452.353Z" fill="#263238"/>
<path d="M217.082 773.847C216.93 774.005 216.735 774.114 216.522 774.162C216.206 774.25 215.868 774.209 215.582 774.048C215.297 773.887 215.087 773.62 214.998 773.304C209.411 752.759 241.882 712.932 263.355 686.59C271.797 676.222 278.435 668.007 279.993 664.487C282.428 658.795 268.644 649.635 255.403 640.702C241.059 631.087 226.241 621.173 224.717 611.838C223.93 604.786 224.136 597.658 225.33 590.663C226.626 580.19 227.747 571.152 221.477 565.793C217.992 562.903 212.282 561.291 206.274 559.592C193.787 556.107 179.635 552.114 183.681 534.652C189.338 510.114 235.435 407.76 262.355 367.879C270.569 355.707 271.707 350.575 271.094 349.472C271.094 349.472 270.954 349.332 270.569 349.332C265.052 349.524 243.632 369.263 228.99 400.859C206.379 449.882 178.216 502.25 171.876 510.517C170.72 512.023 169.616 511.48 169.301 511.27C164.712 508.292 175.431 453.857 211.633 386.83C211.788 386.543 212.049 386.33 212.361 386.234C212.672 386.139 213.008 386.171 213.297 386.322C213.441 386.396 213.569 386.498 213.673 386.623C213.777 386.747 213.855 386.891 213.902 387.047C213.949 387.202 213.965 387.365 213.948 387.526C213.932 387.687 213.883 387.844 213.805 387.986C180.177 450.267 170.037 498.694 170.597 508.047C178.286 496.855 205.083 446.904 226.8 399.896C240.794 369.578 262.635 347.212 270.534 346.915C271.081 346.853 271.635 346.952 272.127 347.201C272.619 347.45 273.027 347.838 273.301 348.316C274.895 351.206 271.917 358.247 264.456 369.316C237.642 409.056 191.772 510.867 186.115 535.23C182.612 550.397 194.435 553.707 206.957 557.228C213.245 558.997 219.183 560.661 223.071 563.919C230.444 570.066 229.201 580.172 227.887 590.908C226.739 597.661 226.545 604.541 227.31 611.348C228.553 619.597 243.616 629.615 256.857 638.478C272.287 648.794 285.598 657.726 282.358 665.31C280.694 669.181 274.179 676.992 265.351 687.991C244.194 713.948 212.213 753.18 217.485 772.498C217.563 772.737 217.566 772.995 217.494 773.235C217.422 773.476 217.278 773.69 217.082 773.847Z" fill="#263238"/>
<path d="M232.672 778.997L206.26 775.599L216.33 769.731L216.208 758.084L232.672 778.997Z" fill="#263238"/>
<path d="M424.085 251.829L423.945 251.969C409.171 262.33 393.01 270.555 375.938 276.401C368.582 278.959 364.624 279.099 363.17 276.734C359.737 271.41 373.959 255.997 397.533 231.512C409.706 218.849 422.299 205.766 422.894 202.123C422.894 202.123 422.579 201.632 420.95 201.58C403.033 201.177 315.163 239.866 251.288 328.296C240.902 342.675 231.146 357.685 222.284 372.853C222.112 373.145 221.831 373.358 221.503 373.443C221.174 373.529 220.825 373.48 220.533 373.308C220.24 373.136 220.028 372.855 219.942 372.527C219.857 372.198 219.906 371.849 220.077 371.557C228.992 356.302 238.8 341.239 249.221 326.79C315.933 234.436 411.299 194.416 423.542 199.513C424.145 199.714 424.654 200.126 424.976 200.673C425.298 201.221 425.411 201.867 425.293 202.491C424.61 206.677 414.942 216.87 399.267 233.176C384.66 248.343 362.592 271.287 365.184 275.351C365.429 275.596 366.726 276.892 375.062 274.019C391.911 268.25 407.86 260.131 422.439 249.902C422.706 249.713 423.035 249.635 423.359 249.684C423.682 249.733 423.974 249.905 424.173 250.165C424.368 250.404 424.467 250.706 424.451 251.014C424.435 251.322 424.304 251.612 424.085 251.829Z" fill="#263238"/>
<path d="M212.65 387.495L216.328 361.119L222.108 371.242L233.738 371.242L212.65 387.495Z" fill="#263238"/>
<path d="M553.044 131.243C552.835 131.448 552.561 131.573 552.269 131.595C551.977 131.618 551.687 131.536 551.45 131.365C551.257 131.173 529.854 116.18 485.315 135.288C440.005 154.711 444.069 181.859 451.425 205.749C454.648 216.222 449.919 228.272 437.641 240.55C437.527 240.684 437.387 240.793 437.229 240.873C437.072 240.952 436.901 241 436.725 241.013C436.549 241.026 436.372 241.004 436.205 240.949C436.038 240.893 435.883 240.805 435.75 240.69C435.518 240.458 435.387 240.143 435.387 239.814C435.387 239.486 435.518 239.171 435.75 238.938C443.877 230.812 452.826 218.639 449.113 206.554C440.864 179.775 439.427 152.347 484.387 133.064C530.292 113.395 552.01 128.808 552.903 129.491C553.035 129.583 553.147 129.701 553.232 129.837C553.317 129.974 553.373 130.126 553.398 130.284C553.423 130.443 553.415 130.605 553.375 130.761C553.335 130.917 553.264 131.063 553.166 131.19L553.044 131.243Z" fill="#263238"/>
<path d="M423.225 250.971L435.275 227.221L437.447 238.676L448.446 242.459L423.225 250.971Z" fill="#263238"/>
<path d="M727.959 254.984C725.933 257.245 723.196 258.746 720.2 259.24C718.714 259.387 717.217 259.094 715.896 258.396C714.576 257.699 713.49 256.627 712.774 255.316C709.551 250.307 710.164 243.354 710.882 235.315C712.564 216.364 714.928 190.32 669.32 166.956C612.17 137.548 587.212 156.937 568.997 171.088C566.615 172.945 564.356 174.679 562.184 176.22C550.397 184.504 534.914 186.676 524.581 181.597C521.288 179.982 518.508 177.484 516.551 174.382C514.593 171.281 513.535 167.697 513.494 164.03C513.179 156.358 515.543 150.736 520.482 147.303C528.013 142.119 541.079 142.68 555.423 148.827C558.401 150.089 562.254 152.155 561.834 155.063C560.993 160.527 542.831 162.786 537.296 163.347C536.971 163.378 536.647 163.279 536.395 163.072C536.142 162.866 535.982 162.568 535.947 162.243C535.93 162.08 535.945 161.914 535.992 161.757C536.039 161.599 536.117 161.452 536.221 161.325C536.326 161.198 536.454 161.093 536.6 161.016C536.745 160.939 536.904 160.892 537.068 160.877C547.542 159.826 559.031 157.094 559.382 154.677C559.469 154.59 559.452 153.241 554.443 151.104C541.079 145.377 528.609 144.711 521.901 149.353C517.732 152.19 515.701 157.164 515.981 163.925C515.968 167.154 516.873 170.321 518.591 173.056C520.309 175.791 522.769 177.982 525.684 179.372C535.229 184.084 549.661 181.947 560.765 174.171C562.85 172.752 565.127 170.966 567.474 169.144C585.198 155.343 611.872 134.624 670.459 164.731C717.485 188.919 715.086 215.874 713.282 235.577C712.651 243.214 712.021 249.729 714.806 254.02C715.281 254.937 716.017 255.692 716.921 256.191C717.825 256.69 718.856 256.909 719.885 256.823C724.386 256.385 729.71 250.5 732.793 242.513C735.227 236.576 741.357 215.278 723.125 194.769C705.4 174.837 680.652 164.486 660.773 156.167C646.937 150.387 636.06 145.85 630.595 139.615C624.903 133.117 624.08 124.518 628.651 119.631C632.172 115.831 647.304 106.198 693.963 141.542C711.257 154.303 727.04 168.993 741.007 185.329C741.112 185.454 741.191 185.599 741.239 185.755C741.288 185.91 741.305 186.074 741.291 186.237C741.276 186.4 741.23 186.558 741.154 186.702C741.078 186.847 740.975 186.975 740.849 187.08C740.724 187.185 740.579 187.264 740.423 187.312C740.268 187.361 740.104 187.379 739.941 187.364C739.778 187.349 739.62 187.303 739.475 187.227C739.331 187.151 739.203 187.048 739.098 186.922C725.238 170.747 709.591 156.193 692.457 143.539C657.077 116.742 637.479 114.447 630.735 121.19L630.525 121.4C626.812 125.358 627.653 132.539 632.505 138.056C637.356 143.574 648.776 148.548 661.771 153.977C681.895 162.297 706.959 172.718 725.086 193.122C731.321 199.714 735.577 207.926 737.367 216.821C739.157 225.715 738.41 234.934 735.21 243.424C733.594 247.725 731.128 251.657 727.959 254.984Z" fill="#263238"/>
</g>
</svg>
