<svg width="784" height="905" viewBox="0 0 784 905" fill="none" xmlns="http://www.w3.org/2000/svg">
<g opacity="0.4">
<path d="M268.068 95.074C277.037 104.043 273.156 125.789 269.33 137.488C264.911 151.044 252.506 147.924 239.34 144.637C234.576 143.359 229.747 142.336 224.874 141.573C231.336 154.312 245.134 165.881 261.642 171.471C261.806 171.527 261.956 171.614 262.086 171.729C262.215 171.843 262.321 171.982 262.397 172.137C262.473 172.292 262.517 172.461 262.528 172.633C262.539 172.806 262.515 172.979 262.459 173.142C262.403 173.305 262.316 173.456 262.201 173.586C262.087 173.715 261.948 173.821 261.793 173.897C261.638 173.973 261.469 174.017 261.297 174.028C261.124 174.038 260.951 174.015 260.788 173.959C242.961 167.905 228.272 155.185 221.791 141.239C217.612 140.803 213.389 141.06 209.294 142.001L205.784 142.836C192.21 146.049 179.396 149.094 175.069 158.695C171.597 166.364 173.899 177.506 182.07 192.882C185.208 198.797 189.306 204.149 194.196 208.722C202.46 192.325 216.146 176.113 229.479 174.516C239.247 173.328 247.288 179.734 253.397 193.569C260.194 209.056 258.021 221.071 247.232 226.289C233.954 232.733 211.745 227.385 195.013 213.105C192.535 218.322 190.701 223.822 189.554 229.483C188.916 233.315 188.023 237.099 186.879 240.811C188.448 242.52 189.894 244.339 191.206 246.252C195.077 244.255 199.124 242.621 203.295 241.368C214.419 238.081 222.459 242.371 225.913 253.513C228.364 261.423 228.234 272.807 226.006 285.212C227.688 290.789 227.604 296.75 225.764 302.277C224.302 307.032 221.41 311.22 217.482 314.273C209.386 333.883 197.074 351.061 182.552 355.815C169.033 360.234 157.093 361.924 147.715 360.94C144.688 370.801 144.075 383.67 147.12 400.903C149.961 417.077 154.01 427.439 158.856 431.209C158.392 401.032 166.377 384.988 173.935 376.539C176.317 373.575 179.295 371.146 182.677 369.409C186.059 367.671 189.768 366.665 193.564 366.455C195.254 366.474 197.296 367.514 197.556 372.379C198.318 386.733 181.493 433.604 164.576 435.517C163.598 435.629 162.609 435.591 161.642 435.405C161.846 440.215 162.255 445.377 162.923 450.911C164.371 463.167 168.085 470.484 173.972 472.656C177.872 474.105 182.848 473.288 188.587 470.335C201.437 440.066 223.034 414.458 231.335 414.625C232.195 414.635 233.025 414.941 233.685 415.493C234.345 416.045 234.794 416.807 234.956 417.652C236.683 423.873 221.381 446.603 205.671 461.087C201.161 465.423 196.141 469.195 190.722 472.322C189.199 475.925 187.825 479.602 186.618 483.334C182.718 495.293 183.145 503.371 187.825 507.419C192.505 511.467 200.712 511.542 212.244 508.589C214.151 498.764 218.154 489.466 223.981 481.328C233.786 467.809 246.06 465.414 253.544 467.438C255.976 467.913 258.201 469.128 259.916 470.916C261.632 472.705 262.752 474.979 263.126 477.428C263.869 484.448 257.666 491.839 246.19 497.633C236.059 502.924 225.444 507.234 214.491 510.502C212.26 521.371 213.595 532.67 218.298 542.72C222.81 551.43 232.522 561.736 253.246 561.439C257.01 561.475 260.743 560.766 264.23 559.35C267.717 557.935 270.889 555.843 273.562 553.194C269.668 542.897 267.388 532.061 266.803 521.068C266.32 508.552 268.883 499.192 273.971 494.81C274.874 493.834 276.096 493.213 277.416 493.056C278.737 492.9 280.069 493.218 281.176 493.956C283.88 496.162 285.758 499.218 286.506 502.628C287.407 502.021 288.396 501.557 289.44 501.253C296.645 499.211 308.678 503.445 315.753 510.52C324.834 519.6 329.049 544.725 327.433 565.319C330.219 568.105 333.32 570.872 336.588 573.843C366.838 601.345 386.597 612.969 395.287 608.401C403.978 603.833 401.044 584.446 398.983 568.68L398.389 564.075C379.02 561.791 361.249 552.933 354.657 540.956C350.85 533.918 352.094 530.036 353.84 528.031C357.275 524.038 366.059 523.76 376.087 527.474C386.987 531.429 399.93 540.584 400.023 552.859C400.098 555.791 400.334 558.717 400.729 561.624C406.389 562.191 412.095 562.116 417.739 561.401C427.748 560.045 445.166 555.18 449.271 537.705C450.694 532.176 450.891 526.402 449.846 520.788C442.771 513.936 439.28 508.662 440.617 506.359C440.912 505.872 441.386 505.519 441.938 505.376C442.49 505.234 443.076 505.314 443.57 505.598C445.928 506.508 450.478 511.169 452.353 519.507C455.324 522.478 459.391 525.876 464.572 529.943C487.822 548.067 496.289 546.804 499.205 544.52C501.6 542.607 502.566 538.596 502.121 533.025C483.161 527.473 461.731 512.877 456.234 500.918C451.443 490.519 455.38 483.203 461.211 480.38C463.971 479.301 466.944 478.882 469.894 479.156C472.844 479.43 475.689 480.389 478.203 481.958C482.975 484.614 489.809 490.259 495.25 502.051C499.629 511.218 502.741 520.939 504.497 530.946C510.135 532.752 516.132 533.135 521.953 532.06C528.211 530.481 531.108 525.839 530.551 518.374C528.304 484.855 485.352 461.253 484.925 461.011C484.768 460.925 484.629 460.808 484.517 460.668C484.405 460.528 484.321 460.367 484.271 460.194C484.221 460.022 484.206 459.841 484.226 459.663C484.245 459.484 484.3 459.312 484.387 459.154C484.473 458.997 484.59 458.858 484.73 458.746C484.87 458.634 485.031 458.551 485.204 458.501C485.376 458.45 485.557 458.435 485.735 458.455C485.914 458.475 486.086 458.529 486.244 458.616C488.082 459.6 530.904 483.146 533.244 518.132C533.986 529.311 527.896 533.248 522.622 534.585C516.72 535.754 510.623 535.48 504.85 533.787C505.166 539.265 504.2 543.982 500.895 546.581C494.562 551.614 481.824 546.711 463.012 532.023C459.28 529.107 455.974 526.322 453.077 523.722C453.467 528.629 453.047 533.566 451.833 538.337C448.509 552.431 436.531 561.549 418.092 564.019C412.446 564.768 406.735 564.887 401.063 564.372L401.601 568.364C403.718 584.817 406.559 605.486 396.42 610.685C386.281 615.885 366.3 604.446 334.768 575.774L327.062 568.625C325.966 578.448 323.441 586.916 319.411 591.614C315.975 595.607 309.866 598.894 300.358 591.875C288.975 583.5 280.303 570.185 274.602 556.016C268.73 561.384 261.034 564.312 253.079 564.206C231.055 564.466 220.601 553.417 215.772 544.058C210.966 533.871 209.478 522.433 211.52 511.356C201.121 513.882 191.502 514.142 185.931 509.351C180.36 504.56 179.599 495.59 183.925 482.461C184.817 479.639 185.894 476.779 186.99 473.975C182.621 476.132 177.597 476.55 172.932 475.145C166.043 472.601 161.753 464.56 160.175 451.245C159.45 445.21 159.023 439.621 158.838 434.421C152.598 430.93 147.863 419.732 144.502 401.255C141.438 383.855 142.051 370.689 145.115 360.532C139.144 359.974 133.624 357.117 129.721 352.565C122.2 342.63 126.248 325.806 141.81 302.556C143.997 299.257 146.359 296.077 148.885 293.03C151.726 282.761 161.011 269.056 173.843 258.007C174.772 257.078 175.849 256.298 176.87 255.5C170.649 259.381 161.977 259.548 149.591 258.787C142.869 258.379 137.985 255.054 136.165 249.632C135.235 246.199 135.321 242.57 136.412 239.185C137.503 235.8 139.552 232.804 142.312 230.561C149.851 224.136 160.826 223.931 172.525 230.059C176.993 232.357 181.108 235.284 184.744 238.75C185.656 235.58 186.394 232.363 186.954 229.112C188.193 222.967 190.202 217.002 192.933 211.359C187.567 206.462 183.06 200.7 179.6 194.312C170.965 178.249 168.756 166.234 172.562 157.822C177.428 147.052 191.485 143.728 205.078 140.496L208.551 139.661C212.494 138.759 216.551 138.459 220.584 138.769C219.305 135.53 218.51 132.12 218.226 128.649C217.242 115.743 224.466 104.619 238.505 97.2283C251.559 90.4131 261.123 89.466 267.139 94.5912L268.068 95.074ZM223.574 138.751C229.122 139.482 234.613 140.593 240.008 142.075C254.864 145.788 263.332 147.386 266.823 136.689C271.67 121.852 273.286 102.892 265.579 96.3368C260.51 92.0472 251.856 93.05 239.842 99.3081C226.545 106.216 220.009 116.207 220.919 128.147C221.229 131.801 222.125 135.382 223.574 138.751ZM196.332 210.561C212.265 224.339 233.843 229.91 246.155 223.875C255.607 219.288 257.39 208.926 251.057 194.572C245.468 181.926 238.318 176.039 229.832 177.06C217.464 178.472 204.205 194.479 196.257 210.486L196.332 210.561ZM501.879 530.258C500.176 520.901 497.195 511.823 493.021 503.276C487.859 492.097 481.508 486.824 477.089 484.372C474.926 482.981 472.469 482.114 469.912 481.84C467.356 481.566 464.771 481.893 462.363 482.794C456.606 485.468 455.157 492.153 458.704 499.86C463.7 510.797 483.903 524.576 501.805 530.184L501.879 530.258ZM224.149 280.941C225.775 272.087 225.535 262.992 223.444 254.237C220.38 244.414 213.862 240.941 204.094 243.875C200.166 245.049 196.355 246.585 192.71 248.462C196.082 253.982 198.087 260.228 198.56 266.679C203.34 266.843 208.039 267.967 212.376 269.984C217.373 272.28 221.5 276.121 224.149 280.941ZM183.853 241.498L183.667 241.313C180.04 237.704 175.881 234.673 171.336 232.325C160.696 226.772 150.78 226.884 144.094 232.566C141.736 234.471 139.978 237.015 139.029 239.893C138.08 242.772 137.982 245.863 138.746 248.796C140.213 253.197 144.15 255.834 149.888 256.224C169.572 257.301 178.653 256.317 183.927 241.424L183.853 241.498ZM188.922 247.571C187.996 246.225 186.991 244.935 185.914 243.708C184.634 247.436 182.519 250.821 179.73 253.606C182.658 251.349 185.728 249.283 188.922 247.422L188.922 247.571ZM223.388 285.75C222.371 282.824 220.76 280.139 218.658 277.864C216.555 275.589 214.006 273.773 211.169 272.528C207.205 270.68 202.912 269.644 198.541 269.483C198.541 270.411 198.504 271.377 198.411 272.324C197.111 288.146 185.691 301.089 167.845 306.902C155.96 310.801 151.243 307.682 149.405 304.395C148.401 302.534 147.932 300.433 148.049 298.322C146.675 300.142 145.32 302.055 143.964 304.079C129.312 325.973 125.097 342.222 131.782 351.024C135.375 355.126 140.423 357.669 145.858 358.117C153.806 336.019 173.954 329.204 191.243 323.391C200.732 320.179 209.441 317.263 215.514 312.417C219.057 303.742 221.72 294.734 223.462 285.527L223.388 285.75ZM195.83 266.846C195.352 260.822 193.449 254.998 190.278 249.855C185.06 252.773 180.157 256.221 175.645 260.142C166.519 267.755 159.07 277.176 153.769 287.812C167.938 273.011 182.998 266.902 195.904 266.623L195.83 266.846ZM448.156 515.459C447.513 513.938 446.703 512.493 445.742 511.15C445.022 510.126 444.13 509.234 443.105 508.513C444.423 511.028 446.148 513.306 448.212 515.254L448.156 515.459ZM219.766 308.35C221.314 306.34 222.49 304.07 223.239 301.646C224.218 298.588 224.67 295.385 224.576 292.175C223.286 297.582 221.699 302.913 219.822 308.145L219.766 308.35ZM152.525 304.246C155.552 307.273 161.81 306.103 167.102 304.525C184.149 298.954 194.641 287.199 195.793 272.12C195.849 271.247 195.886 270.356 195.886 269.464C182.311 269.743 166.025 277.041 151.411 294.367C150.412 297.22 150.504 300.343 151.671 303.132C151.949 303.461 152.267 303.754 152.618 304.005L152.525 304.246ZM148.532 358.526C159.806 359.01 171.066 357.288 181.679 353.456C194.734 349.204 205.913 334.422 213.694 317.022C206.858 320.793 199.628 323.801 192.134 325.991C175.013 331.562 156.22 337.876 148.625 358.285L148.532 358.526ZM398.092 561.289C397.724 558.492 397.501 555.678 397.423 552.859C397.349 542.608 386.226 533.936 375.232 529.888C366.505 526.694 358.538 526.601 355.864 529.721C353.691 532.228 355.251 536.536 357.034 539.693C362.939 550.538 379.875 558.931 398.092 561.289ZM161.493 432.694C162.368 432.976 163.293 433.064 164.204 432.954C178.392 431.32 195.644 387.29 194.882 372.565C194.827 371.543 194.585 369.148 193.49 369.129C190.686 369.111 183.258 370.039 175.885 378.303C169.776 385.081 160.751 400.642 161.493 432.694ZM192.301 468.218C196.385 465.569 200.226 462.561 203.777 459.23C220.156 444.114 233.526 422.759 232.319 418.432C232.04 417.448 231.576 417.355 231.205 417.318C224.891 417.169 205.04 439.732 192.301 468.218ZM324.982 562.98C326.059 543.555 322.085 520.566 313.896 512.377C307.527 506.007 296.422 501.996 290.164 503.798C289.05 504.069 288.037 504.655 287.248 505.487C288.197 509.948 288.627 514.503 288.53 519.062C292.559 527.623 302.513 541.29 325.019 562.942L324.982 562.98ZM214.863 507.828C225.202 504.63 235.228 500.496 244.816 495.478C255.327 490.13 261.009 483.705 260.489 477.726C260.144 475.813 259.223 474.052 257.849 472.678C256.475 471.304 254.714 470.383 252.801 470.038C246.116 468.218 235.086 470.521 226.042 482.944C220.67 490.387 216.889 498.858 214.937 507.828L214.863 507.828ZM284.37 504.949C283.843 501.59 282.217 498.501 279.746 496.165C278.966 495.683 277.722 495.218 275.828 496.852C271.334 500.715 269.031 509.554 269.477 521.105C270.021 531.38 272.086 541.518 275.605 551.188C279.292 546.564 281.985 541.228 283.516 535.515C284.954 530.391 285.747 525.107 285.874 519.786C283.2 514.067 282.791 510.093 283.479 507.326C283.662 506.478 283.975 505.664 284.407 504.912L284.37 504.949ZM316.923 558.783C301.807 543.667 293.005 532.488 288.288 524.28C287.924 528.349 287.191 532.377 286.097 536.313C284.349 542.857 281.143 548.92 276.719 554.048C282.215 568.198 290.758 581.531 302.029 589.832C308.436 594.567 313.543 594.623 317.535 589.962C321.528 585.301 323.868 576.573 324.778 566.452C321.992 563.704 319.392 561.178 316.96 558.746L316.923 558.783Z" fill="#263238"/>
<path d="M496.607 438.56L496.849 438.802C497.74 440.362 511.927 465.691 514.731 492.97C522.958 488.903 531.704 486.285 539.429 487.548C542.593 488.06 545.594 489.304 548.192 491.18C550.791 493.056 552.915 495.513 554.397 498.355C559.448 507.12 552.781 522.255 536.551 538.671C514.787 560.806 473.413 585.913 449.161 572.803C439.482 567.198 431.441 559.157 425.837 549.479C417.049 557.06 406.382 562.134 394.955 564.168C387.722 565.739 380.221 565.58 373.06 563.705C365.9 561.831 359.284 558.293 353.748 553.379C352.43 575.904 347.434 600.547 339.895 607.232C329.793 615.96 306.766 624.316 293.619 617.594C288.939 615.18 283.573 609.776 284.705 597.539C285.908 587.694 287.625 577.919 289.849 568.254C283.304 569.517 276.548 569.141 270.184 567.158C248.977 561.365 238.522 554.921 236.238 546.323C235.755 543.941 235.75 541.487 236.221 539.103C236.693 536.718 237.633 534.451 238.987 532.433C216.443 543.835 196.183 543.296 186.081 535.237C180.677 530.985 173.119 520.641 183.351 499.416C188.251 489.367 193.681 479.585 199.619 470.112C194.74 470.388 189.845 470.026 185.06 469.035C163.816 464.876 140.418 450.206 139.972 443.038C139.935 442.171 140.208 441.319 140.743 440.635C141.277 439.95 142.037 439.479 142.888 439.305C149.554 437.133 160.344 439.825 170.761 442.443C181.179 445.062 191.522 447.68 194.865 444.597C195.408 444.003 195.796 443.283 195.993 442.502C196.191 441.721 196.193 440.904 195.998 440.122C195.144 433.028 182.962 423.632 170.037 413.679C151.059 399.046 127.438 380.847 126.064 360.012C125.525 351.822 126.714 346.957 129.778 344.71C134.068 341.572 140.957 344.153 149.611 347.496C159.1 351.191 171.003 355.815 182.034 352.955C183.761 352.528 185.859 351.729 186.156 350.355C187.01 346.158 175.126 337.171 163.65 328.48C144.486 313.958 122.777 297.524 130.781 284.878C139.045 271.786 161.013 281.424 182.294 290.746C199.007 298.062 216.295 305.62 224.02 300.495C231.189 295.741 218.747 263.318 207.772 234.702C193.752 198.138 185.749 175.538 192.545 169.93C195.349 167.609 200.103 168.611 207.085 172.957C239.657 193.198 253.77 210.69 260.622 219.065C261.947 221.042 263.577 222.797 265.45 224.265C265.604 224.191 265.77 224.147 265.941 224.138C266.111 224.129 266.281 224.153 266.442 224.21C266.603 224.267 266.751 224.356 266.877 224.47C267.003 224.585 267.105 224.723 267.177 224.878C267.322 225.198 267.336 225.563 267.214 225.893C267.092 226.223 266.846 226.492 266.527 226.642C264.262 227.756 262.461 225.546 258.561 220.718C251.932 212.492 237.911 195.166 205.748 175.148C198.488 170.636 195.479 170.896 194.179 171.861C188.348 176.689 199.954 206.94 210.279 233.755C222.721 266.14 234.438 296.762 225.525 302.667C216.611 308.573 199.453 301.071 181.291 293.123C161.05 284.246 140.103 275.073 133.047 286.252C126.343 296.893 147.94 313.216 165.284 326.363C180.585 337.95 189.907 345.341 188.775 350.857C188.347 353.066 186.342 354.589 182.721 355.499C170.836 358.47 158.58 353.642 148.719 349.947C141.124 346.994 134.569 344.45 131.375 346.79C129.221 348.35 128.274 352.714 128.738 359.826C130.056 379.455 153.139 397.263 171.708 411.562C185.654 422.314 197.688 431.598 198.672 439.788C198.93 440.991 198.88 442.24 198.526 443.418C198.172 444.597 197.526 445.667 196.648 446.529C192.191 450.466 181.996 447.921 170.204 444.969C160.176 442.369 149.703 439.844 143.723 441.738C142.572 442.109 142.591 442.574 142.628 442.834C142.906 447.755 163.445 462.09 185.58 466.399C190.753 467.542 196.076 467.849 201.346 467.308C211.875 450.911 222.181 438.339 225.672 440.01C227.232 440.753 228.365 442.703 221.977 456.036C220.226 459.756 217.556 462.968 214.22 465.369C210.883 467.77 206.989 469.281 202.906 469.76C196.511 479.713 190.713 490.037 185.543 500.679C178.505 515.145 179.247 526.732 187.548 533.287C197.743 541.328 219.247 540.548 242.014 527.772C244.102 525.058 246.373 522.489 248.81 520.084C260.955 507.939 279.655 493.213 282.942 494.197C283.198 494.289 283.432 494.436 283.624 494.629C283.817 494.821 283.964 495.055 284.056 495.311C284.26 496.333 284.669 498.412 260.212 518.45C255.052 522.702 249.542 526.51 243.74 529.833C239.228 535.98 237.612 541.198 238.801 545.692C240.806 553.305 250.704 559.155 270.871 564.689C277.239 566.717 284.042 566.955 290.536 565.376C297.055 535.794 307.435 499.341 313.211 499.656C315.532 499.786 316.386 503.055 316.238 511.3C315.81 538.505 310.295 555.682 299.413 563.853C297.342 565.405 295.043 566.626 292.598 567.474C290.251 577.456 288.509 587.57 287.379 597.761C286.599 606.415 289.143 612.302 294.9 615.236C305.986 620.899 327.676 614.4 338.298 605.263C345.429 599.098 350.053 573.305 351.186 550.779C347.718 547.185 344.847 543.06 342.681 538.56C337.834 528.254 338.224 518.245 343.702 513.584C344.085 513.167 344.554 512.839 345.077 512.623C345.6 512.408 346.164 512.31 346.73 512.336C347.295 512.363 347.847 512.513 348.348 512.777C348.848 513.041 349.285 513.411 349.626 513.862C353.414 518.282 354.77 533.193 354.046 549.925C359.307 555.088 365.771 558.86 372.855 560.899C379.939 562.939 387.42 563.181 394.621 561.605C405.76 559.576 416.127 554.527 424.593 547.009C415.865 531.41 413.154 513.88 417.406 504.465C419.969 498.635 425.132 496.518 431.52 498.709C439.82 501.55 444.128 508.681 443.441 518.356C442.754 528.031 437.239 538.82 428.084 547.566C433.501 556.976 441.311 564.786 450.72 570.203C471.519 581.605 509.847 562.106 534.879 536.628C549.958 521.289 556.644 507.064 552.298 499.451C550.995 496.956 549.125 494.802 546.838 493.161C544.552 491.519 541.913 490.436 539.132 489.999C531.704 488.773 523.144 491.503 514.991 495.57C516.35 508.089 513.828 520.724 507.767 531.763C499.058 546.414 491.63 547.9 487.935 547.473C485.638 547.049 483.517 545.958 481.836 544.337C480.156 542.715 478.989 540.635 478.483 538.355C477.192 533.776 477.228 528.925 478.586 524.366C479.943 519.806 482.567 515.726 486.152 512.599C494.061 505.522 502.731 499.344 512.002 494.177C509.42 466.601 494.713 440.343 494.509 439.953C494.417 439.806 494.357 439.642 494.332 439.47C494.306 439.299 494.317 439.124 494.362 438.957C494.407 438.789 494.487 438.633 494.595 438.498C494.703 438.363 494.838 438.251 494.992 438.17C495.265 438.039 495.575 438.006 495.869 438.077C496.164 438.148 496.424 438.319 496.607 438.56ZM483.905 542.923C485.051 544.101 486.564 544.854 488.195 545.059C491.222 545.412 497.498 544 505.465 530.611C511.045 520.415 513.421 508.772 512.28 497.204C503.578 502.189 495.429 508.084 487.972 514.79C484.743 517.574 482.374 521.219 481.141 525.3C479.907 529.381 479.861 533.729 481.008 537.835C481.554 539.738 482.547 541.483 483.905 542.923ZM426.413 545.189C434.843 536.944 439.913 527.009 440.563 518.263C441.213 509.516 437.61 503.723 430.442 501.271C425.262 499.507 421.603 500.974 419.561 505.617C415.846 514.308 418.428 530.556 426.413 545.189ZM351.186 547.065C351.669 532.098 350.518 519.21 347.454 515.589C346.896 515.032 346.451 514.587 345.207 515.645C340.694 519.452 340.583 528.217 344.928 537.427C346.598 540.932 348.728 544.198 351.26 547.14L351.186 547.065ZM293.155 564.466C294.763 563.766 296.283 562.881 297.686 561.829C307.732 554.308 313.043 537.298 313.471 511.318C313.777 508.43 313.595 505.511 312.932 502.683C309.162 505.747 299.617 536.536 293.229 564.54L293.155 564.466ZM204.744 466.77C207.93 466.067 210.911 464.639 213.455 462.597C215.999 460.556 218.039 457.955 219.414 454.996C223.296 446.918 224.001 443.836 224.15 442.833C221.439 444.244 213.732 453.325 204.818 466.844L204.744 466.77ZM249.312 523.259C252.32 521.217 255.384 518.97 258.392 516.481C265.498 510.861 272.316 504.886 278.819 498.58C268.642 505.403 259.179 513.236 250.574 521.959C250.24 522.442 249.794 522.888 249.386 523.333L249.312 523.259Z" fill="#263238"/>
<path d="M554.524 419.118C557.873 422.386 560.726 426.128 562.992 430.223C564.124 432.321 565.461 435.404 563.883 437.576C561.562 440.752 554.598 439.433 544.979 437.911C534.635 436.072 521.766 433.826 512.426 436.852C510.959 437.354 509.176 438.134 509.046 439.267C508.637 442.795 520.114 449.851 529.361 455.497C542.806 463.742 555.489 471.522 553.335 478.133C549.194 490.779 491.07 479.749 479.482 477.409C479.313 477.376 479.152 477.31 479.008 477.215C478.864 477.12 478.74 476.997 478.643 476.854C478.547 476.711 478.479 476.55 478.445 476.381C478.41 476.212 478.41 476.038 478.443 475.868C478.475 475.699 478.541 475.537 478.637 475.393C478.732 475.249 478.855 475.125 478.998 475.029C479.141 474.932 479.302 474.865 479.471 474.83C479.64 474.796 479.814 474.795 479.984 474.828C505.982 480.065 548.21 485.375 550.828 477.298C552.369 472.674 538.851 464.391 527.987 457.762C516.084 450.464 505.815 444.169 506.446 438.969C506.669 436.927 508.359 435.423 511.609 434.364C521.581 431.114 534.802 433.454 545.424 435.311C552.834 436.629 560.485 437.966 561.822 436.109C562.175 435.757 562.36 434.568 560.745 431.541C551.868 414.94 525.926 400.437 512.11 404.262C511.944 404.312 511.77 404.328 511.598 404.309C511.426 404.29 511.26 404.236 511.109 404.151C510.958 404.066 510.826 403.952 510.72 403.814C510.615 403.677 510.538 403.52 510.495 403.352C510.402 403.017 510.445 402.659 510.616 402.356C510.786 402.054 511.07 401.831 511.405 401.737C523.122 398.376 542.193 406.788 554.524 419.118Z" fill="#263238"/>
<path d="M523.607 374.569C523.743 374.652 523.857 374.767 523.941 374.903C524.108 375.256 539.614 411.411 534.785 444.986C532.631 459.953 518.258 475.366 496.345 486.174C475.974 496.22 455.12 499.507 445.594 494.178C445.292 494.002 445.07 493.716 444.977 493.379C444.883 493.043 444.925 492.683 445.092 492.377C445.266 492.078 445.551 491.859 445.885 491.769C446.218 491.678 446.574 491.723 446.875 491.894C455.491 496.796 475.863 493.361 495.175 483.816C516.327 473.398 530.161 458.746 532.185 444.614C536.902 411.783 521.694 376.296 521.545 375.961C521.473 375.803 521.434 375.632 521.429 375.459C521.425 375.285 521.456 375.113 521.52 374.951C521.584 374.79 521.681 374.643 521.803 374.52C521.925 374.397 522.072 374.3 522.232 374.234C522.469 374.146 522.726 374.131 522.971 374.191C523.216 374.25 523.437 374.382 523.607 374.569Z" fill="#263238"/>
<path d="M552.872 480.231C555.238 482.394 557.057 485.087 558.181 488.089C559.304 491.091 559.699 494.317 559.335 497.501C557.57 513.082 538.388 529.256 519.093 538.968C524.452 544.653 530.722 549.404 537.645 553.026C549.177 559.061 558.889 562.31 566.539 562.645C566.872 562.681 567.179 562.843 567.396 563.098C567.613 563.353 567.725 563.681 567.708 564.015C567.692 564.349 567.548 564.665 567.307 564.897C567.065 565.129 566.744 565.26 566.409 565.263C558.276 564.892 548.471 561.66 536.419 555.365C529.072 551.461 522.446 546.33 516.828 540.194C510.258 543.428 503.308 545.824 496.141 547.325C492.255 548.008 488.41 548.913 484.628 550.036C488.665 554.267 492.062 559.066 494.711 564.279C501.582 577.649 501.247 590.314 493.745 598.968C488.026 605.616 478.963 608.513 471.795 606.062C465.76 604 462.046 598.467 461.638 590.89C460.431 567.808 461.842 555.923 479.762 548.996C478.206 547.599 476.563 546.303 474.841 545.115C471.312 551.399 467.156 557.31 462.436 562.757C449.827 577.371 433.95 588.309 421.991 591.689C418.378 594.707 414.61 597.534 410.701 600.157C377.015 622.701 360.729 620.417 352.967 614.549C348.25 610.946 345.26 604.911 344.053 597.056C332.298 600.64 316.997 601.42 296.7 597.985C275.252 594.364 262.476 588.904 258.594 581.718C252.559 581.551 246.06 581.105 239.078 580.325C223.906 578.635 214.732 573.844 211.78 566.101C210.118 560.526 210.697 554.523 213.396 549.369C209.997 550.762 206.58 552.025 203.126 553.176C188.122 558.19 177.76 557.522 172.319 551.189C166.878 544.857 167.231 533.622 170.295 521.496C156.516 523.836 142.811 522.387 132.134 516.761C121.456 511.134 109.033 499.38 109.59 474.162C109.546 464.834 113.075 455.844 119.451 449.036C103.017 442.593 87.585 432.621 78.0588 419.603C70.0738 408.759 73.8991 401.776 78.5417 397.802C84.057 393.067 93.9733 390.096 105.468 388.777C102.664 385.973 99.9343 382.835 97.0188 379.622C64.2431 343.541 51.1886 320.422 57.1497 308.964C63.1106 297.506 86.9358 300.347 106.007 302.743L110.928 303.356C110.378 297.06 110.491 290.724 111.262 284.451C114.067 262.632 124.726 248.407 141.235 244.377C146.875 242.961 152.716 242.521 158.505 243.077C155.422 239.66 152.117 235.687 148.644 231.248C131.931 209.745 126.379 195.167 132.117 187.869C134.847 184.434 140.009 182.911 147.122 183.264C145.171 176.605 144.828 169.579 146.119 162.763C147.642 156.635 152.154 149.485 165.079 150.228C205.376 152.605 232.153 201.815 233.286 203.913C233.443 204.224 233.473 204.585 233.369 204.917C233.265 205.25 233.035 205.53 232.729 205.696C232.423 205.856 232.066 205.889 231.736 205.788C231.406 205.688 231.129 205.461 230.965 205.157C230.686 204.656 203.741 155.13 164.912 152.846C155.998 152.326 150.52 155.873 148.663 163.413C147.447 170.106 147.873 176.995 149.907 183.487C161.467 185.263 172.692 188.776 183.203 193.904C198.523 200.868 208.328 211.898 209.423 223.393C209.834 226.207 209.492 229.08 208.432 231.718C207.372 234.357 205.631 236.668 203.388 238.416C198.504 241.926 191.763 242.019 184.502 238.732C170.835 232.492 154.141 207.813 147.864 185.975C141.253 185.492 136.462 186.644 134.197 189.54C129.443 195.557 135.311 209.819 150.742 229.67C155.422 235.649 159.396 240.255 162.683 243.727C172.209 245.826 177.539 250.895 178.597 253.588C178.903 254.113 178.995 254.737 178.853 255.328C178.711 255.92 178.347 256.434 177.836 256.763C175.217 258.267 169.182 254.275 161.401 246.16C154.872 244.946 148.156 245.162 141.717 246.791C120.956 251.843 115.292 272.697 113.751 284.674C112.971 290.934 112.872 297.26 113.454 303.541C116.885 303.99 120.338 304.257 123.797 304.34C137.632 304.321 147.919 318.657 152.525 330.95C156.888 342.742 156.721 352.974 152.004 357.097C149.739 359.102 145.319 360.588 137.316 356.261C123.741 348.963 113.583 328.295 111.095 305.937L105.58 305.25C87.3258 302.966 64.5962 300.069 59.3966 310.097C54.1969 320.125 67.3072 343.04 98.8573 377.784C102.274 381.535 105.542 385.063 108.662 388.331C132.524 386.196 161.438 390.894 171.837 401.293C179.859 409.315 184.65 423.057 182.292 431.32C181.916 432.65 181.306 433.901 180.49 435.016C184.479 435.798 188.07 437.945 190.648 441.088C191.404 442.33 191.71 443.794 191.514 445.235C191.318 446.675 190.632 448.005 189.571 448.999C184.297 455.09 173.118 458.024 158.355 457.486C145.943 456.83 133.702 454.295 122.051 449.965C118.873 453.128 116.357 456.891 114.648 461.035C112.94 465.18 112.072 469.623 112.097 474.106C111.577 497.987 123.313 509.166 133.229 514.328C143.777 519.825 157.352 521.106 170.945 518.618C174.834 505.89 179.907 493.555 186.098 481.775C192.969 468.404 201.53 461.218 209.552 462.035C212.287 462.475 214.822 463.74 216.817 465.662C218.812 467.584 220.171 470.07 220.712 472.787C223.034 481.385 220.248 495.535 204.501 506.974C195.102 513.801 184.35 518.537 172.969 520.865C169.403 534.383 169.719 544.244 174.139 549.407C178.558 554.569 188.233 555.256 202.161 550.613C206.506 549.165 210.814 547.531 215.011 545.748C218.443 539.66 222.575 533.995 227.323 528.868C244.277 510.205 270.944 491.932 278.242 493.919C279.197 494.069 280.066 494.556 280.693 495.292C281.32 496.028 281.663 496.964 281.659 497.93C281.919 507.215 251.724 532.656 217.017 547.716C213.47 554.569 212.448 560.493 214.157 565.061C216.719 571.82 225.15 576.054 239.3 577.614C245.818 578.338 251.872 578.747 257.517 578.932C257.261 577.781 257.192 576.596 257.313 575.422C259.486 556.054 314.379 535.924 330.609 536.852C335.901 537.131 336.923 539.452 337.015 541.216C337.015 548.904 332.726 557.131 325.261 563.816C315.456 572.581 296.7 582.015 261.677 581.643C265.985 587.437 277.981 592.042 297.053 595.255C317.127 598.653 332.15 597.78 343.626 594.103C342.568 583.203 344.573 569.275 349.773 553.751C355.437 536.722 375.492 522.275 398.222 512.73C401.709 508.33 406.429 505.072 411.778 503.37C418.116 501.212 424.96 501.024 431.407 502.832C445.91 500.176 459.28 499.99 468.546 502.831C480.932 506.787 485.649 515.886 481.824 528.514C480.329 533.35 478.39 538.037 476.03 542.515C478.335 544.068 480.509 545.807 482.529 547.715C486.823 546.349 491.203 545.269 495.64 544.484C502.347 543.089 508.853 540.862 515.008 537.854C498.704 518.801 492.724 493.286 499.967 477.873C505.965 465.301 519.707 462.553 537.645 470.352C543.292 472.669 548.456 476.019 552.872 480.231ZM517.255 536.907C536.141 527.529 555.138 511.652 556.716 497.223C557.831 487.418 551.034 479.247 536.475 472.896C519.781 465.636 507.58 467.846 502.195 479.136C495.863 492.562 500.561 517.873 517.255 536.907ZM175.459 228.76C178.358 231.836 181.778 234.376 185.561 236.262C191.986 239.196 197.78 239.196 201.902 236.262C203.773 234.785 205.216 232.837 206.084 230.618C206.953 228.399 207.214 225.988 206.842 223.634C205.784 213.068 196.555 202.836 182.163 196.318C172.213 191.508 161.636 188.12 150.743 186.254C155.732 202.031 164.19 216.491 175.496 228.574L175.459 228.76ZM473.857 541.308C476.093 537.041 477.933 532.578 479.354 527.975C482.808 516.573 478.964 509.015 467.785 505.561C459.373 502.832 448.194 502.869 435.938 504.8C441.582 507.794 446.075 512.574 448.714 518.393C451.12 523.499 452.423 529.054 452.539 534.698C460.054 535.091 467.357 537.33 473.801 541.215L473.857 541.308ZM468.137 600.695C469.382 601.935 470.894 602.875 472.557 603.443C476.021 604.36 479.676 604.253 483.08 603.136C486.485 602.018 489.492 599.939 491.74 597.148C498.481 589.33 498.703 577.742 492.334 565.356C489.616 560.034 486.096 555.162 481.898 550.909C464.312 557.167 463.068 567.733 464.349 590.741C464.354 594.411 465.701 597.951 468.137 600.695ZM449.772 534.568C449.716 529.34 448.539 524.185 446.318 519.452C444.868 516.214 442.764 513.311 440.137 510.927C437.509 508.542 434.417 506.728 431.054 505.599C420.283 507.774 409.761 511.04 399.652 515.348C394.155 522.405 390.701 532.395 386.987 543.203C379.763 564.206 371.889 587.121 346.467 596.127C347.526 603.463 350.218 609.052 354.526 612.32C364.703 620.082 383.607 615.069 409.196 597.873C411.74 596.146 414.155 594.4 416.42 592.617C413.85 592.925 411.247 592.466 408.936 591.299C405.241 589.201 401.806 583.871 406.392 570.185C413.356 549.368 428.528 536.09 447.005 534.66C447.859 534.623 448.825 534.586 449.772 534.568ZM427.135 586.916C439.999 580.726 451.395 571.863 460.561 560.918C465.233 555.537 469.346 549.695 472.836 543.481C466.76 539.771 459.867 537.61 452.762 537.186C452.13 552.413 444.628 570.315 427.116 586.898L427.135 586.916ZM176.164 254.238C175.455 253.021 174.5 251.965 173.36 251.137C171.33 249.561 169.06 248.32 166.638 247.46C171.745 252.381 174.865 253.941 176.072 254.293L176.164 254.238ZM404.387 510.39C410.99 507.931 417.745 505.902 424.61 504.317C420.591 504.114 416.57 504.649 412.744 505.896C409.661 506.856 406.793 508.4 404.294 510.446L404.387 510.39ZM420.58 589.2C440.264 572.413 449.326 553.249 449.865 537.149C448.973 537.149 448.082 537.186 447.191 537.26C429.884 538.523 415.473 551.225 408.881 571.002C406.69 577.576 405.167 585.858 410.292 588.941C413.534 590.304 417.167 590.416 420.487 589.256L420.58 589.2ZM346.114 593.101C369.977 584.094 377.572 562.274 384.499 542.163C387.098 533.465 390.641 525.077 395.065 517.149C374.434 526.639 357.034 540.065 352.261 554.419C347.266 569.517 345.242 582.869 346.114 593.249L346.114 593.101ZM131.429 348.48C133.507 350.598 135.885 352.4 138.486 353.828C142.162 355.834 147.195 357.635 150.222 355.017C153.973 351.711 153.88 342.148 149.999 331.767C145.672 320.273 136.22 306.847 123.741 306.847C120.376 306.792 117.016 306.556 113.676 306.141C115.645 323.448 122.256 339.455 131.429 348.629L131.429 348.48ZM260.266 578.821C297.443 579.415 315.586 568.811 323.515 561.699C333.32 552.934 334.378 544.336 334.379 541.068C334.379 539.731 331.927 539.396 330.442 539.322C313.246 538.357 261.807 558.747 259.913 575.571C259.774 576.716 259.895 577.877 260.266 578.969L260.266 578.821ZM219.171 543.742C252.578 528.645 279.245 505.21 279.059 497.856C279.022 497.299 278.855 496.723 277.629 496.426C272.467 494.978 247.119 511.041 229.329 530.613C225.548 534.723 222.148 539.167 219.171 543.891L219.171 543.742ZM177.5 434.18C178.57 433.191 179.331 431.914 179.692 430.503C181.79 423.168 177.204 410.336 169.961 403.094C160.491 393.624 133.601 389.241 111.02 390.764C136.09 416.836 152.097 428.127 161.92 432.899C167.152 432.771 172.38 433.251 177.501 434.329L177.5 434.18ZM173.842 517.875C184.338 515.576 194.258 511.166 202.997 504.913C217.518 494.105 220.285 481.348 218.224 473.53C217.845 471.318 216.79 469.279 215.203 467.693C213.617 466.106 211.578 465.051 209.366 464.672C202.458 463.966 194.845 470.614 188.494 482.982C182.543 494.187 177.638 505.917 173.842 518.023L173.842 517.875ZM124.205 447.848C135.196 451.806 146.708 454.133 158.373 454.756C172.227 455.313 182.849 452.564 187.51 447.161C189.757 444.579 188.698 442.927 188.364 442.369C186.915 440.104 183.164 438.247 178.058 437.003C177.198 437.544 176.248 437.927 175.253 438.136C172.078 438.897 167.547 438.414 161.122 435.48C155.159 435.648 149.238 436.521 143.48 438.08C136.419 439.965 129.845 443.347 124.205 447.997L124.205 447.848ZM121.456 446.882C127.635 441.541 134.962 437.696 142.868 435.647C147.37 434.416 151.976 433.601 156.628 433.215C145.579 426.994 129.906 414.441 107.659 391.08C95.8674 392.213 85.5983 395.017 80.1758 399.659C74.7534 404.302 74.6976 410.486 80.12 417.914C89.5348 430.894 104.966 440.68 121.364 446.938L121.456 446.882Z" fill="#263238"/>
<path d="M256.555 191.713C256.693 191.819 256.808 191.951 256.895 192.102C256.982 192.252 257.038 192.419 257.06 192.591C257.083 192.764 257.071 192.939 257.026 193.107C256.98 193.275 256.902 193.432 256.796 193.57C256.69 193.707 256.558 193.823 256.407 193.91C256.257 193.996 256.09 194.052 255.918 194.075C255.745 194.097 255.57 194.086 255.402 194.04C255.234 193.995 255.077 193.917 254.939 193.811C254.512 193.57 224.15 176.727 192.21 174.016C186.135 184.821 178.886 194.922 170.595 204.136C166.999 208.309 162.292 211.374 157.022 212.975C151.752 214.576 146.136 214.647 140.827 213.18C135.126 211.453 131.319 207.386 130.707 202.725C129.852 195.483 136.333 187.331 148.924 179.754C161.514 172.178 176.426 170.116 190.892 171.212C195.813 161.723 199.081 151.621 197.651 142.911C197.128 139.722 195.862 136.701 193.955 134.091C192.049 131.482 189.555 129.357 186.677 127.888C177.93 122.856 161.254 130.767 143.334 148.39C113.585 177.619 90.6325 222.224 103.724 246.198C110.002 257.12 119.129 266.131 130.13 272.27C140.511 261.406 153.194 254.888 164.318 254.127C175.441 253.365 183.148 258.323 186.249 267.627C188.719 275.073 186.286 280.811 179.396 283.801C168.422 288.574 148.366 285.566 130.465 275.724C121.648 285.613 115.685 297.712 113.213 310.728C109.22 331.768 116.407 347.682 126.657 357.933C145.989 356.948 163.11 358.248 167.976 362.408C170.092 364.228 170.167 366.605 168.198 368.944C162.813 375.295 151.17 375.723 139.229 370.022C134.206 367.599 129.594 364.404 125.562 360.551C99.4339 362.055 69.4806 367.608 62.1826 376.02C51.3934 388.481 43.6682 413.81 50.2605 426.567C53.6959 433.197 60.4924 436.057 70.483 435.091C82.3409 433.666 94.104 431.539 105.71 428.721C106.709 425.9 108.117 423.241 109.888 420.829C119.452 408.109 139.248 401.683 170.668 400.903C180.046 400.699 183.76 401.59 183.908 404.116C184.28 410.244 142.349 422.834 107.79 430.801C105.87 438.343 106.082 446.27 108.403 453.698C114.586 476.929 121.271 488.331 130.055 490.689C135.255 492.174 141.494 490.169 148.736 484.784C152.662 478.051 157.128 471.649 162.088 465.638C185.412 437.263 187.789 437.746 188.81 437.95C189.092 438.013 189.349 438.155 189.553 438.359C189.757 438.563 189.898 438.82 189.962 439.101C191.002 442.518 175.217 463.168 159.823 478.563C157.062 481.353 154.115 483.953 151.002 486.343C135.923 512.936 134.883 537.894 144.149 549.648C151.689 559.193 165.133 559.899 182.032 551.654C194.374 545.614 206.348 538.849 217.89 531.394C218.478 526.659 220.249 522.15 223.041 518.281C225.832 514.412 229.553 511.309 233.861 509.258C249.125 501.83 251.261 503 252.133 504.727C253.898 508.385 239.71 520.344 220.304 532.842C219.554 539.238 219.868 545.713 221.233 552.006C226.172 577.187 242.495 600.566 248.085 600.919C248.438 600.938 249.106 600.975 249.57 599.434C251.892 592.507 248.976 580.455 246.135 568.812C242.978 555.813 240.007 543.557 244.501 538.431C245.484 537.441 246.698 536.711 248.034 536.309C249.37 535.907 250.786 535.845 252.152 536.129C261.511 537.169 272.114 550.966 284.426 566.992C300.805 588.347 321.176 614.883 343.961 616.239C352.262 616.74 357.257 615.645 359.244 612.952C362.03 609.164 359.077 601.643 355.809 592.766C351.482 581.457 346.115 567.363 349.681 553.621C350.758 549.498 352.411 547.177 354.992 546.75C361.584 545.432 370.943 557.873 382.828 573.621C397.888 593.62 416.607 618.541 429.16 610.556C442.289 602.181 431.927 578.077 421.732 554.586C412.819 533.788 404.258 514.048 411.092 503.76C417.926 493.473 453.153 507.01 490.33 521.123C521.193 532.747 556.16 545.913 561.879 538.968C563.644 536.833 562.455 532.116 558.258 525.468C535.418 488.44 515.566 472.488 506.04 464.819C500.581 460.399 498.092 458.394 499.318 455.905C499.393 455.749 499.499 455.61 499.63 455.496C499.76 455.382 499.913 455.296 500.077 455.242C500.242 455.188 500.416 455.168 500.589 455.183C500.761 455.198 500.929 455.248 501.082 455.33C501.391 455.484 501.626 455.754 501.737 456.081C501.848 456.407 501.826 456.765 501.676 457.075C501.62 457.874 504.703 460.362 507.693 462.758C517.331 470.538 537.423 486.694 560.487 524.094C565.408 532.06 566.466 537.501 563.885 540.639C556.977 549.033 525.668 537.223 489.401 523.574C456.365 511.114 418.91 497.02 413.265 505.487C407.211 514.587 415.827 534.531 424.128 553.825C434.675 578.226 445.557 603.481 430.534 613.044C415.994 622.311 397.238 597.427 380.711 575.478C370.739 562.274 360.47 548.626 355.475 549.61C354.082 549.888 352.986 551.541 352.206 554.55C348.864 567.474 354.063 581.142 358.241 592.116C362.011 602.014 364.889 609.906 361.343 614.79C358.761 618.3 353.172 619.693 343.775 619.136C319.802 617.743 299.022 590.65 282.346 568.849C270.499 553.287 260.156 539.936 251.91 539.007C250.963 538.789 249.976 538.807 249.037 539.059C248.098 539.312 247.235 539.791 246.525 540.456C242.941 544.522 245.875 556.704 248.753 568.459C251.632 580.214 254.64 592.916 252.114 600.529C251.935 601.488 251.411 602.348 250.641 602.946C249.872 603.545 248.909 603.841 247.936 603.779C239.803 603.259 223.535 577.447 218.67 552.786C217.444 546.916 217.031 540.905 217.445 534.922C206.39 541.984 194.966 548.449 183.22 554.291C158.782 566.213 146.972 557.67 142.144 551.542C132.915 539.862 132.543 516.278 146.192 489.89C139.99 493.567 134.475 494.7 129.516 493.381C119.712 490.745 112.469 478.749 106.007 454.496C103.748 447.063 103.416 439.178 105.042 431.581C93.7854 434.275 82.3916 436.358 70.9101 437.821C56.9827 439.158 50.7989 433.16 48.0878 427.886C40.3999 412.77 50.1678 386.178 60.3628 374.423C67.8279 365.807 97.057 360.013 123.352 358.267C113.38 347.441 106.695 331.285 110.706 310.264C113.207 296.88 119.276 284.42 128.274 274.201C117.086 267.823 107.818 258.555 101.44 247.368C86.3987 219.698 115.832 171.658 141.57 146.366C160.623 127.61 178.079 119.736 188.032 125.456C191.249 127.106 194.033 129.488 196.162 132.41C198.29 135.332 199.704 138.712 200.288 142.28C201.811 151.231 198.58 161.593 193.659 171.193C225.228 174.09 254.475 190.338 256.276 191.36C256.398 191.452 256.494 191.573 256.555 191.713ZM135.758 207.405C137.407 208.954 139.398 210.092 141.57 210.729C146.396 211.978 151.474 211.856 156.234 210.377C160.995 208.897 165.248 206.119 168.515 202.354C176.418 193.586 183.371 184.006 189.258 173.775C175.646 173.013 161.867 174.945 150.149 181.983C134.439 191.416 132.768 198.807 133.306 202.28C133.497 204.223 134.365 206.037 135.758 207.405ZM132.415 273.551C149.387 282.762 168.254 285.733 178.301 281.369C183.946 278.917 185.766 274.572 183.872 268.37C181.142 260.18 174.29 256.039 164.671 256.596C154.049 257.414 142.22 263.449 132.415 273.551ZM129.387 360.365C132.729 363.29 136.444 365.756 140.436 367.7C151.3 372.881 161.68 372.714 166.248 367.292C167.585 365.732 167.028 365.026 166.341 364.413C162.163 360.792 146.992 359.585 129.387 360.365ZM108.997 428.071C141.754 420.42 178.727 408.962 181.383 404.487C180.826 404.153 178.69 403.466 171.021 403.707C140.863 404.45 121.105 410.801 112.284 422.556C110.97 424.255 109.866 426.107 108.997 428.071ZM155.422 479.435C156.313 478.544 157.279 477.578 158.151 476.706C168.706 466.367 178.119 454.924 186.229 442.574C178.395 450.381 171.046 458.66 164.224 467.365C161.063 471.21 158.1 475.214 155.347 479.361L155.422 479.435ZM221.084 529.574C237.63 518.636 248.549 509.24 249.757 506.25C248.717 506.25 245.411 506.881 235.123 511.784C231.564 513.448 228.438 515.913 225.99 518.987C223.541 522.06 221.837 525.658 221.01 529.499L221.084 529.574Z" fill="#263238"/>
<path d="M279.526 124.62C293.621 138.714 303.054 160.515 299.303 174.108C299.272 174.291 299.203 174.465 299.1 174.618C298.997 174.772 298.863 174.902 298.707 175.001C298.55 175.099 298.374 175.163 298.191 175.189C298.008 175.215 297.822 175.201 297.644 175.15C297.466 175.099 297.302 175.01 297.16 174.891C297.019 174.772 296.905 174.624 296.825 174.457C296.745 174.29 296.701 174.109 296.696 173.924C296.691 173.739 296.725 173.555 296.796 173.384C301.401 157.266 284.8 127.331 265.655 117.21C262.981 115.799 261.049 115.391 260.158 116.022C257.874 117.675 259.359 126.588 260.789 135.223C262.832 147.479 265.413 162.725 261.588 174.202C260.343 177.897 258.653 179.81 256.332 180.088C250.446 180.738 243.315 169.002 235.051 155.428C227.456 142.893 218.004 127.238 212.452 129.114C202.963 132.29 208.738 181.11 214.494 211.23C214.527 211.4 214.526 211.574 214.492 211.743C214.457 211.912 214.39 212.073 214.293 212.216C214.197 212.359 214.073 212.482 213.929 212.577C213.785 212.673 213.624 212.739 213.454 212.771C213.285 212.804 213.11 212.804 212.941 212.769C212.772 212.735 212.611 212.667 212.468 212.571C212.325 212.474 212.202 212.35 212.107 212.206C212.012 212.062 211.946 211.901 211.913 211.732C210.334 203.542 196.816 131.565 211.598 126.626C219.1 124.1 227.939 138.659 237.28 154.053C244.095 165.251 251.801 177.934 256.017 177.47C257.446 177.303 258.393 175.093 259.043 173.366C262.665 162.503 260.158 147.628 258.152 135.669C256.295 124.564 254.958 116.579 258.617 113.849C261.031 112.104 264.485 113.589 266.862 114.852C271.545 117.461 275.814 120.753 279.526 124.62Z" fill="#263238"/>
<path d="M330.743 159.902C330.888 160 331.012 160.127 331.109 160.273C331.205 160.42 331.271 160.585 331.304 160.757C331.337 160.929 331.335 161.107 331.299 161.278C331.264 161.45 331.195 161.613 331.096 161.759C330.997 161.904 330.871 162.028 330.724 162.124C330.577 162.22 330.413 162.287 330.24 162.32C330.068 162.352 329.891 162.351 329.719 162.315C329.547 162.279 329.384 162.21 329.239 162.111C328.812 161.944 287.884 144.675 249.852 150.431C233.232 152.938 215.999 169.429 203.65 194.479C192.675 216.596 188.813 239.92 194.272 249.762C194.44 250.068 194.481 250.428 194.388 250.765C194.294 251.101 194.073 251.388 193.771 251.563C193.465 251.731 193.106 251.77 192.772 251.673C192.437 251.575 192.155 251.349 191.988 251.043C186.027 240.329 189.853 216.596 201.273 193.477C213.957 167.646 231.97 150.636 249.462 147.999C288.199 142.168 329.833 159.697 330.242 159.883C330.408 159.847 330.58 159.854 330.743 159.902Z" fill="#263238"/>
<path d="M42.1244 585.452C45.8383 589.166 49.7009 593.622 53.9162 598.432C60.7854 606.569 68.0746 614.342 75.7543 621.718C85.9677 631.263 90.6287 642.164 89.5887 654.123C88.2887 669.647 76.9238 686.026 59.3938 697.688C56.2529 699.961 52.6816 701.57 48.8981 702.416C45.1145 703.262 41.1982 703.328 37.3884 702.609C23.4053 699.768 14.0647 686.713 12.7091 684.801C9.11465 682.261 5.73586 679.429 2.60714 676.333C1.10363 674.987 -0.470886 673.722 -2.10961 672.545C-11.8031 665.117 -31.9885 649.648 -37.6522 625.637C-40.0662 615.387 -37.3921 604.988 -29.8898 595.591C-19.342 582.295 0.137926 572.249 15.4767 572.249C26.0801 572.081 34.0094 577.337 42.1244 585.452ZM69.0692 618.896C62.4769 612.304 56.9431 605.916 51.9292 600.159C39.0604 585.396 29.7755 574.737 15.3838 574.755C2.9791 574.756 -16.4079 582.592 -27.8842 597.114C-31.1481 600.882 -33.4994 605.352 -34.7555 610.177C-36.0115 615.001 -36.1385 620.05 -35.1266 624.932C-29.6858 648.051 -10.0018 663.13 -0.549743 670.353C1.18043 671.613 2.84177 672.964 4.42701 674.402C7.51014 677.457 10.846 680.246 14.399 682.74C14.5572 682.823 14.6866 682.953 14.7704 683.111C14.9003 683.241 24.2038 697.224 37.9455 700.009C41.415 700.655 44.9798 700.586 48.4218 699.807C51.8638 699.028 55.1107 697.555 57.9639 695.478C74.9183 684.169 85.7818 668.626 86.9518 653.9C87.8803 642.832 83.4793 632.675 73.9159 623.668C72.3003 622.016 70.6476 620.437 69.0877 618.877L69.0692 618.896Z" fill="#263238"/>
<path d="M36.0719 641.642C36.1756 641.71 36.2642 641.799 36.3319 641.902L48.6815 664.541C48.7681 664.691 48.8233 664.857 48.844 665.029C48.8646 665.202 48.8502 665.376 48.8016 665.543C48.753 665.709 48.6713 665.864 48.5613 665.998C48.4513 666.133 48.3153 666.243 48.1616 666.323C47.8548 666.484 47.4978 666.519 47.1654 666.423C46.833 666.326 46.5511 666.104 46.3787 665.803L34.0291 643.165C33.9439 643.012 33.8903 642.843 33.8713 642.669C33.8524 642.495 33.8685 642.319 33.9186 642.151C33.9688 641.983 34.0521 641.827 34.1635 641.692C34.275 641.557 34.4124 641.445 34.5676 641.364C34.8161 641.247 35.0947 641.211 35.3645 641.261C35.6343 641.311 35.8817 641.445 36.0719 641.642Z" fill="#263238"/>
<path d="M28.5316 641.644C28.6535 641.762 28.7507 641.904 28.8176 642.06C28.8845 642.216 28.9199 642.384 28.9216 642.554L29.2929 668.923C29.3081 669.104 29.2858 669.285 29.2275 669.457C29.1692 669.628 29.0762 669.785 28.9542 669.919C28.8322 670.053 28.6839 670.159 28.5186 670.233C28.3533 670.307 28.1746 670.345 27.9937 670.347C27.8128 670.348 27.6335 670.312 27.4672 670.241C27.3009 670.169 27.1511 670.064 27.0272 669.933C26.9033 669.801 26.8081 669.645 26.7474 669.474C26.6867 669.304 26.6619 669.123 26.6745 668.942L26.3032 642.572C26.2984 642.31 26.3723 642.052 26.5154 641.832C26.6585 641.612 26.8643 641.44 27.1061 641.338C27.348 641.236 27.6148 641.209 27.8722 641.26C28.1296 641.312 28.3658 641.439 28.5502 641.625L28.5316 641.644Z" fill="#263238"/>
<path d="M20.6601 622.777C20.8923 623.019 21.0235 623.339 21.027 623.674C21.0304 624.009 20.9058 624.333 20.6787 624.579C20.5651 624.707 20.427 624.812 20.2725 624.886C20.118 624.961 19.9502 625.004 19.7789 625.012C19.6076 625.021 19.4363 624.995 19.2751 624.937C19.1139 624.878 18.966 624.788 18.8401 624.672L3.05469 610.26C2.80445 610.021 2.65686 609.693 2.64301 609.347C2.62916 609.001 2.75013 608.662 2.98043 608.403C3.09742 608.276 3.23825 608.174 3.39494 608.101C3.55163 608.029 3.72109 607.988 3.89358 607.981C4.06606 607.974 4.2382 608.001 4.40018 608.061C4.56215 608.121 4.71077 608.212 4.83752 608.329L20.6043 622.722L20.6601 622.777Z" fill="#263238"/>
<path d="M19.3588 629.535C19.5009 629.673 19.6087 629.842 19.6732 630.03C19.7377 630.217 19.7572 630.416 19.7302 630.613C19.7157 630.784 19.6669 630.951 19.5866 631.104C19.5063 631.256 19.3962 631.391 19.2628 631.5C19.1295 631.609 18.9756 631.69 18.8102 631.739C18.6449 631.787 18.4714 631.802 18.3003 631.782L-10.1693 628.681C-10.341 628.667 -10.5081 628.618 -10.6605 628.538C-10.813 628.457 -10.9478 628.347 -11.0569 628.214C-11.166 628.081 -11.2472 627.927 -11.2957 627.761C-11.3442 627.596 -11.359 627.423 -11.3393 627.251C-11.3011 626.903 -11.1282 626.584 -10.8574 626.362C-10.5867 626.139 -10.2396 626.032 -9.89074 626.063L18.5788 629.164C18.8764 629.185 19.155 629.318 19.3588 629.535Z" fill="#263238"/>
<path d="M35.3855 603.222C35.5486 603.388 35.6666 603.592 35.7283 603.817C35.7901 604.041 35.7935 604.277 35.7384 604.503C35.7384 604.503 32.2285 618.004 39.2481 626.286C46.2677 634.569 59.9912 634.067 60.1212 634.049C60.2992 634.029 60.4792 634.046 60.6503 634.099C60.8213 634.152 60.9798 634.239 61.116 634.355C61.2522 634.471 61.3632 634.614 61.4422 634.775C61.5212 634.935 61.5665 635.11 61.5754 635.289C61.5842 635.468 61.5565 635.646 61.4938 635.814C61.4311 635.982 61.3348 636.135 61.2107 636.264C61.0867 636.393 60.9376 636.495 60.7726 636.565C60.6076 636.634 60.4302 636.669 60.2512 636.667C59.657 636.704 45.0977 637.299 37.2239 627.976C29.35 618.654 33.0456 604.41 33.1942 603.816C33.2864 603.478 33.507 603.19 33.809 603.013C34.111 602.836 34.4702 602.784 34.8098 602.869C35.0261 602.941 35.223 603.062 35.3855 603.222Z" fill="#263238"/>
<path d="M30.5755 443.355C30.7473 443.53 30.8675 443.749 30.9232 443.989C30.9789 444.228 30.9678 444.477 30.8912 444.711C29.8141 447.83 4.76286 521.163 -5.3578 531.284C-8.79092 534.387 -12.8158 536.765 -17.1908 538.275C-21.5658 539.784 -26.2007 540.394 -30.8172 540.067C-35.1649 539.901 -39.4258 538.8 -43.3097 536.839C-47.1936 534.878 -50.6091 532.103 -53.3238 528.703C-66.1741 512.436 -56.4619 485.936 -56.0348 484.841C-55.9693 484.661 -55.8682 484.497 -55.7377 484.358L-44.0386 472.659C-43.883 472.504 -43.6909 472.39 -43.4801 472.328C-43.2692 472.267 -43.0462 472.259 -42.8316 472.306C-42.6246 472.367 -42.4362 472.478 -42.2837 472.631C-42.1311 472.783 -42.0195 472.972 -41.9588 473.179L-38.7091 481.628L-22.5717 456.243C-22.4614 456.082 -22.3185 455.945 -22.1521 455.843C-21.9858 455.74 -21.7997 455.674 -21.606 455.649C-21.4102 455.627 -21.2123 455.65 -21.0261 455.714C-20.8399 455.778 -20.6702 455.883 -20.529 456.02L-12.0983 464.451L6.23026 452.51C6.50584 452.333 6.8377 452.265 7.16067 452.32C7.48364 452.375 7.77436 452.549 7.97581 452.807L12.8411 459.084L28.5142 443.411C28.7232 443.201 28.998 443.07 29.2923 443.04C29.5866 443.01 29.8823 443.081 30.1298 443.244L30.5755 443.355ZM-48.96 529.576C-44.0382 534.398 -37.4985 537.218 -30.6129 537.486C-26.3708 537.791 -22.1109 537.234 -18.0897 535.849C-14.0685 534.464 -10.3692 532.279 -7.21478 529.427C0.956026 521.256 20.4176 466.735 26.5272 449.26L13.8624 461.925C13.7302 462.06 13.5705 462.164 13.3943 462.231C13.218 462.299 13.0293 462.327 12.8411 462.315C12.6572 462.301 12.4782 462.249 12.3152 462.163C12.1523 462.077 12.0089 461.958 11.894 461.814L6.76879 455.24L-11.4113 467.106C-11.6621 467.278 -11.9657 467.356 -12.2682 467.325C-12.5707 467.294 -12.8526 467.158 -13.0639 466.939L-21.1047 458.898L-37.762 485.101C-37.8912 485.308 -38.0755 485.475 -38.2943 485.583C-38.5132 485.691 -38.7579 485.736 -39.0009 485.713C-39.2439 485.69 -39.4757 485.6 -39.6702 485.452C-39.8646 485.304 -40.0141 485.106 -40.1019 484.878L-43.5558 475.89L-53.6393 485.973C-54.605 488.722 -62.5159 512.751 -51.2254 527.05C-50.5207 527.936 -49.7643 528.779 -48.96 529.576Z" fill="#263238"/>
<path d="M35.6286 428.388C35.7824 428.544 35.897 428.735 35.9629 428.945C36.0368 429.196 36.0318 429.465 35.9489 429.714C35.8659 429.963 35.7088 430.18 35.4987 430.337L14.6074 446.215C14.425 446.363 14.205 446.457 13.972 446.486C13.7391 446.516 13.5025 446.48 13.289 446.382L4.78394 442.519L-7.93646 452.083C-8.21502 452.286 -8.55913 452.379 -8.9021 452.343L-27.2677 449.948L-34.3429 461.739C-34.4804 461.967 -34.6836 462.147 -34.9256 462.256C-35.1676 462.366 -35.4371 462.399 -35.6986 462.352L-45.0578 460.792L-61.288 477.023C-61.4635 477.2 -61.6869 477.323 -61.9309 477.376C-62.1749 477.428 -62.4289 477.409 -62.6621 477.32C-66.8389 475.584 -70.6078 472.997 -73.7285 469.722C-76.8491 466.448 -79.2528 462.56 -80.7863 458.304C-83.03 452.613 -84.0633 446.516 -83.8203 440.403C-83.5773 434.29 -82.0633 428.294 -79.3748 422.799C-67.9913 399.196 -29.9973 409.632 -8.36341 417.97C5.53543 423.14 20.0387 426.51 34.793 427.998C35.1084 428.027 35.4037 428.165 35.6286 428.388ZM13.6975 443.596L31.3204 430.207C17.4889 428.556 3.90071 425.278 -9.1619 420.44C-29.9602 412.455 -66.3943 402.279 -76.8493 423.987C-79.3856 429.149 -80.8163 434.783 -81.0498 440.529C-81.2833 446.275 -80.3143 452.007 -78.205 457.357C-76.8376 461.107 -74.7448 464.551 -72.046 467.492C-69.3473 470.433 -66.0955 472.813 -62.4765 474.497L-46.3763 458.397C-46.2258 458.251 -46.0436 458.141 -45.8439 458.077C-45.6443 458.012 -45.4324 457.995 -45.2249 458.026L-36.1813 459.641L-29.1062 447.886C-28.9789 447.667 -28.7886 447.492 -28.56 447.382C-28.3314 447.273 -28.0753 447.235 -27.8248 447.273L-9.12494 449.632L3.81834 439.92C4.00942 439.782 4.23299 439.695 4.46729 439.669C4.70159 439.643 4.93865 439.678 5.15537 439.771L13.6975 443.596Z" fill="#263238"/>
<path d="M44.8354 424.263C45.988 425.509 47.0318 426.851 47.9553 428.275L48.5496 429.129C48.7916 429.437 48.9481 429.804 49.0035 430.192C49.0589 430.58 49.0113 430.975 48.8653 431.339C48.141 433.177 44.8725 433.995 43.5167 434.273L43.2939 434.347L38.2239 434.329C38.0517 434.334 37.8802 434.305 37.72 434.241C37.5598 434.178 37.4143 434.082 37.2925 433.96C37.1707 433.839 37.0751 433.693 37.0117 433.533C36.9483 433.373 36.9184 433.201 36.9239 433.029C36.913 431.372 37.0061 429.716 37.2025 428.07C37.4528 427.001 37.9444 426.004 38.6397 425.154C39.335 424.304 40.2156 423.625 41.2139 423.168C42.4396 422.35 43.5354 422.963 44.8354 424.263ZM46.3024 430.485L45.801 429.76C44.8128 428.213 43.6404 426.791 42.3096 425.526C41.699 425.788 41.1541 426.182 40.7141 426.68C40.2742 427.177 39.9502 427.767 39.7654 428.405C39.6354 429.426 39.561 430.726 39.431 431.785L43.1453 431.785C44.2633 431.532 45.3307 431.092 46.3024 430.485Z" fill="#263238"/>
<path d="M42.2572 444.19C42.4073 444.284 42.5343 444.411 42.6287 444.561C43.0319 445.548 43.373 446.559 43.65 447.588C43.767 448.332 43.7141 449.092 43.4954 449.813C43.2767 450.533 42.8979 451.195 42.3872 451.748C41.0873 453.456 38.6731 451.748 36.5932 450.485L36.1475 450.04C35.8663 449.872 35.632 449.636 35.4665 449.353C35.3009 449.071 35.2094 448.751 35.2004 448.424C35.3775 447.707 35.704 447.035 36.1584 446.453C36.6128 445.87 37.1849 445.39 37.8374 445.044L38.0232 444.858L40.9573 443.67C41.2878 443.546 41.6529 443.553 41.9787 443.688C42.103 443.836 42.1976 444.006 42.2572 444.19ZM40.493 449.854C40.6841 449.645 40.8291 449.398 40.9187 449.129C41.0083 448.86 41.0404 448.576 41.013 448.294C40.9016 447.848 40.7159 447.328 40.5487 446.864L38.9888 447.495C38.6132 447.757 38.2592 448.049 37.9302 448.368C38.7477 448.929 39.6113 449.42 40.5116 449.835L40.493 449.854Z" fill="#263238"/>
<path d="M53.4519 435.332C53.5943 435.422 53.7149 435.542 53.8047 435.685C54.2079 436.671 54.549 437.682 54.826 438.712C54.9449 439.461 54.8931 440.228 54.6745 440.955C54.4558 441.681 54.076 442.349 53.5633 442.909C52.2819 444.599 49.8491 442.909 47.7692 441.609L47.2307 441.256C46.9522 441.091 46.7207 440.858 46.5581 440.579C46.3955 440.299 46.3074 439.982 46.3021 439.659C46.2836 438.229 47.9364 436.91 48.9392 436.279C48.9778 436.208 49.0358 436.15 49.1063 436.112L52.0591 434.905C52.3767 434.78 52.7307 434.787 53.0433 434.923C53.2142 435.02 53.3554 435.161 53.4519 435.332ZM51.5948 440.903C52.0219 440.29 52.2447 439.807 52.1147 439.343L51.6876 437.913L50.1277 438.545C49.7456 438.798 49.3908 439.091 49.0692 439.417C49.8747 439.972 50.7186 440.469 51.5948 440.903Z" fill="#263238"/>
<path d="M436.701 632.283C438.372 633.954 440.006 635.588 441.603 637.185L446.134 641.716C455.809 651.391 459.839 667.937 458.39 692.264C457.759 704.037 451.166 704.501 444.221 705.058C439.625 705.138 435.101 706.215 430.962 708.215C420.876 713.53 411.313 719.785 402.402 726.897C390.981 735.792 366.543 731.298 327.714 713.193C284.52 693.026 270.091 690.593 269.627 690.501C266.935 690.185 244.112 687.27 239.098 680.176C236.352 676.594 234.893 672.191 234.957 667.678C234.772 665.45 234.549 662.627 233.917 658.802C231.726 645.692 240.008 642.386 249.591 638.523C256.071 635.942 259.488 635.757 261.252 636.109L271.67 612.47C271.77 612.245 271.931 612.053 272.134 611.915C272.338 611.777 272.576 611.699 272.822 611.69C273.066 611.683 273.308 611.744 273.521 611.865C273.734 611.986 273.909 612.163 274.029 612.377L284.558 632.488L303.592 632.507C303.764 632.501 303.935 632.533 304.093 632.599C315.518 637.074 327.372 640.366 339.469 642.423C345.649 643.076 351.566 645.266 356.683 648.792C357.948 649.848 359.425 650.62 361.014 651.056C362.603 651.492 364.267 651.581 365.894 651.317C372.133 650.76 379.821 643.184 387.918 635.162C392.876 629.99 398.221 625.204 403.907 620.844C414.937 612.859 426.636 622.218 436.701 632.283ZM241.642 679.414C246.508 684.28 263.462 687.307 269.831 688.031C270.426 688.105 284.409 690.278 328.661 710.909C365.986 728.327 390.201 733.044 400.619 724.928C409.64 717.71 419.328 711.368 429.551 705.987C434.003 703.792 438.887 702.613 443.85 702.533C450.777 702.031 455.048 701.623 455.716 692.115C457.035 668.513 453.377 652.635 444.259 643.518L439.691 638.95C428.772 627.585 416.516 614.846 405.169 622.998C399.595 627.272 394.356 631.965 389.496 637.037C381.084 645.449 373.062 653.286 365.875 653.936C363.947 654.232 361.978 654.122 360.095 653.613C358.212 653.105 356.455 652.209 354.938 650.983C350.152 647.658 344.598 645.606 338.8 645.022C326.566 642.971 314.57 639.686 302.998 635.218L283.443 635.199C283.201 635.195 282.964 635.128 282.755 635.004C282.547 634.881 282.374 634.705 282.255 634.494L272.636 616.109L262.831 638.393C262.746 638.589 262.613 638.759 262.444 638.889C262.275 639.019 262.076 639.104 261.865 639.136C261.656 639.177 261.441 639.166 261.237 639.104C261.033 639.043 260.847 638.933 260.695 638.783C260.695 638.783 258.56 637.725 250.222 641.049C239.767 645.227 234.419 647.901 236.164 658.449C236.833 662.386 237.056 665.246 237.241 667.548C237.152 671.58 238.464 675.519 240.955 678.69C241.163 678.951 241.393 679.193 241.642 679.414Z" fill="#263238"/>
<path d="M415.266 674.548C415.388 674.635 415.495 674.742 415.582 674.864C415.73 675.179 415.746 675.54 415.628 675.867C415.509 676.195 415.266 676.462 414.951 676.61C414.004 677.074 391.794 687.622 374.97 690.593C362.323 692.803 349.882 687.566 340.801 683.722C338.198 682.498 335.511 681.461 332.76 680.621C325.072 678.69 307.487 678.671 307.301 678.671L307.022 678.653C302.176 677.52 288.452 674.939 284.776 675.682C284.605 675.716 284.429 675.716 284.258 675.682C284.088 675.649 283.925 675.581 283.78 675.485C283.635 675.388 283.511 675.264 283.414 675.12C283.317 674.975 283.25 674.813 283.216 674.642C283.182 674.471 283.181 674.295 283.215 674.125C283.249 673.954 283.316 673.791 283.413 673.647C283.509 673.502 283.633 673.377 283.778 673.28C283.923 673.184 284.085 673.116 284.256 673.082C289.214 672.098 305.035 675.515 307.375 675.96C309.214 675.979 325.611 676.071 333.317 677.984C336.179 678.849 338.977 679.91 341.692 681.16C350.476 684.892 362.528 690.036 374.394 687.863C390.884 684.966 413.484 674.214 413.706 674.103C413.977 673.981 414.282 673.96 414.568 674.041C414.853 674.123 415.1 674.302 415.266 674.548Z" fill="#263238"/>
<path d="M411.311 654.734L411.608 655.031C411.756 655.347 411.774 655.708 411.66 656.037C411.545 656.367 411.307 656.639 410.995 656.795C410.048 657.259 387.987 667.77 380.021 669.757C372.054 671.744 350.903 665.449 348.749 664.855L328.099 663.852L287.431 660.881C287.26 660.871 287.092 660.827 286.938 660.751C286.784 660.675 286.646 660.569 286.534 660.439C286.421 660.31 286.336 660.159 286.283 659.995C286.23 659.832 286.21 659.66 286.224 659.488C286.253 659.141 286.417 658.818 286.681 658.589C286.944 658.36 287.287 658.243 287.635 658.263L328.266 661.234L349.102 662.162L349.417 662.218C349.566 662.366 371.943 669.033 379.426 667.157C386.91 665.282 409.677 654.474 409.9 654.362C410.146 654.285 410.409 654.278 410.659 654.344C410.909 654.41 411.135 654.545 411.311 654.734Z" fill="#263238"/>
<path d="M356.567 759.877C358.958 762.33 360.795 765.269 361.952 768.493C367.634 783.498 359.408 794.139 352.165 803.535C349.091 807.201 346.438 811.2 344.255 815.457C341.92 821.591 340.548 828.049 340.188 834.602C339.185 843.665 338.238 852.225 332.407 855.642C324.719 860.173 313.781 855.215 297.217 847.713C292.667 845.652 287.486 843.293 281.804 840.842C265.147 833.804 259.056 839.524 252.593 845.615C249.661 848.711 246.179 851.236 242.324 853.061C233.355 856.757 220.69 846.098 205.964 833.712C197.8 826.538 189.185 819.895 180.171 813.824C159.874 800.955 155.324 801.048 154.693 801.159C154.472 801.345 154.2 801.461 153.913 801.493C134.415 803.165 105.186 787.826 95.9752 771.076C86.7646 754.326 96.9224 737.855 106.022 723.63C108.95 719.288 111.593 714.76 113.933 710.074C117.27 702.973 120.166 695.674 122.605 688.217C125.483 679.545 127.396 673.807 131.704 672.024C136.012 670.241 141.063 671.467 145.91 672.674C148.713 673.486 151.596 673.99 154.508 674.178C157.275 674.234 161.416 669.944 166.077 662.2C166.527 661.437 167.21 660.837 168.025 660.49C168.841 660.142 169.746 660.065 170.608 660.269C171.539 660.446 172.388 660.92 173.028 661.619C173.667 662.319 174.063 663.207 174.155 664.15L177.238 690.779C180.357 692.636 195.083 701.68 198.667 706.972C201.768 711.559 206.504 715.811 220.004 716.053C222.102 716.109 224.201 716.09 226.355 716.09C241.342 715.563 256.3 717.772 270.495 722.608C280.28 725.443 289.389 730.231 297.273 736.684C302.039 740.527 307.214 743.834 312.705 746.544C319.056 749.227 325.795 750.876 332.667 751.428C341.878 752.728 350.587 753.898 356.567 759.877ZM153.523 799.135C153.701 799.009 153.904 798.92 154.117 798.875C158.407 797.668 171.592 805.207 181.879 811.781C190.98 817.93 199.687 824.64 207.951 831.873C221.934 843.665 234.042 853.841 241.6 850.666C245.171 848.958 248.394 846.603 251.108 843.721C257.886 837.351 264.905 830.74 283.048 838.521C288.675 840.917 293.874 843.256 298.48 845.373C314.264 852.541 324.719 857.276 331.255 853.451C335.935 850.703 336.845 842.773 337.774 834.38C338.151 827.558 339.585 820.836 342.026 814.454C344.303 810.003 347.075 805.823 350.29 801.994C357.439 792.727 364.849 783.126 359.686 769.496C354.988 757.147 344.589 755.736 332.556 754.102C325.388 753.504 318.364 751.748 311.758 748.902C306.108 746.125 300.783 742.731 295.88 738.782C288.214 732.507 279.358 727.845 269.845 725.078C255.919 720.334 241.244 718.169 226.54 718.69C224.368 718.708 222.251 718.708 220.134 718.671C208.398 718.448 201.378 715.403 196.662 708.421C193.059 703.11 175.678 692.785 175.492 692.674C175.317 692.574 175.169 692.435 175.059 692.267C174.949 692.099 174.881 691.908 174.861 691.708L171.63 664.336C171.576 663.951 171.398 663.594 171.124 663.319C170.849 663.044 170.492 662.867 170.107 662.813C169.779 662.729 169.433 662.754 169.122 662.885C168.81 663.016 168.549 663.245 168.38 663.537C163.162 672.47 158.408 676.852 154.508 676.778C151.422 676.559 148.371 675.999 145.409 675.107C140.766 673.955 136.458 672.915 132.856 674.327C129.253 675.738 127.916 680.938 125.205 688.96C122.798 696.599 119.927 704.085 116.607 711.374C114.217 716.168 111.518 720.801 108.529 725.246C99.8379 738.839 89.9586 754.289 98.5749 769.999C107.191 785.709 135.195 800.454 153.523 799.135Z" fill="#263238"/>
<path d="M301.861 809.05C301.991 809.163 302.098 809.301 302.175 809.456C302.252 809.61 302.298 809.779 302.31 809.951C302.335 810.299 302.22 810.643 301.991 810.907C301.762 811.17 301.437 811.332 301.089 811.356C300.741 811.381 300.397 811.266 300.134 811.037C300.041 810.944 287.933 802.253 275.714 804.259C271.343 805.11 267.168 806.766 263.402 809.143C258.667 811.835 254.247 814.324 247.562 811.873C241.657 809.681 235.789 804.556 230.144 799.579C226.303 795.775 221.946 792.531 217.201 789.942C208.993 786.413 194.49 779.561 192.651 778.688L170.2 776.145C170.025 776.117 169.856 776.06 169.699 775.977L161.714 771.335C161.415 771.161 161.196 770.877 161.106 770.543C161.016 770.209 161.061 769.853 161.231 769.552C161.411 769.255 161.698 769.038 162.032 768.945C162.367 768.852 162.725 768.89 163.032 769.051L170.776 773.563L193.153 776.107C193.295 776.116 193.434 776.153 193.561 776.219C193.673 776.33 209.55 783.777 218.241 787.528C223.272 790.187 227.894 793.558 231.964 797.537C237.423 802.365 243.087 807.36 248.565 809.347C254.043 811.334 257.497 809.44 262.233 806.821C266.267 804.293 270.739 802.542 275.417 801.659C288.75 799.468 301.285 808.511 301.824 808.901L301.861 809.05Z" fill="#263238"/>
<path d="M311.574 790.313C311.745 790.484 311.867 790.699 311.926 790.935C311.985 791.17 311.979 791.417 311.908 791.65C311.791 791.979 311.553 792.25 311.242 792.409C310.931 792.568 310.572 792.602 310.237 792.504C310.051 792.318 283.292 783.832 273.505 786.784C262.809 790.053 245.65 788.345 235.66 780.062C225.669 771.78 203.868 760.156 196.849 760.676C189.012 761.27 178.855 760.1 173.915 755.16C173.675 754.911 173.541 754.578 173.541 754.232C173.541 753.886 173.675 753.553 173.915 753.304C174.161 753.057 174.495 752.919 174.844 752.919C175.192 752.919 175.526 753.057 175.772 753.303C180.117 757.649 189.737 758.577 196.645 758.057C204.908 757.444 227.526 769.886 237.35 778.038C246.746 785.838 262.753 787.36 272.818 784.352C283.403 781.195 309.995 789.7 311.109 790.071C311.279 790.119 311.437 790.201 311.574 790.313Z" fill="#263238"/>
<path d="M320.451 772.412C320.631 772.582 320.757 772.801 320.813 773.042C320.869 773.283 320.853 773.535 320.767 773.767C320.711 773.931 320.624 774.082 320.509 774.211C320.395 774.341 320.256 774.447 320.101 774.523C319.946 774.599 319.777 774.643 319.605 774.654C319.432 774.664 319.259 774.641 319.096 774.584C309.922 771.39 284.779 763.48 278.781 765.281L277.332 765.727C268.419 768.475 249.83 774.213 234.993 762.644L228.958 757.872C216.516 748.03 204.817 738.782 193.749 736.183C185.32 734.162 177.047 731.537 168.995 728.328C168.681 728.188 168.432 727.933 168.301 727.615C168.169 727.297 168.165 726.94 168.29 726.619C168.354 726.457 168.451 726.31 168.573 726.186C168.695 726.061 168.841 725.962 169.002 725.895C169.162 725.828 169.335 725.793 169.509 725.793C169.683 725.793 169.856 725.828 170.017 725.895C177.946 729.073 186.095 731.674 194.399 733.676C206.042 736.405 217.983 745.857 230.629 755.866L236.645 760.62C250.424 771.354 268.103 765.894 276.626 763.276L278.075 762.83C285.986 760.453 316.552 770.963 320.024 772.17C320.18 772.225 320.324 772.307 320.451 772.412Z" fill="#263238"/>
<path d="M424.181 738.948C424.339 739.101 424.454 739.294 424.515 739.505L434.041 771.835L448.582 766.394C448.77 766.326 448.971 766.3 449.17 766.319C449.369 766.339 449.562 766.402 449.733 766.506C449.9 766.619 450.04 766.767 450.142 766.941C450.245 767.114 450.308 767.308 450.327 767.508L453.243 796.905L465.759 795.122C466.067 795.069 466.385 795.132 466.649 795.301C466.914 795.469 467.106 795.73 467.189 796.032L480.076 838.631C480.131 838.792 480.152 838.962 480.14 839.132C480.127 839.301 480.08 839.466 480.002 839.617C479.924 839.768 479.817 839.901 479.686 840.01C479.555 840.118 479.403 840.198 479.24 840.247L458.442 847.192C458.278 847.248 458.106 847.272 457.933 847.261C457.761 847.251 457.592 847.206 457.437 847.13C457.281 847.054 457.142 846.949 457.028 846.819C456.914 846.689 456.826 846.538 456.771 846.375L447.189 817.814L427.672 824.295C427.474 824.361 427.265 824.379 427.059 824.347C426.854 824.316 426.659 824.236 426.49 824.115C426.322 823.993 426.184 823.833 426.089 823.649C425.995 823.464 425.945 823.259 425.945 823.051L425.945 785.911L411.107 795.512C410.891 795.656 410.637 795.729 410.377 795.722C410.118 795.716 409.867 795.629 409.659 795.475C409.438 795.325 409.269 795.111 409.172 794.863C409.076 794.614 409.058 794.342 409.12 794.082L422.008 739.598C422.077 739.316 422.235 739.064 422.46 738.88C422.684 738.695 422.962 738.589 423.252 738.577C423.598 738.576 423.931 738.709 424.181 738.948ZM451.07 799.263C450.863 799.051 450.733 798.777 450.698 798.483L447.895 769.458L433.633 774.807C433.463 774.864 433.284 774.888 433.105 774.875C432.927 774.862 432.752 774.814 432.593 774.732C432.422 774.671 432.267 774.572 432.139 774.444C432.01 774.315 431.912 774.16 431.85 773.99L423.42 745.02L412.426 791.52L426.539 782.383C426.738 782.26 426.966 782.192 427.2 782.186C427.434 782.18 427.665 782.237 427.869 782.351C428.074 782.465 428.244 782.631 428.363 782.832C428.482 783.034 428.544 783.263 428.545 783.497L428.563 821.324L447.634 814.955C447.964 814.848 448.323 814.873 448.635 815.026C448.947 815.178 449.187 815.446 449.306 815.772L458.776 844.258L477.123 838.13L464.942 797.833L452.091 799.542C451.915 799.569 451.735 799.559 451.563 799.515C451.391 799.47 451.229 799.391 451.088 799.282L451.07 799.263Z" fill="#263238"/>
<path d="M75.2725 732.915C75.4314 733.102 75.5333 733.331 75.5662 733.575C75.5991 733.818 75.5616 734.066 75.4582 734.289L59.7478 770.203C59.6476 770.413 59.4966 770.594 59.3085 770.73C59.1203 770.866 58.9011 770.953 58.6707 770.983C58.4361 771.007 58.1994 770.966 57.9866 770.864C57.7737 770.763 57.5928 770.605 57.4637 770.407L49.4045 758.634L28.7175 775.607C28.5455 775.739 28.3446 775.828 28.1315 775.866C27.9184 775.905 27.6992 775.893 27.4918 775.83C27.2849 775.769 27.0965 775.658 26.944 775.505C26.7915 775.353 26.6797 775.164 26.6191 774.957L23.0723 762.497L-2.34997 772.84C-2.50599 772.907 -2.67357 772.941 -2.84307 772.943C-3.01257 772.944 -3.18068 772.912 -3.3377 772.848C-3.49473 772.784 -3.63758 772.69 -3.75808 772.571C-3.87858 772.452 -3.97432 772.31 -4.03983 772.153L-17.9114 740.455C-17.9909 740.282 -18.0306 740.094 -18.0274 739.905C-18.0242 739.715 -17.9782 739.528 -17.8928 739.359C-17.8284 739.185 -17.727 739.026 -17.5956 738.895C-17.4641 738.763 -17.3058 738.662 -17.1314 738.598L16.5544 728.681C16.8603 728.595 17.1869 728.623 17.4737 728.76C17.7606 728.896 17.9881 729.132 18.1143 729.424L22.5153 739.062L45.0035 727.715C45.2725 727.58 45.5797 727.541 45.8738 727.605C46.168 727.67 46.4311 727.833 46.6191 728.068L54.0285 737.334L74.1769 732.636C74.3686 732.594 74.5674 732.597 74.7576 732.646C74.9478 732.694 75.1241 732.786 75.2725 732.915ZM58.3365 766.935L72.1713 735.83L53.9356 740.176C53.6944 740.23 53.4427 740.216 53.2095 740.134C52.9762 740.051 52.7709 739.905 52.6171 739.711L45.3564 730.631L22.5153 742.033C22.36 742.116 22.1895 742.167 22.0141 742.183C21.8386 742.199 21.6617 742.179 21.494 742.126C21.3293 742.062 21.1797 741.965 21.055 741.84C20.9302 741.716 20.833 741.566 20.7697 741.401L16.2759 731.522L-14.8845 740.696L-2.12713 769.869L23.4437 759.451C23.6152 759.379 23.8004 759.345 23.9863 759.352C24.1723 759.358 24.3546 759.405 24.5208 759.489C24.6882 759.556 24.8404 759.656 24.968 759.784C25.0957 759.912 25.1962 760.064 25.2635 760.231L28.5318 772.227L48.8659 755.607C49.1589 755.388 49.5238 755.289 49.8873 755.329C50.0667 755.354 50.2388 755.416 50.3924 755.512C50.546 755.608 50.6776 755.735 50.7786 755.886L58.3365 766.935Z" fill="#263238"/>
<path d="M58.0781 294.925L70.9841 307.831C71.2214 308.068 71.3594 308.386 71.3697 308.721C71.3801 309.056 71.2621 309.382 71.0398 309.633C69.4799 311.192 56.3323 325.64 48.5515 323.616C47.4002 323.319 46.1189 322.892 44.689 322.427C37.2425 319.995 27.0291 316.652 21.0124 326.197C16.9084 332.715 15.6827 338.955 17.744 342.353C18.5163 343.443 19.583 344.291 20.8195 344.798C22.0559 345.304 23.411 345.448 24.7262 345.213C28.0797 344.785 31.3235 343.733 34.2897 342.112C39.1179 339.846 43.6861 337.692 48.9785 341.944C50.0125 342.6 50.8511 343.522 51.4065 344.613C51.9619 345.704 52.2137 346.925 52.1354 348.147C51.5597 351.916 46.9544 354.108 45.9144 354.59C43.9089 356.002 22.8134 370.264 8.45893 358.62C-0.677426 351.192 -3.23999 336.708 -1.66148 325.659C-0.342966 316.392 3.63104 309.707 9.22059 307.349C21.551 302.112 38.1897 303.858 41.2723 304.229L56.6111 294.795C56.8395 294.664 57.1026 294.606 57.365 294.63C57.6273 294.653 57.8762 294.756 58.0781 294.925ZM68.2357 308.797L56.9453 297.506L42.0893 306.643C41.8275 306.801 41.5181 306.86 41.2165 306.81C41.1237 306.717 22.7581 304.322 10.1119 309.689C5.4323 311.657 1.99682 317.804 0.789729 325.956C-0.621641 335.947 1.64382 349.763 9.9631 356.522C23.2405 367.311 44.1689 352.473 44.3731 352.343L44.5774 352.139C45.803 351.619 49.0528 349.818 49.3685 347.682C49.3529 346.913 49.142 346.159 48.7554 345.494C48.3689 344.828 47.8194 344.271 47.1587 343.876C43.2033 340.626 39.8978 342.186 35.2925 344.34C32.0476 346.096 28.5006 347.223 24.8376 347.664C23.0511 347.979 21.2115 347.768 19.5431 347.056C17.8747 346.343 16.4495 345.161 15.4413 343.653C12.7858 339.289 14.03 332.214 18.784 324.712C25.8777 313.421 37.6882 317.284 45.4875 319.846C46.8431 320.273 48.0873 320.7 49.1829 320.979C54.1411 322.372 63.9646 313.402 68.2357 308.797Z" fill="#263238"/>
<path d="M91.6154 277.542L93.4725 279.399C96.8895 282.816 88.9225 296.429 83.4069 301.944C82.7313 302.669 81.902 303.234 80.9798 303.597C80.0575 303.96 79.0657 304.113 78.0771 304.043C72.2087 303.671 66.3589 296.224 66.1732 295.853L65.9875 295.667C65.5232 294.757 61.6234 286.623 65.5233 282.723C66.359 281.888 67.0832 281.163 67.6775 280.383C70.1252 277.405 73.1676 274.97 76.6102 273.234C82.85 269.631 88.4955 274.422 91.6154 277.542ZM70.1845 296.559C72.2641 298.965 75.0535 300.649 78.1513 301.368C78.7628 301.407 79.3751 301.308 79.9437 301.08C80.5123 300.852 81.0228 300.5 81.4384 300.05C87.8268 293.662 92.5625 282.686 91.5039 281.219L90.7982 280.513C86.8055 276.335 82.4786 272.862 77.7616 275.499C74.58 277.101 71.7658 279.346 69.4975 282.092C68.7732 282.816 68.1232 283.689 67.2318 284.581C65.0961 286.716 67.1575 292.38 68.1417 294.367C68.7839 295.133 69.4657 295.865 70.1845 296.559Z" fill="#263238"/>
<path d="M381.358 876.218L394.357 889.217C394.597 889.456 394.735 889.78 394.742 890.119C394.749 890.458 394.624 890.787 394.394 891.036C392.834 892.596 379.687 907.044 371.906 905.02C370.773 904.741 369.473 904.295 368.062 903.85C360.597 901.399 350.421 898.056 344.404 907.601C340.281 914.138 339.074 920.359 341.099 923.757C341.879 924.83 342.947 925.659 344.18 926.149C345.412 926.638 346.759 926.768 348.062 926.524C351.407 926.097 354.644 925.051 357.607 923.441C362.454 921.157 367.004 919.021 372.296 923.274C373.323 923.94 374.156 924.867 374.707 925.96C375.258 927.053 375.509 928.273 375.434 929.495C374.877 933.246 370.253 935.456 369.102 935.827C367.133 937.239 346.001 951.5 331.646 939.857C322.473 932.392 320.059 918.019 321.526 906.896C322.844 897.629 326.818 890.944 332.408 888.586C344.59 883.275 361.34 885.094 364.367 885.41L379.724 875.995C379.98 875.835 380.283 875.769 380.582 875.81C380.88 875.851 381.155 875.995 381.358 876.218ZM391.516 890.089L380.244 878.818L365.37 887.935C365.115 888.11 364.803 888.183 364.497 888.14C364.385 888.028 346.038 885.651 333.374 891C328.713 892.987 325.277 899.096 324.07 907.286C322.64 917.258 324.905 931.074 333.243 937.814C346.539 948.622 367.449 933.803 367.672 933.655C367.725 933.573 367.794 933.503 367.876 933.45C369.083 932.949 372.333 931.148 372.649 928.975C372.81 927.799 372.067 926.536 370.42 925.187C366.465 921.937 363.16 923.497 358.573 925.67C355.323 927.414 351.778 928.541 348.118 928.994C346.327 929.307 344.483 929.093 342.812 928.378C341.14 927.662 339.712 926.476 338.703 924.964C336.066 920.619 337.31 913.543 342.046 906.023C349.158 894.751 360.95 898.632 368.749 901.194C370.105 901.621 371.368 902.03 372.445 902.327C377.384 903.627 387.152 894.639 391.479 890.052L391.516 890.089Z" fill="#263238"/>
<path d="M414.842 858.815L416.7 860.672C420.117 864.089 412.131 877.72 406.615 883.235C405.94 883.961 405.11 884.525 404.188 884.889C403.266 885.252 402.274 885.404 401.286 885.334C395.399 884.981 389.549 877.534 389.363 877.126L389.196 876.959C388.732 876.049 384.813 867.933 388.713 864.033C389.568 863.179 390.273 862.473 390.849 861.675C393.305 858.705 396.346 856.271 399.782 854.525C406.059 850.959 411.741 855.713 414.842 858.815ZM393.43 877.85C395.509 880.263 398.309 881.942 401.416 882.641C402.023 882.685 402.633 882.59 403.199 882.365C403.765 882.14 404.272 881.79 404.684 881.341C411.073 874.953 415.808 863.977 414.75 862.473L414.044 861.768C410.07 857.608 405.743 854.135 401.026 856.772C397.837 858.362 395.02 860.608 392.762 863.365C392.037 864.089 391.387 864.962 390.496 865.853C388.36 867.989 390.44 873.634 391.406 875.64C392.041 876.412 392.717 877.15 393.43 877.85Z" fill="#263238"/>
<path d="M536.825 615.569L549.731 628.475C549.969 628.711 550.107 629.029 550.117 629.364C550.127 629.699 550.009 630.025 549.787 630.276C548.227 631.836 535.061 646.265 527.299 644.259C526.147 643.962 524.847 643.554 523.436 643.071C515.99 640.638 505.776 637.296 499.759 646.841C495.655 653.359 494.43 659.598 496.491 662.996C497.262 664.07 498.323 664.9 499.551 665.391C500.778 665.881 502.119 666.01 503.418 665.763C506.768 665.324 510.01 664.273 512.981 662.662C517.809 660.396 522.378 658.242 527.67 662.495C528.704 663.151 529.543 664.072 530.098 665.164C530.653 666.255 530.905 667.475 530.827 668.697C530.251 672.467 525.646 674.658 524.606 675.141C522.6 676.552 501.505 690.814 487.15 679.171C477.995 671.724 475.544 657.351 477.03 646.209C478.348 636.943 482.304 630.276 487.912 627.899C500.224 622.681 516.881 624.408 519.945 624.761L535.302 615.346C535.546 615.214 535.826 615.164 536.101 615.205C536.375 615.245 536.629 615.372 536.825 615.569ZM546.983 629.44L535.692 618.15L520.836 627.286C520.571 627.434 520.265 627.493 519.964 627.453C519.871 627.361 501.505 624.965 488.822 630.332C484.179 632.3 480.725 638.429 479.537 646.599C478.107 656.571 480.372 670.387 488.692 677.147C502.006 687.973 522.897 673.135 523.12 672.987C523.168 672.901 523.239 672.83 523.325 672.783C524.55 672.263 527.8 670.461 528.097 668.307C528.283 667.156 527.54 665.856 525.906 664.519C521.95 661.269 518.626 662.811 514.04 664.983C510.785 666.734 507.234 667.867 503.566 668.326C501.78 668.628 499.945 668.41 498.28 667.699C496.614 666.988 495.187 665.813 494.17 664.315C491.533 659.932 492.777 652.857 497.494 645.355C504.606 634.083 516.417 637.945 524.216 640.508C525.572 640.935 526.816 641.362 527.912 641.641C532.87 642.996 542.656 633.99 546.983 629.44Z" fill="#263238"/>
<path d="M570.309 598.13L572.166 599.987C575.583 603.404 567.616 617.017 562.101 622.532C561.425 623.257 560.596 623.822 559.674 624.185C558.751 624.549 557.76 624.701 556.771 624.631C550.903 624.259 545.146 616.72 544.867 616.441L544.681 616.255C544.217 615.345 540.317 607.211 544.217 603.312C545.053 602.476 545.777 601.752 546.353 600.953C548.821 597.992 551.866 595.565 555.304 593.822C561.562 590.312 567.245 595.066 570.309 598.13ZM548.897 617.165C550.968 619.581 553.761 621.268 556.864 621.975C557.476 622.015 558.088 621.918 558.657 621.689C559.226 621.461 559.737 621.108 560.151 620.657C566.539 614.268 571.275 603.293 570.216 601.826L569.492 601.102C565.518 596.942 561.191 593.469 556.455 596.125C553.271 597.722 550.456 599.968 548.191 602.717C547.467 603.442 546.817 604.314 545.926 605.206C543.79 607.341 545.851 613.006 546.836 614.993C547.485 615.776 548.186 616.514 548.934 617.203L548.897 617.165Z" fill="#263238"/>
<path d="M150.351 608.662L158.541 616.852C158.778 617.088 158.916 617.407 158.926 617.741C158.937 618.076 158.819 618.403 158.596 618.653C156.944 620.306 148.94 628.978 143.833 627.66C143.127 627.474 142.292 627.196 141.363 626.898C135.439 624.949 130.258 623.779 126.916 629.09C124.409 633.082 123.554 636.871 124.836 638.821C125.285 639.421 125.894 639.884 126.593 640.156C127.292 640.429 128.054 640.5 128.791 640.362C130.86 640.08 132.861 639.426 134.696 638.431C137.76 637.001 140.917 635.515 144.483 638.412C145.197 638.887 145.772 639.543 146.151 640.313C146.529 641.083 146.697 641.939 146.637 642.795C146.328 643.806 145.791 644.732 145.066 645.502C144.341 646.271 143.449 646.864 142.459 647.233C140.954 648.291 127.472 657.317 118.132 649.721C112.189 644.893 110.537 635.515 111.595 628.329C112.468 622.293 115.086 617.892 118.8 616.332C126.6 612.989 136.851 614.029 139.135 614.382L148.736 608.495C148.985 608.338 149.279 608.269 149.572 608.299C149.865 608.329 150.14 608.457 150.351 608.662ZM155.774 617.799L149.218 611.244L140.045 616.926C139.781 617.097 139.463 617.163 139.153 617.112C139.153 617.112 127.584 615.571 119.673 618.913C116.869 620.083 114.771 623.816 114.046 628.848C113.192 635.051 114.585 643.612 119.71 647.771C127.9 654.438 140.825 645.227 140.936 645.116C140.993 645.038 141.062 644.969 141.14 644.912C141.957 644.54 143.721 643.482 143.87 642.442C144.019 641.402 143.257 640.975 142.644 640.473C140.472 638.672 138.745 639.359 135.606 640.863C133.487 641.999 131.177 642.736 128.791 643.036C127.564 643.247 126.302 643.099 125.156 642.612C124.01 642.125 123.028 641.318 122.329 640.288C120.546 637.316 121.307 632.767 124.446 627.771C129.163 620.306 137.166 622.924 141.939 624.503L144.26 625.227C146.934 625.747 152.338 621.383 155.774 617.799Z" fill="#263238"/>
<path d="M171.612 597.615L172.763 598.766C175.4 601.403 169.625 610.483 166.356 613.752C165.878 614.252 165.296 614.642 164.651 614.895C164.007 615.149 163.315 615.259 162.624 615.219C158.706 615.014 155.085 610.391 154.695 609.852L154.528 609.685C154.212 609.072 151.594 603.631 154.305 600.92C154.825 600.4 155.271 599.955 155.698 599.528C157.284 597.593 159.258 596.012 161.491 594.885C165.762 592.397 169.55 595.554 171.612 597.615ZM158.075 609.741C159.294 611.13 160.917 612.104 162.717 612.526C163.032 612.55 163.349 612.5 163.642 612.381C163.936 612.262 164.197 612.076 164.407 611.839C168.12 608.125 171.092 601.663 170.702 600.419L170.367 600.085C167.935 597.652 165.391 595.479 162.68 597.002C160.716 597.992 158.977 599.376 157.573 601.069C157.109 601.533 156.626 602.016 156.051 602.592C155.085 603.557 155.883 606.473 156.7 608.218C157.128 608.752 157.587 609.261 158.075 609.741Z" fill="#263238"/>
<path d="M459.613 594.734C477.737 612.858 486.613 647.732 488.006 668.437C489.287 688.029 473.465 699.951 455.118 713.767C443.905 721.637 433.559 730.676 424.255 740.731C420.095 745.522 413.002 748.27 403.289 748.957C354.172 752.244 251.722 703.685 224.202 679.432C198.204 656.48 189.253 632.042 173.023 587.734C168.028 574.16 162.476 558.877 155.475 541.18C139.19 499.899 123.554 487.68 116.869 486.937C116.038 486.79 115.183 486.891 114.41 487.228C113.637 487.565 112.98 488.123 112.523 488.831C110.016 492.601 110.221 502.833 119.227 519.268C132.337 543.297 142.606 571.913 134.194 577.948C127.731 582.628 113.804 572.897 91.3532 548.552C63.8328 518.729 63.6101 491.543 63.4245 465.248C63.1833 437.263 62.9978 410.82 27.1394 385.212C-1.5324 364.748 -34.8654 361.796 -61.9033 377.469C-90.9096 394.182 -105.914 428.053 -102.089 468.09C-102.069 468.261 -102.084 468.435 -102.133 468.6C-102.181 468.765 -102.262 468.919 -102.371 469.053C-102.481 469.186 -102.615 469.296 -102.768 469.376C-102.92 469.457 -103.087 469.506 -103.259 469.52C-103.603 469.553 -103.947 469.448 -104.214 469.229C-104.482 469.01 -104.653 468.694 -104.689 468.35C-108.644 427.255 -93.1379 392.436 -63.2217 375.185C-35.2182 359.029 -0.882461 361.981 28.6622 383.095C65.5233 409.371 65.8016 436.539 66.0429 465.229C66.247 491.023 66.4883 517.671 93.2845 546.77C121.993 577.893 130.387 577.447 132.653 575.813C138.372 571.727 131.316 546.918 116.924 520.53C108.976 505.972 106.469 493.288 110.406 487.42C111.131 486.321 112.152 485.449 113.352 484.907C114.551 484.364 115.88 484.173 117.184 484.356C126.191 485.34 142.272 500.53 157.908 540.196C164.909 557.93 170.517 573.269 175.475 586.806C191.556 630.742 200.414 654.939 225.947 677.464C252.502 700.899 355.528 749.514 403.104 746.32C412.129 745.726 418.61 743.256 422.286 739.022C431.776 728.047 443.401 719.282 453.447 711.576C471.181 698.224 486.502 686.692 485.313 668.567C483.995 648.679 473.243 603.164 448.545 589.497C437.998 583.666 426.039 584.298 412.928 591.354C376.884 610.76 332.947 611.652 303.904 605.969C303.735 605.936 303.573 605.87 303.429 605.775C303.285 605.68 303.161 605.557 303.065 605.414C302.968 605.271 302.901 605.11 302.866 604.941C302.832 604.772 302.831 604.598 302.864 604.428C302.897 604.259 302.963 604.097 303.058 603.953C303.154 603.809 303.276 603.685 303.419 603.589C303.563 603.492 303.723 603.425 303.892 603.39C304.062 603.356 304.236 603.355 304.405 603.388C333.04 608.959 376.252 608.123 411.647 588.996C425.574 581.494 438.369 580.843 449.771 587.157C453.391 589.208 456.704 591.759 459.613 594.734Z" fill="#263238"/>
<path d="M286.522 599.172L314.601 596.312L305.631 604.799L308.565 616.796L286.522 599.172Z" fill="#263238"/>
<path d="M80.268 581.18C85.3483 586.361 89.5451 592.339 92.6912 598.877C104.947 623.427 105.634 659.137 94.5477 689.87C77.0917 737.855 64.7053 782.85 103.888 805.207C115.728 811.494 127.96 817.015 140.507 821.734C140.832 821.863 141.093 822.114 141.233 822.435C141.372 822.755 141.378 823.118 141.25 823.443C141.122 823.768 140.87 824.029 140.55 824.168C140.229 824.307 139.867 824.314 139.542 824.186C126.861 819.39 114.499 813.789 102.532 807.417C61.5484 784.001 74.1948 738.003 92.0407 688.886C102.904 658.895 102.329 623.928 90.4071 599.973C86.9194 592.513 81.8961 585.872 75.6657 580.487C69.4353 575.101 62.1382 571.092 54.2517 568.72C40.3985 564.486 24.5398 565.303 7.7155 566.195C-32.3769 568.293 -77.8361 570.671 -99.1911 496.428C-100.138 493.216 -100.974 489.966 -101.698 486.753C-101.771 486.414 -101.707 486.059 -101.519 485.766C-101.331 485.474 -101.035 485.268 -100.695 485.194C-100.527 485.15 -100.351 485.142 -100.18 485.169C-100.008 485.195 -99.8432 485.256 -99.6956 485.348C-99.5481 485.44 -99.4208 485.561 -99.3213 485.704C-99.2218 485.846 -99.1522 486.007 -99.1168 486.178C-98.4854 489.26 -97.5755 492.547 -96.6841 495.704C-75.8491 567.904 -33.4169 565.694 7.62264 563.539C24.6512 562.629 40.7514 561.794 55.0502 566.176C64.5741 569 73.2422 574.158 80.268 581.18Z" fill="#263238"/>
<path d="M274.638 877.648C275.864 878.658 276.655 880.101 276.848 881.677C276.866 883.442 275.603 884.816 273.115 885.781C247.098 895.791 118.929 831.02 113.488 828.253C113.328 828.179 113.184 828.073 113.066 827.942C112.947 827.811 112.856 827.658 112.798 827.491C112.74 827.324 112.717 827.148 112.729 826.971C112.741 826.795 112.788 826.623 112.868 826.466C112.948 826.308 113.059 826.169 113.194 826.055C113.329 825.942 113.486 825.856 113.655 825.805C113.824 825.753 114.001 825.736 114.177 825.755C114.353 825.773 114.523 825.827 114.677 825.913C116.014 826.581 247.247 892.931 272.168 883.349C272.929 883.033 274.229 882.439 274.229 881.696C274.192 874.714 225.446 856.534 186.227 841.975C176.292 838.28 166.283 834.548 156.663 830.982C156.502 830.919 156.355 830.825 156.23 830.705C156.105 830.585 156.006 830.441 155.937 830.283C155.868 830.124 155.831 829.953 155.828 829.78C155.825 829.607 155.857 829.435 155.921 829.274C156.044 828.949 156.292 828.687 156.608 828.544C156.925 828.401 157.285 828.39 157.611 828.512C167.155 832.152 177.127 835.885 187.174 839.506C234.527 857.11 266.244 869.254 274.638 877.648Z" fill="#263238"/>
<path d="M139.988 822.885L168.198 822.197L158.615 829.96L160.602 842.161L139.988 822.885Z" fill="#263238"/>
<path d="M479.838 596.051C508.379 624.593 533.281 670.814 524.572 693.785C519.799 705.985 505.891 710.238 492.316 714.267C472.539 720.117 453.839 725.67 461.174 754.434C466.782 776.384 481.471 796.347 494.469 813.988C503.606 826.43 512.259 838.166 516.085 848.639C516.168 848.805 516.215 848.986 516.223 849.171C516.231 849.357 516.2 849.541 516.132 849.714C516.063 849.886 515.959 850.042 515.826 850.171C515.693 850.3 515.534 850.399 515.36 850.463C515.186 850.526 515 850.552 514.815 850.538C514.631 850.525 514.451 850.472 514.288 850.384C514.124 850.296 513.982 850.175 513.869 850.027C513.756 849.88 513.676 849.711 513.633 849.531C509.92 839.429 501.377 827.841 492.353 815.548C479.261 797.739 464.386 777.554 458.667 755.121C450.719 723.887 471.499 717.74 491.61 711.779C505.148 707.749 517.961 703.998 522.158 692.893C532.52 665.558 490.515 600.638 456.272 580.509C426.282 562.849 391.166 562.868 342.439 580.584C299.32 596.294 248.902 598.764 234.306 590.408C219.71 582.051 131.356 439.175 119.824 414.421C113.027 399.677 112.563 388.591 112.099 375.684C111.894 363.293 110.463 350.952 107.828 338.842C105.451 328.071 101.849 322.166 97.429 321.72C90.521 321.015 81.236 333.42 75.6463 346.029C71.8766 354.515 75.9062 364.338 80.8458 376.632C85.7853 388.925 92.099 404.338 92.6003 423.744L92.9344 440.011C93.3614 459.008 93.7327 482.889 96.4439 484.374C96.4439 484.374 97.5395 484.021 99.9165 478.822C101.365 475.628 102.721 472.304 104.02 469.11C108.607 457.875 112.563 448.163 119.099 447.754C124.262 447.457 129.926 453.195 136.945 465.823C148.124 485.952 160.324 514.791 170.11 537.948C177.148 554.568 183.221 568.923 185.208 570.91C185.353 571.059 185.466 571.235 185.542 571.429C185.69 571.949 201.493 621.698 218.782 626.025C223.796 627.325 225.467 626.768 226.024 626.21C228.067 623.574 221.474 611.299 211.465 592.71C208.067 586.415 204.186 579.192 199.822 570.928L183.295 539.545C183.216 539.394 183.167 539.229 183.153 539.059C183.138 538.889 183.157 538.718 183.209 538.556C183.26 538.393 183.344 538.243 183.454 538.113C183.565 537.983 183.7 537.876 183.852 537.799C184.158 537.639 184.515 537.606 184.845 537.707C185.175 537.808 185.452 538.034 185.616 538.338L202.143 569.721C206.452 577.966 210.333 585.152 213.768 591.522C226.098 614.4 231.224 623.833 228.104 627.845C226.21 630.259 222.031 629.609 218.206 628.643C199.97 624.075 184.595 577.093 183.165 572.581C180.825 569.832 176.201 559.006 167.733 539.025C157.966 515.924 145.803 487.197 134.698 467.178C128.384 455.851 123.203 450.224 119.285 450.465C114.401 450.744 110.501 460.252 106.49 470.168C105.19 473.399 103.816 476.742 102.349 479.955C99.9164 485.321 97.9851 487.438 95.9053 486.993C91.5414 486.083 90.873 473.455 90.2603 440.196C90.1676 434.904 90.0747 429.426 89.9262 423.966C89.4992 404.969 83.2226 389.816 78.3945 377.783C73.1393 364.84 68.9797 354.626 73.2137 345.119C77.6705 335.054 87.8655 318.285 97.6518 319.269C103.39 319.845 107.661 326.27 110.354 338.433C113.03 350.694 114.48 363.192 114.68 375.74C115.2 388.851 115.571 399.213 122.182 413.474C135.237 441.793 222.682 580.826 235.588 588.272C249.719 596.201 299.078 593.564 341.529 578.077C391.037 560.063 426.839 560.1 457.591 578.187C465.718 583.197 473.191 589.198 479.838 596.051Z" fill="#263238"/>
<path d="M176.034 522.367L197.595 540.548L185.264 540.028L178.689 550.465L176.034 522.367Z" fill="#263238"/>
<path d="M516.903 879.133C517.071 879.294 517.187 879.5 517.238 879.727C517.331 880.062 517.287 880.42 517.117 880.723C516.946 881.026 516.662 881.249 516.328 881.343C494.545 887.266 452.317 852.838 424.388 830.072C413.395 821.121 404.686 814.083 400.953 812.43C394.918 809.849 385.206 824.464 375.735 838.503C365.54 853.711 355.03 869.422 345.132 871.037C337.655 871.872 330.097 871.654 322.681 870.387C311.576 869.013 301.994 867.825 296.312 874.473C293.247 878.168 291.539 884.222 289.738 890.592C286.042 903.832 281.808 918.837 263.294 914.547C237.278 908.549 128.755 859.674 86.4718 831.132C73.5657 822.423 68.1248 821.216 66.9548 821.866C66.9548 821.866 66.8063 822.014 66.8063 822.423C67.0105 828.272 87.9386 850.983 121.439 866.508C173.416 890.481 228.94 920.341 237.705 927.063C239.302 928.289 238.726 929.459 238.503 929.793C235.346 934.658 177.631 923.294 106.564 884.91C106.26 884.746 106.034 884.469 105.933 884.139C105.832 883.809 105.865 883.452 106.026 883.146C106.104 882.993 106.213 882.858 106.345 882.748C106.477 882.637 106.63 882.555 106.794 882.505C106.958 882.454 107.131 882.438 107.302 882.455C107.473 882.473 107.639 882.525 107.79 882.608C173.824 918.262 225.17 929.013 235.086 928.419C223.22 920.267 170.259 891.855 120.417 868.829C88.2729 853.992 64.5593 830.835 64.2436 822.46C64.1779 821.879 64.2835 821.292 64.5475 820.771C64.8115 820.249 65.2223 819.817 65.7292 819.526C68.7933 817.836 76.2584 820.993 87.9945 828.904C130.129 857.334 238.076 905.968 263.907 911.966C279.988 915.68 283.498 903.145 287.231 889.868C289.106 883.201 290.87 876.906 294.325 872.783C300.843 864.965 311.557 866.284 322.941 867.676C330.1 868.894 337.395 869.1 344.612 868.289C353.358 866.97 363.98 851 373.377 836.961C384.315 820.601 393.785 806.488 401.826 809.923C405.93 811.687 414.212 818.595 425.874 827.955C453.394 850.387 494.991 884.295 515.474 878.706C515.727 878.623 516 878.62 516.255 878.696C516.51 878.773 516.737 878.925 516.903 879.133Z" fill="#263238"/>
<path d="M522.36 862.603L518.757 890.608L512.536 879.929L500.186 880.06L522.36 862.603Z" fill="#263238"/>
<path d="M-36.577 659.658L-36.4284 659.807C-25.4435 675.471 -16.7226 692.606 -10.5236 710.707C-7.81248 718.506 -7.66397 722.703 -10.1709 724.244C-15.8162 727.884 -32.1576 712.805 -58.1182 687.81C-71.5442 674.904 -85.4159 661.552 -89.2784 660.921C-89.2784 660.921 -89.7984 661.255 -89.8541 662.982C-90.2813 681.979 -49.2608 775.144 44.4983 842.868C59.7441 853.88 75.6585 864.224 91.74 873.62C92.0502 873.802 92.2754 874.1 92.3659 874.448C92.4565 874.797 92.405 875.167 92.2227 875.477C92.0405 875.787 91.7425 876.012 91.3942 876.103C91.046 876.193 90.676 876.142 90.3658 875.96C74.1914 866.508 58.2213 856.109 42.9012 845.06C-55.0175 774.327 -97.4492 673.214 -92.0453 660.234C-91.8327 659.595 -91.3957 659.055 -90.8152 658.713C-90.2348 658.372 -89.5502 658.252 -88.8884 658.377C-84.4502 659.101 -73.6426 669.352 -56.3541 685.972C-40.2726 701.459 -15.9462 724.857 -11.6379 722.109C-11.3779 721.849 -10.0038 720.474 -13.0492 711.635C-19.1666 693.771 -27.775 676.861 -38.6197 661.404C-38.8203 661.121 -38.9033 660.771 -38.8514 660.428C-38.7994 660.085 -38.6165 659.776 -38.3411 659.565C-38.0882 659.359 -37.7673 659.253 -37.4411 659.271C-37.1149 659.288 -36.8068 659.426 -36.577 659.658Z" fill="#263238"/>
<path d="M107.269 883.832L79.3004 879.932L90.0346 873.804L90.0346 861.472L107.269 883.832Z" fill="#263238"/>
<path d="M119.898 261.926C130.337 272.005 136.585 285.655 137.391 300.143C137.396 300.315 137.366 300.487 137.303 300.647C137.24 300.807 137.144 300.953 137.022 301.074C136.9 301.196 136.755 301.292 136.595 301.355C136.435 301.418 136.263 301.448 136.091 301.443C135.92 301.457 135.747 301.437 135.584 301.384C135.421 301.331 135.27 301.246 135.14 301.133C135.01 301.021 134.904 300.883 134.828 300.729C134.752 300.575 134.708 300.407 134.698 300.236C133.101 275.129 116.76 256.3 84.7083 242.521C42.9632 224.62 9.70438 245.511 -1.97616 259.011C-8.97706 267.089 -6.35875 271.23 -2.64481 276.913C0.689665 281.187 2.4533 286.478 2.35043 291.899C2.36458 293.921 1.90502 295.918 1.00854 297.73C0.112053 299.542 -1.1964 301.119 -2.81204 302.335C-8.71729 306.42 -19.2279 305.715 -38.002 300.014C-51.7066 295.817 -70.4808 300.961 -90.7778 314.387C-90.9217 314.483 -91.0829 314.548 -91.2522 314.581C-91.4215 314.614 -91.5956 314.613 -91.7646 314.579C-91.9336 314.544 -92.0942 314.477 -92.2371 314.38C-92.3801 314.284 -92.5025 314.16 -92.5976 314.016C-92.783 313.724 -92.8479 313.371 -92.7787 313.031C-92.7094 312.692 -92.5114 312.393 -92.2262 312.196C-71.2422 298.306 -51.688 293.088 -37.2221 297.488C-19.5621 302.855 -9.4044 303.691 -4.29765 300.181C-3.01934 299.176 -1.99168 297.888 -1.29563 296.419C-0.599592 294.95 -0.254188 293.339 -0.286527 291.713C-0.220954 286.854 -1.84188 282.122 -4.87323 278.324C-8.47575 272.679 -12.2082 266.829 -3.92599 257.247C8.23737 243.227 42.629 221.574 85.7853 240.07C98.4413 245.122 110.019 252.54 119.898 261.926Z" fill="#263238"/>
<path d="M134.902 318.713L125.413 292.137L135.812 298.823L146.732 293.103L134.902 318.713Z" fill="#263238"/>
<path d="M-33.2282 337.469C-30.8309 339.617 -29.2389 342.52 -28.7158 345.696C-28.5592 347.272 -28.8702 348.859 -29.61 350.259C-30.3497 351.659 -31.4855 352.811 -32.8755 353.569C-38.1865 356.986 -45.5587 356.336 -54.0823 355.575C-74.175 353.792 -101.788 351.286 -126.561 399.642C-157.74 460.236 -137.183 486.698 -122.179 506.01C-120.211 508.536 -118.372 510.931 -116.738 513.234C-107.955 525.731 -105.652 542.147 -111.037 553.104C-112.75 556.595 -115.398 559.542 -118.686 561.617C-121.975 563.693 -125.775 564.815 -129.663 564.858C-137.797 565.193 -143.758 562.686 -147.397 557.449C-152.894 549.464 -152.3 535.611 -145.781 520.402C-144.444 517.245 -142.253 513.16 -139.171 513.605C-133.377 514.497 -130.981 533.754 -130.387 539.622C-130.354 539.966 -130.459 540.31 -130.678 540.577C-130.897 540.845 -131.213 541.016 -131.557 541.052C-131.73 541.07 -131.906 541.054 -132.073 541.005C-132.24 540.955 -132.396 540.872 -132.531 540.761C-132.665 540.651 -132.777 540.514 -132.858 540.36C-132.94 540.206 -132.99 540.037 -133.005 539.863C-134.12 528.759 -137.016 516.577 -139.579 516.205C-139.672 516.112 -141.102 516.131 -143.367 521.442C-149.44 535.611 -150.146 548.833 -145.225 555.945C-142.216 560.365 -136.942 562.519 -129.774 562.221C-126.35 562.235 -122.992 561.275 -120.093 559.454C-117.193 557.632 -114.87 555.024 -113.396 551.934C-108.4 541.813 -110.666 526.511 -118.911 514.738C-120.415 512.528 -122.309 510.114 -124.24 507.626C-138.873 488.833 -160.841 460.551 -128.919 398.435C-103.274 348.574 -74.6949 351.118 -53.8038 353.031C-45.7073 353.699 -38.7993 354.368 -34.2496 351.415C-33.2779 350.911 -32.4771 350.131 -31.9483 349.173C-31.4195 348.214 -31.1864 347.121 -31.2784 346.03C-31.7426 341.258 -37.9821 335.612 -46.45 332.344C-52.7452 329.763 -75.3261 323.264 -97.0716 342.595C-118.204 361.388 -129.179 387.627 -138 408.704C-144.128 423.374 -148.938 434.906 -155.549 440.7C-162.438 446.735 -171.556 447.608 -176.737 442.761C-180.767 439.029 -190.98 422.985 -153.506 373.514C-139.976 355.178 -124.401 338.443 -107.081 323.635C-106.948 323.524 -106.794 323.44 -106.629 323.389C-106.464 323.337 -106.29 323.319 -106.118 323.334C-105.945 323.35 -105.777 323.399 -105.624 323.479C-105.471 323.56 -105.335 323.669 -105.224 323.802C-105.113 323.935 -105.029 324.089 -104.977 324.254C-104.926 324.419 -104.907 324.593 -104.923 324.765C-104.938 324.938 -104.987 325.105 -105.068 325.259C-105.148 325.412 -105.258 325.548 -105.391 325.659C-122.541 340.354 -137.972 356.944 -151.389 375.111C-179.801 412.623 -182.234 433.402 -175.084 440.552L-174.862 440.774C-170.665 444.711 -163.051 443.82 -157.202 438.676C-151.352 433.532 -146.078 421.424 -140.321 407.646C-131.5 386.309 -120.451 359.735 -98.8172 340.515C-91.8285 333.905 -83.1217 329.393 -73.6911 327.495C-64.2604 325.597 -54.486 326.389 -45.4843 329.781C-40.9238 331.494 -36.7554 334.109 -33.2282 337.469Z" fill="#263238"/>
</g>
</svg>
