<svg width="198" height="205" viewBox="0 0 198 205" fill="none" xmlns="http://www.w3.org/2000/svg">
<g opacity="0.3">
<path d="M38.2813 109.652L37.8111 77.153L103.313 23.2324L153.96 54.5816L140.959 97.3993L119.65 108.398L120.164 121.834L128.306 121.826L126.521 138.745L124.23 125.901L113.328 128.67L109 116.052L71.8859 133.904L38.2813 109.652Z" fill="black"/>
<g opacity="0.7">
<path d="M41.9861 140.609L33.1206 109.339L82.4354 40.3027L139.47 57.4754L137.994 102.199L120.257 118.338L124.231 131.184L132.094 129.068L134.749 145.873L129.212 134.059L119.398 139.556L111.951 128.488L80.7225 155.337L41.9861 140.609Z" fill="white" fill-opacity="0.5"/>
</g>
<path d="M117.19 105.78C115.571 108.603 113.394 111.067 110.791 113.021C109.465 114.105 107.896 114.853 106.219 115.202C104.779 115.349 103.324 115.14 101.984 114.594C100.643 114.047 99.4564 113.181 98.5282 112.07L98.3434 112.39C97.3109 114.797 95.7406 116.936 93.7529 118.642C93.7338 119.512 93.6781 120.347 93.6089 121.132C94.4067 120.974 95.2195 120.905 96.0325 120.925C96.6917 120.865 97.3556 120.966 97.9677 121.217C98.5798 121.469 99.1221 121.865 99.5485 122.372C99.9701 122.978 100.191 123.701 100.18 124.44C100.17 125.179 99.9279 125.895 99.4889 126.489C97.9874 128.893 94.137 131.178 91.1516 132.014L90.6117 133.195C88.9996 136.682 86.3155 139.561 82.9512 141.415C80.6706 142.5 78.1794 143.071 75.6538 143.087C73.1282 143.103 70.6299 142.564 68.3355 141.508C63.8112 139.374 59.9846 136.002 57.2998 131.781C56.4911 130.575 55.7575 129.32 55.1031 128.024C54.5709 128.97 53.9854 129.886 53.3495 130.766C53.17 131.083 52.9157 131.352 52.6087 131.549C52.3017 131.746 51.9513 131.865 51.5879 131.896C50.5647 131.846 49.9492 130.793 50.0219 129.214C50.245 124.168 50.7734 119.141 51.6042 114.158C51.5791 113.291 51.6089 112.426 51.6768 111.57C51.9214 107.993 52.8935 104.504 54.5335 101.316C56.1735 98.1281 58.447 95.3085 61.2147 93.0299C61.7068 92.6456 62.1972 92.2888 62.7196 91.9505C63.4755 88.88 64.4658 85.8719 65.6818 82.9529C68.6039 75.5389 72.8877 68.7373 78.312 62.8993C84.0729 56.9111 89.2049 54.9681 93.9478 57.0239C97.8158 58.674 99.5465 62.1048 100.471 65.8239C102.045 65.6779 103.63 65.688 105.203 65.8541C105.676 65.3097 106.201 64.8127 106.771 64.3703C109.546 62.2689 113.004 61.2749 116.472 61.5814C119.751 61.8389 123.924 63.4522 125.725 67.1797C126.814 69.7541 127.017 72.6173 126.302 75.3194C125.69 78.4039 124.559 81.3622 122.957 84.0679C122.005 85.8081 120.657 87.2998 119.021 88.4221C117.78 89.1467 116.387 89.5732 114.953 89.668C113.519 89.7629 112.082 89.5235 110.756 88.9688C111.284 89.7437 111.684 90.5986 111.94 91.5006C112.986 90.8892 114.201 90.6294 115.405 90.7593C116.61 90.8893 117.741 91.402 118.633 92.2224C120.006 93.7117 120.388 96.0795 119.699 99.0948C119.204 101.437 118.358 103.691 117.19 105.78ZM98.9634 111.07C100.746 113.08 103.261 114.66 106.063 114.216C107.584 113.901 109.005 113.217 110.199 112.224C114.553 108.927 117.612 104.205 118.84 98.8833C119.261 97.0216 119.453 94.473 118.024 92.9086C117.254 92.2079 116.274 91.7821 115.237 91.6979C114.2 91.6137 113.164 91.8758 112.291 92.4431C112.979 95.457 112.763 98.6067 111.671 101.499C111.573 101.86 111.399 102.197 111.161 102.486C110.923 102.775 110.626 103.01 110.29 103.176C109.822 103.305 109.324 103.262 108.885 103.055C108.446 102.849 108.096 102.492 107.897 102.05C107.579 101.29 107.484 100.456 107.622 99.6444C107.718 96.8364 108.894 94.1737 110.904 92.2109L111.165 92.0058L111.091 91.7641C110.956 91.0568 110.674 90.3856 110.264 89.7937C109.854 89.2018 109.324 88.7023 108.709 88.3273C107.112 87.5473 105.272 88.3197 103.81 89.4237C103.908 89.5509 104.005 89.6781 104.096 89.8159C105.902 92.4513 106.688 95.991 106.426 100.362C106.423 101.779 106.102 103.178 105.485 104.454C105.131 105.115 104.603 105.665 103.957 106.045C103.311 106.425 102.573 106.619 101.824 106.607C101.397 106.58 100.979 106.465 100.598 106.269C100.163 107.904 99.6171 109.509 98.9634 111.07ZM91.6533 130.825C94.2281 129.937 97.3862 128.063 98.7075 125.996C99.0443 125.569 99.2351 125.045 99.2518 124.502C99.2685 123.959 99.1103 123.424 98.8004 122.978C98.4515 122.616 98.0267 122.336 97.5565 122.158C97.0863 121.98 96.5825 121.908 96.0814 121.948C95.2353 121.939 94.391 122.029 93.5659 122.217L93.556 122.382C93.257 125.261 92.6184 128.095 91.6533 130.825ZM100.734 66.7721C101.071 68.2324 101.301 69.7304 101.524 71.1673C101.747 72.6041 101.947 73.8576 102.221 75.0823C103.328 79.9875 105.08 83.53 107.616 85.8616C110.304 88.3237 115.051 89.7563 118.555 87.5554C120.056 86.5198 121.285 85.1358 122.135 83.5219C123.693 80.921 124.787 78.0684 125.366 75.0922C126.031 72.6017 125.855 69.9617 124.868 67.5807C123.227 64.2159 119.43 62.7632 116.41 62.5267C113.19 62.2312 109.977 63.1502 107.4 65.1032C107.054 65.3655 106.727 65.652 106.421 65.9604C106.972 66.0652 107.507 66.1745 108.033 66.3219C110.943 66.9827 113.496 68.716 115.185 71.1761C116.026 72.4542 116.442 73.9652 116.374 75.4938C116.306 77.0224 115.757 78.4905 114.806 79.6888C113.736 80.779 112.331 81.4799 110.817 81.68C109.302 81.88 107.764 81.5677 106.447 80.7927C105.168 79.9969 104.113 78.8889 103.38 77.5727C102.647 76.2566 102.261 74.7757 102.259 73.2693C102.25 70.9018 102.999 68.5937 104.397 66.683C103.176 66.614 101.951 66.6437 100.734 66.7721ZM110.005 94.877C109.209 96.391 108.733 98.0529 108.608 99.7588C108.499 100.382 108.562 101.022 108.789 101.612C108.875 101.836 109.035 102.024 109.243 102.144C109.451 102.264 109.694 102.309 109.93 102.271C110.324 102.021 110.606 101.629 110.719 101.177C111.681 98.6056 111.917 95.8196 111.401 93.1235C110.85 93.6235 110.383 94.2082 110.017 94.8556L110.005 94.877ZM61.8723 135.757C63.8531 137.785 66.1944 139.427 68.7765 140.597C70.9298 141.596 73.276 142.111 75.6499 142.106C78.0238 142.101 80.3677 141.575 82.5166 140.566C85.6893 138.815 88.2175 136.093 89.7305 132.8L89.9953 132.342C89.5167 132.422 89.0297 132.437 88.547 132.387C86.9749 132.068 85.4938 131.403 84.2114 130.439L83.8912 130.993L83.221 131.957C81.284 134.721 78.5595 138.012 74.648 138.924C74.521 138.956 74.3866 138.937 74.2731 138.872C74.1597 138.806 74.0762 138.699 74.0401 138.573C74.0227 138.51 74.0181 138.445 74.0263 138.38C74.0346 138.315 74.0557 138.253 74.0884 138.196C74.121 138.139 74.1646 138.09 74.2166 138.05C74.2686 138.011 74.3279 137.982 74.3911 137.965C77.9476 137.175 80.5371 134.02 82.3665 131.393L83.0307 130.44L83.4103 129.905C83.3143 129.85 83.2184 129.794 83.133 129.745L82.6199 129.378C81.9423 128.901 81.2417 128.44 80.5669 128.008C79.6836 129.249 78.3861 130.133 76.9081 130.503C74.6436 131.001 72.1564 130.063 69.5105 127.725C68.6314 126.947 67.8187 126.097 67.0808 125.184C67.0904 126.448 67.0256 127.712 66.8868 128.969C66.7817 130.834 66.1862 132.639 65.1603 134.2C64.8609 134.642 64.4737 135.017 64.0227 135.303C63.5717 135.588 63.0667 135.777 62.5393 135.858C62.3172 135.842 62.0976 135.801 61.8846 135.736L61.8723 135.757ZM84.7422 129.593C85.8972 130.469 87.2331 131.075 88.6524 131.367C89.2528 131.42 89.8578 131.365 90.4388 131.204C91.4964 128.415 92.1852 125.5 92.4876 122.533C89.1845 123.697 86.9049 126.562 84.7545 129.572L84.7422 129.593ZM100.797 105.431C101.111 105.613 101.464 105.719 101.827 105.741C102.398 105.725 102.954 105.557 103.439 105.254C103.924 104.952 104.319 104.526 104.584 104.019C105.132 102.89 105.42 101.651 105.425 100.395C105.662 96.266 104.942 92.9068 103.268 90.4615L103.065 90.1734L102.824 90.4182L102.225 91.1106C102.4 94.5627 102.19 98.0235 101.6 101.429C101.385 102.812 101.117 104.137 100.809 105.41L100.797 105.431ZM83.9214 129.02C86.2549 125.717 88.7877 122.586 92.5827 121.407C92.6437 120.76 92.7079 120.057 92.7217 119.369L92.4935 119.493C90.8505 120.393 88.4359 120.634 87.076 119.024C86.534 118.349 86.1479 117.563 85.9452 116.722C85.0232 113.013 84.8329 109.159 85.3847 105.377L85.2033 105.273C84.6748 105.083 84.132 104.936 83.58 104.833C83.6946 106.801 83.2914 108.765 82.4106 110.529C82.1028 111.055 81.7346 111.544 81.3134 111.986C82.5576 116.259 83.4842 120.861 81.9788 125.168C81.7611 125.81 81.4762 126.427 81.1289 127.01C81.8541 127.428 82.5363 127.922 83.1819 128.38L83.695 128.747L83.9214 129.02ZM93.7677 117.384C95.3174 115.834 96.5677 114.01 97.4561 112.006L97.7924 111.275C97.3056 110.673 96.8662 110.035 96.4781 109.365C95.5317 107.63 94.7196 105.825 94.0489 103.966C93.4208 102.217 92.6693 100.514 91.8002 98.8713C90.966 97.3958 89.9356 96.0403 88.7371 94.8418C88.3129 96.1185 87.9818 97.4062 87.7111 98.5155L87.5941 98.7182C87.0839 100.674 86.6884 102.659 86.4097 104.661C88.0363 105.464 89.4736 106.604 90.6261 108.005C91.7786 109.406 92.6201 111.036 93.0946 112.787C93.5064 114.279 93.7365 115.816 93.78 117.363L93.7677 117.384ZM89.0977 93.7986C90.5078 95.1423 91.7093 96.6891 92.6623 98.3879C93.5644 100.068 94.3394 101.813 94.9808 103.609C95.6353 105.416 96.4224 107.173 97.3357 108.865C97.6086 109.333 97.9075 109.785 98.2309 110.22C98.804 108.78 99.285 107.306 99.6712 105.805C98.4766 104.515 97.8188 102.818 97.8318 101.06C97.7397 97.3506 98.9298 93.7233 101.201 90.7898C101.14 89.8868 101.038 89.0034 100.901 88.1566C100.006 87.492 98.9643 87.0512 97.8637 86.8709C96.7631 86.6906 95.6354 86.7761 94.5745 87.1202C91.7991 88.1344 90.1953 90.863 89.11 93.7773L89.0977 93.7986ZM86.2978 105.791C85.8374 109.34 86.0535 112.943 86.9348 116.412C87.1007 117.116 87.4103 117.779 87.8442 118.359C88.8351 119.499 90.7084 119.358 92.0605 118.617C92.3137 118.479 92.5587 118.326 92.7942 118.159C92.8151 116.44 92.5987 114.726 92.1509 113.067C91.7231 111.518 90.9847 110.072 89.9805 108.818C88.9764 107.563 87.7276 106.526 86.3101 105.77L86.2978 105.791ZM100.847 93.1024C99.4592 95.5078 98.762 98.2496 98.8324 101.026C98.8487 102.318 99.2366 103.579 99.9497 104.657C100.202 103.58 100.43 102.446 100.611 101.271C101.118 98.3384 101.344 95.3646 101.287 92.3895L100.847 93.1024ZM104.723 68.2364C103.84 69.7817 103.391 71.5375 103.425 73.3173C103.422 74.6431 103.753 75.9482 104.39 77.1112C105.026 78.2743 105.946 79.2574 107.065 79.9691C108.181 80.6293 109.486 80.8989 110.772 80.7354C112.059 80.5718 113.255 79.9844 114.17 79.0658C114.967 78.0202 115.421 76.7533 115.47 75.4393C115.518 74.1253 115.158 72.8286 114.44 71.7273C112.879 69.4757 110.527 67.8946 107.853 67.2987C107.149 67.1109 106.433 66.9685 105.71 66.8722C105.349 67.2922 105.023 67.7414 104.736 68.2151L104.723 68.2364ZM103.161 88.7502C104.354 87.6987 105.882 87.1042 107.472 87.0723C107.269 86.9553 107.103 86.7743 106.925 86.6146C104.243 84.1419 102.379 80.4492 101.237 75.3101C100.958 74.0686 100.756 72.7433 100.526 71.3446C100.295 69.9459 100.055 68.3425 99.739 66.8945C98.5729 67.0366 97.4162 67.2472 96.2749 67.5252C87.7163 69.566 78.1863 76.0232 76.2196 85.8089C76.096 86.377 76.0062 86.952 75.9507 87.5307C78.5732 83.4934 81.9028 79.9626 85.7794 77.1079C87.5598 75.6129 89.784 74.7475 92.1066 74.6463C95.0848 74.7588 97.9506 77.1102 99.762 80.9432C100.748 83.0341 101.445 85.2495 101.833 87.5284C102.316 87.8862 102.765 88.2881 103.173 88.7288L103.161 88.7502ZM102.115 89.7247L102.41 89.4113C102.271 89.3313 102.165 89.1704 102.034 89.0522L102.115 89.7247ZM80.1961 126.556C80.4997 126.031 80.7562 125.479 80.9626 124.908C82.3473 120.958 81.5536 116.718 80.4258 112.71C79.8487 113.124 79.1953 113.418 78.5033 113.577C77.2755 113.79 76.0123 113.642 74.8673 113.15C73.7223 112.658 72.745 111.844 72.0543 110.806C71.4527 109.941 71.0029 108.979 70.7242 107.962C68.1508 109.505 66.1963 111.897 65.1981 114.726C65.8965 116.761 66.3952 118.858 66.6871 120.989C67.9083 121.174 69.108 121.481 70.2681 121.905C73.7391 123.085 77.0721 124.637 80.2084 126.535L80.1961 126.556ZM66.921 123.343C67.8287 124.646 68.889 125.836 70.0794 126.887C72.4743 128.995 74.6624 129.86 76.6028 129.43C77.818 129.126 78.8882 128.405 79.6272 127.394C76.5715 125.541 73.3285 124.017 69.9523 122.846C68.9337 122.48 67.8851 122.203 66.8184 122.018C66.8823 122.425 66.9215 122.874 66.921 123.343ZM89.5295 90.4644C90.5375 88.5275 92.2032 87.0135 94.2273 86.1946C95.2834 85.8459 96.401 85.7237 97.5075 85.8357C98.614 85.9477 99.6844 86.2916 100.649 86.8449C100.267 84.966 99.6596 83.14 98.8404 81.4065C97.1848 77.9194 94.6479 75.7864 92.0332 75.6846C89.9401 75.8085 87.9432 76.606 86.3408 77.9582C82.5194 80.7773 79.2421 84.2672 76.6685 88.258C78.3332 88.3688 79.977 88.6918 81.5599 89.2192C84.0343 90.0647 86.3202 91.3845 88.2896 93.1046C88.639 92.1825 89.0597 91.2891 89.548 90.4324L89.5295 90.4644ZM83.4958 103.846C84.1688 103.96 84.8305 104.132 85.4732 104.362C85.7524 102.406 86.1451 100.467 86.6493 98.5566L86.7663 98.354C87.1097 97.0449 87.4905 95.5725 87.9857 94.1236C84.7296 91.1444 80.5228 89.4159 76.1127 89.2453L75.8479 89.7039C75.8277 91.1145 75.9221 92.5243 76.13 93.9196C76.6996 97.3273 77.5616 100.68 78.7066 103.939C79.9732 103.731 81.2603 103.677 82.5399 103.778C82.5023 100.757 81.4561 97.8356 79.5676 95.4777C79.4844 95.3751 79.4435 95.2445 79.4535 95.1128C79.4635 94.981 79.5235 94.8581 79.6212 94.7692C79.67 94.7262 79.7269 94.6933 79.7884 94.6725C79.85 94.6516 79.9151 94.6431 79.98 94.6475C80.0449 94.6519 80.1083 94.6691 80.1664 94.6981C80.2246 94.7272 80.2765 94.7674 80.3191 94.8166C82.3611 97.3595 83.4891 100.515 83.5221 103.776L83.4958 103.846ZM80.9211 110.892C81.1246 110.627 81.3125 110.351 81.4839 110.065C82.2918 108.407 82.6533 106.567 82.5326 104.726C81.347 104.621 80.153 104.662 78.9775 104.849L79.1329 105.295C79.5186 106.499 79.9211 107.698 80.2961 108.896L80.4363 109.318L80.9211 110.892ZM71.5639 107.395C71.7969 108.396 72.2132 109.345 72.7917 110.194C73.3636 111.071 74.1783 111.763 75.1367 112.185C76.095 112.607 77.1554 112.741 78.1886 112.571C78.8661 112.408 79.4968 112.09 80.0318 111.644C79.8257 110.942 79.6027 110.244 79.3949 109.57L79.2547 109.148C78.8797 107.95 78.4879 106.757 78.0653 105.617L77.8693 105.02C76.6993 105.278 75.55 105.622 74.4309 106.05C73.4654 106.424 72.5308 106.873 71.6357 107.394L71.5639 107.395ZM60.4296 124.586C59.3678 126.607 58.9634 128.909 59.273 131.171C59.4998 132.724 60.5654 134.918 62.303 134.741C62.6886 134.668 63.0558 134.519 63.3833 134.303C63.7108 134.086 63.9919 133.807 64.2103 133.481C65.1417 132.051 65.682 130.402 65.7775 128.698C65.957 126.996 65.9953 125.282 65.8919 123.574C65.5201 123.009 65.1849 122.421 64.8886 121.814C63.8043 121.827 62.7513 122.179 61.8764 122.819C61.3059 123.311 60.8386 123.912 60.5014 124.585L60.4296 124.586ZM71.3607 106.367C72.2439 105.881 73.1617 105.46 74.1067 105.109C75.2294 104.674 76.3828 104.323 77.5574 104.058C76.4063 100.797 75.5407 97.4426 74.9702 94.032C74.8367 93.1302 74.752 92.2424 74.7101 91.3791C72.4994 95.2323 71.2655 99.5681 71.1161 104.008C71.1576 104.801 71.2634 105.59 71.4325 106.366L71.3607 106.367ZM77.4849 79.5288C81.4257 72.703 89.0177 68.1986 95.9814 66.531C97.1209 66.2596 98.2736 66.047 99.4349 65.8941C98.5826 62.4442 96.9786 59.3851 93.5254 57.9033C89.1894 56.0541 84.4382 57.9041 78.9904 63.5469C73.6528 69.3009 69.437 76.0014 66.56 83.3035C65.4974 85.8617 64.608 88.4885 63.8977 91.166C67.2658 89.2417 71.0686 88.2072 74.9474 88.1602C75.0138 87.3021 75.1313 86.4487 75.2994 85.6047C75.7187 83.4703 76.481 81.4181 77.5567 79.5276L77.4849 79.5288ZM65.5465 120.871C65.3612 119.534 65.0849 118.21 64.7195 116.91C64.743 118.278 65.049 119.626 65.6183 120.87L65.5465 120.871ZM59.5887 124.072C60.0189 123.303 60.5978 122.627 61.2916 122.084C62.2215 121.389 63.3327 120.978 64.4909 120.902C63.9884 119.577 63.7543 118.166 63.8021 116.75C63.832 116.066 63.9375 115.388 64.1166 114.727C63.6177 113.345 63.0277 111.997 62.3505 110.693C61.9057 109.849 61.3643 109.059 60.7372 108.34L60.3125 111.095C59.6057 116.575 58.0418 121.911 55.6779 126.905C56.3881 128.387 57.21 129.812 58.1365 131.169L58.3293 131.451L58.301 131.278C57.9898 128.793 58.4652 126.272 59.6605 124.071L59.5887 124.072ZM65.1883 112.132C66.4995 110.002 68.2973 108.214 70.4341 106.913C70.2703 105.93 70.1934 104.934 70.2045 103.937C70.3588 99.2993 71.6499 94.7709 73.9644 90.7495C74.2415 90.2696 74.5124 89.8003 74.7895 89.3204L74.7949 89.1386C70.8242 89.2297 66.9523 90.3949 63.5908 92.5104C62.4426 97.2085 61.7325 101.96 60.985 106.876L60.9567 107.073C61.8857 107.983 62.666 109.033 63.2692 110.185C63.7781 111.176 64.2533 112.176 64.6595 113.221C64.8385 112.846 65.039 112.482 65.2601 112.131L65.1883 112.132ZM51.9458 118.394C51.4762 121.991 51.1591 125.619 50.9979 129.223C50.9751 129.878 51.1098 130.852 51.6214 130.877C52.133 130.902 52.2969 130.471 52.5304 130.165C53.2751 129.12 53.949 128.027 54.5476 126.893C53.3273 124.186 52.4763 121.327 52.0176 118.393L51.9458 118.394ZM52.5725 114.206C52.6697 118.184 53.5399 122.106 55.1346 125.753C57.2464 121.045 58.6576 116.053 59.3234 110.936L59.8763 107.515C59.4074 107.08 58.8306 106.777 58.2055 106.638C57.5804 106.5 56.9298 106.531 56.3207 106.728C54.0319 107.54 53.2177 110.625 52.8109 112.807L52.5725 114.206ZM53.2349 108.132C53.811 107.036 54.766 106.188 55.9218 105.744C56.5959 105.506 57.3182 105.438 58.0249 105.546C58.7315 105.654 59.4007 105.934 59.9731 106.363C60.6313 101.922 61.2982 97.6143 62.2826 93.3477L61.7614 93.7578C57.1658 97.505 54.0533 102.765 52.9808 108.597L53.2349 108.132Z" fill="#263238"/>
</g>
</svg>
