<svg width="24" height="23" viewBox="0 0 24 23" fill="none" xmlns="http://www.w3.org/2000/svg">
<path d="M12.5335 19.3777L11.0463 17.3584L12.0328 11.5163L14.6879 7.95485L13.4846 5.23901L14.6879 3.84224C14.6103 3.47918 14.8128 2.32666 14.6882 1.9797C16.0253 0.863353 16.5047 0.627915 18.1772 0.782771C19.8497 0.937627 21.3804 1.77286 22.445 3.11158C23.5096 4.4503 24.0245 6.18735 23.8808 7.95485C23.737 9.72234 22.9458 11.3815 21.6747 12.5808L11.9605 21.8137C12.3219 20.998 12.5335 19.3777 12.5335 19.3777Z" fill="white"/>
<path d="M2.05766 12.3898C0.85354 11.1366 0.186269 9.41737 0.202641 7.61015C0.219013 5.80293 0.917686 4.05582 2.14496 2.75315C3.37224 1.45049 5.02758 0.698974 6.74684 0.66394C8.46609 0.628906 10.1084 1.31322 11.3126 2.56634C11.4216 2.45 11.534 2.34089 11.6481 2.2354C11.7912 2.57476 11.9118 2.92465 12.0092 3.28263L10.744 5.78715L12.0916 8.4988L10.6995 11.5278L10.0259 17.4126L11.6218 19.3375C11.6218 19.3375 11.4984 20.9656 11.1801 21.7989L11.1432 21.8377L2.05766 12.3898Z" fill="white"/>
</svg>
