<svg width="576" height="506" viewBox="0 0 576 506" fill="none" xmlns="http://www.w3.org/2000/svg">
<path d="M344.952 380.354H422.335C423.548 380.35 424.711 379.832 425.571 378.913C426.43 377.994 426.916 376.748 426.924 375.446C426.92 374.142 426.435 372.893 425.576 371.97C424.716 371.048 423.551 370.528 422.335 370.524H344.952C343.736 370.528 342.571 371.048 341.711 371.97C340.851 372.893 340.367 374.142 340.363 375.446C340.37 376.748 340.857 377.994 341.716 378.913C342.575 379.832 343.738 380.35 344.952 380.354Z" fill="#EBEBEB"/>
<path d="M434.066 370.524H436.646L446.461 301.834H443.882L434.066 370.524Z" fill="#E0E0E0"/>
<path d="M394.801 370.524H397.367L407.182 301.834H404.616L394.801 370.524Z" fill="#E0E0E0"/>
<path d="M394.695 356.72H445.157C446.845 356.661 448.462 355.978 449.734 354.786C451.006 353.594 451.854 351.967 452.135 350.181L459.833 292.821C459.973 292.01 459.942 291.175 459.742 290.379C459.543 289.582 459.18 288.844 458.681 288.217C458.181 287.59 457.557 287.091 456.854 286.757C456.152 286.422 455.388 286.26 454.62 286.282H404.144C402.456 286.341 400.839 287.024 399.568 288.216C398.296 289.407 397.447 291.034 397.166 292.821L389.496 350.123C389.35 350.936 389.375 351.775 389.571 352.576C389.766 353.378 390.126 354.122 390.625 354.755C391.124 355.388 391.748 355.892 392.452 356.232C393.157 356.572 393.923 356.739 394.695 356.72Z" fill="#EBEBEB"/>
<path d="M402.149 380.354H437.542C438.754 380.35 439.916 379.832 440.773 378.912C441.63 377.993 442.113 376.747 442.117 375.446C442.113 374.145 441.631 372.897 440.774 371.975C439.917 371.054 438.755 370.532 437.542 370.524H402.149C400.935 370.528 399.771 371.049 398.913 371.971C398.056 372.894 397.574 374.144 397.574 375.446C397.578 376.747 398.061 377.993 398.918 378.912C399.775 379.832 400.937 380.35 402.149 380.354Z" fill="#F5F5F5"/>
<path d="M382.883 439.535H385.462L395.278 380.354H392.698L382.883 439.535Z" fill="#E0E0E0"/>
<path d="M338.27 439.535H340.835L350.651 380.354H348.085L338.27 439.535Z" fill="#E0E0E0"/>
<path d="M400.151 439.535H397.585L387.77 380.354H390.335L400.151 439.535Z" fill="#E0E0E0"/>
<path d="M444.774 439.535H442.194L432.379 380.354H434.958L444.774 439.535Z" fill="#E0E0E0"/>
<path d="M115.138 380.354H37.8777C36.6642 380.35 35.5012 379.832 34.6418 378.913C33.7824 377.994 33.2962 376.748 33.2891 375.447C33.2891 374.14 33.7721 372.886 34.6322 371.961C35.4924 371.036 36.6595 370.514 37.8777 370.51H115.261C116.477 370.514 117.642 371.034 118.501 371.956C119.361 372.878 119.846 374.128 119.849 375.432C119.848 376.089 119.724 376.739 119.485 377.344C119.246 377.949 118.897 378.497 118.458 378.955C118.02 379.414 117.5 379.773 116.93 380.014C116.36 380.254 115.751 380.37 115.138 380.354Z" fill="#EBEBEB"/>
<path d="M26.0238 370.524H23.4443L13.6289 301.834H16.2083L26.0238 370.524Z" fill="#E0E0E0"/>
<path d="M65.2875 370.524H62.7217L52.9062 301.834H55.4721L65.2875 370.524Z" fill="#E0E0E0"/>
<path d="M65.4094 356.719H14.9747C13.2813 356.655 11.6613 355.962 10.3912 354.759C9.12105 353.556 8.27953 351.917 8.01024 350.123L0.312676 292.762C0.172787 291.951 0.20364 291.117 0.402984 290.321C0.602328 289.524 0.965121 288.785 1.46483 288.159C1.96453 287.532 2.58852 287.033 3.29115 286.698C3.99378 286.363 4.75729 286.201 5.52584 286.224H55.9469C57.6348 286.282 59.2518 286.966 60.5236 288.157C61.7955 289.349 62.6439 290.976 62.925 292.762L70.6225 350.123C70.769 350.938 70.7432 351.777 70.547 352.58C70.3509 353.382 69.9894 354.128 69.4892 354.761C68.989 355.394 68.3628 355.898 67.6567 356.237C66.9507 356.576 66.1827 356.741 65.4094 356.719Z" fill="#EBEBEB"/>
<path d="M57.9403 380.354H22.5478C21.3355 380.35 20.1738 379.832 19.3166 378.912C18.4594 377.993 17.9762 376.747 17.9727 375.447C17.9726 374.142 18.4538 372.891 19.311 371.966C20.1682 371.041 21.3319 370.518 22.5478 370.51H57.9403C59.1549 370.514 60.3186 371.034 61.1762 371.957C62.0338 372.879 62.5154 374.129 62.5154 375.432C62.5154 376.735 62.0338 377.985 61.1762 378.907C60.3186 379.83 59.1549 380.35 57.9403 380.354Z" fill="#F5F5F5"/>
<path d="M77.2073 439.535H74.6279L64.8125 380.354H67.3919L77.2073 439.535Z" fill="#E0E0E0"/>
<path d="M121.817 439.535H119.251L109.422 380.354H112.001L121.817 439.535Z" fill="#E0E0E0"/>
<path d="M59.9375 439.535H62.5034L72.3188 380.354H69.7529L59.9375 439.535Z" fill="#E0E0E0"/>
<path d="M15.3164 439.535H17.8958L27.7112 380.354H25.1318L15.3164 439.535Z" fill="#E0E0E0"/>
<path d="M428.771 380.354H351.483C350.27 380.35 349.107 379.832 348.247 378.913C347.388 377.994 346.902 376.748 346.895 375.447C346.895 374.14 347.378 372.886 348.238 371.961C349.098 371.036 350.265 370.514 351.483 370.51H428.866C430.082 370.514 431.247 371.034 432.107 371.956C432.967 372.878 433.451 374.128 433.455 375.432C433.453 376.087 433.33 376.734 433.093 377.337C432.856 377.94 432.509 378.487 432.073 378.945C431.638 379.403 431.121 379.763 430.554 380.005C429.987 380.247 429.381 380.366 428.771 380.354Z" fill="#EBEBEB"/>
<path d="M339.643 370.524H337.077L327.262 301.834H329.828L339.643 370.524Z" fill="#E0E0E0"/>
<path d="M378.918 370.524H376.339L366.523 301.834H369.103L378.918 370.524Z" fill="#E0E0E0"/>
<path d="M379.028 356.719H328.607C326.908 356.664 325.281 355.975 324.004 354.771C322.728 353.567 321.883 351.923 321.616 350.123L313.918 292.762C313.778 291.951 313.809 291.117 314.008 290.321C314.208 289.524 314.571 288.785 315.07 288.159C315.57 287.532 316.194 287.033 316.897 286.698C317.599 286.363 318.363 286.201 319.131 286.224H369.552C371.241 286.28 372.859 286.962 374.132 288.154C375.404 289.346 376.252 290.975 376.53 292.762L384.242 350.123C384.391 350.938 384.367 351.779 384.172 352.582C383.977 353.386 383.615 354.133 383.114 354.766C382.614 355.4 381.986 355.905 381.279 356.243C380.572 356.581 379.802 356.744 379.028 356.719Z" fill="#EBEBEB"/>
<path d="M371.571 380.354H336.179C334.965 380.35 333.802 379.832 332.943 378.913C332.083 377.994 331.597 376.748 331.59 375.446C331.593 374.142 332.078 372.893 332.938 371.97C333.798 371.048 334.963 370.528 336.179 370.524H371.571C372.785 370.532 373.946 371.054 374.803 371.975C375.66 372.897 376.143 374.145 376.146 375.446C376.143 376.747 375.659 377.993 374.802 378.912C373.945 379.832 372.783 380.35 371.571 380.354Z" fill="#F5F5F5"/>
<path d="M390.836 439.535H388.257L378.441 380.354H381.007L390.836 439.535Z" fill="#E0E0E0"/>
<path d="M435.45 439.535H432.87L423.055 380.354H425.634L435.45 439.535Z" fill="#E0E0E0"/>
<path d="M373.559 439.535H376.138L385.953 380.354H383.374L373.559 439.535Z" fill="#E0E0E0"/>
<path d="M328.945 439.535H331.511L341.34 380.354H338.761L328.945 439.535Z" fill="#E0E0E0"/>
<path d="M460.85 380.354H538.233C539.447 380.35 540.61 379.832 541.469 378.913C542.329 377.994 542.815 376.748 542.822 375.446C542.818 374.142 542.334 372.893 541.474 371.97C540.614 371.048 539.449 370.528 538.233 370.524H460.85C459.635 370.528 458.469 371.048 457.61 371.97C456.75 372.893 456.265 374.142 456.262 375.446C456.269 376.748 456.755 377.994 457.614 378.913C458.474 379.832 459.637 380.35 460.85 380.354Z" fill="#EBEBEB"/>
<path d="M549.961 370.524H552.54L562.356 301.834H559.79L549.961 370.524Z" fill="#E0E0E0"/>
<path d="M510.699 370.524H513.265L523.094 301.834H520.515L510.699 370.524Z" fill="#E0E0E0"/>
<path d="M510.59 356.72H561.011C562.699 356.661 564.316 355.978 565.588 354.786C566.86 353.594 567.708 351.967 567.989 350.181L575.687 292.821C575.826 292.01 575.796 291.175 575.596 290.379C575.397 289.582 575.034 288.844 574.534 288.217C574.035 287.59 573.411 287.091 572.708 286.757C572.005 286.422 571.242 286.26 570.473 286.282H520.039C518.352 286.339 516.735 287.021 515.465 288.214C514.195 289.406 513.35 291.034 513.074 292.821L505.363 350.123C505.216 350.939 505.242 351.78 505.439 352.584C505.636 353.387 505.999 354.133 506.501 354.767C507.002 355.4 507.63 355.904 508.338 356.242C509.046 356.58 509.815 356.743 510.59 356.72Z" fill="#EBEBEB"/>
<path d="M518.044 380.354H553.436C554.649 380.35 555.81 379.832 556.667 378.912C557.525 377.993 558.008 376.747 558.011 375.446C558.011 374.144 557.53 372.894 556.672 371.971C555.815 371.049 554.651 370.528 553.436 370.524H518.044C516.83 370.532 515.669 371.054 514.812 371.975C513.955 372.897 513.472 374.145 513.469 375.446C513.472 376.747 513.955 377.993 514.813 378.912C515.67 379.832 516.832 380.35 518.044 380.354Z" fill="#F5F5F5"/>
<path d="M498.781 439.535H501.361L511.176 380.354H508.61L498.781 439.535Z" fill="#E0E0E0"/>
<path d="M454.168 439.535H456.747L466.563 380.354H463.983L454.168 439.535Z" fill="#E0E0E0"/>
<path d="M516.063 439.535H513.483L503.668 380.354H506.247L516.063 439.535Z" fill="#E0E0E0"/>
<path d="M560.672 439.535H558.093L548.277 380.354H550.857L560.672 439.535Z" fill="#E0E0E0"/>
<path d="M157.143 380.354H234.526C235.74 380.35 236.903 379.832 237.762 378.913C238.622 377.994 239.108 376.748 239.115 375.446C239.111 374.142 238.627 372.893 237.767 371.97C236.907 371.048 235.742 370.528 234.526 370.524H157.143C155.927 370.528 154.762 371.048 153.903 371.97C153.043 372.893 152.558 374.142 152.555 375.446C152.562 376.748 153.048 377.994 153.907 378.913C154.767 379.832 155.93 380.35 157.143 380.354Z" fill="#EBEBEB"/>
<path d="M246.27 370.524H248.835L258.651 301.834H256.085L246.27 370.524Z" fill="#E0E0E0"/>
<path d="M206.992 370.524H209.572L219.387 301.834H216.808L206.992 370.524Z" fill="#E0E0E0"/>
<path d="M206.887 356.72H257.308C258.996 356.661 260.613 355.978 261.885 354.786C263.156 353.594 264.005 351.967 264.286 350.181L271.983 292.821C272.123 292.01 272.092 291.175 271.893 290.379C271.694 289.582 271.331 288.844 270.831 288.217C270.332 287.59 269.708 287.091 269.005 286.757C268.302 286.422 267.539 286.26 266.77 286.282H216.336C214.649 286.339 213.032 287.021 211.762 288.214C210.492 289.406 209.647 291.034 209.371 292.821L201.66 350.123C201.513 350.939 201.539 351.78 201.736 352.584C201.933 353.387 202.296 354.133 202.798 354.767C203.299 355.4 203.927 355.904 204.635 356.242C205.343 356.58 206.112 356.743 206.887 356.72Z" fill="#EBEBEB"/>
<path d="M214.364 380.354H249.757C250.97 380.35 252.133 379.832 252.993 378.913C253.852 377.994 254.338 376.748 254.345 375.446C254.342 374.142 253.857 372.893 252.997 371.97C252.138 371.048 250.973 370.528 249.757 370.524H214.364C213.151 370.532 211.989 371.054 211.132 371.975C210.275 372.897 209.793 374.145 209.789 375.446C209.793 376.747 210.276 377.993 211.133 378.912C211.99 379.832 213.152 380.35 214.364 380.354Z" fill="#F5F5F5"/>
<path d="M195.074 439.535H197.654L207.469 380.354H204.903L195.074 439.535Z" fill="#E0E0E0"/>
<path d="M150.465 439.535H153.044L162.86 380.354H160.28L150.465 439.535Z" fill="#E0E0E0"/>
<path d="M212.356 439.535H209.776L199.961 380.354H202.54L212.356 439.535Z" fill="#E0E0E0"/>
<path d="M256.965 439.535H254.399L244.57 380.354H247.15L256.965 439.535Z" fill="#E0E0E0"/>
<path d="M286.314 505.298C431.689 505.298 549.538 497.917 549.538 488.813C549.538 479.709 431.689 472.329 286.314 472.329C140.939 472.329 23.0898 479.709 23.0898 488.813C23.0898 497.917 140.939 505.298 286.314 505.298Z" fill="#F5F5F5"/>
<path d="M249.659 236.275C249.931 244.459 236.708 262.749 236.708 262.749C236.708 262.749 222.303 245.522 222.032 237.338C221.76 229.154 225.928 222.354 235.35 221.99C244.772 221.626 249.428 228.091 249.659 236.275Z" fill="#FFBCBC"/>
<path d="M237.224 236.785H236.301V453.995H237.224V236.785Z" fill="#263238"/>
<path d="M213.402 447.442C212.973 447.439 212.548 447.538 212.159 447.73C211.769 447.923 211.424 448.205 211.147 448.556C210.87 448.907 210.668 449.32 210.555 449.764C210.443 450.208 210.423 450.673 210.496 451.126C212.465 462.572 223.475 471.339 236.766 471.339C250.057 471.339 261.053 462.601 263.022 451.126C263.098 450.674 263.08 450.209 262.969 449.765C262.858 449.321 262.658 448.908 262.382 448.556C262.106 448.205 261.761 447.923 261.372 447.73C260.983 447.537 260.559 447.439 260.13 447.442H213.402Z" fill="#FFBCBC"/>
<path d="M229.434 280.632C224.55 275.279 218.526 271.281 211.88 268.982C206.341 275.084 211.649 283.457 229.434 280.632Z" fill="#FFBCBC"/>
<path d="M236.495 291.029C232.233 282.787 222.919 272.87 211.801 269.273L211.977 268.633C223.3 272.273 232.721 282.35 237.038 290.709L236.495 291.029Z" fill="#263238"/>
<path d="M226.759 337.206C226.759 317.547 213.413 312.086 202.797 321.26C195.249 329.634 202.39 341.05 226.759 337.206C224.942 335.261 223.02 333.433 221.002 331.731C223.02 333.433 224.942 335.261 226.759 337.206Z" fill="#FFBCBC"/>
<path d="M236.492 351.331C230.668 340.06 217.961 326.488 202.715 321.581L202.891 320.94C218.314 325.906 231.156 339.609 237.035 351.011L236.492 351.331Z" fill="#263238"/>
<path d="M246.16 305.271C252.412 298.386 260.14 293.247 268.669 290.301C275.715 298.165 269.008 308.882 246.16 305.271Z" fill="#FFBCBC"/>
<path d="M237.035 318.537L236.492 318.217C242.018 307.514 254.059 294.641 268.545 289.981L268.721 290.621C254.412 295.238 242.493 307.965 237.035 318.537Z" fill="#263238"/>
<path d="M246.645 362.37C253.499 352.422 262.517 344.423 272.914 339.07C283.205 347.866 276.376 362.763 246.645 362.37Z" fill="#FFBCBC"/>
<path d="M237.049 380.936L236.465 380.703C241.8 366.054 255.091 347.443 272.781 338.837L273.038 339.449C255.512 347.967 242.33 366.432 237.049 380.936Z" fill="#263238"/>
<path d="M168.614 416.075H76.528C75.0878 416.075 73.7066 415.461 72.6882 414.369C71.6698 413.277 71.0977 411.795 71.0977 410.25C71.0977 408.705 71.6698 407.224 72.6882 406.131C73.7066 405.039 75.0878 404.425 76.528 404.425H168.614C170.054 404.425 171.435 405.039 172.454 406.131C173.472 407.224 174.044 408.705 174.044 410.25C174.044 411.795 173.472 413.277 172.454 414.369C171.435 415.461 170.054 416.075 168.614 416.075Z" fill="#FFBCBC"/>
<path d="M62.4896 404.367H59.435L47.7461 322.557H50.8007L62.4896 404.367Z" fill="#263238"/>
<path d="M109.257 404.367H106.189L94.5 322.557H97.5682L109.257 404.367Z" fill="#263238"/>
<path d="M109.38 387.985H49.3332C47.3238 387.916 45.3987 387.102 43.8862 385.681C42.3736 384.261 41.3671 382.321 41.0383 380.194L31.861 311.897C31.6973 310.931 31.7364 309.937 31.9755 308.989C32.2146 308.041 32.6476 307.162 33.2431 306.416C33.8385 305.67 34.5815 305.076 35.418 304.676C36.2544 304.276 37.1634 304.082 38.0787 304.106H98.1252C100.135 304.177 102.061 304.992 103.575 306.412C105.09 307.832 106.1 309.77 106.434 311.897L115.597 380.194C115.761 381.16 115.722 382.154 115.483 383.102C115.244 384.05 114.811 384.929 114.215 385.675C113.62 386.421 112.877 387.015 112.04 387.415C111.204 387.815 110.295 388.009 109.38 387.985Z" fill="#FFBCBC"/>
<path opacity="0.4" d="M31.8624 311.839L41.0398 380.136C41.2706 381.79 41.9344 383.34 42.954 384.606C45.1533 387.388 49.0632 385.873 48.6016 382.48L38.8133 309.494C38.3517 306.101 34.0346 304.601 32.582 307.368C31.8951 308.735 31.6425 310.304 31.8624 311.839Z" fill="white"/>
<path d="M100.5 416.075H58.4148C56.9745 416.075 55.5933 415.461 54.5749 414.369C53.5565 413.277 52.9844 411.795 52.9844 410.25C52.9844 408.705 53.5565 407.224 54.5749 406.131C55.5933 405.039 56.9745 404.425 58.4148 404.425H100.5C101.94 404.425 103.322 405.039 104.34 406.131C105.358 407.224 105.931 408.705 105.931 410.25C105.931 411.795 105.358 413.277 104.34 414.369C103.322 415.461 101.94 416.075 100.5 416.075Z" fill="#FFBCBC"/>
<path opacity="0.4" d="M100.5 416.075H58.4148C56.9745 416.075 55.5933 415.461 54.5749 414.369C53.5565 413.277 52.9844 411.795 52.9844 410.25C52.9844 408.705 53.5565 407.224 54.5749 406.131C55.5933 405.039 56.9745 404.425 58.4148 404.425H100.5C101.94 404.425 103.322 405.039 104.34 406.131C105.358 407.224 105.931 408.705 105.931 410.25C105.931 411.795 105.358 413.277 104.34 414.369C103.322 415.461 101.94 416.075 100.5 416.075Z" fill="white"/>
<path d="M123.445 486.527H120.376L108.688 416.075H111.742L123.445 486.527Z" fill="#263238"/>
<path d="M176.566 486.527H173.497L161.809 416.075H164.877L176.566 486.527Z" fill="#263238"/>
<path d="M102.875 486.527H105.93L117.618 416.075H114.564L102.875 486.527Z" fill="#263238"/>
<path d="M49.7383 486.527H52.8064L64.4953 416.075H61.4408L49.7383 486.527Z" fill="#263238"/>
<path d="M207.262 418.842L192.125 425.905L200.8 436.768L213.466 430.885L207.262 418.842Z" fill="#7F3E3B"/>
<path opacity="0.2" d="M207.264 418.856L192.113 425.919L196.987 432.006L210.739 425.599L207.264 418.856Z" fill="black"/>
<path d="M198.138 442.011L199.862 441.661C200.368 441.555 200.841 441.316 201.239 440.965C201.637 440.614 201.948 440.163 202.143 439.651L203.229 440.249C203.85 440.58 204.555 440.688 205.238 440.554L228.779 435.632C228.59 433.891 227.977 432.233 227 430.827C227 430.827 216.561 432.385 213.628 429.633C213.521 429.525 213.388 429.452 213.244 429.421C213.1 429.39 212.951 429.403 212.814 429.458C210.899 430.332 203.31 433.55 198.613 432.895C198.467 432.879 198.319 432.899 198.181 432.955C198.043 433.011 197.92 433.1 197.82 433.216C197.72 433.332 197.646 433.471 197.605 433.622C197.563 433.774 197.555 433.933 197.581 434.089C197.943 436.712 198.129 439.359 198.138 442.011Z" fill="#FFBCBC"/>
<path d="M213.194 430.288H213.113C213.067 430.271 213.027 430.239 212.998 430.198C212.969 430.156 212.952 430.107 212.95 430.055C212.855 428.409 213.588 425.38 214.62 424.856C214.778 424.779 214.955 424.757 215.125 424.793C215.296 424.83 215.451 424.923 215.57 425.06C215.678 425.164 215.764 425.292 215.82 425.436C215.876 425.579 215.902 425.734 215.896 425.89C215.896 427.477 213.479 430.113 213.371 430.259C213.317 430.291 213.254 430.301 213.194 430.288ZM214.972 425.293H214.837C214.185 425.628 213.547 427.739 213.479 429.312C214.267 428.38 215.448 426.778 215.434 425.846C215.433 425.765 215.417 425.684 215.387 425.609C215.357 425.534 215.313 425.466 215.258 425.409C215.221 425.369 215.176 425.338 215.127 425.318C215.078 425.298 215.025 425.289 214.972 425.293Z" fill="#FFBCBC"/>
<path d="M215.438 430.477C214.674 430.472 213.912 430.409 213.157 430.288C213.109 430.278 213.064 430.254 213.027 430.218C212.991 430.182 212.966 430.135 212.954 430.084C212.945 430.033 212.949 429.98 212.966 429.932C212.983 429.883 213.011 429.84 213.049 429.807C214.216 428.773 216.945 427.608 217.936 428.205C218.088 428.298 218.21 428.439 218.285 428.608C218.36 428.777 218.385 428.967 218.357 429.152C218.313 429.461 218.157 429.738 217.922 429.924C217.158 430.353 216.298 430.544 215.438 430.477ZM213.863 429.836C215.123 430.093 216.424 429.972 217.624 429.487C217.687 429.44 217.74 429.38 217.78 429.31C217.819 429.239 217.845 429.161 217.854 429.079C217.854 428.817 217.854 428.73 217.705 428.671C217.081 428.307 215.098 428.992 213.863 429.836Z" fill="#FFBCBC"/>
<path d="M71.1914 367.714L77.6807 382.276C87.2518 403.785 110.847 414.604 129.677 406.144C140.673 401.178 152.674 390.737 160.901 385.96C167.893 402.372 180.967 420.502 190.972 433.098L211.227 422.177C203.666 403.552 191.882 374.485 184.415 355.598C183.076 352.268 180.89 349.41 178.107 347.35C175.325 345.29 172.058 344.111 168.68 343.948C134.958 342.915 71.1914 367.714 71.1914 367.714Z" fill="#263238"/>
<path d="M169.6 466.519L153.105 465.689L156.432 479.552L170.211 480.251L169.6 466.519Z" fill="#7F3E3B"/>
<path opacity="0.2" d="M169.602 466.519L153.094 465.689L154.954 473.45L169.942 474.208L169.602 466.519Z" fill="black"/>
<path d="M153.895 486.848H155.659C156.172 486.852 156.677 486.721 157.132 486.467C157.586 486.213 157.975 485.844 158.266 485.391L159.216 486.178C159.765 486.643 160.445 486.895 161.144 486.891H185.106C185.236 485.143 184.931 483.39 184.223 481.809C184.223 481.809 173.702 481.197 171.312 477.892C171.23 477.763 171.113 477.664 170.978 477.607C170.842 477.55 170.694 477.538 170.552 477.571C168.516 478.023 160.547 479.639 155.999 478.023C155.857 477.975 155.707 477.963 155.561 477.989C155.415 478.015 155.276 478.077 155.156 478.17C155.036 478.263 154.938 478.386 154.869 478.527C154.801 478.668 154.765 478.825 154.763 478.984C154.651 481.624 154.361 484.252 153.895 486.848Z" fill="#FFBCBC"/>
<path d="M170.822 478.43C170.777 478.443 170.73 478.443 170.686 478.43C170.646 478.403 170.615 478.363 170.595 478.317C170.576 478.27 170.57 478.219 170.577 478.168C170.781 476.552 172.03 473.712 173.143 473.421C173.311 473.374 173.488 473.385 173.649 473.453C173.81 473.521 173.947 473.643 174.039 473.8C174.125 473.926 174.185 474.071 174.215 474.224C174.245 474.377 174.246 474.535 174.216 474.688C173.958 476.261 171.08 478.343 170.957 478.43C170.913 478.445 170.866 478.445 170.822 478.43ZM173.347 473.873H173.265C172.559 474.062 171.568 476.013 171.188 477.528C172.139 476.785 173.564 475.46 173.727 474.528C173.743 474.447 173.742 474.364 173.726 474.284C173.71 474.204 173.678 474.128 173.632 474.062C173.601 474.011 173.559 473.969 173.509 473.941C173.459 473.913 173.403 473.9 173.347 473.902V473.873Z" fill="#FFBCBC"/>
<path d="M174.394 479.232C173.147 479.147 171.917 478.873 170.742 478.416C170.697 478.399 170.657 478.368 170.628 478.326C170.599 478.285 170.582 478.235 170.579 478.183C170.575 478.132 170.584 478.08 170.605 478.033C170.627 477.987 170.66 477.948 170.701 477.921C172.059 477.149 174.924 476.567 175.792 477.353C175.93 477.469 176.028 477.63 176.072 477.811C176.116 477.993 176.104 478.185 176.037 478.358C175.989 478.505 175.914 478.64 175.816 478.756C175.718 478.871 175.599 478.963 175.467 479.028C175.127 479.177 174.761 479.247 174.394 479.232ZM171.502 478.125C172.693 478.628 173.988 478.774 175.249 478.547C175.391 478.478 175.503 478.353 175.562 478.198C175.63 477.95 175.562 477.834 175.48 477.761C174.991 477.266 172.874 477.542 171.502 478.125Z" fill="#FFBCBC"/>
<path d="M61.7539 361.948L61.8625 377.34C62.039 400.042 79.9593 406.639 101.409 408.372C113.913 409.362 130.815 409.668 140.562 409.464C141.988 425.366 146.617 457.767 151.274 471.339L172.344 469.766C172.9 450.5 173.701 423.167 174.394 405.052C174.421 401.432 173.485 397.879 171.696 394.81C169.907 391.74 167.339 389.282 164.293 387.723C132.702 371.005 61.7539 361.948 61.7539 361.948Z" fill="#263238"/>
<path opacity="0.2" d="M161.674 387.868C165.281 395.639 169.467 403.085 174.191 410.134C174.082 413.308 173.973 416.687 173.851 420.182C166.398 407.556 161.633 387.839 161.633 387.839L161.674 387.868Z" fill="black"/>
<path d="M130.501 273.045L131.859 273.788L133.542 274.691C134.696 275.259 135.864 275.841 137.045 276.351C139.345 277.377 141.703 278.248 144.104 278.957C146.327 279.601 148.599 280.035 150.892 280.253C152.929 280.422 154.977 280.315 156.988 279.933L152.915 282.554C154.179 281.529 155.248 280.254 156.065 278.797C157.315 276.737 158.44 274.591 159.432 272.375C160.531 270.016 161.55 267.526 162.554 264.978L165.541 257.274L165.69 256.91C166.192 255.623 167.082 254.554 168.216 253.872C169.351 253.19 170.666 252.935 171.951 253.148C173.236 253.361 174.418 254.029 175.309 255.046C176.199 256.063 176.746 257.37 176.863 258.76C177.118 261.946 177.163 265.148 176.999 268.341C176.847 271.561 176.502 274.766 175.967 277.938C175.397 281.326 174.538 284.65 173.401 287.869C172.053 291.809 170.016 295.437 167.401 298.558C166.547 299.546 165.493 300.308 164.319 300.786L163.314 301.179C159.361 302.753 155.201 303.648 150.987 303.83C147.033 304.011 143.072 303.684 139.19 302.854C135.512 302.088 131.907 300.957 128.424 299.475C126.714 298.733 125.017 298.019 123.374 297.073C122.546 296.621 121.731 296.17 120.903 295.617L119.654 294.83L118.215 293.884C115.692 292.216 113.868 289.568 113.123 286.491C112.378 283.415 112.77 280.148 114.218 277.375C115.666 274.602 118.057 272.536 120.892 271.61C123.727 270.683 126.785 270.968 129.429 272.404L130.501 273.045Z" fill="#803E3C"/>
<path d="M170.052 264.41L165.491 259.182C162.857 252.25 171.763 250.168 171.763 250.168L175.673 247.255C176.393 246.804 177.239 246.64 178.061 246.792C178.883 246.944 179.628 247.402 180.167 248.085L183.357 251.711C184.054 252.415 184.467 253.383 184.508 254.409C184.549 255.435 184.213 256.437 183.574 257.201L180.601 260.259C179.735 261.15 178.676 261.796 177.519 262.138L170.052 264.41Z" fill="#7F3E3B"/>
<path d="M107.113 262.546C109.91 258.512 118.476 259.546 127.192 268.662C129.35 268.56 134.944 273.992 141.433 275.754C147.922 277.516 150.054 290.025 148.873 295.02C147.637 300.262 145.194 303.757 139.139 304.441C133.084 305.126 125.115 300.932 118.693 295.704C112.272 290.476 102.131 269.696 107.113 262.546Z" fill="#FFBCBC"/>
<path d="M103.922 259.342C91.7804 259.414 79.6704 260.671 67.7418 263.099C65.7756 263.539 63.9137 264.404 62.2702 265.643C60.6267 266.881 59.2363 268.466 58.1839 270.301C57.1315 272.136 56.4395 274.182 56.1501 276.314C55.8607 278.446 55.9801 280.619 56.5009 282.7C65.4339 319.105 60.3836 358.962 61.0896 366.258C61.0896 366.258 132.2 377.238 143.102 354.608C148.899 324.406 132.852 312.188 124.313 276.147C123.025 271.382 120.352 267.183 116.685 264.16C113.017 261.138 108.546 259.45 103.922 259.342Z" fill="#FFBCBC"/>
<path opacity="0.8" d="M103.922 259.342C91.7804 259.414 79.6704 260.671 67.7418 263.099C65.7756 263.539 63.9137 264.404 62.2702 265.643C60.6267 266.881 59.2363 268.466 58.1839 270.301C57.1315 272.136 56.4395 274.182 56.1501 276.314C55.8607 278.446 55.9801 280.619 56.5009 282.7C65.4339 319.105 60.3836 358.962 61.0896 366.258C61.0896 366.258 132.2 377.238 143.102 354.608C148.899 324.406 132.852 312.188 124.313 276.147C123.025 271.382 120.352 267.183 116.685 264.16C113.017 261.138 108.546 259.45 103.922 259.342Z" fill="white"/>
<g opacity="0.2">
<path d="M70.6043 363.811C70.5614 363.806 70.5199 363.792 70.4823 363.769C70.4446 363.746 70.4116 363.715 70.385 363.679C70.3585 363.642 70.339 363.6 70.3277 363.556C70.3164 363.511 70.3136 363.464 70.3192 363.418C70.3192 362.991 70.36 362.54 70.4414 362.064C70.4516 361.973 70.4937 361.889 70.5592 361.829C70.6247 361.77 70.7087 361.739 70.7944 361.744C70.8367 361.747 70.878 361.76 70.9155 361.781C70.9531 361.802 70.9863 361.832 71.013 361.867C71.0396 361.902 71.0593 361.943 71.0707 361.987C71.0822 362.031 71.0852 362.077 71.0795 362.122C71.0795 362.603 71.0795 363.069 70.9573 363.506C70.9471 363.596 70.9045 363.678 70.8386 363.735C70.7727 363.792 70.6887 363.82 70.6043 363.811Z" fill="#FFBCBC"/>
<path d="M70.8882 359.632C70.8042 359.624 70.7261 359.582 70.6704 359.515C70.6147 359.447 70.5857 359.358 70.5895 359.268C70.5895 358.38 70.5895 357.448 70.5895 356.457C70.5929 356.366 70.6283 356.279 70.6887 356.214C70.7491 356.149 70.83 356.111 70.9154 356.108C71.0006 356.115 71.0801 356.157 71.138 356.224C71.1959 356.292 71.2279 356.38 71.2276 356.472C71.2276 357.462 71.2276 358.409 71.1462 359.297C71.1473 359.377 71.1219 359.454 71.0747 359.515C71.0274 359.577 70.9613 359.618 70.8882 359.632ZM70.9968 353.996C70.9104 353.996 70.8275 353.96 70.7664 353.894C70.7053 353.828 70.671 353.74 70.671 353.647V353.487C70.671 352.613 70.671 351.739 70.671 350.822C70.6692 350.777 70.6759 350.731 70.6908 350.689C70.7056 350.647 70.7283 350.608 70.7575 350.575C70.7867 350.543 70.8217 350.517 70.8605 350.499C70.8993 350.481 70.9411 350.472 70.9832 350.472C71.0265 350.47 71.0698 350.478 71.1102 350.495C71.1506 350.512 71.1873 350.537 71.2179 350.57C71.2486 350.603 71.2725 350.642 71.2882 350.686C71.3039 350.729 71.311 350.775 71.3091 350.822C71.3091 351.725 71.3091 352.613 71.3091 353.472V353.647C71.3091 353.737 71.2767 353.824 71.2185 353.889C71.1603 353.954 71.0809 353.993 70.9968 353.996ZM70.9289 348.346C70.8461 348.346 70.7667 348.311 70.7081 348.248C70.6496 348.185 70.6167 348.1 70.6167 348.011C70.6167 347.079 70.6167 346.147 70.5488 345.186C70.547 345.14 70.5536 345.094 70.5683 345.051C70.5831 345.008 70.6056 344.969 70.6346 344.935C70.6636 344.901 70.6985 344.874 70.7374 344.854C70.7762 344.835 70.8183 344.824 70.8611 344.822C70.9475 344.822 71.0303 344.859 71.0914 344.925C71.1526 344.99 71.1869 345.079 71.1869 345.172C71.1869 346.133 71.1869 347.065 71.1869 347.997C71.1887 348.042 71.182 348.087 71.1671 348.129C71.1523 348.172 71.1295 348.21 71.1004 348.243C71.0712 348.276 71.0361 348.302 70.9973 348.319C70.9586 348.337 70.9168 348.346 70.8746 348.346H70.9289ZM70.7796 342.711C70.6955 342.711 70.6146 342.676 70.5539 342.613C70.4932 342.551 70.4573 342.466 70.4538 342.376C70.4538 341.444 70.4538 340.497 70.3452 339.551C70.3449 339.459 70.3769 339.37 70.4348 339.303C70.4927 339.236 70.5722 339.194 70.6574 339.187C70.7415 339.186 70.8224 339.221 70.8831 339.284C70.9439 339.346 70.9797 339.431 70.9832 339.522C70.9832 340.483 70.9832 341.415 71.0919 342.347C71.0921 342.438 71.0601 342.527 71.0022 342.594C70.9443 342.662 70.8648 342.703 70.7796 342.711ZM70.5488 337.017C70.4683 337.017 70.3909 336.984 70.3327 336.924C70.2745 336.864 70.2401 336.783 70.2366 336.696C70.2366 335.764 70.1415 334.818 70.1008 333.871C70.097 333.781 70.126 333.693 70.1817 333.625C70.2374 333.557 70.3155 333.515 70.3995 333.507C70.4826 333.511 70.5617 333.547 70.6218 333.608C70.6819 333.67 70.7187 333.753 70.7253 333.842L70.8475 336.653C70.8512 336.698 70.8463 336.743 70.8331 336.787C70.82 336.83 70.7988 336.869 70.7708 336.903C70.7429 336.937 70.7088 336.965 70.6707 336.985C70.6325 337.004 70.591 337.015 70.5488 337.017ZM70.2773 331.381C70.1963 331.378 70.1189 331.344 70.0591 331.286C69.9993 331.227 69.9612 331.147 69.9515 331.061C69.9515 330.129 69.8564 329.182 69.8021 328.236C69.8021 328.143 69.8365 328.054 69.8976 327.989C69.9587 327.923 70.0415 327.886 70.128 327.886C70.2144 327.886 70.2972 327.923 70.3583 327.989C70.4194 328.054 70.4538 328.143 70.4538 328.236C70.4538 329.182 70.5488 330.129 70.6031 331.061C70.6069 331.151 70.5779 331.24 70.5222 331.308C70.4665 331.375 70.3885 331.417 70.3044 331.425L70.2773 331.381ZM69.965 325.76C69.8809 325.76 69.8 325.725 69.7393 325.663C69.6786 325.601 69.6427 325.515 69.6392 325.425C69.6392 324.493 69.5306 323.547 69.4627 322.615C69.459 322.568 69.4642 322.522 69.4782 322.478C69.4922 322.434 69.5146 322.393 69.544 322.359C69.5734 322.325 69.6091 322.297 69.6489 322.279C69.6886 322.26 69.7316 322.251 69.775 322.251C69.8171 322.247 69.8595 322.252 69.8997 322.266C69.9398 322.28 69.9769 322.303 70.0087 322.333C70.0404 322.363 70.0661 322.399 70.0843 322.44C70.1025 322.481 70.1127 322.526 70.1144 322.571C70.1144 323.503 70.223 324.45 70.2909 325.382C70.2927 325.428 70.2861 325.473 70.2713 325.516C70.2566 325.56 70.2341 325.599 70.2051 325.633C70.1761 325.667 70.1412 325.694 70.1023 325.714C70.0635 325.733 70.0214 325.744 69.9786 325.746L69.965 325.76ZM69.6121 320.125C69.528 320.125 69.4471 320.09 69.3864 320.027C69.3256 319.965 69.2898 319.88 69.2862 319.79C69.2862 318.858 69.1641 317.911 69.0962 316.979C69.0962 316.886 69.1305 316.798 69.1916 316.732C69.2527 316.667 69.3356 316.63 69.422 316.63C69.5084 316.63 69.5913 316.667 69.6524 316.732C69.7135 316.798 69.7478 316.886 69.7478 316.979C69.7478 317.911 69.87 318.843 69.9379 319.79C69.9417 319.884 69.9113 319.976 69.853 320.047C69.7948 320.117 69.7133 320.161 69.6256 320.168L69.6121 320.125ZM69.2184 314.489C69.1378 314.489 69.0604 314.456 69.0022 314.396C68.9441 314.336 68.9096 314.255 68.9061 314.169L68.7025 311.358C68.6927 311.307 68.6935 311.255 68.705 311.204C68.7165 311.154 68.7383 311.107 68.7688 311.067C68.7994 311.026 68.8379 310.994 68.8816 310.972C68.9253 310.949 68.9731 310.938 69.0215 310.938C69.0699 310.938 69.1177 310.949 69.1614 310.972C69.2051 310.994 69.2437 311.026 69.2742 311.067C69.3048 311.107 69.3266 311.154 69.3381 311.204C69.3495 311.255 69.3504 311.307 69.3406 311.358L69.5442 314.169C69.5479 314.215 69.5431 314.261 69.5301 314.305C69.5171 314.349 69.4961 314.389 69.4683 314.425C69.4406 314.46 69.4066 314.489 69.3683 314.51C69.3301 314.531 69.2884 314.544 69.2455 314.547L69.2184 314.489ZM68.8111 308.868C68.7292 308.868 68.6502 308.836 68.5898 308.776C68.5294 308.717 68.4921 308.635 68.4853 308.548L68.2681 305.737C68.2604 305.647 68.2858 305.557 68.3391 305.486C68.3923 305.415 68.4691 305.37 68.5531 305.359C68.5963 305.352 68.6402 305.356 68.682 305.369C68.7238 305.382 68.7625 305.405 68.7958 305.435C68.829 305.465 68.856 305.502 68.875 305.544C68.894 305.586 68.9046 305.632 68.9061 305.679L69.1233 308.489C69.131 308.58 69.1056 308.67 69.0523 308.741C68.9991 308.811 68.9223 308.857 68.8382 308.868H68.8111ZM68.3631 303.232C68.2825 303.237 68.2035 303.207 68.1427 303.15C68.082 303.093 68.0442 303.013 68.0373 302.927C67.9558 301.966 67.8743 301.034 67.7929 300.116C67.7839 300.023 67.8096 299.931 67.8643 299.858C67.9191 299.786 67.9984 299.74 68.0848 299.73C68.1712 299.721 68.2576 299.748 68.3251 299.807C68.3926 299.866 68.4355 299.951 68.4445 300.043C68.526 300.975 68.6075 301.907 68.6753 302.868C68.6791 302.912 68.6746 302.957 68.6623 302.999C68.6499 303.041 68.63 303.08 68.6035 303.114C68.5769 303.148 68.5445 303.176 68.5079 303.196C68.4713 303.216 68.4313 303.229 68.3902 303.232H68.3631ZM67.8743 297.699C67.7953 297.697 67.7196 297.665 67.6601 297.609C67.6006 297.553 67.5611 297.477 67.5485 297.393C67.4671 296.432 67.3856 295.485 67.2906 294.582C67.2869 294.537 67.2917 294.49 67.3047 294.446C67.3177 294.402 67.3387 294.362 67.3665 294.327C67.3942 294.291 67.4282 294.262 67.4664 294.241C67.5047 294.22 67.5464 294.208 67.5893 294.204C67.6313 294.198 67.6741 294.201 67.715 294.213C67.7559 294.226 67.7941 294.247 67.8271 294.275C67.8602 294.304 67.8874 294.339 67.9072 294.38C67.927 294.42 67.9389 294.464 67.9422 294.51C68.0237 295.427 68.1187 296.359 68.2002 297.32C68.2039 297.366 68.1991 297.412 68.1861 297.456C68.1731 297.5 68.1521 297.541 68.1243 297.576C68.0965 297.611 68.0626 297.64 68.0243 297.661C67.9861 297.682 67.9443 297.695 67.9015 297.699H67.8743ZM67.3585 292.092C67.3175 292.094 67.2765 292.088 67.2379 292.073C67.1993 292.057 67.1639 292.034 67.1336 292.005C67.1033 291.975 67.0788 291.939 67.0615 291.899C67.0442 291.859 67.0344 291.816 67.0326 291.772C66.9331 290.801 66.838 289.869 66.7475 288.976C66.7396 288.884 66.7646 288.792 66.8176 288.719C66.8705 288.646 66.9474 288.597 67.0326 288.583C67.0755 288.579 67.1186 288.584 67.1595 288.598C67.2005 288.612 67.2385 288.634 67.2713 288.664C67.3041 288.694 67.3311 288.73 67.3507 288.772C67.3703 288.813 67.3822 288.857 67.3856 288.903C67.4806 289.777 67.5757 290.724 67.6707 291.699C67.6764 291.745 67.6735 291.792 67.6622 291.837C67.6509 291.881 67.6314 291.923 67.6049 291.96C67.5784 291.996 67.5453 292.027 67.5077 292.05C67.47 292.072 67.4285 292.087 67.3856 292.092H67.3585Z" fill="#FFBCBC"/>
<path d="M66.7624 286.442C66.6901 286.444 66.6194 286.419 66.5625 286.371C66.5055 286.323 66.4658 286.256 66.4501 286.18L66.3008 284.797C66.3061 284.715 66.3381 284.638 66.3912 284.578C66.4444 284.519 66.5152 284.482 66.5914 284.473C66.6675 284.465 66.744 284.485 66.8076 284.531C66.8711 284.577 66.9176 284.645 66.9389 284.724L67.0882 286.02C67.1006 286.114 67.0796 286.21 67.0293 286.288C66.979 286.366 66.9031 286.421 66.8167 286.442H66.7624Z" fill="#FFBCBC"/>
</g>
<path d="M75.3732 298.966L73.7577 302.898L72.0879 307.062C70.9746 309.858 69.9429 312.683 68.9111 315.479C67.8793 318.275 66.9969 321.13 66.1145 323.926C65.232 326.721 64.5261 329.532 63.8744 332.313L63.4943 327.231C63.5743 327.449 63.6113 327.682 63.6029 327.916C63.7824 328.3 63.9322 328.699 64.0509 329.11C64.5292 330.124 65.0783 331.097 65.6936 332.022C67.1872 334.323 68.8198 336.517 70.5809 338.59C72.4137 340.832 74.3958 343.06 76.4458 345.288L82.6771 352.016L82.8672 352.22C83.7755 353.232 84.3384 354.544 84.4646 355.942C84.5908 357.34 84.2728 358.743 83.5624 359.923C82.852 361.103 81.7907 361.992 80.5506 362.444C79.3106 362.896 77.9646 362.885 76.7308 362.413C73.6733 361.153 70.6901 359.694 67.7979 358.045C64.8847 356.413 62.0609 354.605 59.34 352.628C56.43 350.533 53.7036 348.16 51.1945 345.536C49.782 344.046 48.4709 342.45 47.271 340.759C46.6194 339.784 45.9949 338.764 45.4111 337.745C44.8138 336.493 44.2707 335.211 43.7549 333.915C43.3058 332.776 43.1285 331.535 43.239 330.304L43.3747 328.848C43.678 325.234 44.1675 321.641 44.8409 318.086C45.5206 314.552 46.3679 311.057 47.3796 307.616C48.33 304.194 49.4432 300.874 50.665 297.582C51.2895 295.952 51.914 294.306 52.62 292.69C52.9729 291.889 53.3123 291.073 53.6925 290.272L54.9279 287.709C56.3184 284.899 58.6663 282.773 61.4822 281.775C64.2982 280.776 67.3648 280.981 70.0429 282.348C72.7211 283.715 74.8041 286.138 75.8579 289.112C76.9116 292.085 76.8547 295.381 75.6991 298.311L75.3732 298.966Z" fill="#803E3C"/>
<path d="M80.0527 354.491L77.7584 358.263C76.2514 365.544 85.3473 366.025 85.3473 366.025L89.6509 368.151C90.4286 368.47 91.2866 368.483 92.0722 368.187C92.8578 367.891 93.52 367.305 93.9409 366.534L96.5203 362.384C97.0994 361.566 97.3581 360.538 97.2415 359.518C97.1249 358.498 96.6421 357.567 95.8958 356.923L92.4747 354.448C91.4847 353.724 90.341 353.278 89.1486 353.152L83.8404 352.569C83.1059 352.491 82.3655 352.629 81.6984 352.968C81.0313 353.306 80.4624 353.833 80.0527 354.491Z" fill="#7F3E3B"/>
<path d="M65.0242 266.871C60.4219 265.953 54.1634 275.521 53.1859 286.093C49.2761 290.461 48.9095 297.641 45.7056 303.946C39.2299 316.877 44.6602 321.144 48.9367 323.561C58.0597 328.745 68.2824 326.823 70.9976 320.998C73.7128 315.173 76.6316 308.329 77.4462 299.781C78.6001 287.199 73.1697 268.574 65.0242 266.871Z" fill="#FFBCBC"/>
<path d="M132.662 296.913L116.819 298.209C116.417 298.201 116.027 298.056 115.707 297.794C115.387 297.532 115.153 297.167 115.041 296.752L112.855 289.34C112.785 289.172 112.754 288.989 112.763 288.805C112.773 288.621 112.822 288.443 112.908 288.283C112.995 288.124 113.115 287.989 113.259 287.89C113.403 287.79 113.567 287.728 113.737 287.709L129.594 286.399C129.997 286.404 130.388 286.548 130.708 286.811C131.029 287.073 131.261 287.439 131.372 287.855L133.545 295.253C133.62 295.422 133.655 295.608 133.649 295.796C133.642 295.983 133.594 296.167 133.507 296.33C133.42 296.493 133.298 296.631 133.151 296.732C133.004 296.834 132.836 296.896 132.662 296.913Z" fill="white"/>
<path d="M104.478 263.274C103.405 261.352 101.76 259.875 99.8078 259.08C98.9832 257.145 98.8058 254.964 99.3055 252.905L77.3125 246.949C79.4847 254.493 81.1952 260.449 78.7651 264.337C83.1637 266.827 90.9835 271.618 99.482 272.128C105.863 272.492 106.039 266.39 104.478 263.274Z" fill="#7F3E3B"/>
<path opacity="0.2" d="M99.17 253.634H82.8789C88.3093 259.109 96.0747 260.784 99.4416 258.192C98.9955 256.721 98.9021 255.153 99.17 253.634Z" fill="black"/>
<path d="M102.265 238.198C104.98 234.135 105.713 228.091 103.622 227.261C103.799 223.155 103.337 218.844 99.5494 218.131C98.4811 217.927 97.3843 217.973 96.3342 218.267C95.2841 218.56 94.3057 219.094 93.4661 219.831C92.6265 220.569 91.9456 221.492 91.4701 222.538C90.9946 223.585 90.7358 224.729 90.7115 225.893C85.254 232.635 93.9697 240.455 102.265 238.198Z" fill="#E0E0E0"/>
<path d="M73.1712 234.528C75.8864 245.26 77.882 252.498 84.6157 255.818C98.0287 262.415 103.934 254.959 104.314 243.557C104.654 233.363 100.242 217.447 89.4895 215.364C87.1102 214.9 84.6601 215.092 82.3688 215.921C80.0774 216.75 78.0199 218.19 76.389 220.105C74.7581 222.02 73.6074 224.348 73.0445 226.871C72.4817 229.394 72.5253 232.028 73.1712 234.528Z" fill="#7F3E3B"/>
<path d="M96.5767 244.241C97.1436 244.212 97.7069 244.129 98.2601 243.994C98.2979 243.985 98.3337 243.969 98.365 243.945C98.3963 243.92 98.4224 243.889 98.4417 243.854C98.461 243.818 98.4729 243.778 98.4767 243.737C98.4805 243.696 98.4761 243.654 98.4638 243.615C98.4388 243.531 98.3866 243.46 98.3168 243.415C98.247 243.37 98.1642 243.353 98.0837 243.367C96.8337 243.674 95.5354 243.675 94.2851 243.37C93.0348 243.065 91.8645 242.462 90.8612 241.605C90.8037 241.549 90.7287 241.518 90.6508 241.518C90.573 241.518 90.4979 241.549 90.4404 241.605C90.4112 241.634 90.3878 241.669 90.3719 241.708C90.3559 241.747 90.3477 241.789 90.3477 241.831C90.3477 241.873 90.3559 241.915 90.3719 241.954C90.3878 241.993 90.4112 242.028 90.4404 242.057C92.1598 243.581 94.3488 244.36 96.5767 244.241Z" fill="#263238"/>
<path d="M74.2475 242.144C78.171 239.363 80.7368 233.945 79.0806 232.387C80.5739 228.616 81.1984 223.126 78.2524 222.339C75.3065 221.553 69.6589 221.291 67.4596 226.359C60.0742 230.625 65.7354 241.183 74.2475 242.144Z" fill="#E0E0E0"/>
<path opacity="0.2" d="M86.8711 233.742C86.2642 233.583 85.6341 233.553 85.0168 233.656C84.3995 233.758 83.8071 233.99 83.2734 234.339C84.4976 234.396 85.7202 234.193 86.8711 233.742Z" fill="black"/>
<path opacity="0.2" d="M86.9512 234.674C86.3759 234.663 85.8054 234.788 85.28 235.04C84.7546 235.292 84.287 235.664 83.9102 236.13C85.0092 235.883 86.0461 235.387 86.9512 234.674Z" fill="black"/>
<path opacity="0.2" d="M100.867 230.873C100.867 230.873 101.6 229.708 102.225 230.218C101.867 230.614 101.381 230.849 100.867 230.873Z" fill="black"/>
<path opacity="0.2" d="M101.113 231.717C101.113 231.717 101.697 230.684 102.227 231.543C102.081 231.693 101.896 231.791 101.696 231.822C101.496 231.854 101.293 231.817 101.113 231.717Z" fill="black"/>
<path opacity="0.2" d="M95.805 221.451C92.7394 221.328 89.6748 221.721 86.7227 222.616C89.7679 222.409 92.8001 222.02 95.805 221.451Z" fill="black"/>
<path opacity="0.2" d="M97.1481 223.009C97.1481 223.009 90.17 223.49 86.8711 225.572C90.363 225.059 93.8032 224.201 97.1481 223.009Z" fill="black"/>
<path d="M71.3798 245.581C72.1394 246.697 73.0983 247.64 74.2007 248.355C75.3031 249.069 76.527 249.542 77.8012 249.745C81.2088 250.27 82.4985 246.833 81.2088 243.658C80.0277 240.746 76.8373 237.003 73.5791 237.965C72.8696 238.182 72.2219 238.586 71.6945 239.139C71.167 239.693 70.7765 240.378 70.5581 241.134C70.3398 241.89 70.3006 242.693 70.4441 243.469C70.5875 244.245 70.9091 244.971 71.3798 245.581Z" fill="#7F3E3B"/>
<path d="M89.6691 233.742C89.832 234.63 90.4158 235.198 90.9452 235.125C91.4747 235.052 91.787 234.179 91.624 233.305C91.4611 232.431 90.8909 231.849 90.3479 231.921C89.8049 231.994 89.4655 232.853 89.6691 233.742Z" fill="#263238"/>
<path d="M98.4506 231.965C98.6135 232.853 99.1837 233.421 99.7267 233.348C100.27 233.276 100.568 232.416 100.406 231.528C100.243 230.64 99.6589 230.072 99.1294 230.145C98.5999 230.218 98.2741 231.077 98.4506 231.965Z" fill="#263238"/>
<path d="M95.7383 233.29L97.0959 240.746C98.5739 240.812 100.023 240.294 101.169 239.29C99.897 236.801 98.0204 234.727 95.7383 233.29Z" fill="#630F0F"/>
<path d="M86.5153 231.645C86.4305 231.666 86.3422 231.666 86.2574 231.645C86.1958 231.625 86.1385 231.592 86.0888 231.548C86.0391 231.504 85.9979 231.45 85.9677 231.39C85.9374 231.329 85.9186 231.262 85.9124 231.193C85.9062 231.125 85.9127 231.055 85.9316 230.989C86.1426 230.172 86.5323 229.421 87.0683 228.798C87.6043 228.175 88.2711 227.698 89.0133 227.407C89.0757 227.387 89.1412 227.381 89.2059 227.388C89.2706 227.396 89.3333 227.417 89.3902 227.451C89.4471 227.485 89.4971 227.531 89.5373 227.586C89.5775 227.641 89.6071 227.704 89.6242 227.771C89.658 227.906 89.6415 228.05 89.5782 228.172C89.5149 228.295 89.4097 228.386 89.2848 228.426C88.6984 228.674 88.1749 229.067 87.7573 229.573C87.3396 230.079 87.0396 230.684 86.8819 231.339C86.8482 231.418 86.7974 231.487 86.7335 231.54C86.6697 231.593 86.5949 231.629 86.5153 231.645Z" fill="#E0E0E0"/>
<path d="M102.702 228.252C102.622 228.268 102.539 228.264 102.461 228.238C102.383 228.213 102.312 228.168 102.254 228.106C101.838 227.612 101.318 227.232 100.737 226.999C100.155 226.766 99.5304 226.686 98.9144 226.766C98.8501 226.781 98.7837 226.782 98.7192 226.769C98.6546 226.755 98.5933 226.728 98.5388 226.688C98.4843 226.649 98.4378 226.598 98.402 226.539C98.3662 226.48 98.342 226.414 98.3306 226.344C98.3101 226.206 98.3393 226.064 98.4124 225.948C98.4855 225.832 98.597 225.749 98.7243 225.718C99.5145 225.594 100.321 225.679 101.073 225.966C101.826 226.253 102.501 226.733 103.041 227.363C103.087 227.412 103.123 227.47 103.148 227.534C103.173 227.598 103.185 227.666 103.185 227.735C103.185 227.804 103.173 227.872 103.148 227.936C103.123 228 103.087 228.057 103.041 228.106C102.998 228.155 102.945 228.194 102.887 228.219C102.828 228.244 102.765 228.255 102.702 228.252Z" fill="#E0E0E0"/>
<path d="M105.904 282.656C94.2969 281.448 70.7697 264.861 79.8249 261.337C85.6354 268.196 96.116 269.987 100.637 269.987C102.32 268.269 103.922 263.405 99.8087 259.08C104.533 258.643 113.996 274.225 105.904 282.656Z" fill="#FFBCBC"/>
<path d="M410.848 415.434H502.934C504.374 415.434 505.755 414.821 506.774 413.728C507.792 412.636 508.364 411.154 508.364 409.61C508.364 408.065 507.792 406.583 506.774 405.491C505.755 404.398 504.374 403.785 502.934 403.785H410.848C409.408 403.785 408.027 404.398 407.008 405.491C405.99 406.583 405.418 408.065 405.418 409.61C405.418 411.154 405.99 412.636 407.008 413.728C408.027 414.821 409.408 415.434 410.848 415.434Z" fill="#FFBCBC"/>
<path d="M516.973 403.741H520.041L531.73 321.93H528.662L516.973 403.741Z" fill="#263238"/>
<path d="M470.203 403.741H473.271L484.96 321.93H481.906L470.203 403.741Z" fill="#263238"/>
<path d="M470.079 387.3H530.125C532.135 387.229 534.061 386.415 535.575 384.995C537.09 383.575 538.1 381.637 538.434 379.509L547.597 311.213C547.761 310.246 547.722 309.253 547.483 308.305C547.244 307.357 546.811 306.478 546.215 305.731C545.62 304.985 544.877 304.391 544.04 303.991C543.204 303.592 542.295 303.397 541.38 303.422H481.333C479.324 303.49 477.399 304.304 475.886 305.725C474.374 307.146 473.367 309.085 473.038 311.213L463.861 379.509C463.697 380.476 463.736 381.469 463.976 382.417C464.215 383.365 464.648 384.244 465.243 384.99C465.839 385.736 466.582 386.331 467.418 386.73C468.254 387.13 469.163 387.325 470.079 387.3Z" fill="#FFBCBC"/>
<path opacity="0.4" d="M547.601 311.213L538.437 379.509C538.195 381.163 537.528 382.712 536.509 383.98C534.31 386.761 530.4 385.247 530.862 381.854L540.664 308.868C541.112 305.475 545.429 303.961 546.881 306.742C547.574 308.107 547.827 309.678 547.601 311.213Z" fill="white"/>
<path d="M478.962 415.434H521.047C522.487 415.434 523.869 414.821 524.887 413.728C525.905 412.636 526.477 411.154 526.477 409.61C526.477 408.065 525.905 406.583 524.887 405.491C523.869 404.398 522.487 403.785 521.047 403.785H478.962C477.521 403.785 476.14 404.398 475.122 405.491C474.103 406.583 473.531 408.065 473.531 409.61C473.531 411.154 474.103 412.636 475.122 413.728C476.14 414.821 477.521 415.434 478.962 415.434Z" fill="#FFBCBC"/>
<path opacity="0.4" d="M478.962 415.434H521.047C522.487 415.434 523.869 414.821 524.887 413.728C525.905 412.636 526.477 411.154 526.477 409.61C526.477 408.065 525.905 406.583 524.887 405.491C523.869 404.398 522.487 403.785 521.047 403.785H478.962C477.521 403.785 476.14 404.398 475.122 405.491C474.103 406.583 473.531 408.065 473.531 409.61C473.531 411.154 474.103 412.636 475.122 413.728C476.14 414.821 477.521 415.434 478.962 415.434Z" fill="white"/>
<path d="M456.027 485.901H459.082L470.784 415.449H467.716L456.027 485.901Z" fill="#263238"/>
<path d="M402.91 485.901H405.965L417.654 415.449H414.599L402.91 485.901Z" fill="#263238"/>
<path d="M476.597 485.901H473.529L461.84 415.449H464.908L476.597 485.901Z" fill="#263238"/>
<path d="M529.722 485.901H526.654L514.965 415.449H518.033L529.722 485.901Z" fill="#263238"/>
<path d="M427.303 261.191C430.589 265.808 432.299 264.599 434.512 258.774C435.87 255.032 439.78 256.677 440.689 250.037C441.056 247.284 432.924 241.984 428.471 243.411C424.018 244.838 424.792 257.595 427.303 261.191Z" fill="#263238"/>
<path d="M434.091 291.204C432.707 290.775 431.257 290.642 429.825 290.815C428.393 290.987 427.007 291.461 425.745 292.209C424.484 292.957 423.373 293.965 422.476 295.174C421.578 296.384 420.912 297.771 420.515 299.257L420.298 300.043L419.728 302.184L419.063 304.543C418.587 306.116 418.112 307.689 417.569 309.218C416.584 312.165 415.409 315.036 414.053 317.809C412.954 320.068 411.585 322.163 409.98 324.042C409.52 324.581 409.011 325.069 408.46 325.498C407.645 324.93 406.817 324.333 405.989 323.663C403.765 321.867 401.626 319.952 399.581 317.926C397.422 315.858 395.318 313.644 393.2 311.373C391.082 309.101 388.965 306.713 386.942 304.529L386.697 304.266C385.803 303.311 384.631 302.713 383.376 302.572C382.121 302.431 380.858 302.754 379.798 303.49C378.739 304.225 377.945 305.327 377.551 306.613C377.156 307.899 377.183 309.291 377.629 310.557C378.832 313.897 380.233 317.151 381.824 320.299C383.406 323.456 385.146 326.518 387.037 329.474C389.004 332.555 391.183 335.475 393.553 338.211C396.148 341.26 399.09 343.946 402.31 346.206C403.616 347.087 405.124 347.566 406.668 347.589H407.482C410.55 347.606 413.593 346.988 416.442 345.769C419.051 344.646 421.482 343.099 423.651 341.182C427.282 337.929 430.371 334.039 432.788 329.677C434.941 325.872 436.759 321.86 438.218 317.693C438.938 315.669 439.576 313.659 440.16 311.606C440.445 310.572 440.73 309.538 440.974 308.489L441.327 306.902L441.694 305.111C442.308 302.191 441.865 299.129 440.453 296.547C439.041 293.965 436.767 292.055 434.091 291.204Z" fill="black"/>
<path d="M367.379 305.33L370.8 308.242C372.158 309.395 373.733 310.22 375.416 310.659L380.1 311.897C381.163 312.177 382.279 312.127 383.317 311.753C384.356 311.379 385.274 310.697 385.964 309.786C386.914 308.547 387.376 306.961 387.255 305.363C387.133 303.765 386.437 302.28 385.313 301.223C383.561 299.725 381.612 298.513 379.529 297.626L374.737 294.612C373.948 294.117 373.021 293.939 372.12 294.11C371.22 294.281 370.406 294.789 369.823 295.544L366.809 299.461C366.483 299.884 366.238 300.373 366.09 300.899C365.942 301.425 365.893 301.977 365.947 302.524C366 303.07 366.154 303.599 366.4 304.081C366.645 304.563 366.978 304.987 367.379 305.33Z" fill="#FFB573"/>
<path d="M460.716 283.428C449.489 284.404 436.864 285.933 427.347 290.709C425.046 291.921 423.164 293.886 421.973 296.321C420.782 298.755 420.344 301.533 420.722 304.252C422.147 315.64 423.26 324.464 425.853 333.842C431.46 354.23 417.871 363.156 430.51 378.912C436.049 385.655 470.002 392.018 494.045 383.529C497.168 369.593 495.702 341.444 491.819 310.397C490.847 302.482 487.078 295.269 481.289 290.25C475.501 285.23 468.136 282.788 460.716 283.428Z" fill="#263238"/>
<path d="M485.152 325.484C491.41 356.982 486.699 365.355 474.59 374.136C457.592 376.961 450.777 369.432 450.777 369.432L485.152 325.484Z" fill="black"/>
<path d="M446.091 330.129L460.821 330.231C461.169 330.231 461.505 330.088 461.758 329.83C462.01 329.573 462.161 329.221 462.178 328.847L462.572 322.076C462.593 321.898 462.579 321.717 462.531 321.544C462.483 321.372 462.402 321.212 462.294 321.076C462.185 320.939 462.051 320.827 461.901 320.749C461.75 320.67 461.586 320.626 461.418 320.62L446.688 320.518C446.34 320.517 446.004 320.661 445.752 320.918C445.499 321.176 445.348 321.528 445.331 321.901L444.937 328.673C444.914 328.851 444.926 329.033 444.974 329.206C445.021 329.38 445.101 329.54 445.21 329.678C445.319 329.815 445.454 329.926 445.606 330.004C445.757 330.082 445.923 330.124 446.091 330.129Z" fill="white"/>
<g opacity="0.2">
<path d="M438.123 308.475C438.024 308.474 437.927 308.442 437.845 308.383C437.763 308.323 437.699 308.239 437.661 308.14C437.621 308.009 437.63 307.866 437.686 307.741C437.741 307.616 437.84 307.519 437.96 307.47C446.309 304.296 458.175 296.097 461.894 290.913C461.929 290.848 461.976 290.792 462.032 290.748C462.088 290.704 462.152 290.674 462.22 290.659C462.288 290.644 462.359 290.644 462.426 290.661C462.494 290.677 462.558 290.709 462.614 290.754C462.669 290.799 462.715 290.856 462.748 290.921C462.782 290.987 462.801 291.059 462.807 291.133C462.812 291.207 462.802 291.282 462.778 291.352C462.754 291.422 462.717 291.486 462.668 291.539C458.405 297.466 446.065 305.49 438.231 308.446C438.197 308.462 438.16 308.472 438.123 308.475Z" fill="white"/>
<path d="M446.389 309.349H446.24C438.298 306.713 435.013 298.019 434.32 293.33C434.309 293.262 434.31 293.192 434.325 293.125C434.339 293.057 434.366 292.994 434.404 292.938C434.442 292.882 434.491 292.835 434.546 292.8C434.602 292.765 434.663 292.742 434.728 292.733C434.79 292.723 434.854 292.726 434.915 292.743C434.976 292.759 435.034 292.789 435.085 292.829C435.135 292.87 435.178 292.921 435.21 292.98C435.242 293.038 435.262 293.103 435.271 293.17C435.936 297.655 439.045 305.897 446.525 308.388C446.586 308.406 446.643 308.437 446.693 308.48C446.742 308.522 446.783 308.575 446.814 308.634C446.844 308.694 446.863 308.76 446.869 308.827C446.876 308.895 446.869 308.963 446.851 309.028C446.813 309.125 446.748 309.208 446.666 309.265C446.584 309.322 446.487 309.351 446.389 309.349Z" fill="white"/>
</g>
<path d="M453.708 266.885C453.491 272.885 454.971 282.015 459.247 285.481C459.719 285.858 460.097 286.352 460.35 286.921C460.603 287.49 460.723 288.117 460.699 288.747C460.675 289.377 460.508 289.991 460.212 290.536C459.917 291.081 459.502 291.54 459.003 291.874C455.894 294 447.436 298.616 443.214 298.616C438.992 298.616 436.548 293.607 437.023 291.146C437.302 289.971 437.919 288.921 438.788 288.146C441.639 285.365 439.549 282.496 438.381 280.414L453.708 266.885Z" fill="#FFB573"/>
<path opacity="0.2" d="M449.106 275.244C449.008 274.877 448.891 274.517 448.753 274.166L438.367 280.413C439.4 281.803 440.04 283.481 440.213 285.248C445.44 282.991 450.043 278.681 449.106 275.244Z" fill="black"/>
<path d="M385.598 454.767C387.308 452.845 398.427 449.19 398.427 449.19C401.334 458.141 403.733 467.274 405.609 476.538L391.245 478.081C391.245 478.081 388.883 462.47 385.598 454.767Z" fill="#FFB573"/>
<path d="M453.3 371.384C411.757 372.01 357.087 369.622 369.97 410.236C375.482 427.623 370.853 421.711 377.301 442.753C380.017 451.825 381.021 454.49 383.03 460.781C385.23 466.402 398.453 465.354 403.394 463.155C409.259 459.806 404.29 450.762 403.612 445.68C400.272 420.822 406.395 423.633 399.118 407.338C412.368 409.406 454.616 407.964 460.21 383.529C460.087 383.529 467.744 373.787 453.3 371.384Z" fill="#FFBCBC"/>
<path opacity="0.4" d="M453.3 371.384C411.757 372.01 357.087 369.622 369.97 410.236C375.482 427.623 370.853 421.711 377.301 442.753C380.017 451.825 381.021 454.49 383.03 460.781C385.23 466.402 398.453 465.354 403.394 463.155C409.259 459.806 404.29 450.762 403.612 445.68C400.272 420.822 406.395 423.633 399.118 407.338C412.368 409.406 454.616 407.964 460.21 383.529C460.087 383.529 467.744 373.787 453.3 371.384Z" fill="black"/>
<path d="M386.413 463.708L388.192 467.465C388.295 467.693 388.465 467.878 388.676 467.991C388.887 468.104 389.127 468.139 389.359 468.091C391.708 467.655 398.726 466.446 402.799 466.985C402.946 467.003 403.095 466.988 403.237 466.943C403.378 466.897 403.51 466.82 403.623 466.718C403.736 466.616 403.829 466.49 403.895 466.348C403.961 466.206 403.999 466.051 404.007 465.892C404.089 464.436 404.075 462.485 404.007 461.291C404 460.983 403.881 460.69 403.676 460.476C403.471 460.261 403.195 460.14 402.908 460.14C397.595 460.199 392.301 460.829 387.105 462.019C386.947 462.067 386.8 462.151 386.676 462.267C386.552 462.383 386.453 462.526 386.387 462.688C386.321 462.85 386.289 463.025 386.293 463.201C386.298 463.378 386.339 463.551 386.413 463.708Z" fill="#263238"/>
<path d="M408.731 486.294L407.142 475.46C407.088 475.208 406.951 474.986 406.757 474.834C406.562 474.682 406.323 474.609 406.083 474.63L391.353 474.703C390.168 474.621 388.99 474.959 388 475.664C384.688 478.576 379.542 481.489 372.076 482.945C369.713 483.44 370.718 488.464 376.257 488.435C385.421 488.435 385.041 488.085 392.847 488.056C399.526 488.056 401.196 488.377 406.504 488.435C406.785 488.47 407.07 488.441 407.339 488.349C407.608 488.257 407.857 488.105 408.067 487.903C408.278 487.7 408.446 487.452 408.56 487.175C408.674 486.898 408.733 486.597 408.731 486.294Z" fill="#263238"/>
<path d="M455.447 252.556C455.447 263.478 455.963 269.827 451.035 276.088C443.622 285.51 430.521 282.263 427.413 271.72C424.616 262.283 425.105 246.003 435.015 240.338C444.926 234.674 455.46 241.649 455.447 252.556Z" fill="#FFB573"/>
<path d="M436.671 257.376C436.603 258.366 437.038 259.196 437.635 259.24C438.232 259.284 438.789 258.527 438.857 257.536C438.925 256.546 438.49 255.701 437.893 255.658C437.296 255.614 436.739 256.386 436.671 257.376Z" fill="#263238"/>
<path d="M427.139 257.143C427.057 258.133 427.492 258.978 428.089 259.022C428.686 259.065 429.243 258.294 429.311 257.303C429.379 256.313 428.958 255.483 428.361 255.439C427.763 255.396 427.207 256.153 427.139 257.143Z" fill="#263238"/>
<path d="M453.383 261.803C448.373 264.016 447.464 262.051 448.306 255.818C448.835 251.828 444.735 251.158 447.084 244.911C448.061 242.348 457.578 242.144 460.66 245.755C463.741 249.367 457.293 260.085 453.383 261.803Z" fill="#263238"/>
<path d="M451.303 247.75C439.845 248.814 425.129 248.872 423.065 239.843C421.708 233.727 428.577 224.567 439.166 233.479C446.538 239.654 453.693 235.839 457.29 237.164C460.562 238.372 466.875 246.294 451.303 247.75Z" fill="#263238"/>
<path d="M458.732 246.178C458.208 246.173 457.686 246.119 457.171 246.018C457.088 246.001 457.009 245.968 456.938 245.919C456.867 245.87 456.806 245.806 456.758 245.732C456.71 245.657 456.677 245.574 456.659 245.485C456.641 245.397 456.64 245.306 456.655 245.217C456.67 245.128 456.701 245.043 456.747 244.967C456.793 244.891 456.852 244.826 456.921 244.774C456.991 244.723 457.069 244.687 457.151 244.668C457.234 244.648 457.319 244.647 457.402 244.663C458.092 244.872 458.817 244.91 459.523 244.774C460.228 244.638 460.896 244.331 461.474 243.877C461.777 243.608 462.018 243.269 462.18 242.886C462.342 242.502 462.421 242.084 462.411 241.664C462.408 241.573 462.421 241.483 462.451 241.398C462.48 241.314 462.526 241.236 462.584 241.171C462.643 241.106 462.713 241.054 462.79 241.018C462.868 240.983 462.951 240.964 463.036 240.965C463.119 240.963 463.202 240.978 463.279 241.011C463.356 241.044 463.427 241.093 463.486 241.155C463.545 241.218 463.593 241.292 463.625 241.375C463.657 241.457 463.674 241.545 463.674 241.634C463.699 242.258 463.59 242.88 463.355 243.451C463.119 244.022 462.764 244.526 462.316 244.925C461.306 245.802 460.03 246.247 458.732 246.178Z" fill="#263238"/>
<path d="M437.975 268.574C437.492 268.727 436.997 268.829 436.496 268.88C436.462 268.884 436.427 268.881 436.395 268.871C436.362 268.861 436.331 268.843 436.305 268.82C436.278 268.797 436.256 268.769 436.24 268.737C436.224 268.704 436.214 268.669 436.21 268.633C436.205 268.595 436.206 268.557 436.215 268.52C436.224 268.483 436.239 268.449 436.261 268.419C436.283 268.389 436.31 268.364 436.341 268.345C436.372 268.327 436.406 268.316 436.441 268.312C437.543 268.211 438.607 267.836 439.549 267.217C440.492 266.597 441.287 265.751 441.872 264.745C441.886 264.711 441.907 264.68 441.933 264.655C441.959 264.63 441.989 264.61 442.022 264.598C442.055 264.586 442.09 264.581 442.125 264.583C442.16 264.586 442.194 264.596 442.225 264.614C442.284 264.65 442.328 264.71 442.348 264.78C442.368 264.85 442.363 264.926 442.333 264.992C441.376 266.754 439.81 268.041 437.975 268.574Z" fill="#263238"/>
<path d="M439.601 251.42C439.694 251.407 439.788 251.425 439.871 251.472C439.954 251.519 440.021 251.592 440.063 251.682C440.335 252.26 440.73 252.762 441.215 253.146C441.701 253.531 442.264 253.787 442.859 253.896C442.929 253.891 442.999 253.903 443.065 253.93C443.13 253.957 443.189 253.999 443.238 254.053C443.287 254.107 443.325 254.171 443.349 254.242C443.372 254.313 443.382 254.388 443.376 254.463C443.37 254.538 443.349 254.611 443.314 254.676C443.28 254.742 443.233 254.799 443.176 254.843C443.119 254.887 443.055 254.918 442.986 254.933C442.917 254.948 442.846 254.947 442.778 254.93C442.024 254.805 441.309 254.491 440.691 254.013C440.072 253.534 439.569 252.905 439.221 252.177C439.19 252.118 439.17 252.053 439.163 251.986C439.156 251.918 439.161 251.85 439.179 251.785C439.197 251.72 439.226 251.659 439.266 251.607C439.306 251.554 439.355 251.51 439.411 251.478C439.468 251.439 439.534 251.419 439.601 251.42Z" fill="#263238"/>
<path d="M429.029 251.668C429.14 251.678 429.243 251.736 429.314 251.828C429.359 251.875 429.395 251.932 429.42 251.995C429.444 252.057 429.457 252.124 429.457 252.192C429.457 252.26 429.444 252.327 429.42 252.389C429.395 252.452 429.359 252.509 429.314 252.556C428.777 253.144 428.114 253.584 427.384 253.838C426.653 254.091 425.876 254.151 425.119 254.012C424.997 253.981 424.891 253.899 424.825 253.785C424.759 253.67 424.738 253.532 424.766 253.401C424.795 253.266 424.873 253.149 424.983 253.075C425.092 253.001 425.224 252.977 425.35 253.007C425.947 253.113 426.559 253.063 427.133 252.86C427.707 252.657 428.228 252.308 428.649 251.842C428.698 251.787 428.757 251.744 428.823 251.714C428.888 251.684 428.958 251.668 429.029 251.668Z" fill="#263238"/>
<path d="M459.598 263.216C458.46 265.57 456.513 267.357 454.167 268.196C451.018 269.244 449.348 266.245 450.095 263.012C450.801 260.099 453.299 256.036 456.502 256.401C457.198 256.495 457.861 256.774 458.432 257.212C459.002 257.65 459.461 258.234 459.768 258.91C460.076 259.586 460.221 260.334 460.191 261.086C460.161 261.838 459.957 262.57 459.598 263.216Z" fill="#FFB573"/>
<path d="M431.772 257.493C431.056 260.284 429.982 262.954 428.582 265.429C429.185 265.799 429.854 266.024 430.546 266.089C431.237 266.155 431.933 266.059 432.587 265.808L431.772 257.493Z" fill="#ED893E"/>
<path d="M427.086 453.937C428.606 451.84 439.304 446.991 439.304 446.991C443.035 455.584 446.281 464.41 449.025 473.421L434.879 476.508C434.879 476.508 431.077 461.247 427.086 453.937Z" fill="#FFB573"/>
<path d="M458.625 368.398C417.803 371.384 386.225 371.471 404.24 409.77C411.951 426.152 409.304 422.643 417.694 442.884C421.305 451.622 422.5 454.155 425.106 460.184C427.822 465.543 440.882 463.097 445.47 460.359C450.996 456.383 445.199 447.923 444.113 442.884C438.452 418.522 444.873 422.177 436.212 406.668C449.584 407.411 495.213 412.231 493.991 383.47C494.032 383.529 487.339 368.398 458.625 368.398Z" fill="#FFBCBC"/>
<path opacity="0.4" d="M458.625 368.398C417.803 371.384 386.225 371.471 404.24 409.77C411.951 426.152 409.304 422.643 417.694 442.884C421.305 451.622 422.5 454.155 425.106 460.184C427.822 465.543 440.882 463.097 445.47 460.359C450.996 456.383 445.199 447.923 444.113 442.884C438.452 418.522 444.873 422.177 436.212 406.668C449.584 407.411 495.213 412.231 493.991 383.47C494.032 383.529 487.339 368.398 458.625 368.398Z" fill="black"/>
<path d="M428.743 462.791L430.861 466.344C430.989 466.556 431.176 466.718 431.396 466.807C431.616 466.896 431.857 466.907 432.083 466.839C434.391 466.155 441.247 464.189 445.36 464.276C445.509 464.278 445.656 464.248 445.793 464.186C445.93 464.125 446.054 464.034 446.157 463.92C446.26 463.805 446.34 463.669 446.392 463.52C446.444 463.371 446.467 463.212 446.46 463.053C446.46 461.597 446.202 459.674 446.066 458.48C446.032 458.175 445.888 457.896 445.665 457.703C445.442 457.51 445.157 457.418 444.871 457.446C439.591 458.083 434.383 459.288 429.327 461.043C429.169 461.1 429.025 461.194 428.905 461.319C428.786 461.444 428.695 461.596 428.639 461.765C428.582 461.933 428.563 462.113 428.581 462.291C428.599 462.468 428.654 462.639 428.743 462.791Z" fill="#263238"/>
<path d="M453.07 482.086L450.124 471.12C450.041 470.878 449.877 470.677 449.664 470.556C449.451 470.435 449.204 470.402 448.97 470.465L434.403 472.824C433.22 472.923 432.099 473.434 431.212 474.28C427.522 478.902 422.441 481.993 416.849 483.018C414.487 483.513 415.491 488.537 421.03 488.508C430.181 488.508 429.787 487.226 437.512 486.003C443.363 485.085 445.834 485.056 451.088 484.547C451.375 484.546 451.659 484.478 451.92 484.35C452.181 484.221 452.413 484.034 452.601 483.8C452.789 483.567 452.928 483.293 453.009 482.998C453.09 482.702 453.11 482.391 453.07 482.086Z" fill="#263238"/>
<path d="M418.221 366.054L422.47 364.991C424.165 364.591 425.921 364.591 427.615 364.991L432.326 366.025C433.398 366.259 434.387 366.815 435.177 367.626C435.968 368.438 436.528 369.473 436.793 370.612C437.16 372.168 436.947 373.816 436.199 375.205C435.451 376.595 434.227 377.617 432.788 378.053C430.612 378.614 428.369 378.82 426.136 378.665L420.597 379.175C419.687 379.258 418.78 378.994 418.035 378.429C417.289 377.864 416.754 377.035 416.524 376.087L415.356 371.165C415.221 370.628 415.188 370.066 415.26 369.515C415.331 368.963 415.506 368.433 415.774 367.955C416.041 367.478 416.396 367.064 416.816 366.737C417.237 366.41 417.715 366.178 418.221 366.054Z" fill="#FFB573"/>
<path d="M485.611 313.295C485.326 309.218 484.987 305.315 484.403 301.106C483.983 298.074 482.478 295.337 480.208 293.476C477.937 291.615 475.08 290.776 472.242 291.138C469.404 291.5 466.81 293.034 465.01 295.415C463.209 297.795 462.345 300.835 462.6 303.888V304.063L463.496 315.13C463.808 318.858 464.066 322.6 464.297 326.284C464.406 328.134 464.501 329.969 464.568 331.789C464.636 333.609 464.718 335.43 464.731 337.206C464.731 339.405 464.731 341.575 464.731 343.672C463.197 344.837 461.568 346.016 459.912 347.167C456.817 349.293 453.599 351.448 450.314 353.516C447.028 355.584 443.702 357.695 440.363 359.778C437.023 361.86 433.575 363.972 430.343 366.112H430.248C429.337 366.77 428.669 367.748 428.359 368.878C428.05 370.008 428.117 371.219 428.551 372.301C429.488 375.403 431.335 377.631 434.294 376.932C438.299 375.985 442.114 374.835 445.969 373.597C449.825 372.359 453.613 370.976 457.4 369.461C461.188 367.947 464.976 366.345 468.736 364.423C472.73 362.502 476.576 360.242 480.235 357.666C482.105 356.297 483.416 354.213 483.901 351.841L484.077 350.967C484.919 346.646 485.477 342.267 485.747 337.861C486.059 333.638 486.113 329.532 486.1 325.425C486.086 321.319 485.883 317.329 485.611 313.295Z" fill="#263238"/>
<path d="M297.68 310.805C297.096 306.786 290.213 305.096 290.213 305.096L286.14 303.305C285.478 303.009 284.739 302.976 284.056 303.214C283.374 303.452 282.793 303.944 282.42 304.601L280.452 307.994C280.24 308.361 280.099 308.77 280.037 309.196C279.974 309.622 279.992 310.057 280.088 310.476C280.184 310.895 280.357 311.289 280.596 311.636C280.836 311.982 281.138 312.274 281.483 312.494L285.217 314.853C285.88 315.276 286.621 315.539 287.389 315.625L290.511 315.974C291.826 316.121 293.151 315.863 294.334 315.231C295.517 314.599 296.508 313.62 297.191 312.407L297.381 312.086C297.615 311.709 297.721 311.256 297.68 310.805Z" fill="#FF8B7B"/>
<path d="M344.368 279.059C342.875 286.049 341.219 298.864 345.658 303.699C337.132 305.614 329.241 309.949 322.81 316.251C318.479 306.931 325.308 303.014 325.308 303.014C332.666 301.398 332.652 295.573 331.539 290.083L344.368 279.059Z" fill="#FF8B7B"/>
<path d="M321.355 309.552C323.623 302.126 318.165 300.64 327.505 297.582C334.809 295.18 348.412 295.835 351.508 298.485C353.232 299.941 350.598 304.441 350.598 304.441L321.355 309.552Z" fill="#E0E0E0"/>
<path d="M355.731 316.382L355.269 316.994L354.876 317.518L354.088 318.479C353.572 319.105 353.029 319.688 352.5 320.285C351.427 321.435 350.328 322.542 349.187 323.62C346.923 325.764 344.503 327.711 341.951 329.445C340.689 330.333 339.358 331.105 338.055 331.906C336.752 332.707 335.34 333.362 333.982 334.017C331.201 335.327 328.328 336.398 325.389 337.221L325.008 337.323C324.467 337.49 323.9 337.545 323.339 337.483C321.291 337.269 319.291 336.693 317.42 335.779C315.928 335.073 314.477 334.27 313.075 333.376C310.486 331.717 307.989 329.898 305.595 327.93C303.26 325.989 300.997 323.993 298.807 321.945C296.648 319.848 294.558 317.766 292.508 315.465C291.933 314.834 291.593 313.999 291.551 313.118C291.509 312.237 291.768 311.37 292.279 310.679C292.79 309.988 293.518 309.521 294.328 309.364C295.137 309.208 295.972 309.373 296.675 309.829H296.743C299.119 311.285 301.522 312.902 303.925 314.358C306.328 315.814 308.731 317.271 311.12 318.727C313.51 320.183 315.913 321.421 318.248 322.528C319.344 323.059 320.468 323.521 321.614 323.911C322.349 324.186 323.118 324.343 323.895 324.377L321.845 324.639C324.094 323.725 326.284 322.655 328.402 321.435C330.527 320.229 332.577 318.876 334.539 317.387C336.515 315.904 338.41 314.3 340.214 312.582C341.123 311.737 341.992 310.863 342.834 309.96L344.056 308.606L344.626 307.951L345.087 307.412L345.454 306.975C346.661 305.683 348.276 304.926 349.98 304.854C351.683 304.781 353.35 305.399 354.648 306.585C355.946 307.77 356.781 309.436 356.987 311.251C357.192 313.066 356.754 314.898 355.758 316.382H355.731Z" fill="#FF8B7B"/>
<path d="M304.984 318.887C304.984 323.619 297.761 334.308 306.151 340.934C306.884 350.516 307.876 359.952 309.79 375.694L354.59 377.15C350.314 359.676 353.993 348.128 360.822 317.882C361.198 316.227 361.244 314.505 360.96 312.83C360.675 311.154 360.064 309.561 359.168 308.155C358.272 306.748 357.11 305.56 355.757 304.667C354.405 303.774 352.893 303.196 351.319 302.97C349.54 302.723 347.64 302.49 345.712 302.33C338.948 301.572 332.143 301.339 325.348 301.631C323.148 301.776 320.868 301.995 318.696 302.257C314.89 302.699 311.375 304.649 308.838 307.725C306.302 310.8 304.928 314.781 304.984 318.887Z" fill="#FFBCBC"/>
<path opacity="0.4" d="M304.984 318.887C304.984 323.619 297.761 334.308 306.151 340.934C306.884 350.516 307.876 359.952 309.79 375.694L354.59 377.15C350.314 359.676 353.993 348.128 360.822 317.882C361.198 316.227 361.244 314.505 360.96 312.83C360.675 311.154 360.064 309.561 359.168 308.155C358.272 306.748 357.11 305.56 355.757 304.667C354.405 303.774 352.893 303.196 351.319 302.97C349.54 302.723 347.64 302.49 345.712 302.33C338.948 301.572 332.143 301.339 325.348 301.631C323.148 301.776 320.868 301.995 318.696 302.257C314.89 302.699 311.375 304.649 308.838 307.725C306.302 310.8 304.928 314.781 304.984 318.887Z" fill="black"/>
<path d="M321.613 268.109C321.491 268.968 320.948 269.565 320.418 269.565C319.889 269.565 319.563 268.691 319.699 267.817C319.835 266.944 320.364 266.361 320.893 266.361C321.423 266.361 321.803 267.235 321.613 268.109Z" fill="#263238"/>
<path d="M321.18 266.448L319.32 265.516C319.32 265.516 320.067 267.322 321.18 266.448Z" fill="#263238"/>
<path d="M321.208 268.938C320.19 270.802 318.938 272.507 317.488 274.006C317.854 274.397 318.295 274.696 318.781 274.882C319.267 275.068 319.785 275.137 320.299 275.084L321.208 268.938Z" fill="#FF5652"/>
<path d="M320.513 263.026C320.453 263.006 320.398 262.972 320.351 262.927C320.304 262.882 320.267 262.826 320.242 262.764C320.212 262.704 320.194 262.638 320.189 262.571C320.184 262.503 320.192 262.435 320.212 262.371C320.232 262.307 320.265 262.248 320.307 262.198C320.35 262.148 320.402 262.107 320.459 262.08C321.14 261.698 321.897 261.499 322.665 261.499C323.433 261.499 324.19 261.698 324.871 262.08C324.978 262.154 325.053 262.27 325.084 262.402C325.114 262.534 325.096 262.674 325.034 262.793C324.969 262.909 324.864 262.992 324.742 263.025C324.62 263.058 324.491 263.037 324.383 262.968C323.836 262.687 323.235 262.549 322.628 262.564C322.022 262.579 321.428 262.747 320.894 263.055C320.832 263.08 320.766 263.09 320.701 263.085C320.635 263.08 320.571 263.06 320.513 263.026Z" fill="#263238"/>
<path d="M348.944 269.841C346.758 280.443 346.039 284.971 340.282 289.631C331.621 296.621 320.204 291.437 319.457 280.355C318.778 270.38 322.471 254.726 332.694 252.104C342.916 249.483 351.143 259.24 348.944 269.841Z" fill="#FF8B7B"/>
<path d="M325.467 272.244C327.327 282.132 336.328 290.272 343.116 289.966C349.904 289.66 359.909 275.856 359.624 265.516C359.339 255.177 352.592 246.047 341.582 246.585C330.572 247.124 316.494 247.794 325.467 272.244Z" fill="#263238"/>
<path d="M337.904 250.532C329.541 241.256 317.948 247.882 316.332 257.667C321.206 256.648 325.251 263.987 331.578 263.58C338.827 263.114 342.547 255.716 337.904 250.532Z" fill="#263238"/>
<path d="M347.573 252.468C348.713 243.644 357.076 245.333 360.483 249.92C363.891 254.507 365.425 268.56 357.062 265.516C348.7 262.473 347.003 256.925 347.573 252.468Z" fill="#FFBCBC"/>
<path d="M355.283 255.614C353.79 245.552 360.564 223.665 377.208 232.081C390.974 239.042 372.049 276.118 390.974 282.845C383.793 294.597 359.152 281.68 355.283 255.614Z" fill="#263238"/>
<path d="M392.845 287.505H392.723C382.636 283.209 382.351 266.245 382.12 252.556C381.957 243.688 381.835 236.028 379.133 234.179C378.599 233.878 378.001 233.729 377.397 233.747C376.793 233.765 376.204 233.948 375.685 234.28C375.647 234.3 375.606 234.31 375.563 234.312C375.521 234.313 375.479 234.306 375.44 234.29C375.401 234.273 375.365 234.248 375.335 234.217C375.304 234.185 375.28 234.147 375.264 234.106C375.231 234.02 375.23 233.925 375.26 233.838C375.29 233.752 375.35 233.681 375.427 233.64C376.05 233.269 376.751 233.074 377.464 233.074C378.176 233.074 378.877 233.269 379.5 233.64C382.487 235.693 382.622 243.527 382.772 252.571C383.003 266.012 383.288 282.729 392.967 286.85C393.007 286.866 393.044 286.891 393.076 286.922C393.107 286.954 393.132 286.991 393.15 287.033C393.167 287.075 393.177 287.121 393.178 287.167C393.18 287.213 393.173 287.258 393.157 287.301C393.129 287.364 393.084 287.416 393.029 287.452C392.974 287.489 392.91 287.507 392.845 287.505Z" fill="#263238"/>
<path d="M329.867 273.671C328.51 276.059 327.899 277.093 326.175 277.734C325.639 277.976 325.049 278.045 324.477 277.931C323.906 277.817 323.378 277.526 322.959 277.093C322.54 276.661 322.248 276.107 322.12 275.498C321.992 274.89 322.033 274.255 322.238 273.671C322.944 271.196 325.143 267.701 327.668 267.948C328.247 268.034 328.794 268.28 329.256 268.663C329.718 269.046 330.078 269.553 330.301 270.132C330.523 270.711 330.6 271.343 330.524 271.964C330.448 272.585 330.222 273.173 329.867 273.671Z" fill="#FF8B7B"/>
<path d="M323.797 278.797L322.44 281.899L321.082 278.797L322.44 275.71L323.797 278.797Z" fill="white"/>
<path d="M326.569 376.451C326.569 376.451 288.814 374.369 263.943 386.441C256.205 390.198 255.01 396.474 253.639 405.459C247.923 443.19 239.031 481.183 239.031 481.183L247.503 483.877C247.503 483.877 279.094 434.088 274.763 407.076C333.398 420.415 351.942 399.518 351.942 399.518L326.569 376.451Z" fill="#FF8B7B"/>
<path d="M239.439 479.508C238.964 479.348 238.57 479.654 238.149 479.901C235.081 481.678 235.095 481.78 226.84 482.683C224.125 482.988 223.772 485.697 230.479 487.954L246.906 493.488C248.521 494.027 251.467 489.905 249.227 483.076C249.147 482.842 249.006 482.638 248.82 482.489C248.635 482.339 248.413 482.249 248.182 482.231C245.134 481.922 242.167 480.998 239.439 479.508Z" fill="#263238"/>
<path d="M348.763 379.772C348.763 379.772 318.733 374.398 293.889 386.354C290.104 388.166 286.972 391.251 284.966 395.142C282.96 399.032 282.189 403.518 282.771 407.92C287.821 445.782 300.419 490.24 300.419 490.24L309.257 490.095C309.257 490.095 308.606 437.234 304.275 410.221C309.271 411.969 317.783 412.012 322.195 411.794C338.486 410.964 351.791 406.246 349.768 388.902L348.763 379.772Z" fill="#FF8B7B"/>
<path d="M299.974 488.464C299.485 488.464 299.2 488.872 298.861 489.25C296.444 491.944 296.471 492.017 288.842 495.556C286.289 496.735 286.765 499.4 293.797 499.4H311.011C312.695 499.4 314.365 494.507 310.319 488.726C310.178 488.528 309.986 488.378 309.766 488.295C309.547 488.212 309.309 488.2 309.083 488.26C306.085 488.934 302.996 489.003 299.974 488.464Z" fill="#263238"/>
<path d="M309.788 375.694C309.788 375.694 285.759 375.534 267.621 383.529C267.621 410.949 278.224 421.929 278.224 421.929C278.224 421.929 376.948 440.54 354.589 377.209C343.008 373.422 310.046 374.573 309.788 375.694Z" fill="#263238"/>
<path d="M284.551 380.165C283.193 383.965 276.134 384.038 276.134 384.038L271.83 384.868C271.123 385.003 270.394 384.865 269.773 384.478C269.152 384.092 268.678 383.482 268.436 382.757L267.201 378.985C267.068 378.578 267.013 378.147 267.037 377.716C267.061 377.286 267.164 376.865 267.341 376.477C267.518 376.09 267.764 375.744 268.066 375.46C268.369 375.175 268.72 374.958 269.101 374.82L273.174 373.364C273.91 373.114 274.687 373.03 275.455 373.117L278.577 373.495C279.888 373.655 281.13 374.209 282.16 375.092C283.191 375.976 283.968 377.154 284.401 378.49L284.51 378.854C284.665 379.273 284.68 379.736 284.551 380.165Z" fill="#FF8B7B"/>
<path d="M320.363 318.246C319.847 321.843 319.182 325.236 318.503 328.702C317.825 332.167 317.051 335.59 316.182 339.012C314.492 345.999 312.323 352.842 309.693 359.486L309.516 359.909C309.365 360.292 309.164 360.65 308.919 360.972C307.119 363.262 305.139 365.381 303 367.306C301.004 369.185 298.927 370.845 296.836 372.461C294.745 374.078 292.6 375.563 290.428 376.99C288.256 378.417 286.07 379.757 283.735 381.009C283.016 381.379 282.199 381.465 281.427 381.253C280.654 381.04 279.976 380.543 279.511 379.848C279.047 379.153 278.825 378.305 278.885 377.452C278.945 376.6 279.282 375.797 279.839 375.184L285.052 369.694C286.79 367.859 288.514 366.039 290.184 364.19C291.854 362.34 293.496 360.506 295.031 358.671C296.495 356.94 297.855 355.111 299.103 353.195L298.33 354.652C299.293 351.652 300.122 348.492 300.936 345.303C301.751 342.113 302.443 338.852 303.149 335.575C303.855 332.299 304.507 329.007 305.145 325.702C305.783 322.396 306.394 319.047 306.991 315.843V315.756C307.363 313.916 308.384 312.302 309.842 311.252C311.299 310.203 313.079 309.8 314.807 310.128C316.535 310.455 318.078 311.489 319.112 313.011C320.145 314.532 320.589 316.425 320.35 318.29L320.363 318.246Z" fill="#FF8B7B"/>
<path d="M360.987 314.533C358.027 322.469 350.126 328.294 338.953 330.274C334.052 328.964 327.332 311.344 327.332 311.344C327.332 311.344 359.548 292.733 360.987 314.533Z" fill="#FFBCBC"/>
<path opacity="0.4" d="M360.987 314.533C358.027 322.469 350.126 328.294 338.953 330.274C334.052 328.964 327.332 311.344 327.332 311.344C327.332 311.344 359.548 292.733 360.987 314.533Z" fill="black"/>
<path d="M311.485 304.572C306.258 308.024 300.529 315.538 299.715 328.731C301.738 333.697 322.061 337.862 322.061 337.862C322.061 337.862 329.623 295.223 311.485 304.572Z" fill="#FFBCBC"/>
<path opacity="0.4" d="M311.485 304.572C306.258 308.024 300.529 315.538 299.715 328.731C301.738 333.697 322.061 337.862 322.061 337.862C322.061 337.862 329.623 295.223 311.485 304.572Z" fill="black"/>
<path d="M258.312 430.229H350.398C353.412 430.229 355.855 427.609 355.855 424.375C355.855 421.142 353.412 418.522 350.398 418.522H258.312C255.298 418.522 252.855 421.142 252.855 424.375C252.855 427.609 255.298 430.229 258.312 430.229Z" fill="#FFBCBC"/>
<path d="M311.837 402.095H371.842C373.853 402.024 375.778 401.21 377.292 399.79C378.807 398.37 379.817 396.432 380.151 394.304L389.314 325.993C389.481 325.028 389.444 324.036 389.207 323.088C388.969 322.141 388.537 321.262 387.943 320.517C387.348 319.771 386.605 319.178 385.769 318.78C384.933 318.382 384.025 318.19 383.11 318.217H323.091C321.083 318.282 319.158 319.093 317.645 320.511C316.132 321.93 315.125 323.867 314.796 325.993L305.619 394.304C305.455 395.271 305.494 396.264 305.733 397.212C305.972 398.16 306.405 399.039 307.001 399.786C307.596 400.532 308.339 401.126 309.176 401.526C310.012 401.925 310.921 402.12 311.837 402.095Z" fill="#FFBCBC"/>
<path opacity="0.4" d="M314.828 325.993L305.651 394.304C305.427 395.874 305.699 397.479 306.424 398.862C306.776 399.481 307.297 399.968 307.917 400.257C308.536 400.547 309.224 400.624 309.885 400.479C310.547 400.334 311.151 399.974 311.616 399.448C312.08 398.921 312.381 398.254 312.479 397.537L322.268 324.624C322.367 323.853 322.225 323.069 321.865 322.394C321.505 321.718 320.946 321.19 320.276 320.89C319.607 320.591 318.864 320.538 318.163 320.739C317.462 320.94 316.843 321.385 316.403 322.003C315.574 323.17 315.032 324.542 314.828 325.993Z" fill="white"/>
<path d="M364.434 418.536H367.502L379.191 336.726H376.122L364.434 418.536Z" fill="#263238"/>
<path d="M317.676 418.536H320.73L332.419 336.726H329.365L317.676 418.536Z" fill="#263238"/>
<path d="M326.422 430.229H368.562C371.576 430.229 374.02 427.609 374.02 424.375C374.02 421.142 371.576 418.522 368.562 418.522H326.422C323.408 418.522 320.965 421.142 320.965 424.375C320.965 427.609 323.408 430.229 326.422 430.229Z" fill="#FFBCBC"/>
<path opacity="0.4" d="M315.505 418.536H258.309C255.295 418.536 252.852 421.157 252.852 424.39C252.852 427.623 255.295 430.244 258.309 430.244H315.505C318.519 430.244 320.962 427.623 320.962 424.39C320.962 421.157 318.519 418.536 315.505 418.536Z" fill="white"/>
<path d="M303.488 500.696H306.543L318.232 430.229H315.177L303.488 500.696Z" fill="#263238"/>
<path d="M250.367 500.696H253.422L265.111 430.229H262.056L250.367 500.696Z" fill="#263238"/>
<path d="M324.058 500.696H320.99L309.301 430.229H312.369L324.058 500.696Z" fill="#263238"/>
<path d="M377.183 500.696H374.115L362.426 430.229H365.494L377.183 500.696Z" fill="#263238"/>
<path d="M115.748 54.801C101.911 57.2289 89.363 64.9539 80.4289 76.5449C71.4949 88.1359 66.78 102.807 67.1578 117.841C67.5356 132.876 72.9804 147.253 82.4836 158.311C91.9868 169.369 104.904 176.358 118.843 177.983C118.25 182.599 117.315 187.157 116.047 191.613C116.047 191.613 124.98 186.138 129.948 178.114C131.469 177.983 133.003 177.793 134.537 177.517C142.079 176.23 149.31 173.356 155.813 169.063C162.317 164.769 167.966 159.139 172.435 152.496C176.904 145.853 180.105 138.329 181.855 130.355C183.605 122.381 183.868 114.115 182.631 106.031C181.393 97.948 178.679 90.2065 174.643 83.2517C170.608 76.297 165.331 70.2661 159.116 65.5056C152.901 60.745 145.87 57.3487 138.428 55.5117C130.985 53.6746 123.278 53.4331 115.748 54.801Z" fill="white"/>
<path opacity="0.5" d="M115.748 54.801C101.911 57.2289 89.363 64.9539 80.4289 76.5449C71.4949 88.1359 66.78 102.807 67.1578 117.841C67.5356 132.876 72.9804 147.253 82.4836 158.311C91.9868 169.369 104.904 176.358 118.843 177.983C118.25 182.599 117.315 187.157 116.047 191.613C116.047 191.613 124.98 186.138 129.948 178.114C131.469 177.983 133.003 177.793 134.537 177.517C142.079 176.23 149.31 173.356 155.813 169.063C162.317 164.769 167.966 159.139 172.435 152.496C176.904 145.853 180.105 138.329 181.855 130.355C183.605 122.381 183.868 114.115 182.631 106.031C181.393 97.948 178.679 90.2065 174.643 83.2517C170.608 76.297 165.331 70.2661 159.116 65.5056C152.901 60.745 145.87 57.3487 138.428 55.5117C130.985 53.6746 123.278 53.4331 115.748 54.801Z" fill="white"/>
<path d="M131.726 173.032C121.048 174.914 110.09 173.358 100.237 168.56C90.3834 163.763 82.0778 155.938 76.3702 146.077C70.6625 136.216 67.8093 124.761 68.1712 113.16C68.5332 101.559 72.0941 90.3344 78.4036 80.9046C84.7131 71.4748 93.4878 64.2637 103.618 60.1832C113.748 56.1027 124.779 55.3362 135.316 57.9805C145.852 60.6248 155.421 66.5611 162.812 75.0389C170.203 83.5166 175.085 94.1549 176.839 105.609C179.169 120.963 175.729 136.682 167.273 149.32C158.816 161.959 146.033 170.485 131.726 173.032ZM114.077 57.9901C103.535 59.8496 93.744 65.0206 85.9417 72.849C78.1393 80.6774 72.6763 90.8117 70.2435 101.97C67.8106 113.129 68.5171 124.811 72.2737 135.539C76.0303 146.267 82.6682 155.559 91.3481 162.241C100.028 168.922 110.36 172.693 121.038 173.076C131.715 173.459 142.259 170.437 151.336 164.392C160.412 158.348 167.614 149.552 172.03 139.117C176.447 128.682 177.879 117.077 176.147 105.769C173.816 90.6075 165.973 77.0575 154.339 68.0919C142.705 59.1263 128.23 55.4776 114.091 57.9464L114.077 57.9901Z" fill="#776565"/>
<path d="M118.491 143.121C112.277 144.215 105.901 143.309 100.168 140.516C94.435 137.724 89.6028 133.17 86.2824 127.432C82.962 121.693 81.3026 115.027 81.5141 108.277C81.7255 101.527 83.7982 94.9958 87.4702 89.5093C91.1422 84.0228 96.2484 79.8274 102.143 77.4538C108.038 75.0801 114.457 74.6348 120.588 76.1741C126.718 77.7135 132.286 81.1683 136.586 86.1017C140.886 91.0351 143.726 97.2256 144.747 103.89C146.107 112.826 144.107 121.976 139.184 129.331C134.261 136.687 126.819 141.646 118.491 143.121ZM108.282 76.455C102.204 77.5267 96.56 80.5069 92.0618 85.0191C87.5636 89.5313 84.4136 95.3727 83.01 101.805C81.6064 108.237 82.0123 114.971 84.1763 121.156C86.3403 127.341 90.1652 132.699 95.1676 136.552C100.17 140.406 106.125 142.581 112.28 142.805C118.435 143.028 124.514 141.289 129.748 137.807C134.982 134.326 139.136 129.257 141.685 123.244C144.233 117.23 145.063 110.541 144.068 104.021C142.713 95.2848 138.187 87.4798 131.48 82.3137C124.774 77.1476 116.432 75.0411 108.282 76.455Z" fill="#919191"/>
<path d="M371.205 40.5883C369.449 36.1333 367.241 31.8993 364.621 27.9628L365.816 27.0454C368.517 31.0732 370.794 35.4102 372.604 39.9767L371.205 40.5883Z" fill="#FFBCBC"/>
<path d="M356.475 17.9877C348.867 10.3473 339.576 4.90124 329.473 2.15861L329.839 0.702393C340.179 3.52107 349.686 9.09617 357.48 16.9101L356.475 17.9877Z" fill="#FFBCBC"/>
<path d="M372.388 66.2905C372.393 54.1794 369.101 42.3302 362.917 32.1973C356.732 22.0644 347.925 14.0888 337.574 9.24924C327.224 4.40971 315.782 2.91691 304.652 4.95406C293.522 6.9912 283.188 12.4697 274.92 20.717C266.652 28.9643 260.808 39.6217 258.106 51.381C255.405 63.1403 255.962 75.4899 259.711 86.9139C263.46 98.3379 270.237 108.339 279.21 115.691C288.183 123.042 298.962 127.423 310.223 128.296C314.798 136.408 323.148 142.232 323.148 142.232C322.088 137.575 321.393 132.831 321.071 128.049C335.197 126.298 348.231 119.039 357.693 107.652C367.155 96.2649 372.385 81.5443 372.388 66.2905Z" fill="white"/>
<path d="M321.802 61.5578C321.804 63.1287 321.372 64.6652 320.56 65.9725C319.748 67.2799 318.593 68.2994 317.241 68.9019C315.888 69.5044 314.399 69.6628 312.963 69.357C311.526 69.0512 310.207 68.2951 309.171 67.1843C308.135 66.0735 307.43 64.658 307.145 63.1171C306.86 61.5763 307.008 59.9793 307.57 58.5285C308.131 57.0778 309.082 55.8384 310.301 54.9675C311.52 54.0965 312.952 53.6331 314.416 53.636C316.375 53.636 318.254 54.4706 319.639 55.9563C321.024 57.4419 321.802 59.4568 321.802 61.5578Z" fill="#CECECE"/>
<path d="M347.407 71.0233C347.407 72.593 346.973 74.1274 346.16 75.4326C345.347 76.7377 344.192 77.7549 342.84 78.3556C341.488 78.9563 340 79.1135 338.565 78.8072C337.13 78.501 335.811 77.7451 334.776 76.6352C333.742 75.5253 333.037 74.1112 332.752 72.5716C332.466 71.0321 332.613 69.4364 333.173 67.9862C333.733 66.536 334.681 65.2965 335.898 64.4244C337.114 63.5524 338.545 63.0869 340.008 63.0869C341.971 63.0869 343.853 63.9231 345.24 65.4114C346.628 66.8998 347.407 68.9185 347.407 71.0233Z" fill="#CECECE"/>
<path d="M296.239 66.2907C296.237 67.8568 295.801 69.387 294.988 70.6878C294.175 71.9886 293.021 73.0017 291.671 73.5991C290.321 74.1964 288.837 74.3512 287.405 74.0439C285.973 73.7366 284.659 72.981 283.627 71.8725C282.596 70.7641 281.894 69.3525 281.61 67.8162C281.326 66.2799 281.473 64.6879 282.032 63.2412C282.592 61.7945 283.538 60.5581 284.752 59.6883C285.967 58.8185 287.394 58.3543 288.854 58.3542C289.825 58.3542 290.787 58.5596 291.683 58.9587C292.58 59.3577 293.395 59.9425 294.081 60.6796C294.767 61.4168 295.311 62.2918 295.681 63.2546C296.051 64.2174 296.241 65.2491 296.239 66.2907Z" fill="#CECECE"/>
<path d="M434.291 154.043C433.542 143.89 435.531 133.721 440.021 124.748C444.512 115.775 451.314 108.377 459.617 103.437C467.919 98.4966 477.371 96.2226 486.846 96.8863C496.32 97.5499 505.416 101.123 513.049 107.179C520.682 113.236 526.53 121.52 529.894 131.043C533.259 140.566 533.998 150.927 532.024 160.888C530.05 170.85 525.446 179.992 518.762 187.224C512.077 194.456 503.594 199.473 494.324 201.676C491.598 207.205 487.965 212.163 483.599 216.311C484.056 211.868 484.192 207.393 484.006 202.928C471.492 203.036 459.404 198.052 450.179 188.981C440.954 179.91 435.276 167.425 434.291 154.043Z" fill="white"/>
<path d="M467.285 154.465L500.342 151.669C501.125 151.587 501.847 151.181 502.355 150.536C502.862 149.891 503.114 149.059 503.057 148.218C502.981 147.375 502.601 146.598 501.996 146.053C501.392 145.509 500.613 145.24 499.826 145.305L466.877 148.057C466.091 148.135 465.364 148.543 464.856 149.192C464.347 149.841 464.098 150.678 464.162 151.523C464.225 152.352 464.586 153.123 465.168 153.672C465.751 154.221 466.51 154.505 467.285 154.465Z" fill="#CECECE"/>
<path d="M468.235 166.988L501.293 164.178C502.077 164.1 502.801 163.695 503.309 163.049C503.817 162.403 504.068 161.569 504.008 160.727C503.929 159.886 503.547 159.111 502.943 158.567C502.34 158.023 501.563 157.753 500.777 157.814L467.719 160.61C466.935 160.695 466.213 161.105 465.706 161.752C465.199 162.399 464.947 163.233 465.004 164.076C465.083 164.917 465.465 165.692 466.068 166.236C466.672 166.779 467.449 167.05 468.235 166.988Z" fill="#CECECE"/>
<path d="M466.361 141.956L499.46 139.16C500.244 139.075 500.966 138.665 501.473 138.018C501.98 137.371 502.232 136.537 502.175 135.694C502.106 134.851 501.729 134.072 501.126 133.527C500.523 132.981 499.743 132.713 498.957 132.782L465.9 135.578C465.115 135.656 464.391 136.061 463.883 136.707C463.375 137.352 463.124 138.187 463.185 139.029C463.254 139.865 463.625 140.639 464.218 141.185C464.812 141.732 465.581 142.009 466.361 141.956Z" fill="#CECECE"/>
</svg>
