<svg width="26" height="21" viewBox="0 0 26 21" fill="none" xmlns="http://www.w3.org/2000/svg">
<path d="M25.5671 2.97507C25.4895 2.87948 25.3918 2.80225 25.2808 2.74894C25.1699 2.69562 25.0485 2.66755 24.9254 2.66674H7.5754L8.11706 4.3334H23.8337L21.6087 14.3334H9.10873L5.3004 2.27507C5.2592 2.14712 5.18767 2.03103 5.0919 1.93671C4.99613 1.84239 4.87896 1.77264 4.7504 1.7334L1.33373 0.683404C1.22867 0.65112 1.11829 0.639846 1.00887 0.650224C0.899456 0.660602 0.793157 0.692429 0.696042 0.743888C0.49991 0.847814 0.353096 1.0254 0.287897 1.23757C0.222698 1.44974 0.244455 1.67913 0.348381 1.87526C0.452308 2.07139 0.629891 2.2182 0.842064 2.2834L3.83373 3.20007L7.65873 15.2834L6.29206 16.4001L6.18373 16.5084C5.84568 16.898 5.65406 17.3932 5.6419 17.9089C5.62973 18.4246 5.79776 18.9283 6.11706 19.3334C6.3442 19.6096 6.63282 19.8288 6.95985 19.9735C7.28687 20.1183 7.64323 20.1844 8.0004 20.1667H21.9087C22.1297 20.1667 22.3417 20.0789 22.498 19.9227C22.6543 19.7664 22.7421 19.5544 22.7421 19.3334C22.7421 19.1124 22.6543 18.9004 22.498 18.7441C22.3417 18.5879 22.1297 18.5001 21.9087 18.5001H7.86706C7.7711 18.4968 7.67761 18.4688 7.59561 18.4189C7.51362 18.3689 7.44589 18.2986 7.39898 18.2149C7.35206 18.1311 7.32755 18.0366 7.32779 17.9406C7.32804 17.8446 7.35305 17.7503 7.4004 17.6667L9.40873 16.0001H22.2754C22.468 16.0048 22.6563 15.9426 22.8083 15.8241C22.9602 15.7056 23.0664 15.5381 23.1087 15.3501L25.7504 3.6834C25.7757 3.55917 25.7724 3.43079 25.7406 3.30804C25.7089 3.18529 25.6495 3.07141 25.5671 2.97507Z" fill="black"/>
</svg>
