<svg width="30" height="31" viewBox="0 0 30 31" fill="none" xmlns="http://www.w3.org/2000/svg">
<path d="M15 27.8825C8.15436 27.8825 2.51678 22.3456 2.51678 15.3993C2.51678 8.55368 8.05369 2.91607 15 2.91607C21.8456 2.91607 27.4832 8.45301 27.4832 15.3993C27.4832 22.3456 21.8456 27.8825 15 27.8825ZM15 0.5C6.74496 0.5 0 7.24493 0 15.5C0 23.755 6.74496 30.5 15 30.5C23.255 30.5 30 23.755 30 15.5C30 7.14426 23.255 0.5 15 0.5Z" fill="#6184F4"/>
<path d="M13.3905 19.5271V11.4734L18.9275 15.5002L13.3905 19.5271ZM21.9476 14.9969L12.0818 7.84924C11.9812 7.74857 11.8805 7.74854 11.7798 7.74854C11.6791 7.74854 11.5785 7.74857 11.4778 7.84924C11.3771 7.84924 11.2765 7.94993 11.2765 8.0506C11.2765 8.15127 11.1758 8.25193 11.1758 8.3526V22.7486C11.1758 23.1513 11.6791 23.4533 11.9811 23.1513L21.8469 16.0036C21.9476 16.0036 21.9476 15.9029 22.0483 15.8022C22.0483 15.7016 22.1489 15.6009 22.1489 15.6009C22.1489 15.5003 22.1489 15.3996 22.0483 15.3996C22.0483 15.0976 22.0483 15.0975 21.9476 14.9969Z" fill="#6184F4"/>
</svg>
