<svg width="207" height="53" viewBox="0 0 207 53" fill="none" xmlns="http://www.w3.org/2000/svg">
<path d="M0 24.7421H25.61L30.0616 19.5474L35.3226 34.1421L47.0587 0.5L54.7478 47.5L62.8416 18.8053L66.4839 34.1421L70.9355 24.7421H111" stroke="#6184F4" stroke-width="5" stroke-linecap="round" stroke-linejoin="round"/>
<path d="M107 24.7421H141.61L146.062 19.5474L151.323 34.1421L163.059 0.5L170.748 47.5L178.842 18.8053L182.484 34.1421L186.935 24.7421H204.5" stroke="#6184F4" stroke-width="5" stroke-linecap="round" stroke-linejoin="round"/>
<path d="M94.575 4.5C86.5256 4.5 80 11.1 80 19.241C80 33.982 97.225 47.3829 106.5 50.5C115.775 47.3829 133 33.982 133 19.241C133 11.1 126.474 4.5 118.425 4.5C113.496 4.5 109.137 6.97515 106.5 10.7636C105.156 8.82744 103.371 7.24731 101.295 6.15701C99.219 5.06671 96.914 4.49833 94.575 4.5Z" fill="white" stroke="#6184F4" stroke-width="5" stroke-linecap="round" stroke-linejoin="round"/>
<path d="M105.65 35.8C104.433 35.8 103.225 35.6417 102.025 35.325C100.825 34.9917 99.8083 34.525 98.975 33.925L100.55 30.825C101.217 31.3083 101.992 31.6917 102.875 31.975C103.758 32.2583 104.65 32.4 105.55 32.4C106.567 32.4 107.367 32.2 107.95 31.8C108.533 31.4 108.825 30.85 108.825 30.15C108.825 29.4833 108.567 28.9583 108.05 28.575C107.533 28.1917 106.7 28 105.55 28H103.7V25.325L108.575 19.8L109.025 21.25H99.85V18H112.1V20.625L107.25 26.15L105.2 24.975H106.375C108.525 24.975 110.15 25.4583 111.25 26.425C112.35 27.3917 112.9 28.6333 112.9 30.15C112.9 31.1333 112.642 32.0583 112.125 32.925C111.608 33.775 110.817 34.4667 109.75 35C108.683 35.5333 107.317 35.8 105.65 35.8Z" fill="#6184F4"/>
</svg>
