<svg width="210" height="56" viewBox="0 0 210 56" fill="none" xmlns="http://www.w3.org/2000/svg">
<path d="M3 27.26H28.61L33.0616 22.0653L38.3226 36.66L50.0587 3.01794L57.7478 50.0179L65.8416 21.3232L69.4839 36.66L73.9355 27.26H114" stroke="#6184F4" stroke-width="5" stroke-linecap="round" stroke-linejoin="round"/>
<path d="M110 27.26H144.61L149.062 22.0653L154.323 36.66L166.059 3.01794L173.748 50.0179L181.842 21.3232L185.484 36.66L189.935 27.26H207.5" stroke="#6184F4" stroke-width="5" stroke-linecap="round" stroke-linejoin="round"/>
<path d="M97.575 7.01795C89.5256 7.01795 83 13.6179 83 21.759C83 36.5 100.225 49.9009 109.5 53.0179C118.775 49.9009 136 36.5 136 21.759C136 13.6179 129.474 7.01795 121.425 7.01795C116.496 7.01795 112.137 9.4931 109.5 13.2815C108.156 11.3454 106.371 9.76526 104.295 8.67495C102.219 7.58465 99.914 7.01628 97.575 7.01795Z" fill="white" stroke="#6184F4" stroke-width="5" stroke-linecap="round" stroke-linejoin="round"/>
<path d="M102.825 38.0179V35.3929L109.575 29.0179C110.108 28.5346 110.5 28.1013 110.75 27.7179C111 27.3346 111.167 26.9846 111.25 26.6679C111.35 26.3513 111.4 26.0596 111.4 25.7929C111.4 25.0929 111.158 24.5596 110.675 24.1929C110.208 23.8096 109.517 23.6179 108.6 23.6179C107.867 23.6179 107.183 23.7596 106.55 24.0429C105.933 24.3263 105.408 24.7679 104.975 25.3679L102.025 23.4679C102.692 22.4679 103.625 21.6763 104.825 21.0929C106.025 20.5096 107.408 20.2179 108.975 20.2179C110.275 20.2179 111.408 20.4346 112.375 20.8679C113.358 21.2846 114.117 21.8763 114.65 22.6429C115.2 23.4096 115.475 24.3263 115.475 25.3929C115.475 25.9596 115.4 26.5263 115.25 27.0929C115.117 27.6429 114.833 28.2263 114.4 28.8429C113.983 29.4596 113.367 30.1513 112.55 30.9179L106.95 36.1929L106.175 34.7179H116.05V38.0179H102.825Z" fill="#6184F4"/>
</svg>
