<svg width="207" height="53" viewBox="0 0 207 53" fill="none" xmlns="http://www.w3.org/2000/svg">
<path d="M0 24.2421H25.61L30.0616 19.0474L35.3226 33.6421L47.0587 0L54.7478 47L62.8416 18.3053L66.4839 33.6421L70.9355 24.2421H111" stroke="#6184F4" stroke-width="5" stroke-linecap="round" stroke-linejoin="round"/>
<path d="M107 24.2421H141.61L146.062 19.0474L151.323 33.6421L163.059 0L170.748 47L178.842 18.3053L182.484 33.6421L186.935 24.2421H204.5" stroke="#6184F4" stroke-width="5" stroke-linecap="round" stroke-linejoin="round"/>
<path d="M94.575 4C86.5256 4 80 10.6 80 18.741C80 33.482 97.225 46.8829 106.5 50C115.775 46.8829 133 33.482 133 18.741C133 10.6 126.474 4 118.425 4C113.496 4 109.137 6.47515 106.5 10.2636C105.156 8.32743 103.371 6.74731 101.295 5.65701C99.219 4.56671 96.914 3.99833 94.575 4Z" fill="white" stroke="#6184F4" stroke-width="5" stroke-linecap="round" stroke-linejoin="round"/>
<path d="M104.675 35V19L106.425 20.75H101.175V17.5H108.725V35H104.675Z" fill="#6184F4"/>
</svg>
