<svg width="589" height="569" viewBox="0 0 589 569" fill="none" xmlns="http://www.w3.org/2000/svg">
<g opacity="0.4">
<path d="M956.578 539.157C948.119 547.617 927.609 543.956 916.575 540.348C903.79 536.179 906.732 524.48 909.832 512.062C911.038 507.569 912.003 503.014 912.722 498.418C900.707 504.513 889.795 517.526 884.524 533.097C884.471 533.251 884.388 533.393 884.28 533.515C884.172 533.637 884.042 533.737 883.895 533.808C883.749 533.88 883.59 533.922 883.427 533.932C883.265 533.942 883.102 533.92 882.947 533.867C882.793 533.814 882.651 533.732 882.529 533.624C882.407 533.516 882.307 533.385 882.236 533.239C882.164 533.092 882.122 532.933 882.112 532.771C882.102 532.608 882.124 532.445 882.177 532.291C887.886 515.477 899.884 501.623 913.037 495.511C913.448 491.569 913.206 487.586 912.319 483.724L911.531 480.413C908.501 467.61 905.628 455.525 896.573 451.444C889.34 448.169 878.831 450.341 864.329 458.047C858.751 461.007 853.702 464.872 849.389 469.484C864.855 477.278 880.145 490.186 881.651 502.762C882.772 511.974 876.73 519.558 863.681 525.32C849.074 531.73 837.743 529.681 832.821 519.505C826.743 506.982 831.787 486.035 845.256 470.255C840.335 467.917 835.147 466.188 829.808 465.105C826.194 464.504 822.625 463.662 819.124 462.583C817.512 464.063 815.797 465.426 813.993 466.664C815.876 470.315 817.418 474.132 818.599 478.066C821.699 488.557 817.653 496.141 807.145 499.398C799.683 501.71 788.947 501.588 777.247 499.486C771.987 501.072 766.365 500.993 761.152 499.258C756.667 497.878 752.717 495.151 749.837 491.447C731.342 483.81 715.141 472.198 710.657 458.502C706.489 445.751 704.895 434.489 705.823 425.644C696.523 422.79 684.385 422.212 668.132 425.084C652.877 427.763 643.104 431.582 639.548 436.153C668.009 435.715 683.142 443.246 691.111 450.375C693.906 452.621 696.197 455.43 697.836 458.619C699.474 461.809 700.423 465.307 700.621 468.888C700.604 470.481 699.623 472.408 695.034 472.653C681.496 473.371 637.289 457.503 635.485 441.547C635.379 440.625 635.415 439.692 635.59 438.78C631.054 438.973 626.185 439.358 620.965 439.988C609.406 441.354 602.505 444.857 600.456 450.409C599.09 454.087 599.861 458.781 602.646 464.193C631.194 476.313 655.347 496.683 655.189 504.512C655.18 505.323 654.891 506.106 654.371 506.729C653.85 507.351 653.131 507.774 652.334 507.927C646.467 509.556 625.029 495.124 611.368 480.307C607.279 476.053 603.721 471.318 600.771 466.207C597.374 464.771 593.906 463.475 590.385 462.337C579.106 458.658 571.487 459.061 567.669 463.475C563.851 467.889 563.781 475.63 566.566 486.506C575.833 488.305 584.602 492.08 592.277 497.576C605.028 506.823 607.287 518.401 605.378 525.459C604.93 527.752 603.784 529.851 602.097 531.469C600.411 533.087 598.266 534.144 595.955 534.496C589.335 535.197 582.364 529.347 576.9 518.523C571.909 508.967 567.844 498.956 564.762 488.626C554.51 486.521 543.853 487.78 534.374 492.216C526.16 496.472 516.44 505.632 516.72 525.178C516.685 528.727 517.355 532.248 518.69 535.537C520.024 538.826 521.998 541.818 524.496 544.339C534.208 540.666 544.428 538.515 554.796 537.964C566.601 537.509 575.428 539.926 579.562 544.725C580.482 545.577 581.068 546.729 581.216 547.974C581.364 549.219 581.063 550.477 580.368 551.52C578.286 554.071 575.404 555.842 572.188 556.547C572.761 557.397 573.198 558.33 573.484 559.314C575.411 566.11 571.418 577.459 564.745 584.132C556.18 592.697 532.483 596.672 513.06 595.148C510.433 597.776 507.823 600.7 505.021 603.783C479.082 632.314 468.118 650.949 472.427 659.146C476.735 667.343 495.02 664.576 509.89 662.632L514.234 662.071C516.388 643.804 524.742 627.042 536.039 620.825C542.677 617.234 546.337 618.408 548.229 620.054C551.995 623.294 552.257 631.579 548.755 641.036C545.024 651.317 536.389 663.525 524.812 663.612C522.047 663.683 519.287 663.906 516.546 664.278C516.01 669.617 516.081 674.999 516.756 680.321C518.034 689.762 522.623 706.19 539.104 710.061C544.32 711.404 549.766 711.589 555.06 710.604C561.523 703.931 566.497 700.638 568.669 701.899C569.129 702.177 569.462 702.625 569.596 703.145C569.73 703.666 569.655 704.218 569.387 704.684C568.529 706.908 564.133 711.2 556.269 712.968C553.466 715.771 550.261 719.606 546.426 724.493C529.332 746.421 530.523 754.407 532.677 757.157C534.481 759.417 538.264 760.327 543.518 759.907C548.755 742.025 562.521 721.813 573.801 716.629C583.609 712.11 590.509 715.823 593.172 721.323C594.189 723.926 594.585 726.73 594.326 729.512C594.068 732.295 593.163 734.978 591.683 737.349C589.178 741.85 583.854 748.295 572.732 753.427C564.086 757.558 554.918 760.492 545.48 762.149C543.776 767.466 543.415 773.122 544.429 778.613C545.918 784.515 550.297 787.247 557.337 786.722C588.951 784.603 611.212 744.092 611.439 743.689C611.521 743.541 611.631 743.41 611.763 743.304C611.896 743.198 612.047 743.12 612.21 743.072C612.373 743.025 612.543 743.011 612.711 743.029C612.879 743.048 613.042 743.1 613.191 743.181C613.339 743.263 613.47 743.373 613.576 743.505C613.682 743.637 613.76 743.789 613.807 743.952C613.855 744.114 613.869 744.285 613.851 744.453C613.832 744.621 613.78 744.784 613.699 744.933C612.77 746.667 590.562 787.055 557.565 789.261C547.021 789.962 543.308 784.217 542.047 779.243C540.944 773.677 541.203 767.927 542.8 762.482C537.634 762.779 533.185 761.869 530.733 758.751C525.986 752.779 530.61 740.764 544.464 723.022C547.214 719.501 549.841 716.384 552.293 713.651C547.665 714.019 543.008 713.623 538.509 712.478C525.215 709.343 516.616 698.046 514.286 680.654C513.58 675.329 513.468 669.943 513.953 664.593L510.188 665.101C494.67 667.098 475.176 669.777 470.272 660.214C465.368 650.651 476.157 631.806 503.199 602.067L509.942 594.798C500.677 593.765 492.69 591.383 488.259 587.582C484.494 584.342 481.394 578.58 488.014 569.612C495.913 558.876 508.471 550.697 521.834 545.32C516.772 539.782 514.01 532.523 514.11 525.02C513.865 504.248 524.286 494.388 533.113 489.834C542.721 485.301 553.509 483.898 563.956 485.823C561.574 476.015 561.329 466.943 565.848 461.688C570.366 456.434 578.826 455.716 591.209 459.797C593.871 460.638 596.568 461.654 599.213 462.687C597.178 458.567 596.784 453.828 598.109 449.429C600.509 442.931 608.092 438.885 620.65 437.396C626.342 436.713 631.614 436.31 636.518 436.135C639.811 430.25 650.372 425.784 667.799 422.614C684.21 419.724 696.628 420.303 706.208 423.192C706.734 417.561 709.428 412.355 713.722 408.673C723.092 401.58 738.96 405.398 760.888 420.075C764 422.138 766.999 424.366 769.873 426.748C779.559 429.428 792.485 438.185 802.906 450.288C803.782 451.164 804.517 452.179 805.27 453.143C801.61 447.275 801.452 439.096 802.17 427.414C802.555 421.074 805.69 416.467 810.805 414.751C814.042 413.874 817.465 413.955 820.658 414.984C823.85 416.013 826.676 417.946 828.792 420.548C834.852 427.659 835.045 438.01 829.265 449.045C827.098 453.258 824.338 457.139 821.068 460.569C824.058 461.43 827.093 462.125 830.158 462.653C835.955 463.822 841.58 465.717 846.902 468.293C851.521 463.232 856.956 458.981 862.98 455.718C878.13 447.574 889.462 445.489 897.396 449.08C907.555 453.669 910.69 466.927 913.738 479.748L914.526 483.023C915.376 486.742 915.66 490.569 915.366 494.372C918.422 493.166 921.638 492.416 924.912 492.148C937.084 491.22 947.576 498.033 954.546 511.274C960.974 523.587 961.868 532.607 957.034 538.281L956.578 539.157ZM915.384 497.192C914.694 502.425 913.647 507.603 912.249 512.692C908.746 526.704 907.24 534.691 917.328 537.983C931.322 542.555 949.205 544.079 955.387 536.81C959.433 532.029 958.487 523.867 952.585 512.535C946.069 499.995 936.647 493.83 925.385 494.688C921.938 494.98 918.561 495.826 915.384 497.192ZM847.655 471.498C834.66 486.526 829.405 506.877 835.098 518.489C839.424 527.404 849.197 529.086 862.736 523.113C874.663 517.842 880.215 511.099 879.252 503.094C877.921 491.43 862.823 478.924 847.725 471.428L847.655 471.498ZM546.128 759.679C554.953 758.073 563.516 755.262 571.577 751.325C582.12 746.456 587.094 740.466 589.406 736.298C590.718 734.258 591.536 731.941 591.794 729.53C592.053 727.118 591.745 724.68 590.895 722.409C588.373 716.979 582.067 715.613 574.799 718.958C564.483 723.67 551.487 742.725 546.198 759.609L546.128 759.679ZM781.276 497.734C789.626 499.268 798.204 499.042 806.462 497.069C815.727 494.179 819.002 488.032 816.234 478.819C815.127 475.114 813.679 471.52 811.908 468.083C806.702 471.262 800.811 473.154 794.727 473.6C794.572 478.108 793.512 482.54 791.609 486.63C789.444 491.343 785.821 495.236 781.276 497.734ZM818.476 459.728L818.651 459.553C822.054 456.132 824.913 452.21 827.128 447.924C832.365 437.888 832.26 428.535 826.9 422.23C825.104 420.006 822.705 418.347 819.99 417.452C817.275 416.558 814.359 416.465 811.593 417.186C807.442 418.569 804.955 422.282 804.587 427.694C803.571 446.26 804.5 454.824 818.546 459.798L818.476 459.728ZM812.749 464.51C814.018 463.636 815.234 462.689 816.392 461.672C812.876 460.466 809.683 458.471 807.057 455.84C809.186 458.601 811.134 461.497 812.889 464.51L812.749 464.51ZM776.739 497.016C779.499 496.057 782.031 494.538 784.177 492.555C786.323 490.572 788.036 488.168 789.21 485.492C790.953 481.754 791.93 477.704 792.082 473.582C791.206 473.582 790.296 473.547 789.402 473.459C774.48 472.233 762.272 461.462 756.79 444.63C753.112 433.421 756.055 428.972 759.155 427.239C760.909 426.292 762.891 425.849 764.882 425.96C763.165 424.664 761.361 423.385 759.452 422.107C738.803 408.288 723.477 404.312 715.176 410.617C711.307 414.006 708.908 418.767 708.485 423.893C729.327 431.389 735.755 450.393 741.238 466.699C744.268 475.648 747.017 483.863 751.589 489.59C759.77 492.932 768.266 495.443 776.95 497.086L776.739 497.016ZM794.569 471.025C800.25 470.574 805.743 468.779 810.595 465.788C807.842 460.867 804.59 456.243 800.892 451.987C793.712 443.38 784.826 436.355 774.795 431.355C788.754 444.718 794.516 458.922 794.779 471.095L794.569 471.025ZM560.087 709.01C561.521 708.403 562.884 707.639 564.15 706.733C565.116 706.054 565.958 705.212 566.637 704.246C564.266 705.489 562.117 707.116 560.279 709.063L560.087 709.01ZM755.424 493.601C757.32 495.061 759.461 496.17 761.747 496.876C764.632 497.8 767.652 498.226 770.679 498.137C765.58 496.921 760.552 495.424 755.617 493.653L755.424 493.601ZM759.295 430.181C756.44 433.036 757.543 438.938 759.032 443.93C764.286 460.008 775.373 469.904 789.595 470.99C790.418 471.042 791.259 471.077 792.1 471.077C791.837 458.274 784.953 442.914 768.612 429.13C765.921 428.188 762.976 428.275 760.346 429.375C760.036 429.638 759.759 429.938 759.522 430.269L759.295 430.181ZM708.1 426.415C707.643 437.048 709.267 447.668 712.882 457.678C716.892 469.991 730.834 480.535 747.245 487.874C743.689 481.426 740.852 474.607 738.785 467.539C733.531 451.391 727.576 433.666 708.328 426.503L708.1 426.415ZM516.861 661.791C519.499 661.445 522.153 661.234 524.812 661.16C534.48 661.09 542.66 650.599 546.478 640.231C549.49 631.999 549.578 624.485 546.635 621.963C544.271 619.914 540.207 621.385 537.23 623.067C527.002 628.636 519.085 644.609 516.861 661.791ZM638.147 438.64C637.882 439.464 637.798 440.337 637.902 441.197C639.443 454.578 680.97 470.849 694.859 470.131C695.823 470.079 698.082 469.851 698.099 468.818C698.117 466.173 697.241 459.167 689.447 452.214C683.054 446.451 668.377 437.939 638.147 438.64ZM604.642 467.696C607.141 471.549 609.978 475.171 613.119 478.52C627.376 493.968 647.518 506.578 651.599 505.44C652.527 505.177 652.615 504.739 652.65 504.389C652.79 498.434 631.509 479.711 604.642 467.696ZM515.267 592.836C533.587 593.852 555.27 590.104 562.993 582.381C569.001 576.373 572.784 565.9 571.085 559.997C570.829 558.946 570.276 557.992 569.491 557.247C565.284 558.142 560.988 558.548 556.688 558.456C548.614 562.256 535.723 571.644 515.302 592.871L515.267 592.836ZM567.284 488.976C570.3 498.727 574.199 508.183 578.931 517.227C583.975 527.14 590.035 532.5 595.675 532.009C597.479 531.684 599.14 530.815 600.436 529.519C601.732 528.223 602.601 526.562 602.926 524.758C604.642 518.453 602.471 508.049 590.753 499.52C583.733 494.453 575.744 490.887 567.284 489.046L567.284 488.976ZM569.999 554.533C573.167 554.036 576.081 552.502 578.283 550.172C578.739 549.436 579.177 548.263 577.635 546.476C573.992 542.238 565.655 540.066 554.761 540.486C545.07 540.999 535.508 542.947 526.388 546.266C530.749 549.744 535.782 552.284 541.17 553.727C546.003 555.084 550.987 555.831 556.005 555.951C561.399 553.429 565.148 553.044 567.757 553.692C568.557 553.865 569.325 554.16 570.034 554.568L569.999 554.533ZM519.225 585.235C533.482 570.978 544.025 562.677 551.767 558.228C547.929 557.885 544.13 557.193 540.417 556.161C534.246 554.513 528.527 551.489 523.691 547.316C510.345 552.501 497.769 560.557 489.941 571.188C485.474 577.231 485.422 582.047 489.818 585.813C494.214 589.579 502.446 591.786 511.991 592.644C514.584 590.017 516.965 587.565 519.26 585.27L519.225 585.235Z" fill="#263238"/>
<path d="M632.613 754.706L632.385 754.933C630.914 755.774 607.024 769.155 581.296 771.8C585.131 779.558 587.601 787.808 586.41 795.094C585.927 798.078 584.754 800.908 582.984 803.359C581.215 805.809 578.897 807.813 576.217 809.21C567.95 813.974 553.676 807.687 538.193 792.379C517.315 771.852 493.636 732.829 506.001 709.956C511.286 700.827 518.871 693.243 527.999 687.958C520.848 679.669 516.063 669.608 514.145 658.831C512.663 652.009 512.813 644.934 514.581 638.181C516.349 631.427 519.686 625.187 524.32 619.966C503.075 618.723 479.834 614.011 473.528 606.9C465.296 597.372 457.415 575.654 463.755 563.254C466.032 558.841 471.129 553.779 482.671 554.847C491.956 555.982 501.175 557.601 510.291 559.699C509.1 553.526 509.454 547.154 511.324 541.151C516.789 521.15 522.866 511.289 530.975 509.135C533.222 508.679 535.536 508.674 537.785 509.119C540.034 509.564 542.172 510.45 544.076 511.727C533.322 490.464 533.83 471.356 541.431 461.828C545.442 456.732 555.197 449.603 575.216 459.254C584.694 463.875 593.92 468.997 602.854 474.597C602.594 469.995 602.936 465.379 603.87 460.865C607.793 440.829 621.63 418.761 628.39 418.34C629.208 418.305 630.012 418.563 630.657 419.067C631.302 419.571 631.747 420.288 631.911 421.09C633.96 427.378 631.42 437.554 628.951 447.379C626.481 457.205 624.012 466.961 626.919 470.113C627.48 470.625 628.159 470.991 628.896 471.177C629.632 471.364 630.403 471.365 631.14 471.182C637.831 470.376 646.693 458.887 656.081 446.697C669.882 428.797 687.046 406.518 706.697 405.223C714.421 404.715 719.01 405.836 721.129 408.726C724.089 412.771 721.655 419.269 718.502 427.431C715.017 436.381 710.656 447.608 713.353 458.011C713.756 459.64 714.509 461.619 715.805 461.899C719.763 462.705 728.24 451.496 736.437 440.672C750.133 422.597 765.633 402.123 777.561 409.672C789.909 417.466 780.819 438.185 772.026 458.257C765.126 474.02 757.998 490.326 762.832 497.612C767.315 504.372 797.896 492.638 824.885 482.287C859.371 469.064 880.686 461.515 885.976 467.925C888.165 470.57 887.219 475.054 883.121 481.639C864.03 512.359 847.532 525.67 839.633 532.133C837.768 533.383 836.113 534.92 834.729 536.687C834.799 536.832 834.84 536.989 834.848 537.149C834.857 537.31 834.834 537.471 834.78 537.622C834.727 537.774 834.643 537.913 834.535 538.032C834.427 538.151 834.296 538.248 834.151 538.316C833.848 538.452 833.505 538.465 833.193 538.35C832.882 538.235 832.628 538.003 832.487 537.703C831.436 535.566 833.52 533.867 838.074 530.189C845.833 523.936 862.174 510.713 881.054 480.378C885.31 473.53 885.065 470.693 884.154 469.467C879.6 463.967 851.069 474.913 825.779 484.651C795.233 496.386 766.352 507.437 760.782 499.03C755.213 490.623 762.289 474.44 769.785 457.311C778.156 438.22 786.808 418.464 776.265 411.808C766.229 405.486 750.834 425.855 738.434 442.213C727.505 456.645 720.534 465.437 715.332 464.369C713.248 463.966 711.812 462.075 710.954 458.659C708.151 447.45 712.705 435.89 716.19 426.59C718.975 419.427 721.374 413.244 719.168 410.232C717.696 408.2 713.58 407.307 706.872 407.745C688.36 408.988 671.563 430.758 658.077 448.273C647.937 461.426 639.179 472.775 631.455 473.704C630.321 473.947 629.143 473.9 628.031 473.566C626.92 473.232 625.911 472.623 625.098 471.795C621.385 467.591 623.784 457.976 626.569 446.854C629.021 437.396 631.403 427.518 629.616 421.878C629.266 420.792 628.828 420.81 628.583 420.845C623.942 421.108 610.42 440.479 606.357 461.356C605.279 466.235 604.989 471.255 605.499 476.226C620.964 486.156 632.822 495.877 631.245 499.17C630.545 500.641 628.706 501.709 616.13 495.684C612.622 494.033 609.593 491.515 607.328 488.368C605.063 485.22 603.638 481.548 603.187 477.697C593.8 471.665 584.062 466.197 574.025 461.321C560.382 454.683 549.453 455.383 543.27 463.212C535.686 472.827 536.422 493.109 548.472 514.582C551.032 516.552 553.454 518.693 555.723 520.992C567.178 532.447 581.067 550.084 580.139 553.184C580.052 553.426 579.913 553.646 579.731 553.828C579.55 554.009 579.33 554.149 579.088 554.235C578.124 554.428 576.163 554.813 557.265 531.746C553.254 526.88 549.662 521.683 546.528 516.211C540.731 511.955 535.809 510.431 531.571 511.552C524.39 513.443 518.873 522.779 513.654 541.799C511.74 547.805 511.516 554.222 513.006 560.347C540.906 566.495 575.287 576.286 574.989 581.733C574.867 583.922 571.784 584.728 564.008 584.587C538.349 584.184 522.148 578.983 514.442 568.719C512.978 566.766 511.826 564.597 511.027 562.291C501.612 560.078 492.073 558.434 482.46 557.369C474.299 556.634 468.747 559.033 465.979 564.463C460.637 574.919 466.768 595.376 475.385 605.394C481.2 612.12 505.527 616.481 526.772 617.549C530.162 614.279 534.053 611.571 538.297 609.528C548.017 604.957 557.458 605.324 561.854 610.491C562.247 610.852 562.556 611.294 562.76 611.788C562.963 612.281 563.056 612.813 563.031 613.346C563.005 613.879 562.864 614.4 562.615 614.873C562.366 615.345 562.017 615.756 561.591 616.078C557.423 619.651 543.359 620.93 527.578 620.247C522.708 625.209 519.151 631.306 517.227 637.987C515.304 644.668 515.075 651.724 516.562 658.516C518.475 669.021 523.237 678.8 530.328 686.784C545.04 678.552 561.574 675.995 570.454 680.006C575.953 682.423 577.95 687.292 575.883 693.317C573.204 701.146 566.478 705.209 557.353 704.561C548.228 703.913 538.052 698.711 529.803 690.077C520.928 695.186 513.562 702.552 508.453 711.427C497.699 731.043 516.089 767.193 540.119 790.803C554.586 805.024 568.002 811.33 575.183 807.231C577.536 806.002 579.568 804.238 581.116 802.082C582.664 799.925 583.686 797.436 584.098 794.814C585.254 787.808 582.679 779.734 578.844 772.045C567.036 773.326 555.119 770.948 544.708 765.231C530.889 757.017 529.488 750.011 529.891 746.526C530.291 744.36 531.32 742.36 532.849 740.774C534.378 739.189 536.34 738.089 538.49 737.611C542.809 736.394 547.384 736.428 551.685 737.708C555.985 738.989 559.833 741.463 562.783 744.845C569.457 752.304 575.285 760.481 580.157 769.225C606.166 766.791 630.932 752.919 631.299 752.727C631.438 752.64 631.593 752.583 631.755 752.559C631.917 752.535 632.082 752.545 632.239 752.588C632.397 752.631 632.544 752.705 632.672 752.808C632.8 752.91 632.905 753.037 632.981 753.182C633.105 753.439 633.136 753.732 633.069 754.009C633.002 754.287 632.841 754.533 632.613 754.706ZM534.182 742.725C533.071 743.807 532.361 745.233 532.168 746.771C531.835 749.626 533.166 755.546 545.794 763.06C555.411 768.323 566.392 770.563 577.302 769.488C572.601 761.28 567.041 753.594 560.716 746.561C558.09 743.516 554.652 741.281 550.803 740.118C546.954 738.955 542.853 738.912 538.981 739.993C537.186 740.508 535.54 741.444 534.182 742.725ZM532.045 688.501C539.821 696.452 549.191 701.234 557.441 701.847C565.69 702.46 571.154 699.062 573.466 692.301C575.13 687.415 573.747 683.964 569.368 682.038C561.171 678.535 545.846 680.969 532.045 688.501ZM530.275 617.549C544.392 618.005 556.547 616.919 559.962 614.029C560.488 613.504 560.908 613.083 559.91 611.91C556.319 607.654 548.052 607.549 539.365 611.647C536.06 613.222 532.98 615.231 530.205 617.619L530.275 617.549ZM513.864 562.817C514.524 564.333 515.359 565.767 516.351 567.09C523.444 576.566 539.488 581.575 563.99 581.978C566.714 582.266 569.468 582.095 572.135 581.47C569.245 577.914 540.206 568.912 513.794 562.887L513.864 562.817ZM606.007 479.431C606.67 482.436 608.016 485.247 609.942 487.647C611.868 490.046 614.321 491.97 617.111 493.267C624.73 496.928 627.637 497.593 628.583 497.734C627.252 495.176 618.688 487.908 605.937 479.501L606.007 479.431ZM552.728 521.465C554.655 524.303 556.774 527.192 559.121 530.03C564.422 536.732 570.057 543.162 576.005 549.296C569.569 539.697 562.181 530.772 553.954 522.656C553.499 522.341 553.079 521.921 552.658 521.535L552.728 521.465Z" fill="#263238"/>
<path d="M593.311 807.775C591.271 810.006 588.731 811.722 585.9 812.781C583.068 813.841 580.026 814.214 577.022 813.87C562.328 812.206 547.073 794.113 537.912 775.916C532.55 780.97 528.069 786.883 524.654 793.412C518.962 804.289 515.897 813.449 515.582 820.665C515.547 820.979 515.395 821.268 515.154 821.473C514.914 821.678 514.605 821.783 514.289 821.767C513.974 821.752 513.676 821.616 513.458 821.388C513.239 821.161 513.115 820.858 513.112 820.542C513.462 812.871 516.51 803.623 522.447 792.256C526.13 785.327 530.969 779.078 536.756 773.779C533.706 767.582 531.447 761.027 530.031 754.268C529.387 750.602 528.533 746.976 527.474 743.409C523.483 747.216 518.957 750.42 514.04 752.919C501.43 759.399 489.485 759.084 481.323 752.008C475.053 746.613 472.321 738.066 474.632 731.306C476.577 725.614 481.796 722.111 488.942 721.725C510.712 720.587 521.921 721.918 528.454 738.82C529.772 737.352 530.995 735.802 532.115 734.179C526.188 730.85 520.613 726.93 515.476 722.479C501.692 710.586 491.376 695.611 488.188 684.332C485.342 680.925 482.676 677.37 480.202 673.683C458.939 641.912 461.093 626.552 466.628 619.231C470.025 614.782 475.718 611.962 483.126 610.824C479.746 599.737 479.01 585.305 482.25 566.162C485.665 545.933 490.815 533.883 497.593 530.222C497.75 524.53 498.171 518.4 498.906 511.815C500.5 497.505 505.019 488.853 512.322 486.068C517.58 484.501 523.242 485.048 528.103 487.592C526.789 484.387 525.598 481.165 524.512 477.907C519.783 463.755 520.414 453.982 526.386 448.85C532.358 443.719 542.955 444.051 554.392 446.941C552.185 433.946 553.551 421.02 558.858 410.949C564.165 400.878 575.251 389.161 599.036 389.687C607.833 389.646 616.312 392.973 622.733 398.987C628.81 383.487 638.215 368.932 650.493 359.948C660.721 352.416 667.307 356.024 671.055 360.403C675.521 365.605 678.324 374.958 679.567 385.799C682.212 383.154 685.172 380.58 688.202 377.83C722.232 346.917 744.038 334.605 754.844 340.227C765.651 345.849 762.971 368.32 760.712 386.308L760.134 390.949C766.072 390.43 772.048 390.536 777.964 391.264C798.543 393.909 811.959 403.962 815.76 419.533C817.096 424.852 817.51 430.362 816.986 435.821C820.209 432.914 823.957 429.796 828.143 426.521C848.424 410.758 862.173 405.521 869.056 410.933C872.297 413.508 873.733 418.377 873.4 425.085C879.68 423.246 886.307 422.922 892.736 424.14C898.516 425.576 905.259 429.832 904.558 442.022C902.317 480.028 855.904 505.284 853.924 506.352C853.631 506.501 853.291 506.529 852.977 506.431C852.663 506.333 852.4 506.116 852.243 505.827C852.092 505.538 852.061 505.202 852.156 504.891C852.251 504.579 852.465 504.318 852.751 504.163C853.224 503.9 899.935 478.487 902.089 441.864C902.579 433.457 899.234 428.291 892.123 426.539C885.81 425.392 879.313 425.794 873.19 427.712C871.514 438.615 868.202 449.202 863.364 459.116C856.797 473.565 846.393 482.813 835.552 483.846C832.898 484.233 830.188 483.911 827.699 482.911C825.21 481.911 823.031 480.27 821.382 478.154C818.072 473.547 817.984 467.19 821.084 460.342C826.969 447.451 850.246 431.706 870.843 425.786C871.298 419.551 870.212 415.032 867.48 412.895C861.805 408.411 848.354 413.946 829.631 428.5C823.992 432.914 819.648 436.662 816.373 439.762C814.394 448.747 809.612 453.774 807.073 454.772C806.577 455.061 805.989 455.147 805.431 455.013C804.874 454.879 804.389 454.536 804.078 454.054C802.659 451.584 806.425 445.892 814.079 438.554C815.223 432.395 815.02 426.061 813.483 419.988C808.719 400.407 789.05 395.065 777.753 393.611C771.849 392.876 765.883 392.782 759.959 393.331C759.535 396.567 759.284 399.824 759.206 403.086C759.223 416.135 745.702 425.838 734.107 430.181C722.986 434.297 713.335 434.139 709.447 429.691C707.556 427.554 706.154 423.385 710.235 415.837C717.118 403.034 736.612 393.453 757.699 391.106L758.347 385.905C760.501 368.688 763.234 347.25 753.776 342.346C744.318 337.442 722.705 349.807 689.936 379.564C686.398 382.787 683.07 385.869 679.988 388.812C682.002 411.318 677.571 438.588 667.763 448.396C660.197 455.962 647.236 460.481 639.442 458.256C638.188 457.902 637.008 457.326 635.957 456.557C635.219 460.319 633.194 463.707 630.229 466.138C629.058 466.851 627.677 467.14 626.318 466.955C624.96 466.77 623.706 466.122 622.768 465.122C617.024 460.148 614.256 449.604 614.764 435.68C615.382 423.973 617.773 412.428 621.857 401.439C618.874 398.443 615.325 396.069 611.416 394.458C607.507 392.846 603.316 392.028 599.088 392.051C576.565 391.561 566.021 402.63 561.152 411.983C555.968 421.931 554.759 434.734 557.106 447.554C569.11 451.222 580.744 456.007 591.855 461.846C604.466 468.327 611.244 476.401 610.473 483.967C610.059 486.547 608.865 488.938 607.052 490.819C605.239 492.701 602.895 493.983 600.332 494.493C592.223 496.683 578.877 494.056 568.088 479.203C561.649 470.338 557.182 460.198 554.987 449.463C542.237 446.101 532.936 446.398 528.067 450.567C523.198 454.735 522.55 463.86 526.929 476.996C528.295 481.094 529.837 485.158 531.518 489.116C537.26 492.353 542.603 496.25 547.439 500.728C565.041 516.719 582.275 541.87 580.401 548.753C580.26 549.654 579.801 550.474 579.107 551.065C578.413 551.656 577.53 551.979 576.618 551.976C567.861 552.221 543.866 523.742 529.661 491.008C523.199 487.662 517.612 486.699 513.303 488.31C506.928 490.727 502.934 498.679 501.463 512.025C500.78 518.172 500.395 523.882 500.22 529.207C501.306 528.964 502.424 528.899 503.53 529.014C521.798 531.063 540.784 582.836 539.908 598.144C539.645 603.135 537.456 604.099 535.792 604.186C528.541 604.186 520.782 600.14 514.477 593.099C506.21 583.852 497.313 566.162 497.663 533.13C492.198 537.193 487.855 548.507 484.825 566.495C481.62 585.428 482.443 599.597 485.911 610.421C496.192 609.423 509.328 611.314 523.97 616.219C540.031 621.561 553.657 640.476 562.66 661.914C566.809 665.203 569.882 669.654 571.487 674.7C573.523 680.678 573.7 687.132 571.995 693.212C574.5 706.891 574.675 719.502 571.995 728.241C568.265 739.923 559.683 744.372 547.773 740.764C543.211 739.355 538.791 737.525 534.567 735.299C533.103 737.474 531.463 739.524 529.663 741.429C530.951 745.479 531.969 749.61 532.711 753.795C534.026 760.121 536.126 766.257 538.963 772.062C556.933 756.685 580.998 751.045 595.535 757.876C607.392 763.533 609.984 776.494 602.629 793.413C600.444 798.738 597.284 803.609 593.311 807.775ZM539.857 774.182C548.701 791.994 563.676 809.911 577.285 811.4C586.533 812.451 594.239 806.041 600.229 792.309C607.077 776.564 604.993 765.057 594.344 759.978C581.681 754.005 557.809 758.436 539.857 774.182ZM830.49 451.812C827.588 454.546 825.193 457.772 823.414 461.34C820.647 467.4 820.647 472.864 823.414 476.753C824.807 478.517 826.644 479.878 828.737 480.697C830.83 481.516 833.104 481.762 835.324 481.412C845.29 480.413 854.94 471.709 861.088 458.135C865.624 448.75 868.82 438.775 870.58 428.501C855.7 433.207 842.061 441.184 830.665 451.847L830.49 451.812ZM535.705 733.25C539.73 735.359 543.939 737.095 548.281 738.435C559.035 741.692 566.163 738.067 569.421 727.523C571.995 719.589 571.96 709.046 570.139 697.486C567.315 702.81 562.807 707.048 557.318 709.536C552.503 711.805 547.263 713.035 541.94 713.144C541.569 720.232 539.458 727.119 535.793 733.198L535.705 733.25ZM479.694 727.856C478.524 729.03 477.638 730.455 477.102 732.024C476.238 735.291 476.338 738.738 477.392 741.949C478.446 745.16 480.407 747.997 483.039 750.116C490.413 756.474 501.342 756.684 513.024 750.677C518.044 748.113 522.639 744.794 526.65 740.834C520.748 724.248 510.782 723.074 489.082 724.283C485.621 724.287 482.282 725.558 479.694 727.856ZM542.063 710.534C546.994 710.482 551.856 709.371 556.32 707.276C559.374 705.909 562.112 703.924 564.36 701.446C566.609 698.968 568.32 696.052 569.385 692.88C567.334 682.721 564.253 672.797 560.19 663.263C553.535 658.078 544.112 654.821 533.918 651.318C514.11 644.504 492.497 637.078 484.002 613.101C477.084 614.099 471.812 616.639 468.729 620.702C461.408 630.3 466.137 648.13 482.356 672.265C483.985 674.664 485.631 676.941 487.313 679.078C487.022 676.654 487.455 674.198 488.556 672.019C490.535 668.534 495.562 665.294 508.47 669.62C528.104 676.188 540.627 690.498 541.975 707.924C542.01 708.73 542.046 709.641 542.063 710.534ZM492.69 689.184C498.528 701.317 506.888 712.064 517.21 720.71C522.285 725.117 527.796 728.996 533.656 732.287C537.155 726.557 539.194 720.056 539.593 713.354C525.232 712.758 508.348 705.682 492.707 689.166L492.69 689.184ZM806.46 452.477C807.608 451.808 808.604 450.908 809.385 449.833C810.871 447.918 812.042 445.777 812.853 443.493C808.211 448.309 806.74 451.251 806.407 452.39L806.46 452.477ZM564.867 667.729C567.186 673.956 569.099 680.327 570.594 686.802C570.786 683.012 570.281 679.219 569.105 675.61C568.2 672.703 566.743 669.997 564.814 667.641L564.867 667.729ZM490.535 683.001C506.368 701.566 524.443 710.114 539.628 710.622C539.628 709.781 539.593 708.94 539.523 708.1C538.332 691.776 526.352 678.185 507.699 671.967C501.499 669.9 493.688 668.464 490.78 673.298C489.494 676.356 489.388 679.782 490.483 682.913L490.535 683.001ZM486.857 612.768C495.351 635.274 515.931 642.438 534.899 648.971C543.103 651.422 551.014 654.764 558.491 658.937C549.541 639.478 536.878 623.067 523.339 618.565C509.1 613.854 496.507 611.945 486.717 612.768L486.857 612.768ZM717.574 410.285C715.576 412.245 713.877 414.487 712.53 416.94C710.638 420.408 708.939 425.154 711.409 428.009C714.526 431.547 723.546 431.46 733.337 427.799C744.178 423.718 756.841 414.804 756.841 403.034C756.893 399.86 757.115 396.691 757.507 393.541C741.183 395.397 726.086 401.632 717.434 410.285L717.574 410.285ZM500.325 531.799C499.765 566.863 509.766 583.974 516.474 591.453C524.741 600.701 532.85 601.699 535.932 601.699C537.193 601.699 537.509 599.387 537.579 597.986C538.489 581.768 519.258 533.253 503.39 531.466C502.31 531.335 501.215 531.449 500.185 531.799L500.325 531.799ZM533.41 493.039C547.649 524.548 569.752 549.699 576.688 549.524C577.214 549.489 577.757 549.331 578.037 548.175C579.403 543.306 564.253 519.399 545.792 502.62C541.917 499.054 537.725 495.847 533.269 493.039L533.41 493.039ZM636.745 453.737C637.678 454.746 638.882 455.464 640.213 455.804C647.131 457.783 659.233 453.457 666.064 446.627C674.996 437.694 679.129 412.334 677.693 391.036C653.103 414.68 642.454 429.778 637.953 439.043C638.074 443.977 637.621 448.908 636.605 453.738L636.745 453.737ZM557.807 450.287C559.975 460.187 564.135 469.542 570.032 477.784C580.226 491.481 592.258 494.091 599.632 492.147C601.717 491.789 603.641 490.794 605.137 489.297C606.633 487.801 607.629 485.878 607.986 483.792C608.652 477.277 602.381 470.096 590.717 464.106C580.148 458.494 569.085 453.868 557.667 450.287L557.807 450.287ZM623.854 403.471C620.121 413.838 617.926 424.695 617.339 435.698C616.813 448.763 619.405 458.782 624.502 463.178C626.937 465.297 628.495 464.299 629.021 463.983C631.158 462.617 632.909 459.079 634.083 454.263C633.572 453.452 633.211 452.556 633.014 451.618C632.296 448.623 632.751 444.35 635.519 438.29C635.36 432.666 634.537 427.081 633.066 421.651C631.288 414.991 628.099 408.79 623.714 403.471L623.854 403.471ZM624.764 400.879C629.803 406.706 633.429 413.616 635.361 421.073C636.523 425.319 637.291 429.664 637.655 434.051C643.523 423.63 655.362 408.848 677.395 387.866C676.327 376.744 673.682 367.059 669.304 361.944C664.925 356.83 659.093 356.778 652.087 361.892C639.844 370.771 630.614 385.326 624.712 400.791L624.764 400.879Z" fill="#263238"/>
<path d="M865.432 528.298C865.332 528.428 865.207 528.537 865.065 528.618C864.923 528.7 864.766 528.753 864.603 528.774C864.441 528.796 864.275 528.784 864.117 528.742C863.959 528.699 863.81 528.626 863.68 528.525C863.55 528.425 863.441 528.301 863.36 528.159C863.278 528.016 863.225 527.86 863.204 527.697C863.183 527.534 863.194 527.369 863.236 527.211C863.279 527.052 863.353 526.904 863.453 526.774C863.68 526.371 879.566 497.735 882.123 467.61C871.932 461.881 862.405 455.044 853.714 447.223C849.779 443.832 846.888 439.393 845.378 434.422C843.868 429.452 843.801 424.155 845.184 419.148C846.813 413.771 850.649 410.18 855.045 409.602C861.876 408.797 869.565 414.909 876.71 426.784C883.856 438.659 885.801 452.723 884.767 466.367C893.717 471.008 903.245 474.091 911.459 472.742C914.467 472.248 917.317 471.054 919.778 469.256C922.239 467.458 924.243 465.106 925.629 462.391C930.375 454.142 922.914 438.414 906.292 421.512C878.724 393.454 836.655 371.806 814.044 384.153C803.742 390.075 795.243 398.683 789.453 409.059C799.699 418.85 805.847 430.812 806.565 441.303C807.283 451.794 802.607 459.063 793.832 461.988C786.809 464.317 781.397 462.023 778.577 455.525C774.076 445.174 776.913 426.258 786.196 409.374C776.869 401.058 765.457 395.434 753.181 393.103C733.337 389.337 718.327 396.115 708.659 405.783C709.587 424.016 708.362 440.164 704.438 444.753C702.722 446.75 700.48 446.82 698.273 444.963C692.283 439.884 691.88 428.902 697.257 417.64C699.542 412.903 702.556 408.553 706.19 404.75C704.771 380.107 699.534 351.856 691.6 344.973C679.847 334.797 655.958 327.511 643.925 333.728C637.673 336.969 634.975 343.379 635.886 352.802C637.23 363.986 639.237 375.08 641.894 386.027C644.555 386.969 647.063 388.296 649.337 389.967C661.335 398.987 667.395 417.658 668.131 447.292C668.324 456.137 667.483 459.64 665.101 459.78C659.321 460.13 647.446 420.583 639.932 387.988C632.819 386.177 625.343 386.377 618.337 388.566C596.426 394.398 585.672 400.703 583.448 408.988C582.047 413.892 583.939 419.777 589.018 426.607C595.367 430.31 601.406 434.522 607.075 439.2C633.838 461.199 633.382 463.44 633.19 464.404C633.13 464.669 632.996 464.912 632.804 465.104C632.612 465.296 632.369 465.43 632.104 465.49C628.881 466.47 609.405 451.583 594.885 437.063C592.253 434.46 589.802 431.68 587.547 428.744C562.466 414.522 538.926 413.541 527.84 422.281C518.837 429.392 518.172 442.072 525.948 458.01C531.645 469.651 538.025 480.945 545.057 491.831C549.522 492.385 553.776 494.056 557.425 496.688C561.074 499.321 564 502.831 565.934 506.893C572.94 521.29 571.837 523.305 570.208 524.128C566.758 525.792 555.478 512.41 543.691 494.108C537.659 493.4 531.551 493.696 525.616 494.983C501.866 499.642 479.816 515.037 479.483 520.309C479.465 520.642 479.43 521.272 480.884 521.71C487.417 523.9 498.784 521.15 509.765 518.47C522.026 515.493 533.585 512.691 538.419 516.929C539.353 517.856 540.041 519.001 540.421 520.261C540.8 521.522 540.858 522.857 540.591 524.145C539.61 532.972 526.597 542.973 511.482 554.585C491.341 570.033 466.312 589.246 465.034 610.736C464.561 618.565 465.595 623.276 468.134 625.151C471.707 627.778 478.8 624.993 487.172 621.91C497.839 617.83 511.132 612.768 524.093 616.131C527.981 617.147 530.17 618.706 530.573 621.14C531.817 627.358 520.082 636.185 505.23 647.394C486.367 661.598 462.863 679.253 470.394 691.093C478.293 703.475 501.027 693.702 523.182 684.087C542.799 675.68 561.416 667.606 571.12 674.052C580.823 680.497 568.055 713.722 554.744 748.786C543.78 777.895 531.362 810.874 537.913 816.269C539.927 817.933 544.376 816.812 550.646 812.854C585.57 791.311 600.614 772.588 607.848 763.603C612.016 758.454 613.908 756.107 616.255 757.263C616.402 757.334 616.533 757.434 616.641 757.557C616.748 757.68 616.83 757.824 616.881 757.979C616.931 758.135 616.95 758.299 616.936 758.462C616.922 758.624 616.875 758.783 616.798 758.927C616.652 759.218 616.398 759.44 616.089 759.545C615.781 759.65 615.444 759.629 615.151 759.487C614.398 759.435 612.051 762.342 609.792 765.162C602.453 774.252 587.216 793.203 551.942 814.955C544.428 819.597 539.297 820.595 536.337 818.16C528.42 811.645 539.559 782.116 552.432 747.91C564.184 716.752 577.477 681.425 569.491 676.101C560.909 670.391 542.098 678.518 523.901 686.346C500.887 696.294 477.067 706.558 468.047 692.389C459.307 678.675 482.776 660.985 503.478 645.397C515.931 635.992 528.804 626.307 527.876 621.595C527.613 620.282 526.054 619.248 523.217 618.513C511.027 615.36 498.136 620.264 487.785 624.205C478.45 627.76 471.007 630.475 466.4 627.13C463.09 624.695 461.776 619.423 462.302 610.561C463.615 587.95 489.169 568.351 509.731 552.623C524.408 541.449 537.001 531.694 537.876 523.917C538.082 523.024 538.065 522.093 537.827 521.207C537.589 520.322 537.136 519.508 536.51 518.838C532.674 515.458 521.185 518.225 510.098 520.94C499.012 523.654 487.032 526.492 479.851 524.11C478.947 523.941 478.136 523.446 477.571 522.72C477.006 521.994 476.727 521.087 476.786 520.169C477.276 512.498 501.621 497.155 524.88 492.566C530.417 491.409 536.086 491.02 541.729 491.411C535.068 480.984 528.97 470.209 523.461 459.131C512.217 436.082 520.274 424.943 526.053 420.389C537.07 411.685 559.313 411.334 584.201 424.208C580.733 418.358 579.665 413.156 580.909 408.48C583.396 399.232 594.71 392.402 617.584 386.307C624.594 384.176 632.032 383.863 639.197 385.396C636.655 374.78 634.691 364.033 633.312 353.204C632.05 340.069 637.708 334.236 642.682 331.679C656.938 324.428 682.019 333.641 693.106 343.256C701.233 350.297 706.697 377.865 708.344 402.666C718.555 393.26 733.792 386.955 753.619 390.739C766.242 393.097 777.993 398.822 787.632 407.307C793.647 396.756 802.388 388.015 812.94 381.999C839.037 367.813 884.347 395.573 908.201 419.849C925.891 437.818 933.317 454.282 927.923 463.67C926.367 466.703 924.12 469.33 921.364 471.337C918.608 473.345 915.42 474.678 912.055 475.229C903.613 476.665 893.84 473.618 884.785 468.976C882.053 498.751 866.728 526.336 865.765 528.035C865.678 528.15 865.563 528.24 865.432 528.298ZM850.631 414.366C849.171 415.922 848.097 417.8 847.496 419.848C846.318 424.4 846.433 429.19 847.829 433.679C849.224 438.169 851.845 442.18 855.395 445.262C863.665 452.715 872.701 459.273 882.35 464.826C883.068 451.987 881.247 438.992 874.609 427.94C865.711 413.123 858.741 411.546 855.465 412.054C853.633 412.234 851.922 413.053 850.631 414.366ZM788.245 411.213C779.558 427.221 776.756 445.016 780.871 454.491C783.183 459.816 787.282 461.532 793.132 459.746C800.855 457.171 804.761 450.708 804.236 441.636C803.465 431.618 797.773 420.461 788.245 411.213ZM706.365 408.358C703.607 411.509 701.28 415.014 699.447 418.779C694.56 429.025 694.718 438.815 699.832 443.124C701.303 444.385 701.969 443.86 702.547 443.212C705.962 439.271 707.1 424.962 706.365 408.358ZM642.507 389.127C649.723 420.022 660.53 454.894 664.751 457.398C665.066 456.873 665.714 454.859 665.486 447.625C664.785 419.182 658.795 400.546 647.709 392.227C646.106 390.987 644.36 389.946 642.507 389.127ZM594.062 432.912C594.903 433.753 595.814 434.664 596.637 435.487C606.388 445.442 617.18 454.32 628.828 461.969C621.465 454.58 613.657 447.649 605.447 441.214C601.82 438.233 598.044 435.439 594.132 432.842L594.062 432.912ZM546.773 494.843C557.089 510.449 565.952 520.747 568.772 521.886C568.772 520.905 568.176 517.787 563.552 508.084C561.982 504.727 559.657 501.779 556.759 499.47C553.86 497.16 550.466 495.553 546.843 494.773L546.773 494.843Z" fill="#263238"/>
<path d="M494.072 326.056C490.569 329.559 486.366 333.202 481.83 337.177C474.155 343.656 466.824 350.531 459.867 357.774C450.864 367.407 440.583 371.803 429.304 370.822C414.662 369.596 399.214 358.877 388.215 342.344C386.071 339.381 384.554 336.013 383.756 332.444C382.958 328.876 382.896 325.182 383.573 321.589C386.253 308.401 398.566 299.591 400.37 298.312C402.765 294.922 405.437 291.735 408.356 288.784C409.626 287.366 410.818 285.881 411.929 284.336C418.935 275.193 433.524 256.155 456.171 250.813C465.839 248.537 475.647 251.059 484.509 258.135C497.049 268.083 506.525 286.456 506.525 300.923C506.683 310.923 501.726 318.402 494.072 326.056ZM462.529 351.469C468.746 345.251 474.771 340.032 480.201 335.303C494.125 323.166 504.178 314.409 504.16 300.835C504.16 289.135 496.769 270.85 483.073 260.026C479.519 256.948 475.303 254.73 470.752 253.545C466.202 252.361 461.44 252.241 456.836 253.195C435.031 258.327 420.809 276.892 413.996 285.807C412.808 287.439 411.534 289.006 410.178 290.501C407.296 293.409 404.665 296.555 402.314 299.906C402.235 300.055 402.113 300.177 401.964 300.256C401.841 300.379 388.653 309.154 386.026 322.114C385.416 325.387 385.481 328.749 386.216 331.995C386.951 335.242 388.34 338.304 390.299 340.995C400.966 356.986 415.625 367.232 429.514 368.335C439.953 369.211 449.533 365.06 458.028 356.04C459.586 354.517 461.075 352.958 462.546 351.487L462.529 351.469Z" fill="#263238"/>
<path d="M441.074 320.346C441.01 320.444 440.926 320.527 440.828 320.591L419.478 332.238C419.336 332.32 419.18 332.372 419.017 332.391C418.855 332.411 418.69 332.397 418.533 332.351C418.376 332.306 418.23 332.228 418.103 332.125C417.977 332.021 417.873 331.893 417.797 331.748C417.645 331.458 417.612 331.122 417.703 330.808C417.795 330.495 418.004 330.229 418.287 330.066L439.637 318.419C439.782 318.339 439.941 318.288 440.105 318.271C440.269 318.253 440.435 318.268 440.594 318.315C440.752 318.363 440.899 318.441 441.027 318.546C441.154 318.651 441.26 318.781 441.336 318.927C441.446 319.162 441.48 319.424 441.433 319.679C441.386 319.933 441.26 320.167 441.074 320.346Z" fill="#263238"/>
<path d="M441.072 313.235C440.961 313.35 440.827 313.442 440.68 313.505C440.533 313.568 440.374 313.602 440.214 313.603L415.344 313.953C415.174 313.968 415.002 313.947 414.841 313.892C414.679 313.837 414.531 313.749 414.405 313.634C414.279 313.519 414.178 313.379 414.108 313.223C414.039 313.067 414.003 312.899 414.001 312.728C414 312.557 414.034 312.388 414.101 312.231C414.169 312.075 414.268 311.933 414.392 311.816C414.516 311.7 414.663 311.61 414.824 311.553C414.985 311.495 415.156 311.472 415.326 311.484L440.197 311.134C440.444 311.129 440.687 311.199 440.895 311.334C441.102 311.469 441.265 311.663 441.361 311.891C441.457 312.119 441.482 312.371 441.434 312.613C441.386 312.856 441.266 313.079 441.09 313.253L441.072 313.235Z" fill="#263238"/>
<path d="M458.867 305.809C458.639 306.028 458.337 306.152 458.021 306.155C457.705 306.159 457.4 306.041 457.168 305.827C457.047 305.72 456.948 305.59 456.878 305.444C456.808 305.298 456.767 305.14 456.759 304.978C456.751 304.817 456.775 304.655 456.831 304.503C456.886 304.351 456.971 304.212 457.08 304.093L470.672 289.206C470.898 288.97 471.207 288.831 471.533 288.817C471.86 288.804 472.179 288.918 472.423 289.136C472.543 289.246 472.64 289.379 472.708 289.527C472.776 289.674 472.815 289.834 472.821 289.997C472.828 290.16 472.802 290.322 472.746 290.475C472.69 290.627 472.604 290.768 472.493 290.887L458.92 305.757L458.867 305.809Z" fill="#263238"/>
<path d="M452.492 304.583C452.362 304.717 452.202 304.819 452.026 304.88C451.849 304.941 451.661 304.959 451.476 304.934C451.314 304.92 451.157 304.874 451.013 304.798C450.869 304.722 450.742 304.619 450.639 304.493C450.536 304.367 450.459 304.222 450.414 304.066C450.368 303.91 450.354 303.746 450.373 303.585L453.297 276.735C453.311 276.573 453.357 276.416 453.433 276.272C453.509 276.128 453.612 276.001 453.738 275.898C453.864 275.795 454.009 275.719 454.165 275.673C454.321 275.627 454.485 275.613 454.646 275.632C454.974 275.668 455.276 275.831 455.485 276.086C455.695 276.342 455.796 276.669 455.767 276.998L452.842 303.848C452.822 304.128 452.697 304.391 452.492 304.583Z" fill="#263238"/>
<path d="M477.31 319.698C477.153 319.852 476.96 319.964 476.749 320.022C476.537 320.08 476.314 320.083 476.101 320.031C476.101 320.031 463.368 316.721 455.557 323.341C447.745 329.962 448.218 342.905 448.236 343.027C448.254 343.195 448.238 343.365 448.188 343.526C448.139 343.688 448.057 343.837 447.947 343.966C447.837 344.094 447.703 344.199 447.551 344.273C447.4 344.348 447.235 344.391 447.066 344.399C446.898 344.407 446.729 344.381 446.571 344.322C446.413 344.263 446.268 344.172 446.147 344.055C446.025 343.938 445.928 343.797 445.863 343.642C445.798 343.486 445.765 343.319 445.766 343.15C445.731 342.59 445.171 328.858 453.963 321.432C462.755 314.006 476.189 317.492 476.749 317.632C477.068 317.719 477.34 317.927 477.506 318.212C477.673 318.496 477.722 318.835 477.643 319.155C477.574 319.359 477.461 319.545 477.31 319.698Z" fill="#263238"/>
<path d="M473.754 276.665C473.593 276.829 473.39 276.945 473.168 277.001C472.945 277.057 472.711 277.049 472.493 276.98C472.337 276.932 472.192 276.853 472.068 276.748C471.943 276.643 471.841 276.513 471.767 276.368C471.694 276.222 471.65 276.064 471.64 275.901C471.629 275.738 471.651 275.575 471.704 275.421L473.316 270.552C473.696 269.274 473.768 267.924 473.528 266.612C473.287 265.3 472.741 264.064 471.932 263.003C471.827 262.878 471.748 262.733 471.7 262.577C471.651 262.422 471.633 262.258 471.648 262.095C471.663 261.932 471.709 261.774 471.785 261.63C471.861 261.485 471.964 261.357 472.09 261.252C472.215 261.147 472.36 261.068 472.516 261.02C472.671 260.971 472.835 260.953 472.998 260.968C473.161 260.983 473.319 261.029 473.463 261.105C473.608 261.181 473.736 261.284 473.841 261.41C474.923 262.792 475.656 264.414 475.979 266.14C476.302 267.865 476.206 269.643 475.698 271.323L474.069 276.174C474.01 276.363 473.901 276.533 473.754 276.665Z" fill="#263238"/>
<path d="M487.048 277.033C486.984 277.131 486.901 277.214 486.803 277.278C486.663 277.357 486.509 277.408 486.349 277.427C486.189 277.447 486.027 277.434 485.872 277.39C485.717 277.346 485.573 277.271 485.447 277.171C485.321 277.071 485.216 276.946 485.139 276.805C484.755 276.189 484.175 275.72 483.491 275.475C482.808 275.23 482.061 275.224 481.373 275.456C480.6 275.705 479.927 276.195 479.451 276.853C478.976 277.512 478.722 278.305 478.729 279.117C478.729 279.447 478.598 279.763 478.365 279.996C478.131 280.229 477.815 280.36 477.485 280.36C477.155 280.36 476.839 280.229 476.606 279.996C476.373 279.763 476.242 279.447 476.242 279.117C476.229 277.761 476.658 276.438 477.464 275.348C478.27 274.258 479.408 273.46 480.708 273.074C481.929 272.69 483.245 272.73 484.44 273.188C485.636 273.646 486.641 274.495 487.293 275.596C487.413 275.83 487.454 276.097 487.41 276.355C487.366 276.614 487.239 276.852 487.048 277.033Z" fill="#263238"/>
<path d="M489.921 270.868C489.73 271.054 489.484 271.174 489.22 271.212C488.956 271.25 488.686 271.203 488.45 271.078C487.519 270.578 486.697 269.895 486.035 269.07C485.373 268.246 484.884 267.297 484.597 266.279C484.55 265.954 484.635 265.624 484.832 265.361C485.029 265.098 485.323 264.924 485.648 264.878C485.973 264.831 486.303 264.916 486.566 265.113C486.829 265.31 487.002 265.604 487.049 265.929C487.503 267.216 488.439 268.277 489.659 268.889C489.943 269.054 490.152 269.325 490.24 269.642C490.329 269.959 490.29 270.299 490.131 270.588L489.921 270.868Z" fill="#263238"/>
<path d="M628.092 315.163C627.927 315.325 627.72 315.439 627.495 315.491C627.269 315.544 627.034 315.533 626.814 315.461C623.871 314.445 554.707 290.818 545.161 281.272C542.234 278.034 539.991 274.238 538.568 270.112C537.144 265.985 536.569 261.614 536.877 257.26C537.033 253.159 538.072 249.14 539.922 245.477C541.771 241.814 544.389 238.593 547.595 236.032C562.938 223.912 587.931 233.073 588.965 233.475C589.134 233.537 589.289 233.632 589.42 233.756L600.454 244.79C600.601 244.937 600.708 245.118 600.766 245.317C600.824 245.515 600.831 245.726 600.787 245.928C600.73 246.123 600.624 246.301 600.481 246.445C600.337 246.589 600.159 246.694 599.964 246.751L591.995 249.816L615.937 265.037C616.089 265.141 616.218 265.275 616.314 265.432C616.411 265.589 616.473 265.765 616.498 265.947C616.517 266.132 616.496 266.319 616.436 266.494C616.375 266.67 616.277 266.83 616.147 266.963L608.196 274.915L619.458 292.202C619.625 292.461 619.689 292.774 619.637 293.079C619.585 293.384 619.421 293.658 619.177 293.848L613.258 298.437L628.04 313.219C628.237 313.416 628.361 313.675 628.389 313.953C628.418 314.23 628.35 314.509 628.198 314.743L628.092 315.163ZM546.772 240.148C542.224 244.79 539.564 250.958 539.311 257.452C539.024 261.453 539.549 265.471 540.855 269.264C542.162 273.057 544.222 276.546 546.913 279.521C554.619 287.227 606.042 305.583 622.523 311.345L610.578 299.4C610.451 299.275 610.352 299.125 610.289 298.958C610.226 298.792 610.199 298.614 610.21 298.437C610.223 298.263 610.272 298.094 610.353 297.941C610.435 297.787 610.547 297.652 610.683 297.543L616.883 292.709L605.691 275.563C605.529 275.326 605.456 275.04 605.485 274.754C605.514 274.469 605.643 274.203 605.849 274.004L613.433 266.42L588.72 250.71C588.524 250.588 588.367 250.414 588.264 250.208C588.162 250.001 588.12 249.77 588.142 249.541C588.164 249.312 588.249 249.093 588.388 248.91C588.527 248.727 588.715 248.586 588.93 248.503L597.407 245.245L587.896 235.735C585.304 234.824 562.64 227.363 549.154 238.011C548.319 238.676 547.524 239.39 546.772 240.148Z" fill="#263238"/>
<path d="M642.208 319.927C642.061 320.072 641.88 320.18 641.683 320.242C641.445 320.312 641.192 320.307 640.958 320.229C640.723 320.151 640.518 320.003 640.369 319.804L625.394 300.1C625.255 299.928 625.166 299.721 625.138 299.501C625.11 299.282 625.145 299.058 625.237 298.857L628.88 290.835L619.86 278.838C619.668 278.575 619.581 278.251 619.614 277.927L621.874 260.605L610.752 253.932C610.538 253.803 610.368 253.611 610.264 253.383C610.161 253.154 610.13 252.9 610.174 252.654L611.645 243.826L596.337 228.519C596.17 228.353 596.054 228.142 596.005 227.912C595.955 227.682 595.973 227.443 596.057 227.223C597.694 223.283 600.135 219.729 603.223 216.785C606.311 213.842 609.979 211.575 613.992 210.129C619.36 208.012 625.11 207.038 630.876 207.267C636.642 207.496 642.296 208.924 647.48 211.46C669.741 222.196 659.898 258.031 652.034 278.435C647.158 291.544 643.98 305.223 642.576 319.139C642.549 319.436 642.419 319.715 642.208 319.927ZM627.864 299.242L640.492 315.864C642.049 302.818 645.141 290.002 649.704 277.682C657.235 258.066 666.833 223.703 646.359 213.842C641.491 211.45 636.177 210.1 630.757 209.88C625.337 209.66 619.931 210.574 614.885 212.563C611.348 213.853 608.1 215.827 605.326 218.372C602.553 220.917 600.308 223.984 598.719 227.398L613.905 242.583C614.042 242.725 614.146 242.897 614.207 243.085C614.267 243.273 614.284 243.473 614.255 243.669L612.731 252.198L623.818 258.871C624.024 258.991 624.19 259.171 624.293 259.387C624.396 259.602 624.432 259.844 624.396 260.08L622.172 277.717L631.332 289.925C631.462 290.105 631.543 290.316 631.568 290.537C631.592 290.758 631.559 290.981 631.472 291.186L627.864 299.242Z" fill="#263238"/>
<path d="M449.901 698.203C448.325 699.779 446.784 701.321 445.277 702.827L441.004 707.1C431.879 716.225 416.274 720.026 393.33 718.66C382.225 718.064 381.788 711.847 381.262 705.296C381.187 700.961 380.171 696.694 378.285 692.791C373.272 683.277 367.372 674.258 360.665 665.853C352.275 655.082 356.514 632.033 373.59 595.41C392.611 554.672 394.905 541.063 394.993 540.625C395.29 538.086 398.04 516.56 404.73 511.831C408.108 509.241 412.261 507.865 416.518 507.926C418.619 507.751 421.282 507.54 424.89 506.945C437.255 504.878 440.372 512.69 444.015 521.727C446.45 527.84 446.625 531.063 446.292 532.726L468.588 542.552C468.8 542.646 468.982 542.798 469.112 542.99C469.242 543.182 469.315 543.406 469.324 543.638C469.33 543.869 469.273 544.097 469.159 544.298C469.045 544.499 468.878 544.664 468.676 544.777L449.708 554.707L449.69 572.659C449.695 572.822 449.665 572.983 449.603 573.132C445.382 583.908 442.278 595.088 440.338 606.497C439.721 612.326 437.656 617.907 434.33 622.733C433.334 623.926 432.606 625.319 432.195 626.818C431.784 628.317 431.7 629.886 431.949 631.42C432.474 637.305 439.62 644.556 447.186 652.193C452.064 656.869 456.578 661.91 460.69 667.273C468.221 677.676 459.394 688.71 449.901 698.203ZM405.448 514.231C400.86 518.82 398.005 534.81 397.322 540.818C397.252 541.378 395.203 554.567 375.744 596.304C359.316 631.508 354.868 654.346 362.521 664.172C369.329 672.68 375.311 681.817 380.386 691.46C382.456 695.659 383.569 700.265 383.644 704.946C384.117 711.479 384.502 715.507 393.47 716.138C415.731 717.381 430.705 713.931 439.305 705.331L443.614 701.023C454.332 690.724 466.347 679.165 458.658 668.464C454.627 663.206 450.201 658.265 445.417 653.681C437.483 645.747 430.092 638.181 429.479 631.403C429.2 629.584 429.304 627.727 429.783 625.951C430.263 624.175 431.108 622.518 432.264 621.087C435.4 616.574 437.335 611.335 437.886 605.867C439.821 594.328 442.919 583.014 447.133 572.099L447.151 553.656C447.154 553.428 447.218 553.204 447.334 553.007C447.451 552.811 447.617 552.648 447.816 552.535L465.155 543.463L444.138 534.215C443.954 534.135 443.793 534.009 443.67 533.85C443.548 533.691 443.468 533.503 443.437 533.304C443.399 533.107 443.41 532.904 443.468 532.712C443.526 532.519 443.629 532.344 443.77 532.201C443.77 532.201 444.769 530.187 441.633 522.323C437.693 512.462 435.17 507.418 425.222 509.064C421.509 509.695 418.812 509.905 416.64 510.08C412.837 509.995 409.123 511.233 406.132 513.583C405.886 513.779 405.657 513.996 405.448 514.231Z" fill="#263238"/>
<path d="M410.04 677.991C409.958 678.106 409.857 678.207 409.742 678.289C409.445 678.428 409.104 678.444 408.796 678.332C408.487 678.221 408.235 677.991 408.096 677.694C407.658 676.8 397.709 655.853 394.907 639.985C392.823 628.058 397.762 616.323 401.387 607.758C402.542 605.304 403.52 602.769 404.312 600.175C406.134 592.924 406.151 576.337 406.151 576.162L406.169 575.9C407.237 571.328 409.671 558.385 408.971 554.917C408.939 554.756 408.938 554.59 408.97 554.429C409.002 554.268 409.065 554.115 409.156 553.979C409.247 553.842 409.365 553.725 409.501 553.633C409.637 553.542 409.791 553.478 409.952 553.446C410.113 553.414 410.278 553.414 410.439 553.446C410.6 553.477 410.754 553.541 410.89 553.632C411.027 553.723 411.144 553.84 411.236 553.976C411.327 554.113 411.391 554.266 411.423 554.427C412.351 559.103 409.128 574.026 408.708 576.232C408.691 577.966 408.603 593.432 406.799 600.7C405.983 603.399 404.983 606.038 403.804 608.599C400.284 616.883 395.432 628.25 397.482 639.442C400.214 654.995 410.355 676.31 410.46 676.52C410.574 676.776 410.595 677.063 410.518 677.332C410.441 677.602 410.272 677.835 410.04 677.991Z" fill="#263238"/>
<path d="M428.728 674.261L428.448 674.541C428.15 674.681 427.809 674.698 427.499 674.59C427.188 674.482 426.932 674.257 426.784 673.963C426.346 673.07 416.433 652.263 414.559 644.749C412.685 637.235 418.622 617.286 419.183 615.255L420.128 595.779L422.93 557.422C422.94 557.26 422.982 557.102 423.053 556.957C423.125 556.811 423.225 556.682 423.347 556.576C423.469 556.47 423.612 556.389 423.766 556.339C423.92 556.289 424.082 556.27 424.244 556.284C424.572 556.311 424.877 556.465 425.092 556.714C425.308 556.963 425.419 557.286 425.4 557.615L422.598 595.936L421.722 615.588L421.67 615.885C421.53 616.025 415.242 637.13 417.011 644.189C418.78 651.247 428.973 672.72 429.079 672.93C429.152 673.162 429.158 673.411 429.096 673.646C429.034 673.882 428.907 674.095 428.728 674.261Z" fill="#263238"/>
<path d="M329.561 622.627C327.247 624.883 324.476 626.615 321.435 627.706C307.283 633.066 297.247 625.307 288.385 618.476C284.927 615.577 281.156 613.074 277.14 611.015C271.355 608.813 265.264 607.519 259.083 607.179C250.536 606.233 242.462 605.34 239.239 599.84C234.965 592.589 239.642 582.273 246.718 566.651C248.662 562.359 250.886 557.473 253.198 552.114C259.836 536.403 254.441 530.658 248.696 524.563C245.776 521.797 243.395 518.513 241.673 514.878C238.188 506.418 248.241 494.473 259.923 480.585C266.689 472.884 272.954 464.759 278.681 456.257C290.818 437.114 290.731 432.823 290.626 432.227C290.45 432.018 290.341 431.763 290.31 431.492C288.734 413.101 303.201 385.534 318.999 376.847C334.797 368.16 350.332 377.74 363.748 386.322C367.843 389.084 372.114 391.577 376.534 393.783C383.231 396.931 390.115 399.663 397.148 401.963C405.328 404.678 410.74 406.482 412.421 410.545C414.102 414.608 412.946 419.372 411.808 423.944C411.042 426.587 410.567 429.306 410.389 432.053C410.337 434.662 414.383 438.568 421.686 442.964C422.407 443.389 422.972 444.033 423.3 444.802C423.628 445.571 423.7 446.424 423.508 447.238C423.341 448.116 422.894 448.917 422.234 449.52C421.575 450.123 420.737 450.496 419.847 450.583L394.732 453.49C392.98 456.433 384.451 470.322 379.459 473.702C375.133 476.627 371.122 481.093 370.895 493.826C370.842 495.805 370.86 497.784 370.86 499.816C371.357 513.952 369.274 528.059 364.712 541.448C362.038 550.677 357.522 559.268 351.437 566.704C347.811 571.199 344.692 576.08 342.136 581.258C339.606 587.248 338.051 593.605 337.53 600.086C336.304 608.773 335.201 616.988 329.561 622.627ZM292.535 431.124C292.654 431.292 292.737 431.483 292.78 431.684C293.918 435.73 286.807 448.165 280.607 457.868C274.808 466.451 268.479 474.664 261.657 482.459C250.535 495.647 240.937 507.066 243.932 514.195C245.544 517.563 247.765 520.603 250.483 523.162C256.49 529.555 262.726 536.175 255.387 553.287C253.128 558.594 250.921 563.498 248.924 567.842C242.164 582.729 237.698 592.589 241.306 598.755C243.898 603.168 251.377 604.026 259.293 604.902C265.727 605.258 272.067 606.611 278.086 608.913C282.284 611.06 286.227 613.675 289.838 616.707C298.578 623.45 307.633 630.439 320.489 625.57C332.136 621.139 333.467 611.33 335.008 599.981C335.572 593.22 337.228 586.596 339.912 580.365C342.532 575.036 345.733 570.014 349.457 565.39C355.376 558.159 359.773 549.807 362.383 540.835C366.857 527.7 368.898 513.859 368.408 499.991C368.39 497.942 368.39 495.945 368.425 493.949C368.635 482.88 371.508 476.259 378.093 471.81C383.102 468.413 392.84 452.019 392.945 451.844C393.039 451.679 393.17 451.54 393.328 451.436C393.487 451.332 393.668 451.268 393.856 451.249L419.672 448.201C420.035 448.151 420.372 447.983 420.631 447.724C420.89 447.465 421.058 447.128 421.108 446.765C421.188 446.456 421.164 446.13 421.041 445.836C420.917 445.542 420.701 445.296 420.425 445.136C412.001 440.215 407.867 435.731 407.937 432.053C408.144 429.143 408.672 426.264 409.514 423.471C410.599 419.092 411.58 415.029 410.249 411.631C408.918 408.233 404.014 406.972 396.448 404.415C389.242 402.145 382.182 399.437 375.308 396.306C370.786 394.052 366.416 391.507 362.224 388.687C349.404 380.49 334.832 371.172 320.014 379.299C305.197 387.425 291.291 413.837 292.535 431.124Z" fill="#263238"/>
<path d="M283.182 571.03C283.075 571.153 282.945 571.253 282.799 571.326C282.653 571.399 282.494 571.442 282.331 571.454C282.003 571.477 281.679 571.368 281.43 571.152C281.182 570.936 281.029 570.63 281.006 570.302C280.983 569.973 281.092 569.649 281.308 569.401C281.395 569.313 289.592 557.894 287.7 546.369C286.897 542.247 285.335 538.309 283.094 534.757C280.554 530.291 278.207 526.122 280.519 519.817C282.586 514.248 287.42 508.713 292.114 503.389C295.702 499.766 298.762 495.657 301.204 491.181C304.531 483.44 310.994 469.761 311.817 468.027L314.217 446.852C314.243 446.687 314.296 446.527 314.374 446.379L318.753 438.848C318.917 438.566 319.185 438.36 319.5 438.275C319.815 438.19 320.151 438.232 320.434 438.393C320.714 438.563 320.919 438.833 321.007 439.149C321.095 439.464 321.059 439.801 320.907 440.092L316.651 447.395L314.252 468.5C314.244 468.634 314.208 468.766 314.147 468.885C314.042 468.99 307.018 483.965 303.481 492.162C300.972 496.908 297.793 501.267 294.04 505.105C289.487 510.254 284.775 515.596 282.901 520.763C281.027 525.93 282.814 529.187 285.283 533.654C287.668 537.459 289.319 541.676 290.152 546.089C292.219 558.664 283.69 570.487 283.322 570.995L283.182 571.03Z" fill="#263238"/>
<path d="M300.854 580.19C300.692 580.352 300.489 580.467 300.267 580.522C300.045 580.578 299.812 580.572 299.593 580.505C299.282 580.395 299.026 580.171 298.876 579.877C298.726 579.584 298.694 579.245 298.787 578.929C298.962 578.754 306.966 553.516 304.181 544.285C301.099 534.197 302.71 518.014 310.521 508.591C318.333 499.168 329.297 478.606 328.806 471.986C328.246 464.595 329.349 455.014 334.008 450.355C334.243 450.129 334.557 450.003 334.884 450.003C335.21 450.003 335.524 450.129 335.759 450.355C335.992 450.588 336.122 450.903 336.122 451.231C336.122 451.56 335.992 451.875 335.759 452.107C331.661 456.205 330.785 465.278 331.276 471.793C331.854 479.587 320.119 500.92 312.43 510.185C305.074 519.047 303.638 534.144 306.476 543.637C309.453 553.621 301.432 578.701 301.081 579.752C301.036 579.912 300.959 580.061 300.854 580.19Z" fill="#263238"/>
<path d="M317.738 588.562C317.578 588.731 317.371 588.85 317.144 588.903C316.916 588.956 316.678 588.941 316.46 588.859C316.305 588.807 316.163 588.724 316.041 588.616C315.918 588.509 315.819 588.378 315.747 588.231C315.675 588.085 315.633 587.926 315.623 587.763C315.614 587.6 315.636 587.437 315.689 587.283C318.701 578.631 326.162 554.916 324.464 549.259L324.043 547.893C321.451 539.486 316.039 521.954 326.95 507.96L331.452 502.268C340.734 490.533 349.456 479.499 351.908 469.061C353.814 461.111 356.29 453.308 359.317 445.714C359.448 445.417 359.689 445.183 359.989 445.059C360.289 444.935 360.625 444.931 360.928 445.048C361.081 445.109 361.22 445.2 361.337 445.315C361.454 445.431 361.547 445.568 361.611 445.72C361.675 445.871 361.707 446.034 361.707 446.198C361.707 446.363 361.675 446.526 361.611 446.677C358.614 454.156 356.161 461.841 354.273 469.674C351.698 480.655 342.783 491.917 333.343 503.844L328.859 509.519C318.736 522.515 323.885 539.188 326.355 547.228L326.775 548.594C329.017 556.055 319.104 584.884 317.966 588.159C317.914 588.305 317.837 588.442 317.738 588.562Z" fill="#263238"/>
<path d="M354.99 357.319C354.813 357.469 354.597 357.565 354.368 357.596C354.138 357.627 353.904 357.592 353.694 357.494L319.821 342.677C319.623 342.582 319.452 342.44 319.324 342.262C319.195 342.085 319.113 341.878 319.085 341.661C319.063 341.44 319.101 341.216 319.197 341.016C319.293 340.815 319.442 340.644 319.628 340.523L330.732 332.921L314.724 313.41C314.6 313.248 314.516 313.059 314.479 312.858C314.443 312.657 314.455 312.45 314.514 312.254C314.571 312.059 314.676 311.881 314.82 311.737C314.964 311.594 315.142 311.488 315.337 311.431L327.089 308.086L317.333 284.108C317.271 283.961 317.238 283.803 317.237 283.643C317.236 283.484 317.266 283.325 317.326 283.177C317.386 283.029 317.475 282.894 317.588 282.78C317.7 282.667 317.834 282.576 317.981 282.515L347.879 269.432C348.041 269.356 348.218 269.319 348.397 269.322C348.576 269.325 348.752 269.369 348.912 269.449C349.076 269.51 349.226 269.605 349.35 269.729C349.474 269.853 349.569 270.003 349.63 270.167L358.983 301.938C359.064 302.227 359.038 302.535 358.909 302.805C358.78 303.076 358.557 303.291 358.282 303.41L349.192 307.561L359.894 328.771C360.021 329.024 360.058 329.314 359.997 329.591C359.937 329.869 359.783 330.117 359.561 330.294L350.821 337.283L355.253 356.286C355.292 356.467 355.289 356.654 355.244 356.834C355.198 357.013 355.111 357.179 354.99 357.319ZM322.903 341.346L352.24 354.394L348.142 337.195C348.09 336.968 348.104 336.73 348.181 336.51C348.259 336.29 348.397 336.096 348.58 335.951L357.144 329.103L346.39 307.56C346.312 307.414 346.263 307.253 346.248 307.088C346.233 306.922 346.252 306.755 346.302 306.597C346.362 306.442 346.454 306.301 346.572 306.183C346.689 306.065 346.83 305.974 346.986 305.914L356.303 301.676L347.651 272.286L320.136 284.319L329.962 308.436C330.029 308.598 330.062 308.773 330.055 308.948C330.049 309.123 330.005 309.295 329.926 309.452C329.863 309.61 329.768 309.753 329.648 309.874C329.527 309.994 329.384 310.089 329.226 310.153L317.912 313.235L333.587 332.413C333.793 332.69 333.887 333.034 333.85 333.377C333.826 333.546 333.767 333.708 333.677 333.853C333.586 333.998 333.466 334.122 333.324 334.217L322.903 341.346Z" fill="#263238"/>
<path d="M496.733 191.58L489.009 199.304C488.788 199.525 488.489 199.653 488.176 199.66C487.862 199.666 487.559 199.551 487.328 199.339C485.682 197.867 477.572 190.249 478.816 185.432C479.016 184.644 479.255 183.866 479.534 183.103C481.373 177.516 482.476 172.629 477.467 169.476C473.702 167.112 470.129 166.306 468.272 167.497C467.712 167.931 467.282 168.509 467.029 169.17C466.776 169.831 466.709 170.549 466.836 171.245C467.095 173.19 467.707 175.071 468.64 176.797C470.006 179.705 471.407 182.682 468.658 186.028C468.218 186.707 467.605 187.256 466.88 187.616C466.156 187.977 465.348 188.136 464.542 188.077C463.588 187.786 462.714 187.279 461.988 186.595C461.263 185.912 460.704 185.07 460.356 184.136C459.34 182.7 450.845 170.002 458.009 161.192C462.562 155.587 471.407 154.029 478.185 155.027C483.877 155.85 488.011 158.302 489.5 161.823C492.652 169.179 491.671 178.847 491.339 181.001L496.891 190.056C497.035 190.292 497.098 190.569 497.069 190.844C497.041 191.12 496.923 191.378 496.733 191.58ZM488.116 196.694L494.299 190.511L488.939 181.859C488.8 181.609 488.745 181.32 488.782 181.036C488.782 181.036 490.253 170.107 487.083 162.663C485.979 160.019 482.459 158.04 477.712 157.356C471.862 156.551 463.806 157.812 459.848 162.681C453.56 170.405 462.265 182.612 462.37 182.717L462.562 182.91C462.895 183.698 463.894 185.362 464.874 185.502C465.855 185.642 466.24 184.942 466.731 184.346C468.412 182.279 467.782 180.668 466.363 177.708C465.303 175.712 464.615 173.54 464.331 171.298C464.133 170.14 464.272 168.95 464.731 167.869C465.191 166.788 465.952 165.863 466.923 165.203C469.726 163.521 474.017 164.24 478.728 167.2C485.769 171.648 483.3 179.197 481.811 183.698L481.128 185.887C480.62 188.357 484.648 193.366 488.116 196.694Z" fill="#263238"/>
<path d="M507.084 211.669L505.998 212.755C503.511 215.242 494.946 209.795 491.881 206.73C491.409 206.278 491.041 205.73 490.802 205.122C490.563 204.514 490.459 203.861 490.498 203.209C490.69 199.514 495.051 196.099 495.542 195.713C495.587 195.654 495.64 195.601 495.699 195.556C496.277 195.258 501.409 192.788 503.966 195.346C504.457 195.836 504.877 196.256 505.28 196.659C507.104 198.155 508.596 200.017 509.658 202.124C512.04 206.117 509.081 209.672 507.084 211.669ZM495.647 198.901C494.338 200.052 493.42 201.583 493.02 203.28C493.002 203.581 493.053 203.882 493.168 204.161C493.284 204.44 493.46 204.69 493.685 204.891C497.188 208.394 503.283 211.196 504.457 210.828L504.772 210.513C507.049 208.236 509.116 205.819 507.679 203.262C506.746 201.41 505.44 199.77 503.844 198.446C503.406 198.008 502.95 197.552 502.407 197.009C501.497 196.099 498.729 196.834 497.118 197.605C496.621 197.991 496.147 198.406 495.699 198.848L495.647 198.901Z" fill="#263238"/>
<path d="M472.179 428.131L464.455 435.854C464.232 436.078 463.932 436.208 463.616 436.218C463.3 436.228 462.992 436.117 462.756 435.907C461.197 434.348 453.018 426.799 454.261 421.983C454.436 421.317 454.699 420.529 454.979 419.653C456.818 414.066 457.922 409.18 452.913 406.027C449.147 403.663 445.574 402.857 443.735 404.065C443.168 404.49 442.732 405.064 442.475 405.723C442.218 406.382 442.151 407.101 442.281 407.796C442.547 409.747 443.164 411.634 444.103 413.366C445.451 416.256 446.853 419.233 444.12 422.596C443.672 423.269 443.053 423.812 442.327 424.169C441.601 424.526 440.794 424.684 439.987 424.627C439.033 424.336 438.16 423.829 437.434 423.146C436.708 422.462 436.149 421.621 435.801 420.687C434.803 419.268 426.291 406.552 433.454 397.743C438.008 392.138 446.852 390.579 453.631 391.578C459.323 392.401 463.474 394.871 464.945 398.373C468.098 405.73 467.117 415.397 466.784 417.552L472.336 426.607C472.485 426.842 472.55 427.12 472.521 427.396C472.493 427.672 472.372 427.931 472.179 428.131ZM463.561 433.245L469.744 427.062L464.385 418.41C464.223 418.161 464.161 417.862 464.209 417.569C464.209 417.569 465.663 406.658 462.51 399.197C461.407 396.552 457.887 394.573 453.14 393.89C447.29 393.084 439.216 394.397 435.293 399.231C429.005 406.955 437.693 419.145 437.798 419.251C437.871 419.304 437.936 419.369 437.99 419.443C438.341 420.214 439.339 421.878 440.32 422.018C441.301 422.158 441.703 421.44 442.176 420.862C443.875 418.813 443.227 417.184 441.808 414.224C440.737 412.225 440.043 410.046 439.759 407.796C439.561 406.639 439.699 405.448 440.159 404.367C440.619 403.287 441.38 402.361 442.351 401.701C445.154 400.02 449.445 400.738 454.156 403.698C461.197 408.146 458.727 415.695 457.239 420.196L456.556 422.386C456.065 424.908 460.181 430.005 463.561 433.245Z" fill="#263238"/>
<path d="M482.601 448.185L481.515 449.271C479.028 451.758 470.463 446.311 467.381 443.228C466.909 442.776 466.541 442.228 466.302 441.62C466.063 441.012 465.959 440.36 465.997 439.708C466.19 436.012 470.551 432.597 471.059 432.229L471.217 432.071C471.794 431.774 476.926 429.304 479.483 431.861C479.974 432.352 480.394 432.772 480.797 433.175C482.622 434.671 484.113 436.532 485.176 438.639C487.523 442.668 484.545 446.241 482.601 448.185ZM471.164 435.417C469.854 436.567 468.935 438.098 468.537 439.795C468.514 440.093 468.561 440.392 468.674 440.668C468.786 440.945 468.961 441.191 469.185 441.389C472.688 444.892 478.783 447.694 479.956 447.326L480.272 447.011C482.566 444.717 484.615 442.317 483.179 439.76C482.246 437.908 480.94 436.268 479.343 434.944C478.905 434.506 478.45 434.05 477.907 433.508C476.996 432.597 474.247 433.35 472.6 434.121C472.096 434.524 471.616 434.956 471.164 435.417Z" fill="#263238"/>
<path d="M619.403 148.18L611.679 155.904C611.458 156.126 611.159 156.253 610.846 156.26C610.532 156.266 610.229 156.151 609.998 155.939C608.352 154.467 600.242 146.849 601.486 142.032L602.204 139.703C604.043 134.116 605.146 129.229 600.137 126.076C596.389 123.694 592.799 122.906 590.96 124.115C590.393 124.539 589.957 125.113 589.7 125.772C589.443 126.432 589.376 127.15 589.506 127.845C589.772 129.797 590.389 131.684 591.327 133.415C592.694 136.287 594.077 139.282 591.345 142.645C590.897 143.318 590.278 143.861 589.552 144.218C588.826 144.575 588.019 144.733 587.212 144.677C586.258 144.386 585.384 143.879 584.658 143.195C583.932 142.512 583.374 141.67 583.026 140.736C582.027 139.317 573.515 126.602 580.679 117.792C585.232 112.187 594.077 110.629 600.855 111.627C606.565 112.433 610.698 114.92 612.17 118.423C615.322 125.779 614.341 135.447 614.026 137.584L619.578 146.639C619.729 146.877 619.794 147.16 619.762 147.44C619.73 147.72 619.604 147.981 619.403 148.18ZM610.786 153.294L616.969 147.111L611.609 138.459C611.458 138.207 611.397 137.911 611.434 137.619C611.434 137.619 612.905 126.69 609.735 119.246C608.632 116.601 605.111 114.622 600.365 113.939C594.532 113.116 586.458 114.394 582.518 119.281C576.23 127.005 584.917 139.195 585.022 139.3L585.215 139.492C585.548 140.281 586.546 141.945 587.527 142.085C588.508 142.225 588.893 141.524 589.383 140.929C591.082 138.879 590.434 137.251 589.016 134.291C587.981 132.337 587.304 130.213 587.019 128.02C586.823 126.863 586.964 125.674 587.423 124.594C587.882 123.514 588.642 122.588 589.611 121.925C592.413 120.244 596.704 120.962 601.416 123.922C608.457 128.371 605.987 135.92 604.498 140.421L603.815 142.61C603.307 144.975 607.353 150.001 610.786 153.294Z" fill="#263238"/>
<path d="M485.318 719.816C468.224 736.91 435.331 745.282 415.803 746.595C397.325 747.804 386.081 732.881 373.05 715.577C365.627 705.001 357.102 695.243 347.619 686.468C343.1 682.544 340.508 675.854 339.86 666.694C336.759 620.368 382.559 523.741 405.433 497.785C427.081 473.265 450.13 464.823 491.919 449.515C504.722 444.804 519.136 439.567 535.828 432.964C574.762 417.604 586.287 402.857 586.987 396.552C587.126 395.769 587.031 394.962 586.713 394.233C586.395 393.504 585.869 392.885 585.201 392.454C581.645 390.089 571.995 390.282 556.495 398.776C533.831 411.141 506.841 420.827 501.149 412.893C496.735 406.798 505.913 393.662 528.874 372.487C557.002 346.531 582.643 346.321 607.444 346.146C633.838 345.918 658.779 345.743 682.931 311.923C702.232 284.881 705.016 253.442 690.234 227.941C674.471 200.583 642.524 186.431 604.763 190.039C604.602 190.058 604.438 190.044 604.282 189.998C604.126 189.952 603.981 189.876 603.855 189.773C603.73 189.67 603.626 189.543 603.55 189.399C603.474 189.255 603.428 189.098 603.415 188.936C603.384 188.611 603.482 188.287 603.689 188.035C603.896 187.782 604.193 187.621 604.518 187.587C643.277 183.857 676.117 198.482 692.388 226.697C707.626 253.109 704.841 285.494 684.928 313.359C660.145 348.125 634.521 348.388 607.461 348.615C583.134 348.808 558 349.035 530.555 374.308C501.201 401.386 501.622 409.302 503.163 411.439C507.016 416.833 530.416 410.178 555.304 396.604C569.035 389.108 580.997 386.744 586.532 390.457C587.569 391.14 588.391 392.103 588.902 393.235C589.414 394.367 589.594 395.62 589.422 396.85C588.493 405.344 574.167 420.512 536.756 435.259C520.03 441.862 505.563 447.151 492.795 451.827C451.356 466.995 428.534 475.349 407.289 499.431C385.186 524.477 339.334 621.647 342.347 666.519C342.907 675.031 345.237 681.143 349.23 684.611C359.581 693.561 367.848 704.525 375.116 714.001C387.709 730.727 398.586 745.176 415.68 744.056C434.438 742.812 477.366 732.672 490.257 709.377C495.756 699.429 495.161 688.15 488.505 675.785C470.202 641.789 469.361 600.35 474.72 572.957C474.752 572.797 474.814 572.645 474.904 572.509C474.993 572.374 475.109 572.257 475.244 572.166C475.379 572.075 475.531 572.011 475.69 571.979C475.85 571.946 476.014 571.945 476.174 571.976C476.334 572.007 476.486 572.07 476.622 572.16C476.758 572.249 476.875 572.365 476.966 572.5C477.057 572.635 477.12 572.787 477.153 572.946C477.185 573.106 477.186 573.27 477.155 573.43C471.901 600.437 472.689 641.194 490.729 674.576C497.805 687.712 498.418 699.78 492.463 710.533C490.529 713.948 488.124 717.073 485.318 719.816Z" fill="#263238"/>
<path d="M481.129 556.564L483.827 583.046L475.822 574.586L464.508 577.353L481.129 556.564Z" fill="#263238"/>
<path d="M498.101 362.031C493.215 366.823 487.576 370.781 481.41 373.748C458.255 385.308 424.575 385.956 395.589 375.499C350.331 359.036 307.894 347.353 286.806 384.309C280.877 395.476 275.67 407.013 271.219 418.847C271.098 419.154 270.86 419.4 270.558 419.531C270.256 419.662 269.914 419.668 269.607 419.548C269.301 419.427 269.055 419.189 268.923 418.887C268.792 418.585 268.786 418.243 268.907 417.936C273.43 405.976 278.713 394.317 284.722 383.03C306.808 344.376 350.191 356.303 396.517 373.135C424.803 383.381 457.783 382.838 480.376 371.594C487.413 368.305 493.675 363.567 498.755 357.691C503.834 351.814 507.616 344.932 509.853 337.494C513.846 324.428 513.075 309.471 512.234 293.602C510.255 255.789 508.013 212.913 578.036 192.772C581.066 191.879 584.131 191.091 587.161 190.408C587.481 190.338 587.816 190.399 588.092 190.576C588.368 190.754 588.562 191.033 588.632 191.353C588.673 191.512 588.681 191.678 588.656 191.84C588.63 192.002 588.573 192.157 588.486 192.296C588.399 192.435 588.285 192.555 588.151 192.649C588.016 192.743 587.864 192.809 587.704 192.842C584.796 193.438 581.696 194.296 578.719 195.137C510.623 214.787 512.707 254.808 514.739 293.515C515.597 309.576 516.386 324.761 512.252 338.247C509.589 347.229 504.724 355.405 498.101 362.031Z" fill="#263238"/>
<path d="M604.657 188.813L582.151 203.017L586.162 192.071L578.648 183.191L604.657 188.813Z" fill="#263238"/>
<path d="M218.482 545.353C217.529 546.509 216.169 547.255 214.682 547.437C213.018 547.455 211.722 546.264 210.811 543.917C201.371 519.379 262.46 398.494 265.07 393.363C265.14 393.212 265.239 393.076 265.363 392.964C265.486 392.852 265.631 392.767 265.788 392.712C265.945 392.657 266.112 392.635 266.278 392.646C266.444 392.658 266.607 392.702 266.755 392.778C266.904 392.853 267.035 392.958 267.142 393.085C267.25 393.213 267.33 393.361 267.379 393.52C267.427 393.679 267.443 393.846 267.426 394.012C267.408 394.178 267.358 394.338 267.277 394.484C266.646 395.745 204.068 519.519 213.105 543.024C213.403 543.742 213.964 544.968 214.664 544.968C221.25 544.933 238.396 498.957 252.127 461.967C255.612 452.597 259.133 443.156 262.495 434.084C262.555 433.932 262.644 433.793 262.757 433.675C262.87 433.558 263.006 433.463 263.155 433.398C263.305 433.333 263.466 433.298 263.63 433.296C263.793 433.293 263.955 433.323 264.107 433.383C264.413 433.5 264.66 433.733 264.795 434.032C264.93 434.331 264.94 434.67 264.825 434.977C261.392 443.98 257.872 453.385 254.457 462.86C237.853 507.522 226.399 537.436 218.482 545.353Z" fill="#263238"/>
<path d="M270.133 418.356L270.781 444.961L263.46 435.923L251.953 437.797L270.133 418.356Z" fill="#263238"/>
<path d="M484.073 738.889C457.154 765.809 413.56 789.296 391.895 781.081C380.388 776.58 376.377 763.462 372.576 750.658C367.059 732.006 361.822 714.368 334.692 721.286C313.99 726.576 295.162 740.43 278.524 752.69C266.789 761.307 255.72 769.468 245.842 773.076C245.685 773.155 245.514 773.199 245.34 773.207C245.165 773.215 244.991 773.185 244.828 773.121C244.666 773.056 244.519 772.958 244.397 772.832C244.275 772.707 244.181 772.557 244.122 772.393C244.062 772.229 244.038 772.054 244.05 771.879C244.063 771.705 244.113 771.535 244.196 771.381C244.279 771.227 244.394 771.093 244.532 770.987C244.671 770.88 244.831 770.805 245.001 770.764C254.529 767.262 265.458 759.205 277.052 750.693C293.849 738.345 312.887 724.316 334.044 718.922C363.503 711.426 369.301 731.025 374.923 749.993C378.724 762.761 382.262 774.846 392.736 778.804C418.517 788.578 479.747 748.96 498.733 716.664C515.389 688.378 515.371 655.258 498.662 609.3C483.845 568.631 481.515 521.079 489.396 507.313C497.278 493.547 632.034 410.214 655.38 399.337C669.287 392.927 679.743 392.489 691.915 392.052C703.603 391.858 715.242 390.509 726.664 388.023C736.822 385.782 742.392 382.384 742.812 378.215C743.478 371.7 731.778 362.943 719.886 357.671C711.882 354.115 702.617 357.916 691.022 362.575C679.427 367.234 664.89 373.188 646.588 373.661L631.245 373.976C613.328 374.379 590.804 374.729 589.403 377.286C589.403 377.286 589.736 378.32 594.64 380.562C597.652 381.928 600.788 383.206 603.8 384.432C614.396 388.758 623.556 392.489 623.942 398.654C624.222 403.523 618.81 408.865 606.9 415.486C587.915 426.029 560.715 437.536 538.874 446.766C523.199 453.404 509.66 459.131 507.786 461.005C507.646 461.142 507.479 461.249 507.296 461.32C506.805 461.46 459.884 476.365 455.803 492.671C454.577 497.4 455.103 498.976 455.628 499.502C458.115 501.428 469.692 495.211 487.224 485.77C493.162 482.565 499.975 478.905 507.769 474.789L537.368 459.201C537.51 459.126 537.666 459.081 537.826 459.067C537.987 459.053 538.148 459.071 538.301 459.12C538.454 459.169 538.596 459.247 538.719 459.352C538.841 459.456 538.942 459.583 539.015 459.727C539.166 460.015 539.197 460.351 539.102 460.663C539.007 460.974 538.793 461.236 538.507 461.391L508.907 476.978C501.131 481.042 494.353 484.702 488.345 487.942C466.768 499.572 457.87 504.406 454.087 501.463C451.81 499.677 452.423 495.736 453.334 492.128C457.642 474.929 501.954 460.427 506.21 459.078C508.802 456.872 519.013 452.511 537.858 444.524C559.646 435.312 586.741 423.84 605.622 413.366C616.306 407.411 621.612 402.525 621.385 398.829C621.122 394.223 612.154 390.545 602.802 386.762C599.754 385.536 596.602 384.24 593.572 382.856C588.51 380.562 586.513 378.74 586.934 376.778C587.792 372.663 599.702 372.032 631.07 371.454C636.062 371.367 641.228 371.279 646.378 371.139C664.295 370.736 678.587 364.817 689.936 360.263C702.144 355.306 711.777 351.383 720.744 355.376C730.237 359.58 746.052 369.196 745.124 378.426C744.581 383.838 738.521 387.866 727.049 390.405C715.485 392.93 703.698 394.297 691.863 394.486C679.498 394.976 669.725 395.327 656.274 401.562C629.564 413.874 498.434 496.349 491.41 508.522C483.932 521.85 486.419 568.404 501.026 608.442C518.016 655.135 517.981 688.903 500.922 717.907C496.197 725.572 490.537 732.621 484.073 738.889Z" fill="#263238"/>
<path d="M553.568 452.353L536.421 472.687L536.912 461.057L527.069 454.857L553.568 452.353Z" fill="#263238"/>
<path d="M217.084 773.847C216.932 774.005 216.737 774.114 216.524 774.162C216.208 774.25 215.87 774.209 215.584 774.048C215.299 773.887 215.088 773.62 215 773.304C209.413 752.759 241.884 712.932 263.357 686.59C271.799 676.222 278.437 668.007 279.995 664.487C282.43 658.795 268.646 649.635 255.405 640.702C241.06 631.087 226.243 621.173 224.719 611.838C223.932 604.786 224.138 597.658 225.332 590.663C226.628 580.19 227.749 571.152 221.479 565.793C217.994 562.903 212.284 561.291 206.276 559.592C193.789 556.107 179.637 552.114 183.683 534.652C189.34 510.114 235.437 407.76 262.357 367.879C270.571 355.707 271.709 350.575 271.096 349.472C271.096 349.472 270.956 349.332 270.571 349.332C265.054 349.524 243.634 369.263 228.992 400.859C206.381 449.882 178.218 502.25 171.878 510.517C170.722 512.023 169.618 511.48 169.303 511.27C164.714 508.292 175.433 453.857 211.635 386.83C211.79 386.543 212.051 386.33 212.362 386.234C212.674 386.139 213.01 386.171 213.299 386.322C213.443 386.396 213.571 386.498 213.675 386.623C213.779 386.747 213.857 386.891 213.904 387.047C213.951 387.202 213.967 387.365 213.95 387.526C213.934 387.687 213.885 387.844 213.807 387.986C180.179 450.267 170.039 498.694 170.599 508.047C178.288 496.855 205.085 446.904 226.802 399.896C240.796 369.578 262.637 347.212 270.536 346.915C271.083 346.853 271.637 346.952 272.129 347.201C272.621 347.45 273.029 347.838 273.303 348.316C274.897 351.206 271.919 358.247 264.458 369.316C237.644 409.056 191.774 510.867 186.117 535.23C182.614 550.397 194.437 553.707 206.959 557.228C213.247 558.997 219.185 560.661 223.073 563.919C230.446 570.066 229.203 580.172 227.889 590.908C226.741 597.661 226.546 604.541 227.311 611.348C228.555 619.597 243.618 629.615 256.859 638.478C272.289 648.794 285.6 657.726 282.36 665.31C280.696 669.181 274.181 676.992 265.353 687.991C244.196 713.948 212.215 753.18 217.487 772.498C217.565 772.737 217.568 772.995 217.496 773.235C217.424 773.476 217.28 773.69 217.084 773.847Z" fill="#263238"/>
<path d="M424.083 251.829L423.943 251.969C409.169 262.33 393.008 270.555 375.936 276.401C368.58 278.959 364.622 279.099 363.168 276.734C359.735 271.41 373.957 255.997 397.531 231.512C409.704 218.849 422.297 205.766 422.892 202.123C422.892 202.123 422.577 201.632 420.948 201.58C403.031 201.177 315.161 239.866 251.286 328.296C240.9 342.675 231.145 357.685 222.282 372.853C222.11 373.145 221.829 373.358 221.501 373.443C221.172 373.529 220.824 373.48 220.531 373.308C220.238 373.136 220.026 372.855 219.94 372.527C219.855 372.198 219.904 371.849 220.075 371.557C228.99 356.302 238.798 341.239 249.219 326.79C315.931 234.436 411.297 194.416 423.54 199.513C424.143 199.714 424.652 200.126 424.974 200.673C425.296 201.221 425.409 201.867 425.291 202.491C424.608 206.677 414.941 216.87 399.265 233.176C384.658 248.343 362.59 271.287 365.182 275.351C365.427 275.596 366.724 276.892 375.06 274.019C391.909 268.25 407.858 260.131 422.437 249.902C422.704 249.713 423.034 249.635 423.357 249.684C423.68 249.733 423.972 249.905 424.171 250.165C424.366 250.404 424.465 250.706 424.449 251.014C424.433 251.322 424.302 251.612 424.083 251.829Z" fill="#263238"/>
<path d="M212.648 387.495L216.326 361.119L222.106 371.242L233.736 371.242L212.648 387.495Z" fill="#263238"/>
<path d="M553.042 131.243C552.833 131.448 552.559 131.573 552.267 131.595C551.975 131.618 551.685 131.536 551.448 131.365C551.255 131.173 529.852 116.18 485.313 135.288C440.003 154.711 444.067 181.859 451.423 205.749C454.646 216.222 449.917 228.272 437.639 240.55C437.525 240.684 437.385 240.793 437.227 240.873C437.07 240.952 436.899 241 436.723 241.013C436.547 241.026 436.37 241.004 436.203 240.949C436.036 240.893 435.881 240.805 435.748 240.69C435.516 240.458 435.385 240.143 435.385 239.814C435.385 239.486 435.516 239.171 435.748 238.938C443.875 230.812 452.824 218.639 449.111 206.554C440.862 179.775 439.425 152.347 484.385 133.064C530.29 113.395 552.008 128.808 552.902 129.491C553.033 129.583 553.145 129.701 553.23 129.837C553.315 129.974 553.371 130.126 553.396 130.284C553.421 130.443 553.413 130.605 553.373 130.761C553.333 130.917 553.262 131.063 553.164 131.19L553.042 131.243Z" fill="#263238"/>
<path d="M423.225 250.971L435.275 227.221L437.447 238.676L448.446 242.459L423.225 250.971Z" fill="#263238"/>
<path d="M727.959 254.984C725.933 257.245 723.196 258.746 720.2 259.24C718.714 259.387 717.217 259.094 715.896 258.396C714.576 257.699 713.49 256.627 712.774 255.316C709.551 250.307 710.164 243.354 710.882 235.315C712.564 216.364 714.928 190.32 669.32 166.956C612.17 137.548 587.212 156.937 568.997 171.088C566.615 172.945 564.356 174.679 562.184 176.22C550.397 184.504 534.914 186.676 524.581 181.597C521.288 179.982 518.508 177.484 516.551 174.382C514.593 171.281 513.535 167.697 513.494 164.03C513.179 156.358 515.543 150.736 520.482 147.303C528.013 142.119 541.079 142.68 555.423 148.827C558.401 150.089 562.254 152.155 561.834 155.063C560.993 160.527 542.831 162.786 537.296 163.347C536.971 163.378 536.647 163.279 536.395 163.072C536.142 162.866 535.982 162.568 535.947 162.243C535.93 162.08 535.945 161.914 535.992 161.757C536.039 161.599 536.117 161.452 536.221 161.325C536.326 161.198 536.454 161.093 536.6 161.016C536.745 160.939 536.904 160.892 537.068 160.877C547.542 159.826 559.031 157.094 559.382 154.677C559.469 154.59 559.452 153.241 554.443 151.104C541.079 145.377 528.609 144.711 521.901 149.353C517.732 152.19 515.701 157.164 515.981 163.925C515.968 167.154 516.873 170.321 518.591 173.056C520.309 175.791 522.769 177.982 525.684 179.372C535.229 184.084 549.661 181.947 560.765 174.171C562.85 172.752 565.127 170.966 567.474 169.144C585.198 155.343 611.872 134.624 670.459 164.731C717.485 188.919 715.086 215.874 713.282 235.577C712.651 243.214 712.021 249.729 714.806 254.02C715.281 254.937 716.017 255.692 716.921 256.191C717.825 256.69 718.856 256.909 719.885 256.823C724.386 256.385 729.71 250.5 732.793 242.513C735.227 236.576 741.357 215.278 723.125 194.769C705.4 174.837 680.652 164.486 660.773 156.167C646.937 150.387 636.06 145.85 630.595 139.615C624.903 133.117 624.08 124.518 628.651 119.631C632.172 115.831 647.304 106.198 693.963 141.542C711.257 154.303 727.04 168.993 741.007 185.329C741.112 185.454 741.191 185.599 741.239 185.755C741.288 185.91 741.305 186.074 741.291 186.237C741.276 186.4 741.23 186.558 741.154 186.702C741.078 186.847 740.975 186.975 740.849 187.08C740.724 187.185 740.579 187.264 740.423 187.312C740.268 187.361 740.104 187.379 739.941 187.364C739.778 187.349 739.62 187.303 739.475 187.227C739.331 187.151 739.203 187.048 739.098 186.922C725.238 170.747 709.591 156.193 692.457 143.539C657.077 116.742 637.479 114.447 630.735 121.19L630.525 121.4C626.812 125.358 627.653 132.539 632.505 138.056C637.356 143.574 648.776 148.548 661.771 153.977C681.895 162.297 706.959 172.718 725.086 193.122C731.321 199.714 735.577 207.926 737.367 216.821C739.157 225.715 738.41 234.934 735.21 243.424C733.594 247.725 731.128 251.657 727.959 254.984Z" fill="#263238"/>
</g>
</svg>
