<svg width="235" height="182" viewBox="0 0 235 182" fill="none" xmlns="http://www.w3.org/2000/svg">
<g opacity="0.3">
<path d="M234.681 109.74C234.678 107.837 234.231 105.961 233.375 104.262C232.519 102.562 231.278 101.086 229.751 99.9501C228.224 98.8147 226.453 98.0515 224.578 97.7213C222.704 97.3912 220.779 97.5032 218.956 98.0485C219.14 96.8069 219.235 95.5537 219.239 94.2986C219.239 87.4401 216.514 80.8625 211.665 76.0128C206.815 71.1631 200.237 68.4386 193.379 68.4386C191.777 68.4422 190.178 68.5902 188.603 68.8808C186.06 64.6841 182.219 61.4298 177.661 59.6102C173.104 57.7906 168.078 57.5047 163.343 58.7957C158.609 60.0867 154.424 62.8844 151.421 66.7657C148.418 70.6469 146.761 75.4004 146.7 80.3073H146.328C143.542 80.2261 140.768 80.7048 138.17 81.7149C135.572 82.7251 133.203 84.2462 131.204 86.1883C129.204 88.1304 127.615 90.4539 126.529 93.0212C125.444 95.5886 124.885 98.3477 124.885 101.135C124.885 103.922 125.444 106.682 126.529 109.249C127.615 111.816 129.204 114.14 131.204 116.082C133.203 118.024 135.572 119.545 138.17 120.555C140.768 121.565 143.542 122.044 146.328 121.963H222.812C225.995 121.88 229.019 120.554 231.237 118.27C233.455 115.986 234.691 112.924 234.681 109.74Z" fill="#263238"/>
<g opacity="0.7">
<path opacity="0.3" d="M234.681 109.74C234.678 107.837 234.231 105.961 233.375 104.262C232.519 102.562 231.278 101.086 229.751 99.9501C228.224 98.8147 226.453 98.0515 224.578 97.7213C222.704 97.3912 220.779 97.5032 218.956 98.0485C219.14 96.8069 219.235 95.5537 219.239 94.2986C219.239 87.4401 216.514 80.8625 211.665 76.0128C206.815 71.1631 200.237 68.4386 193.379 68.4386C191.777 68.4422 190.178 68.5902 188.603 68.8808C186.06 64.6841 182.219 61.4298 177.661 59.6102C173.104 57.7906 168.078 57.5047 163.343 58.7957C158.609 60.0867 154.424 62.8844 151.421 66.7657C148.418 70.6469 146.761 75.4004 146.7 80.3073H146.328C143.542 80.2261 140.768 80.7048 138.17 81.7149C135.572 82.7251 133.203 84.2462 131.204 86.1883C129.204 88.1304 127.615 90.4539 126.529 93.0212C125.444 95.5886 124.885 98.3477 124.885 101.135C124.885 103.922 125.444 106.682 126.529 109.249C127.615 111.816 129.204 114.14 131.204 116.082C133.203 118.024 135.572 119.545 138.17 120.555C140.768 121.565 143.542 122.044 146.328 121.963H222.812C225.995 121.88 229.019 120.554 231.237 118.27C233.455 115.986 234.691 112.924 234.681 109.74Z" fill="white"/>
<path opacity="0.3" d="M174.885 81.6889C174.88 78.6844 174.172 75.7225 172.815 73.0389C171.459 70.3554 169.492 68.0245 167.072 66.2318C164.652 64.4391 161.845 63.2342 158.875 62.713C155.905 62.1917 152.854 62.3686 149.965 63.2295C150.257 61.2693 150.406 59.2907 150.413 57.3091C150.413 46.4807 146.096 36.0959 138.41 28.4391C130.724 20.7822 120.3 16.4807 109.431 16.4807C106.893 16.4864 104.359 16.72 101.863 17.1789C97.8322 10.553 91.7453 5.41503 84.5228 2.54222C77.3004 -0.330602 69.3353 -0.782027 61.8324 1.25626C54.3296 3.29455 47.6971 7.71167 42.9382 13.8394C38.1793 19.9672 35.553 27.4722 35.4564 35.2193H34.8678C30.4523 35.0911 26.0559 35.8468 21.9388 37.4417C17.8218 39.0365 14.0677 41.4382 10.899 44.5044C7.73033 47.5705 5.21132 51.2389 3.4912 55.2924C1.77107 59.3458 0.884766 63.7019 0.884766 68.1027C0.884766 72.5035 1.77107 76.8596 3.4912 80.913C5.21132 84.9664 7.73033 88.6348 10.899 91.701C14.0677 94.7672 17.8218 97.1688 21.9388 98.7637C26.0559 100.359 30.4523 101.114 34.8678 100.986H156.076C161.12 100.855 165.912 98.7621 169.427 95.1557C172.942 91.5494 174.901 86.7157 174.885 81.6889Z" fill="white"/>
</g>
<path d="M212.11 139.863C217.098 138.094 206.627 127.481 206.627 127.481C206.627 127.481 207.122 141.579 212.11 139.863Z" fill="black"/>
<path d="M215.613 147.823C215.613 147.823 216.091 161.973 221.079 160.293C226.067 158.613 215.613 147.823 215.613 147.823Z" fill="black"/>
<path d="M224.58 168.271C224.58 168.271 225.058 182.421 230.046 180.741C235.034 179.06 224.58 168.271 224.58 168.271Z" fill="black"/>
<path d="M195.538 139.987C200.526 138.218 190.055 127.517 190.055 127.517C190.055 127.517 190.55 141.72 195.538 139.987Z" fill="black"/>
<path d="M199.039 147.947C199.039 147.947 199.517 162.097 204.505 160.435C209.493 158.772 199.039 147.947 199.039 147.947Z" fill="black"/>
<path d="M208.008 168.394C208.008 168.394 208.485 182.545 213.473 180.776C218.462 179.007 208.008 168.394 208.008 168.394Z" fill="black"/>
<path d="M178.962 140.111C183.95 138.342 173.496 127.641 173.496 127.641C173.496 127.641 173.974 141.845 178.962 140.111Z" fill="black"/>
<path d="M182.465 148.088C182.465 148.088 182.942 162.239 187.93 160.558C192.919 158.878 182.465 148.088 182.465 148.088Z" fill="black"/>
<path d="M191.434 168.518C191.434 168.518 191.911 182.669 196.899 180.9C201.887 179.131 191.434 168.518 191.434 168.518Z" fill="black"/>
<path d="M156.924 127.765C156.924 127.765 157.401 141.915 162.389 140.235C167.378 138.554 156.924 127.765 156.924 127.765Z" fill="black"/>
<path d="M165.891 148.301C165.891 148.301 166.368 162.451 171.356 160.771C176.344 159.091 165.891 148.301 165.891 148.301Z" fill="black"/>
<path d="M174.859 168.642C174.859 168.642 175.337 182.792 180.325 181.112C185.313 179.431 174.859 168.642 174.859 168.642Z" fill="black"/>
<g opacity="0.7">
<path d="M212.11 139.863C217.098 138.094 206.627 127.481 206.627 127.481C206.627 127.481 207.122 141.579 212.11 139.863Z" fill="white"/>
<path d="M215.613 147.823C215.613 147.823 216.091 161.973 221.079 160.293C226.067 158.613 215.613 147.823 215.613 147.823Z" fill="white"/>
<path d="M224.58 168.271C224.58 168.271 225.058 182.421 230.046 180.741C235.034 179.06 224.58 168.271 224.58 168.271Z" fill="white"/>
<path d="M195.536 139.987C200.524 138.218 190.053 127.517 190.053 127.517C190.053 127.517 190.548 141.72 195.536 139.987Z" fill="white"/>
<path d="M199.039 147.946C199.039 147.946 199.517 162.097 204.505 160.434C209.493 158.771 199.039 147.946 199.039 147.946Z" fill="white"/>
<path d="M208.008 168.394C208.008 168.394 208.485 182.545 213.473 180.776C218.462 179.007 208.008 168.394 208.008 168.394Z" fill="white"/>
<path d="M178.964 140.111C183.952 138.342 173.498 127.641 173.498 127.641C173.498 127.641 173.976 141.844 178.964 140.111Z" fill="white"/>
<path d="M182.465 148.088C182.465 148.088 182.942 162.239 187.93 160.558C192.919 158.878 182.465 148.088 182.465 148.088Z" fill="white"/>
<path d="M191.434 168.518C191.434 168.518 191.911 182.669 196.899 180.9C201.887 179.131 191.434 168.518 191.434 168.518Z" fill="white"/>
<path d="M156.924 127.764C156.924 127.764 157.401 141.915 162.389 140.234C167.378 138.554 156.924 127.764 156.924 127.764Z" fill="white"/>
<path d="M165.893 148.3C165.893 148.3 166.37 162.451 171.358 160.77C176.346 159.09 165.893 148.3 165.893 148.3Z" fill="white"/>
<path d="M174.859 168.642C174.859 168.642 175.337 182.792 180.325 181.112C185.313 179.431 174.859 168.642 174.859 168.642Z" fill="white"/>
</g>
<g opacity="0.7">
<path d="M113.11 116.863C118.098 115.094 107.627 104.481 107.627 104.481C107.627 104.481 108.122 118.579 113.11 116.863Z" fill="white"/>
<path d="M116.613 124.823C116.613 124.823 117.091 138.973 122.079 137.293C127.067 135.613 116.613 124.823 116.613 124.823Z" fill="white"/>
<path d="M125.58 145.271C125.58 145.271 126.058 159.421 131.046 157.741C136.034 156.06 125.58 145.271 125.58 145.271Z" fill="white"/>
<path d="M96.5361 116.987C101.524 115.218 91.0527 104.517 91.0527 104.517C91.0527 104.517 91.548 118.72 96.5361 116.987Z" fill="white"/>
<path d="M100.039 124.946C100.039 124.946 100.517 139.097 105.505 137.434C110.493 135.771 100.039 124.946 100.039 124.946Z" fill="white"/>
<path d="M109.008 145.394C109.008 145.394 109.485 159.545 114.473 157.776C119.462 156.007 109.008 145.394 109.008 145.394Z" fill="white"/>
<path d="M79.9637 117.111C84.9517 115.342 74.498 104.641 74.498 104.641C74.498 104.641 74.9756 118.844 79.9637 117.111Z" fill="white"/>
<path d="M83.4648 125.088C83.4648 125.088 83.9424 139.239 88.9305 137.558C93.9185 135.878 83.4648 125.088 83.4648 125.088Z" fill="white"/>
<path d="M92.4336 145.518C92.4336 145.518 92.9112 159.669 97.8992 157.9C102.887 156.131 92.4336 145.518 92.4336 145.518Z" fill="white"/>
<path d="M57.9238 104.764C57.9238 104.764 58.4014 118.915 63.3895 117.234C68.3775 115.554 57.9238 104.764 57.9238 104.764Z" fill="white"/>
<path d="M66.8926 125.3C66.8926 125.3 67.3702 139.451 72.3582 137.77C77.3462 136.09 66.8926 125.3 66.8926 125.3Z" fill="white"/>
<path d="M75.8594 145.642C75.8594 145.642 76.3369 159.792 81.325 158.112C86.313 156.431 75.8594 145.642 75.8594 145.642Z" fill="white"/>
</g>
</g>
</svg>
