<svg width="184" height="176" viewBox="0 0 184 176" fill="none" xmlns="http://www.w3.org/2000/svg">
<path d="M75.1991 137.494L87.9983 127.266L91.651 88.7324L86.8385 67.5192L99.0723 51.912L94.3843 34.2213C95.4878 32.0615 96.7305 29.9848 98.1036 28.0061C91.5539 18.7008 81.8427 12.4622 71.0268 10.6114C60.2108 8.76062 49.1397 11.4431 40.1581 18.0908C31.1766 24.7384 24.99 34.8291 22.9087 46.2256C20.8274 57.6222 23.0148 69.4295 29.0077 79.147L74.6963 153.835C73.7951 148.076 75.1991 137.494 75.1991 137.494Z" fill="#1F1F1F"/>
<path d="M153.122 111.111C162.839 105.24 169.957 95.5188 172.909 84.087C175.862 72.6553 174.407 60.4491 168.865 50.1537C163.323 39.8583 154.148 32.3171 143.359 29.1891C132.569 26.061 121.048 27.6023 111.331 33.4739C110.839 32.5554 110.315 31.6768 109.773 30.8183C108.296 32.7178 106.943 34.7217 105.724 36.816L109.472 54.7594L96.384 69.5924L100.047 91.0603L94.3471 129.334L81.0216 138.782C81.0216 138.782 79.0475 149.265 79.6474 155.061L79.8148 155.368L153.122 111.111Z" fill="#1F1F1F"/>
</svg>
