<svg width="794" height="687" viewBox="0 0 794 687" fill="none" xmlns="http://www.w3.org/2000/svg">
<g opacity="0.4">
<path d="M308.157 89.9594C316.617 98.4188 312.956 118.928 309.348 129.962C305.179 142.748 293.48 139.806 281.062 136.706C276.569 135.5 272.014 134.535 267.418 133.816C273.513 145.831 286.526 156.742 302.097 162.014C302.251 162.067 302.393 162.15 302.515 162.257C302.637 162.365 302.737 162.496 302.808 162.642C302.88 162.789 302.922 162.948 302.932 163.111C302.942 163.273 302.92 163.436 302.867 163.59C302.814 163.744 302.732 163.887 302.624 164.009C302.516 164.131 302.385 164.23 302.239 164.302C302.092 164.374 301.933 164.416 301.771 164.426C301.608 164.436 301.445 164.414 301.291 164.361C284.477 158.651 270.623 146.654 264.511 133.501C260.569 133.089 256.586 133.332 252.724 134.219L249.413 135.007C236.61 138.037 224.525 140.909 220.444 149.964C217.169 157.198 219.341 167.707 227.047 182.209C230.007 187.787 233.872 192.835 238.484 197.148C246.278 181.683 259.186 166.393 271.762 164.886C280.974 163.766 288.558 169.808 294.32 182.856C300.73 197.463 298.681 208.795 288.505 213.717C275.982 219.794 255.035 214.75 239.255 201.282C236.917 206.203 235.188 211.39 234.105 216.73C233.504 220.343 232.662 223.912 231.583 227.413C233.063 229.025 234.426 230.74 235.664 232.545C239.315 230.662 243.132 229.12 247.066 227.939C257.557 224.839 265.141 228.884 268.398 239.393C270.71 246.854 270.588 257.591 268.486 269.29C270.072 274.55 269.993 280.173 268.258 285.386C266.878 289.87 264.151 293.821 260.447 296.7C252.81 315.196 241.198 331.397 227.502 335.88C214.751 340.049 203.489 341.643 194.644 340.715C191.79 350.015 191.212 362.152 194.084 378.406C196.763 393.661 200.581 403.434 205.153 406.989C204.715 378.528 212.246 363.396 219.375 355.427C221.621 352.632 224.43 350.34 227.619 348.702C230.809 347.063 234.307 346.114 237.888 345.916C239.481 345.934 241.408 346.914 241.653 351.503C242.371 365.042 226.503 409.249 210.547 411.053C209.625 411.158 208.692 411.123 207.78 410.948C207.973 415.484 208.358 420.353 208.988 425.572C210.354 437.132 213.857 444.032 219.409 446.081C223.087 447.448 227.781 446.677 233.193 443.892C245.313 415.343 265.683 391.191 273.512 391.348C274.323 391.357 275.106 391.647 275.729 392.167C276.351 392.687 276.774 393.407 276.927 394.203C278.556 400.071 264.124 421.508 249.307 435.17C245.053 439.259 240.318 442.817 235.207 445.766C233.771 449.164 232.475 452.632 231.337 456.152C227.658 467.432 228.061 475.05 232.475 478.868C236.889 482.687 244.63 482.757 255.506 479.972C257.305 470.705 261.08 461.935 266.576 454.26C275.823 441.51 287.401 439.25 294.459 441.159C296.752 441.608 298.851 442.754 300.469 444.44C302.087 446.127 303.144 448.272 303.496 450.582C304.197 457.203 298.347 464.173 287.523 469.638C277.967 474.629 267.956 478.694 257.626 481.776C255.521 492.027 256.78 502.685 261.216 512.163C265.472 520.378 274.632 530.098 294.178 529.818C297.727 529.852 301.248 529.183 304.537 527.848C307.826 526.513 310.818 524.54 313.339 522.041C309.666 512.33 307.515 502.109 306.964 491.741C306.509 479.936 308.926 471.109 313.725 466.976C314.577 466.056 315.729 465.469 316.974 465.322C318.219 465.174 319.477 465.475 320.52 466.17C323.071 468.251 324.842 471.134 325.547 474.349C326.397 473.777 327.33 473.339 328.314 473.053C335.11 471.126 346.459 475.12 353.132 481.793C361.697 490.357 365.672 514.054 364.148 533.478C366.776 536.105 369.7 538.715 372.783 541.517C401.314 567.456 419.949 578.42 428.146 574.111C436.343 569.802 433.576 551.517 431.632 536.648L431.071 532.304C412.804 530.15 396.042 521.795 389.825 510.499C386.234 503.861 387.408 500.2 389.054 498.309C392.294 494.543 400.579 494.28 410.036 497.783C420.317 501.514 432.525 510.148 432.612 521.725C432.683 524.491 432.906 527.251 433.278 529.992C438.617 530.527 443.998 530.457 449.321 529.782C458.762 528.503 475.19 523.914 479.061 507.433C480.404 502.218 480.589 496.772 479.604 491.477C472.931 485.015 469.638 480.041 470.899 477.869C471.177 477.409 471.625 477.076 472.145 476.942C472.666 476.808 473.218 476.883 473.684 477.151C475.908 478.009 480.199 482.405 481.968 490.269C484.771 493.071 488.606 496.276 493.493 500.112C515.421 517.206 523.407 516.015 526.157 513.861C528.417 512.057 529.327 508.274 528.907 503.019C511.025 497.782 490.813 484.016 485.629 472.737C481.11 462.929 484.823 456.028 490.323 453.366C492.926 452.348 495.73 451.953 498.512 452.211C501.295 452.47 503.978 453.375 506.349 454.855C510.85 457.359 517.295 462.683 522.427 473.805C526.558 482.451 529.492 491.62 531.149 501.058C536.466 502.762 542.122 503.123 547.613 502.108C553.515 500.62 556.247 496.241 555.722 489.2C553.603 457.587 513.092 435.326 512.689 435.098C512.541 435.017 512.41 434.907 512.304 434.774C512.198 434.642 512.12 434.49 512.072 434.328C512.025 434.165 512.011 433.995 512.029 433.826C512.048 433.658 512.1 433.495 512.181 433.347C512.263 433.198 512.373 433.068 512.505 432.962C512.637 432.856 512.789 432.777 512.952 432.73C513.114 432.683 513.285 432.668 513.453 432.687C513.621 432.706 513.784 432.757 513.933 432.839C515.667 433.767 556.055 455.975 558.261 488.972C558.962 499.516 553.217 503.229 548.243 504.49C542.677 505.593 536.927 505.335 531.482 503.737C531.779 508.904 530.869 513.353 527.751 515.805C521.779 520.551 509.764 515.927 492.022 502.074C488.501 499.324 485.384 496.697 482.651 494.245C483.019 498.873 482.623 503.53 481.478 508.029C478.343 521.322 467.046 529.922 449.654 532.251C444.329 532.958 438.943 533.07 433.593 532.584L434.101 536.35C436.098 551.868 438.777 571.361 429.214 576.265C419.651 581.169 400.806 570.381 371.066 543.338L363.798 536.595C362.765 545.861 360.383 553.847 356.582 558.278C353.342 562.044 347.58 565.144 338.612 558.524C327.876 550.625 319.697 538.067 314.32 524.703C308.782 529.766 301.523 532.528 294.02 532.427C273.248 532.673 263.388 522.252 258.834 513.424C254.301 503.817 252.898 493.029 254.823 482.581C245.015 484.963 235.943 485.209 230.688 480.69C225.434 476.171 224.716 467.712 228.797 455.329C229.638 452.667 230.654 449.97 231.687 447.325C227.567 449.359 222.828 449.754 218.429 448.428C211.931 446.029 207.885 438.445 206.396 425.887C205.713 420.195 205.31 414.923 205.135 410.019C199.25 406.727 194.784 396.165 191.614 378.739C188.724 362.327 189.302 349.91 192.192 340.329C186.561 339.803 181.355 337.109 177.673 332.816C170.58 323.446 174.398 307.577 189.075 285.649C191.138 282.538 193.366 279.538 195.748 276.664C198.428 266.979 207.185 254.053 219.288 243.632C220.164 242.756 221.179 242.02 222.143 241.267C216.275 244.928 208.096 245.086 196.414 244.368C190.074 243.982 185.467 240.847 183.751 235.733C182.874 232.495 182.955 229.073 183.984 225.88C185.013 222.687 186.946 219.862 189.548 217.746C196.659 211.686 207.01 211.493 218.044 217.273C222.258 219.44 226.139 222.2 229.569 225.469C230.43 222.48 231.125 219.445 231.653 216.379C232.822 210.583 234.717 204.957 237.293 199.635C232.232 195.017 227.981 189.582 224.718 183.557C216.574 168.407 214.489 157.075 218.08 149.141C222.669 138.983 235.927 135.848 248.748 132.8L252.023 132.012C255.742 131.162 259.569 130.878 263.372 131.171C262.166 128.116 261.416 124.9 261.148 121.626C260.22 109.453 267.033 98.9621 280.274 91.9913C292.587 85.5634 301.607 84.67 307.281 89.504L308.157 89.9594ZM266.192 131.154C271.425 131.844 276.603 132.891 281.692 134.289C295.704 137.791 303.691 139.298 306.983 129.209C311.555 115.215 313.079 97.333 305.81 91.1504C301.029 87.1046 292.867 88.0504 281.535 93.9528C268.995 100.468 262.83 109.891 263.688 121.153C263.98 124.599 264.826 127.976 266.192 131.154ZM240.498 198.882C255.525 211.878 275.877 217.132 287.489 211.44C296.404 207.114 298.086 197.341 292.113 183.802C286.842 171.875 280.099 166.323 272.094 167.286C260.43 168.617 247.924 183.715 240.428 198.812L240.498 198.882ZM528.679 500.41C527.073 491.584 524.262 483.022 520.325 474.961C515.456 464.417 509.466 459.443 505.298 457.131C503.258 455.82 500.941 455.002 498.53 454.743C496.118 454.485 493.68 454.793 491.409 455.643C485.979 458.165 484.613 464.47 487.958 471.739C492.67 482.055 511.725 495.05 528.609 500.34L528.679 500.41ZM266.734 265.262C268.268 256.912 268.042 248.334 266.069 240.076C263.179 230.811 257.032 227.536 247.819 230.303C244.114 231.41 240.52 232.859 237.083 234.629C240.262 239.836 242.154 245.726 242.6 251.811C247.108 251.966 251.54 253.026 255.63 254.928C260.343 257.094 264.236 260.716 266.734 265.262ZM228.728 228.061L228.553 227.886C225.132 224.483 221.21 221.624 216.923 219.409C206.888 214.173 197.535 214.278 191.23 219.637C189.006 221.433 187.347 223.833 186.452 226.548C185.558 229.263 185.465 232.178 186.186 234.945C187.569 239.096 191.282 241.583 196.694 241.951C215.26 242.966 223.824 242.038 228.798 227.991L228.728 228.061ZM233.51 233.789C232.636 232.52 231.689 231.303 230.672 230.146C229.465 233.661 227.47 236.855 224.84 239.481C227.601 237.352 230.497 235.404 233.51 233.648L233.51 233.789ZM266.016 269.798C265.057 267.038 263.538 264.506 261.555 262.36C259.572 260.215 257.168 258.501 254.492 257.328C250.754 255.584 246.704 254.608 242.582 254.456C242.582 255.331 242.547 256.242 242.459 257.135C241.233 272.058 230.462 284.265 213.63 289.747C202.421 293.426 197.972 290.483 196.239 287.383C195.292 285.629 194.849 283.646 194.96 281.656C193.664 283.372 192.385 285.176 191.107 287.085C177.288 307.735 173.312 323.06 179.617 331.362C183.006 335.231 187.767 337.63 192.893 338.052C200.389 317.21 219.393 310.782 235.699 305.3C244.648 302.27 252.863 299.52 258.59 294.949C261.932 286.768 264.443 278.271 266.086 269.588L266.016 269.798ZM240.025 251.969C239.574 246.287 237.779 240.794 234.788 235.943C229.867 238.696 225.243 241.947 220.987 245.646C212.38 252.826 205.355 261.711 200.355 271.743C213.718 257.784 227.922 252.021 240.095 251.758L240.025 251.969ZM478.01 486.451C477.403 485.017 476.639 483.654 475.733 482.387C475.054 481.421 474.212 480.58 473.246 479.9C474.489 482.272 476.116 484.42 478.063 486.258L478.01 486.451ZM262.601 291.113C264.061 289.218 265.17 287.077 265.876 284.791C266.8 281.906 267.226 278.886 267.137 275.858C265.921 280.958 264.424 285.986 262.653 290.921L262.601 291.113ZM199.181 287.243C202.036 290.098 207.938 288.994 212.93 287.506C229.008 282.251 238.904 271.164 239.99 256.943C240.042 256.119 240.077 255.279 240.077 254.438C227.274 254.701 211.914 261.584 198.13 277.925C197.188 280.617 197.275 283.561 198.375 286.192C198.638 286.502 198.938 286.779 199.269 287.015L199.181 287.243ZM195.415 338.438C206.048 338.894 216.668 337.27 226.678 333.656C238.991 329.645 249.535 315.704 256.874 299.293C250.426 302.849 243.607 305.686 236.539 307.752C220.391 313.007 202.666 318.962 195.503 338.21L195.415 338.438ZM430.791 529.677C430.445 527.039 430.234 524.385 430.16 521.725C430.09 512.057 419.599 503.878 409.231 500.06C400.999 497.048 393.485 496.96 390.963 499.902C388.914 502.267 390.385 506.33 392.067 509.308C397.636 519.536 413.609 527.453 430.791 529.677ZM207.64 408.39C208.464 408.656 209.337 408.74 210.197 408.636C223.578 407.094 239.849 365.567 239.131 351.678C239.079 350.715 238.851 348.456 237.818 348.438C235.173 348.421 228.167 349.296 221.214 357.09C215.451 363.483 206.939 378.16 207.64 408.39ZM236.696 441.895C240.549 439.397 244.171 436.56 247.52 433.418C262.968 419.162 275.578 399.02 274.44 394.939C274.177 394.011 273.739 393.923 273.389 393.888C267.434 393.748 248.711 415.028 236.696 441.895ZM361.836 531.271C362.852 512.951 359.104 491.268 351.381 483.544C345.373 477.537 334.9 473.754 328.997 475.453C327.946 475.708 326.992 476.262 326.247 477.046C327.142 481.253 327.548 485.549 327.456 489.849C331.256 497.924 340.644 510.814 361.871 531.236L361.836 531.271ZM257.976 479.254C267.727 476.238 277.183 472.339 286.227 467.606C296.14 462.562 301.5 456.502 301.009 450.862C300.684 449.059 299.815 447.398 298.519 446.102C297.223 444.806 295.562 443.937 293.758 443.612C287.453 441.895 277.049 444.067 268.52 455.784C263.453 462.804 259.887 470.794 258.046 479.254L257.976 479.254ZM323.533 476.539C323.036 473.371 321.502 470.457 319.172 468.254C318.436 467.799 317.263 467.361 315.476 468.902C311.237 472.545 309.066 480.882 309.486 491.776C309.999 501.468 311.947 511.03 315.266 520.15C318.744 515.788 321.284 510.756 322.727 505.367C324.084 500.534 324.831 495.551 324.951 490.533C322.429 485.138 322.044 481.39 322.692 478.78C322.865 477.981 323.16 477.213 323.568 476.504L323.533 476.539ZM354.235 527.313C339.978 513.056 331.677 502.512 327.228 494.771C326.885 498.609 326.193 502.408 325.161 506.12C323.513 512.292 320.489 518.01 316.316 522.847C321.501 536.193 329.557 548.768 340.188 556.597C346.231 561.063 351.047 561.116 354.813 556.72C358.579 552.323 360.786 544.092 361.644 534.546C359.017 531.954 356.565 529.572 354.27 527.278L354.235 527.313Z" fill="#263238"/>
<path d="M523.707 413.924L523.935 414.151C524.776 415.623 538.156 439.512 540.801 465.241C548.56 461.405 556.809 458.936 564.095 460.127C567.079 460.61 569.909 461.783 572.36 463.552C574.811 465.322 576.815 467.639 578.212 470.32C582.976 478.587 576.688 492.861 561.38 508.344C540.853 529.221 501.831 552.901 478.957 540.536C469.829 535.25 462.245 527.666 456.959 518.538C448.671 525.688 438.609 530.474 427.832 532.392C421.01 533.873 413.935 533.724 407.182 531.956C400.429 530.188 394.188 526.851 388.968 522.216C387.724 543.461 383.013 566.703 375.902 573.008C366.374 581.24 344.656 589.122 332.256 582.782C327.842 580.505 322.78 575.408 323.849 563.866C324.983 554.581 326.603 545.362 328.7 536.246C322.527 537.437 316.155 537.082 310.153 535.212C290.151 529.748 280.291 523.671 278.136 515.561C277.681 513.315 277.676 511 278.121 508.751C278.565 506.503 279.452 504.365 280.729 502.461C259.466 513.215 240.358 512.707 230.83 505.106C225.733 501.095 218.605 491.339 228.255 471.32C232.877 461.842 237.998 452.617 243.598 443.682C238.996 443.942 234.38 443.601 229.867 442.667C209.83 438.743 187.762 424.907 187.342 418.146C187.307 417.329 187.564 416.525 188.068 415.88C188.572 415.235 189.29 414.79 190.092 414.626C196.379 412.577 206.555 415.116 216.381 417.586C226.206 420.055 235.962 422.525 239.115 419.617C239.627 419.056 239.993 418.378 240.179 417.641C240.365 416.905 240.367 416.134 240.183 415.396C239.377 408.706 227.888 399.844 215.698 390.456C197.798 376.655 175.52 359.491 174.224 339.839C173.716 332.116 174.837 327.527 177.727 325.407C181.773 322.447 188.271 324.882 196.432 328.035C205.382 331.52 216.609 335.881 227.013 333.184C228.641 332.781 230.621 332.028 230.901 330.732C231.707 326.773 220.497 318.296 209.673 310.1C191.599 296.403 171.124 280.903 178.673 268.976C186.467 256.628 207.187 265.718 227.258 274.51C243.021 281.411 259.327 288.539 266.613 283.705C273.374 279.221 261.639 248.641 251.288 221.651C238.065 187.165 230.516 165.85 236.927 160.561C239.571 158.372 244.055 159.317 250.641 163.416C281.361 182.506 294.672 199.005 301.134 206.904C302.384 208.769 303.921 210.424 305.688 211.808C305.833 211.738 305.99 211.697 306.151 211.688C306.311 211.679 306.472 211.702 306.624 211.756C306.775 211.81 306.914 211.893 307.034 212.001C307.153 212.11 307.249 212.24 307.317 212.386C307.454 212.688 307.466 213.032 307.352 213.343C307.237 213.655 307.004 213.908 306.704 214.05C304.567 215.101 302.868 213.016 299.19 208.463C292.938 200.704 279.714 184.363 249.38 165.483C242.531 161.227 239.694 161.472 238.468 162.383C232.968 166.936 243.915 195.467 253.653 220.758C265.387 251.303 276.439 280.185 268.032 285.754C259.625 291.324 243.441 284.248 226.312 276.752C207.222 268.38 187.465 259.728 180.81 270.272C174.487 280.308 194.856 295.703 211.215 308.103C225.647 319.032 234.439 326.003 233.37 331.204C232.968 333.289 231.076 334.725 227.661 335.583C216.451 338.385 204.892 333.832 195.592 330.346C188.428 327.562 182.246 325.162 179.233 327.369C177.202 328.84 176.308 332.956 176.746 339.664C177.989 358.177 199.76 374.973 217.274 388.459C230.428 398.6 241.777 407.357 242.705 415.081C242.948 416.216 242.901 417.394 242.567 418.505C242.234 419.617 241.624 420.626 240.796 421.439C236.593 425.152 226.977 422.753 215.855 419.968C206.398 417.516 196.519 415.134 190.88 416.92C189.794 417.271 189.811 417.709 189.846 417.954C190.109 422.595 209.48 436.116 230.357 440.179C235.236 441.258 240.256 441.548 245.227 441.038C255.158 425.572 264.878 413.715 268.171 415.291C269.642 415.992 270.711 417.831 264.686 430.406C263.035 433.914 260.516 436.944 257.369 439.209C254.222 441.473 250.549 442.899 246.698 443.349C240.667 452.737 235.198 462.475 230.322 472.511C223.684 486.155 224.385 497.084 232.213 503.267C241.829 510.85 262.111 510.115 283.583 498.064C285.553 495.505 287.695 493.082 289.994 490.813C301.448 479.359 319.085 465.47 322.185 466.398C322.428 466.484 322.647 466.623 322.829 466.805C323.011 466.987 323.15 467.207 323.236 467.449C323.429 468.412 323.814 470.374 300.748 489.272C295.881 493.283 290.684 496.874 285.212 500.009C280.956 505.806 279.432 510.727 280.553 514.966C282.445 522.147 291.78 527.664 310.801 532.883C316.807 534.797 323.224 535.021 329.349 533.531C335.496 505.63 345.287 471.249 350.734 471.547C352.923 471.67 353.729 474.752 353.589 482.529C353.186 508.187 347.984 524.388 337.72 532.095C335.767 533.558 333.599 534.71 331.293 535.51C329.079 544.925 327.436 554.464 326.371 564.076C325.635 572.238 328.035 577.79 333.464 580.557C343.92 585.899 364.377 579.769 374.396 571.152C381.121 565.337 385.482 541.009 386.551 519.764C383.28 516.375 380.572 512.484 378.529 508.24C373.958 498.519 374.326 489.079 379.493 484.683C379.853 484.289 380.296 483.98 380.789 483.777C381.283 483.573 381.815 483.481 382.348 483.506C382.881 483.531 383.402 483.673 383.874 483.922C384.346 484.171 384.758 484.52 385.08 484.946C388.653 489.114 389.931 503.178 389.248 518.959C394.21 523.829 400.307 527.386 406.989 529.309C413.67 531.232 420.725 531.461 427.517 529.975C438.023 528.061 447.801 523.299 455.786 516.208C447.554 501.496 444.997 484.963 449.008 476.083C451.425 470.583 456.294 468.587 462.319 470.653C470.148 473.333 474.211 480.059 473.563 489.184C472.915 498.309 467.713 508.485 459.078 516.734C464.187 525.609 471.553 532.975 480.428 538.084C500.044 548.838 536.194 530.447 559.804 506.417C574.026 491.95 580.331 478.534 576.233 471.353C575.003 469.001 573.239 466.969 571.083 465.421C568.927 463.872 566.437 462.851 563.815 462.438C556.809 461.283 548.735 463.857 541.046 467.693C542.328 479.501 539.949 491.417 534.233 501.829C526.019 515.648 519.013 517.049 515.527 516.646C513.361 516.246 511.361 515.217 509.776 513.688C508.19 512.159 507.09 510.197 506.613 508.046C505.396 503.728 505.429 499.152 506.71 494.852C507.99 490.552 510.465 486.703 513.846 483.754C521.306 477.079 529.483 471.252 538.226 466.379C535.792 440.37 521.921 415.605 521.728 415.237C521.642 415.099 521.585 414.943 521.561 414.782C521.537 414.62 521.547 414.455 521.589 414.297C521.632 414.139 521.707 413.992 521.809 413.865C521.911 413.737 522.039 413.632 522.183 413.556C522.441 413.432 522.733 413.401 523.011 413.468C523.289 413.535 523.535 413.696 523.707 413.924ZM511.727 512.355C512.808 513.466 514.235 514.176 515.773 514.369C518.627 514.702 524.547 513.371 532.061 500.743C537.325 491.126 539.565 480.144 538.489 469.234C530.281 473.935 522.596 479.495 515.563 485.821C512.517 488.446 510.282 491.885 509.119 495.734C507.956 499.583 507.913 503.683 508.995 507.556C509.509 509.351 510.446 510.996 511.727 512.355ZM457.502 514.492C465.454 506.716 470.235 497.345 470.848 489.096C471.461 480.847 468.063 475.382 461.303 473.07C456.416 471.406 452.966 472.79 451.039 477.169C447.536 485.366 449.971 500.691 457.502 514.492ZM386.551 516.261C387.006 502.145 385.92 489.99 383.031 486.574C382.505 486.049 382.085 485.629 380.911 486.627C376.655 490.217 376.55 498.484 380.649 507.171C382.224 510.476 384.232 513.557 386.621 516.331L386.551 516.261ZM331.818 532.673C333.334 532.013 334.769 531.178 336.092 530.186C345.567 523.092 350.576 507.049 350.979 482.546C351.268 479.822 351.096 477.069 350.471 474.402C346.916 477.292 337.913 506.331 331.888 532.743L331.818 532.673ZM248.432 440.53C251.437 439.867 254.248 438.52 256.648 436.594C259.048 434.669 260.971 432.215 262.269 429.425C265.929 421.807 266.595 418.899 266.735 417.953C264.178 419.285 256.909 427.849 248.502 440.6L248.432 440.53ZM290.467 493.808C293.304 491.882 296.194 489.763 299.031 487.416C305.733 482.115 312.163 476.48 318.297 470.532C308.699 476.968 299.774 484.355 291.658 492.582C291.342 493.038 290.922 493.458 290.537 493.878L290.467 493.808Z" fill="#263238"/>
<path d="M578.335 395.586C581.494 398.669 584.185 402.197 586.321 406.06C587.39 408.039 588.651 410.946 587.162 412.995C584.973 415.99 578.405 414.747 569.332 413.311C559.577 411.577 547.439 409.458 538.629 412.313C537.246 412.785 535.564 413.521 535.442 414.589C535.056 417.917 545.88 424.573 554.603 429.897C567.283 437.673 579.245 445.012 577.214 451.247C573.308 463.174 518.488 452.771 507.559 450.564C507.399 450.533 507.247 450.471 507.111 450.381C506.975 450.291 506.858 450.176 506.767 450.041C506.676 449.906 506.612 449.754 506.58 449.594C506.547 449.435 506.547 449.27 506.578 449.111C506.609 448.951 506.671 448.799 506.761 448.663C506.851 448.527 506.966 448.41 507.101 448.319C507.236 448.228 507.388 448.164 507.548 448.132C507.707 448.099 507.872 448.099 508.031 448.13C532.552 453.069 572.38 458.078 574.849 450.459C576.303 446.098 563.552 438.286 553.306 432.034C542.08 425.151 532.394 419.213 532.99 414.309C533.2 412.383 534.794 410.964 537.859 409.966C547.264 406.901 559.734 409.107 569.753 410.859C576.741 412.102 583.957 413.363 585.218 411.612C585.551 411.279 585.726 410.158 584.202 407.303C575.83 391.645 551.363 377.967 538.332 381.575C538.175 381.622 538.011 381.637 537.849 381.618C537.687 381.6 537.53 381.55 537.387 381.47C537.245 381.39 537.121 381.282 537.021 381.152C536.921 381.023 536.849 380.874 536.808 380.716C536.72 380.401 536.761 380.063 536.922 379.777C537.083 379.492 537.351 379.281 537.666 379.193C548.718 376.022 566.705 383.956 578.335 395.586Z" fill="#263238"/>
<path d="M549.173 353.569C549.302 353.648 549.41 353.756 549.489 353.884C549.646 354.217 564.271 388.317 559.717 419.984C557.685 434.1 544.129 448.637 523.462 458.831C504.248 468.306 484.579 471.406 475.595 466.38C475.31 466.214 475.101 465.944 475.013 465.627C474.924 465.309 474.963 464.97 475.122 464.681C475.285 464.399 475.554 464.193 475.869 464.108C476.184 464.022 476.519 464.065 476.803 464.226C484.93 468.849 504.143 465.609 522.358 456.606C542.307 446.781 555.356 432.962 557.265 419.633C561.714 388.668 547.369 355.198 547.229 354.882C547.161 354.733 547.124 354.572 547.12 354.408C547.116 354.245 547.145 354.082 547.206 353.93C547.266 353.777 547.357 353.639 547.472 353.523C547.588 353.407 547.726 353.315 547.877 353.253C548.1 353.17 548.343 353.156 548.574 353.212C548.805 353.268 549.014 353.393 549.173 353.569Z" fill="#263238"/>
<path d="M576.775 453.226C579.006 455.266 580.722 457.806 581.782 460.637C582.841 463.469 583.214 466.511 582.87 469.515C581.206 484.209 563.114 499.464 544.916 508.625C549.97 513.987 555.884 518.468 562.413 521.883C573.289 527.575 582.449 530.64 589.665 530.955C589.979 530.99 590.268 531.143 590.473 531.383C590.678 531.623 590.783 531.932 590.768 532.248C590.752 532.563 590.617 532.861 590.389 533.08C590.161 533.298 589.859 533.422 589.543 533.425C581.871 533.075 572.624 530.027 561.257 524.09C554.328 520.407 548.078 515.568 542.779 509.781C536.583 512.831 530.028 515.09 523.268 516.506C519.603 517.151 515.977 518.004 512.409 519.063C516.217 523.054 519.42 527.58 521.919 532.497C528.4 545.107 528.084 557.052 521.008 565.214C515.614 571.484 507.067 574.217 500.306 571.905C494.614 569.961 491.111 564.741 490.726 557.595C489.588 535.825 490.919 524.616 507.82 518.083C506.353 516.765 504.802 515.542 503.179 514.422C499.85 520.349 495.931 525.924 491.479 531.061C479.587 544.845 464.612 555.161 453.333 558.349C449.925 561.196 446.371 563.861 442.684 566.335C410.912 587.598 395.552 585.444 388.231 579.909C383.783 576.512 380.963 570.819 379.824 563.411C368.738 566.791 354.306 567.527 335.162 564.287C314.933 560.872 302.883 555.722 299.223 548.944C293.531 548.787 287.401 548.366 280.815 547.631C266.506 546.037 257.854 541.518 255.069 534.215C253.501 528.957 254.048 523.295 256.593 518.434C253.388 519.748 250.165 520.939 246.907 522.025C232.756 526.754 222.982 526.123 217.851 520.151C212.719 514.179 213.052 503.582 215.942 492.145C202.946 494.352 190.02 492.986 179.95 487.679C169.879 482.373 158.162 471.286 158.687 447.501C158.646 438.704 161.974 430.225 167.988 423.804C152.487 417.727 137.933 408.322 128.948 396.044C121.417 385.816 125.025 379.23 129.404 375.482C134.605 371.016 143.958 368.213 154.8 366.97C152.155 364.325 149.58 361.365 146.831 358.335C115.918 324.305 103.605 302.499 109.227 291.693C114.85 280.887 137.321 283.566 155.308 285.825L159.949 286.403C159.431 280.465 159.537 274.489 160.265 268.574C162.909 247.994 172.963 234.578 188.533 230.777C193.853 229.441 199.362 229.027 204.822 229.551C201.914 226.328 198.797 222.58 195.522 218.394C179.759 198.113 174.522 184.364 179.934 177.481C182.508 174.241 187.378 172.804 194.086 173.137C192.246 166.857 191.922 160.231 193.14 153.801C194.576 148.021 198.832 141.278 211.022 141.979C249.029 144.22 274.284 190.634 275.353 192.613C275.501 192.906 275.529 193.246 275.431 193.56C275.333 193.874 275.116 194.137 274.827 194.294C274.539 194.445 274.202 194.477 273.891 194.381C273.58 194.286 273.318 194.073 273.163 193.786C272.901 193.313 247.487 146.602 210.865 144.448C202.458 143.958 197.291 147.303 195.539 154.414C194.392 160.727 194.795 167.224 196.713 173.347C207.615 175.023 218.203 178.336 228.116 183.173C242.566 189.74 251.813 200.144 252.846 210.985C253.234 213.64 252.911 216.349 251.911 218.838C250.911 221.327 249.27 223.506 247.154 225.155C242.548 228.465 236.19 228.553 229.342 225.453C216.451 219.568 200.706 196.291 194.786 175.694C188.551 175.239 184.032 176.325 181.896 179.057C177.412 184.732 182.946 198.183 197.501 216.906C201.914 222.545 205.662 226.889 208.762 230.164C217.747 232.143 222.774 236.925 223.772 239.464C224.061 239.96 224.147 240.548 224.014 241.106C223.88 241.663 223.536 242.148 223.054 242.459C220.585 243.878 214.892 240.112 207.554 232.458C201.395 231.314 195.061 231.517 188.989 233.054C169.407 237.818 164.065 257.487 162.612 268.784C161.876 274.688 161.782 280.654 162.331 286.578C165.567 287.002 168.824 287.253 172.087 287.332C185.135 287.314 194.838 300.835 199.182 312.43C203.297 323.551 203.14 333.202 198.691 337.09C196.554 338.982 192.386 340.383 184.837 336.302C172.034 329.419 162.454 309.925 160.107 288.838L154.905 288.19C137.688 286.036 116.251 283.304 111.347 292.761C106.442 302.219 118.808 323.832 148.564 356.601C151.787 360.139 154.87 363.467 157.812 366.55C180.318 364.535 207.588 368.966 217.396 378.774C224.962 386.34 229.481 399.301 227.257 407.095C226.902 408.349 226.327 409.529 225.558 410.581C229.32 411.318 232.707 413.343 235.138 416.308C235.852 417.479 236.14 418.86 235.955 420.219C235.77 421.577 235.123 422.831 234.122 423.769C229.148 429.514 218.604 432.281 204.68 431.773C192.974 431.155 181.428 428.764 170.44 424.68C167.443 427.663 165.07 431.212 163.458 435.121C161.846 439.03 161.028 443.221 161.052 447.449C160.561 469.972 171.63 480.516 180.983 485.385C190.931 490.569 203.734 491.778 216.555 489.431C220.223 477.427 225.008 465.793 230.847 454.682C237.327 442.071 245.402 435.293 252.968 436.064C255.547 436.479 257.938 437.672 259.82 439.485C261.701 441.298 262.983 443.642 263.494 446.205C265.683 454.314 263.056 467.66 248.204 478.449C239.339 484.888 229.198 489.355 218.464 491.55C215.101 504.3 215.399 513.601 219.567 518.47C223.736 523.339 232.861 523.987 245.997 519.608C250.095 518.242 254.158 516.7 258.117 515.019C261.353 509.278 265.25 503.934 269.729 499.098C285.72 481.496 310.87 464.262 317.754 466.136C318.654 466.277 319.474 466.737 320.066 467.431C320.657 468.125 320.98 469.007 320.976 469.919C321.221 478.676 292.743 502.671 260.008 516.876C256.663 523.338 255.699 528.926 257.311 533.234C259.728 539.609 267.679 543.603 281.025 545.074C287.173 545.757 292.883 546.142 298.207 546.317C297.965 545.231 297.9 544.114 298.014 543.007C300.064 524.739 351.837 505.753 367.144 506.629C372.136 506.892 373.099 509.081 373.187 510.745C373.187 517.996 369.141 525.755 362.1 532.06C352.852 540.327 335.163 549.224 302.13 548.874C306.194 554.339 317.508 558.682 335.495 561.712C354.428 564.917 368.598 564.094 379.422 560.626C378.423 550.345 380.315 537.209 385.219 522.567C390.561 506.506 409.477 492.88 430.914 483.877C434.203 479.728 438.655 476.655 443.7 475.05C449.678 473.015 456.132 472.837 462.213 474.542C475.892 472.037 488.502 471.862 497.242 474.542C508.924 478.272 513.373 486.854 509.765 498.764C508.355 503.326 506.526 507.747 504.3 511.97C506.474 513.434 508.524 515.075 510.43 516.874C514.48 515.586 518.611 514.568 522.795 513.827C529.121 512.511 535.258 510.411 541.063 507.574C525.685 489.604 520.046 465.539 526.876 451.002C532.534 439.145 545.494 436.553 562.413 443.909C567.739 446.094 572.609 449.254 576.775 453.226ZM543.182 506.681C560.994 497.836 578.912 482.861 580.401 469.252C581.451 460.004 575.041 452.298 561.31 446.308C545.564 439.46 534.057 441.544 528.978 452.193C523.006 464.856 527.437 488.728 543.182 506.681ZM220.812 216.047C223.547 218.949 226.772 221.344 230.34 223.123C236.4 225.89 241.865 225.89 245.753 223.123C247.517 221.73 248.878 219.893 249.697 217.8C250.516 215.707 250.763 213.433 250.412 211.213C249.414 201.247 240.709 191.597 227.135 185.45C217.751 180.913 207.775 177.717 197.501 175.957C202.207 190.837 210.184 204.476 220.847 215.872L220.812 216.047ZM502.251 510.832C504.36 506.807 506.095 502.598 507.435 498.256C510.693 487.502 507.067 480.374 496.524 477.116C488.59 474.542 478.046 474.577 466.486 476.398C471.81 479.222 476.048 483.73 478.536 489.219C480.806 494.035 482.035 499.274 482.144 504.597C489.232 504.968 496.12 507.079 502.198 510.744L502.251 510.832ZM496.856 566.843C498.03 568.013 499.456 568.899 501.024 569.435C504.291 570.299 507.739 570.199 510.95 569.145C514.161 568.091 516.997 566.13 519.117 563.498C525.475 556.124 525.685 545.195 519.677 533.513C517.114 528.493 513.794 523.898 509.834 519.887C493.248 525.789 492.075 535.755 493.283 557.455C493.288 560.916 494.558 564.255 496.856 566.843ZM479.535 504.474C479.482 499.543 478.371 494.681 476.277 490.217C474.91 487.163 472.925 484.426 470.447 482.177C467.969 479.928 465.052 478.217 461.88 477.152C451.721 479.203 441.798 482.284 432.263 486.347C427.079 493.002 423.821 502.425 420.318 512.619C413.505 532.428 406.079 554.04 382.101 562.535C383.1 569.453 385.639 574.725 389.702 577.808C399.3 585.129 417.13 580.4 441.265 564.181C443.665 562.552 445.941 560.906 448.078 559.224C445.654 559.515 443.199 559.082 441.02 557.981C437.535 556.002 434.294 550.975 438.621 538.067C445.189 518.433 459.498 505.91 476.925 504.562C477.731 504.527 478.641 504.492 479.535 504.474ZM458.184 553.847C470.317 548.009 481.065 539.649 489.71 529.327C494.117 524.252 497.996 518.741 501.287 512.881C495.557 509.382 489.056 507.343 482.354 506.944C481.759 521.305 474.683 538.189 458.167 553.83L458.184 553.847ZM221.478 240.077C220.809 238.929 219.908 237.933 218.833 237.152C216.918 235.666 214.778 234.495 212.493 233.684C217.309 238.326 220.252 239.797 221.39 240.13L221.478 240.077ZM436.729 481.671C442.957 479.351 449.328 477.438 455.803 475.943C452.012 475.752 448.219 476.256 444.611 477.432C441.704 478.337 438.998 479.794 436.642 481.723L436.729 481.671ZM452.001 556.002C470.567 540.169 479.114 522.094 479.622 506.909C478.781 506.909 477.941 506.944 477.1 507.014C460.777 508.205 447.185 520.185 440.967 538.838C438.901 545.038 437.465 552.849 442.298 555.757C445.356 557.043 448.782 557.149 451.914 556.054L452.001 556.002ZM381.768 559.68C404.275 551.186 411.438 530.606 417.971 511.638C420.423 503.434 423.764 495.523 427.937 488.046C408.478 496.996 392.067 509.659 387.566 523.198C382.854 537.437 380.945 550.03 381.768 559.82L381.768 559.68ZM179.285 328.963C181.245 330.961 183.488 332.66 185.94 334.008C189.408 335.899 194.155 337.598 197.01 335.128C200.548 332.011 200.46 322.991 196.8 313.2C192.719 302.359 183.804 289.696 172.034 289.696C168.86 289.644 165.691 289.422 162.541 289.03C164.398 305.354 170.633 320.451 179.285 329.103L179.285 328.963ZM300.799 546.212C335.863 546.772 352.975 536.772 360.454 530.063C369.701 521.797 370.7 513.687 370.7 510.605C370.7 509.344 368.388 509.028 366.987 508.958C350.768 508.048 302.253 527.279 300.466 543.147C300.336 544.227 300.449 545.322 300.799 546.352L300.799 546.212ZM262.04 513.128C293.548 498.888 318.699 476.785 318.524 469.849C318.489 469.323 318.332 468.781 317.176 468.5C312.307 467.134 288.399 482.284 271.62 500.745C268.054 504.62 264.848 508.812 262.04 513.268L262.04 513.128ZM222.738 409.792C223.746 408.86 224.464 407.655 224.805 406.325C226.784 399.406 222.458 387.304 215.627 380.473C206.695 371.541 181.334 367.408 160.036 368.844C183.681 393.434 198.778 404.083 208.043 408.584C212.977 408.463 217.908 408.916 222.738 409.932L222.738 409.792ZM219.287 488.73C229.187 486.562 238.543 482.402 246.785 476.505C260.481 466.311 263.091 454.279 261.147 446.905C260.789 444.82 259.794 442.896 258.298 441.4C256.802 439.904 254.878 438.908 252.793 438.551C246.277 437.885 239.096 444.156 233.106 455.82C227.494 466.389 222.868 477.452 219.287 488.87L219.287 488.73ZM172.471 422.683C182.838 426.416 193.695 428.611 204.698 429.199C217.764 429.724 227.782 427.132 232.178 422.035C234.297 419.6 233.299 418.042 232.984 417.516C231.618 415.379 228.08 413.628 223.263 412.455C222.452 412.965 221.557 413.327 220.619 413.523C217.624 414.241 213.35 413.786 207.29 411.018C201.667 411.177 196.082 412 190.651 413.471C183.991 415.249 177.791 418.438 172.471 422.823L172.471 422.683ZM169.879 421.773C175.706 416.735 182.617 413.108 190.073 411.176C194.32 410.014 198.664 409.246 203.052 408.882C192.631 403.014 177.848 391.175 156.866 369.142C145.745 370.21 136.059 372.855 130.945 377.233C125.831 381.612 125.778 387.444 130.892 394.45C139.772 406.693 154.326 415.923 169.792 421.825L169.879 421.773Z" fill="#263238"/>
<path d="M297.298 181.105C297.428 181.205 297.537 181.33 297.619 181.472C297.701 181.614 297.754 181.771 297.775 181.934C297.796 182.097 297.785 182.262 297.742 182.42C297.699 182.578 297.626 182.727 297.526 182.857C297.426 182.987 297.301 183.096 297.159 183.178C297.017 183.259 296.86 183.312 296.697 183.333C296.535 183.355 296.37 183.343 296.211 183.301C296.053 183.258 295.904 183.185 295.775 183.085C295.372 182.857 266.736 166.971 236.611 164.414C230.881 174.605 224.044 184.133 216.224 192.823C212.833 196.758 208.393 199.649 203.423 201.159C198.452 202.67 193.155 202.737 188.148 201.353C182.771 199.724 179.181 195.888 178.603 191.492C177.797 184.662 183.91 176.973 195.785 169.827C207.659 162.681 221.723 160.737 235.367 161.77C240.009 152.82 243.091 143.292 241.743 135.078C241.249 132.07 240.055 129.22 238.256 126.759C236.458 124.298 234.107 122.294 231.392 120.909C223.142 116.162 207.414 123.623 190.513 140.245C162.454 167.813 140.806 209.883 153.154 232.494C159.075 242.795 167.683 251.294 178.059 257.084C187.85 246.838 199.812 240.69 210.304 239.972C220.795 239.254 228.063 243.93 230.988 252.705C233.318 259.728 231.023 265.14 224.525 267.96C214.174 272.461 195.259 269.624 178.375 260.342C170.059 269.668 164.435 281.08 162.104 293.356C158.338 313.2 165.116 328.21 174.784 337.878C193.016 336.95 209.165 338.176 213.753 342.099C215.75 343.815 215.82 346.057 213.964 348.264C208.884 354.254 197.903 354.657 186.641 349.28C181.903 346.995 177.553 343.981 173.75 340.348C149.107 341.766 120.857 347.003 113.973 354.938C103.797 366.69 96.5113 390.58 102.729 402.612C105.969 408.865 112.379 411.562 121.802 410.651C132.986 409.307 144.08 407.301 155.027 404.643C155.969 401.983 157.297 399.475 158.968 397.2C167.988 385.202 186.658 379.142 216.293 378.406C225.138 378.214 228.64 379.054 228.781 381.436C229.131 387.216 189.583 399.091 156.989 406.605C155.178 413.718 155.378 421.194 157.566 428.2C163.399 450.111 169.704 460.865 177.988 463.089C182.892 464.49 188.777 462.598 195.608 457.519C199.311 451.17 203.522 445.131 208.201 439.462C230.199 412.7 232.441 413.155 233.404 413.348C233.669 413.407 233.912 413.541 234.104 413.733C234.297 413.925 234.43 414.168 234.49 414.433C235.471 417.656 220.583 437.132 206.064 451.652C203.46 454.284 200.681 456.735 197.744 458.99C183.523 484.071 182.542 507.611 191.281 518.697C198.392 527.7 211.073 528.365 227.011 520.589C238.652 514.893 249.945 508.512 260.831 501.48C261.386 497.015 263.056 492.761 265.689 489.113C268.322 485.464 271.831 482.537 275.894 480.603C290.291 473.597 292.305 474.7 293.128 476.329C294.792 479.78 281.411 491.059 263.108 502.846C262.401 508.878 262.697 514.986 263.984 520.921C268.643 544.671 284.038 566.721 289.309 567.054C289.642 567.072 290.273 567.107 290.711 565.653C292.9 559.12 290.15 547.753 287.471 536.772C284.493 524.512 281.691 512.952 285.93 508.118C286.856 507.184 288.002 506.496 289.262 506.116C290.522 505.737 291.857 505.679 293.146 505.946C301.973 506.927 311.974 519.94 323.586 535.055C339.033 555.197 358.246 580.225 379.737 581.503C387.566 581.976 392.277 580.943 394.151 578.403C396.778 574.83 393.993 567.737 390.911 559.365C386.83 548.698 381.769 535.405 385.131 522.444C386.147 518.556 387.706 516.367 390.141 515.964C396.358 514.72 405.185 526.455 416.395 541.307C430.599 560.17 448.253 583.674 460.093 576.143C472.476 568.244 462.703 545.51 453.088 523.355C444.681 503.738 436.607 485.121 443.052 475.418C449.497 465.715 482.722 478.482 517.786 491.793C546.895 502.757 579.875 515.175 585.269 508.624C586.933 506.61 585.812 502.161 581.854 495.891C560.311 460.967 541.589 445.923 532.604 438.689C527.454 434.521 525.107 432.629 526.263 430.282C526.335 430.135 526.435 430.004 526.558 429.896C526.681 429.789 526.824 429.707 526.98 429.657C527.135 429.606 527.299 429.587 527.462 429.601C527.625 429.616 527.783 429.662 527.927 429.739C528.218 429.885 528.44 430.14 528.545 430.448C528.65 430.756 528.629 431.093 528.488 431.386C528.435 432.139 531.343 434.486 534.162 436.745C543.252 444.084 562.203 459.321 583.956 494.595C588.597 502.109 589.595 507.241 587.161 510.2C580.645 518.117 551.116 506.978 516.91 494.105C485.752 482.353 450.426 469.06 445.101 477.046C439.391 485.629 447.518 504.439 455.347 522.637C465.295 545.65 475.558 569.47 461.389 578.49C447.675 587.23 429.986 563.761 414.398 543.059C404.993 530.606 395.307 517.733 390.596 518.661C389.282 518.924 388.249 520.483 387.513 523.32C384.361 535.51 389.265 548.401 393.205 558.752C396.761 568.087 399.475 575.531 396.13 580.137C393.696 583.447 388.424 584.761 379.561 584.235C356.95 582.922 337.352 557.368 321.624 536.807C310.45 522.129 300.694 509.537 292.918 508.661C292.024 508.455 291.093 508.472 290.208 508.71C289.322 508.949 288.509 509.401 287.839 510.027C284.458 513.863 287.226 525.352 289.94 536.439C292.655 547.526 295.492 559.505 293.11 566.686C292.941 567.59 292.447 568.401 291.721 568.966C290.995 569.531 290.087 569.81 289.169 569.751C281.498 569.261 266.156 544.916 261.567 521.657C260.41 516.12 260.021 510.451 260.411 504.808C249.985 511.469 239.21 517.567 228.132 523.076C205.083 534.32 193.943 526.264 189.39 520.484C180.685 509.467 180.335 487.224 193.208 462.336C187.358 465.804 182.157 466.872 177.48 465.629C168.233 463.142 161.402 451.827 155.307 428.953C153.177 421.943 152.863 414.506 154.396 407.341C143.78 409.882 133.034 411.846 122.205 413.226C109.069 414.487 103.237 408.83 100.68 403.855C93.4287 389.599 102.641 364.518 112.257 353.431C119.298 345.305 146.866 339.84 171.666 338.193C162.261 327.982 155.956 312.745 159.739 292.919C162.098 280.295 167.822 268.544 176.308 258.905C165.756 252.89 157.015 244.149 151 233.597C136.813 207.501 164.574 162.191 188.849 138.336C206.819 120.646 223.283 113.22 232.67 118.614C235.704 120.171 238.33 122.417 240.338 125.173C242.345 127.929 243.678 131.117 244.23 134.482C245.666 142.924 242.618 152.697 237.977 161.752C267.751 164.484 295.337 179.809 297.036 180.773C297.15 180.859 297.241 180.974 297.298 181.105ZM183.367 195.906C184.923 197.367 186.801 198.44 188.849 199.041C193.4 200.219 198.19 200.104 202.68 198.709C207.169 197.313 211.181 194.693 214.262 191.142C221.716 182.872 228.274 173.837 233.826 164.187C220.988 163.469 207.992 165.29 196.94 171.928C182.123 180.826 180.547 187.797 181.055 191.072C181.235 192.904 182.053 194.615 183.367 195.906ZM180.214 258.292C196.222 266.979 214.016 269.782 223.492 265.666C228.816 263.354 230.533 259.255 228.746 253.406C226.172 245.682 219.709 241.776 210.636 242.301C200.618 243.072 189.461 248.764 180.214 258.292ZM177.358 340.172C180.51 342.931 184.014 345.257 187.779 347.091C198.025 351.977 207.816 351.819 212.124 346.705C213.386 345.234 212.86 344.568 212.212 343.99C208.271 340.575 193.962 339.437 177.358 340.172ZM158.127 404.03C189.023 396.814 223.894 386.008 226.399 381.787C225.873 381.471 223.859 380.823 216.626 381.051C188.182 381.752 169.547 387.742 161.227 398.828C159.988 400.431 158.947 402.178 158.127 404.03ZM201.913 452.475C202.754 451.634 203.664 450.724 204.488 449.9C214.442 440.149 223.321 429.357 230.97 417.709C223.581 425.072 216.649 432.88 210.215 441.091C207.233 444.717 204.439 448.493 201.843 452.405L201.913 452.475ZM263.844 499.764C279.449 489.448 289.748 480.585 290.886 477.765C289.905 477.765 286.788 478.361 277.085 482.985C273.728 484.555 270.779 486.88 268.47 489.778C266.161 492.677 264.554 496.071 263.774 499.694L263.844 499.764Z" fill="#263238"/>
<path d="M318.964 117.826C332.257 131.119 341.154 151.681 337.616 164.502C337.587 164.674 337.522 164.837 337.425 164.982C337.328 165.127 337.202 165.25 337.054 165.343C336.906 165.436 336.741 165.496 336.568 165.521C336.395 165.545 336.219 165.532 336.052 165.484C335.884 165.436 335.729 165.352 335.595 165.24C335.462 165.127 335.354 164.988 335.279 164.83C335.203 164.673 335.162 164.502 335.157 164.327C335.153 164.153 335.185 163.98 335.252 163.819C339.595 148.616 323.938 120.383 305.88 110.837C303.358 109.506 301.537 109.121 300.696 109.717C298.542 111.275 299.943 119.682 301.292 127.826C303.218 139.386 305.652 153.765 302.044 164.589C300.871 168.075 299.277 169.879 297.088 170.141C291.536 170.754 284.81 159.685 277.016 146.882C269.853 135.06 260.938 120.295 255.701 122.064C246.751 125.06 252.198 171.105 257.628 199.513C257.659 199.673 257.658 199.838 257.625 199.997C257.593 200.157 257.529 200.308 257.438 200.443C257.347 200.578 257.23 200.694 257.095 200.784C256.959 200.874 256.807 200.936 256.647 200.967C256.487 200.998 256.322 200.998 256.163 200.965C256.003 200.933 255.852 200.869 255.717 200.778C255.582 200.687 255.466 200.57 255.376 200.434C255.286 200.298 255.224 200.146 255.193 199.986C253.704 192.262 240.954 124.376 254.896 119.718C261.972 117.336 270.308 131.067 279.118 145.586C285.546 156.147 292.814 168.11 296.79 167.672C298.139 167.514 299.032 165.43 299.645 163.801C303.06 153.555 300.696 139.526 298.804 128.247C297.053 117.773 295.792 110.242 299.242 107.667C301.519 106.021 304.777 107.422 307.019 108.613C311.436 111.073 315.462 114.178 318.964 117.826Z" fill="#263238"/>
<path d="M367.269 151.102C367.406 151.196 367.523 151.315 367.614 151.453C367.705 151.592 367.768 151.747 367.798 151.909C367.829 152.072 367.828 152.239 367.794 152.401C367.761 152.563 367.695 152.717 367.602 152.854C367.509 152.991 367.39 153.108 367.251 153.199C367.113 153.289 366.958 153.352 366.795 153.383C366.633 153.414 366.466 153.412 366.303 153.379C366.141 153.345 365.988 153.28 365.851 153.187C365.448 153.029 326.846 136.741 290.976 142.17C275.301 144.535 259.047 160.088 247.4 183.715C237.049 204.575 233.406 226.573 238.555 235.856C238.713 236.145 238.752 236.484 238.664 236.801C238.576 237.119 238.367 237.389 238.082 237.555C237.794 237.712 237.455 237.75 237.14 237.658C236.825 237.566 236.559 237.352 236.401 237.064C230.779 226.958 234.387 204.575 245.158 182.769C257.121 158.407 274.11 142.363 290.609 139.876C327.144 134.376 366.411 150.91 366.796 151.085C366.953 151.051 367.116 151.057 367.269 151.102Z" fill="#263238"/>
<path d="M95.0572 552.466C98.56 555.969 102.203 560.172 106.179 564.708C112.658 572.383 119.533 579.714 126.776 586.671C136.409 595.674 140.805 605.955 139.824 617.234C138.598 631.876 127.879 647.324 111.345 658.323C108.383 660.467 105.014 661.984 101.446 662.782C97.8774 663.58 94.1836 663.642 90.5904 662.965C77.402 660.285 68.5923 647.972 67.3138 646.168C63.9236 643.773 60.7368 641.102 57.7859 638.182C56.3679 636.912 54.8828 635.72 53.3373 634.609C44.1947 627.603 25.1566 613.014 19.8148 590.368C17.538 580.7 20.0601 570.891 27.136 562.029C37.0843 549.489 55.457 540.013 69.924 540.013C79.9248 539.856 87.4034 544.812 95.0572 552.466ZM120.47 584.009C114.253 577.792 109.034 571.767 104.305 566.337C92.1673 552.413 83.4101 542.36 69.8364 542.378C58.1367 542.378 39.8516 549.769 29.0276 563.465C25.9492 567.019 23.7315 571.235 22.5468 575.786C21.3622 580.336 21.2424 585.098 22.1968 589.702C27.3284 611.508 45.8936 625.729 54.8085 632.542C56.4403 633.73 58.0072 635.005 59.5024 636.36C62.4103 639.242 65.5565 641.873 68.9076 644.224C69.0568 644.303 69.1788 644.425 69.2578 644.575C69.3804 644.697 78.1551 657.885 91.1158 660.513C94.3881 661.122 97.7502 661.057 100.997 660.322C104.243 659.587 107.305 658.198 109.996 656.239C125.987 645.573 136.233 630.913 137.337 617.024C138.212 606.585 134.062 597.005 125.042 588.51C123.518 586.952 121.959 585.463 120.488 583.992L120.47 584.009Z" fill="#263238"/>
<path d="M89.3467 605.463C89.4445 605.527 89.5281 605.61 89.5919 605.708L101.24 627.06C101.321 627.201 101.373 627.358 101.393 627.521C101.412 627.683 101.399 627.848 101.353 628.005C101.307 628.162 101.23 628.308 101.126 628.435C101.023 628.561 100.894 628.666 100.749 628.741C100.46 628.893 100.123 628.926 99.8097 628.835C99.4962 628.743 99.2303 628.534 99.0677 628.251L87.42 606.899C87.3397 606.755 87.2891 606.596 87.2712 606.432C87.2533 606.267 87.2685 606.101 87.3158 605.943C87.3632 605.784 87.4417 605.637 87.5468 605.51C87.6519 605.382 87.7815 605.277 87.9279 605.2C88.1622 605.09 88.4251 605.057 88.6795 605.104C88.934 605.151 89.1673 605.276 89.3467 605.463Z" fill="#263238"/>
<path d="M82.2349 605.464C82.3498 605.576 82.4415 605.709 82.5046 605.857C82.5678 606.004 82.6011 606.162 82.6027 606.323L82.9529 631.193C82.9672 631.364 82.9462 631.535 82.8912 631.696C82.8362 631.858 82.7485 632.006 82.6334 632.132C82.5184 632.258 82.3785 632.359 82.2226 632.429C82.0667 632.498 81.8982 632.535 81.7275 632.536C81.5569 632.537 81.3878 632.503 81.231 632.436C81.0741 632.369 80.9328 632.27 80.816 632.145C80.6992 632.021 80.6093 631.874 80.5521 631.713C80.4948 631.552 80.4714 631.381 80.4833 631.211L80.1331 606.34C80.1286 606.093 80.1983 605.849 80.3332 605.642C80.4682 605.435 80.6623 605.272 80.8904 605.176C81.1185 605.08 81.3702 605.054 81.613 605.103C81.8557 605.151 82.0785 605.271 82.2524 605.447L82.2349 605.464Z" fill="#263238"/>
<path d="M74.8095 587.67C75.0285 587.898 75.1522 588.2 75.1555 588.516C75.1588 588.832 75.0412 589.137 74.827 589.369C74.7199 589.49 74.5897 589.589 74.4439 589.659C74.2982 589.729 74.1399 589.77 73.9784 589.778C73.8168 589.786 73.6553 589.762 73.5032 589.707C73.3511 589.651 73.2117 589.566 73.0929 589.457L58.2047 575.864C57.9687 575.638 57.8295 575.329 57.8164 575.003C57.8034 574.676 57.9175 574.357 58.1347 574.113C58.245 573.993 58.3778 573.896 58.5256 573.828C58.6734 573.76 58.8332 573.721 58.9959 573.715C59.1586 573.708 59.321 573.734 59.4737 573.79C59.6265 573.846 59.7667 573.932 59.8862 574.043L74.7569 587.617L74.8095 587.67Z" fill="#263238"/>
<path d="M73.5851 594.044C73.7192 594.174 73.8208 594.334 73.8816 594.51C73.9425 594.687 73.9609 594.875 73.9354 595.06C73.9217 595.222 73.8757 595.38 73.7999 595.523C73.7242 595.667 73.6204 595.794 73.4946 595.897C73.3688 596 73.2236 596.077 73.0677 596.123C72.9117 596.168 72.7482 596.182 72.5867 596.164L45.7353 593.239C45.5733 593.225 45.4158 593.179 45.272 593.103C45.1282 593.027 45.001 592.924 44.8981 592.798C44.7952 592.672 44.7186 592.527 44.6729 592.371C44.6271 592.215 44.6132 592.051 44.6318 591.89C44.6678 591.562 44.8309 591.26 45.0862 591.051C45.3416 590.841 45.6689 590.74 45.998 590.769L72.8495 593.694C73.1301 593.714 73.3929 593.839 73.5851 594.044Z" fill="#263238"/>
<path d="M88.6993 569.226C88.8531 569.383 88.9644 569.576 89.0227 569.787C89.0809 569.999 89.0842 570.222 89.0321 570.435C89.0321 570.435 85.7217 583.168 92.3423 590.98C98.963 598.791 111.907 598.318 112.029 598.301C112.197 598.283 112.367 598.299 112.528 598.348C112.689 598.398 112.839 598.48 112.967 598.59C113.096 598.699 113.201 598.834 113.275 598.985C113.35 599.137 113.392 599.302 113.401 599.471C113.409 599.639 113.383 599.808 113.324 599.966C113.265 600.124 113.174 600.268 113.057 600.39C112.94 600.512 112.799 600.608 112.644 600.674C112.488 600.739 112.321 600.772 112.152 600.771C111.591 600.806 97.8595 601.366 90.4332 592.574C83.0069 583.781 86.4925 570.347 86.6326 569.787C86.7195 569.468 86.9276 569.196 87.2124 569.029C87.4972 568.862 87.836 568.814 88.1564 568.893C88.3603 568.961 88.5461 569.075 88.6993 569.226Z" fill="#263238"/>
<path d="M45.6666 572.782C45.8308 572.943 45.9473 573.146 46.003 573.368C46.0586 573.591 46.0513 573.825 45.9818 574.044C45.9337 574.199 45.8547 574.344 45.7496 574.468C45.6444 574.593 45.5153 574.695 45.3698 574.769C45.2243 574.842 45.0654 574.886 44.9028 574.897C44.7401 574.907 44.5769 574.885 44.4229 574.832L39.5537 573.22C38.2753 572.841 36.9252 572.768 35.6134 573.008C34.3015 573.249 33.0651 573.796 32.0045 574.604C31.8791 574.709 31.7343 574.788 31.5785 574.836C31.4226 574.885 31.2587 574.903 31.096 574.888C30.9334 574.873 30.7752 574.827 30.6305 574.751C30.4859 574.675 30.3576 574.572 30.2529 574.447C30.1483 574.321 30.0694 574.176 30.0206 574.021C29.9719 573.865 29.9544 573.701 29.969 573.538C29.9836 573.375 30.0302 573.217 30.106 573.073C30.1817 572.928 30.2852 572.8 30.4106 572.695C31.7932 571.613 33.4156 570.88 35.141 570.557C36.8663 570.234 38.6441 570.33 40.3243 570.838L45.1761 572.467C45.3652 572.526 45.5347 572.635 45.6666 572.782Z" fill="#263238"/>
<path d="M46.0331 559.489C46.131 559.552 46.2145 559.636 46.2783 559.734C46.3578 559.874 46.4086 560.028 46.4278 560.188C46.4471 560.348 46.4343 560.51 46.3903 560.665C46.3462 560.82 46.2719 560.964 46.1715 561.09C46.0711 561.216 45.9466 561.32 45.8054 561.398C45.1889 561.781 44.7202 562.362 44.4754 563.046C44.2305 563.73 44.2239 564.476 44.4566 565.164C44.7057 565.937 45.1951 566.61 45.8536 567.086C46.512 567.562 47.3051 567.815 48.1174 567.809C48.4473 567.809 48.7635 567.94 48.9968 568.173C49.23 568.406 49.361 568.722 49.361 569.052C49.361 569.382 49.23 569.698 48.9967 569.931C48.7635 570.165 48.4472 570.296 48.1174 570.296C46.7618 570.308 45.4388 569.879 44.3486 569.074C43.2583 568.268 42.4601 567.129 42.0745 565.829C41.6899 564.608 41.7299 563.292 42.1878 562.097C42.6458 560.901 43.4948 559.895 44.5968 559.243C44.8305 559.123 45.0969 559.082 45.3558 559.126C45.6148 559.171 45.8525 559.298 46.0331 559.489Z" fill="#263238"/>
<path d="M39.8679 556.617C40.0539 556.809 40.1745 557.054 40.2123 557.319C40.25 557.583 40.203 557.853 40.0781 558.088C39.5778 559.02 38.8951 559.841 38.0707 560.503C37.2463 561.165 36.2971 561.654 35.2796 561.941C34.9544 561.988 34.6242 561.903 34.3614 561.706C34.0987 561.509 33.925 561.216 33.8785 560.891C33.8321 560.565 33.9167 560.235 34.1137 559.972C34.3108 559.71 34.6042 559.536 34.9293 559.49C36.2162 559.035 37.2771 558.1 37.889 556.88C38.0546 556.595 38.3249 556.387 38.6422 556.298C38.9596 556.21 39.2989 556.249 39.5878 556.407L39.8679 556.617Z" fill="#263238"/>
<path d="M84.1635 418.445C84.3256 418.611 84.439 418.817 84.4915 419.043C84.544 419.268 84.5336 419.504 84.4613 419.724C83.4455 422.666 59.818 491.831 50.2726 501.376C47.0346 504.304 43.2385 506.546 39.1121 507.97C34.9858 509.394 30.6144 509.969 26.2602 509.661C22.1596 509.504 18.1409 508.466 14.4777 506.616C10.8146 504.766 7.59321 502.149 5.03278 498.942C-7.08715 483.599 2.07304 458.606 2.47589 457.573C2.5377 457.404 2.63297 457.249 2.75609 457.118L13.7903 446.083C13.937 445.937 14.1182 445.83 14.3171 445.772C14.516 445.714 14.7263 445.706 14.9287 445.751C15.1239 445.808 15.3016 445.913 15.4455 446.057C15.5893 446.201 15.6947 446.379 15.7519 446.574L18.8169 454.543L34.0371 430.6C34.1411 430.448 34.2759 430.32 34.4328 430.223C34.5897 430.127 34.7652 430.064 34.9479 430.04C35.1325 430.02 35.3193 430.041 35.4948 430.102C35.6704 430.162 35.8305 430.261 35.9637 430.39L43.9152 438.342L61.202 427.08C61.462 426.913 61.775 426.849 62.0796 426.901C62.3842 426.953 62.6584 427.116 62.8484 427.36L67.4371 433.28L82.2194 418.498C82.4166 418.3 82.6758 418.177 82.9533 418.148C83.2308 418.119 83.5098 418.187 83.7432 418.34L84.1635 418.445ZM9.14862 499.765C13.7907 504.314 19.9587 506.973 26.4529 507.226C30.4539 507.514 34.4717 506.989 38.2643 505.682C42.057 504.376 45.546 502.315 48.5212 499.625C56.2276 491.918 74.583 440.496 80.3454 424.015L68.4004 435.96C68.2757 436.087 68.1251 436.185 67.9589 436.249C67.7926 436.312 67.6147 436.339 67.4371 436.327C67.2637 436.314 67.0949 436.266 66.9412 436.184C66.7875 436.103 66.6522 435.991 66.5439 435.855L61.71 429.655L44.5632 440.846C44.3266 441.009 44.0403 441.082 43.755 441.053C43.4696 441.024 43.2038 440.895 43.0044 440.689L35.4207 433.105L19.7101 457.818C19.5883 458.013 19.4145 458.171 19.2081 458.273C19.0017 458.375 18.7709 458.418 18.5416 458.396C18.3124 458.374 18.0938 458.289 17.9104 458.15C17.727 458.01 17.586 457.823 17.5033 457.608L14.2456 449.131L4.73521 458.641C3.82444 461.233 -3.63681 483.897 7.0119 497.383C7.67656 498.219 8.39002 499.014 9.14862 499.765Z" fill="#263238"/>
<path d="M88.9274 404.329C89.0725 404.477 89.1805 404.657 89.2427 404.854C89.3123 405.092 89.3077 405.345 89.2294 405.58C89.1512 405.814 89.0031 406.02 88.8049 406.168L69.101 421.143C68.929 421.282 68.7214 421.371 68.5017 421.399C68.282 421.427 68.0588 421.393 67.8575 421.3L59.8358 417.657L47.8384 426.677C47.5757 426.869 47.2511 426.957 46.9276 426.923L29.6059 424.663L22.9328 435.785C22.8031 435.999 22.6115 436.169 22.3832 436.273C22.155 436.376 21.9008 436.407 21.6542 436.363L12.8269 434.892L-2.48083 450.2C-2.64641 450.367 -2.85706 450.483 -3.08718 450.532C-3.31731 450.582 -3.55692 450.564 -3.77686 450.48C-7.71621 448.843 -11.271 446.402 -14.2142 443.314C-17.1575 440.226 -19.4246 436.559 -20.8709 432.545C-22.9871 427.177 -23.9617 421.427 -23.7325 415.661C-23.5033 409.895 -22.0753 404.241 -19.5396 399.057C-8.80314 376.797 27.0314 386.639 47.4357 394.503C60.5446 399.379 74.2235 402.558 88.1393 403.961C88.4367 403.988 88.7153 404.118 88.9274 404.329ZM68.2428 418.673L84.8641 406.045C71.8187 404.488 59.0028 401.396 46.6826 396.833C27.0664 389.302 -7.29691 379.704 -17.1577 400.178C-19.5499 405.047 -20.8993 410.361 -21.1194 415.78C-21.3396 421.2 -20.4258 426.606 -18.4364 431.652C-17.1467 435.189 -15.1728 438.437 -12.6274 441.211C-10.082 443.985 -7.01508 446.23 -3.60174 447.818L11.5834 432.633C11.7253 432.495 11.8971 432.391 12.0854 432.331C12.2738 432.27 12.4736 432.253 12.6693 432.282L21.1989 433.806L27.8719 422.719C27.9919 422.513 28.1715 422.347 28.387 422.244C28.6026 422.141 28.8442 422.105 29.0804 422.141L46.7175 424.366L58.9251 415.205C59.1053 415.075 59.3162 414.994 59.5372 414.969C59.7582 414.945 59.9817 414.978 60.1861 415.065L68.2428 418.673Z" fill="#263238"/>
<path d="M97.6144 400.439C98.7016 401.614 99.686 402.879 100.557 404.222L101.118 405.028C101.346 405.319 101.493 405.664 101.546 406.03C101.598 406.396 101.553 406.769 101.415 407.112C100.732 408.846 97.6494 409.617 96.3707 409.88L96.1605 409.95L91.3787 409.932C91.2163 409.938 91.0546 409.909 90.9035 409.85C90.7524 409.79 90.6152 409.7 90.5003 409.585C90.3854 409.47 90.2952 409.333 90.2354 409.182C90.1756 409.03 90.1475 408.869 90.1526 408.706C90.1423 407.143 90.2301 405.581 90.4154 404.03C90.6515 403.021 91.1151 402.08 91.7709 401.279C92.4267 400.477 93.2572 399.836 94.1988 399.405C95.3549 398.635 96.3883 399.213 97.6144 400.439ZM98.9981 406.307L98.5252 405.623C97.5932 404.164 96.4874 402.823 95.2322 401.63C94.6563 401.877 94.1424 402.248 93.7274 402.718C93.3125 403.187 93.0069 403.743 92.8326 404.345C92.71 405.308 92.6398 406.534 92.5172 407.533L96.0204 407.533C97.0748 407.294 98.0816 406.88 98.9981 406.307Z" fill="#263238"/>
<path d="M95.1812 419.233C95.3227 419.322 95.4425 419.442 95.5315 419.583C95.9118 420.514 96.2335 421.467 96.4948 422.438C96.6051 423.14 96.5552 423.857 96.349 424.536C96.1427 425.216 95.7854 425.84 95.3037 426.362C94.0777 427.973 91.8007 426.362 89.839 425.171L89.4186 424.75C89.1534 424.592 88.9325 424.369 88.7763 424.103C88.6202 423.837 88.5338 423.535 88.5254 423.226C88.6925 422.55 89.0004 421.917 89.429 421.367C89.8575 420.818 90.3971 420.365 91.0126 420.039L91.1877 419.864L93.9551 418.743C94.2668 418.626 94.6112 418.632 94.9184 418.76C95.0357 418.899 95.1249 419.06 95.1812 419.233ZM93.5172 424.575C93.6974 424.378 93.8342 424.145 93.9187 423.892C94.0032 423.638 94.0335 423.37 94.0076 423.104C93.9026 422.683 93.7274 422.193 93.5698 421.755L92.0985 422.351C91.7442 422.598 91.4103 422.873 91.1001 423.174C91.8711 423.703 92.6856 424.166 93.5347 424.558L93.5172 424.575Z" fill="#263238"/>
<path d="M105.742 410.879C105.876 410.963 105.99 411.077 106.074 411.211C106.455 412.142 106.776 413.096 107.038 414.066C107.15 414.773 107.101 415.496 106.895 416.182C106.688 416.867 106.33 417.497 105.847 418.025C104.638 419.619 102.344 418.025 100.382 416.799L99.874 416.466C99.6114 416.311 99.3929 416.091 99.2396 415.827C99.0863 415.563 99.0032 415.265 98.9982 414.96C98.9807 413.611 100.54 412.367 101.485 411.772C101.522 411.705 101.576 411.651 101.643 411.614L104.428 410.476C104.727 410.358 105.061 410.365 105.356 410.493C105.517 410.584 105.651 410.717 105.742 410.879ZM103.99 416.133C104.393 415.555 104.603 415.1 104.48 414.662L104.078 413.313L102.606 413.909C102.246 414.148 101.911 414.424 101.608 414.732C102.368 415.255 103.164 415.723 103.99 416.133Z" fill="#263238"/>
<path d="M467.205 596.635C468.781 598.212 470.322 599.753 471.828 601.259L476.102 605.533C485.227 614.658 489.027 630.263 487.661 653.207C487.066 664.311 480.848 664.749 474.298 665.274C469.963 665.349 465.696 666.365 461.792 668.252C452.279 673.265 443.26 679.164 434.855 685.872C424.083 694.261 401.034 690.023 364.412 672.946C323.673 653.926 310.065 651.632 309.627 651.544C307.087 651.246 285.562 648.497 280.833 641.806C278.242 638.428 276.866 634.276 276.927 630.019C276.752 627.917 276.542 625.255 275.946 621.647C273.88 609.282 281.691 606.164 290.729 602.521C296.841 600.087 300.064 599.912 301.728 600.244L311.554 577.948C311.648 577.736 311.799 577.555 311.991 577.425C312.183 577.295 312.408 577.221 312.64 577.213C312.87 577.206 313.099 577.263 313.299 577.378C313.5 577.492 313.666 577.659 313.778 577.861L323.709 596.829L341.661 596.846C341.823 596.841 341.984 596.871 342.134 596.934C352.91 601.154 364.09 604.259 375.499 606.199C381.327 606.815 386.909 608.88 391.735 612.206C392.928 613.202 394.321 613.93 395.819 614.341C397.318 614.752 398.888 614.836 400.422 614.588C406.307 614.063 413.558 606.917 421.194 599.35C425.871 594.473 430.912 589.958 436.274 585.847C446.678 578.315 457.712 587.143 467.205 596.635ZM283.232 641.088C287.821 645.677 303.812 648.532 309.819 649.215C310.38 649.285 323.568 651.334 365.305 670.792C400.509 687.221 423.348 691.669 433.174 684.015C441.682 677.208 450.819 671.226 460.461 666.15C464.66 664.08 469.266 662.968 473.947 662.893C480.48 662.42 484.509 662.034 485.139 653.067C486.383 630.806 482.932 615.831 474.333 607.232L470.024 602.923C459.726 592.204 448.166 580.189 437.465 587.878C432.208 591.909 427.266 596.336 422.683 601.119C414.749 609.053 407.182 616.445 400.404 617.058C398.586 617.336 396.729 617.233 394.953 616.753C393.176 616.274 391.52 615.429 390.088 614.273C385.575 611.136 380.337 609.201 374.868 608.651C363.329 606.716 352.016 603.617 341.1 599.403L322.658 599.386C322.429 599.382 322.205 599.319 322.009 599.202C321.812 599.085 321.649 598.919 321.537 598.72L312.464 581.381L303.217 602.399C303.136 602.583 303.011 602.744 302.851 602.866C302.692 602.989 302.505 603.069 302.306 603.099C302.109 603.137 301.905 603.127 301.713 603.069C301.521 603.011 301.346 602.907 301.202 602.766C301.202 602.766 299.188 601.768 291.324 604.903C281.464 608.844 276.419 611.366 278.066 621.314C278.696 625.027 278.906 627.725 279.082 629.896C278.997 633.699 280.235 637.414 282.584 640.405C282.78 640.651 282.997 640.879 283.232 641.088Z" fill="#263238"/>
<path d="M446.99 636.498C447.105 636.581 447.206 636.681 447.288 636.796C447.427 637.093 447.443 637.434 447.331 637.742C447.22 638.051 446.99 638.303 446.693 638.442C445.799 638.88 424.852 648.829 408.984 651.631C397.057 653.715 385.322 648.776 376.757 645.151C374.303 643.996 371.768 643.019 369.174 642.226C361.923 640.404 345.336 640.387 345.161 640.387L344.899 640.37C340.327 639.301 327.384 636.867 323.916 637.567C323.755 637.6 323.59 637.6 323.428 637.568C323.267 637.536 323.114 637.473 322.978 637.382C322.841 637.291 322.724 637.174 322.632 637.037C322.541 636.901 322.477 636.748 322.445 636.587C322.413 636.426 322.413 636.26 322.445 636.099C322.476 635.938 322.54 635.784 322.631 635.648C322.722 635.511 322.839 635.394 322.975 635.303C323.112 635.211 323.265 635.148 323.426 635.115C328.102 634.187 343.025 637.41 345.231 637.83C346.965 637.847 362.431 637.935 369.699 639.739C372.398 640.555 375.037 641.556 377.598 642.734C385.882 646.254 397.249 651.106 408.441 649.056C423.994 646.324 445.309 636.183 445.519 636.078C445.775 635.964 446.062 635.943 446.331 636.02C446.601 636.097 446.834 636.266 446.99 636.498Z" fill="#263238"/>
<path d="M443.261 617.81L443.541 618.091C443.68 618.389 443.698 618.729 443.59 619.04C443.482 619.351 443.257 619.607 442.963 619.754C442.07 620.192 421.262 630.106 413.749 631.98C406.235 633.854 386.286 627.916 384.254 627.356L364.778 626.41L326.422 623.608C326.26 623.599 326.102 623.557 325.956 623.485C325.811 623.414 325.681 623.314 325.575 623.192C325.469 623.069 325.389 622.927 325.339 622.773C325.288 622.619 325.269 622.456 325.283 622.295C325.311 621.967 325.465 621.662 325.714 621.446C325.962 621.23 326.285 621.12 326.614 621.139L364.936 623.941L384.587 624.816L384.885 624.869C385.025 625.009 406.13 631.297 413.188 629.528C420.247 627.759 441.719 617.565 441.929 617.46C442.162 617.387 442.41 617.38 442.646 617.442C442.881 617.504 443.095 617.632 443.261 617.81Z" fill="#263238"/>
<path d="M391.627 716.978C393.882 719.292 395.614 722.063 396.706 725.104C402.065 739.256 394.306 749.292 387.476 758.154C384.576 761.612 382.073 765.383 380.014 769.399C377.813 775.184 376.519 781.275 376.179 787.456C375.233 796.003 374.339 804.077 368.84 807.3C361.589 811.574 351.273 806.897 335.65 799.822C331.359 797.877 326.472 795.653 321.113 793.341C305.403 786.703 299.658 792.098 293.563 797.843C290.797 800.763 287.513 803.144 283.877 804.866C275.418 808.351 263.473 798.298 249.584 786.616C241.884 779.85 233.758 773.585 225.257 767.858C206.113 755.721 201.822 755.808 201.227 755.914C201.018 756.089 200.762 756.198 200.491 756.229C182.101 757.805 154.533 743.338 145.846 727.54C137.159 711.742 146.74 696.207 155.322 682.791C158.084 678.696 160.576 674.425 162.783 670.005C165.931 663.308 168.662 656.424 170.962 649.391C173.677 641.211 175.481 635.8 179.545 634.118C183.608 632.437 188.372 633.593 192.943 634.731C195.587 635.497 198.306 635.972 201.052 636.15C203.662 636.202 207.568 632.156 211.964 624.853C212.388 624.133 213.032 623.567 213.801 623.239C214.57 622.912 215.424 622.839 216.237 623.031C217.116 623.198 217.916 623.645 218.519 624.305C219.122 624.965 219.495 625.802 219.583 626.692L222.49 651.807C225.432 653.559 239.321 662.088 242.702 667.08C245.626 671.406 250.093 675.417 262.826 675.644C264.805 675.697 266.784 675.679 268.816 675.679C282.951 675.182 297.059 677.266 310.447 681.827C319.676 684.501 328.268 689.017 335.703 695.103C340.198 698.728 345.079 701.847 350.258 704.403C356.248 706.933 362.604 708.488 369.086 709.009C377.773 710.235 385.987 711.338 391.627 716.978ZM200.123 754.004C200.291 753.885 200.482 753.802 200.684 753.759C204.73 752.621 217.165 759.732 226.868 765.932C235.451 771.731 243.664 778.06 251.458 784.882C264.646 796.004 276.066 805.602 283.194 802.607C286.562 800.995 289.602 798.774 292.162 796.056C298.554 790.049 305.175 783.814 322.287 791.152C327.593 793.411 332.497 795.618 336.841 797.615C351.728 804.375 361.589 808.841 367.754 805.233C372.168 802.641 373.026 795.162 373.902 787.246C374.257 780.812 375.611 774.472 377.913 768.453C380.06 764.255 382.675 760.312 385.707 756.701C392.45 747.961 399.438 738.906 394.569 726.05C390.138 714.403 380.33 713.072 368.981 711.531C362.22 710.967 355.595 709.311 349.364 706.627C344.036 704.007 339.014 700.806 334.39 697.082C327.159 691.163 318.807 686.766 309.834 684.156C296.699 679.682 282.858 677.641 268.991 678.131C266.941 678.149 264.945 678.149 262.948 678.114C251.879 677.904 245.259 675.032 240.81 668.446C237.412 663.437 221.019 653.699 220.844 653.594C220.679 653.5 220.539 653.369 220.435 653.211C220.332 653.052 220.268 652.871 220.248 652.683L217.201 626.867C217.15 626.504 216.983 626.167 216.723 625.908C216.464 625.649 216.128 625.481 215.764 625.431C215.456 625.351 215.129 625.375 214.835 625.498C214.541 625.622 214.295 625.838 214.136 626.114C209.214 634.538 204.73 638.672 201.052 638.602C198.142 638.395 195.264 637.867 192.47 637.025C188.092 635.94 184.028 634.959 180.63 636.29C177.233 637.621 175.972 642.525 173.414 650.091C171.145 657.297 168.437 664.357 165.305 671.231C163.051 675.753 160.506 680.123 157.686 684.315C149.489 697.135 140.172 711.707 148.298 726.525C156.425 741.342 182.837 755.248 200.123 754.004Z" fill="#263238"/>
<path d="M340.03 763.355C340.153 763.462 340.254 763.592 340.327 763.738C340.399 763.884 340.443 764.043 340.454 764.206C340.477 764.534 340.369 764.858 340.153 765.107C339.937 765.355 339.631 765.508 339.302 765.531C338.974 765.554 338.65 765.445 338.401 765.229C338.314 765.142 326.894 756.945 315.37 758.837C311.247 759.64 307.31 761.202 303.758 763.443C299.291 765.983 295.123 768.33 288.818 766.018C283.248 763.951 277.714 759.117 272.389 754.423C268.767 750.835 264.657 747.775 260.182 745.333C252.44 742.006 238.762 735.543 237.028 734.72L215.853 732.32C215.687 732.294 215.528 732.241 215.38 732.163L207.849 727.784C207.567 727.62 207.361 727.352 207.275 727.037C207.19 726.722 207.232 726.387 207.393 726.103C207.563 725.823 207.833 725.618 208.149 725.53C208.465 725.442 208.802 725.478 209.092 725.63L216.396 729.886L237.5 732.285C237.635 732.293 237.766 732.329 237.886 732.39C237.991 732.495 252.966 739.519 261.162 743.057C265.908 745.565 270.267 748.744 274.106 752.497C279.255 757.05 284.597 761.762 289.763 763.636C294.93 765.51 298.188 763.723 302.654 761.254C306.459 758.869 310.677 757.218 315.089 756.385C327.665 754.318 339.487 762.847 339.995 763.215L340.03 763.355Z" fill="#263238"/>
<path d="M349.19 745.683C349.352 745.845 349.467 746.048 349.522 746.27C349.578 746.492 349.572 746.725 349.505 746.944C349.395 747.255 349.171 747.511 348.877 747.661C348.584 747.811 348.245 747.843 347.929 747.75C347.754 747.575 322.516 739.571 313.285 742.356C303.197 745.439 287.014 743.827 277.591 736.016C268.168 728.204 247.606 717.241 240.986 717.731C233.595 718.292 224.014 717.188 219.355 712.529C219.129 712.294 219.003 711.98 219.003 711.654C219.003 711.327 219.129 711.013 219.355 710.778C219.588 710.546 219.903 710.415 220.231 710.415C220.56 710.415 220.875 710.546 221.107 710.778C225.205 714.876 234.278 715.752 240.793 715.261C248.587 714.683 269.92 726.418 279.185 734.107C288.047 741.463 303.144 742.899 312.637 740.062C322.621 737.084 347.701 745.105 348.752 745.456C348.912 745.501 349.061 745.578 349.19 745.683Z" fill="#263238"/>
<path d="M357.563 728.8C357.732 728.96 357.851 729.167 357.904 729.394C357.957 729.622 357.942 729.86 357.86 730.078C357.808 730.233 357.725 730.375 357.617 730.497C357.51 730.62 357.379 730.719 357.232 730.791C357.086 730.863 356.927 730.905 356.764 730.915C356.601 730.925 356.438 730.902 356.284 730.849C347.632 727.837 323.917 720.376 318.26 722.075L316.894 722.495C308.487 725.087 290.955 730.499 276.961 719.588L271.269 715.087C259.534 705.804 248.5 697.082 238.062 694.63C230.112 692.724 222.309 690.249 214.715 687.221C214.418 687.09 214.184 686.849 214.06 686.549C213.936 686.249 213.932 685.913 214.049 685.61C214.11 685.457 214.201 685.318 214.316 685.201C214.432 685.084 214.569 684.991 214.721 684.927C214.872 684.864 215.035 684.831 215.199 684.831C215.364 684.831 215.527 684.863 215.678 684.927C223.157 687.925 230.842 690.377 238.675 692.265C249.656 694.84 260.918 703.755 272.845 713.195L278.52 717.679C291.516 727.802 308.189 722.653 316.229 720.183L317.595 719.763C325.056 717.521 353.885 727.434 357.16 728.572C357.306 728.624 357.443 728.701 357.563 728.8Z" fill="#263238"/>
<path d="M126.32 691.548C126.47 691.724 126.566 691.94 126.597 692.17C126.628 692.4 126.593 692.633 126.495 692.844L111.678 726.717C111.583 726.914 111.441 727.085 111.263 727.214C111.086 727.342 110.879 727.424 110.662 727.452C110.441 727.475 110.217 727.436 110.017 727.34C109.816 727.245 109.645 727.096 109.524 726.909L101.922 715.805L82.4111 731.814C82.2489 731.938 82.0595 732.022 81.8585 732.058C81.6575 732.095 81.4507 732.083 81.2552 732.024C81.06 731.967 80.8823 731.861 80.7384 731.717C80.5946 731.574 80.4892 731.396 80.432 731.201L77.0868 719.448L53.1095 729.204C52.9623 729.267 52.8042 729.299 52.6444 729.301C52.4845 729.302 52.326 729.272 52.1779 729.211C52.0298 729.151 51.895 729.062 51.7814 728.95C51.6677 728.837 51.5774 728.704 51.5156 728.556L38.4325 698.659C38.3575 698.497 38.3201 698.319 38.3231 698.14C38.3261 697.961 38.3695 697.785 38.45 697.626C38.5107 697.461 38.6064 697.312 38.7303 697.188C38.8543 697.064 39.0036 696.968 39.1681 696.908L70.9394 687.555C71.2279 687.474 71.5359 687.5 71.8065 687.629C72.077 687.758 72.2916 687.98 72.4106 688.255L76.5615 697.345L97.7716 686.644C98.0252 686.516 98.315 686.48 98.5924 686.54C98.8698 686.601 99.118 686.755 99.2953 686.976L106.284 695.716L125.287 691.285C125.468 691.245 125.655 691.248 125.835 691.294C126.014 691.34 126.18 691.426 126.32 691.548ZM110.347 723.634L123.395 694.297L106.196 698.396C105.968 698.447 105.731 698.434 105.511 698.356C105.291 698.279 105.097 698.141 104.952 697.958L98.1043 689.394L76.5615 700.148C76.415 700.226 76.2542 700.274 76.0887 700.289C75.9232 700.304 75.7564 700.286 75.5982 700.235C75.4429 700.175 75.3018 700.084 75.1841 699.966C75.0665 699.848 74.9748 699.707 74.9151 699.552L70.6767 690.234L41.2874 698.887L53.3196 726.402L77.4371 716.576C77.5989 716.508 77.7735 716.476 77.9489 716.482C78.1242 716.488 78.2962 716.532 78.453 716.611C78.6109 716.675 78.7544 716.769 78.8748 716.89C78.9952 717.01 79.09 717.154 79.1535 717.312L82.236 728.626L101.414 712.95C101.691 712.744 102.035 712.65 102.378 712.688C102.547 712.711 102.709 712.77 102.854 712.861C102.999 712.951 103.123 713.071 103.218 713.213L110.347 723.634Z" fill="#263238"/>
<path d="M110.104 278.452L122.277 290.624C122.501 290.847 122.631 291.147 122.64 291.463C122.65 291.779 122.539 292.087 122.329 292.323C120.858 293.794 108.458 307.421 101.119 305.512C100.033 305.231 98.8247 304.829 97.4761 304.391C90.4528 302.096 80.8199 298.944 75.1452 307.946C71.2744 314.094 70.1185 319.979 72.0626 323.184C72.791 324.212 73.7971 325.012 74.9633 325.489C76.1294 325.967 77.4075 326.103 78.648 325.881C81.8109 325.478 84.8702 324.486 87.6679 322.956C92.2217 320.819 96.5303 318.788 101.522 322.798C102.497 323.417 103.288 324.286 103.812 325.315C104.336 326.345 104.573 327.496 104.499 328.648C103.956 332.204 99.6127 334.27 98.6319 334.726C96.7404 336.057 76.8439 349.508 63.3052 338.527C54.6882 331.521 52.2712 317.86 53.76 307.438C55.0036 298.699 58.7517 292.393 64.0236 290.169C75.6532 285.23 91.3462 286.876 94.2536 287.227L108.721 278.329C108.936 278.205 109.184 278.151 109.432 278.173C109.679 278.195 109.914 278.292 110.104 278.452ZM119.685 291.535L109.036 280.886L95.0242 289.503C94.7772 289.652 94.4854 289.708 94.201 289.661C94.1134 289.573 76.7917 287.314 64.8643 292.376C60.4506 294.232 57.2104 300.03 56.0719 307.719C54.7408 317.141 56.8775 330.172 64.7239 336.547C77.2467 346.723 96.9855 332.729 97.1782 332.606L97.3709 332.414C98.5268 331.923 101.592 330.224 101.89 328.21C101.875 327.484 101.676 326.774 101.311 326.146C100.947 325.518 100.429 324.993 99.8054 324.62C96.0749 321.555 92.9573 323.026 88.6137 325.058C85.5532 326.714 82.2078 327.777 78.753 328.193C77.0681 328.49 75.333 328.291 73.7594 327.619C72.1858 326.947 70.8416 325.832 69.8907 324.41C67.3862 320.294 68.5597 313.621 73.0435 306.545C79.734 295.896 90.8732 299.539 98.2293 301.956C99.5078 302.359 100.681 302.762 101.715 303.025C106.391 304.338 115.656 295.879 119.685 291.535Z" fill="#263238"/>
<path d="M141.734 262.057L143.486 263.808C146.709 267.031 139.194 279.87 133.992 285.072C133.355 285.756 132.573 286.289 131.703 286.631C130.833 286.974 129.898 287.117 128.965 287.051C123.431 286.701 117.913 279.677 117.738 279.327L117.563 279.152C117.125 278.294 113.447 270.622 117.125 266.944C117.913 266.155 118.597 265.472 119.157 264.737C121.466 261.927 124.335 259.63 127.582 257.993C133.467 254.595 138.792 259.114 141.734 262.057ZM121.522 279.993C123.483 282.262 126.114 283.85 129.036 284.529C129.612 284.565 130.19 284.472 130.726 284.257C131.262 284.042 131.744 283.71 132.136 283.285C138.161 277.26 142.628 266.908 141.629 265.525L140.964 264.859C137.198 260.918 133.117 257.643 128.668 260.13C125.667 261.641 123.013 263.758 120.874 266.348C120.19 267.031 119.577 267.854 118.737 268.695C116.722 270.709 118.667 276.052 119.595 277.926C120.2 278.648 120.844 279.338 121.522 279.993Z" fill="#263238"/>
<path d="M561.641 580.871L573.814 593.044C574.037 593.267 574.168 593.567 574.177 593.883C574.187 594.199 574.076 594.506 573.866 594.743C572.395 596.214 559.977 609.823 552.656 607.931C551.57 607.651 550.344 607.266 549.013 606.81C541.99 604.516 532.357 601.363 526.682 610.366C522.811 616.513 521.655 622.398 523.599 625.603C524.326 626.616 525.328 627.399 526.485 627.862C527.642 628.324 528.908 628.446 530.132 628.213C533.293 627.799 536.35 626.807 539.152 625.288C543.706 623.151 548.015 621.12 553.006 625.13C553.981 625.749 554.772 626.618 555.296 627.648C555.82 628.677 556.057 629.828 555.984 630.98C555.441 634.536 551.097 636.602 550.116 637.058C548.225 638.389 528.328 651.84 514.79 640.859C506.155 633.835 503.843 620.279 505.244 609.77C506.488 601.031 510.219 594.743 515.508 592.501C527.12 587.58 542.831 589.208 545.72 589.541L560.205 580.661C560.435 580.537 560.699 580.49 560.958 580.528C561.217 580.566 561.456 580.686 561.641 580.871ZM571.221 593.955L560.573 583.306L546.561 591.923C546.311 592.062 546.022 592.118 545.738 592.081C545.65 591.993 528.329 589.734 516.366 594.796C511.988 596.652 508.73 602.432 507.609 610.138C506.26 619.544 508.397 632.574 516.243 638.95C528.801 649.16 548.505 635.166 548.715 635.026C548.76 634.945 548.827 634.878 548.908 634.833C550.064 634.343 553.129 632.644 553.409 630.612C553.584 629.527 552.884 628.301 551.342 627.039C547.612 623.974 544.477 625.428 540.151 627.477C537.081 629.129 533.731 630.197 530.272 630.63C528.588 630.915 526.857 630.709 525.286 630.039C523.715 629.368 522.37 628.26 521.41 626.847C518.923 622.714 520.097 616.041 524.545 608.965C531.253 598.333 542.393 601.976 549.749 604.393C551.027 604.796 552.201 605.199 553.234 605.462C557.91 606.74 567.141 598.246 571.221 593.955Z" fill="#263238"/>
<path d="M593.222 564.424L594.973 566.175C598.196 569.398 590.682 582.237 585.48 587.439C584.842 588.123 584.06 588.656 583.19 588.998C582.321 589.341 581.385 589.484 580.453 589.418C574.918 589.068 569.488 581.957 569.225 581.694L569.05 581.519C568.612 580.661 564.934 572.989 568.612 569.311C569.401 568.523 570.084 567.84 570.627 567.086C572.954 564.294 575.827 562.005 579.069 560.36C584.972 557.05 590.332 561.534 593.222 564.424ZM573.026 582.377C574.98 584.656 577.614 586.246 580.54 586.914C581.117 586.952 581.695 586.859 582.232 586.644C582.768 586.429 583.25 586.096 583.641 585.67C589.666 579.645 594.132 569.293 593.134 567.909L592.451 567.226C588.703 563.303 584.622 560.028 580.155 562.532C577.152 564.039 574.497 566.157 572.361 568.75C571.678 569.433 571.065 570.257 570.224 571.097C568.21 573.112 570.154 578.454 571.082 580.328C571.694 581.067 572.355 581.763 573.061 582.412L573.026 582.377Z" fill="#263238"/>
<path d="M197.131 574.357L204.855 582.081C205.079 582.304 205.209 582.604 205.219 582.92C205.229 583.236 205.117 583.544 204.908 583.78C203.349 585.339 195.8 593.518 190.984 592.275C190.318 592.1 189.53 591.837 188.654 591.557C183.067 589.718 178.18 588.614 175.028 593.624C172.663 597.389 171.857 600.962 173.066 602.801C173.49 603.368 174.064 603.804 174.724 604.061C175.383 604.318 176.101 604.385 176.797 604.255C178.748 603.989 180.635 603.372 182.366 602.434C185.256 601.085 188.234 599.684 191.597 602.416C192.27 602.864 192.813 603.483 193.169 604.209C193.526 604.935 193.685 605.742 193.628 606.549C193.337 607.503 192.83 608.377 192.147 609.103C191.463 609.829 190.622 610.387 189.687 610.735C188.269 611.734 175.553 620.246 166.743 613.083C161.138 608.529 159.58 599.684 160.578 592.906C161.401 587.213 163.871 583.062 167.374 581.591C174.73 578.438 184.398 579.419 186.552 579.752L195.608 574.2C195.842 574.051 196.12 573.986 196.397 574.015C196.673 574.043 196.932 574.164 197.131 574.357ZM202.246 582.975L196.063 576.792L187.411 582.151C187.162 582.313 186.862 582.375 186.57 582.327C186.57 582.327 175.658 580.873 168.197 584.026C165.552 585.129 163.573 588.65 162.89 593.396C162.084 599.246 163.398 607.32 168.232 611.244C175.956 617.531 188.146 608.844 188.251 608.739C188.305 608.665 188.37 608.6 188.444 608.546C189.214 608.196 190.878 607.197 191.019 606.217C191.159 605.236 190.441 604.833 189.863 604.36C187.813 602.661 186.184 603.309 183.224 604.728C181.226 605.799 179.047 606.494 176.797 606.777C175.639 606.976 174.449 606.837 173.368 606.377C172.287 605.918 171.361 605.157 170.701 604.185C169.02 601.383 169.738 597.092 172.698 592.38C177.147 585.339 184.696 587.809 189.197 589.297L191.386 589.981C193.909 590.471 199.005 586.355 202.246 582.975Z" fill="#263238"/>
<path d="M217.185 563.938L218.271 565.024C220.758 567.511 215.311 576.075 212.229 579.157C211.777 579.629 211.229 579.997 210.621 580.236C210.013 580.475 209.361 580.579 208.709 580.541C205.013 580.348 201.598 575.987 201.23 575.479L201.073 575.322C200.775 574.744 198.305 569.612 200.862 567.055C201.353 566.565 201.773 566.145 202.176 565.742C203.672 563.917 205.533 562.426 207.64 561.363C211.669 559.016 215.241 561.994 217.185 563.938ZM204.418 575.374C205.568 576.685 207.099 577.603 208.796 578.001C209.094 578.024 209.393 577.977 209.669 577.865C209.946 577.752 210.192 577.577 210.39 577.353C213.893 573.851 216.695 567.756 216.327 566.582L216.012 566.267C213.718 563.973 211.318 561.924 208.761 563.36C206.909 564.293 205.269 565.599 203.945 567.195C203.507 567.633 203.052 568.089 202.509 568.632C201.598 569.542 202.351 572.292 203.122 573.938C203.525 574.442 203.957 574.922 204.418 575.374Z" fill="#263238"/>
<path d="M488.816 561.22C505.91 578.315 514.282 611.207 515.595 630.735C516.804 649.213 501.881 660.457 484.577 673.488C474.001 680.911 464.243 689.436 455.468 698.919C451.544 703.438 444.854 706.03 435.694 706.678C389.368 709.779 292.741 663.979 266.785 641.105C242.265 619.458 233.823 596.409 218.515 554.619C213.804 541.816 208.567 527.402 201.964 510.71C186.604 471.776 171.857 460.251 165.552 459.551C164.769 459.412 163.962 459.507 163.233 459.825C162.504 460.143 161.885 460.669 161.454 461.337C159.089 464.893 159.282 474.543 167.776 490.044C180.141 512.707 189.827 539.697 181.893 545.389C175.798 549.803 162.662 540.625 141.487 517.664C115.531 489.536 115.321 463.895 115.146 439.094C114.918 412.7 114.743 387.759 80.9228 363.607C53.8806 344.306 22.4421 341.522 -3.0591 356.304C-30.4167 372.067 -44.5686 404.014 -40.9608 441.775C-40.9422 441.936 -40.9562 442.1 -41.0019 442.256C-41.0477 442.412 -41.1242 442.557 -41.2272 442.683C-41.33 442.809 -41.4572 442.912 -41.601 442.988C-41.7448 443.064 -41.9023 443.11 -42.0642 443.124C-42.3891 443.154 -42.7129 443.056 -42.9654 442.849C-43.2179 442.643 -43.3787 442.345 -43.4129 442.02C-47.1432 403.261 -32.5184 370.421 -4.30255 354.15C22.1094 338.912 54.4936 341.697 82.359 361.611C117.125 386.393 117.388 412.017 117.615 439.077C117.808 463.404 118.035 488.538 143.308 515.983C170.386 545.337 178.302 544.916 180.439 543.375C185.833 539.522 179.178 516.123 165.604 491.235C158.108 477.503 155.744 465.541 159.457 460.006C160.14 458.969 161.103 458.147 162.235 457.636C163.367 457.124 164.62 456.944 165.85 457.116C174.344 458.045 189.512 472.371 204.259 509.782C210.862 526.508 216.151 540.975 220.827 553.743C235.995 595.183 244.349 618.004 268.431 639.249C293.477 661.352 390.647 707.204 435.519 704.191C444.031 703.631 450.143 701.301 453.611 697.308C462.561 686.957 473.525 678.69 483.001 671.422C499.727 658.829 514.176 647.952 513.056 630.858C511.812 612.1 501.672 569.172 478.377 556.281C468.429 550.782 457.15 551.378 444.785 558.033C410.789 576.336 369.35 577.177 341.957 571.818C341.797 571.787 341.645 571.724 341.509 571.634C341.374 571.545 341.257 571.429 341.166 571.294C341.075 571.159 341.011 571.007 340.979 570.848C340.946 570.688 340.945 570.524 340.976 570.364C341.007 570.204 341.07 570.052 341.159 569.916C341.249 569.78 341.365 569.664 341.5 569.572C341.635 569.481 341.787 569.418 341.946 569.385C342.106 569.353 342.27 569.352 342.43 569.383C369.437 574.637 410.194 573.849 443.576 555.809C456.712 548.733 468.78 548.12 479.533 554.075C482.948 556.009 486.073 558.414 488.816 561.22Z" fill="#263238"/>
<path d="M325.563 565.406L352.047 562.709L343.586 570.713L346.354 582.028L325.563 565.406Z" fill="#263238"/>
<path d="M131.031 548.437C135.823 553.323 139.781 558.962 142.748 565.129C154.308 588.283 154.956 621.963 144.499 650.949C128.036 696.207 116.353 738.645 153.309 759.732C164.476 765.661 176.013 770.868 187.847 775.319C188.154 775.44 188.4 775.678 188.531 775.98C188.662 776.282 188.668 776.624 188.548 776.931C188.427 777.237 188.189 777.483 187.887 777.615C187.585 777.746 187.243 777.752 186.936 777.631C174.976 773.108 163.317 767.825 152.03 761.816C113.376 739.73 125.303 696.347 142.135 650.021C152.381 621.735 151.838 588.756 140.594 566.162C137.305 559.126 132.567 552.863 126.691 547.783C120.814 542.704 113.932 538.922 106.494 536.685C93.4279 532.692 78.4705 533.463 62.6024 534.304C24.7887 536.283 -18.0867 538.525 -38.2279 468.502C-39.1212 465.472 -39.9093 462.407 -40.5923 459.377C-40.6615 459.057 -40.6008 458.722 -40.4235 458.446C-40.2462 458.17 -39.9668 457.976 -39.6465 457.906C-39.4877 457.866 -39.3223 457.858 -39.1603 457.883C-38.9982 457.908 -38.843 457.965 -38.7038 458.052C-38.5647 458.139 -38.4446 458.253 -38.3507 458.387C-38.2569 458.522 -38.1913 458.674 -38.1579 458.834C-37.5624 461.742 -36.7042 464.842 -35.8635 467.819C-16.2127 535.915 23.8079 533.831 62.5149 531.799C78.5756 530.941 93.7607 530.153 107.247 534.286C116.229 536.95 124.405 541.814 131.031 548.437Z" fill="#263238"/>
<path d="M507.889 562.463C534.809 589.383 558.296 632.976 550.081 654.642C545.58 666.149 532.462 670.16 519.658 673.96C501.006 679.478 483.368 684.715 490.286 711.844C495.576 732.546 509.43 751.374 521.69 768.013C530.307 779.748 538.468 790.817 542.076 800.695C542.155 800.851 542.199 801.022 542.207 801.197C542.215 801.372 542.185 801.546 542.121 801.708C542.056 801.871 541.958 802.018 541.832 802.14C541.707 802.261 541.557 802.355 541.393 802.415C541.229 802.475 541.054 802.499 540.879 802.486C540.705 802.473 540.535 802.424 540.381 802.341C540.227 802.258 540.093 802.143 539.987 802.004C539.88 801.866 539.805 801.706 539.764 801.536C536.262 792.008 528.205 781.079 519.693 769.484C507.345 752.688 493.316 733.65 487.922 712.492C480.426 683.033 500.025 677.236 518.993 671.614C531.761 667.813 543.846 664.275 547.804 653.801C557.578 628.02 517.96 566.789 485.664 547.804C457.378 531.148 424.258 531.166 378.3 547.875C337.631 562.692 290.079 565.022 276.313 557.14C262.547 549.259 179.214 414.503 168.337 391.156C161.927 377.25 161.489 366.794 161.052 354.621C160.858 342.934 159.509 331.294 157.023 319.873C154.782 309.714 151.384 304.145 147.215 303.724C140.7 303.059 131.943 314.758 126.671 326.651C123.115 334.655 126.916 343.92 131.575 355.515C136.233 367.109 142.188 381.646 142.661 399.949L142.976 415.291C143.379 433.209 143.729 455.732 146.286 457.133C146.286 457.133 147.32 456.801 149.562 451.897C150.928 448.884 152.206 445.749 153.432 442.737C157.758 432.14 161.489 422.98 167.654 422.595C172.523 422.315 177.865 427.727 184.485 439.636C195.029 458.622 206.536 485.822 215.766 507.662C222.404 523.338 228.131 536.876 230.005 538.75C230.142 538.891 230.249 539.058 230.32 539.241C230.46 539.731 245.365 586.652 261.671 590.733C266.4 591.959 267.976 591.434 268.502 590.908C270.428 588.421 264.211 576.844 254.77 559.312C251.565 553.375 247.905 546.562 243.789 538.768L228.201 509.169C228.126 509.026 228.081 508.87 228.067 508.71C228.053 508.55 228.071 508.389 228.12 508.235C228.168 508.082 228.247 507.94 228.352 507.818C228.456 507.695 228.583 507.595 228.727 507.522C229.015 507.371 229.351 507.34 229.663 507.435C229.974 507.53 230.236 507.744 230.391 508.03L245.978 537.629C250.042 545.406 253.702 552.184 256.942 558.191C268.572 579.769 273.406 588.666 270.463 592.45C268.677 594.726 264.736 594.113 261.128 593.203C243.929 588.894 229.427 544.583 228.078 540.327C225.872 537.735 221.511 527.524 213.524 508.678C204.312 486.89 192.84 459.795 182.366 440.915C176.411 430.231 171.525 424.924 167.829 425.152C163.223 425.415 159.545 434.382 155.762 443.735C154.536 446.782 153.24 449.935 151.856 452.965C149.561 458.027 147.74 460.023 145.778 459.603C141.662 458.745 141.032 446.835 140.454 415.467C140.367 410.475 140.279 405.308 140.139 400.159C139.736 382.242 133.816 367.95 129.263 356.601C124.306 344.393 120.383 334.76 124.376 325.793C128.58 316.3 138.195 300.484 147.426 301.412C152.838 301.955 156.866 308.015 159.405 319.487C161.93 331.052 163.297 342.839 163.486 354.674C163.976 367.039 164.327 376.812 170.562 390.263C182.874 416.973 265.349 548.103 277.522 555.126C290.85 562.605 337.404 560.117 377.442 545.51C424.135 528.521 457.903 528.556 486.907 545.615C494.572 550.34 501.621 555.999 507.889 562.463Z" fill="#263238"/>
<path d="M221.352 492.967L241.688 510.114L230.058 509.624L223.857 519.468L221.352 492.967Z" fill="#263238"/>
<path d="M542.848 829.455C543.006 829.607 543.115 829.802 543.163 830.015C543.251 830.331 543.21 830.669 543.049 830.955C542.888 831.24 542.621 831.451 542.305 831.539C521.76 837.126 481.933 804.655 455.591 783.182C445.223 774.74 437.008 768.102 433.488 766.544C427.796 764.109 418.636 777.893 409.703 791.134C400.088 805.479 390.174 820.296 380.839 821.82C373.787 822.607 366.659 822.401 359.664 821.207C349.191 819.911 340.153 818.79 334.794 825.06C331.904 828.546 330.292 834.255 328.593 840.263C325.108 852.751 321.115 866.902 303.653 862.857C279.115 857.2 176.761 811.102 136.88 784.183C124.708 775.968 119.576 774.83 118.473 775.443C118.473 775.443 118.333 775.583 118.333 775.968C118.525 781.485 138.264 802.906 169.86 817.547C218.883 840.158 271.251 868.321 279.518 874.661C281.024 875.817 280.481 876.921 280.271 877.236C277.293 881.825 222.858 871.106 155.831 834.904C155.544 834.749 155.331 834.488 155.235 834.177C155.14 833.865 155.172 833.529 155.323 833.24C155.397 833.096 155.499 832.968 155.624 832.864C155.748 832.761 155.892 832.683 156.048 832.635C156.203 832.588 156.366 832.572 156.527 832.589C156.688 832.606 156.845 832.654 156.987 832.733C219.268 866.36 267.695 876.501 277.048 875.94C265.856 868.251 215.905 841.454 168.897 819.737C138.579 805.743 116.213 783.902 115.916 776.003C115.854 775.456 115.953 774.902 116.202 774.41C116.451 773.918 116.839 773.51 117.317 773.236C120.207 771.642 127.247 774.62 138.317 782.081C178.057 808.895 279.868 854.765 304.231 860.422C319.398 863.925 322.708 852.103 326.229 839.58C327.998 833.292 329.662 827.355 332.92 823.466C339.067 816.093 349.173 817.336 359.909 818.65C366.662 819.798 373.542 819.993 380.349 819.228C388.598 817.984 398.616 802.921 407.479 789.68C417.795 774.25 426.727 760.939 434.311 764.179C438.182 765.843 445.993 772.358 456.992 781.186C482.949 802.343 522.181 834.324 541.499 829.052C541.738 828.974 541.996 828.971 542.236 829.043C542.477 829.115 542.691 829.259 542.848 829.455Z" fill="#263238"/>
<path d="M20.8294 622.455L20.9695 622.595C31.3301 637.369 39.5553 653.53 45.4019 670.602C47.959 677.958 48.0991 681.916 45.7346 683.37C40.4102 686.803 24.9975 672.581 0.512437 649.007C-12.1505 636.834 -25.2337 624.241 -28.8767 623.646C-28.8767 623.646 -29.3671 623.961 -29.4197 625.59C-29.8226 643.507 8.86639 731.377 97.2966 795.252C111.676 805.638 126.686 815.394 141.853 824.256C142.146 824.428 142.358 824.709 142.444 825.037C142.529 825.366 142.48 825.715 142.309 826.007C142.137 826.3 141.856 826.512 141.527 826.598C141.199 826.683 140.85 826.634 140.557 826.463C125.302 817.548 110.24 807.74 95.7903 797.319C3.43689 730.607 -36.5831 635.241 -31.4863 622.998C-31.2859 622.395 -30.8737 621.886 -30.3262 621.564C-29.7787 621.242 -29.1331 621.129 -28.5089 621.247C-24.3229 621.93 -14.1295 631.598 2.17634 647.273C17.3438 661.88 40.2876 683.948 44.351 681.356C44.5962 681.111 45.8922 679.814 43.0199 671.478C37.2502 654.629 29.131 638.68 18.9027 624.101C18.7135 623.834 18.6352 623.505 18.6842 623.181C18.7332 622.858 18.9057 622.566 19.1655 622.367C19.404 622.172 19.7067 622.073 20.0143 622.089C20.322 622.106 20.6126 622.236 20.8294 622.455Z" fill="#263238"/>
<path d="M-99.7559 493.496C-99.5505 493.704 -99.4255 493.979 -99.4031 494.27C-99.3807 494.562 -99.4622 494.852 -99.6333 495.09C-99.826 495.282 -114.818 516.685 -95.7105 561.224C-76.2872 606.534 -49.1397 602.471 -25.25 595.114C-14.7763 591.892 -2.72639 596.621 9.55118 608.898C9.685 609.013 9.79483 609.153 9.87435 609.31C9.95386 609.468 10.0015 609.639 10.0145 609.815C10.0275 609.991 10.0057 610.167 9.95019 610.334C9.89472 610.502 9.80672 610.657 9.69126 610.79C9.459 611.022 9.14398 611.152 8.81552 611.152C8.48706 611.152 8.17207 611.022 7.93981 610.79C-0.186853 602.663 -12.3593 593.713 -24.4444 597.426C-51.224 605.676 -78.6516 607.112 -97.9348 562.153C-117.603 516.247 -102.19 494.529 -101.507 493.636C-101.415 493.504 -101.298 493.393 -101.161 493.308C-101.025 493.223 -100.873 493.166 -100.714 493.142C-100.555 493.117 -100.393 493.125 -100.238 493.165C-100.082 493.205 -99.9359 493.276 -99.8085 493.373L-99.7559 493.496Z" fill="#263238"/>
<path d="M19.9714 623.312L-3.7798 611.261L7.67543 609.089L11.4589 598.089L19.9714 623.312Z" fill="#263238"/>
<path d="M168.409 247.328C178.255 256.834 184.147 269.708 184.907 283.373C184.912 283.535 184.884 283.697 184.824 283.848C184.765 283.999 184.675 284.136 184.56 284.251C184.445 284.366 184.308 284.456 184.156 284.516C184.005 284.576 183.844 284.604 183.681 284.599C183.52 284.613 183.357 284.594 183.203 284.544C183.049 284.493 182.907 284.413 182.784 284.307C182.662 284.201 182.562 284.071 182.49 283.926C182.419 283.78 182.377 283.622 182.368 283.461C180.862 259.781 165.449 242.021 135.219 229.026C95.8466 212.142 64.4781 231.846 53.4614 244.579C46.8584 252.198 49.3279 256.104 52.8308 261.463C55.9757 265.495 57.6391 270.485 57.5421 275.597C57.5554 277.504 57.122 279.388 56.2765 281.097C55.4309 282.806 54.1969 284.294 52.673 285.44C47.1034 289.294 37.1902 288.628 19.4831 283.251C6.55748 279.293 -11.1497 284.145 -30.293 296.808C-30.4287 296.898 -30.5808 296.96 -30.7405 296.991C-30.9002 297.022 -31.0644 297.021 -31.2238 296.988C-31.3832 296.956 -31.5347 296.892 -31.6694 296.801C-31.8043 296.71 -31.9198 296.593 -32.0095 296.458C-32.1843 296.182 -32.2455 295.849 -32.1802 295.529C-32.1149 295.209 -31.9281 294.926 -31.6592 294.741C-11.8678 281.64 6.57501 276.719 20.2187 280.869C36.875 285.931 46.4554 286.719 51.2719 283.409C52.4775 282.461 53.4468 281.247 54.1033 279.861C54.7598 278.475 55.0855 276.955 55.055 275.422C55.1169 270.839 53.5881 266.377 50.729 262.794C47.3312 257.47 43.8109 251.953 51.6224 242.915C63.0945 229.692 95.5314 209.27 136.235 226.714C148.171 231.48 159.091 238.476 168.409 247.328Z" fill="#263238"/>
<path d="M182.561 300.887L173.61 275.822L183.419 282.128L193.718 276.733L182.561 300.887Z" fill="#263238"/>
<path d="M23.985 318.578C26.2461 320.604 27.7476 323.341 28.241 326.337C28.3887 327.823 28.0954 329.32 27.3977 330.641C26.6999 331.961 25.6287 333.047 24.3177 333.763C19.3086 336.986 12.3553 336.373 4.31621 335.655C-14.6344 333.974 -40.6784 331.609 -64.043 377.217C-93.4501 434.367 -74.0617 459.325 -59.9102 477.54C-58.0536 479.922 -56.3197 482.181 -54.7785 484.353C-46.4942 496.14 -44.3224 511.623 -49.4017 521.956C-51.017 525.249 -53.5145 528.029 -56.6161 529.986C-59.7176 531.944 -63.3015 533.002 -66.9688 533.043C-74.6401 533.359 -80.2623 530.994 -83.6951 526.055C-88.8793 518.524 -88.3188 505.458 -82.1711 491.114C-80.91 488.136 -78.8433 484.283 -75.9359 484.703C-70.4714 485.544 -68.2122 503.706 -67.6517 509.241C-67.6209 509.566 -67.7195 509.89 -67.9261 510.142C-68.1327 510.395 -68.4307 510.556 -68.7552 510.59C-68.9187 510.607 -69.0841 510.592 -69.2418 510.545C-69.3994 510.498 -69.5461 510.42 -69.6733 510.316C-69.8005 510.211 -69.9056 510.083 -69.9825 509.937C-70.0594 509.792 -70.1066 509.633 -70.1213 509.469C-71.1721 498.995 -73.9043 487.506 -76.3213 487.155C-76.4088 487.068 -77.7574 487.085 -79.8942 492.094C-85.6215 505.458 -86.2871 517.928 -81.6458 524.636C-78.8085 528.805 -73.8345 530.836 -67.0739 530.556C-63.8442 530.569 -60.6773 529.664 -57.9423 527.946C-55.2073 526.228 -53.0168 523.768 -51.626 520.853C-46.9146 511.308 -49.0513 496.876 -56.8276 485.772C-58.2463 483.687 -60.0328 481.411 -61.8543 479.064C-75.6556 461.339 -96.375 434.665 -66.2673 376.079C-42.0796 329.052 -15.1249 331.451 4.57891 333.255C12.2152 333.886 18.7306 334.516 23.0217 331.731C23.9382 331.256 24.6935 330.52 25.1922 329.616C25.6909 328.712 25.9108 327.681 25.824 326.652C25.3862 322.151 19.5013 316.827 11.5148 313.744C5.57738 311.31 -15.7202 305.18 -36.2297 323.412C-56.1613 341.137 -66.5125 365.885 -74.832 385.764C-80.6118 399.601 -85.1481 410.477 -91.3833 415.942C-97.8812 421.634 -106.481 422.457 -111.367 417.886C-115.168 414.365 -124.801 399.233 -89.4563 352.574C-76.6958 335.28 -62.0055 319.497 -45.6699 305.53C-45.5446 305.426 -45.3998 305.347 -45.244 305.298C-45.0881 305.249 -44.9242 305.232 -44.7616 305.246C-44.5989 305.261 -44.4408 305.307 -44.2961 305.383C-44.1515 305.459 -44.0231 305.562 -43.9185 305.688C-43.8138 305.813 -43.7349 305.958 -43.6862 306.114C-43.6374 306.27 -43.6199 306.434 -43.6345 306.596C-43.6492 306.759 -43.6957 306.917 -43.7715 307.062C-43.8472 307.206 -43.9507 307.335 -44.0761 307.439C-60.2514 321.299 -74.8053 336.946 -87.4597 354.081C-114.257 389.46 -116.552 409.059 -109.809 415.802L-109.598 416.012C-105.64 419.725 -98.4592 418.884 -92.9421 414.033C-87.425 409.181 -82.4508 397.762 -77.0213 384.766C-68.7018 364.642 -58.2805 339.578 -37.8761 321.451C-31.2847 315.216 -23.0727 310.96 -14.178 309.17C-5.28337 307.38 3.93546 308.128 12.4255 311.327C16.7269 312.943 20.6584 315.409 23.985 318.578Z" fill="#263238"/>
</g>
</svg>
