<svg width="346" height="345" viewBox="0 0 346 345" fill="none" xmlns="http://www.w3.org/2000/svg">
<g opacity="0.3">
<path d="M67.7474 177.75L66.9259 120.975L181.358 26.7768L269.837 81.5435L247.124 156.346L209.897 175.56L210.795 199.033L225.019 199.018L221.9 228.577L217.899 206.138L198.853 210.975L191.292 188.932L126.454 220.118L67.7474 177.75Z" fill="black"/>
<g opacity="0.7">
<path d="M74.2196 231.833L58.7317 177.205L144.884 56.5988L244.523 86.5994L241.944 164.731L210.959 192.925L217.901 215.367L231.637 211.671L236.275 241.03L226.603 220.391L209.457 229.993L196.449 210.657L141.892 257.563L74.2196 231.833Z" fill="white" fill-opacity="0.8"/>
</g>
<path d="M205.604 170.987C202.774 175.919 198.971 180.223 194.425 183.637C192.107 185.53 189.367 186.837 186.437 187.447C183.921 187.703 181.38 187.338 179.038 186.384C176.695 185.43 174.623 183.916 173.001 181.975L172.678 182.534C170.875 186.739 168.131 190.476 164.659 193.456C164.625 194.977 164.528 196.436 164.407 197.807C165.801 197.531 167.221 197.409 168.641 197.444C169.793 197.34 170.953 197.516 172.022 197.956C173.091 198.396 174.039 199.087 174.783 199.972C175.52 201.032 175.906 202.295 175.887 203.586C175.869 204.876 175.446 206.128 174.679 207.166C172.056 211.365 165.33 215.357 160.114 216.817L159.171 218.881C156.355 224.972 151.666 230.002 145.788 233.24C141.804 235.136 137.452 236.133 133.04 236.161C128.627 236.19 124.263 235.248 120.255 233.404C112.351 229.676 105.666 223.783 100.975 216.41C99.5627 214.303 98.2811 212.111 97.1378 209.847C96.208 211.5 95.1852 213.099 94.0743 214.637C93.7607 215.191 93.3165 215.661 92.7801 216.005C92.2438 216.349 91.6316 216.557 90.9967 216.611C89.2092 216.523 88.1339 214.685 88.2609 211.926C88.6507 203.111 89.5738 194.327 91.0253 185.624C90.9813 184.108 91.0334 182.598 91.1521 181.101C91.5794 174.853 93.2775 168.757 96.1427 163.188C99.0078 157.619 102.98 152.693 107.815 148.712C108.674 148.041 109.531 147.418 110.444 146.827C111.764 141.462 113.494 136.207 115.619 131.108C120.723 118.156 128.207 106.273 137.683 96.0745C147.748 85.6132 156.713 82.2187 164.999 85.8101C171.756 88.6929 174.78 94.6865 176.395 101.184C179.146 100.929 181.915 100.946 184.662 101.237C185.488 100.285 186.406 99.4171 187.401 98.6442C192.25 94.9732 198.291 93.2367 204.349 93.7722C210.076 94.222 217.368 97.0404 220.514 103.552C222.417 108.05 222.771 113.052 221.521 117.772C220.453 123.161 218.477 128.329 215.678 133.056C214.015 136.096 211.66 138.702 208.802 140.663C206.634 141.928 204.201 142.673 201.695 142.839C199.19 143.005 196.68 142.587 194.364 141.618C195.286 142.971 195.984 144.465 196.431 146.041C198.258 144.973 200.38 144.519 202.485 144.746C204.59 144.973 206.566 145.868 208.124 147.302C210.522 149.903 211.19 154.04 209.987 159.308C209.121 163.399 207.644 167.337 205.604 170.987ZM173.761 180.228C176.876 183.74 181.269 186.501 186.164 185.724C188.822 185.175 191.303 183.98 193.39 182.245C200.997 176.484 206.34 168.236 208.486 158.938C209.221 155.686 209.556 151.233 207.059 148.5C205.715 147.276 204.003 146.533 202.191 146.385C200.379 146.238 198.569 146.696 197.045 147.687C198.246 152.952 197.869 158.455 195.961 163.507C195.79 164.139 195.487 164.727 195.071 165.232C194.655 165.737 194.136 166.148 193.549 166.437C192.732 166.662 191.861 166.588 191.095 166.227C190.328 165.866 189.715 165.243 189.368 164.47C188.813 163.143 188.646 161.686 188.887 160.268C189.055 155.362 191.109 150.711 194.621 147.281L195.077 146.923L194.948 146.501C194.712 145.265 194.219 144.093 193.503 143.059C192.786 142.025 191.861 141.152 190.787 140.497C187.997 139.134 184.783 140.484 182.229 142.412C182.399 142.634 182.568 142.857 182.728 143.098C185.883 147.702 187.256 153.885 186.798 161.521C186.794 163.997 186.232 166.441 185.154 168.671C184.537 169.824 183.613 170.786 182.485 171.449C181.357 172.113 180.068 172.453 178.76 172.431C178.012 172.385 177.282 172.184 176.617 171.84C175.857 174.698 174.903 177.501 173.761 180.228ZM160.991 214.74C165.489 213.188 171.006 209.914 173.314 206.303C173.903 205.558 174.236 204.643 174.265 203.694C174.294 202.745 174.018 201.811 173.477 201.031C172.867 200.398 172.125 199.909 171.303 199.598C170.482 199.287 169.602 199.162 168.726 199.232C167.248 199.216 165.773 199.373 164.332 199.701L164.315 199.989C163.792 205.02 162.677 209.971 160.991 214.74ZM176.854 102.84C177.444 105.391 177.846 108.008 178.235 110.519C178.624 113.029 178.974 115.218 179.453 117.358C181.387 125.927 184.447 132.116 188.877 136.189C193.573 140.491 201.867 142.993 207.987 139.149C210.61 137.339 212.756 134.921 214.241 132.102C216.964 127.558 218.875 122.575 219.887 117.375C221.047 113.024 220.741 108.412 219.017 104.253C216.15 98.3746 209.517 95.8366 204.24 95.4235C198.616 94.9072 193.001 96.5127 188.5 99.9246C187.895 100.383 187.324 100.883 186.791 101.422C187.753 101.605 188.686 101.796 189.606 102.054C194.689 103.208 199.15 106.236 202.099 110.534C203.569 112.767 204.296 115.407 204.178 118.077C204.059 120.747 203.1 123.312 201.438 125.406C199.568 127.31 197.115 128.535 194.469 128.884C191.823 129.234 189.136 128.688 186.835 127.334C184.601 125.944 182.757 124.008 181.477 121.709C180.197 119.41 179.523 116.822 179.518 114.191C179.503 110.055 180.812 106.023 183.254 102.685C181.12 102.564 178.98 102.616 176.854 102.84ZM193.05 151.939C191.66 154.584 190.829 157.487 190.61 160.468C190.42 161.556 190.53 162.675 190.927 163.706C191.077 164.097 191.357 164.425 191.72 164.635C192.083 164.844 192.507 164.923 192.921 164.857C193.608 164.419 194.1 163.735 194.298 162.945C195.978 158.453 196.39 153.586 195.49 148.876C194.528 149.749 193.711 150.771 193.072 151.902L193.05 151.939ZM108.963 223.357C112.424 226.9 116.514 229.767 121.025 231.811C124.787 233.557 128.886 234.457 133.033 234.448C137.18 234.438 141.275 233.52 145.029 231.758C150.572 228.699 154.988 223.944 157.632 218.191L158.094 217.39C157.258 217.529 156.407 217.556 155.564 217.469C152.818 216.912 150.23 215.749 147.99 214.065L147.43 215.034L146.259 216.718C142.876 221.547 138.116 227.295 131.283 228.89C131.061 228.945 130.826 228.912 130.628 228.798C130.429 228.683 130.284 228.496 130.221 228.276C130.19 228.166 130.182 228.051 130.196 227.938C130.211 227.825 130.248 227.716 130.305 227.617C130.362 227.518 130.438 227.432 130.529 227.363C130.62 227.293 130.723 227.243 130.834 227.214C137.047 225.833 141.571 220.321 144.767 215.732L145.927 214.067L146.59 213.133C146.423 213.036 146.255 212.94 146.106 212.853L145.209 212.212C144.026 211.379 142.802 210.573 141.623 209.818C140.08 211.986 137.813 213.532 135.231 214.177C131.275 215.048 126.93 213.409 122.307 209.324C120.772 207.965 119.352 206.48 118.063 204.886C118.08 207.094 117.966 209.302 117.724 211.497C117.54 214.756 116.5 217.909 114.708 220.637C114.185 221.408 113.508 222.064 112.72 222.562C111.932 223.061 111.05 223.391 110.129 223.533C109.741 223.504 109.357 223.433 108.985 223.32L108.963 223.357ZM148.917 212.588C150.935 214.117 153.269 215.176 155.748 215.688C156.797 215.78 157.854 215.683 158.869 215.403C160.717 210.53 161.92 205.437 162.448 200.253C156.678 202.288 152.695 207.292 148.939 212.551L148.917 212.588ZM176.965 170.377C177.514 170.695 178.13 170.881 178.764 170.918C179.761 170.89 180.734 170.597 181.58 170.068C182.427 169.54 183.117 168.795 183.58 167.911C184.539 165.937 185.041 163.774 185.05 161.58C185.463 154.366 184.206 148.497 181.281 144.225L180.926 143.722L180.505 144.15L179.459 145.359C179.765 151.39 179.399 157.436 178.368 163.386C177.991 165.802 177.525 168.116 176.986 170.339L176.965 170.377ZM147.483 211.587C151.56 205.817 155.984 200.347 162.614 198.287C162.721 197.156 162.833 195.929 162.857 194.726L162.458 194.943C159.588 196.515 155.37 196.937 152.994 194.124C152.047 192.945 151.373 191.572 151.019 190.102C149.408 183.622 149.075 176.89 150.039 170.283L149.723 170.101C148.799 169.769 147.851 169.513 146.887 169.333C147.087 172.771 146.382 176.202 144.844 179.283C144.306 180.203 143.663 181.057 142.927 181.828C145.101 189.294 146.719 197.333 144.089 204.857C143.709 205.979 143.211 207.057 142.605 208.074C143.872 208.806 145.063 209.668 146.191 210.468L147.088 211.11L147.483 211.587ZM164.684 191.259C167.392 188.55 169.576 185.365 171.128 181.863L171.716 180.587C170.865 179.536 170.097 178.42 169.419 177.249C167.766 174.219 166.348 171.066 165.176 167.818C164.078 164.762 162.766 161.788 161.247 158.917C159.79 156.34 157.99 153.972 155.896 151.878C155.155 154.108 154.577 156.358 154.104 158.296L153.899 158.65C153.008 162.067 152.317 165.534 151.83 169.032C154.672 170.435 157.183 172.426 159.196 174.874C161.21 177.321 162.68 180.168 163.509 183.227C164.228 185.834 164.63 188.519 164.706 191.222L164.684 191.259ZM156.526 150.055C158.989 152.403 161.088 155.105 162.753 158.073C164.329 161.007 165.683 164.056 166.804 167.193C167.947 170.351 169.322 173.42 170.918 176.375C171.394 177.193 171.917 177.984 172.482 178.744C173.483 176.228 174.323 173.652 174.998 171.03C172.911 168.776 171.762 165.812 171.784 162.74C171.624 156.261 173.703 149.924 177.671 144.799C177.563 143.221 177.386 141.678 177.147 140.199C175.583 139.038 173.763 138.268 171.84 137.953C169.917 137.638 167.947 137.787 166.094 138.388C161.245 140.16 158.444 144.927 156.548 150.018L156.526 150.055ZM151.635 171.006C150.83 177.205 151.208 183.501 152.748 189.56C153.037 190.791 153.578 191.949 154.336 192.961C156.067 194.954 159.34 194.707 161.702 193.413C162.144 193.171 162.572 192.904 162.984 192.613C163.02 189.61 162.642 186.616 161.86 183.716C161.113 181.01 159.823 178.485 158.068 176.294C156.314 174.102 154.133 172.29 151.656 170.968L151.635 171.006ZM177.053 148.839C174.628 153.041 173.409 157.831 173.533 162.681C173.561 164.939 174.239 167.142 175.484 169.025C175.925 167.143 176.323 165.162 176.639 163.109C177.525 157.986 177.921 152.791 177.821 147.594L177.053 148.839ZM183.824 105.398C182.28 108.098 181.496 111.165 181.556 114.275C181.55 116.591 182.129 118.871 183.241 120.903C184.353 122.934 185.96 124.652 187.914 125.895C189.865 127.049 192.144 127.52 194.391 127.234C196.639 126.948 198.728 125.922 200.328 124.317C201.72 122.49 202.513 120.277 202.597 117.982C202.682 115.686 202.053 113.421 200.798 111.497C198.071 107.563 193.963 104.801 189.291 103.76C188.061 103.432 186.81 103.183 185.548 103.015C184.917 103.749 184.347 104.534 183.846 105.361L183.824 105.398ZM181.095 141.236C183.179 139.399 185.847 138.36 188.625 138.304C188.271 138.1 187.982 137.784 187.671 137.505C182.985 133.185 179.729 126.734 177.733 117.756C177.246 115.587 176.893 113.272 176.491 110.828C176.088 108.385 175.668 105.584 175.116 103.054C173.079 103.302 171.058 103.67 169.064 104.156C154.113 107.721 137.464 119.002 134.028 136.097C133.812 137.09 133.655 138.094 133.558 139.105C138.14 132.052 143.957 125.884 150.729 120.897C153.839 118.285 157.725 116.773 161.783 116.596C166.985 116.793 171.992 120.901 175.156 127.597C176.879 131.25 178.096 135.12 178.774 139.101C179.618 139.726 180.402 140.428 181.116 141.198L181.095 141.236ZM179.267 142.938L179.782 142.391C179.54 142.251 179.354 141.97 179.126 141.763L179.267 142.938ZM140.975 207.283C141.505 206.364 141.953 205.401 142.314 204.404C144.733 197.503 143.347 190.094 141.376 183.094C140.368 183.816 139.227 184.331 138.018 184.608C135.873 184.98 133.666 184.721 131.666 183.861C129.665 183.002 127.958 181.58 126.751 179.768C125.7 178.256 124.915 176.575 124.428 174.799C119.932 177.494 116.518 181.673 114.774 186.615C115.994 190.17 116.865 193.834 117.375 197.557C119.508 197.88 121.604 198.416 123.631 199.157C129.695 201.217 135.517 203.929 140.996 207.245L140.975 207.283ZM117.784 201.669C119.369 203.945 121.222 206.024 123.301 207.86C127.485 211.543 131.308 213.054 134.698 212.304C136.821 211.772 138.69 210.513 139.981 208.746C134.643 205.509 128.977 202.846 123.079 200.801C121.3 200.161 119.468 199.677 117.604 199.354C117.716 200.065 117.784 200.85 117.784 201.669ZM157.28 144.231C159.041 140.847 161.951 138.202 165.487 136.771C167.332 136.162 169.285 135.948 171.218 136.144C173.151 136.34 175.021 136.941 176.706 137.907C176.038 134.625 174.978 131.435 173.546 128.406C170.654 122.314 166.222 118.588 161.654 118.41C157.998 118.627 154.509 120.02 151.71 122.382C145.034 127.307 139.308 133.404 134.812 140.376C137.721 140.569 140.592 141.134 143.358 142.055C147.68 143.532 151.674 145.838 155.114 148.843C155.725 147.232 156.46 145.671 157.313 144.175L157.28 144.231ZM146.74 167.608C147.915 167.807 149.071 168.108 150.194 168.51C150.682 165.092 151.368 161.705 152.249 158.367L152.453 158.013C153.053 155.727 153.718 153.154 154.583 150.623C148.895 145.418 141.546 142.399 133.841 142.101L133.379 142.902C133.344 145.366 133.508 147.829 133.872 150.267C134.867 156.22 136.373 162.076 138.373 167.771C140.586 167.407 142.834 167.312 145.07 167.489C145.004 162.212 143.176 157.108 139.877 152.989C139.732 152.809 139.66 152.581 139.678 152.351C139.695 152.121 139.8 151.906 139.971 151.751C140.056 151.676 140.155 151.618 140.263 151.582C140.37 151.545 140.484 151.531 140.598 151.538C140.711 151.546 140.822 151.576 140.923 151.627C141.025 151.677 141.116 151.748 141.19 151.834C144.757 156.276 146.728 161.788 146.786 167.486L146.74 167.608ZM142.242 179.917C142.597 179.455 142.925 178.972 143.225 178.472C144.636 175.576 145.268 172.361 145.057 169.146C142.986 168.962 140.9 169.034 138.846 169.361L139.118 170.139C139.791 172.242 140.495 174.337 141.15 176.43L141.395 177.167L142.242 179.917ZM125.895 173.808C126.302 175.556 127.029 177.214 128.04 178.698C129.039 180.231 130.462 181.439 132.136 182.176C133.81 182.914 135.663 183.148 137.468 182.85C138.651 182.565 139.753 182.011 140.688 181.231C140.328 180.004 139.938 178.786 139.575 177.607L139.33 176.87C138.675 174.777 137.991 172.693 137.252 170.701L136.91 169.659C134.866 170.109 132.858 170.71 130.903 171.458C129.217 172.111 127.584 172.896 126.02 173.806L125.895 173.808ZM106.443 203.841C104.588 207.372 103.882 211.393 104.423 215.344C104.819 218.057 106.68 221.89 109.716 221.58C110.39 221.453 111.031 221.193 111.603 220.815C112.175 220.438 112.666 219.95 113.048 219.38C114.675 216.882 115.619 214.001 115.786 211.024C116.099 208.05 116.166 205.056 115.986 202.072C115.336 201.086 114.751 200.059 114.233 198.998C112.339 199.021 110.499 199.635 108.971 200.754C107.974 201.614 107.158 202.662 106.569 203.839L106.443 203.841ZM125.54 172.013C127.083 171.163 128.686 170.428 130.337 169.814C132.298 169.054 134.313 168.441 136.365 167.978C134.354 162.282 132.842 156.421 131.845 150.463C131.612 148.888 131.464 147.337 131.391 145.828C127.529 152.56 125.373 160.134 125.112 167.891C125.185 169.277 125.37 170.655 125.665 172.011L125.54 172.013ZM136.239 125.126C143.123 113.201 156.386 105.332 168.552 102.419C170.542 101.945 172.556 101.573 174.585 101.306C173.096 95.2795 170.294 89.9352 164.261 87.3465C156.686 84.1159 148.386 87.3479 138.869 97.2059C129.544 107.258 122.179 118.964 117.153 131.72C115.297 136.19 113.743 140.779 112.502 145.456C118.386 142.094 125.029 140.287 131.806 140.205C131.922 138.706 132.127 137.215 132.421 135.741C133.153 132.012 134.485 128.427 136.364 125.124L136.239 125.126ZM115.382 197.351C115.059 195.014 114.576 192.702 113.937 190.43C113.979 192.82 114.513 195.176 115.508 197.349L115.382 197.351ZM104.974 202.943C105.726 201.6 106.737 200.418 107.949 199.469C109.574 198.255 111.515 197.538 113.538 197.404C112.66 195.09 112.251 192.625 112.335 190.151C112.387 188.957 112.571 187.772 112.884 186.618C112.013 184.203 110.982 181.848 109.799 179.57C109.022 178.095 108.076 176.715 106.98 175.458L106.239 180.272C105.004 189.846 102.272 199.167 98.1419 207.893C99.3826 210.481 100.819 212.971 102.437 215.341L102.774 215.833L102.724 215.532C102.181 211.19 103.011 206.787 105.1 202.941L104.974 202.943ZM114.757 182.084C117.047 178.363 120.188 175.238 123.921 172.966C123.635 171.248 123.5 169.508 123.52 167.766C123.789 159.665 126.045 151.754 130.088 144.729C130.572 143.89 131.046 143.07 131.53 142.232L131.539 141.914C124.602 142.074 117.838 144.109 111.966 147.805C109.96 156.012 108.719 164.314 107.413 172.901L107.364 173.245C108.987 174.835 110.35 176.67 111.404 178.683C112.293 180.413 113.123 182.16 113.833 183.985C114.145 183.331 114.496 182.696 114.882 182.082L114.757 182.084ZM91.6221 193.024C90.8015 199.307 90.2476 205.645 89.9661 211.942C89.9263 213.086 90.1616 214.787 91.0553 214.831C91.9491 214.875 92.2353 214.121 92.6433 213.587C93.9443 211.762 95.1215 209.852 96.1672 207.87C94.0354 203.141 92.5489 198.147 91.7475 193.022L91.6221 193.024ZM92.7168 185.706C92.8866 192.657 94.4069 199.508 97.1929 205.879C100.882 197.654 103.348 188.933 104.511 179.994L105.476 174.018C104.657 173.257 103.65 172.728 102.558 172.486C101.466 172.245 100.329 172.299 99.2649 172.643C95.2664 174.061 93.8441 179.451 93.1333 183.263L92.7168 185.706ZM93.8741 175.096C94.8805 173.181 96.5489 171.699 98.568 170.924C99.7456 170.508 101.008 170.39 102.242 170.578C103.477 170.766 104.646 171.256 105.646 172.004C106.796 164.247 107.961 156.721 109.68 149.268L108.77 149.984C100.741 156.53 95.3039 165.719 93.4302 175.908L93.8741 175.096Z" fill="#263238"/>
</g>
</svg>
