<svg width="156" height="119" viewBox="0 0 156 119" fill="none" xmlns="http://www.w3.org/2000/svg">
<path d="M5.53558 36.7378L4.4778 37.2477L5.53558 36.7378ZM45.2035 55.8831L44.5832 54.886L45.2035 55.8831ZM28.7892 44.3959L29.9567 44.521L28.7892 44.3959ZM53.4106 78.8574L53.8605 77.7727L53.4106 78.8574ZM76.6642 59.7121L77.7777 59.3392L76.6642 59.7121ZM76.6642 85.2391L77.4653 84.3806L76.6642 85.2391ZM117.7 95.4499L117.627 96.6219L117.7 95.4499ZM156 118.424L143.052 114.399L153.012 105.199L156 118.424ZM6.58264 1.53153C4.62163 5.3945 3.16551 11.0713 2.94 17.3157C2.7148 23.552 3.72032 30.2673 6.59337 36.228L4.4778 37.2477C1.40363 30.8697 0.357346 23.758 0.593048 17.2309C0.828476 10.7118 2.34596 4.68906 4.48853 0.468469L6.58264 1.53153ZM6.59337 36.228C8.73418 40.6694 14.3689 47.8738 21.4862 52.6761C28.5965 57.4736 36.8657 59.6869 44.5832 54.886L45.8237 56.8801C36.9699 62.3879 27.6374 59.6596 20.1726 54.6229C12.7149 49.5909 6.80141 42.0684 4.4778 37.2477L6.59337 36.228ZM44.5832 54.886C46.4802 53.706 47.6244 52.39 48.2429 51.0697C48.86 49.7526 48.9909 48.3532 48.735 46.9382C48.2157 44.0662 46.0966 41.1533 43.3286 39.1201C40.5443 37.0751 37.3868 36.1211 34.9299 36.7398C32.6373 37.3171 30.5059 39.3971 29.9567 44.521L27.6216 44.2708C28.2352 38.5458 30.7886 35.3608 34.3564 34.4624C37.76 33.6053 41.6383 34.9647 44.7188 37.2273C47.8154 39.5018 50.3898 42.8909 51.046 46.5203C51.3779 48.356 51.2171 50.2572 50.3696 52.0661C49.5236 53.8718 48.0304 55.5075 45.8237 56.8801L44.5832 54.886ZM29.9567 44.521C28.8968 54.4111 31.6935 61.3431 36.2662 66.4758C40.8846 71.6598 47.3854 75.0874 53.8605 77.7727L52.9608 79.942C46.3964 77.2197 39.4922 73.6274 34.5126 68.038C29.4873 62.3973 26.493 54.8024 27.6216 44.2708L29.9567 44.521ZM53.8605 77.7727C59.6752 80.1842 66.4351 79.4996 71.044 76.3557C73.3334 74.794 75.0809 72.6361 75.9536 69.9509C76.8257 67.2672 76.8519 63.97 75.5508 60.085L77.7777 59.3392C79.2123 63.6229 79.2385 67.4414 78.1871 70.6767C77.1361 73.9106 75.0365 76.4751 72.3674 78.2958C67.0593 81.9166 59.4567 82.636 52.9608 79.942L53.8605 77.7727ZM75.5508 60.085C73.8934 55.1362 71.5383 53.0648 69.6717 52.6407C67.9226 52.2433 66.0424 53.1939 64.9128 55.7237C62.6494 60.7925 63.943 71.7628 77.4653 84.3806L75.8631 86.0977C62.0285 73.1885 59.9024 61.1844 62.7684 54.7661C64.2035 51.5523 67.0253 49.6311 70.192 50.3505C73.241 51.0433 76.0154 54.0772 77.7777 59.3392L75.5508 60.085ZM77.4653 84.3806C86.661 92.9612 97.0725 92.9902 117.773 94.278L117.627 96.6219C97.2917 95.3569 85.8174 95.386 75.8631 86.0977L77.4653 84.3806ZM117.773 94.278C132.119 95.1703 142.827 103.181 149.649 109.821L148.011 111.504C141.355 105.026 131.154 97.4634 117.627 96.6219L117.773 94.278Z" fill="white"/>
</svg>
