<svg width="50" height="50" viewBox="0 0 50 50" fill="none" xmlns="http://www.w3.org/2000/svg">
<circle cx="25" cy="25" r="25" fill="white"/>
<g clip-path="url(#clip0_3644_4431)">
<path d="M21.1094 36.667C22.1449 36.667 22.9844 35.8275 22.9844 34.792C22.9844 33.7565 22.1449 32.917 21.1094 32.917C20.0738 32.917 19.2344 33.7565 19.2344 34.792C19.2344 35.8275 20.0738 36.667 21.1094 36.667Z" fill="black"/>
<path d="M32.5 36.667C33.5355 36.667 34.375 35.8275 34.375 34.792C34.375 33.7565 33.5355 32.917 32.5 32.917C31.4645 32.917 30.625 33.7565 30.625 34.792C30.625 35.8275 31.4645 36.667 32.5 36.667Z" fill="black"/>
<path d="M37.5661 14.4751C37.4885 14.3795 37.3908 14.3022 37.2798 14.2489C37.1689 14.1956 37.0475 14.1676 36.9244 14.1667H19.5744L20.1161 15.8334H35.8328L33.6078 25.8334H21.1078L17.2994 13.7751C17.2582 13.6471 17.1867 13.531 17.0909 13.4367C16.9952 13.3424 16.878 13.2726 16.7494 13.2334L13.3328 12.1834C13.2277 12.1511 13.1173 12.1398 13.0079 12.1502C12.8985 12.1606 12.7922 12.1924 12.6951 12.2439C12.4989 12.3478 12.3521 12.5254 12.2869 12.7376C12.2217 12.9497 12.2435 13.1791 12.3474 13.3753C12.4513 13.5714 12.6289 13.7182 12.8411 13.7834L15.8328 14.7001L19.6578 26.7834L18.2911 27.9001L18.1828 28.0084C17.8447 28.398 17.6531 28.8932 17.6409 29.4089C17.6288 29.9246 17.7968 30.4283 18.1161 30.8334C18.3432 31.1096 18.6318 31.3288 18.9589 31.4735C19.2859 31.6183 19.6422 31.6844 19.9994 31.6667H33.9078C34.1288 31.6667 34.3407 31.5789 34.497 31.4227C34.6533 31.2664 34.7411 31.0544 34.7411 30.8334C34.7411 30.6124 34.6533 30.4004 34.497 30.2441C34.3407 30.0879 34.1288 30.0001 33.9078 30.0001H19.8661C19.7701 29.9968 19.6766 29.9688 19.5946 29.9189C19.5126 29.8689 19.4449 29.7986 19.398 29.7149C19.3511 29.6311 19.3266 29.5366 19.3268 29.4406C19.3271 29.3446 19.3521 29.2503 19.3994 29.1667L21.4078 27.5001H34.2744C34.4671 27.5048 34.6554 27.4426 34.8073 27.3241C34.9592 27.2056 35.0654 27.0381 35.1078 26.8501L37.7494 15.1834C37.7748 15.0592 37.7714 14.9308 37.7397 14.808C37.7079 14.6853 37.6485 14.5714 37.5661 14.4751Z" fill="black"/>
</g>
<defs>
<clipPath id="clip0_3644_4431">
<rect width="30" height="30" fill="white" transform="translate(10 10)"/>
</clipPath>
</defs>
</svg>
