<svg width="50" height="50" viewBox="0 0 50 50" fill="none" xmlns="http://www.w3.org/2000/svg">
<circle cx="25" cy="25" r="25" fill="white"/>
<path d="M36.5716 23.7025C37.1641 24.4775 37.1641 25.5238 36.5716 26.2975C34.7054 28.7338 30.2279 33.75 25.0004 33.75C19.7729 33.75 15.2954 28.7338 13.4291 26.2975C13.1409 25.9264 12.9844 25.4699 12.9844 25C12.9844 24.5301 13.1409 24.0736 13.4291 23.7025C15.2954 21.2662 19.7729 16.25 25.0004 16.25C30.2279 16.25 34.7054 21.2662 36.5716 23.7025V23.7025Z" stroke="black" stroke-width="2" stroke-linecap="round" stroke-linejoin="round"/>
<path d="M25 28.75C27.0711 28.75 28.75 27.0711 28.75 25C28.75 22.9289 27.0711 21.25 25 21.25C22.9289 21.25 21.25 22.9289 21.25 25C21.25 27.0711 22.9289 28.75 25 28.75Z" stroke="black" stroke-width="2" stroke-linecap="round" stroke-linejoin="round"/>
</svg>
