<svg width="138" height="138" viewBox="0 0 138 138" fill="none" xmlns="http://www.w3.org/2000/svg">
<g filter="url(#filter0_d_173_3849)">
<rect x="49.7344" y="5" width="76.5918" height="76.5918" rx="4" transform="rotate(24.4771 49.7344 5)" fill="#FEB71B"/>
</g>
<path d="M60.4361 50.9356C60.4361 51.3284 60.3379 51.623 60.3379 52.0158V66.0591H62.1056C62.1056 66.0591 63.9715 66.0591 66.0338 65.2735C68.0961 64.4878 70.5512 62.6219 71.0422 59.283V55.5512L80.6663 55.453H80.7645C81.5501 55.453 82.3358 55.6494 82.925 56.1404C83.5142 56.6314 83.907 57.4171 83.907 58.1045C83.907 58.1045 83.8088 58.7919 83.8088 58.8901H76.4435V62.4255H83.3178C83.1214 63.8004 82.925 64.586 82.7286 65.9609H76.4435V69.4963H82.2375C82.0411 70.3801 81.6483 71.1657 81.2555 71.9514C80.7645 72.737 80.3717 73.0316 79.9788 73.0316H49.5354V59.9704C52.4815 58.4973 54.2492 56.3368 55.4277 54.962C56.6061 53.5871 57.49 52.605 58.2756 51.9176C58.8648 51.4266 59.6505 51.2302 60.4361 50.9356ZM78.3094 35.812L87.6388 43.7666L85.1837 47.302L84.9873 47.4984L84.8891 47.793L83.3178 52.5068C82.434 52.2122 81.6483 51.9176 80.6663 51.9176H80.5681L69.2745 52.0158H67.5068V58.7919C67.2122 60.6578 66.132 61.4435 64.8553 61.9345C64.3643 62.1309 64.3643 62.0327 63.9715 62.1309V51.9176C63.6769 45.4361 66.0338 43.5702 67.8997 42.1953C68.3907 41.8025 69.8638 41.4097 72.0243 40.4277C73.6937 39.5438 75.9524 38.0707 78.3094 35.812ZM78.2112 31L77.0327 32.2767C74.3812 35.1246 72.2207 36.4013 70.453 37.1869C68.5871 38.0707 67.114 38.2671 65.6409 39.3474C64.0697 40.5259 61.7128 42.7846 60.7307 46.9092C58.6684 47.4002 57.0971 48.1858 55.9187 49.1679C54.7402 50.1499 53.8564 51.3284 52.7761 52.605C52.7761 52.605 52.7761 52.605 52.7761 52.7032C51.2049 54.4709 49.83 56.435 47.0803 57.4171L46 57.8099L46 76.567H80.077C82.0411 76.4688 83.416 75.0939 84.2016 73.8173C84.9873 72.5406 85.4783 71.0675 85.6747 69.8891C86.2639 66.9429 87.3442 58.3991 87.3442 58.3991L87.4424 58.2027V58.0063C87.3442 56.8278 86.8532 55.8458 86.2639 54.8637L88.3262 48.9715L91.4688 44.2576L92.3526 42.981L91.1742 41.9007L79.3896 31.8838L78.2112 31Z" fill="white"/>
<defs>
<filter id="filter0_d_173_3849" x="0.296875" y="0.296844" width="136.85" height="136.849" filterUnits="userSpaceOnUse" color-interpolation-filters="sRGB">
<feFlood flood-opacity="0" result="BackgroundImageFix"/>
<feColorMatrix in="SourceAlpha" type="matrix" values="0 0 0 0 0 0 0 0 0 0 0 0 0 0 0 0 0 0 127 0" result="hardAlpha"/>
<feOffset dy="13"/>
<feGaussianBlur stdDeviation="9.5"/>
<feColorMatrix type="matrix" values="0 0 0 0 0 0 0 0 0 0 0 0 0 0 0 0 0 0 0.07 0"/>
<feBlend mode="normal" in2="BackgroundImageFix" result="effect1_dropShadow_173_3849"/>
<feBlend mode="normal" in="SourceGraphic" in2="effect1_dropShadow_173_3849" result="shape"/>
</filter>
</defs>
</svg>
