<svg width="86" height="24" viewBox="0 0 86 24" fill="none" xmlns="http://www.w3.org/2000/svg">
<path d="M2 11.7901H12.3425L14.1403 9.69221L16.2649 15.5862L21.0045 2L24.1097 20.9808L27.3784 9.39251L28.8493 15.5862L30.647 11.7901H46.8269" stroke="#6184F4" stroke-width="2.01923" stroke-linecap="round" stroke-linejoin="round"/>
<path d="M45.2109 11.7901H59.188L60.9858 9.69221L63.1104 15.5862L67.85 2L70.9552 20.9808L74.2239 9.39251L75.6948 15.5862L77.4926 11.7901H84.5859" stroke="#6184F4" stroke-width="2.01923" stroke-linecap="round" stroke-linejoin="round"/>
<path d="M40.1947 3.61548C36.9439 3.61548 34.3086 6.28085 34.3086 9.56858C34.3086 15.5217 41.2648 20.9336 45.0105 22.1924C48.7562 20.9336 55.7124 15.5217 55.7124 9.56858C55.7124 6.28085 53.0771 3.61548 49.8264 3.61548C47.8358 3.61548 46.0754 4.61506 45.0105 6.14501C44.4678 5.3631 43.7467 4.72497 42.9084 4.28466C42.0701 3.84434 41.1393 3.6148 40.1947 3.61548Z" fill="white" stroke="#6184F4" stroke-width="2.01923" stroke-linecap="round" stroke-linejoin="round"/>
<path d="M44.2732 16.8076V10.3461L44.9799 11.0528H42.8597V9.74031H45.9088V16.8076H44.2732Z" fill="#6184F4"/>
</svg>
