<svg width="86" height="23" viewBox="0 0 86 23" fill="none" xmlns="http://www.w3.org/2000/svg">
<path d="M2 11.2901H12.3425L14.1403 9.19221L16.2649 15.0862L21.0045 1.5L24.1097 20.4808L27.3784 8.89251L28.8493 15.0862L30.647 11.2901H46.8269" stroke="#6184F4" stroke-width="2.01923" stroke-linecap="round" stroke-linejoin="round"/>
<path d="M45.2109 11.2901H59.188L60.9858 9.19221L63.1104 15.0862L67.85 1.5L70.9552 20.4808L74.2239 8.89251L75.6948 15.0862L77.4926 11.2901H84.5859" stroke="#6184F4" stroke-width="2.01923" stroke-linecap="round" stroke-linejoin="round"/>
<path d="M40.1947 3.11536C36.9439 3.11536 34.3086 5.78072 34.3086 9.06846C34.3086 15.0216 41.2648 20.4335 45.0105 21.6923C48.7562 20.4335 55.7124 15.0216 55.7124 9.06846C55.7124 5.78072 53.0771 3.11536 49.8264 3.11536C47.8358 3.11536 46.0754 4.11494 45.0105 5.64488C44.4678 4.86297 43.7467 4.22485 42.9084 3.78453C42.0701 3.34422 41.1393 3.11468 40.1947 3.11536Z" fill="white" stroke="#6184F4" stroke-width="2.01923" stroke-linecap="round" stroke-linejoin="round"/>
<path d="M42.3332 16.3076V15.2475L45.0591 12.673C45.2745 12.4778 45.4327 12.3028 45.5337 12.148C45.6346 11.9932 45.7019 11.8518 45.7356 11.724C45.776 11.5961 45.7962 11.4783 45.7962 11.3706C45.7962 11.0879 45.6986 10.8725 45.5034 10.7244C45.3149 10.5696 45.0356 10.4922 44.6654 10.4922C44.3692 10.4922 44.0933 10.5494 43.8375 10.6639C43.5885 10.7783 43.3764 10.9567 43.2014 11.199L42.0101 10.4317C42.2793 10.0278 42.6562 9.7081 43.1409 9.47252C43.6255 9.23694 44.1841 9.11916 44.8168 9.11916C45.3418 9.11916 45.7995 9.20666 46.1899 9.38166C46.587 9.54993 46.8933 9.78887 47.1087 10.0985C47.3308 10.4081 47.4418 10.7783 47.4418 11.2091C47.4418 11.4379 47.4115 11.6668 47.351 11.8956C47.2971 12.1177 47.1827 12.3533 47.0077 12.6023C46.8394 12.8514 46.5904 13.1307 46.2606 13.4403L43.999 15.5706L43.6861 14.9749H47.674V16.3076H42.3332Z" fill="#6184F4"/>
</svg>
