<svg width="70" height="33" viewBox="0 0 70 33" fill="none" xmlns="http://www.w3.org/2000/svg">
<rect x="0.986328" y="0.5" width="69.0136" height="32.0136" rx="15" fill="#6184F4"/>
<path d="M31.1164 13.9196C31.0588 13.7498 30.9526 13.6006 30.8111 13.4904C30.6697 13.3802 30.499 13.3139 30.3202 13.2996L25.0911 12.8841L22.8283 7.87506C22.7562 7.71373 22.639 7.57671 22.4908 7.48052C22.3426 7.38434 22.1697 7.3331 21.993 7.33301C21.8163 7.33291 21.6433 7.38395 21.495 7.47998C21.3467 7.576 21.2293 7.7129 21.1571 7.87415L18.8943 12.8841L13.6651 13.2996C13.4894 13.3135 13.3215 13.3777 13.1813 13.4846C13.0412 13.5915 12.9348 13.7365 12.8749 13.9022C12.815 14.068 12.8041 14.2475 12.8436 14.4193C12.883 14.591 12.9711 14.7478 13.0973 14.8708L16.9616 18.6379L15.595 24.5559C15.5535 24.735 15.5668 24.9225 15.6331 25.094C15.6995 25.2655 15.8159 25.413 15.9672 25.5175C16.1185 25.6221 16.2977 25.6787 16.4816 25.6801C16.6654 25.6815 16.8455 25.6276 16.9983 25.5254L21.9927 22.1958L26.987 25.5254C27.1433 25.6291 27.3275 25.6825 27.515 25.6784C27.7025 25.6743 27.8842 25.6129 28.0358 25.5024C28.1873 25.3919 28.3014 25.2377 28.3627 25.0604C28.4239 24.8832 28.4294 24.6914 28.3785 24.5109L26.7008 18.6406L30.8614 14.8965C31.1338 14.6507 31.2338 14.2673 31.1164 13.9196Z" fill="#FFCE31"/>
<path d="M39.0463 18.9308V18.2028L44.2403 11.7068H45.3603L40.2083 18.2028L39.6623 18.0348H47.5443V18.9308H39.0463ZM44.5763 21.5068V18.9308L44.6043 18.0348V15.7668H45.5843V21.5068H44.5763ZM49.4996 21.5768C49.2943 21.5768 49.117 21.5022 48.9676 21.3528C48.8276 21.2035 48.7576 21.0215 48.7576 20.8068C48.7576 20.5828 48.8276 20.4008 48.9676 20.2608C49.117 20.1208 49.2943 20.0508 49.4996 20.0508C49.705 20.0508 49.8776 20.1208 50.0176 20.2608C50.167 20.4008 50.2416 20.5828 50.2416 20.8068C50.2416 21.0215 50.167 21.2035 50.0176 21.3528C49.8776 21.5022 49.705 21.5768 49.4996 21.5768ZM54.7624 11.6228C55.6304 11.6228 56.3631 11.8188 56.9604 12.2108C57.5578 12.5935 58.0104 13.1488 58.3184 13.8768C58.6264 14.6048 58.7804 15.4868 58.7804 16.5228C58.7804 17.6242 58.5891 18.5528 58.2064 19.3088C57.8331 20.0648 57.3104 20.6342 56.6384 21.0168C55.9664 21.3995 55.1871 21.5908 54.3004 21.5908C53.8618 21.5908 53.4418 21.5488 53.0404 21.4648C52.6484 21.3808 52.2938 21.2455 51.9764 21.0588L52.3824 20.2468C52.6344 20.4148 52.9238 20.5362 53.2504 20.6108C53.5864 20.6762 53.9318 20.7088 54.2864 20.7088C55.3411 20.7088 56.1811 20.3728 56.8064 19.7008C57.4411 19.0288 57.7584 18.0255 57.7584 16.6908C57.7584 16.4762 57.7444 16.2195 57.7164 15.9208C57.6978 15.6222 57.6464 15.3235 57.5624 15.0248L57.9124 15.2908C57.8191 15.7762 57.6184 16.1915 57.3104 16.5368C57.0118 16.8728 56.6384 17.1295 56.1904 17.3068C55.7518 17.4842 55.2618 17.5728 54.7204 17.5728C54.0764 17.5728 53.5024 17.4515 52.9984 17.2088C52.5038 16.9662 52.1164 16.6255 51.8364 16.1868C51.5564 15.7482 51.4164 15.2302 51.4164 14.6328C51.4164 14.0168 51.5611 13.4848 51.8504 13.0368C52.1398 12.5888 52.5364 12.2435 53.0404 12.0008C53.5538 11.7488 54.1278 11.6228 54.7624 11.6228ZM54.8044 12.4768C54.3378 12.4768 53.9224 12.5655 53.5584 12.7428C53.2038 12.9108 52.9238 13.1535 52.7184 13.4708C52.5131 13.7882 52.4104 14.1662 52.4104 14.6048C52.4104 15.2488 52.6298 15.7622 53.0684 16.1448C53.5164 16.5275 54.1184 16.7188 54.8744 16.7188C55.3784 16.7188 55.8171 16.6255 56.1904 16.4388C56.5731 16.2522 56.8671 15.9955 57.0724 15.6688C57.2871 15.3422 57.3944 14.9782 57.3944 14.5768C57.3944 14.2128 57.2964 13.8722 57.1004 13.5548C56.9044 13.2375 56.6151 12.9808 56.2324 12.7848C55.8498 12.5795 55.3738 12.4768 54.8044 12.4768Z" fill="white"/>
</svg>
