<svg width="136" height="147" viewBox="0 0 136 147" fill="none" xmlns="http://www.w3.org/2000/svg">
<g filter="url(#filter0_d_173_3834)">
<rect x="12.6777" y="49.1805" width="77.2786" height="77.2786" rx="5" transform="rotate(-30 12.6777 49.1805)" fill="#FEB71B"/>
</g>
<g filter="url(#filter1_d_173_3834)">
<circle cx="80.3901" cy="19.7671" r="13.7384" transform="rotate(-30 80.3901 19.7671)" fill="#FA5857"/>
</g>
<path d="M81.2719 21.7538C80.8446 22.0004 80.391 22.1815 79.9111 22.2969C79.4336 22.4032 78.993 22.4267 78.5892 22.3673L78.5692 21.2126C78.8919 21.2649 79.2408 21.2559 79.6159 21.1856C79.991 21.1153 80.3489 20.9818 80.6895 20.7851C81.0937 20.5518 81.3617 20.2893 81.4935 19.9977C81.622 19.7002 81.6046 19.4101 81.4413 19.1272C81.2813 18.85 81.0507 18.6906 80.7495 18.649C80.4483 18.6073 80.0668 18.7198 79.6049 18.9865L79.0506 19.3065L78.6056 18.5357L79.1477 15.4746L79.5399 15.8139L76.2837 17.6939L75.7387 16.75L79.8696 14.365L80.3046 15.1184L79.7625 18.1796L78.9736 18.1732L79.3114 17.9782C80.0562 17.5482 80.71 17.3939 81.2728 17.5154C81.8381 17.6279 82.2707 17.9439 82.5707 18.4635C82.7674 18.8041 82.8625 19.1688 82.8559 19.5575C82.8494 19.9461 82.7188 20.3333 82.4642 20.719C82.212 21.0955 81.8146 21.4404 81.2719 21.7538Z" fill="white"/>
<g opacity="0.8" clip-path="url(#clip0_173_3834)">
<path d="M74.8498 79.5901C70.5356 82.0809 65.4087 82.7558 60.5969 81.4665C55.785 80.1772 51.6825 77.0292 49.1917 72.715C46.7009 68.4009 46.026 63.2739 47.3153 58.4621C48.6046 53.6503 51.7526 49.5477 56.0668 47.057C60.3809 44.5662 65.5078 43.8912 70.3197 45.1805C75.1315 46.4699 79.234 49.6179 81.7248 53.932C84.2156 58.2462 84.8906 63.3731 83.6013 68.1849C82.3119 72.9967 79.1639 77.0993 74.8498 79.5901ZM76.1914 81.9139C81.1219 79.0673 84.7196 74.3786 86.1931 68.8794C87.6666 63.3802 86.8952 57.5208 84.0486 52.5904C81.202 47.6599 76.5134 44.0622 71.0141 42.5887C65.5149 41.1152 59.6556 41.8866 54.7251 44.7332C49.7946 47.5798 46.1969 52.2684 44.7234 57.7676C43.2499 63.2669 44.0213 69.1262 46.8679 74.0567C49.7145 78.9871 54.4032 82.5848 59.9024 84.0584C65.4016 85.5319 71.2609 84.7605 76.1914 81.9139Z" fill="white"/>
<path d="M58.9289 71.949C59.1068 71.6409 59.3998 71.416 59.7435 71.3239C60.0872 71.2318 60.4534 71.28 60.7616 71.4579C62.1894 72.2829 63.8095 72.7172 65.4585 72.717C67.1076 72.7168 68.7275 72.2821 70.1552 71.4567C71.5838 70.633 72.7702 69.4475 73.5949 68.0194C74.4197 66.5914 74.8536 64.9713 74.8531 63.3222C74.8519 63.1453 74.8857 62.9698 74.9526 62.806C75.0195 62.6422 75.1182 62.4933 75.2429 62.3678C75.3676 62.2422 75.5159 62.1426 75.6792 62.0746C75.8426 62.0067 76.0178 61.9717 76.1947 61.9717C76.3716 61.9717 76.5468 62.0067 76.7102 62.0747C76.8735 62.1426 77.0218 62.2423 77.1465 62.3678C77.2712 62.4933 77.3698 62.6423 77.4367 62.8061C77.5036 62.9699 77.5375 63.1453 77.5363 63.3222C77.5368 65.4423 76.9789 67.5251 75.9187 69.3611C74.8585 71.197 73.3334 72.7213 71.4968 73.7805C69.6613 74.8414 67.5787 75.4 65.4586 75.4002C63.3385 75.4004 61.2558 74.8422 59.42 73.7817C59.1118 73.6038 58.887 73.3107 58.7949 72.967C58.7028 72.6234 58.751 72.2572 58.9289 71.949ZM61.1232 61.1794C62.2341 63.1035 62.0946 65.2661 60.8119 66.0067C59.5291 66.7473 57.5865 65.7868 56.4756 63.8627C55.3647 61.9386 55.5042 59.7759 56.7869 59.0353C58.0697 58.2947 60.0123 59.2553 61.1232 61.1794ZM70.4184 55.8128C71.5292 57.7369 71.3898 59.8995 70.107 60.6401C68.8243 61.3807 66.8817 60.4202 65.7708 58.4961C64.6599 56.572 64.7994 54.4093 66.0821 53.6687C67.3648 52.9282 69.3075 53.8887 70.4184 55.8128Z" fill="white"/>
</g>
<defs>
<filter id="filter0_d_173_3834" x="-4.49219" y="6.37048" width="139.904" height="139.906" filterUnits="userSpaceOnUse" color-interpolation-filters="sRGB">
<feFlood flood-opacity="0" result="BackgroundImageFix"/>
<feColorMatrix in="SourceAlpha" type="matrix" values="0 0 0 0 0 0 0 0 0 0 0 0 0 0 0 0 0 0 127 0" result="hardAlpha"/>
<feOffset dy="13"/>
<feGaussianBlur stdDeviation="9.5"/>
<feColorMatrix type="matrix" values="0 0 0 0 0 0 0 0 0 0 0 0 0 0 0 0 0 0 0.07 0"/>
<feBlend mode="normal" in2="BackgroundImageFix" result="effect1_dropShadow_173_3834"/>
<feBlend mode="normal" in="SourceGraphic" in2="effect1_dropShadow_173_3834" result="shape"/>
</filter>
<filter id="filter1_d_173_3834" x="47.6484" y="0.0263672" width="65.4824" height="65.4814" filterUnits="userSpaceOnUse" color-interpolation-filters="sRGB">
<feFlood flood-opacity="0" result="BackgroundImageFix"/>
<feColorMatrix in="SourceAlpha" type="matrix" values="0 0 0 0 0 0 0 0 0 0 0 0 0 0 0 0 0 0 127 0" result="hardAlpha"/>
<feOffset dy="13"/>
<feGaussianBlur stdDeviation="9.5"/>
<feColorMatrix type="matrix" values="0 0 0 0 0 0 0 0 0 0 0 0 0 0 0 0 0 0 0.07 0"/>
<feBlend mode="normal" in2="BackgroundImageFix" result="effect1_dropShadow_173_3834"/>
<feBlend mode="normal" in="SourceGraphic" in2="effect1_dropShadow_173_3834" result="shape"/>
</filter>
<clipPath id="clip0_173_3834">
<rect width="42.9326" height="42.9326" fill="white" transform="translate(36.1348 55.4663) rotate(-30)"/>
</clipPath>
</defs>
</svg>
