<svg width="129" height="129" viewBox="0 0 129 129" fill="none" xmlns="http://www.w3.org/2000/svg">
<g filter="url(#filter0_d_173_3843)">
<rect x="37.668" y="5" width="75.995" height="75.995" rx="5" transform="rotate(15 37.668 5)" fill="#FEB71B"/>
</g>
<g clip-path="url(#clip0_173_3843)">
<path fill-rule="evenodd" clip-rule="evenodd" d="M63.1971 34.1001C61.5971 32.8001 58.8971 32.6001 57.0971 34.1001C56.3971 34.7001 55.5971 35.7001 55.2971 37.7001C55.1971 38.5001 56.1971 38.7001 56.6971 38.2001C58.0971 36.5001 60.1971 34.9001 62.4971 35.1001C63.1971 35.2001 63.6971 34.6001 63.1971 34.1001ZM56.7971 60.8001C35.3971 27.1001 64.0971 20.3001 69.7971 33.0001C69.8971 33.1001 69.9971 33.3001 69.9971 33.5001C70.1971 33.4001 70.2971 33.4001 70.4971 33.3001C83.5971 28.6001 98.5971 53.9001 59.4971 61.9001L59.5971 63.5001C59.5971 63.6001 59.5971 63.7001 59.5971 63.8001C59.5971 63.9001 59.4971 64.0001 59.4971 64.1001C59.3971 64.2001 59.3971 64.2001 59.2971 64.3001C59.1971 64.3001 59.0971 64.4001 58.9971 64.4001C58.8971 64.4001 58.7971 64.4001 58.6971 64.4001C58.5971 64.4001 58.4971 64.3001 58.3971 64.2001C58.2971 64.1001 58.2971 64.1001 58.1971 64.0001C58.0971 63.9001 58.0971 63.8001 58.0971 63.7001V63.6001C57.9971 63.9001 57.9971 64.1001 57.8971 64.4001C57.6971 65.2001 57.7971 66.0001 57.8971 67.7001C57.9971 69.7001 57.1971 71.2001 56.1971 72.4001C55.1971 73.5001 53.9971 74.3001 53.1971 74.8001C53.0971 74.9001 52.9971 74.9001 52.8971 74.9001C52.7971 74.9001 52.6971 74.9001 52.5971 74.9001C52.4971 74.9001 52.3971 74.8001 52.2971 74.8001C52.1971 74.7001 52.0971 74.7001 52.0971 74.6001C52.0971 74.5001 51.9971 74.4001 51.9971 74.3001C51.9971 74.2001 51.9971 74.1001 51.9971 74.0001C51.9971 73.9001 52.0971 73.8001 52.0971 73.7001C52.1971 73.6001 52.1971 73.5001 52.2971 73.5001C53.0971 73.0001 54.1971 72.3001 54.9971 71.4001C55.7971 70.4001 56.3971 69.3001 56.2971 67.8001V67.7001C56.1971 66.1001 56.0971 65.1001 56.3971 64.1001C56.4971 63.6001 56.5971 63.2001 56.7971 62.8001L56.5971 63.0001C56.4971 63.1001 56.3971 63.1001 56.2971 63.1001C56.1971 63.1001 56.0971 63.1001 55.9971 63.1001C55.8971 63.1001 55.7971 63.1001 55.6971 63.0001C55.5971 63.0001 55.4971 62.9001 55.4971 62.8001C55.3971 62.7001 55.3971 62.6001 55.3971 62.5001C55.3971 62.4001 55.3971 62.3001 55.3971 62.2001C55.3971 62.1001 55.3971 62.0001 55.4971 61.9001C55.4971 61.8001 55.5971 61.7001 55.6971 61.7001L56.7971 60.8001ZM68.2971 37.5001L67.1971 34.6001C65.3971 30.0001 58.9971 28.5001 55.0971 31.8001C53.2971 33.3001 51.7971 36.1001 52.0971 40.7001C52.3971 45.1001 54.2971 51.1001 59.1971 58.9001C68.1971 57.0001 73.8971 54.2001 77.1971 51.4001C80.6971 48.4001 81.6971 45.4001 81.4971 43.1001C81.0971 38.0001 75.6971 34.4001 71.0971 36.3001L68.2971 37.5001Z" fill="white"/>
</g>
<defs>
<filter id="filter0_d_173_3843" x="0.121094" y="0.122437" width="128.83" height="128.83" filterUnits="userSpaceOnUse" color-interpolation-filters="sRGB">
<feFlood flood-opacity="0" result="BackgroundImageFix"/>
<feColorMatrix in="SourceAlpha" type="matrix" values="0 0 0 0 0 0 0 0 0 0 0 0 0 0 0 0 0 0 127 0" result="hardAlpha"/>
<feOffset dy="13"/>
<feGaussianBlur stdDeviation="9.5"/>
<feColorMatrix type="matrix" values="0 0 0 0 0 0 0 0 0 0 0 0 0 0 0 0 0 0 0.07 0"/>
<feBlend mode="normal" in2="BackgroundImageFix" result="effect1_dropShadow_173_3843"/>
<feBlend mode="normal" in="SourceGraphic" in2="effect1_dropShadow_173_3843" result="shape"/>
</filter>
<clipPath id="clip0_173_3843">
<rect width="35.7" height="47.9" fill="white" transform="translate(48.998 27)"/>
</clipPath>
</defs>
</svg>
