<svg width="74" height="69" viewBox="0 0 74 69" fill="none" xmlns="http://www.w3.org/2000/svg">
<g filter="url(#filter0_d_2703_16765)">
<rect x="20.4785" y="2.70886" width="40.4407" height="40.4407" rx="2.61655" transform="rotate(15 20.4785 2.70886)" fill="#FEB71B"/>
</g>
<g filter="url(#filter1_d_2703_16765)">
<circle cx="56.4158" cy="16.8811" r="7.18947" transform="rotate(15 56.4158 16.8811)" fill="#FA5857"/>
</g>
<path d="M56.307 18.0413L57.1873 14.7557L57.3955 15.1311L56.3593 14.8534L56.5069 14.3025L57.9122 14.679L56.9641 18.2174L56.307 18.0413Z" fill="white"/>
<g opacity="0.8" clip-path="url(#clip0_2703_16765)">
<path d="M32.2313 36.9672C29.7132 36.2925 27.5663 34.6451 26.2629 32.3875C24.9594 30.1298 24.6062 27.4469 25.2809 24.9288C25.9556 22.4107 27.603 20.2638 29.8607 18.9604C32.1183 17.6569 34.8013 17.3037 37.3194 17.9784C39.8374 18.6531 41.9844 20.3005 43.2878 22.5581C44.5913 24.8158 44.9445 27.4988 44.2698 30.0168C43.595 32.5349 41.9477 34.6818 39.69 35.9853C37.4324 37.2887 34.7494 37.642 32.2313 36.9672ZM31.8679 38.3236C34.7457 39.0947 37.8119 38.691 40.3921 37.2013C42.9723 35.7117 44.855 33.2581 45.6261 30.3803C46.3972 27.5025 45.9935 24.4362 44.5039 21.856C43.0142 19.2759 40.5606 17.3932 37.6828 16.6221C34.805 15.8509 31.7387 16.2546 29.1586 17.7443C26.5784 19.2339 24.6957 21.6876 23.9246 24.5654C23.1535 27.4432 23.5572 30.5094 25.0468 33.0896C26.5365 35.6698 28.9901 37.5525 31.8679 38.3236Z" fill="white"/>
<path d="M29.1676 28.2482C29.3474 28.2 29.539 28.2252 29.7003 28.3183C29.8616 28.4114 29.9792 28.5648 30.0274 28.7446C30.2505 29.5783 30.6893 30.3384 31.2996 30.9486C31.9099 31.5587 32.6702 31.9973 33.5039 32.2201C34.3373 32.444 35.215 32.4443 36.0486 32.2211C36.8822 31.9978 37.6423 31.5589 38.2523 30.9485C38.3174 30.8826 38.3948 30.8302 38.4802 30.7943C38.5655 30.7585 38.6571 30.7398 38.7497 30.7395C38.8423 30.7392 38.9341 30.7572 39.0197 30.7925C39.1053 30.8278 39.183 30.8797 39.2485 30.9452C39.314 31.0106 39.3659 31.0884 39.4011 31.174C39.4364 31.2596 39.4544 31.3514 39.4541 31.444C39.4538 31.5365 39.4352 31.6282 39.3994 31.7135C39.3635 31.7989 39.3111 31.8763 39.2452 31.9414C38.4609 32.7261 37.4837 33.2903 36.412 33.5774C35.3404 33.8644 34.212 33.8641 33.1404 33.5765C32.0686 33.2898 31.0913 32.7259 30.3067 31.9415C29.5221 31.157 28.958 30.1798 28.6711 29.1081C28.6229 28.9282 28.6482 28.7366 28.7413 28.5753C28.8344 28.414 28.9877 28.2964 29.1676 28.2482ZM33.9647 25.075C33.6638 26.198 32.8119 26.9467 32.0632 26.7461C31.3145 26.5455 30.9511 25.4712 31.252 24.3481C31.5529 23.2251 32.4048 22.4764 33.1535 22.677C33.9022 22.8776 34.2656 23.9519 33.9647 25.075ZM39.3901 26.5287C39.0891 27.6518 38.2373 28.4004 37.4886 28.1998C36.7399 27.9992 36.3765 26.9249 36.6774 25.8018C36.9783 24.6788 37.8302 23.9301 38.5789 24.1308C39.3276 24.3314 39.691 25.4057 39.3901 26.5287Z" fill="white"/>
</g>
<defs>
<filter id="filter0_d_2703_16765" x="0.656705" y="0.1564" width="68.2393" height="68.2405" filterUnits="userSpaceOnUse" color-interpolation-filters="sRGB">
<feFlood flood-opacity="0" result="BackgroundImageFix"/>
<feColorMatrix in="SourceAlpha" type="matrix" values="0 0 0 0 0 0 0 0 0 0 0 0 0 0 0 0 0 0 127 0" result="hardAlpha"/>
<feOffset dy="6.80304"/>
<feGaussianBlur stdDeviation="4.97145"/>
<feColorMatrix type="matrix" values="0 0 0 0 0 0 0 0 0 0 0 0 0 0 0 0 0 0 0.07 0"/>
<feBlend mode="normal" in2="BackgroundImageFix" result="effect1_dropShadow_2703_16765"/>
<feBlend mode="normal" in="SourceGraphic" in2="effect1_dropShadow_2703_16765" result="shape"/>
</filter>
<filter id="filter1_d_2703_16765" x="39.2817" y="6.54995" width="34.2686" height="34.2683" filterUnits="userSpaceOnUse" color-interpolation-filters="sRGB">
<feFlood flood-opacity="0" result="BackgroundImageFix"/>
<feColorMatrix in="SourceAlpha" type="matrix" values="0 0 0 0 0 0 0 0 0 0 0 0 0 0 0 0 0 0 127 0" result="hardAlpha"/>
<feOffset dy="6.80304"/>
<feGaussianBlur stdDeviation="4.97145"/>
<feColorMatrix type="matrix" values="0 0 0 0 0 0 0 0 0 0 0 0 0 0 0 0 0 0 0.07 0"/>
<feBlend mode="normal" in2="BackgroundImageFix" result="effect1_dropShadow_2703_16765"/>
<feBlend mode="normal" in="SourceGraphic" in2="effect1_dropShadow_2703_16765" result="shape"/>
</filter>
<clipPath id="clip0_2703_16765">
<rect width="22.4671" height="22.4671" fill="white" transform="translate(26.832 13.7147) rotate(15)"/>
</clipPath>
</defs>
</svg>
