<svg width="132" height="164" viewBox="0 0 132 164" fill="none" xmlns="http://www.w3.org/2000/svg">
<path d="M12.2676 42.2725C14.7676 38.9725 15.8676 35.1725 16.1676 31.1725C16.1676 30.4725 16.0676 29.7725 16.2676 29.1725C19.2676 22.9725 23.0676 16.9725 28.1676 12.5725C35.6676 6.17246 45.2676 2.87246 54.8676 0.472464C60.1676 -0.827536 62.5676 0.372464 66.3676 6.37246C69.1676 2.67246 72.7676 0.472464 77.4676 0.572464C78.9676 0.572464 80.8676 0.472465 81.7676 1.57246C84.7676 5.47247 89.1676 4.57246 93.0676 5.67246C100.868 7.97246 106.068 13.3725 109.268 20.7725C109.868 22.1725 110.068 23.5725 111.368 24.5725C116.768 28.9725 117.968 35.0725 116.768 41.4725C116.268 44.2725 116.268 46.0725 118.868 47.7725C124.068 51.1725 127.068 55.9725 126.168 62.4725C125.968 64.2725 127.168 65.5725 127.868 67.0725C131.168 73.8725 133.068 80.7725 129.768 88.0725C129.068 89.5725 129.568 90.5725 130.168 91.7725C133.068 98.6725 131.668 104.972 127.468 110.872C126.368 108.672 127.668 106.772 127.968 104.772C128.668 100.872 130.068 97.0725 128.468 93.0725C128.068 92.1725 127.868 90.5725 126.768 91.0725C123.768 92.4725 119.668 91.0725 117.868 95.3725C116.968 97.5725 115.168 99.3725 113.768 101.572C116.868 103.272 120.268 104.472 122.168 107.372C123.468 109.372 125.268 110.372 127.468 110.872C127.568 115.372 128.268 120.072 122.668 122.172C121.868 122.472 121.668 123.472 121.668 124.272C121.068 134.272 114.568 140.072 106.868 144.772C103.868 146.572 101.968 148.672 100.368 151.872C96.0676 160.772 90.3676 163.872 80.6676 162.872C77.2676 162.572 74.5676 161.272 73.8676 157.472C73.6676 156.472 73.7676 155.472 72.6676 154.872C69.2676 153.272 68.1676 149.672 65.8676 146.572C63.8676 149.372 62.0676 152.172 60.0676 154.772C52.9676 163.672 45.1676 164.772 36.2676 157.772C36.5676 157.372 36.8676 157.072 37.1676 156.672C39.8676 157.872 42.6676 158.872 45.6676 159.472C48.9676 160.072 51.9676 159.672 54.5676 157.472C58.3676 154.172 61.2676 149.972 62.9676 145.372C64.4676 141.172 64.8676 136.272 62.7676 132.272C60.8676 128.572 56.3676 130.772 53.1676 130.072C51.7676 129.772 50.1676 129.972 48.6676 129.672C44.6676 128.772 40.5676 127.972 37.9676 124.172C38.1676 123.972 38.3676 123.772 38.4676 123.572C45.7676 128.872 54.3676 127.372 62.5676 127.872C64.2676 127.972 64.9676 126.372 64.3676 125.072C62.5676 121.172 63.4676 117.272 63.6676 113.272C63.8676 110.472 63.5676 108.072 59.2676 109.572C60.3676 105.772 58.2676 102.772 58.1676 98.9725C60.5676 100.372 61.3676 101.972 61.6676 104.072C62.1676 106.772 62.3676 106.772 65.2676 106.172C66.0676 106.072 66.5676 105.672 66.7676 104.872C66.3676 104.772 65.8676 104.772 65.4676 104.672C64.9676 97.6725 63.5676 95.8725 58.5676 94.9725C56.3676 94.5725 54.2676 95.0725 52.2676 95.8725C48.4676 97.3725 45.0676 97.1725 41.4676 94.6725C37.2676 91.6725 34.8676 92.3725 31.9676 96.6725C30.8676 98.2725 30.2676 100.272 28.1676 101.872C29.0676 97.3725 31.3676 94.1725 33.3676 90.9725C32.6676 89.8725 31.7676 89.8725 30.9676 89.6725C25.3676 88.3725 22.8676 84.5725 23.5676 78.8725C23.7676 76.8725 24.8676 74.5725 22.0676 73.1725C19.1676 71.7725 17.8676 73.9725 16.0676 75.2725C13.3676 77.2725 12.1676 81.0725 8.26758 81.4725L8.36757 81.5725C12.9676 77.1725 10.3676 71.5725 9.86757 66.2725C10.2676 66.2725 10.5676 66.3725 10.9676 66.3725C12.0676 68.3725 13.0676 70.4725 14.0676 72.3725C16.6676 72.4725 18.6676 69.2725 20.6676 70.6725C23.6676 72.8725 25.3676 71.1725 27.3676 69.5725L27.2676 69.4725C27.8676 70.9725 27.0676 72.3725 26.7676 73.8725C25.1676 83.0725 26.1676 85.0725 34.4676 88.8725C35.5676 89.3725 36.5676 90.1725 37.6676 90.2725C41.6676 90.8725 44.7676 95.1725 49.1676 93.7725C53.7676 92.3725 58.1676 91.9725 62.6676 93.4725C64.8676 86.0725 64.4676 85.4725 57.7676 84.1725C57.9676 83.1725 58.6676 82.6725 59.4676 82.5725C64.3676 82.5725 64.4676 79.3725 64.1676 75.7725C63.7676 71.6725 60.8676 71.8725 57.8676 72.0725C55.4676 72.2725 52.9676 72.2725 51.1676 69.9725C55.7676 70.2725 60.1676 68.5725 65.6676 70.1725C63.5676 67.2725 63.9676 64.7725 64.0676 62.3725C64.2676 59.0725 64.6676 55.6725 64.6676 52.3725C64.6676 44.9725 60.9676 42.2725 53.7676 44.1725C52.8676 44.3725 52.0676 45.2725 50.8676 44.7725C51.8676 42.1725 54.0676 41.7725 56.3676 41.3725C58.7676 40.9725 61.8676 42.8725 63.5676 40.9725C65.3676 38.8725 62.9676 35.9725 63.2676 33.2725C63.3676 32.6725 63.1676 31.9725 63.0676 31.2725C63.6676 25.0725 63.2676 19.2725 56.4676 15.6725C59.7676 14.5725 61.2676 17.4725 63.7676 17.9725C64.1676 16.1725 64.6676 14.6725 64.8676 13.0725C66.1676 4.87247 60.9676 0.572464 53.2676 3.37246C50.4676 4.37246 47.6676 5.67246 44.7676 6.27246C38.0676 7.57246 33.2676 12.4725 27.3676 15.1725C26.3676 15.6725 25.6676 16.8725 25.5676 18.0725C27.5676 19.3725 29.1676 17.0725 31.1676 18.1725C25.9676 21.6725 18.7676 23.2725 19.2676 31.4725C17.6676 35.4725 18.0676 40.3725 13.4676 42.7725C13.0676 42.8725 12.6676 42.5725 12.2676 42.2725ZM103.868 20.1725C104.968 20.6725 105.568 22.2725 107.668 21.6725C103.268 14.1725 97.4676 8.97246 89.1676 6.87246C87.0676 6.37246 85.3676 6.47246 84.5676 9.17246C83.9676 11.2725 82.4676 12.8725 79.4676 12.4725C81.7676 10.3725 84.5676 8.27246 82.5676 5.27246C80.6676 2.47246 77.3676 2.87246 74.3676 3.77246C69.0676 5.37246 66.7676 9.97246 67.7676 16.6725C72.9676 14.3725 74.9676 14.5725 79.6676 17.4725C68.5676 17.1725 66.6676 19.1725 66.4676 30.8725C66.4676 31.1725 66.5676 31.5725 66.5676 31.8725C65.7676 40.5725 66.9676 42.0725 75.6676 42.7725C78.0676 42.9725 80.2676 43.3725 81.2676 45.8725L81.3676 45.7725C76.7676 44.2725 71.9676 44.9725 67.2676 44.6725C67.1676 43.8725 67.0676 42.9725 65.9676 42.9725C65.7676 42.9725 65.4676 43.4725 65.5676 43.6725C65.6676 44.9725 66.6676 44.4725 67.3676 44.5725C67.4676 51.1725 68.2676 57.7725 67.3676 64.3725C66.9676 67.1725 67.4676 68.9725 71.1676 69.0725C74.8676 69.1725 78.6676 70.1725 83.4676 70.0725C79.2676 73.2725 75.5676 71.8725 72.0676 71.7725C67.1676 71.6725 66.8676 72.0725 66.5676 77.5725C66.3676 81.1725 67.1676 83.4725 71.5676 82.5725C72.6676 82.3725 74.0676 82.1725 75.2676 83.2725C66.1676 87.1725 65.1676 88.5725 67.0676 94.8725C72.0676 91.7725 72.0676 92.0725 78.8676 93.3725C82.5676 94.0725 86.4676 94.2725 90.0676 92.2725C92.9676 90.6725 95.7676 88.8725 99.4676 89.5725C101.468 89.9725 102.368 88.0725 103.068 86.6725C105.568 81.4725 107.868 76.1725 104.068 70.8725C110.568 71.9725 116.368 76.6725 122.968 71.9725C121.268 78.3725 120.468 78.7725 114.468 75.9725C113.568 75.5725 112.668 74.9725 111.768 74.7725C110.368 74.4725 108.868 74.7725 108.868 76.5725C108.968 82.0725 103.268 86.9725 107.368 92.8725C107.368 92.9725 106.968 93.2725 106.768 93.5725C105.168 93.2725 104.368 90.5725 102.568 91.7725C100.768 92.9725 102.468 94.7725 102.368 96.3725C102.268 97.5725 102.168 98.7725 102.068 100.072C100.768 99.5725 100.668 98.6725 100.468 97.9725C98.9676 90.9725 98.8676 90.8725 92.6676 94.1725C88.3676 96.5725 83.8676 96.9725 79.1676 95.8725C77.3676 95.4725 75.6676 94.7725 73.8676 94.6725C70.8676 94.5725 68.8676 96.5725 67.6676 98.9725C66.9676 100.372 66.5676 102.572 68.0676 103.572C70.1676 104.972 71.5676 102.172 73.4676 101.872L73.3676 101.772C73.7676 103.972 71.8676 104.672 70.5676 105.372C67.4676 106.972 66.6676 109.672 66.4676 112.772C65.4676 128.872 76.4676 131.772 88.7676 127.772C91.1676 126.972 93.6676 124.972 93.1676 122.372C92.2676 117.872 95.4676 116.372 97.7676 114.072C99.2676 112.572 101.268 111.672 103.168 110.572C101.968 108.672 100.068 107.772 98.4676 106.672C97.6676 106.072 96.5676 105.472 95.8676 106.572C91.4676 112.872 83.7676 111.672 78.0676 115.372C77.9676 112.172 81.6676 112.472 81.6676 109.972L81.5676 110.072C87.9676 110.272 92.9676 107.872 96.2676 102.272C98.9676 104.472 102.268 105.372 104.168 108.172C105.668 106.372 106.268 104.372 108.168 103.372C116.068 98.8725 117.968 93.0725 114.068 85.2725C113.668 84.4725 113.468 83.7725 113.768 82.8725L113.668 82.9725C115.768 84.1725 117.768 85.6725 118.368 87.8725C119.468 91.8725 121.668 91.1725 124.368 89.8725C127.968 88.0725 129.168 85.0725 129.068 81.2725C128.968 75.9725 127.468 71.1725 125.468 66.2725C124.868 64.7725 123.668 63.2725 124.168 61.5725C125.268 57.9725 123.268 55.9725 121.168 53.3725C117.968 49.5725 112.668 47.8725 110.868 42.8725C109.168 38.1725 107.068 33.7725 100.868 33.5725C109.468 30.7725 110.968 37.8725 114.168 43.4725C116.168 38.8725 115.068 35.3725 113.668 31.7725C113.368 28.7725 111.268 27.3725 108.968 25.9725C106.868 24.6725 104.068 23.9725 103.468 20.9725C103.368 20.6725 103.668 20.4725 103.868 20.1725ZM94.2676 154.972C90.7676 154.972 87.6676 157.772 83.6676 156.472C87.6676 154.972 110.568 139.872 113.168 136.872C116.568 133.072 119.968 129.172 120.068 123.672C117.168 122.172 114.768 124.372 111.768 123.872C114.468 121.272 117.968 121.672 120.768 120.472C124.968 118.672 125.768 115.772 122.868 112.372C121.268 110.472 119.568 108.672 117.668 106.972C113.268 103.072 109.068 103.972 105.768 109.472C108.168 109.872 110.068 107.772 112.868 108.472C107.168 113.672 98.4676 113.572 94.6676 120.872C98.3676 122.572 100.968 119.872 104.168 118.772C104.168 120.972 104.168 122.972 104.168 124.872C104.268 126.872 105.068 128.672 106.068 130.472C107.668 133.272 109.468 130.172 112.168 130.472C108.668 135.272 103.968 135.572 99.6676 137.372C103.768 134.372 103.568 130.872 101.868 127.072C101.268 125.572 101.168 123.772 98.7676 123.872C96.8676 123.972 94.7676 123.372 93.7676 125.972C93.1676 127.772 91.5676 128.872 89.8676 129.672C83.4676 132.572 77.0676 133.172 70.5676 129.972C67.1676 128.272 66.1676 128.772 66.0676 132.672C65.9676 135.472 65.9676 138.372 66.5676 141.172C67.5676 145.272 69.2676 149.072 72.5676 151.972C75.3676 154.372 77.7676 150.672 80.4676 151.072C80.7676 151.172 81.1676 151.072 81.4676 151.072C82.4676 150.972 83.5676 150.972 83.8676 149.772C84.2676 148.372 83.1676 147.672 82.2676 146.872C80.5676 145.472 78.0676 146.472 75.6676 144.372C80.6676 145.072 83.7676 139.872 88.3676 142.272C88.2676 144.872 84.9676 143.472 84.4676 145.372C86.8676 150.272 90.4676 145.972 93.4676 146.372C93.2676 148.172 92.1676 149.272 90.8676 149.572C86.4676 150.472 83.2676 154.372 78.4676 154.172C76.9676 154.072 75.5676 155.072 75.0676 156.572C74.7676 157.672 75.3676 158.772 76.3676 159.572C80.7676 162.972 91.9676 160.072 94.2676 154.972C95.3676 154.572 97.0676 154.572 96.4676 152.472C95.0676 152.772 94.6676 153.972 94.2676 154.972ZM64.9676 21.3725C65.0676 20.8725 65.1676 20.3725 65.1676 19.9725C65.1676 19.7725 64.8676 19.5725 64.6676 19.4725C64.5676 19.8725 64.3676 20.2725 64.3676 20.6725C64.3676 20.8725 64.6676 21.0725 64.9676 21.3725Z" fill="#C8E1C1"/>
<path d="M35.0676 157.072C31.5676 150.572 25.1676 147.172 19.7676 142.672C13.6676 137.472 8.26764 131.472 8.86764 122.472C8.96764 121.372 7.96764 121.272 7.46764 120.672C5.86764 118.772 4.46764 116.672 4.96764 113.972C5.26764 112.572 4.86764 111.372 4.16764 110.172C2.56764 107.772 2.16763 104.972 1.56763 102.272C0.367634 96.3721 4.16764 90.8721 0.867637 84.2721C-1.83236 78.8721 2.56765 72.0721 3.26765 65.7721C3.66765 62.2721 5.66765 58.7721 7.26765 55.7721C9.76765 51.3721 8.76764 45.9721 12.1676 42.1721C12.5676 42.4721 12.9676 42.6721 13.2676 42.9721C13.3676 44.5721 11.6676 45.8721 12.2676 48.6721C15.7676 42.9721 19.9676 39.1721 24.3676 35.4721C25.3676 34.6721 25.8676 33.2721 25.8676 31.8721C27.5676 30.7721 26.4676 27.9721 28.9676 27.2721C28.8676 28.7721 28.7676 30.1721 28.6676 31.5721C27.9676 35.5721 25.4676 38.3721 22.3676 40.7721C17.1676 44.6721 14.3676 50.7721 9.36764 54.9721C8.76764 55.4721 8.16764 56.5721 8.86764 57.7721C9.26764 57.8721 9.76764 58.0721 10.1676 57.9721C14.7676 57.3721 19.2676 57.1721 21.7676 62.2721C22.2676 63.2721 22.9676 63.2721 23.7676 62.7721C26.3676 61.2721 28.8676 62.1721 31.4676 62.8721C35.2676 63.8721 37.0676 62.2721 36.5676 58.3721C36.2676 56.0721 34.7676 54.5721 33.2676 52.9721C30.4676 49.9721 30.1676 46.4721 32.1676 42.8721C33.2676 40.9721 34.8676 39.4721 36.7676 38.4721C39.4676 37.0721 40.2676 35.4721 37.4676 33.3721C36.7676 32.8721 36.3676 32.1721 35.7676 31.5721C34.3676 27.7721 34.2676 22.9721 27.9676 22.3721C31.8676 20.2721 34.1676 21.1721 35.6676 24.1721C36.6676 26.0721 37.3676 28.1721 38.0676 30.1721C38.4676 31.4721 39.2676 32.1721 40.5676 32.0721C41.7676 31.9721 42.7676 31.1721 42.8676 29.8721C43.0676 27.9721 43.1676 25.5721 41.4676 24.8721C36.1676 22.9721 36.2676 17.7721 34.2676 13.9721C38.3676 14.7721 38.1676 19.1721 40.6676 21.6721C41.2676 18.3721 41.8676 15.2721 44.7676 13.5721C47.4676 12.0721 50.6676 11.0721 48.8676 6.87207C51.4676 7.17207 51.5676 10.4721 54.0676 10.0721V9.97207C53.2676 12.7721 50.5676 13.0721 48.4676 14.1721C45.1676 16.0721 42.5676 18.2721 44.4676 22.9721C48.0676 20.0721 51.7676 18.5721 57.1676 20.2721C53.3676 21.5721 50.6676 22.5721 47.9676 23.5721C43.8676 25.0721 45.5676 28.8721 44.8676 31.6721C43.6676 32.9721 42.1676 34.0721 42.0676 36.3721C46.0676 36.0721 50.0676 35.2721 54.4676 36.2721C52.7676 37.9721 51.0676 37.6721 49.4676 37.7721C45.0676 38.1721 40.8676 39.0721 37.1676 41.4721C33.3676 43.9721 32.3676 48.0721 35.0676 51.1721C38.3676 54.9721 39.7676 58.6721 36.8676 63.3721C35.6676 65.2721 36.5676 66.5721 38.9676 65.9721C41.5676 65.3721 43.8676 64.0721 46.1676 62.6721C47.7676 61.6721 47.6676 60.6721 46.5676 58.9721C44.7676 56.1721 42.3676 54.4721 39.2676 52.9721C45.3676 52.9721 51.3676 49.5721 57.5676 53.0721C55.2676 54.1721 53.0676 52.9721 51.0676 53.2721C49.6676 53.4721 47.7676 53.1721 47.1676 54.7721C46.5676 56.2721 48.1676 57.0721 48.9676 57.9721C51.5676 60.8721 51.2676 62.5721 47.8676 64.5721C46.5676 65.2721 45.2676 65.9721 43.8676 66.4721C40.7676 67.6721 38.8676 69.4721 39.0676 73.0721C39.1676 75.1721 38.8676 75.1721 36.4676 76.7721C37.9676 70.1721 36.9676 67.5721 32.5676 65.6721C27.8676 63.7721 23.6676 64.8721 19.4676 68.0721C20.0676 60.8721 17.7676 58.8721 11.4676 59.9721C7.36764 60.6721 5.46763 63.4721 5.06763 67.1721C4.66763 70.6721 3.86763 74.0721 3.06763 77.4721C1.36763 85.2721 2.36764 86.9721 9.86764 89.5721C11.9676 90.2721 12.8676 89.9721 13.5676 87.9721C14.4676 85.5721 15.4676 83.2721 16.6676 80.5721C17.7676 82.5721 17.3676 83.9721 16.8676 85.0721C13.6676 91.8721 15.5676 97.4721 20.1676 102.872C21.7676 104.772 23.0676 105.572 25.5676 105.372C29.7676 105.072 32.4676 102.272 34.8676 99.9721C41.2676 103.272 43.7676 110.872 51.0676 113.172C46.7676 114.372 44.9676 113.572 41.1676 109.472C35.8676 103.572 35.8676 103.572 29.2676 107.572C29.0676 107.672 28.9676 108.172 28.8676 108.472C29.7676 112.472 34.6676 113.672 35.7676 117.972C30.3676 116.372 28.8676 114.972 26.6676 109.872C25.4676 106.972 24.2676 106.572 22.5676 109.572C22.1676 109.272 21.7676 108.972 21.4676 108.572C16.8676 102.672 16.8676 102.672 11.1676 107.972C10.4676 108.672 9.66764 109.272 8.96764 110.072C5.56764 114.272 6.76764 117.772 11.9676 119.372C14.2676 120.072 16.8676 120.472 18.1676 122.872C16.8676 122.972 15.8676 122.472 14.7676 122.272C13.1676 121.972 11.2676 120.772 10.0676 122.172C8.66763 123.772 9.96764 125.672 10.6676 127.272C13.4676 133.572 17.9676 138.372 23.4676 142.372C27.5676 145.272 31.5676 148.172 35.4676 151.272C38.5676 153.672 41.7676 155.772 46.6676 156.172C43.6676 157.072 41.5676 156.972 39.3676 156.372C38.0676 156.072 36.8676 154.572 35.4676 155.972C35.6676 156.572 35.3676 156.772 35.0676 157.072ZM6.26765 110.372C8.86765 106.772 12.5676 105.772 14.8676 103.372C17.9676 100.072 12.2676 97.6721 12.8676 94.2721C12.9676 93.8721 12.7676 93.2721 12.4676 92.8721C11.0676 90.7721 8.76764 90.6721 6.66764 90.7721C4.66764 90.7721 4.56764 92.6721 4.46764 94.0721C3.96764 99.1721 3.86765 104.272 6.26765 110.372Z" fill="#C8E1C1"/>
<path d="M36.0684 158.072C35.7684 157.772 35.3684 157.372 35.0684 157.072C35.3684 156.772 35.6684 156.472 36.0684 156.272C36.3684 156.572 36.6684 156.772 36.9684 157.072C36.6684 157.372 36.3684 157.772 36.0684 158.072Z" fill="#C8E1C1"/>
<path d="M36.8679 157.073C36.5679 156.773 36.2679 156.573 35.9679 156.273C37.4679 154.873 38.6679 156.373 39.8679 156.673C42.0679 157.173 44.1679 157.373 47.1679 156.473C42.2679 156.073 39.0679 154.073 35.9679 151.573C32.0679 148.473 27.9679 145.573 23.9679 142.673C18.4679 138.673 13.9679 133.873 11.1679 127.573C10.4679 125.973 9.06785 124.073 10.5678 122.473C11.7678 121.173 13.6679 122.273 15.2679 122.573C16.3679 122.773 17.4679 123.273 18.6679 123.173C17.3679 120.773 14.7679 120.373 12.4679 119.673C7.26786 118.073 6.06786 114.473 9.46786 110.373C10.0679 109.573 10.8679 108.973 11.6679 108.273C17.3679 102.973 17.3679 102.973 21.9679 108.873C22.2679 109.273 22.6678 109.573 23.0678 109.873L23.1679 109.973L22.9679 109.873C24.5679 106.973 25.8678 107.373 27.0678 110.173C29.2678 115.373 30.7679 116.673 36.1679 118.273C35.0679 114.073 30.1679 112.873 29.2679 108.773C29.4679 108.473 29.4679 108.073 29.6679 107.873C36.1679 103.873 36.1678 103.873 41.5678 109.773C45.3678 113.973 47.1679 114.673 51.4679 113.473C44.1679 111.173 41.6679 103.573 35.2679 100.273C32.7679 102.573 30.1679 105.373 25.9679 105.673C23.5679 105.873 22.2678 105.073 20.5678 103.173C15.8678 97.7727 13.9679 92.1727 17.2679 85.3727C17.7679 84.2727 18.2678 82.8727 17.0678 80.8727C15.8678 83.5727 14.8679 85.8727 13.9679 88.2727C13.2679 90.2727 12.3679 90.5727 10.2679 89.8727C2.76786 87.2727 1.66786 85.5727 3.46786 77.7727C4.26786 74.3727 4.96786 70.9727 5.46786 67.4727C5.96786 63.7727 7.76785 61.0727 11.8679 60.2727C18.1679 59.0727 20.5679 61.1727 19.8679 68.3727C24.0679 65.1727 28.2679 64.0727 32.9679 65.9727C37.3679 67.7727 38.3679 70.4727 36.8679 77.0727C39.1679 75.5727 39.5679 75.5727 39.4679 73.3727C39.2679 69.6727 41.1679 67.8727 44.2679 66.7727C45.6679 66.2727 46.9679 65.5727 48.2679 64.8727C51.6679 62.8727 51.8679 61.1727 49.3679 58.2727C48.5679 57.2727 46.8678 56.5727 47.5678 55.0727C48.2678 53.3727 50.0679 53.7727 51.4679 53.5727C53.5679 53.2727 55.6678 54.4727 57.9678 53.3727C51.7678 49.8727 45.7679 53.2727 39.6679 53.2727C42.6679 54.7727 45.1679 56.4727 46.9679 59.2727C48.0679 60.8727 48.1678 61.9727 46.5678 62.9727C44.2678 64.3727 41.9678 65.6727 39.3679 66.2727C36.9678 66.8727 36.0679 65.5727 37.2679 63.6727C40.1679 58.9727 38.7679 55.2727 35.4679 51.4727C32.7679 48.3727 33.7678 44.2727 37.5678 41.7727C41.2678 39.3727 45.4678 38.4727 49.8679 38.0727C51.4678 37.9727 53.1679 38.2727 54.8679 36.5727C50.4679 35.4727 46.4679 36.3727 42.4679 36.6727C42.4679 34.3727 44.0679 33.2727 45.2679 31.9727C51.1679 31.9727 57.0678 31.9727 62.9678 31.9727C63.0678 32.6727 63.2679 33.2727 63.1679 33.9727C62.8679 36.5727 65.2678 39.5727 63.4678 41.6727C61.8678 43.5727 58.7679 41.6727 56.2679 42.0727C53.9679 42.4727 51.6679 42.8727 50.7679 45.4727C51.9679 45.9727 52.7679 45.0727 53.6679 44.8727C60.8679 42.9727 64.5678 45.6727 64.5678 53.0727C64.5678 56.3727 64.1678 59.7727 63.9678 63.0727C63.7678 65.4727 63.4678 67.8727 65.5678 70.8727C60.0678 69.2727 55.6678 70.9727 51.0678 70.6727C52.8678 72.9727 55.2679 72.8727 57.7679 72.7727C60.6679 72.5727 63.6678 72.3727 64.0678 76.4727C64.4678 80.0727 64.2679 83.2727 59.3679 83.2727C58.5679 83.2727 57.8679 83.8727 57.6679 84.8727C64.4679 86.1727 64.7678 86.7727 62.5678 94.1727C58.0678 92.6727 53.5678 93.0727 49.0678 94.4727C44.6678 95.8727 41.5678 91.5727 37.5678 90.9727C36.4678 90.7727 35.4678 89.9727 34.3679 89.5727C26.0679 85.7727 24.9679 83.7727 26.6679 74.5727C26.9679 73.1727 27.7679 71.7727 27.1679 70.1727C27.6679 70.2727 27.7678 70.1727 27.5678 69.8727C27.4678 69.9727 27.3679 70.0727 27.2679 70.2727C25.2679 71.9727 23.6678 73.5727 20.5678 71.3727C18.5678 69.9727 16.5679 73.0727 13.9679 73.0727C12.9679 71.1727 11.8679 69.0727 10.8679 67.0727C10.4679 67.0727 10.1679 66.9727 9.76786 66.9727C10.2679 72.1727 12.8679 77.7727 8.26786 82.2727C8.16786 82.3727 7.96785 82.3727 7.86785 82.4727C7.86785 82.4727 7.86786 82.6727 7.96786 82.7727C8.06786 82.5727 8.06785 82.3727 8.16785 82.1727C12.0679 81.7727 13.3679 77.9727 15.9679 75.9727C17.7679 74.5727 19.0679 72.3727 21.9679 73.8727C24.7679 75.2727 23.6679 77.5727 23.4679 79.5727C22.7679 85.2727 25.2679 88.9727 30.8679 90.3727C31.6679 90.5727 32.5679 90.5727 33.2679 91.6727C31.3679 94.8727 29.0678 98.0727 28.0678 102.573C30.0678 100.973 30.7679 99.0727 31.8679 97.3727C34.7679 93.0727 37.1679 92.2727 41.3679 95.3727C44.8679 97.9727 48.3679 98.0727 52.1679 96.5727C54.1679 95.7727 56.2678 95.2727 58.4678 95.6727C63.5678 96.5727 64.8679 98.3727 65.3679 105.373L65.4678 105.273C64.3678 105.573 64.8679 106.173 65.2679 106.673V106.873C62.2679 107.373 62.1679 107.473 61.6679 104.773C61.2679 102.673 60.4679 101.073 58.1679 99.6727C58.2679 103.473 60.3679 106.373 59.2679 110.273C63.5679 108.773 63.8679 111.073 63.6679 113.973C63.4679 117.973 62.5679 121.873 64.3679 125.773C64.9679 127.073 64.3678 128.673 62.5678 128.573C54.3678 128.173 45.7679 129.573 38.4679 124.273C37.8679 122.773 38.7679 120.173 35.9679 120.173C32.8679 120.173 30.3679 118.873 27.6679 117.473C26.4679 116.873 24.6679 114.973 22.7679 116.673C22.9679 117.873 23.8679 118.273 24.8679 118.573C27.4679 119.473 28.8679 120.673 27.6679 124.073C26.7679 126.573 29.0678 130.173 26.5678 132.173C24.2678 134.073 21.2679 131.273 17.8679 131.973C21.1679 134.273 24.1679 136.473 27.7679 134.873C30.7679 133.573 30.7679 130.373 30.4679 127.473C30.2679 125.173 29.6679 123.073 32.7679 121.773C36.3679 120.273 36.3679 123.573 37.8679 124.873C40.3679 128.773 44.5678 129.473 48.5678 130.373C49.9678 130.673 51.5678 130.473 53.0678 130.773C56.3678 131.473 60.7679 129.273 62.6679 132.973C64.7679 136.973 64.4679 141.873 62.8679 146.073C61.1679 150.673 58.2679 154.873 54.4679 158.173C51.8679 160.473 48.8678 160.873 45.5678 160.173C42.4678 159.273 39.6679 158.273 36.8679 157.073ZM52.6679 139.573C48.6679 138.173 45.3679 137.673 42.3679 136.273C39.1679 134.773 37.3679 131.773 34.4679 129.373C35.5679 134.073 35.4678 134.073 33.5678 138.973C32.8678 140.673 32.5679 142.773 34.7679 144.173C36.6679 138.673 36.0679 135.973 43.6679 139.773C46.2679 141.073 49.0679 141.373 52.6679 139.573ZM51.3679 151.373C50.7679 149.173 46.6679 149.873 47.4679 146.973C48.3679 143.873 51.3679 144.573 53.7679 144.173C55.2679 143.873 56.9679 144.273 57.7679 141.873C56.4679 141.873 55.3679 142.073 54.4679 141.873C49.4679 140.673 45.0679 145.473 39.8679 143.373C38.8679 142.973 37.3679 144.673 37.4679 146.473C41.8679 145.973 41.8679 145.973 45.4679 149.773C47.0679 151.373 48.9678 152.073 51.3679 151.373ZM52.9679 76.4727C48.2679 79.0727 45.9678 72.1727 40.8679 74.7727C47.2679 76.7727 47.8679 81.7727 48.1679 86.9727C48.1679 87.0727 48.6679 87.1727 49.2679 87.4727C50.0679 83.7727 50.2679 79.8727 52.9679 76.4727ZM59.4678 119.573C56.1678 120.973 54.0678 119.573 52.0678 117.373C49.6678 114.873 46.9679 115.173 44.2679 117.173C47.5679 117.273 49.8678 118.773 52.0678 120.973C54.5678 123.473 57.2678 123.173 59.4678 119.573ZM52.4679 107.873C51.1679 105.273 50.2679 103.273 49.1679 101.073C46.9679 104.973 47.4679 106.073 52.4679 107.873ZM17.1679 69.2727C18.2679 70.0727 18.8679 69.4727 19.3679 68.5727C19.4679 68.4727 19.0679 67.9727 18.9679 67.9727C18.0679 67.9727 17.5679 68.4727 17.1679 69.2727Z" fill="#5AB35A"/>
<path d="M73.2672 101.873C71.3672 102.173 69.9672 104.973 67.8672 103.573C66.2672 102.573 66.7672 100.373 67.4672 98.9729C68.6672 96.5729 70.6672 94.5729 73.6672 94.6729C75.4672 94.7729 77.2672 95.4728 78.9672 95.8728C83.6672 96.9728 88.1672 96.5729 92.4672 94.1729C98.5672 90.7729 98.6672 90.9729 100.267 97.9729C100.467 98.7729 100.467 99.6728 101.867 100.073C101.967 98.7728 102.067 97.5728 102.167 96.3728C102.367 94.8728 100.567 92.9729 102.367 91.7729C104.267 90.5729 105.067 93.3728 106.567 93.5728C106.767 93.3728 107.167 92.9729 107.167 92.8729C103.167 86.9729 108.767 82.0728 108.667 76.5728C108.667 74.7729 110.167 74.4729 111.567 74.7729C112.567 74.9729 113.367 75.4729 114.267 75.9729C120.167 78.7729 121.067 78.3729 122.767 71.9729C116.167 76.6729 110.467 71.9729 103.867 70.8729C107.567 76.1729 105.367 81.4729 102.867 86.6729C102.167 88.1729 101.267 89.9729 99.2672 89.5728C95.5672 88.8728 92.7672 90.6729 89.8672 92.2729C86.2672 94.2729 82.3672 94.0729 78.6672 93.3729C71.8672 92.0729 71.9672 91.8729 66.8672 94.8729C64.9672 88.6729 65.9672 87.1729 75.0672 83.2729C73.8672 82.1729 72.5672 82.3728 71.3672 82.5728C67.0672 83.4729 66.2672 81.1728 66.3672 77.5728C66.5672 71.9729 66.8672 71.6729 71.8672 71.7729C75.3672 71.8729 78.9672 73.2729 83.2672 70.0728C78.3672 70.1728 74.6672 69.1728 70.9672 69.0728C67.2672 68.9729 66.7672 67.1729 67.1672 64.3729C68.0672 57.7729 67.2672 51.1729 67.1672 44.5729L67.0672 44.6729C71.7672 44.9729 76.5672 44.2729 81.1672 45.7729C81.3672 45.9729 81.5672 46.3729 81.8672 46.3729C82.2672 46.4729 82.3672 46.0729 82.0672 45.8729C81.8672 45.7729 81.4672 45.8729 81.1672 45.8729C80.1672 43.3729 77.9672 42.9729 75.5672 42.7729C66.8672 42.0729 65.6672 40.6729 66.4672 31.8729C72.6672 31.8729 78.8672 31.8729 85.0672 31.9729C86.5672 33.4729 87.8672 32.4729 89.2672 31.6729C90.2672 31.7729 91.1672 31.8729 92.1672 31.9729C90.1672 39.1729 84.1672 36.9729 77.9672 36.9729C81.3672 39.1729 83.9672 39.3729 86.5672 39.7729C92.6672 40.5729 94.2672 42.3729 94.3672 48.5729C94.4672 54.2729 92.6672 59.6729 92.0672 65.3729C82.3672 62.4729 82.3672 62.2729 88.4672 52.9729C86.0672 52.9729 85.5672 52.8728 82.8672 51.0728C78.7672 48.4728 75.0672 49.8729 73.5672 54.7729C74.8672 54.1729 75.9672 53.3728 77.1672 53.0728C79.0672 52.4728 81.1672 52.2729 82.7672 53.9729C84.2672 55.5729 82.5672 56.6729 82.0672 57.9729C80.4672 62.5729 81.5672 64.8728 86.2672 66.0728C89.8672 66.9729 92.2672 68.5729 92.3672 72.7729C92.3672 74.2729 92.5672 76.2729 94.7672 76.8729C95.6672 75.5729 94.4672 74.8729 94.3672 73.8729C94.1672 70.1729 95.0672 66.6729 98.2672 64.7729C101.167 63.0729 104.567 63.0729 107.667 65.3729C108.667 66.1729 109.667 67.2729 111.167 66.7729L111.067 66.8729C110.667 65.0729 108.567 62.3729 111.567 61.9729C114.867 61.5729 118.267 58.8729 121.967 62.2729C121.567 59.2729 120.167 56.9729 118.267 57.8729C114.967 59.4729 110.167 56.9729 107.967 61.4729C107.667 62.1729 106.867 62.1729 106.267 61.8729C101.967 59.8729 98.1672 61.7729 94.1672 64.2729C95.1672 59.7729 96.2672 55.8729 96.7672 51.9729C97.3672 47.3729 97.9672 42.5729 92.9672 39.5729C91.8672 38.9729 91.5672 37.7729 92.4672 36.5729C93.6672 34.9729 94.8672 33.4729 96.0672 31.8729C101.767 31.8729 107.567 31.7729 113.267 31.7729C114.567 35.2729 115.767 38.7729 113.767 43.4729C110.567 37.8729 109.167 30.8729 100.467 33.5729C106.767 33.7729 108.767 38.1729 110.467 42.8729C112.267 47.8729 117.567 49.5729 120.767 53.3729C122.867 55.8729 124.867 57.9728 123.767 61.5728C123.267 63.2729 124.367 64.7729 125.067 66.2729C126.967 71.0729 128.567 75.9729 128.667 81.2729C128.767 85.0729 127.567 88.0729 123.967 89.8729C121.267 91.2729 119.167 91.8729 117.967 87.8729C117.367 85.6729 115.367 84.0728 113.267 82.9729L113.067 82.8729H113.367C113.067 83.6729 113.267 84.4729 113.667 85.2729C117.567 93.0729 115.667 98.8728 107.767 103.373C105.867 104.473 105.267 106.373 103.767 108.173C101.767 105.373 98.4672 104.573 95.8672 102.273C92.5672 107.873 87.5672 110.273 81.1672 110.073C81.4672 107.173 85.7672 107.573 85.9672 103.873C82.4672 106.073 80.9672 100.573 76.9672 102.073C80.2672 104.473 79.8672 107.173 78.0672 110.073C79.4672 110.073 80.3672 110.073 81.2672 110.073C81.2672 112.573 77.5672 112.273 77.6672 115.473C83.4672 111.773 91.1672 112.973 95.4672 106.673C96.1672 105.573 97.2672 106.273 98.0672 106.773C99.6672 107.873 101.567 108.673 102.767 110.673C100.967 111.873 98.8672 112.773 97.3672 114.173C95.0672 116.373 91.7672 117.973 92.7672 122.473C93.2672 125.073 90.7672 127.073 88.3672 127.873C76.0672 131.873 65.0672 129.073 66.0672 112.873C66.2672 109.773 67.0672 107.073 70.1672 105.473C71.6672 104.773 73.5672 104.073 73.2672 101.873C73.5672 101.973 73.7672 101.873 73.7672 101.473C73.7672 101.473 73.5672 101.373 73.4672 101.473C73.3672 101.673 73.2672 101.773 73.2672 101.873ZM113.067 53.9729C111.667 51.4729 110.967 48.9729 110.167 46.4729C108.667 41.7729 104.767 41.0729 100.567 44.2729C102.467 45.3729 105.367 43.5729 106.967 46.5729C104.467 49.1729 101.467 52.0729 104.667 56.2729C106.767 54.5729 105.267 51.4729 107.667 50.1729C109.567 50.9729 109.867 53.9729 113.067 53.9729ZM89.7672 76.7729C84.6672 71.8729 82.0672 80.2729 77.7672 77.9729C81.0672 82.1729 80.2672 87.7729 83.6672 91.9729C84.2672 89.6729 83.8672 87.8728 83.5672 86.0728C82.4672 78.8728 82.5672 78.7729 89.7672 76.7729ZM86.0672 117.173C80.4672 119.073 77.4672 124.873 70.9672 121.973C75.4672 127.573 79.7672 126.173 86.0672 117.173ZM96.9672 79.3729C96.7672 78.9729 96.5672 78.4729 96.2672 78.1729C95.8672 77.6729 95.3672 77.9729 95.4672 78.4729C95.4672 78.8729 95.8672 79.2729 96.1672 79.5728C96.1672 79.6728 96.5672 79.4729 96.9672 79.3729Z" fill="#5AB35A"/>
<path d="M94.1679 154.873C91.9679 160.073 80.8679 162.973 76.6679 159.473C75.6679 158.673 74.9679 157.573 75.3679 156.473C75.8679 154.973 77.2679 153.973 78.7679 154.073C83.5679 154.273 86.7679 150.373 91.1679 149.473C92.3679 149.173 93.4679 148.173 93.7679 146.273C90.7679 145.873 87.1679 150.173 84.7679 145.273C85.2679 143.373 88.5679 144.773 88.6679 142.173C84.0679 139.773 80.9679 144.973 75.9679 144.273C78.3679 146.373 80.8679 145.373 82.5679 146.773C83.4679 147.473 84.4679 148.273 84.1679 149.673C83.8679 150.873 82.7679 150.873 81.7679 150.973C81.4679 150.973 81.0679 151.073 80.7679 150.973C78.0679 150.573 75.6679 154.273 72.8679 151.873C69.6679 149.073 67.8679 145.173 66.8679 141.073C66.2679 138.373 66.2679 135.473 66.3679 132.573C66.4679 128.673 67.4679 128.173 70.8679 129.873C77.3679 133.073 83.7679 132.473 90.1679 129.573C91.8679 128.773 93.4679 127.673 94.0679 125.873C94.9679 123.173 97.0679 123.873 99.0679 123.773C101.468 123.573 101.468 125.473 102.168 126.973C103.868 130.873 104.068 134.273 99.9679 137.273C104.268 135.473 108.968 135.073 112.468 130.373C109.768 129.973 108.068 133.173 106.368 130.373C105.368 128.573 104.468 126.873 104.468 124.773C104.368 122.773 104.468 120.873 104.468 118.673C101.268 119.773 98.6679 122.473 94.9679 120.773C98.7679 113.473 107.468 113.573 113.168 108.373C110.368 107.673 108.368 109.773 106.068 109.373C109.268 103.873 113.568 102.973 117.968 106.873C119.868 108.573 121.568 110.373 123.168 112.273C126.068 115.673 125.268 118.573 121.068 120.373C118.268 121.573 114.768 121.173 112.068 123.773C115.068 124.273 117.568 122.073 120.368 123.573C120.268 129.073 116.868 132.973 113.468 136.773C110.768 139.773 87.9679 154.773 83.9679 156.373C87.5679 157.773 90.7679 154.973 94.1679 154.873ZM97.5679 127.173C94.2679 126.773 93.9679 128.873 93.8679 130.473C93.5679 134.173 91.7679 134.973 88.3679 134.873C83.9679 134.673 80.0679 136.173 77.1679 139.673C81.1679 138.173 85.1679 137.673 89.3679 137.373C94.0679 137.073 97.0679 139.073 98.0679 144.573C99.2679 142.173 99.2679 140.373 98.4679 139.373C94.8679 135.573 94.8679 131.573 97.5679 127.173Z" fill="#5AB35A"/>
<path d="M85.0672 31.9729C78.8672 31.9729 72.6672 31.9729 66.4672 31.8729C66.4672 31.5729 66.3672 31.1729 66.3672 30.8729C66.5672 19.1729 68.4672 17.1729 79.5672 17.4729C74.9672 14.5729 72.8672 14.3729 67.6672 16.6729C66.6672 9.97287 69.0672 5.37287 74.2672 3.77287C77.2672 2.87287 80.5672 2.37287 82.4672 5.27287C84.5672 8.37287 81.7672 10.3729 79.3672 12.4729C82.3672 12.8729 83.8672 11.1729 84.4672 9.17286C85.2672 6.47286 87.0672 6.37287 89.0672 6.87287C97.3672 8.97287 103.167 14.1729 107.567 21.6729C105.467 22.1729 104.867 20.6729 103.767 20.1729C103.467 19.4729 103.067 18.7729 102.667 17.9729C101.967 19.2729 101.767 20.2729 103.067 20.8729C103.667 23.8729 106.467 24.5729 108.567 25.8729C110.867 27.2729 112.967 28.6729 113.267 31.6729C107.567 31.6729 101.767 31.7729 96.0672 31.7729C96.4672 28.2729 98.0672 25.3729 101.567 23.0729C97.8672 22.4729 96.3672 24.2729 95.1672 26.4729C94.1672 28.3729 93.6672 30.4729 92.1672 31.9729C91.1672 31.8729 90.2672 31.7729 89.2672 31.6729C88.1672 26.1729 89.3672 22.3729 95.5672 20.7729C98.5672 19.9729 98.6672 16.6729 96.2672 13.8729C95.7672 16.5729 95.3672 19.2729 91.8672 19.6729C90.4672 16.9729 89.2672 13.9729 85.4672 13.6729C85.1672 12.8729 84.5672 12.8729 83.8672 13.1729C84.0672 13.5729 84.2672 13.9729 84.4672 14.3729C85.5672 15.3729 86.7672 16.3729 87.5672 17.4729C88.7672 19.1729 89.3672 21.1729 87.7672 22.9729C86.2672 24.7729 84.8672 22.9729 83.3672 22.5729C80.6672 21.9729 77.8672 19.2729 74.3672 22.7729C79.4672 22.3729 82.6672 24.8729 85.6672 27.6729C87.8672 29.4729 87.6672 30.9729 85.0672 31.9729Z" fill="white"/>
<path d="M62.8672 31.7723C56.9672 31.7723 51.0672 31.7723 45.1672 31.7723C45.8672 28.9723 44.1672 25.1723 48.2672 23.6723C50.9672 22.6723 53.7672 21.7723 57.4672 20.3723C51.9672 18.6723 48.3672 20.1723 44.7672 23.0723C42.8672 18.3723 45.4672 16.1723 48.7672 14.2723C50.7672 13.0723 53.5672 12.8723 54.3672 10.0723C54.3672 8.87227 57.6672 9.27227 55.6672 7.17227C54.4672 7.87227 55.4672 9.47227 54.3672 10.1723C51.8672 10.5723 51.7672 7.27227 49.1672 6.97227C50.9672 11.1723 47.6672 12.1723 45.0672 13.6723C42.0672 15.3723 41.4672 18.4723 40.9672 21.7723C38.3672 19.2723 38.5672 14.8723 34.5672 14.0723C36.6672 17.9723 36.4672 23.0723 41.7672 24.9723C43.4672 25.5723 43.3672 28.0723 43.1672 29.9723C42.9672 31.2723 42.0672 32.0723 40.8672 32.1723C39.5672 32.2723 38.7672 31.5723 38.3672 30.2723C37.6672 28.2723 36.9672 26.1723 35.9672 24.2723C34.4672 21.3723 32.1672 20.3723 28.2672 22.4723C34.5672 23.1723 34.6672 27.8723 36.0672 31.6723C33.6672 31.6723 31.2672 31.6723 28.8672 31.6723C28.9672 30.2723 29.0672 28.8723 29.1672 27.3723C26.6672 28.0723 27.7672 30.8723 26.0672 31.9723C23.7672 31.8723 21.4672 31.7723 19.2672 31.6723C18.7672 23.4723 25.8672 21.8723 31.1672 18.3723C29.1672 17.2723 27.5672 19.5723 25.5672 18.2723C25.6672 17.0723 26.2672 15.8723 27.3672 15.3723C33.2672 12.6723 38.1672 7.87227 44.7672 6.47227C47.6672 5.87227 50.4672 4.67227 53.2672 3.57227C60.9672 0.772274 66.1672 5.07227 64.8672 13.2723C64.5672 14.8723 64.1672 16.4723 63.7672 18.1723C61.2672 17.6723 59.6672 14.7723 56.4672 15.8723C63.0672 19.6723 63.4672 25.4723 62.8672 31.7723Z" fill="white"/>
<path d="M127.268 111.072C125.068 110.472 123.268 109.572 121.968 107.572C120.068 104.672 116.668 103.472 113.568 101.772C115.068 99.5724 116.868 97.7724 117.668 95.5724C119.368 91.2724 123.568 92.6724 126.568 91.2724C127.668 90.7724 127.868 92.3724 128.268 93.2724C129.868 97.2724 128.468 101.072 127.768 104.972C127.568 106.872 126.268 108.872 127.268 111.072Z" fill="#5AB35A"/>
<path d="M19.2684 31.7725C21.5684 31.8725 23.8684 31.9725 26.0684 32.0725C26.0684 33.4725 25.5684 34.8725 24.5684 35.6725C20.1684 39.3725 15.9684 43.1725 12.4684 48.8725C11.8684 45.9725 13.5684 44.7725 13.4684 43.1725C18.0684 40.6725 17.6684 35.6725 19.2684 31.7725Z" fill="#5AB35A"/>
<path d="M94.2676 154.973C94.7676 153.973 95.1676 152.873 96.4676 152.473C97.0676 154.573 95.3676 154.473 94.2676 154.973Z" fill="#5AB35A"/>
<path d="M28.7671 31.7725C31.1671 31.7725 33.5671 31.7725 35.9671 31.7725C36.5671 32.3725 36.9671 33.0725 37.6671 33.5725C40.5671 35.6725 39.6671 37.2725 36.9671 38.6725C35.0671 39.6725 33.4671 41.1725 32.3671 43.0725C30.3671 46.6725 30.6671 50.1725 33.4671 53.1725C34.9671 54.7725 36.4671 56.2725 36.7671 58.5725C37.2671 62.4725 35.4671 64.0725 31.6671 63.0725C29.0671 62.3725 26.5671 61.4725 23.9671 62.9725C23.1671 63.4725 22.4671 63.3725 21.9671 62.4725C19.4671 57.3725 14.9671 57.5725 10.3671 58.1725C9.96713 58.2725 9.46712 57.9725 9.06712 57.9725C8.26712 56.7725 8.86712 55.7725 9.56712 55.1725C14.4671 50.9725 17.2671 44.8725 22.5671 40.9725C25.5671 38.5725 28.0671 35.7725 28.7671 31.7725ZM27.5671 56.5725C30.5671 51.3725 24.0671 46.6725 28.7671 42.0725C28.1671 41.6725 27.5671 41.2725 26.9671 40.8725C25.0671 44.5725 20.7671 44.7725 18.7671 48.2725C17.4671 50.4725 18.8671 51.3725 19.9671 52.5725C21.0671 52.0725 20.9671 51.2725 21.1671 50.6725C21.4671 49.6725 21.0671 48.1725 22.7671 48.0725C24.3671 47.9725 24.3671 49.5725 24.8671 50.4725C25.8671 52.2725 26.5671 54.1725 27.5671 56.5725Z" fill="#5AB35A"/>
<path d="M6.26858 110.373C3.86858 104.273 3.96858 99.1728 4.46858 93.9728C4.56858 92.5728 4.66857 90.6729 6.66857 90.6729C8.76857 90.6729 11.0686 90.6729 12.4686 92.7729C12.7686 93.1729 12.9686 93.7729 12.8686 94.1729C12.2686 97.5729 17.9686 99.9728 14.8686 103.273C12.5686 105.873 8.86858 106.873 6.26858 110.373Z" fill="#5AB35A"/>
<path d="M37.7676 124.372C36.2676 123.072 36.2676 119.772 32.6676 121.272C29.5676 122.572 30.1676 124.672 30.3676 126.972C30.6676 129.872 30.6676 133.072 27.6676 134.372C24.0676 135.972 21.0676 133.672 17.7676 131.472C21.1676 130.772 24.1676 133.572 26.4676 131.672C28.8676 129.672 26.6676 126.172 27.5676 123.572C28.7676 120.272 27.2676 119.072 24.7676 118.072C23.7676 117.672 22.8676 117.372 22.6676 116.172C24.5676 114.472 26.3676 116.272 27.5676 116.972C30.2676 118.372 32.7676 119.672 35.8676 119.672C38.6676 119.672 37.7676 122.272 38.3676 123.772C38.0676 124.072 37.9676 124.172 37.7676 124.372Z" fill="#C8E1C1"/>
<path d="M52.6678 139.572C49.0678 141.372 46.2678 141.072 43.4678 139.772C35.8678 136.072 36.5678 138.672 34.5678 144.172C32.4678 142.772 32.7678 140.672 33.3678 138.972C35.2678 134.072 35.3678 134.072 34.2678 129.372C37.1678 131.772 38.9678 134.772 42.1678 136.272C45.3678 137.772 48.6678 138.172 52.6678 139.572Z" fill="#C8E1C1"/>
<path d="M51.3674 151.372C48.9674 152.072 47.0674 151.372 45.4674 149.672C41.8674 145.872 41.8674 145.772 37.4674 146.372C37.3674 144.572 38.9674 142.872 39.8674 143.272C45.0674 145.472 49.4674 140.572 54.4674 141.772C55.3674 141.972 56.3674 141.772 57.7674 141.772C56.9674 144.172 55.2674 143.872 53.7674 144.072C51.4674 144.472 48.3674 143.772 47.4674 146.872C46.6674 149.972 50.7674 149.172 51.3674 151.372Z" fill="#C8E1C1"/>
<path d="M52.9672 76.4723C50.2672 79.7723 50.1672 83.7723 49.2672 87.4723C48.6672 87.1723 48.1672 87.0723 48.1672 86.9723C47.8672 81.7723 47.2672 76.7723 40.8672 74.7723C45.9672 72.1723 48.2672 79.0723 52.9672 76.4723Z" fill="#C8E1C1"/>
<path d="M59.468 119.573C57.268 123.173 54.568 123.573 51.968 120.973C49.768 118.773 47.468 117.273 44.168 117.173C46.868 115.173 49.568 114.873 51.968 117.373C54.168 119.573 56.268 120.973 59.468 119.573Z" fill="#C8E1C1"/>
<path d="M52.4682 107.872C47.4682 106.072 46.9682 105.072 49.1682 101.072C50.2682 103.172 51.1682 105.172 52.4682 107.872Z" fill="#C8E1C1"/>
<path d="M17.168 69.2727C17.568 68.4727 18.068 67.9727 18.968 67.9727C19.168 67.9727 19.468 68.4727 19.368 68.5727C18.868 69.4727 18.168 70.0727 17.168 69.2727Z" fill="#C8E1C1"/>
<path d="M27.168 69.8727C27.268 69.7727 27.368 69.6727 27.468 69.4727C27.768 69.7727 27.568 69.8727 27.168 69.8727Z" fill="#C8E1C1"/>
<path d="M65.3672 104.872C65.2672 105.372 65.2671 105.872 65.1671 106.272C64.7671 105.772 64.2672 105.272 65.3672 104.872Z" fill="#C8E1C1"/>
<path d="M23.0684 109.872L23.2684 109.972H23.1684L23.0684 109.872Z" fill="#C8E1C1"/>
<path d="M8.06757 81.7725C7.96757 81.9725 7.96757 82.1725 7.86757 82.3725C7.86757 82.2725 7.76758 82.1725 7.76758 82.0725C7.96758 82.0725 8.06757 81.9725 8.06757 81.7725C8.16757 81.8725 8.06757 81.7725 8.06757 81.7725Z" fill="#C8E1C1"/>
<path d="M92.1684 32.0725C93.6684 30.4725 94.1684 28.3725 95.1684 26.5725C96.3684 24.2725 97.9684 22.4725 101.568 23.1725C98.0684 25.4725 96.4684 28.3725 96.0684 31.8725C94.8684 33.4725 93.6684 35.0725 92.4684 36.5725C91.5684 37.7725 91.8684 38.9725 92.9684 39.5725C97.9684 42.5725 97.3684 47.3725 96.7684 51.9725C96.2684 55.8725 95.1684 59.7725 94.1684 64.2725C98.1684 61.8725 101.968 59.9725 106.268 61.8725C106.868 62.1725 107.668 62.1725 107.968 61.4725C110.168 56.8725 114.868 59.3725 118.268 57.8725C120.268 56.9725 121.668 59.2725 121.968 62.2725C118.368 58.8725 114.868 61.4725 111.568 61.9725C108.568 62.3725 110.668 65.0725 111.068 66.8725L111.168 66.7725C109.568 67.2725 108.668 66.1725 107.668 65.3725C104.668 62.9725 101.268 63.0725 98.2684 64.7725C95.0684 66.6725 94.1684 70.1725 94.3684 73.8725C94.3684 74.8725 95.5684 75.5725 94.7684 76.8725C92.5684 76.3725 92.4684 74.3725 92.3684 72.7725C92.2684 68.5725 89.8684 67.0725 86.2684 66.0725C81.5684 64.8725 80.4684 62.5725 82.0684 57.9725C82.4684 56.6725 84.2684 55.5725 82.7684 53.9725C81.1684 52.2725 79.0684 52.5725 77.1684 53.0725C75.9684 53.3725 74.8684 54.1725 73.5684 54.7725C74.9684 49.7725 78.7684 48.3725 82.8684 51.0725C85.5684 52.8725 85.9684 52.9725 88.4684 52.9725C82.2684 62.2725 82.3684 62.3725 92.0684 65.3725C92.6684 59.7725 94.4684 54.2725 94.3684 48.5725C94.2684 42.4725 92.6684 40.6725 86.5684 39.7725C83.9684 39.3725 81.3684 39.1725 77.9684 36.9725C84.1684 37.0725 90.0684 39.2725 92.1684 32.0725Z" fill="#C8E1C1"/>
<path d="M85.3668 13.5723C89.0668 13.8723 90.3668 16.8723 91.7668 19.5723C95.2668 19.1723 95.7668 16.4723 96.1668 13.7723C98.5668 16.6723 98.5668 19.8723 95.4668 20.6723C89.2668 22.3723 88.0668 26.1723 89.1668 31.5723C87.7668 32.3723 86.4668 33.3723 84.9668 31.8723C87.6668 30.8723 87.7668 29.3723 85.7668 27.4723C82.7668 24.6723 79.4668 22.1723 74.4668 22.5723C77.8668 19.1723 80.7668 21.7723 83.4668 22.3723C84.9668 22.7723 86.2668 24.4723 87.8668 22.7723C89.4668 20.9723 88.8668 18.9723 87.6668 17.2723C86.7668 16.0723 85.5668 15.1723 84.5668 14.1723C84.7668 14.0723 85.0668 13.8723 85.3668 13.5723Z" fill="#C8E1C1"/>
<path d="M113.067 53.9729C109.867 53.9729 109.567 50.9729 107.567 50.1729C105.167 51.4729 106.667 54.6729 104.567 56.2729C101.367 52.0729 104.367 49.1729 106.867 46.5729C105.267 43.5729 102.367 45.3729 100.467 44.2729C104.767 40.9729 108.567 41.7729 110.067 46.4729C110.867 48.9729 111.667 51.4729 113.067 53.9729Z" fill="#C8E1C1"/>
<path d="M89.7672 76.7728C82.4672 78.8728 82.4672 78.8728 83.6672 85.9728C83.9672 87.7728 84.3672 89.5728 83.7672 91.8728C80.3672 87.6728 81.0672 82.0728 77.8672 77.8728C82.1672 80.2728 84.7672 71.8728 89.7672 76.7728Z" fill="#C8E1C1"/>
<path d="M86.0668 117.173C79.7668 126.173 75.4668 127.573 70.9668 121.973C77.4668 124.973 80.5668 119.073 86.0668 117.173Z" fill="#C8E1C1"/>
<path d="M81.2668 109.873C80.3668 109.873 79.4668 109.873 78.0668 109.873C79.8668 106.973 80.3668 104.273 76.9668 101.873C81.0668 100.373 82.4668 105.873 85.9668 103.673C85.8668 107.373 81.5668 107.073 81.2668 109.873Z" fill="#C8E1C1"/>
<path d="M96.9668 79.372C96.6668 79.472 96.2668 79.672 96.1668 79.572C95.8668 79.272 95.4668 78.872 95.4668 78.472C95.4668 77.972 95.8668 77.672 96.2668 78.172C96.5668 78.472 96.6668 78.972 96.9668 79.372Z" fill="#C8E1C1"/>
<path d="M81.168 45.8726C81.468 45.8726 81.868 45.7726 82.068 45.8726C82.368 46.0726 82.268 46.3726 81.868 46.3726C81.668 46.3726 81.468 46.0726 81.168 45.8726C81.268 45.7726 81.168 45.8726 81.168 45.8726Z" fill="#C8E1C1"/>
<path d="M73.2676 101.873C73.3676 101.773 73.3676 101.573 73.4676 101.473H73.7676C73.7676 101.973 73.5676 102.073 73.2676 101.873Z" fill="#C8E1C1"/>
<path d="M113.368 82.7725H113.068L113.268 82.8725L113.368 82.7725Z" fill="#C8E1C1"/>
<path d="M97.5684 127.173C94.8684 131.573 94.8684 135.573 98.3684 139.373C99.2684 140.373 99.1684 142.173 97.9684 144.573C96.9684 139.073 93.9684 137.073 89.2684 137.373C85.1684 137.673 81.0684 138.173 77.0684 139.673C79.9684 136.173 83.8684 134.673 88.2684 134.873C91.6684 134.973 93.4684 134.173 93.7684 130.473C93.8684 128.873 94.2684 126.773 97.5684 127.173Z" fill="#C8E1C1"/>
<path d="M103.167 20.8727C101.867 20.1727 101.967 19.2727 102.767 17.9727C103.167 18.8727 103.567 19.5727 103.867 20.1727C103.667 20.4727 103.367 20.6727 103.167 20.8727Z" fill="#C8E1C1"/>
<path d="M84.4672 14.2724C84.2672 13.8724 84.0672 13.4724 83.8672 13.0724C84.5672 12.7724 85.0672 12.6724 85.4672 13.5724C85.0672 13.8724 84.7672 14.0724 84.4672 14.2724Z" fill="#C8E1C1"/>
<path d="M54.3672 10.1729C55.4672 9.47285 54.4672 7.87285 55.6672 7.17285C57.5672 9.17285 54.3672 8.87285 54.3672 10.0729V10.1729Z" fill="#C8E1C1"/>
<path d="M27.5672 56.5721C26.5672 54.1721 25.8672 52.2721 24.8672 50.4721C24.3672 49.5721 24.3672 47.9721 22.7672 48.0721C21.0672 48.1721 21.4672 49.6721 21.1672 50.6721C20.9672 51.2721 21.0672 51.9721 19.9672 52.5721C18.8672 51.3721 17.4672 50.4721 18.7672 48.2721C20.8672 44.7721 25.0672 44.5721 26.9672 40.8721C27.5672 41.2721 28.1672 41.6721 28.7672 42.0721C24.0672 46.6721 30.5672 51.3721 27.5672 56.5721Z" fill="#C8E1C1"/>
</svg>
