<svg width="131" height="164" viewBox="0 0 131 164" fill="none" xmlns="http://www.w3.org/2000/svg">
<path d="M63.2109 138.412C64.0109 135.412 62.8109 133.012 60.6109 131.012C57.9109 129.412 55.0109 130.412 52.2109 130.412C49.6109 130.212 46.9109 130.512 44.5109 129.112C44.5109 128.512 44.5109 127.912 44.5109 127.412C44.8109 127.312 45.1109 127.312 45.4109 127.512C46.0109 128.212 46.7109 128.312 47.6109 128.212C51.9109 128.312 56.1109 128.412 60.4109 128.512C60.7109 129.012 61.2109 129.212 61.8109 129.112C62.3109 129.112 62.9109 129.112 63.4109 129.112C62.9109 131.012 65.1109 130.412 65.5109 131.512C63.7109 134.012 66.4109 136.012 66.4109 138.312C65.6109 143.812 68.5109 147.912 71.7109 151.912C72.6109 153.112 73.9109 153.112 75.2109 153.112C76.0109 153.312 77.0109 153.312 77.4109 154.212C75.8109 154.012 75.2109 155.412 74.2109 156.212C73.9109 156.212 73.6109 156.212 73.3109 156.212C69.1109 154.612 67.5109 150.612 65.1109 146.812C63.3109 150.212 61.7109 153.212 59.6109 155.812C53.0109 163.712 47.9109 164.712 38.2109 160.112C38.6109 159.812 39.0109 159.412 39.5109 159.112C43.5109 159.912 47.5109 161.912 51.6109 159.412C59.3109 154.412 63.5109 147.712 63.2109 138.412Z" fill="white"/>
<path d="M112.312 139.047C110.912 142.047 108.312 143.847 105.512 145.247C102.812 146.547 101.212 148.347 100.012 151.147C95.7117 160.547 90.1117 163.647 80.3117 163.047C77.8117 162.847 75.3117 162.447 74.0117 159.847C74.5117 159.847 74.9117 159.747 75.4117 159.747L75.9117 159.847L76.4117 159.747L76.8117 159.947H77.2117C83.4117 161.747 88.9117 160.747 93.5117 155.947C95.3117 155.647 96.2117 154.547 96.4117 152.847C96.4117 152.547 96.4117 152.247 96.4117 151.947C97.2117 151.947 98.3117 151.947 98.0117 150.847C97.8117 150.047 97.0117 150.847 96.4117 150.947C96.4117 150.147 96.3117 149.447 96.3117 148.647C98.6117 146.247 101.512 144.647 104.312 143.047C106.612 141.747 108.912 140.547 110.212 138.047C110.912 137.847 111.612 137.647 112.312 137.547C112.212 138.047 112.312 138.547 112.312 139.047Z" fill="white"/>
<path d="M8.4109 58.1467C12.0109 58.5467 16.0109 56.6467 19.2109 59.7467C19.2109 60.2467 19.1109 60.6467 19.1109 61.1467C17.8109 60.7467 16.6109 60.2467 15.3109 60.0467C10.1109 59.2467 5.9109 62.1467 4.9109 67.4467C4.0109 72.2467 2.9109 77.1467 2.3109 82.0467C1.7109 86.7467 2.5109 87.4467 7.2109 88.9467C6.9109 90.5467 4.4109 88.9467 4.3109 90.8467L4.2109 90.7467C3.8109 90.7467 3.4109 90.7467 2.9109 90.7467C-1.0891 85.4467 -0.289096 79.6467 1.3109 73.7467C2.5109 69.0467 2.1109 63.8467 5.8109 59.9467C6.6109 59.9467 7.2109 59.7467 7.3109 58.8467C7.9109 58.7467 8.8109 59.0467 8.4109 57.8467V58.1467Z" fill="white"/>
<path d="M64.1113 8.94687C60.7113 2.14687 58.7113 1.34687 51.7113 4.04687C48.5113 5.34687 45.3113 6.64687 41.8113 6.94687C39.0113 7.24687 37.3113 9.54687 35.0113 10.7469C34.2113 10.7469 33.4113 10.6469 33.1113 9.74687C36.1113 6.44687 39.7113 4.44687 44.2113 3.84687C47.0113 3.44687 49.4113 1.94687 52.1113 1.04687C59.3113 -1.25313 62.2113 0.0468731 65.5113 6.84687C64.2113 7.04687 64.3113 8.04687 64.1113 8.94687Z" fill="white"/>
<path d="M126.311 111.847C127.211 118.047 126.511 119.647 121.011 122.747C120.711 122.747 120.411 122.747 120.011 122.847C119.011 122.747 118.111 122.747 117.111 122.647C116.711 122.347 116.311 121.947 116.011 121.647C117.411 120.247 119.511 120.847 121.111 119.947C124.311 118.147 125.411 115.047 123.011 112.647C118.711 108.347 115.111 101.747 106.611 105.547C109.811 101.147 113.311 100.647 117.411 103.847C120.111 105.947 122.611 108.347 125.211 110.647C125.611 111.147 125.911 111.547 126.311 111.847Z" fill="white"/>
<path d="M64.1109 8.94694C64.2109 8.04694 64.1109 7.04694 65.5109 6.94694C68.5109 2.54694 72.6109 0.246938 78.0109 0.846938C80.7109 1.14694 83.2109 1.84694 84.2109 4.84694C84.3109 5.54694 84.3109 6.34694 84.4109 7.04694C84.3109 7.64694 84.2109 8.24694 84.0109 8.74694C83.5109 8.14694 83.0109 7.44694 82.5109 6.84694C82.2109 5.04694 81.2109 4.04694 79.3109 3.54694C75.4109 2.64694 71.9109 3.44694 69.4109 6.34694C66.8109 9.34694 66.0109 13.3469 66.4109 17.3469C66.9109 17.2469 67.3109 17.0469 67.8109 16.9469C68.0109 17.3469 68.2109 17.6469 68.4109 18.0469C68.0109 18.9469 67.6109 19.8469 67.2109 20.7469C67.1109 19.3469 66.3109 18.8469 65.0109 19.0469C64.4109 19.0469 63.8109 18.9469 63.2109 18.9469C63.7109 15.5469 64.6109 12.3469 64.1109 8.94694Z" fill="white"/>
<path d="M13.2109 132.847C15.1109 134.747 16.3109 137.347 18.9109 138.347C20.4109 141.147 23.2109 142.347 25.5109 144.047C29.2109 146.647 33.1109 149.247 36.1109 152.747C35.6109 154.447 34.0109 154.647 32.6109 155.047C30.9109 151.047 27.7109 148.547 24.2109 146.347C19.4109 143.347 15.1109 139.847 12.2109 134.747C12.3109 134.047 12.3109 133.247 13.2109 132.847Z" fill="white"/>
<path d="M26.2102 20.7471C21.1102 23.1471 18.5102 27.0471 18.0102 32.7471C17.8102 35.4471 16.8102 38.1471 16.2102 40.8471H16.3102C13.8102 42.6471 11.7102 44.6471 11.2102 47.9471L11.3102 47.8471C10.9102 47.6471 10.6102 47.6471 10.3102 47.9471C10.0102 47.5471 9.71016 47.1471 9.41016 46.7471C9.41016 46.1471 9.51015 45.4471 9.51015 44.8471C10.3102 44.6471 11.0102 44.4471 11.1102 43.4471C13.6102 39.8471 15.2102 36.0471 15.7102 31.5471C16.1102 27.3471 17.5102 23.4471 21.4102 21.0471C22.6102 20.3471 23.0102 19.0471 23.5102 17.7471C23.8102 17.7471 24.2102 17.7471 24.5102 17.7471C24.4102 18.4471 24.2102 19.1471 25.1102 19.5471C25.3102 20.0471 25.8102 20.4471 26.2102 20.7471Z" fill="white"/>
<path d="M115.211 43.8471C114.911 46.3471 117.111 46.9471 118.611 48.0471C121.911 50.5471 124.511 53.4471 125.111 57.8471C124.811 58.1471 124.511 58.5471 124.211 58.8471C122.311 55.3471 120.311 51.9471 116.711 49.8471C112.611 47.5471 109.911 44.1471 108.511 39.6471C107.911 37.7471 106.711 36.1471 105.211 34.8471C105.611 34.4471 106.011 34.0471 106.511 33.7471C109.211 34.7471 110.011 37.3471 111.211 39.5471C112.011 41.0471 112.211 43.0471 114.111 43.7471C114.411 43.8471 114.811 43.8471 115.211 43.8471Z" fill="white"/>
<path d="M27.6113 32.3473C27.4113 34.2473 27.1113 36.1473 25.6113 37.3473C19.4113 42.1473 15.6113 49.3473 9.21133 53.8473C8.81133 53.4473 8.51133 53.0473 8.11133 52.7473C8.61133 51.8473 9.11133 50.9473 9.61133 50.0473C10.4113 50.1473 11.0113 49.9473 11.3113 49.1473C11.8113 48.7473 11.8113 48.2473 11.3113 47.8473L11.2113 47.9473C14.2113 46.6473 16.2113 43.8473 16.3113 40.8473H16.2113C16.5113 41.2473 16.7113 41.8473 17.3113 41.4473C21.0113 38.4473 25.3113 36.0473 26.4113 30.9473C26.8113 31.3473 27.2113 31.8473 27.6113 32.3473Z" fill="white"/>
<path d="M126.211 65.8467C129.411 70.4467 130.411 75.6467 130.711 81.1467C130.811 84.3467 129.711 87.2467 128.211 89.9467C127.911 90.2467 127.611 90.5467 127.311 90.8467C125.811 90.3467 124.711 91.6467 123.311 91.6467C123.311 91.0467 123.311 90.5467 123.311 89.9467C127.111 88.1467 128.411 85.1467 128.311 81.0467C128.211 76.1467 126.611 71.6467 125.211 67.0467C125.511 66.6467 125.811 66.2467 126.211 65.8467Z" fill="white"/>
<path d="M115.211 43.8465C114.811 43.8465 114.511 43.8465 114.111 43.7465C114.111 42.1465 114.311 40.4465 114.211 38.8465C114.011 32.8465 112.511 27.5465 106.211 24.8465C104.411 24.1465 102.811 22.8465 102.211 20.8465C102.611 20.7465 103.011 20.7465 103.411 20.6465C104.011 21.0465 104.611 21.4465 105.211 21.8465C105.711 22.6465 106.411 22.9465 107.411 22.9465C108.011 22.9465 108.511 22.9465 109.111 22.9465C115.411 27.4465 117.211 33.8465 116.311 41.2465C116.111 42.1465 116.011 43.1465 115.211 43.8465Z" fill="white"/>
<path d="M86.4109 5.54733C91.5109 4.34733 95.6109 6.64733 99.5109 9.44733C102.811 11.8473 105.711 14.7473 107.311 18.6473C107.111 19.2473 106.711 19.7473 106.111 19.9473C100.911 13.3473 95.1109 7.74733 86.2109 6.74733C86.3109 6.24733 86.3109 5.84733 86.4109 5.54733Z" fill="white"/>
<path d="M127.211 90.8473C127.511 90.5473 127.811 90.2473 128.111 89.9473C133.311 97.7473 130.711 104.847 126.211 111.847C125.811 111.447 125.511 111.147 125.111 110.747C128.011 104.347 129.311 97.7473 127.211 90.8473Z" fill="white"/>
<path d="M6.91051 115.947C7.61051 118.247 9.31051 119.347 11.6105 119.847C13.3105 120.247 15.3105 120.147 16.4105 121.847C15.3105 121.947 14.1105 122.047 13.0105 122.047C11.7105 121.947 10.5105 121.947 9.21051 121.847C9.11051 121.247 8.61051 121.047 8.11051 120.947C5.01051 119.147 3.41051 116.647 4.61051 112.947C5.11051 111.847 5.71051 110.847 6.21051 109.747C7.91051 107.147 10.1105 105.247 13.2105 104.547C13.2105 104.947 13.3105 105.347 13.3105 105.747C10.7105 108.047 7.71051 109.947 7.0105 113.747C6.0105 114.547 6.01051 115.247 6.91051 115.947Z" fill="white"/>
<path d="M2.8117 90.8467C3.2117 90.8467 3.6117 90.8467 4.1117 90.8467C3.2117 95.1467 3.0117 99.4467 3.8117 103.747C4.1117 105.847 4.7117 107.847 4.3117 109.947C0.211698 105.747 0.911698 100.547 1.3117 95.4467C1.3117 93.8467 1.8117 92.1467 2.8117 90.8467Z" fill="white"/>
<path d="M32.7109 155.047C34.1109 154.647 35.6109 154.447 36.2109 152.747C39.6109 153.647 42.3109 156.247 46.1109 155.947C46.1109 156.247 46.2109 156.547 46.3109 156.847C45.8109 156.747 45.4109 156.847 45.0109 157.347C44.7109 157.347 44.4109 157.447 44.1109 157.647C41.6109 157.047 39.1109 156.447 36.4109 155.847C36.7109 157.847 38.6109 157.547 39.3109 158.647C38.9109 158.947 38.5109 159.347 38.0109 159.647C35.4109 159.147 33.8109 157.347 32.7109 155.047Z" fill="white"/>
<path d="M120.011 122.947C120.311 122.847 120.611 122.747 121.011 122.847C121.211 127.047 120.211 130.947 117.411 134.247C117.211 133.647 116.811 133.147 116.111 132.847C117.711 129.647 119.511 126.547 120.011 122.947Z" fill="white"/>
<path d="M116.111 132.847C116.711 133.047 117.111 133.547 117.411 134.247C116.111 136.247 115.311 138.847 112.311 139.147C112.211 138.647 112.211 138.147 112.111 137.547C113.511 135.947 114.811 134.347 116.111 132.847Z" fill="white"/>
<path d="M13.2105 132.846C12.3105 133.146 12.3105 134.046 12.2105 134.846C10.2105 132.546 9.11055 129.846 8.31055 126.946C9.01055 126.846 9.71055 126.046 10.3105 127.246C11.2105 129.146 12.2105 130.946 13.2105 132.846Z" fill="white"/>
<path d="M33.2109 9.84668C33.5109 10.7467 34.3109 10.8467 35.1109 10.8467C33.3109 12.7467 30.7109 13.2467 28.4109 14.0467C27.8109 13.8467 27.3109 13.4467 27.2109 12.8467C28.9109 11.2467 31.1109 10.7467 33.2109 9.84668Z" fill="white"/>
<path d="M27.2102 12.7471C27.4102 13.4471 27.8102 13.7471 28.4102 13.9471C27.1102 15.2471 25.7102 16.5471 24.4102 17.8471C24.1102 17.8471 23.7102 17.8471 23.4102 17.8471C24.2102 15.8471 24.8102 13.6471 27.2102 12.7471Z" fill="white"/>
<path d="M126.21 65.8471C125.81 66.2471 125.51 66.6471 125.11 67.0471C124.31 65.3471 121.91 64.0471 124.01 61.7471C124.41 61.7471 124.81 61.8471 125.21 61.8471C125.11 63.2471 125.71 64.5471 126.21 65.8471Z" fill="white"/>
<path d="M7.21155 58.8471C7.01155 59.7471 6.41155 59.9471 5.71155 59.9471C5.31155 58.4471 5.91155 57.0471 6.51155 55.7471C7.01155 55.7471 7.61155 55.8471 8.11155 55.8471C8.21155 56.6471 7.41155 57.4471 8.41155 58.1471L8.31155 57.9471C7.21155 57.3471 7.41155 58.4471 7.21155 58.8471Z" fill="white"/>
<path d="M106.111 19.8469C106.711 19.6469 107.111 19.1469 107.311 18.5469C108.511 19.7469 108.911 21.2469 109.011 22.8469C108.411 22.8469 107.911 22.8469 107.311 22.8469C107.411 21.9469 107.111 21.1469 106.311 20.6469C106.211 20.4469 106.111 20.1469 106.111 19.8469Z" fill="white"/>
<path d="M75.3112 159.747C74.8112 159.747 74.4112 159.847 73.9112 159.847C72.6112 158.747 73.0112 157.247 73.1112 155.947C73.4112 155.847 73.7112 155.847 74.0112 155.947C74.1112 156.747 74.2112 157.547 75.0112 158.047C75.1112 158.547 75.2112 159.147 75.3112 159.747Z" fill="white"/>
<path d="M8.11172 120.947C8.71172 120.947 9.11172 121.247 9.21172 121.847C8.91172 122.947 10.2117 124.647 8.01172 124.947C8.01172 123.547 8.01172 122.247 8.11172 120.947Z" fill="white"/>
<path d="M11.3104 49.1467C11.0104 49.9467 10.4104 50.1467 9.61044 50.0467C9.11044 49.0467 8.91045 47.9467 9.31045 46.8467C9.61045 47.2467 9.91045 47.6467 10.2104 48.0467C10.4104 48.4467 10.7104 48.9467 11.3104 49.1467Z" fill="white"/>
<path d="M86.4109 5.54668C86.4109 5.94668 86.3109 6.24668 86.3109 6.64668C85.7109 6.74668 85.0109 6.94668 84.4109 7.04668C84.3109 6.34668 84.3109 5.54668 84.2109 4.84668C84.9109 5.04668 85.7109 5.34668 86.4109 5.54668Z" fill="white"/>
<path d="M8.11172 55.8465C7.61172 55.8465 7.01172 55.7465 6.51172 55.7465C6.91172 54.6465 6.91172 53.3465 8.11172 52.6465C8.51172 53.0465 8.81172 53.4465 9.21172 53.7465C8.81172 54.5465 8.51172 55.1465 8.11172 55.8465Z" fill="white"/>
<path d="M6.11027 109.747C5.61027 110.847 5.01027 111.847 4.51027 112.947C4.41027 111.947 3.41027 111.047 4.11027 109.947C4.81027 108.947 5.51027 109.847 6.11027 109.747Z" fill="white"/>
<path d="M124.211 58.8467C124.511 58.5467 124.811 58.1467 125.111 57.8467C125.511 58.8467 125.411 59.8467 125.211 60.8467C124.911 60.7467 124.611 60.7467 124.311 60.8467C124.311 60.1467 124.211 59.5467 124.211 58.8467Z" fill="white"/>
<path d="M11.0106 43.5469C10.9106 44.5469 10.2106 44.7469 9.41063 44.9469C9.21063 43.5469 10.3106 43.7469 11.0106 43.5469Z" fill="white"/>
<path d="M124.312 60.8467C124.612 60.8467 124.912 60.8467 125.212 60.8467C125.212 61.1467 125.212 61.5467 125.212 61.8467C124.812 61.8467 124.412 61.7467 124.012 61.7467C124.112 61.4467 124.212 61.1467 124.312 60.8467Z" fill="white"/>
<path d="M44.1117 157.646C44.4117 157.546 44.7117 157.446 45.0117 157.346C45.6117 157.646 46.0117 157.446 46.3117 156.846C46.8117 156.946 47.4117 156.846 47.4117 156.446C47.3117 155.646 46.6117 155.946 46.1117 155.946C42.4117 156.246 39.6117 153.646 36.2117 152.746C33.2117 149.246 29.4117 146.646 25.6117 144.046C23.2117 142.346 20.4117 141.146 19.0117 138.346C19.8117 138.146 20.6117 137.746 21.4117 137.746C35.3117 137.846 49.1117 137.346 63.0117 138.046C63.4117 147.346 59.1117 154.046 51.5117 158.946C49.0117 158.246 46.2117 160.046 44.1117 157.646Z" fill="#FF0003"/>
<path d="M35.2109 90.9473C38.0109 90.8473 40.6109 91.7473 42.9109 93.3473C44.4109 94.4473 46.1109 95.1473 48.0109 94.4473C52.7109 92.6473 57.5109 91.6473 62.3109 94.2473C64.3109 85.7473 63.8109 84.9473 56.2109 84.8473L56.3109 84.9473C57.7109 81.7473 60.6109 82.9473 62.9109 82.8473C63.6109 82.5473 64.3109 82.2473 65.1109 81.9473C65.4109 82.0473 65.7109 82.0473 66.0109 82.0473C66.1109 82.3473 66.1109 82.7473 66.2109 83.0473C66.4109 84.0473 66.8109 84.0473 67.3109 83.2473C71.4109 82.6473 71.4109 82.6473 74.6109 83.4473C74.4109 83.6473 74.2109 83.9473 73.9109 84.0473C73.3109 84.2473 72.6109 84.4473 72.0109 84.6473C66.4109 86.1473 65.4109 87.4473 65.2109 93.1473C65.2109 93.9473 65.3109 94.8473 65.3109 95.6473C65.1109 96.9473 65.8109 98.0473 66.3109 99.1473C66.2109 99.7473 66.1109 100.347 66.0109 100.847C65.7109 100.847 65.5109 100.847 65.2109 100.847C64.9109 100.847 64.6109 100.847 64.4109 100.847C62.6109 96.4473 58.4109 93.6473 54.3109 95.3473C48.3109 97.7473 43.1109 97.5473 38.1109 93.4473C37.6109 93.0473 36.9109 93.0473 36.2109 92.7473C35.9109 92.1473 35.5109 91.5473 35.2109 90.9473Z" fill="white"/>
<path d="M63.6109 127.747C63.7109 127.447 63.9109 127.047 63.8109 126.847C62.1109 121.947 62.3109 117.047 63.0109 112.047C63.4109 109.347 61.7109 108.647 59.3109 109.147C58.9109 109.047 58.5109 109.047 58.2109 108.947C59.3109 106.847 61.2109 106.847 63.2109 107.047C63.9109 108.247 64.6109 107.747 65.2109 106.947C65.6109 107.347 65.9109 107.747 66.3109 108.047C65.6109 110.747 65.2109 113.547 65.4109 116.347C65.8109 123.847 69.9109 128.247 77.3109 129.147C81.9109 129.747 86.2109 128.847 90.2109 126.747C90.2109 127.447 90.2109 128.147 90.2109 128.847C82.3109 133.347 74.6109 132.947 67.2109 127.847C67.1109 127.647 66.9109 127.647 66.8109 127.847C66.3109 126.947 65.7109 126.647 65.2109 127.847C64.6109 127.847 64.1109 127.747 63.6109 127.747Z" fill="white"/>
<path d="M39.2118 66.7467C34.5118 67.4467 29.6118 67.5467 25.1118 69.7467C19.2118 72.6467 18.1118 76.8467 22.3118 81.9467C24.5118 84.6467 24.8118 87.6467 24.0118 90.8467C22.1118 90.0467 23.9118 87.7467 22.4118 86.8467C21.9118 85.1467 20.9118 83.9467 19.7118 82.7467C15.6118 78.3467 16.3118 72.6467 21.3118 69.1467C25.5118 66.0467 30.2118 65.3467 35.1118 65.3467C36.4118 65.3467 37.8118 65.4467 39.1118 65.5467C39.1118 65.9467 39.2118 66.3467 39.2118 66.7467Z" fill="white"/>
<path d="M51.1113 43.7466C54.9113 40.4466 59.1113 42.1465 63.2113 42.8465H63.7113H64.2113C64.3113 44.1465 64.8113 45.0465 66.2113 44.8465C66.2113 45.5465 66.3113 46.3465 66.3113 47.0465C67.7113 54.2465 66.3113 61.5466 66.2113 68.7466C65.9113 68.8466 65.6113 68.8466 65.4113 68.7466C64.3113 68.2466 64.0113 69.5466 63.2113 69.7466C63.3113 66.7466 62.9113 63.7466 63.6113 60.7466C64.1113 60.3466 64.1113 59.8466 63.9113 59.2466C64.0113 56.7466 64.0113 54.3465 64.2113 51.8465C64.5113 45.8465 61.9113 43.8465 55.0113 43.9465C53.8113 43.9465 52.5113 44.7466 51.3113 45.2466C51.2113 44.8466 51.2113 44.2466 51.1113 43.7466Z" fill="white"/>
<path d="M64.2105 42.8465H63.7105H63.2105C63.4105 42.1465 63.7105 41.4465 63.9105 40.6465C64.1105 40.3465 64.1105 40.0465 63.7105 39.8465C62.8105 36.5465 62.1105 33.0465 62.3105 29.6465C62.6105 25.5465 61.5105 21.8465 59.3105 18.4465C59.7105 18.1465 60.0105 17.9465 60.4105 17.6465C61.0105 18.0465 61.5106 18.5465 62.1105 18.9465C63.0106 19.7465 62.7105 21.4465 64.2105 21.6465C65.4105 20.8465 65.0105 19.8465 64.9105 18.9465C66.2105 18.8465 67.0106 19.2465 67.1105 20.6465C65.9106 25.1465 65.2105 29.7465 65.2105 34.4465C65.2105 40.1465 66.4106 41.5465 72.1105 42.9465C72.1105 43.5465 72.1105 44.0465 72.1105 44.6465C70.5105 44.7465 68.9105 44.7465 67.2105 44.8465C66.8105 44.8465 66.5106 44.8465 66.1105 44.8465C66.6105 43.1465 65.7105 42.7465 64.2105 42.8465Z" fill="white"/>
<path d="M38.1113 42.6467C39.5113 40.3467 39.4113 38.0467 38.6113 35.4467C36.2113 27.6467 37.7113 24.8467 45.3113 21.6467C47.8113 20.6467 50.1113 19.5467 51.9113 16.8467C52.6113 19.7467 50.7113 20.8467 49.2113 21.9467C48.0113 22.7467 46.6113 23.3467 45.3113 24.0467C40.2113 26.7467 39.5113 28.5467 40.9113 34.1467C41.8113 37.6467 42.4113 41.0467 39.3113 43.8467C38.6113 43.6467 38.3113 43.1467 38.1113 42.6467Z" fill="white"/>
<path d="M65.4109 68.8467C65.7109 68.9467 66.0109 68.9467 66.2109 68.8467C66.5109 68.8467 66.8109 69.0467 67.1109 69.1467C67.4109 69.8467 67.8109 69.9467 68.2109 69.2467C69.2109 69.0467 70.2109 69.0467 71.1109 69.4467C71.4109 69.9467 71.8109 70.0467 72.3109 69.7467C73.5109 69.8467 74.8109 70.0467 76.0109 70.1467C76.3109 70.7467 76.8109 70.8467 77.4109 70.4467C78.3109 70.5467 79.2109 70.6467 80.2109 70.7467C80.2109 71.0467 80.2109 71.4467 80.1109 71.7467C76.4109 72.8467 72.8109 71.6467 69.2109 71.4467C68.4109 70.5467 67.7109 70.8467 67.1109 71.7467C66.3109 72.1467 66.1109 72.9467 65.8109 73.7467C64.7109 75.1467 64.9109 76.5467 65.7109 77.9467C65.7109 78.5467 65.7109 79.1467 65.7109 79.7467C65.0109 80.3467 65.2109 81.1467 65.0109 81.8467C64.3109 82.1467 63.6109 82.4467 62.8109 82.7467C63.1109 81.1467 63.3109 79.5467 63.6109 77.8467C64.4109 77.1467 64.4109 76.4467 63.5109 75.7467C63.0109 72.3467 60.6109 71.8467 57.8109 72.0467C55.9109 72.1467 54.0109 73.0467 52.2109 71.7467C53.1109 70.1467 55.3109 71.5467 56.2109 70.0467C58.1109 69.6467 60.1109 69.6467 62.1109 69.8467C63.8109 71.1467 65.2109 71.7467 65.4109 68.8467Z" fill="white"/>
<path d="M44.3109 127.047C44.3109 127.647 44.3109 128.247 44.3109 128.747C41.5109 128.247 39.0109 127.247 37.2109 124.947C37.3109 124.347 37.4109 123.847 37.5109 123.247C39.3109 125.247 41.9109 125.947 44.3109 127.047Z" fill="white"/>
<path d="M22.5113 86.7471C24.0113 87.6471 22.2113 89.9471 24.1113 90.7471C24.0113 92.1471 23.4113 93.1471 21.6113 93.9471C21.9113 91.2471 22.2113 88.9471 22.5113 86.7471Z" fill="white"/>
<path d="M33.3117 93.9467C32.0117 95.8467 30.7117 97.7467 29.4117 99.6467C29.3117 98.9467 29.1117 98.2467 29.0117 97.6467C29.6117 95.7467 30.4117 93.9467 32.2117 92.8467C32.5117 93.1467 32.9117 93.5467 33.3117 93.9467Z" fill="white"/>
<path d="M19.1113 61.1471C19.1113 60.6471 19.2113 60.2471 19.2113 59.7471C21.8113 61.1471 21.4113 63.4471 20.7113 66.8471C20.0113 64.3471 19.6113 62.7471 19.1113 61.1471Z" fill="white"/>
<path d="M56.3117 70.1471C55.4117 71.6471 53.2117 70.2471 52.3117 71.8471C51.0117 71.9471 50.4117 70.8471 49.5117 69.7471C51.7117 69.8471 54.0117 69.9471 56.3117 70.1471Z" fill="white"/>
<path d="M13.0117 122.047C14.1117 121.947 15.3117 121.847 16.4117 121.847C18.5117 121.847 19.4117 122.847 19.1117 124.947L19.2117 124.847C17.1117 123.847 15.1117 122.947 13.0117 122.047Z" fill="white"/>
<path d="M33.3113 93.9473C32.9113 93.5473 32.5113 93.1473 32.1113 92.7473C32.8113 91.6473 33.8113 90.8473 35.2113 91.0473C35.5113 91.6473 35.9113 92.2473 36.2113 92.8473C35.2113 93.1473 34.3113 93.5473 33.3113 93.9473Z" fill="white"/>
<path d="M63.6106 127.747C64.1106 127.747 64.7106 127.847 65.2106 127.847C65.7106 127.847 66.2106 127.847 66.8106 127.847C67.0106 127.647 67.1106 127.747 67.2106 127.847C66.6106 128.947 65.9106 129.947 65.3106 131.047C64.9106 129.947 62.6106 130.547 63.2106 128.647C63.3106 128.347 63.4106 128.047 63.6106 127.747Z" fill="white"/>
<path d="M65.2109 106.847C64.6109 107.647 63.9109 108.147 63.2109 106.947C63.3109 106.147 63.3109 105.347 64.1109 104.847C64.8109 104.547 65.6109 104.147 66.3109 103.847C66.6109 104.047 66.9109 104.347 67.2109 104.547C66.5109 105.247 65.4109 105.647 65.2109 106.847Z" fill="white"/>
<path d="M37.4105 123.247C37.3105 123.847 37.2105 124.347 37.1105 124.947C35.1105 123.247 35.5105 121.347 36.9105 118.347C37.2105 120.547 37.3105 121.947 37.4105 123.247Z" fill="white"/>
<path d="M52.0117 130.047C54.8117 129.947 57.7117 129.047 60.4117 130.647C57.5117 130.547 54.7117 131.347 52.0117 130.047Z" fill="white"/>
<path d="M64.9113 18.9467C65.0113 19.8467 65.5113 20.8467 64.2113 21.6467C62.7113 21.4467 63.0113 19.6467 62.1113 18.9467C62.4113 18.9467 62.8113 18.8467 63.1113 18.8467C63.7113 18.8467 64.3113 18.9467 64.9113 18.9467Z" fill="white"/>
<path d="M27.6105 32.3467C27.2105 31.8467 26.7105 31.4467 26.3105 30.9467C26.4105 29.3467 26.8105 27.9467 28.1105 26.9467V26.8467C28.4105 28.7467 28.6105 30.5467 27.6105 32.3467Z" fill="white"/>
<path d="M38.1117 42.6465C38.3117 43.2465 38.6117 43.6465 39.2117 43.8465C38.3117 45.0465 37.3117 46.3465 36.4117 47.5465C36.1117 47.3465 35.8117 47.1465 35.5117 46.9465C36.2117 45.3465 36.7117 43.7465 38.1117 42.6465Z" fill="white"/>
<path d="M29.0112 97.5469C29.1112 98.2469 29.3112 98.9469 29.4112 99.5469C29.5112 100.847 28.3112 101.447 27.4112 103.347C27.1112 100.347 27.9112 98.9469 29.0112 97.5469Z" fill="white"/>
<path d="M4.21094 90.8466C4.31094 88.9466 6.81094 90.5465 7.11094 88.9465C7.71094 88.8465 8.41094 88.7465 8.71094 89.5465C9.01094 90.3465 8.61094 90.7466 7.91094 90.8466C6.71094 90.9466 5.51094 90.8466 4.21094 90.8466Z" fill="white"/>
<path d="M15.2109 103.247C15.9109 102.547 16.6109 101.947 17.7109 102.347C17.6109 103.947 16.4109 104.447 15.2109 104.847C15.2109 104.347 15.2109 103.747 15.2109 103.247Z" fill="white"/>
<path d="M66.3113 103.847C65.6113 104.147 64.8113 104.547 64.1113 104.847C64.2113 103.547 64.3113 102.147 64.4113 100.847C64.7113 100.847 65.0113 100.847 65.2113 100.847C65.2113 101.647 65.3113 102.347 66.0113 102.847C66.1113 103.147 66.2113 103.547 66.3113 103.847Z" fill="white"/>
<path d="M58.2109 17.7469C57.2109 17.6469 56.4109 17.0469 55.7109 16.3469C57.1109 15.0469 58.2109 15.7469 59.3109 16.7469C59.0109 17.1469 58.6109 17.4469 58.2109 17.7469Z" fill="white"/>
<path d="M58.2111 108.847C58.6111 108.947 59.0111 108.947 59.3111 109.047C59.1111 109.947 59.1111 111.347 57.7111 110.747C56.7111 110.247 57.7111 109.447 58.2111 108.847Z" fill="white"/>
<path d="M65.4113 68.847C65.1113 71.747 63.7113 71.1469 62.1113 69.9469C62.5113 69.9469 62.8113 69.847 63.2113 69.847C64.0113 69.547 64.3113 68.347 65.4113 68.847Z" fill="white"/>
<path d="M39.2113 66.7473C39.2113 66.3473 39.1113 65.9473 39.1113 65.5473C39.8113 65.1473 40.4113 64.8473 41.1113 64.4473L41.4113 64.8473L41.9113 64.7473C41.3113 65.8473 40.6113 66.7473 39.2113 66.7473Z" fill="white"/>
<path d="M26.2102 20.7473C25.8102 20.3473 25.3102 20.0473 24.9102 19.6473C25.7102 18.5473 27.0102 18.7473 28.1102 18.4473C28.1102 18.8473 28.1102 19.3473 28.1102 19.7473C27.5102 20.1473 27.0102 20.8473 26.2102 20.7473Z" fill="white"/>
<path d="M28.2109 19.8464C28.2109 19.4464 28.2109 18.9465 28.2109 18.5465C29.0109 17.6465 29.8109 17.6465 30.7109 18.4465C29.9109 19.0465 29.2109 19.7464 28.2109 19.8464Z" fill="white"/>
<path d="M15.2113 103.247C15.2113 103.747 15.2113 104.347 15.2113 104.847C14.6113 105.247 14.1113 106.047 13.2113 105.747C13.2113 105.347 13.1113 104.947 13.1113 104.547C13.8113 104.147 14.5113 103.647 15.2113 103.247Z" fill="white"/>
<path d="M11.1103 91.7472C10.7103 91.6472 10.1103 91.5472 10.2103 90.8472C10.3103 90.4472 10.5103 89.8472 11.1103 90.3472C11.4103 90.6472 11.7103 91.0472 12.0103 91.4472C11.7103 91.5472 11.4103 91.6472 11.1103 91.7472Z" fill="white"/>
<path d="M51.1109 43.7471C51.1109 44.2471 51.2109 44.8471 51.2109 45.3471C50.7109 46.0471 50.1109 46.5471 49.2109 45.9471V45.8471C49.3109 44.6471 50.1109 44.0471 51.1109 43.7471Z" fill="white"/>
<path d="M63.6103 75.7471C64.5103 76.4471 64.5103 77.1471 63.7103 77.8471C63.3103 77.2471 63.3103 76.5471 63.6103 75.7471Z" fill="white"/>
<path d="M6.91133 115.947C6.01133 115.247 6.01133 114.547 6.91133 113.847C6.91133 114.547 6.91133 115.247 6.91133 115.947Z" fill="white"/>
<path d="M58.2109 17.7471C58.6109 17.4471 58.9109 17.0471 59.3109 16.7471C59.8109 16.8471 60.2109 17.0471 60.4109 17.6471C60.0109 17.9471 59.7109 18.1471 59.3109 18.4471C59.0109 18.2471 58.6109 18.0471 58.2109 17.7471Z" fill="white"/>
<path d="M47.4109 127.747C46.6109 127.947 45.8109 127.847 45.2109 127.047C46.0109 126.947 46.7109 127.347 47.4109 127.747Z" fill="white"/>
<path d="M36.4114 47.5467C36.4114 48.0467 36.1114 48.5467 35.7114 48.3467C35.1114 48.0467 35.1114 47.4467 35.6114 46.8467C35.8114 47.1467 36.1114 47.3467 36.4114 47.5467Z" fill="white"/>
<path d="M41.1114 64.4465C41.0114 63.9465 41.3114 63.2465 41.6114 63.3465C42.3114 63.5465 42.4114 64.1466 41.8114 64.7466L41.3114 64.8465L41.1114 64.4465Z" fill="white"/>
<path d="M19.1113 124.847C19.2113 124.847 19.3113 124.947 19.4113 124.947C19.4113 124.947 19.3113 124.847 19.1113 124.847Z" fill="white"/>
<path d="M56.1113 84.8467C56.5113 85.1467 56.4113 85.4467 56.0113 85.5467C55.9113 85.5467 55.6113 85.4467 55.6113 85.3467C55.6113 84.9467 55.8113 84.7467 56.3113 84.9467L56.1113 84.8467Z" fill="white"/>
<path d="M49.3114 45.9473C49.5114 46.2473 49.3114 46.6473 49.0114 46.5473C48.2114 46.1473 49.0114 46.0473 49.3114 45.9473Z" fill="white"/>
<path d="M61.5113 128.747C60.9113 128.847 60.5113 128.647 60.1113 128.147C60.8113 127.947 61.2113 128.247 61.5113 128.747Z" fill="white"/>
<path d="M63.7102 39.9473C64.1102 40.1473 64.1102 40.3473 63.9102 40.7473C63.6102 40.4473 63.6102 40.2473 63.7102 39.9473Z" fill="white"/>
<path d="M28.2109 26.9464C28.3109 26.8464 28.3109 26.6464 28.4109 26.5464C28.4109 26.4464 28.7109 26.5464 28.7109 26.5464C28.7109 26.8464 28.5109 26.9464 28.2109 26.9464Z" fill="white"/>
<path d="M63.9113 59.3467C64.1113 59.9467 64.1113 60.4467 63.6113 60.8467C63.4113 60.2467 63.4113 59.7467 63.9113 59.3467Z" fill="white"/>
<path d="M66.2104 137.847C80.8104 137.747 95.5104 137.347 110.11 138.047C108.81 140.547 106.41 141.747 104.21 143.047C101.41 144.647 98.5104 146.247 96.2104 148.647C93.8104 150.747 91.1104 152.347 88.5104 153.947C87.6104 153.747 86.9104 153.947 86.3104 154.747C85.7104 154.847 85.0104 154.947 84.4104 155.147C84.4104 154.447 84.4104 153.647 84.4104 152.947C85.1104 152.247 85.7104 151.647 86.4104 150.947C87.8104 149.547 88.0104 148.147 86.1104 147.047C85.5104 146.647 85.0104 146.347 84.4104 145.947C83.7104 145.047 82.7104 144.847 81.6104 144.647C80.8104 143.947 80.0104 143.847 79.1104 144.247C78.1104 144.447 77.7104 144.947 78.1104 145.947H77.9104C76.8104 143.947 81.1104 146.147 79.1104 147.347C79.8104 148.247 76.5104 145.847 77.4104 146.047C78.5104 147.547 78.5104 149.147 78.3104 150.947C77.3104 151.747 75.9104 151.647 75.1104 152.847C73.8104 152.847 72.5104 152.847 71.6104 151.647C68.3104 147.547 65.4104 143.347 66.2104 137.847Z" fill="#FF0003"/>
<path d="M86.2102 150.847C85.5102 151.547 84.9102 152.147 84.2102 152.847C82.8102 153.147 81.5102 153.447 80.1102 153.847C79.0102 153.647 78.0102 153.847 77.0102 154.347C77.1102 154.247 77.2102 154.047 77.1102 153.847C76.6102 152.947 75.7102 152.947 74.9102 152.747C75.7102 151.647 77.1102 151.647 78.1102 150.847C79.2102 150.847 80.4102 150.947 81.5102 150.747C84.4102 150.247 84.5102 149.547 82.2102 146.747C82.6102 145.947 83.4102 145.947 84.1102 145.847C84.7102 146.247 85.2102 146.547 85.8102 146.947C86.0102 148.247 86.1102 149.547 86.2102 150.847Z" fill="white"/>
<path d="M44.1102 157.647C46.2102 159.947 49.0102 158.247 51.4102 158.947C47.3102 161.447 43.3102 159.447 39.3102 158.647C38.6102 157.547 36.7102 157.847 36.4102 155.847C39.1102 156.547 41.6102 157.047 44.1102 157.647Z" fill="#FF0008"/>
<path d="M75.0117 157.947C74.3117 157.447 74.1117 156.647 74.0117 155.847C74.9117 154.947 75.5117 153.647 77.2117 153.847C77.2117 154.047 77.2117 154.147 77.1117 154.347C76.7117 155.147 76.0117 155.947 76.1117 156.947C76.1117 157.247 76.1117 157.547 76.1117 157.847C75.8117 157.847 75.4117 157.947 75.0117 157.947Z" fill="white"/>
<path d="M93.3117 155.946C88.7117 160.746 83.2117 161.746 77.0117 159.946C78.9117 159.246 82.3117 161.346 82.1117 157.046L82.2117 156.846C84.5117 156.746 87.0117 157.646 89.1117 155.946C90.3117 155.046 91.6117 154.646 93.1117 154.746C93.2117 155.046 93.2117 155.546 93.3117 155.946Z" fill="#FF000C"/>
<path d="M82.1112 157.047C82.3112 161.347 78.9112 159.247 77.0112 159.947H76.6112L76.2112 159.747C76.2112 159.147 76.1112 158.447 76.1112 157.847C76.9112 157.547 76.8112 157.247 76.1112 156.947C75.9112 155.847 76.6112 155.147 77.1112 154.347C78.1112 153.847 79.1112 153.747 80.2112 153.847C80.8112 154.847 81.5112 155.947 82.1112 157.047Z" fill="#FF0003"/>
<path d="M93.2113 154.647C91.7113 154.647 90.4113 154.947 89.2113 155.847C88.4113 155.747 87.6113 155.747 87.1113 154.847C87.5113 154.547 87.9113 154.247 88.3113 153.847C91.0113 152.247 93.6113 150.547 96.0113 148.547C96.0113 149.347 96.1113 150.047 96.1113 150.847C96.1113 151.147 96.1113 151.547 96.1113 151.847C96.1113 152.147 96.1113 152.447 96.1113 152.747C94.7113 152.647 93.6113 153.047 93.2113 154.647Z" fill="white"/>
<path d="M93.2109 154.647C93.7109 153.047 94.8109 152.647 96.3109 152.847C96.0109 154.547 95.1109 155.647 93.4109 155.947C93.2109 155.547 93.2109 155.047 93.2109 154.647Z" fill="white"/>
<path d="M96.2109 151.947C96.2109 151.647 96.2109 151.247 96.2109 150.947C96.8109 150.847 97.6109 150.047 97.8109 150.847C98.1109 151.947 97.0109 151.847 96.2109 151.947Z" fill="white"/>
<path d="M76.1102 157.847C76.1102 158.447 76.2102 159.147 76.2102 159.747L75.7102 159.847L75.2102 159.747C75.1102 159.147 75.0102 158.547 74.9102 157.947C75.4102 157.947 75.8102 157.847 76.1102 157.847Z" fill="white"/>
<path d="M7.21094 58.8472C7.41094 58.3472 7.21094 57.3472 8.31094 57.8472C8.71094 59.1472 7.81094 58.8472 7.21094 58.8472Z" fill="white"/>
<path d="M117.211 122.747C116.611 122.847 116.011 122.947 115.411 123.047C115.011 122.647 114.711 122.347 114.311 121.947C114.911 121.847 115.511 121.847 116.111 121.747C116.411 122.047 116.811 122.447 117.211 122.747Z" fill="white"/>
<path d="M84.0102 8.74707C83.9102 9.74707 83.3102 10.5471 82.5102 11.0471C82.1102 10.7471 81.7102 10.4471 81.4102 10.1471C81.8102 9.04707 82.2102 7.84707 82.6102 6.74707C83.0102 7.44707 83.5102 8.14707 84.0102 8.74707Z" fill="white"/>
<path d="M16.3109 40.8467C16.2109 43.8467 14.2109 46.5467 11.2109 47.9467C11.6109 44.6467 13.7109 42.5467 16.3109 40.8467Z" fill="white"/>
<path d="M11.3109 49.1472C10.7109 49.0472 10.5109 48.5472 10.2109 48.0472C10.5109 47.6472 10.8109 47.6472 11.2109 47.9472C11.8109 48.2472 11.8109 48.6472 11.3109 49.1472Z" fill="white"/>
<path d="M105.211 34.8472C103.411 34.4472 101.511 33.9472 99.7109 33.5472C102.011 32.7472 104.311 32.0472 106.411 33.6472C106.011 34.0472 105.611 34.4472 105.211 34.8472Z" fill="white"/>
<path d="M119.311 90.9473C120.611 90.6473 121.911 90.2473 123.211 89.9473C123.211 90.5473 123.211 91.0473 123.211 91.6473C121.911 91.9473 120.711 92.2473 119.411 92.5473C119.411 92.0473 119.411 91.5473 119.311 90.9473Z" fill="white"/>
<path d="M102.21 20.8473C100.81 20.1473 101.11 19.0473 101.41 17.9473C102.91 18.3473 103.11 19.5473 103.41 20.6473C103.01 20.7473 102.61 20.7473 102.21 20.8473Z" fill="white"/>
<path d="M105.211 21.8471C105.811 21.6471 106.211 21.3471 106.411 20.7471C107.211 21.2471 107.511 22.0471 107.411 22.9471C106.511 22.9471 105.711 22.6471 105.211 21.8471Z" fill="white"/>
<path d="M46.1113 156.047C46.6113 155.947 47.4113 155.647 47.4113 156.547C47.4113 156.947 46.8113 157.047 46.3113 156.947C46.2113 156.647 46.1113 156.347 46.1113 156.047Z" fill="white"/>
<path d="M46.2102 156.947C45.9102 157.547 45.5102 157.647 44.9102 157.447C45.3102 156.947 45.7102 156.747 46.2102 156.947Z" fill="white"/>
<path d="M65.3102 95.5472C70.1102 91.7472 75.0102 91.4472 80.8102 93.5472C84.8102 95.0472 88.8102 92.7472 92.5102 90.7472C96.9102 88.3472 98.9102 89.2472 100.81 93.7472C100.21 93.7472 99.6102 93.8472 99.1102 93.8472C98.2102 91.8472 96.7102 91.1472 94.7102 92.2472C92.9102 93.2472 91.3102 94.2472 89.4102 95.0472C85.8102 96.5472 81.8102 97.3472 78.3102 95.5472C73.0102 92.9472 69.4102 94.6472 66.4102 98.9472C65.8102 97.9472 65.1102 96.8472 65.3102 95.5472Z" fill="white"/>
<path d="M65.7117 79.7471C66.1117 80.4471 66.1117 81.1471 65.9117 81.9471C65.6117 81.9471 65.3117 81.9471 65.0117 81.8471C65.3117 81.1471 65.0117 80.3471 65.7117 79.7471Z" fill="white"/>
<path d="M66.0109 100.847C66.0109 101.547 66.0109 102.247 66.0109 102.847C65.3109 102.347 65.2109 101.647 65.2109 100.847C65.5109 100.847 65.7109 100.747 66.0109 100.847Z" fill="white"/>
<path d="M66.1113 82.9473C66.5113 83.0473 66.9113 83.1473 67.2113 83.1473C66.7113 83.9473 66.3113 83.9473 66.1113 82.9473Z" fill="white"/>
<path d="M72.4109 103.047C71.0109 105.547 68.0109 105.947 66.3109 108.047C65.9109 107.647 65.6109 107.247 65.2109 106.947C65.4109 105.747 66.5109 105.347 67.2109 104.647C68.9109 104.247 70.2109 103.147 71.7109 102.347C71.9109 102.447 72.1109 102.747 72.4109 103.047Z" fill="white"/>
<path d="M90.2109 126.747C90.9109 125.447 92.4109 124.547 92.4109 122.947C93.2109 123.447 93.2109 124.247 93.3109 125.047C93.1109 126.947 91.9109 128.147 90.2109 128.847C90.2109 128.147 90.2109 127.447 90.2109 126.747Z" fill="white"/>
<path d="M66.7113 127.847C66.2113 127.847 65.7113 127.847 65.1113 127.847C65.7113 126.547 66.2113 126.947 66.7113 127.847Z" fill="white"/>
<path d="M64.2109 42.8473C65.7109 42.7473 66.6109 43.1473 66.2109 44.8473C64.8109 45.0473 64.3109 44.1473 64.2109 42.8473Z" fill="white"/>
<path d="M67.3109 44.9468C67.3109 45.8468 67.1109 46.5468 66.3109 47.1468C66.3109 46.4468 66.2109 45.6468 66.2109 44.9468C66.6109 44.8468 67.0109 44.9468 67.3109 44.9468Z" fill="white"/>
<path d="M78.0113 44.9464C76.0113 44.8464 74.1113 44.7464 72.1113 44.6464C72.1113 44.0464 72.1113 43.5464 72.1113 42.9464C74.5113 42.7464 76.9113 42.3464 79.1113 43.8464C78.8113 44.2464 78.4113 44.6464 78.0113 44.9464Z" fill="white"/>
<path d="M80.2113 70.7469C80.6113 69.8469 81.4113 69.7469 82.2113 69.9469C82.4113 70.0469 82.7113 70.4469 82.6113 70.5469C82.1113 71.6469 81.1113 71.7469 80.1113 71.6469C80.1113 71.4469 80.2113 71.0469 80.2113 70.7469Z" fill="white"/>
<path d="M65.9113 73.7471C66.2113 75.1471 66.4113 76.5471 65.8113 77.9471C64.9113 76.5471 64.8113 75.1471 65.9113 73.7471Z" fill="white"/>
<path d="M69.2113 71.4472C68.5113 71.5472 67.8113 71.6472 67.1113 71.7472C67.8113 70.9472 68.4113 70.5472 69.2113 71.4472Z" fill="white"/>
<path d="M67.1113 69.1465C67.5113 69.1465 67.8113 69.1465 68.2113 69.2465C67.8113 69.9465 67.5113 69.8465 67.1113 69.1465Z" fill="white"/>
<path d="M76.1113 70.1464C76.6113 69.9464 77.1113 69.9464 77.5113 70.4464C76.9113 70.8464 76.4113 70.7464 76.1113 70.1464Z" fill="white"/>
<path d="M71.2109 69.3466C71.7109 69.0466 72.1109 69.2466 72.4109 69.6466C71.9109 69.9466 71.5109 69.8466 71.2109 69.3466Z" fill="white"/>
<path d="M96.01 78.9469C91.91 76.0469 90.91 72.9469 92.21 68.6469C93.51 64.4469 96.31 61.8469 100.61 61.0469C104.31 60.3469 107.61 62.4469 109.91 67.0469C106.01 64.1469 101.81 61.6469 97.41 65.3469C93.01 69.1469 93.31 73.9469 96.01 78.9469Z" fill="white"/>
<path d="M87.5117 37.7469C90.4117 35.1469 92.4117 32.0469 93.7117 28.4469C94.5117 26.1469 95.6117 23.8469 98.3117 23.0469C98.3117 23.6469 98.3117 24.3469 98.4117 24.9469C96.8117 26.5469 96.4117 28.6469 95.6117 30.6469C94.3117 33.7469 92.8117 36.6469 89.5117 37.9469C88.7117 37.8469 88.1117 37.8469 87.5117 37.7469Z" fill="white"/>
<path d="M76.2102 17.5465C74.6102 17.4465 73.1102 17.2465 71.5102 17.1465C70.9102 17.0465 70.5102 17.2465 70.1102 17.7465C69.8102 17.7465 69.4102 17.8465 69.1102 17.8465C68.9102 17.2465 68.4102 16.9465 67.9102 16.7465C70.4102 14.1465 73.3102 15.2465 76.1102 15.9465C76.2102 16.4465 76.2102 17.0465 76.2102 17.5465Z" fill="white"/>
<path d="M99.4105 95.7468C99.3105 95.4468 99.3105 95.1468 99.3105 94.8468C99.9105 94.5468 100.611 94.4468 101.211 94.8468C101.111 97.0468 101.611 99.2468 101.111 101.547C99.6105 100.647 100.311 99.1468 99.9105 98.1468C100.311 97.2468 100.111 96.4468 99.4105 95.7468Z" fill="white"/>
<path d="M93.3114 125.046C93.2114 124.246 93.2114 123.446 92.4114 122.946C92.2114 121.946 92.1114 120.946 93.6114 120.646C94.5114 122.146 94.8114 123.646 93.3114 125.046Z" fill="white"/>
<path d="M76.2109 17.5472C76.2109 17.0472 76.2109 16.4472 76.2109 15.9472C77.6109 15.8472 78.6109 16.7472 80.0109 17.0472C78.6109 18.3472 77.4109 18.0472 76.2109 17.5472Z" fill="white"/>
<path d="M114.211 121.947C114.611 122.347 114.911 122.647 115.311 123.047C114.311 123.947 113.111 124.247 111.711 123.747C111.911 122.147 113.011 121.947 114.211 121.947Z" fill="white"/>
<path d="M103.512 110.547C103.012 108.947 102.912 107.847 104.112 107.647C105.512 107.447 105.112 108.447 104.612 109.147C104.312 109.547 104.012 109.847 103.512 110.547Z" fill="white"/>
<path d="M98.3109 24.9465C98.3109 24.3465 98.3109 23.6465 98.2109 23.0465C99.0109 22.5465 99.7109 22.7465 100.811 23.2465C100.311 24.3465 99.4109 24.8465 98.3109 24.9465Z" fill="white"/>
<path d="M78.0117 44.9473C78.4117 44.6473 78.7117 44.2473 79.1117 43.9473C80.2117 44.2473 81.0117 44.7473 81.4117 46.4473C79.9117 46.2473 78.9117 45.9473 78.0117 44.9473Z" fill="white"/>
<path d="M119.312 90.9473C119.312 91.4473 119.412 91.9473 119.412 92.5473C118.712 92.8473 117.912 92.8473 117.712 92.1473C117.512 90.9473 118.412 90.8473 119.312 90.9473Z" fill="white"/>
<path d="M72.1113 101.747C72.6113 101.047 72.8113 99.7473 74.1113 100.347C74.6113 100.547 74.2113 101.547 73.4113 101.847C73.0113 101.847 72.5113 101.847 72.1113 101.747Z" fill="white"/>
<path d="M91.3117 116.947C92.2117 116.947 92.3117 117.647 92.5117 118.247C92.5117 118.347 92.0117 118.647 91.8117 118.647C91.0117 118.547 90.9117 117.847 90.5117 117.347C90.7117 117.247 91.0117 117.147 91.3117 116.947Z" fill="white"/>
<path d="M87.5109 37.7471C88.1109 37.8471 88.7109 37.9471 89.3109 38.0471C88.9109 38.6471 88.4109 38.9471 87.7109 38.9471C87.2109 38.9471 86.7109 38.8471 86.7109 38.2471C86.7109 38.0471 87.2109 37.8471 87.5109 37.7471Z" fill="white"/>
<path d="M81.4109 12.0471C80.9109 12.8471 80.2109 13.0471 79.3109 12.8471C79.1109 12.8471 78.7109 12.4471 78.7109 12.3471C78.8109 11.7471 79.3109 11.8471 79.8109 11.7471C80.4109 11.8471 80.9109 11.9471 81.4109 12.0471Z" fill="white"/>
<path d="M81.4102 12.0467C80.9102 11.9467 80.4102 11.9467 79.9102 11.8467C80.4102 11.3467 80.9102 10.8467 81.3102 10.3467C81.7102 10.6467 82.1102 10.9467 82.4102 11.2467C82.3102 11.6467 82.0102 11.9467 81.4102 12.0467Z" fill="white"/>
<path d="M101.211 94.8467C100.611 94.5467 99.9113 94.5467 99.3113 94.8467C99.2113 94.5467 99.2113 94.2467 99.1113 93.9467C99.7113 93.9467 100.311 93.8467 100.811 93.8467C101.011 94.0467 101.211 94.2467 101.311 94.4467C101.411 94.5467 101.211 94.7467 101.211 94.8467Z" fill="white"/>
<path d="M99.4114 95.7471C100.111 96.4471 100.311 97.1471 99.9114 98.1471C99.2114 97.4471 99.1114 96.6471 99.4114 95.7471Z" fill="white"/>
<path d="M70.2109 17.6465C70.5109 17.1465 71.0109 16.9465 71.6109 17.0465C71.1109 17.3465 70.6109 17.5465 70.2109 17.6465Z" fill="white"/>
<path d="M67.9109 16.7471C68.5109 16.9471 68.9109 17.1471 69.1109 17.8471C68.8109 17.9471 68.6109 18.0471 68.3109 18.0471C68.1109 17.6471 67.9109 17.3471 67.7109 16.9471C67.8109 16.9471 67.9109 16.7471 67.9109 16.7471Z" fill="white"/>
<path d="M72.1109 101.747C72.5109 101.747 73.0109 101.847 73.4109 101.847C73.3109 102.447 73.0109 102.847 72.4109 102.947C72.2109 102.647 71.9109 102.347 71.7109 102.147C71.7109 101.947 71.9109 101.847 72.1109 101.747Z" fill="white"/>
<path d="M82.2109 146.747C84.6109 149.547 84.5109 150.247 81.5109 150.747C80.4109 150.947 79.2109 150.847 78.1109 150.847C78.3109 149.147 78.2109 147.447 77.2109 145.947L77.4109 145.847H77.7109H77.9109C79.4109 145.547 80.8109 146.547 82.2109 146.747Z" fill="#FF0003"/>
<path d="M82.1113 157.047C81.4113 155.947 80.8113 154.947 80.1113 153.847C81.5113 153.547 83.3114 153.247 84.7114 152.847C84.7114 153.547 84.7114 154.147 84.7114 154.847C84.3114 155.647 82.4113 155.547 82.2113 156.747L82.1113 157.047Z" fill="#FF0008"/>
<path d="M82.3105 156.746C82.5105 155.546 83.8105 155.846 84.3105 155.046C84.9105 154.946 85.6105 154.846 86.2105 154.646C86.5105 154.746 86.9105 154.746 87.2105 154.846C87.6105 155.646 88.5105 155.746 89.3105 155.846C87.1105 157.646 84.6105 156.646 82.3105 156.746Z" fill="white"/>
<path d="M82.2115 146.746C80.7115 146.546 79.4115 145.546 77.8115 145.846C77.4115 144.846 77.8115 144.346 78.8115 144.146C79.6115 144.646 80.4115 144.746 81.3115 144.546C82.4115 144.746 83.4115 144.946 84.1115 145.846C83.4115 145.946 82.7115 145.946 82.2115 146.746Z" fill="white"/>
<path d="M86.2102 150.847C86.1102 149.547 86.0102 148.247 85.9102 146.947C87.8102 148.147 87.6102 149.447 86.2102 150.847Z" fill="white"/>
<path d="M81.4102 144.547C80.5102 144.747 79.7102 144.647 78.9102 144.147C79.8102 143.747 80.6102 143.847 81.4102 144.547Z" fill="white"/>
<path d="M87.1113 154.947C86.8113 154.847 86.4113 154.847 86.1113 154.747C86.7113 154.047 87.4113 153.847 88.3113 153.947C88.0113 154.247 87.5113 154.647 87.1113 154.947Z" fill="white"/>
<path d="M76.1113 156.947C76.8113 157.247 76.9113 157.547 76.1113 157.847C76.1113 157.447 76.1113 157.147 76.1113 156.947Z" fill="#D7333B"/>
</svg>
