<svg width="482" height="1258" viewBox="0 0 482 1258" fill="none" xmlns="http://www.w3.org/2000/svg">
<path d="M-0.00194788 1251L11.5679 1243.93L11.9058 1257.48L-0.00194788 1251ZM407.424 1129.91L408.333 1130.66L407.424 1129.91ZM432.498 928.5L432.706 929.656L432.498 928.5ZM425.14 704.5L423.974 704.637L425.14 704.5ZM477.498 644L476.324 644L477.498 644ZM458.14 558.824L457.205 558.114L458.14 558.824ZM339.503 285.5L338.445 286.009L339.503 285.5ZM10.541 1249.56C47.4076 1249.05 120.42 1250.78 197.27 1236.69C274.134 1222.6 354.611 1192.72 406.514 1129.17L408.333 1130.66C355.91 1194.84 274.771 1224.87 197.693 1239C120.601 1253.13 47.3437 1251.4 10.5734 1251.91L10.541 1249.56ZM406.514 1129.17C428.047 1102.81 452.184 1049.42 461.972 1004.23C466.87 981.605 468.123 961.254 463.819 947.424C461.676 940.54 458.186 935.369 453.178 932.281C448.173 929.194 441.477 928.082 432.706 929.656L432.291 927.344C441.453 925.7 448.778 926.809 454.411 930.282C460.04 933.753 463.805 939.479 466.061 946.726C470.554 961.162 469.184 982.016 464.267 1004.72C454.422 1050.18 430.156 1103.94 408.333 1130.66L406.514 1129.17ZM432.706 929.656C426.895 930.699 422.859 934.565 420.793 939.74C418.718 944.94 418.655 951.438 420.87 957.537C423.079 963.619 427.542 969.269 434.479 972.805C441.416 976.341 450.918 977.808 463.269 975.348L463.728 977.652C450.972 980.192 440.913 978.721 433.412 974.898C425.911 971.074 421.061 964.943 418.662 958.338C416.269 951.75 416.303 944.654 418.612 938.869C420.931 933.06 425.564 928.551 432.291 927.344L432.706 929.656ZM463.269 975.348C469.138 974.18 473.128 970.726 475.651 965.276C478.203 959.762 479.248 952.197 479.056 942.931C478.674 924.409 473.374 899.593 466.126 872.051C458.877 844.505 449.738 814.431 441.69 785.283C433.656 756.185 426.727 728.068 423.974 704.637L426.307 704.363C429.037 727.601 435.922 755.568 443.954 784.658C451.972 813.698 461.151 843.916 468.397 871.453C475.645 898.993 481.016 924.052 481.404 942.883C481.599 952.293 480.553 960.275 477.782 966.263C474.98 972.316 470.412 976.32 463.728 977.652L463.269 975.348ZM423.974 704.637C418.771 660.358 431.88 635.157 446.821 625.954C454.283 621.358 462.244 620.762 468.406 623.989C474.595 627.23 478.673 634.168 478.673 644L476.324 644C476.324 634.832 472.562 628.817 467.317 626.07C462.044 623.309 454.974 623.691 448.052 627.954C434.226 636.47 421.155 660.52 426.307 704.363L423.974 704.637ZM478.673 644C478.673 649.689 477.265 654.147 474.826 657.343C472.378 660.55 468.959 662.393 465.132 662.956C457.526 664.074 448.391 660.154 441.559 652.113C427.77 635.884 423.199 602.945 457.205 558.114L459.076 559.533C425.439 603.878 430.548 635.528 443.348 650.593C449.811 658.199 458.198 661.602 464.791 660.632C468.063 660.151 470.913 658.597 472.959 655.918C475.013 653.228 476.324 649.31 476.324 644L478.673 644ZM457.205 558.114C470.16 541.034 472.992 523.323 469.039 504.373C465.07 485.348 454.259 465.067 439.857 442.975C425.448 420.87 407.583 397.151 389.519 371.118C371.483 345.124 353.317 316.915 338.445 286.009L340.561 284.991C355.355 315.733 373.441 343.826 391.449 369.779C409.429 395.692 427.401 419.566 441.825 441.692C456.257 463.831 467.275 484.418 471.338 503.893C475.416 523.442 472.481 541.861 459.076 559.533L457.205 558.114ZM338.445 286.009C308.241 223.242 333.865 160.725 351.552 109.93C355.986 97.198 359.923 85.2103 362.402 74.0993C364.883 62.9853 365.887 52.823 364.508 43.7321C363.133 34.6711 359.387 26.6481 352.303 19.7757C345.198 12.8841 334.677 7.09189 319.664 2.62534L320.334 0.374376C335.571 4.90787 346.475 10.8504 353.938 18.0901C361.421 25.3491 365.384 33.8542 366.83 43.3798C368.271 52.8756 367.206 63.3587 364.694 74.6108C362.182 85.8658 358.205 97.9648 353.77 110.702C335.983 161.785 310.86 223.268 340.561 284.991L338.445 286.009Z" fill="#EC2832"/>
</svg>
