<svg width="302" height="459" viewBox="0 0 302 459" fill="none" xmlns="http://www.w3.org/2000/svg">
<path d="M296.498 189L295.349 188.76L296.498 189ZM225.999 224.001L225.016 224.643L225.999 224.001ZM156.463 337.501L156.277 336.341L156.463 337.501ZM53.0001 455L43.259 445.568L39.9614 458.72L53.0001 455ZM225.999 2.67428C240.549 2.67428 252.995 10.1174 263.322 22.4794C273.66 34.8545 281.802 52.0832 287.681 71.4043C299.442 110.057 302.043 156.73 295.349 188.76L297.648 189.24C304.434 156.77 301.786 109.693 289.927 70.7206C283.997 51.2292 275.736 33.6767 265.124 20.9737C254.501 8.25767 241.45 0.325792 225.999 0.325798L225.999 2.67428ZM295.349 188.76C293.349 198.33 287.576 210.168 279.432 222.041C271.299 233.897 260.858 245.703 249.612 255.216C238.351 264.741 226.361 271.9 215.133 274.572C203.958 277.231 193.605 275.445 185.33 267.17L183.67 268.831C192.645 277.806 203.895 279.661 215.676 276.857C227.405 274.065 239.724 266.655 251.128 257.009C262.546 247.351 273.126 235.385 281.368 223.369C289.599 211.37 295.558 199.237 297.648 189.24L295.349 188.76ZM185.33 267.17C176.903 258.743 174.453 250.611 175.496 243.538C176.547 236.414 181.179 230.106 187.426 225.462C193.671 220.819 201.407 217.934 208.437 217.585C215.469 217.236 221.598 219.416 225.016 224.643L226.982 223.358C222.952 217.194 215.856 214.866 208.32 215.24C200.782 215.614 192.606 218.685 186.025 223.577C179.446 228.468 174.341 235.275 173.173 243.195C171.997 251.167 174.846 260.008 183.67 268.831L185.33 267.17ZM225.016 224.643C233.327 237.354 238.772 261.681 230.834 284.612C222.938 307.419 201.717 329.057 156.277 336.341L156.649 338.66C202.776 331.265 224.823 309.153 233.053 285.38C241.241 261.73 235.671 236.648 226.982 223.358L225.016 224.643ZM156.277 336.341C121.589 341.902 91.5253 350.302 67.3278 360.182C43.1479 370.054 24.7556 381.433 13.4771 392.992C2.21821 404.531 -2.1742 416.519 2.42394 427.388C6.9677 438.129 20.0968 447.217 42.4188 453.557L43.0605 451.298C20.8987 445.003 8.69438 436.182 4.58683 426.473C0.533654 416.893 4.17208 405.891 15.158 394.632C26.1242 383.393 44.1908 372.165 68.2155 362.356C92.2226 352.554 122.109 344.198 156.649 338.66L156.277 336.341Z" fill="#EC2832"/>
</svg>
