<svg width="76" height="75" viewBox="0 0 76 75" fill="none" xmlns="http://www.w3.org/2000/svg">
<circle cx="38" cy="37.5" r="37.5" fill="white"/>
<path d="M28.985 54.5V49.775L41.135 38.3C42.095 37.43 42.8 36.65 43.25 35.96C43.7 35.27 44 34.64 44.15 34.07C44.33 33.5 44.42 32.975 44.42 32.495C44.42 31.235 43.985 30.275 43.115 29.615C42.275 28.925 41.03 28.58 39.38 28.58C38.06 28.58 36.83 28.835 35.69 29.345C34.58 29.855 33.635 30.65 32.855 31.73L27.545 28.31C28.745 26.51 30.425 25.085 32.585 24.035C34.745 22.985 37.235 22.46 40.055 22.46C42.395 22.46 44.435 22.85 46.175 23.63C47.945 24.38 49.31 25.445 50.27 26.825C51.26 28.205 51.755 29.855 51.755 31.775C51.755 32.795 51.62 33.815 51.35 34.835C51.11 35.825 50.6 36.875 49.82 37.985C49.07 39.095 47.96 40.34 46.49 41.72L36.41 51.215L35.015 48.56H52.79V54.5H28.985Z" fill="#6184F4"/>
</svg>
