<svg width="75" height="75" viewBox="0 0 75 75" fill="none" xmlns="http://www.w3.org/2000/svg">
<circle cx="37.5" cy="37.5" r="37.5" fill="white"/>
<path d="M35.97 55.04C33.78 55.04 31.605 54.755 29.445 54.185C27.285 53.585 25.455 52.745 23.955 51.665L26.79 46.085C27.99 46.955 29.385 47.645 30.975 48.155C32.565 48.665 34.17 48.92 35.79 48.92C37.62 48.92 39.06 48.56 40.11 47.84C41.16 47.12 41.685 46.13 41.685 44.87C41.685 43.67 41.22 42.725 40.29 42.035C39.36 41.345 37.86 41 35.79 41H32.46V36.185L41.235 26.24L42.045 28.85H25.53V23H47.58V27.725L38.85 37.67L35.16 35.555H37.275C41.145 35.555 44.07 36.425 46.05 38.165C48.03 39.905 49.02 42.14 49.02 44.87C49.02 46.64 48.555 48.305 47.625 49.865C46.695 51.395 45.27 52.64 43.35 53.6C41.43 54.56 38.97 55.04 35.97 55.04Z" fill="#6184F4"/>
</svg>
