<svg width="550" height="550" viewBox="0 0 550 550" fill="none" xmlns="http://www.w3.org/2000/svg">
<rect width="550" height="550" fill="#F5F5F5"/>
<path d="M-5964 -15347C-5964 -15348.1 -5963.1 -15349 -5962 -15349H28116C28117.1 -15349 28118 -15348.1 28118 -15347V5435C28118 5436.1 28117.1 5437 28116 5437H-5962C-5963.1 5437 -5964 5436.1 -5964 5435V-15347Z" fill="#E5E5E5"/>
<rect width="1440" height="17448" transform="translate(-790 -13184)" fill="white"/>
<g clip-path="url(#clip0_0_1)">
<rect width="1440" height="3623" transform="translate(-790 -800)" fill="#6184F4"/>
<rect width="550" height="550" rx="30" fill="#809CF6"/>
<g clip-path="url(#clip1_0_1)">
<path d="M133.348 269.5C133.348 269.5 88.5478 266 73.6478 216C58.7478 166 87.5478 138.1 99.2478 116.9C110.948 95.7002 101.848 63.6002 93.8478 37.4002C85.9478 11.2002 93.1478 -24.7998 129.848 -36.5998C166.548 -48.2998 184.848 -22.4998 209.348 -24.0998C233.848 -25.6998 240.848 -48.2998 288.748 -48.2998C336.648 -48.2998 344.448 -22.5998 367.048 -21.7998C389.648 -20.9998 410.548 -45.2998 440.848 -27.2998C471.148 -9.2998 466.348 30.4002 461.748 52.9002C456.048 80.8002 449.648 96.9002 460.948 120.7C470.248 140.4 481.948 160.9 480.548 185.2C478.848 214.7 454.848 260.3 423.548 265.4C392.048 270.4 133.348 269.5 133.348 269.5Z" fill="#6184F4"/>
<path d="M137.648 240.6H408.748C413.048 240.6 416.548 237.1 416.548 232.8V60.7004C416.548 56.4004 413.048 52.9004 408.748 52.9004H137.648C133.348 52.9004 129.848 56.4004 129.848 60.7004V232.8C129.848 237.1 133.348 240.6 137.648 240.6ZM131.648 60.7004C131.648 57.4004 134.348 54.7004 137.648 54.7004H408.748C412.048 54.7004 414.748 57.4004 414.748 60.7004V232.8C414.748 236.1 412.048 238.8 408.748 238.8H137.648C134.348 238.8 131.648 236.1 131.648 232.8V60.7004Z" fill="#77C3ED"/>
<path d="M121.949 241.9V51.6C121.949 48 124.949 45 128.549 45H417.949C421.549 45 424.549 48 424.549 51.6V241.9C424.549 245.5 421.549 248.5 417.949 248.5H128.449C124.849 248.5 121.949 245.5 121.949 241.9ZM438.449 317.7C434.449 320.6 430.449 321.2 430.049 321.2H130.749C115.449 321.2 104.249 317.9 98.1491 311.7C95.4491 308.9 94.2491 306 93.8491 304.1C96.7491 306.2 102.949 307.1 114.249 307.1H437.049C437.349 307.1 443.449 306.6 446.949 303.3C445.749 309.6 442.849 314.5 438.449 317.7ZM447.749 297.7C447.649 298.7 447.449 299.6 446.949 300.4C444.549 304.5 437.449 305.2 437.049 305.2H114.249C105.749 305.2 95.7491 304.8 93.8491 301.5C93.1491 300.3 93.5491 298.5 94.9491 296L95.4491 295.1C117.049 259 122.949 250.7 124.449 249.3C125.649 249.9 126.949 250.3 128.349 250.3H417.749C419.049 250.3 420.249 250 421.349 249.5C424.249 254.1 440.149 280.1 446.149 292.1C447.349 294.2 447.849 296 447.749 297.7Z" fill="#6184F4"/>
<path d="M352.349 268.2C352.249 267.9 351.849 267.7 351.549 267.7C273.649 267.8 125.549 268 122.049 267.7C121.649 267.6 121.249 267.8 121.049 268.2L105.449 297.3C105.249 297.6 105.349 297.9 105.449 298.2C105.649 298.5 105.949 298.6 106.249 298.6H364.849C365.149 298.6 365.449 298.4 365.649 298.2C365.849 297.9 365.849 297.6 365.749 297.3L352.349 268.2ZM107.749 296.8L122.449 269.5C134.949 269.9 284.649 269.6 351.049 269.5L363.449 296.8H107.749Z" fill="#77C3ED"/>
<path d="M125.249 264.3H348.949C349.249 264.3 349.549 264.1 349.749 263.8C349.949 263.5 349.949 263.2 349.749 262.9L344.649 254C344.449 253.7 344.149 253.5 343.849 253.5H130.749C130.449 253.5 130.149 253.7 129.949 253.9L124.449 262.8C124.249 263.1 124.249 263.4 124.449 263.7C124.549 264.1 124.949 264.3 125.249 264.3ZM131.249 255.4H343.249L347.249 262.5H126.849L131.249 255.4Z" fill="#77C3ED"/>
<path d="M420.349 266.8C420.149 266.5 419.849 266.4 419.549 266.4L359.249 267.1C358.949 267.1 358.649 267.3 358.449 267.5C358.249 267.8 358.249 268.1 358.449 268.4L373.549 298.1C373.749 298.4 374.049 298.6 374.349 298.6H439.849C440.149 298.6 440.449 298.4 440.649 298.1C440.849 297.8 440.749 297.4 440.649 297.2L420.349 266.8ZM374.949 296.8L360.749 268.9L419.149 268.2L438.249 296.8H374.949V296.8Z" fill="#77C3ED"/>
<path d="M356.148 262.9C356.348 263.2 356.648 263.4 356.948 263.4H417.648C417.948 263.4 418.248 263.2 418.448 262.9C418.648 262.6 418.548 262.3 418.448 262L413.348 254C413.148 253.7 412.848 253.6 412.548 253.6H352.548C352.248 253.6 351.948 253.8 351.748 254C351.548 254.3 351.548 254.6 351.748 254.9L356.148 262.9ZM412.048 255.4L415.948 261.6H357.448L354.048 255.4H412.048Z" fill="#77C3ED"/>
<path d="M137.648 240.6H408.748C413.048 240.6 416.548 237.1 416.548 232.8V60.7004C416.548 56.4004 413.048 52.9004 408.748 52.9004H137.648C133.348 52.9004 129.848 56.4004 129.848 60.7004V232.8C129.848 237.1 133.348 240.6 137.648 240.6ZM131.648 60.7004C131.648 57.4004 134.348 54.7004 137.648 54.7004H408.748C412.048 54.7004 414.748 57.4004 414.748 60.7004V232.8C414.748 236.1 412.048 238.8 408.748 238.8H137.648C134.348 238.8 131.648 236.1 131.648 232.8V60.7004Z" fill="white"/>
<path d="M447.949 291.2C441.949 279.1 425.949 253.2 423.049 248.5C425.049 247 426.349 244.6 426.349 241.9V51.6002C426.349 47.0002 422.549 43.2002 417.949 43.2002H128.449C123.849 43.2002 120.049 47.0002 120.049 51.6002V241.9C120.049 244.5 121.249 246.8 123.049 248.3C120.849 250.7 114.649 259.7 93.9486 294.2L93.4486 295.1C91.8486 297.8 91.3486 299.9 91.9486 301.7H91.7486C91.7486 301.9 91.5486 307.5 96.8486 313C103.349 319.7 114.749 323.1 130.749 323.1H430.049C430.249 323.1 447.849 321.3 449.449 298.5C449.449 298.3 449.449 298.1 449.549 297.9C449.649 295.8 449.049 293.6 447.949 291.2ZM121.949 241.9V51.6002C121.949 48.0002 124.949 45.0002 128.549 45.0002H417.949C421.549 45.0002 424.549 48.0002 424.549 51.6002V241.9C424.549 245.5 421.549 248.5 417.949 248.5H128.449C124.849 248.5 121.949 245.5 121.949 241.9ZM438.449 317.7C434.449 320.6 430.449 321.2 430.049 321.2H130.749C115.449 321.2 104.249 317.9 98.1486 311.7C95.4486 308.9 94.2486 306 93.8486 304.1C96.7486 306.2 102.949 307.1 114.249 307.1H437.049C437.349 307.1 443.449 306.6 446.949 303.3C445.749 309.6 442.849 314.5 438.449 317.7ZM447.749 297.7C447.649 298.7 447.449 299.6 446.949 300.4C444.549 304.5 437.449 305.2 437.049 305.2H114.249C105.749 305.2 95.7486 304.8 93.8486 301.5C93.1486 300.3 93.5486 298.5 94.9486 296L95.4486 295.1C117.049 259 122.949 250.7 124.449 249.3C125.649 249.9 126.949 250.3 128.349 250.3H417.749C419.049 250.3 420.249 250 421.349 249.5C424.249 254.1 440.149 280.1 446.149 292.1C447.349 294.2 447.849 296 447.749 297.7Z" fill="white"/>
<path d="M418.448 262.001L413.348 254.001C413.148 253.701 412.848 253.601 412.548 253.601H352.548C352.248 253.601 351.948 253.801 351.748 254.001C351.548 254.301 351.548 254.601 351.748 254.901L356.148 262.901C356.348 263.201 356.648 263.401 356.948 263.401H417.648C417.948 263.401 418.248 263.201 418.448 262.901C418.648 262.601 418.548 262.301 418.448 262.001ZM373.148 255.401H382.348L385.448 261.601H376.548L373.148 255.401ZM375.448 261.601H366.848L363.548 255.401H372.048L375.448 261.601ZM383.548 255.401H392.048L395.348 261.601H386.648L383.548 255.401ZM393.248 255.401H401.948L406.248 261.601H396.448L393.248 255.401ZM354.048 255.401H362.348L365.648 261.601H357.448L354.048 255.401ZM407.348 261.601L403.148 255.401H412.048L415.948 261.601H407.348Z" fill="white"/>
<path d="M440.649 297.2L420.349 266.8C420.149 266.5 419.849 266.4 419.549 266.4L359.249 267.1C358.949 267.1 358.649 267.3 358.449 267.5C358.249 267.8 358.249 268.1 358.449 268.4L373.549 298.1C373.749 298.4 374.049 298.6 374.349 298.6H439.849C440.149 298.6 440.449 298.4 440.649 298.1C440.849 297.8 440.849 297.5 440.649 297.2ZM432.049 287.6H422.649L418.349 281H427.649L432.049 287.6ZM386.149 280.3L383.149 274.6H391.649L394.849 280.3H386.149ZM395.249 281L398.949 287.6H389.949L386.449 281H395.249ZM392.849 274.6H401.849L405.249 280.3H395.949L392.849 274.6ZM403.049 274.6H412.849L416.449 280.3H406.449L403.049 274.6ZM402.349 273.6L399.249 268.4L408.749 268.3L412.149 273.6H402.349ZM401.249 273.6H392.249L389.449 268.5L398.149 268.4L401.249 273.6ZM391.149 273.6H382.649L380.049 268.7L388.349 268.6L391.149 273.6ZM381.549 273.6H373.049L370.449 268.8L378.949 268.7L381.549 273.6ZM382.049 274.6L385.049 280.3H376.549L373.549 274.6H382.049ZM385.449 281L388.949 287.6H380.449L376.949 281H385.449ZM389.449 288.6L393.749 296.8H385.249L380.949 288.6H389.449ZM390.549 288.6H399.549L404.149 296.8H394.849L390.549 288.6ZM400.749 288.6H410.349L415.249 296.8H405.249L400.749 288.6ZM400.149 287.6L396.449 281H405.749L409.749 287.6H400.149ZM406.849 281H416.849L421.049 287.6H410.749L406.849 281ZM427.249 280.3H417.949L414.249 274.6H423.449L427.249 280.3ZM422.749 273.6H413.549L410.149 268.3L419.149 268.2L422.749 273.6ZM360.749 268.9L369.349 268.8L371.849 273.6H363.149L360.749 268.9ZM363.649 274.6H372.349L375.349 280.3H366.549L363.649 274.6ZM366.949 281H375.849L379.349 287.6H370.349L366.949 281ZM370.849 288.6H379.849L384.149 296.8H374.949L370.849 288.6ZM411.449 288.6H421.749L427.049 296.8H416.449L411.449 288.6ZM428.649 296.8L423.349 288.6H432.849L438.249 296.8H428.649Z" fill="white"/>
<path d="M365.649 297.3L352.349 268.2C352.249 267.9 351.849 267.7 351.549 267.7C273.649 267.8 125.549 268 122.049 267.7C121.649 267.6 121.249 267.8 121.049 268.2L105.449 297.3C105.249 297.6 105.349 297.9 105.449 298.2C105.649 298.5 105.949 298.6 106.249 298.6H351.149L351.249 298.8L351.749 298.6H364.949C365.249 298.6 365.549 298.4 365.749 298.2C365.749 297.9 365.749 297.6 365.649 297.3ZM360.049 289.3H348.749L346.349 283H357.149L360.049 289.3ZM150.949 282H139.749L141.949 275.1H153.149L150.949 282ZM154.249 275.1H165.449L163.249 282H152.049L154.249 275.1ZM150.649 283L148.549 289.3H137.349L139.449 283H150.649ZM151.649 283H162.849L160.749 289.3H149.649L151.649 283ZM163.949 283H175.149L173.049 289.3H161.849L163.949 283ZM176.149 283H187.349L185.249 289.3H174.049L176.149 283ZM188.449 283H199.649L197.549 289.3H186.349L188.449 283ZM200.649 283H211.849L209.749 289.3H198.549L200.649 283ZM300.849 282H290.949V275.1H300.249L300.849 282ZM301.249 275.1H309.949L311.249 282H301.749L301.249 275.1ZM289.949 282H277.349L278.049 275.1H289.949V282ZM276.349 282H263.449L265.049 275.1H277.049L276.349 282ZM262.449 282H251.049L252.649 275.1H263.949L262.449 282ZM250.049 282H237.949L240.049 275.1H251.649L250.049 282ZM236.949 282H225.449L227.649 275.1H238.949L236.949 282ZM224.449 282H213.249L215.449 275.1H226.649L224.449 282ZM212.149 282H200.949L203.149 275.1H214.449L212.149 282ZM212.849 283H224.049L221.949 289.3H210.749L212.849 283ZM225.149 283H236.649L234.749 289.3H223.049L225.149 283ZM237.649 283H249.749L248.249 289.3H235.749L237.649 283ZM250.849 283H262.249L260.849 289.3H249.349L250.849 283ZM263.249 283H276.249L275.549 289.3H261.849L263.249 283ZM277.249 283H289.949V289.3H276.549L277.249 283ZM290.949 283H300.949L301.449 289.3H290.949V283ZM301.949 283H311.549L312.749 289.3H302.449L301.949 283ZM312.549 283H323.049L324.649 289.3H313.849L312.549 283ZM312.349 282L311.049 275.1H321.049L322.749 282H312.349ZM322.149 275.1H331.449L333.749 282H323.849L322.149 275.1ZM332.449 275.1H342.249L344.849 282H334.749L332.449 275.1ZM332.149 274.1L330.649 269.5C333.949 269.5 337.149 269.5 340.249 269.5L341.949 274.1H332.149ZM331.149 274.1H321.849L320.749 269.5C323.749 269.5 326.749 269.5 329.649 269.5L331.149 274.1ZM320.849 274.1H310.849L309.949 269.6C313.249 269.6 316.549 269.6 319.749 269.6L320.849 274.1ZM309.849 274.1H301.249L300.849 269.6C303.549 269.6 306.349 269.6 308.949 269.6L309.849 274.1ZM300.149 274.1H290.949V269.6C293.949 269.6 296.849 269.6 299.849 269.6L300.149 274.1ZM289.949 274.1H278.149L278.649 269.6C282.449 269.6 286.249 269.6 289.949 269.6V274.1ZM277.149 274.1H265.249L266.249 269.6C270.049 269.6 273.849 269.6 277.549 269.6L277.149 274.1ZM264.249 274.1H252.949L254.049 269.6C257.749 269.6 261.549 269.6 265.249 269.6L264.249 274.1ZM251.949 274.1H240.349L241.649 269.6C245.449 269.6 249.149 269.6 252.949 269.6L251.949 274.1ZM239.349 274.1H228.049L229.449 269.7C233.149 269.7 236.849 269.7 240.649 269.7L239.349 274.1ZM226.949 274.1H215.749L217.149 269.7C220.849 269.7 224.549 269.7 228.349 269.7L226.949 274.1ZM214.749 274.1H203.549L204.949 269.7C208.649 269.7 212.349 269.7 216.149 269.7L214.749 274.1ZM202.449 274.1H191.249L192.649 269.7C196.349 269.7 200.049 269.7 203.849 269.7L202.449 274.1ZM202.149 275.1L199.949 282H188.749L190.949 275.1H202.149ZM187.649 282H176.449L178.649 275.1H189.849L187.649 282ZM175.449 282H164.249L166.449 275.1H177.649L175.449 282ZM166.849 274.1L168.249 269.7C171.849 269.7 175.549 269.7 179.449 269.7L178.049 274.1H166.849ZM165.749 274.1H154.549L155.949 269.7C159.449 269.7 163.249 269.7 167.149 269.7L165.749 274.1ZM153.549 274.1H142.349L143.849 269.6C147.249 269.6 151.049 269.6 155.049 269.6L153.549 274.1ZM141.249 274.1H130.149L131.649 269.6C134.749 269.6 138.549 269.6 142.849 269.6L141.249 274.1ZM140.949 275.1L138.749 282H127.549L129.749 275.1H140.949ZM138.449 283L136.349 289.3H125.149L127.249 283H138.449ZM136.049 290.3L133.949 296.8H122.749L124.849 290.3H136.049ZM137.049 290.3H148.249L146.149 296.8H134.949L137.049 290.3ZM149.349 290.3H160.449L158.349 296.8H147.249L149.349 290.3ZM161.549 290.3H172.749L170.649 296.8H159.449L161.549 290.3ZM173.749 290.3H184.949L182.849 296.8H171.649L173.749 290.3ZM186.049 290.3H197.249L195.149 296.8H183.949L186.049 290.3ZM198.249 290.3H209.449L207.349 296.8H196.149L198.249 290.3ZM210.549 290.3H221.749L219.649 296.8H208.449L210.549 290.3ZM222.749 290.3H234.449L232.549 296.8H220.649L222.749 290.3ZM235.549 290.3H248.149L246.649 296.8H233.749L235.549 290.3ZM249.049 290.3H260.549L259.049 296.8H247.449L249.049 290.3ZM261.649 290.3H275.449L274.749 296.8H260.149L261.649 290.3ZM276.449 290.3H289.949V296.8H275.849L276.449 290.3ZM290.949 290.3H301.549L302.049 296.8H290.849V290.3H290.949ZM302.549 290.3H312.949L314.249 296.8H303.149L302.549 290.3ZM313.949 290.3H324.749L326.349 296.8H315.149L313.949 290.3ZM325.849 290.3H336.449L338.549 296.8H327.449L325.849 290.3ZM325.649 289.3L324.049 283H334.049L336.149 289.3H325.649ZM335.049 283H345.249L347.649 289.3H337.149L335.049 283ZM356.649 282H345.949L343.349 275.1H353.449L356.649 282ZM353.049 274.1H342.949L341.249 269.5C344.649 269.5 347.849 269.5 350.949 269.5L353.049 274.1ZM191.649 269.7L190.249 274.1H179.049L180.449 269.7C184.149 269.7 187.849 269.7 191.649 269.7ZM122.349 269.5C123.649 269.5 126.449 269.6 130.449 269.6L128.949 274.1H119.849L122.349 269.5ZM119.349 275.1H128.749L126.549 282H115.649L119.349 275.1ZM115.149 283H126.149L124.049 289.3H111.749L115.149 283ZM111.149 290.3H123.749L121.649 296.8H107.749L111.149 290.3ZM339.649 296.8L337.549 290.3H348.049L350.449 296.8H339.649ZM351.449 296.8L349.049 290.3H360.449L363.349 296.8H351.449Z" fill="white"/>
<path d="M349.649 262.9L344.549 254C344.349 253.7 344.049 253.5 343.749 253.5H130.749C130.449 253.5 130.149 253.7 129.949 253.9L124.449 262.8C124.249 263.1 124.249 263.4 124.449 263.7C124.649 264 124.949 264.2 125.249 264.2H340.049L340.349 264.5L341.249 264.4L341.149 264.3H348.849C349.149 264.3 349.449 264.1 349.649 263.8C349.849 263.5 349.849 263.2 349.649 262.9ZM156.449 255.4H167.649L161.249 262.5H150.149L156.449 255.4ZM149.049 262.4H137.949L144.349 255.3H155.449L149.049 262.4ZM168.749 255.4H179.949L173.549 262.5H162.349L168.749 255.4ZM180.949 255.4H192.149L185.749 262.5H174.549L180.949 255.4ZM193.149 255.4H204.349L197.949 262.5H186.749L193.149 255.4ZM205.349 255.4H216.549L210.149 262.5H198.949L205.349 255.4ZM217.649 255.4H228.849L223.049 262.5H211.249L217.649 255.4ZM229.849 255.4H241.449L236.749 262.5H224.049L229.849 255.4ZM242.449 255.4H253.749L249.349 262.5H237.849L242.449 255.4ZM254.749 255.4H266.549L264.549 262.5H250.349L254.749 255.4ZM267.549 255.4H279.249V262.5H265.449L267.549 255.4ZM280.249 255.4H289.449L291.149 262.5H280.349V255.4H280.249ZM290.349 255.4H298.849L302.649 262.5H291.949L290.349 255.4ZM299.949 255.4H309.849L314.649 262.5H303.649L299.949 255.4ZM310.949 255.4H320.149L326.549 262.5H315.749L310.949 255.4ZM131.249 255.4H143.249L136.849 262.5H126.849L131.249 255.4ZM327.549 262.4L321.149 255.3H330.849L338.149 262.4H327.549ZM339.249 262.4L331.949 255.3H343.249L347.249 262.4H339.249Z" fill="white"/>
<path d="M165.948 94.1006C165.948 94.1006 145.648 105.201 154.648 122.901C154.648 122.901 149.548 123.201 147.048 128.301C144.548 133.301 151.448 139.401 151.448 139.401C151.448 139.401 140.748 145.601 142.648 157.001C144.548 168.301 156.048 175.601 164.148 171.801C164.148 171.801 171.048 187.201 185.848 185.001L229.248 149.401L223.348 119.701L178.948 89.6006L165.948 94.1006Z" fill="#273B6D"/>
<path d="M293.048 94.1006C293.048 94.1006 313.348 105.201 304.348 122.901C304.348 122.901 309.448 123.201 311.948 128.301C314.448 133.301 307.548 139.401 307.548 139.401C307.548 139.401 318.248 145.601 316.348 157.001C314.448 168.301 302.948 175.601 294.848 171.801C294.848 171.801 287.948 187.201 273.148 185.001L229.748 149.401L235.648 119.701L280.048 89.6006L293.048 94.1006Z" fill="#273B6D"/>
<path d="M243.448 143.001V132.301C241.848 132.901 240.148 133.301 238.348 133.601V133.501C238.348 133.501 234.148 134.201 228.648 134.201C223.248 134.101 218.948 133.501 218.948 133.501V133.601C217.148 133.301 215.448 132.901 213.848 132.301V143.001C223.348 147.001 234.848 147.701 243.448 143.001Z" fill="#D8A884"/>
<path d="M250.502 130.902C280.046 118.664 294.075 84.7932 281.837 55.2494C269.6 25.7056 235.729 11.6762 206.185 23.9139C176.641 36.1516 162.612 70.0223 174.85 99.5661C187.087 129.11 220.958 143.139 250.502 130.902Z" fill="#EDC8A9"/>
<path d="M170.746 72.2006C170.746 72.2006 167.446 69.4006 161.746 70.1006C156.046 70.8006 153.046 80.1006 155.946 87.9006C158.946 95.7006 167.946 98.1006 173.646 96.2006C173.546 96.3006 168.946 82.0006 170.746 72.2006Z" fill="#D8A884"/>
<path d="M285.947 72.2006C285.947 72.2006 289.247 69.4006 294.947 70.1006C300.647 70.8006 303.647 80.1006 300.747 87.9006C297.747 95.7006 288.747 98.1006 283.047 96.2006C283.047 96.3006 287.647 82.0006 285.947 72.2006Z" fill="#D8A884"/>
<path d="M198.047 75.4006C198.047 78.3006 195.647 80.7006 192.747 80.7006C189.847 80.7006 187.447 78.3006 187.447 75.4006C187.447 72.5006 189.847 70.1006 192.747 70.1006C195.647 70.1006 198.047 72.5006 198.047 75.4006Z" fill="#684832"/>
<path d="M269.948 75.4006C269.948 78.3006 267.548 80.7006 264.648 80.7006C261.748 80.7006 259.348 78.3006 259.348 75.4006C259.348 72.5006 261.748 70.1006 264.648 70.1006C267.548 70.1006 269.948 72.5006 269.948 75.4006Z" fill="#684832"/>
<path d="M231.047 98.5007C222.447 98.5007 219.247 91.2007 219.147 90.9007C218.947 90.4007 219.147 89.9007 219.647 89.7007C220.147 89.5007 220.647 89.7007 220.847 90.2007C220.947 90.5007 223.747 96.7007 231.047 96.7007C238.447 96.7007 240.947 90.5007 241.047 90.2007C241.247 89.7007 241.747 89.5007 242.247 89.7007C242.747 89.9007 242.947 90.4007 242.747 90.9007C242.747 91.0007 239.647 98.5007 231.047 98.5007Z" fill="#C49474"/>
<path d="M229.747 86.4009C228.547 86.4009 227.547 85.9009 226.947 85.5009C226.547 85.2009 226.547 84.6009 226.847 84.2009C227.147 83.8009 227.747 83.8009 228.147 84.1009C228.347 84.3009 230.347 85.7009 233.247 82.8009C234.747 81.3009 234.847 79.5009 234.647 78.3009C234.247 75.8009 232.547 73.4009 230.247 72.2009C229.847 72.0009 229.647 71.4009 229.847 71.0009C230.047 70.6009 230.647 70.4009 231.047 70.6009C233.847 72.1009 235.947 75.1009 236.347 78.1009C236.647 80.4009 236.047 82.6009 234.447 84.2009C232.847 85.8009 231.147 86.4009 229.747 86.4009Z" fill="#C49474"/>
<path d="M194.247 105.3C200.432 105.3 205.447 100.286 205.447 94.1004C205.447 87.9148 200.432 82.9004 194.247 82.9004C188.061 82.9004 183.047 87.9148 183.047 94.1004C183.047 100.286 188.061 105.3 194.247 105.3Z" fill="#D69585"/>
<path d="M266.048 105.3C272.233 105.3 277.248 100.286 277.248 94.1004C277.248 87.9148 272.233 82.9004 266.048 82.9004C259.862 82.9004 254.848 87.9148 254.848 94.1004C254.848 100.286 259.862 105.3 266.048 105.3Z" fill="#D69585"/>
<path d="M235.947 188.601C239.247 173.001 243.147 158.401 245.147 143.401C244.047 143.201 243.447 143.101 243.447 143.101V143.001C234.747 147.701 223.347 147.001 213.947 143.101V143.201C213.947 143.201 213.447 143.201 212.447 143.501C218.447 165.901 224.447 188.301 229.447 211.101C231.547 203.501 234.047 196.001 235.947 188.601Z" fill="#77C3ED"/>
<path d="M269.948 154.001C256.248 146.501 248.348 144.201 245.148 143.501C243.148 158.501 239.248 173.101 235.948 188.701C234.048 196.101 231.548 203.601 229.448 211.101C224.448 188.301 218.448 165.901 212.448 143.501C209.348 144.201 201.448 146.501 187.548 154.101C169.048 164.201 162.748 217.201 162.748 238.801L163.848 239.801H221.448H236.048H293.748L294.848 238.801C294.748 217.101 288.448 164.101 269.948 154.001Z" fill="white"/>
<path d="M262.448 149.401L233.748 181.501L235.148 182.701L250.648 165.301L260.848 171.601L229.248 209.401L197.648 171.601L207.748 165.301L223.248 182.701L224.648 181.501L195.948 149.401L194.648 150.601L206.548 164.001L194.848 171.201L228.048 210.801V237.801H229.948V211.401L263.548 171.201L251.848 164.001L263.848 150.601L262.448 149.401Z" fill="#77C3ED"/>
<path d="M185.848 237.802H187.648C187.848 226.302 190.948 194.602 191.048 194.302L189.248 194.102C189.148 194.502 186.048 226.202 185.848 237.802Z" fill="#77C3ED"/>
<path d="M269.847 194.102L268.047 194.302C268.047 194.602 271.247 226.302 271.447 237.802H273.247C273.047 226.202 269.947 194.502 269.847 194.102Z" fill="#77C3ED"/>
<path d="M170.747 72.2006C170.747 72.2006 187.547 65.2006 191.047 49.9006C191.047 49.9006 198.147 52.4006 213.947 49.9006C229.747 47.4006 238.347 40.0006 242.747 33.6006L238.747 11.3006C238.747 11.3006 227.447 -1.39943 205.347 -1.89943C183.247 -2.49943 168.847 14.4006 168.847 14.4006C168.847 14.4006 155.647 17.5006 150.847 29.3006C146.047 41.1006 154.647 51.3006 154.647 51.3006C154.647 51.3006 146.847 65.6006 158.947 72.1006C159.047 72.2006 161.747 70.2006 170.747 72.2006Z" fill="#273B6D"/>
<path d="M242.748 33.601C242.748 33.601 274.248 73.201 285.948 72.201C285.948 72.201 288.848 69.501 294.948 70.101C294.948 70.101 303.248 55.301 292.448 48.801C292.448 48.801 298.448 37.001 292.448 27.101C286.448 17.201 270.648 15.501 270.648 15.501C270.648 15.501 253.448 -2.49897 238.848 11.301L236.648 32.701L242.748 33.601Z" fill="#273B6D"/>
<path d="M268.949 203.7H265.149C265.149 203.7 261.049 150.9 243.449 143.1V139.3C243.449 139.3 266.649 144.1 268.949 203.7Z" fill="#7C7C7C"/>
<path d="M274.041 214.869C278.571 210.339 278.571 202.995 274.041 198.465C269.511 193.935 262.166 193.935 257.636 198.465C253.106 202.995 253.106 210.339 257.636 214.869C262.166 219.399 269.511 219.399 274.041 214.869Z" fill="#5E5E5E"/>
<path d="M270.65 206.7C270.65 209.4 268.45 211.6 265.75 211.6C263.05 211.6 260.85 209.4 260.85 206.7C260.85 204 263.05 201.8 265.75 201.8C268.45 201.8 270.65 204 270.65 206.7Z" fill="#7C7C7C"/>
<path d="M188.449 203.7L192.449 201.8C192.449 201.8 196.449 150.9 213.949 143V139.2C213.949 139.3 190.749 144.1 188.449 203.7Z" fill="#7C7C7C"/>
<path d="M174.449 230.4C174.449 230.4 168.949 216.9 175.949 206.7C182.949 196.6 196.249 198.4 201.149 200.7C206.049 203 214.649 214.3 209.349 229.4L205.949 228.6C205.949 228.6 208.549 214.4 205.349 209.5C202.049 204.5 193.949 201 183.249 205.5C172.549 210 178.149 229.4 178.149 229.4L174.449 230.4Z" fill="#7C7C7C"/>
<path d="M205.948 228.601C205.948 228.601 202.448 231.901 203.848 234.201C205.248 236.501 209.448 236.401 209.348 229.401L205.948 228.601Z" fill="#565656"/>
<path d="M174.449 230.4L178.149 229.3C178.149 229.3 179.949 229.7 180.849 232C181.849 234.3 180.849 236 177.649 236C174.449 236.1 174.449 230.4 174.449 230.4Z" fill="#565656"/>
<path d="M367.649 103.8C354.249 103.8 342.549 111.2 336.549 122.2C327.849 119.9 314.649 116.7 313.349 119C312.649 120.3 325.049 132.4 332.149 139.1C332.149 139.2 332.149 139.3 332.149 139.4C332.149 159 348.049 174.9 367.649 174.9C387.249 174.9 403.149 159 403.149 139.4C403.149 119.7 387.249 103.8 367.649 103.8Z" fill="#E5826E"/>
<path d="M370.449 116.9C360.749 116.3 350.949 119.4 350.949 131.3H355.749C355.749 131.3 355.149 125.8 359.049 123.1C362.949 120.4 371.649 119.7 375.649 123C379.649 126.3 379.049 133.8 376.649 135.7C374.249 137.6 369.049 140.3 366.949 141.7C364.849 143 364.049 144.2 363.849 148.1C363.649 152 363.849 154.2 363.849 154.2H368.249C368.249 154.2 368.349 148.7 368.249 147.8C368.149 146.9 368.849 143.9 373.149 142C377.449 140.1 382.449 138 382.849 132.1C383.549 126.2 380.249 117.5 370.449 116.9Z" fill="white"/>
<path d="M366.45 157.399C364.45 157.399 362.75 158.999 362.75 161.099C362.75 163.099 364.35 164.799 366.45 164.799C368.45 164.799 370.15 163.199 370.15 161.099C370.15 158.999 368.45 157.399 366.45 157.399Z" fill="white"/>
<path d="M432.649 -9.09961H318.149C314.149 -9.09961 310.849 -5.79961 310.849 -1.79961V78.5004L307.549 101.3L341.049 87.6004H432.649C436.649 87.6004 439.949 84.3004 439.949 80.3004V-1.89961C439.949 -5.79961 436.649 -9.09961 432.649 -9.09961Z" fill="#FFE164"/>
<path d="M424.748 5.20039H326.348C325.948 5.20039 325.648 4.80039 325.648 4.30039C325.648 3.80039 325.948 3.40039 326.348 3.40039H424.748C425.148 3.40039 425.448 3.80039 425.448 4.30039C425.448 4.80039 425.048 5.20039 424.748 5.20039Z" fill="white"/>
<path d="M424.748 13.7004H326.348C325.948 13.7004 325.648 13.3004 325.648 12.8004C325.648 12.3004 325.948 11.9004 326.348 11.9004H424.748C425.148 11.9004 425.448 12.3004 425.448 12.8004C425.448 13.3004 425.048 13.7004 424.748 13.7004Z" fill="white"/>
<path d="M424.748 22.2004H326.348C325.948 22.2004 325.648 21.8004 325.648 21.3004C325.648 20.8004 325.948 20.4004 326.348 20.4004H424.748C425.148 20.4004 425.448 20.8004 425.448 21.3004C425.448 21.8004 425.048 22.2004 424.748 22.2004Z" fill="white"/>
<path d="M424.748 30.6008H326.348C325.948 30.6008 325.648 30.2008 325.648 29.7008C325.648 29.2008 325.948 28.8008 326.348 28.8008H424.748C425.148 28.8008 425.448 29.2008 425.448 29.7008C425.448 30.2008 425.048 30.6008 424.748 30.6008Z" fill="white"/>
<path d="M424.748 39.1008H326.348C325.948 39.1008 325.648 38.7008 325.648 38.2008C325.648 37.7008 325.948 37.3008 326.348 37.3008H424.748C425.148 37.3008 425.448 37.7008 425.448 38.2008C425.448 38.7008 425.048 39.1008 424.748 39.1008Z" fill="white"/>
<path d="M424.748 47.6008H326.348C325.948 47.6008 325.648 47.2008 325.648 46.7008C325.648 46.2008 325.948 45.8008 326.348 45.8008H424.748C425.148 45.8008 425.448 46.2008 425.448 46.7008C425.448 47.2008 425.048 47.6008 424.748 47.6008Z" fill="white"/>
<path d="M424.748 55.6008H326.348C325.948 55.6008 325.648 55.2008 325.648 54.7008C325.648 54.2008 325.948 53.8008 326.348 53.8008H424.748C425.148 53.8008 425.448 54.2008 425.448 54.7008C425.448 55.2008 425.048 55.6008 424.748 55.6008Z" fill="white"/>
<path d="M424.748 64.1008H326.348C325.948 64.1008 325.648 63.7008 325.648 63.2008C325.648 62.7008 325.948 62.3008 326.348 62.3008H424.748C425.148 62.3008 425.448 62.7008 425.448 63.2008C425.448 63.7008 425.048 64.1008 424.748 64.1008Z" fill="white"/>
<path d="M424.748 72.6008H326.348C325.948 72.6008 325.648 72.2008 325.648 71.7008C325.648 71.2008 325.948 70.8008 326.348 70.8008H424.748C425.148 70.8008 425.448 71.2008 425.448 71.7008C425.448 72.1008 425.048 72.6008 424.748 72.6008Z" fill="white"/>
</g>
<path d="M46.8757 364V345.61H39.6757V343H57.0457V345.61H49.8457V364H46.8757ZM68.9135 364V360.64L68.7635 360.01V354.28C68.7635 353.06 68.4035 352.12 67.6835 351.46C66.9835 350.78 65.9235 350.44 64.5035 350.44C63.5635 350.44 62.6435 350.6 61.7435 350.92C60.8435 351.22 60.0835 351.63 59.4635 352.15L58.2635 349.99C59.0835 349.33 60.0635 348.83 61.2035 348.49C62.3635 348.13 63.5735 347.95 64.8335 347.95C67.0135 347.95 68.6935 348.48 69.8735 349.54C71.0535 350.6 71.6435 352.22 71.6435 354.4V364H68.9135ZM63.6935 364.18C62.5135 364.18 61.4735 363.98 60.5735 363.58C59.6935 363.18 59.0135 362.63 58.5335 361.93C58.0535 361.21 57.8135 360.4 57.8135 359.5C57.8135 358.64 58.0135 357.86 58.4135 357.16C58.8335 356.46 59.5035 355.9 60.4235 355.48C61.3635 355.06 62.6235 354.85 64.2035 354.85H69.2435V356.92H64.3235C62.8835 356.92 61.9135 357.16 61.4135 357.64C60.9135 358.12 60.6635 358.7 60.6635 359.38C60.6635 360.16 60.9735 360.79 61.5935 361.27C62.2135 361.73 63.0735 361.96 64.1735 361.96C65.2535 361.96 66.1935 361.72 66.9935 361.24C67.8135 360.76 68.4035 360.06 68.7635 359.14L69.3335 361.12C68.9535 362.06 68.2835 362.81 67.3235 363.37C66.3635 363.91 65.1535 364.18 63.6935 364.18ZM76.9732 364V341.74H79.8532V364H76.9732ZM87.6921 360.16L87.7521 356.47L96.9021 348.1H100.382L93.3621 355L91.8021 356.32L87.6921 360.16ZM85.3521 364V341.74H88.2321V364H85.3521ZM97.5021 364L91.2621 356.26L93.1221 353.95L101.042 364H97.5021ZM116.485 364V345.61H109.285V343H126.655V345.61H119.455V364H116.485ZM134.672 364.18C133.072 364.18 131.652 363.83 130.412 363.13C129.172 362.43 128.192 361.47 127.472 360.25C126.752 359.01 126.392 357.61 126.392 356.05C126.392 354.47 126.752 353.07 127.472 351.85C128.192 350.63 129.172 349.68 130.412 349C131.652 348.3 133.072 347.95 134.672 347.95C136.252 347.95 137.662 348.3 138.902 349C140.162 349.68 141.142 350.63 141.842 351.85C142.562 353.05 142.922 354.45 142.922 356.05C142.922 357.63 142.562 359.03 141.842 360.25C141.142 361.47 140.162 362.43 138.902 363.13C137.662 363.83 136.252 364.18 134.672 364.18ZM134.672 361.66C135.692 361.66 136.602 361.43 137.402 360.97C138.222 360.51 138.862 359.86 139.322 359.02C139.782 358.16 140.012 357.17 140.012 356.05C140.012 354.91 139.782 353.93 139.322 353.11C138.862 352.27 138.222 351.62 137.402 351.16C136.602 350.7 135.692 350.47 134.672 350.47C133.652 350.47 132.742 350.7 131.942 351.16C131.142 351.62 130.502 352.27 130.022 353.11C129.542 353.93 129.302 354.91 129.302 356.05C129.302 357.17 129.542 358.16 130.022 359.02C130.502 359.86 131.142 360.51 131.942 360.97C132.742 361.43 133.652 361.66 134.672 361.66ZM159.551 364V345.61H152.351V343H169.721V345.61H162.521V364H159.551ZM181.059 347.95C182.359 347.95 183.499 348.2 184.479 348.7C185.479 349.2 186.259 349.96 186.819 350.98C187.379 352 187.659 353.29 187.659 354.85V364H184.779V355.18C184.779 353.64 184.399 352.48 183.639 351.7C182.899 350.92 181.849 350.53 180.489 350.53C179.469 350.53 178.579 350.73 177.819 351.13C177.059 351.53 176.469 352.12 176.049 352.9C175.649 353.68 175.449 354.65 175.449 355.81V364H172.569V341.74H175.449V352.39L174.879 351.25C175.399 350.21 176.199 349.4 177.279 348.82C178.359 348.24 179.619 347.95 181.059 347.95ZM200.069 364.18C198.369 364.18 196.869 363.83 195.569 363.13C194.289 362.43 193.289 361.47 192.569 360.25C191.869 359.03 191.519 357.63 191.519 356.05C191.519 354.47 191.859 353.07 192.539 351.85C193.239 350.63 194.189 349.68 195.389 349C196.609 348.3 197.979 347.95 199.499 347.95C201.039 347.95 202.399 348.29 203.579 348.97C204.759 349.65 205.679 350.61 206.339 351.85C207.019 353.07 207.359 354.5 207.359 356.14C207.359 356.26 207.349 356.4 207.329 356.56C207.329 356.72 207.319 356.87 207.299 357.01H193.769V354.94H205.799L204.629 355.66C204.649 354.64 204.439 353.73 203.999 352.93C203.559 352.13 202.949 351.51 202.169 351.07C201.409 350.61 200.519 350.38 199.499 350.38C198.499 350.38 197.609 350.61 196.829 351.07C196.049 351.51 195.439 352.14 194.999 352.96C194.559 353.76 194.339 354.68 194.339 355.72V356.2C194.339 357.26 194.579 358.21 195.059 359.05C195.559 359.87 196.249 360.51 197.129 360.97C198.009 361.43 199.019 361.66 200.159 361.66C201.099 361.66 201.949 361.5 202.709 361.18C203.489 360.86 204.169 360.38 204.749 359.74L206.339 361.6C205.619 362.44 204.719 363.08 203.639 363.52C202.579 363.96 201.389 364.18 200.069 364.18ZM219.835 364V343H228.685C230.925 343 232.895 343.44 234.595 344.32C236.315 345.2 237.645 346.43 238.585 348.01C239.545 349.59 240.025 351.42 240.025 353.5C240.025 355.58 239.545 357.41 238.585 358.99C237.645 360.57 236.315 361.8 234.595 362.68C232.895 363.56 230.925 364 228.685 364H219.835ZM222.835 361.39H228.505C230.245 361.39 231.745 361.06 233.005 360.4C234.285 359.74 235.275 358.82 235.975 357.64C236.675 356.44 237.025 355.06 237.025 353.5C237.025 351.92 236.675 350.54 235.975 349.36C235.275 348.18 234.285 347.26 233.005 346.6C231.745 345.94 230.245 345.61 228.505 345.61H222.835V361.39ZM251.01 364.18C249.41 364.18 247.99 363.83 246.75 363.13C245.51 362.43 244.53 361.47 243.81 360.25C243.09 359.01 242.73 357.61 242.73 356.05C242.73 354.47 243.09 353.07 243.81 351.85C244.53 350.63 245.51 349.68 246.75 349C247.99 348.3 249.41 347.95 251.01 347.95C252.59 347.95 254 348.3 255.24 349C256.5 349.68 257.48 350.63 258.18 351.85C258.9 353.05 259.26 354.45 259.26 356.05C259.26 357.63 258.9 359.03 258.18 360.25C257.48 361.47 256.5 362.43 255.24 363.13C254 363.83 252.59 364.18 251.01 364.18ZM251.01 361.66C252.03 361.66 252.94 361.43 253.74 360.97C254.56 360.51 255.2 359.86 255.66 359.02C256.12 358.16 256.35 357.17 256.35 356.05C256.35 354.91 256.12 353.93 255.66 353.11C255.2 352.27 254.56 351.62 253.74 351.16C252.94 350.7 252.03 350.47 251.01 350.47C249.99 350.47 249.08 350.7 248.28 351.16C247.48 351.62 246.84 352.27 246.36 353.11C245.88 353.93 245.64 354.91 245.64 356.05C245.64 357.17 245.88 358.16 246.36 359.02C246.84 359.86 247.48 360.51 248.28 360.97C249.08 361.43 249.99 361.66 251.01 361.66ZM270.173 364.18C268.553 364.18 267.103 363.83 265.823 363.13C264.563 362.43 263.573 361.47 262.853 360.25C262.133 359.03 261.773 357.63 261.773 356.05C261.773 354.47 262.133 353.07 262.853 351.85C263.573 350.63 264.563 349.68 265.823 349C267.103 348.3 268.553 347.95 270.173 347.95C271.613 347.95 272.893 348.24 274.013 348.82C275.153 349.38 276.033 350.22 276.653 351.34L274.463 352.75C273.943 351.97 273.303 351.4 272.543 351.04C271.803 350.66 271.003 350.47 270.143 350.47C269.103 350.47 268.173 350.7 267.353 351.16C266.533 351.62 265.883 352.27 265.403 353.11C264.923 353.93 264.683 354.91 264.683 356.05C264.683 357.19 264.923 358.18 265.403 359.02C265.883 359.86 266.533 360.51 267.353 360.97C268.173 361.43 269.103 361.66 270.143 361.66C271.003 361.66 271.803 361.48 272.543 361.12C273.303 360.74 273.943 360.16 274.463 359.38L276.653 360.76C276.033 361.86 275.153 362.71 274.013 363.31C272.893 363.89 271.613 364.18 270.173 364.18ZM286.046 364.18C284.446 364.18 283.206 363.75 282.326 362.89C281.446 362.03 281.006 360.8 281.006 359.2V344.62H283.886V359.08C283.886 359.94 284.096 360.6 284.516 361.06C284.956 361.52 285.576 361.75 286.376 361.75C287.276 361.75 288.026 361.5 288.626 361L289.526 363.07C289.086 363.45 288.556 363.73 287.936 363.91C287.336 364.09 286.706 364.18 286.046 364.18ZM278.306 350.47V348.1H288.446V350.47H278.306ZM299.291 364.18C297.691 364.18 296.271 363.83 295.031 363.13C293.791 362.43 292.811 361.47 292.091 360.25C291.371 359.01 291.011 357.61 291.011 356.05C291.011 354.47 291.371 353.07 292.091 351.85C292.811 350.63 293.791 349.68 295.031 349C296.271 348.3 297.691 347.95 299.291 347.95C300.871 347.95 302.281 348.3 303.521 349C304.781 349.68 305.761 350.63 306.461 351.85C307.181 353.05 307.541 354.45 307.541 356.05C307.541 357.63 307.181 359.03 306.461 360.25C305.761 361.47 304.781 362.43 303.521 363.13C302.281 363.83 300.871 364.18 299.291 364.18ZM299.291 361.66C300.311 361.66 301.221 361.43 302.021 360.97C302.841 360.51 303.481 359.86 303.941 359.02C304.401 358.16 304.631 357.17 304.631 356.05C304.631 354.91 304.401 353.93 303.941 353.11C303.481 352.27 302.841 351.62 302.021 351.16C301.221 350.7 300.311 350.47 299.291 350.47C298.271 350.47 297.361 350.7 296.561 351.16C295.761 351.62 295.121 352.27 294.641 353.11C294.161 353.93 293.921 354.91 293.921 356.05C293.921 357.17 294.161 358.16 294.641 359.02C295.121 359.86 295.761 360.51 296.561 360.97C297.361 361.43 298.271 361.66 299.291 361.66ZM311.524 364V348.1H314.284V352.42L314.014 351.34C314.454 350.24 315.194 349.4 316.234 348.82C317.274 348.24 318.554 347.95 320.074 347.95V350.74C319.954 350.72 319.834 350.71 319.714 350.71C319.614 350.71 319.514 350.71 319.414 350.71C317.874 350.71 316.654 351.17 315.754 352.09C314.854 353.01 314.404 354.34 314.404 356.08V364H311.524ZM329.125 364L338.635 343H341.605L351.145 364H347.995L339.505 344.68H340.705L332.215 364H329.125ZM333.175 358.75L333.985 356.35H345.805L346.675 358.75H333.175ZM362.348 347.95C363.648 347.95 364.788 348.2 365.768 348.7C366.768 349.2 367.548 349.96 368.108 350.98C368.668 352 368.948 353.29 368.948 354.85V364H366.068V355.18C366.068 353.64 365.688 352.48 364.928 351.7C364.188 350.92 363.138 350.53 361.778 350.53C360.758 350.53 359.868 350.73 359.108 351.13C358.348 351.53 357.758 352.12 357.338 352.9C356.938 353.68 356.738 354.65 356.738 355.81V364H353.858V348.1H356.618V352.39L356.168 351.25C356.688 350.21 357.488 349.4 358.568 348.82C359.648 348.24 360.908 347.95 362.348 347.95ZM380.848 364.18C379.308 364.18 377.928 363.84 376.708 363.16C375.508 362.48 374.558 361.53 373.858 360.31C373.158 359.09 372.808 357.67 372.808 356.05C372.808 354.43 373.158 353.02 373.858 351.82C374.558 350.6 375.508 349.65 376.708 348.97C377.928 348.29 379.308 347.95 380.848 347.95C382.188 347.95 383.398 348.25 384.478 348.85C385.558 349.45 386.418 350.35 387.058 351.55C387.718 352.75 388.048 354.25 388.048 356.05C388.048 357.85 387.728 359.35 387.088 360.55C386.468 361.75 385.618 362.66 384.538 363.28C383.458 363.88 382.228 364.18 380.848 364.18ZM381.088 361.66C382.088 361.66 382.988 361.43 383.788 360.97C384.608 360.51 385.248 359.86 385.708 359.02C386.188 358.16 386.428 357.17 386.428 356.05C386.428 354.91 386.188 353.93 385.708 353.11C385.248 352.27 384.608 351.62 383.788 351.16C382.988 350.7 382.088 350.47 381.088 350.47C380.068 350.47 379.158 350.7 378.358 351.16C377.558 351.62 376.918 352.27 376.438 353.11C375.958 353.93 375.718 354.91 375.718 356.05C375.718 357.17 375.958 358.16 376.438 359.02C376.918 359.86 377.558 360.51 378.358 360.97C379.158 361.43 380.068 361.66 381.088 361.66ZM386.518 364V359.71L386.698 356.02L386.398 352.33V341.74H389.278V364H386.518ZM409.324 364.24C407.724 364.24 406.194 364 404.734 363.52C403.274 363.02 402.124 362.38 401.284 361.6L402.394 359.26C403.194 359.96 404.214 360.54 405.454 361C406.694 361.46 407.984 361.69 409.324 361.69C410.544 361.69 411.534 361.55 412.294 361.27C413.054 360.99 413.614 360.61 413.974 360.13C414.334 359.63 414.514 359.07 414.514 358.45C414.514 357.73 414.274 357.15 413.794 356.71C413.334 356.27 412.724 355.92 411.964 355.66C411.224 355.38 410.404 355.14 409.504 354.94C408.604 354.74 407.694 354.51 406.774 354.25C405.874 353.97 405.044 353.62 404.284 353.2C403.544 352.78 402.944 352.22 402.484 351.52C402.024 350.8 401.794 349.88 401.794 348.76C401.794 347.68 402.074 346.69 402.634 345.79C403.214 344.87 404.094 344.14 405.274 343.6C406.474 343.04 407.994 342.76 409.834 342.76C411.054 342.76 412.264 342.92 413.464 343.24C414.664 343.56 415.704 344.02 416.584 344.62L415.594 347.02C414.694 346.42 413.744 345.99 412.744 345.73C411.744 345.45 410.774 345.31 409.834 345.31C408.654 345.31 407.684 345.46 406.924 345.76C406.164 346.06 405.604 346.46 405.244 346.96C404.904 347.46 404.734 348.02 404.734 348.64C404.734 349.38 404.964 349.97 405.424 350.41C405.904 350.85 406.514 351.2 407.254 351.46C408.014 351.72 408.844 351.96 409.744 352.18C410.644 352.38 411.544 352.61 412.444 352.87C413.364 353.13 414.194 353.47 414.934 353.89C415.694 354.31 416.304 354.87 416.764 355.57C417.224 356.27 417.454 357.17 417.454 358.27C417.454 359.33 417.164 360.32 416.584 361.24C416.004 362.14 415.104 362.87 413.884 363.43C412.684 363.97 411.164 364.24 409.324 364.24ZM429.847 364.18C428.527 364.18 427.317 363.88 426.217 363.28C425.137 362.66 424.267 361.75 423.607 360.55C422.967 359.35 422.647 357.85 422.647 356.05C422.647 354.25 422.957 352.75 423.577 351.55C424.217 350.35 425.077 349.45 426.157 348.85C427.257 348.25 428.487 347.95 429.847 347.95C431.407 347.95 432.787 348.29 433.987 348.97C435.187 349.65 436.137 350.6 436.837 351.82C437.537 353.02 437.887 354.43 437.887 356.05C437.887 357.67 437.537 359.09 436.837 360.31C436.137 361.53 435.187 362.48 433.987 363.16C432.787 363.84 431.407 364.18 429.847 364.18ZM421.417 369.82V348.1H424.177V352.39L423.997 356.08L424.297 359.77V369.82H421.417ZM429.607 361.66C430.627 361.66 431.537 361.43 432.337 360.97C433.157 360.51 433.797 359.86 434.257 359.02C434.737 358.16 434.977 357.17 434.977 356.05C434.977 354.91 434.737 353.93 434.257 353.11C433.797 352.27 433.157 351.62 432.337 351.16C431.537 350.7 430.627 350.47 429.607 350.47C428.607 350.47 427.697 350.7 426.877 351.16C426.077 351.62 425.437 352.27 424.957 353.11C424.497 353.93 424.267 354.91 424.267 356.05C424.267 357.17 424.497 358.16 424.957 359.02C425.437 359.86 426.077 360.51 426.877 360.97C427.697 361.43 428.607 361.66 429.607 361.66ZM448.946 364.18C447.246 364.18 445.746 363.83 444.446 363.13C443.166 362.43 442.166 361.47 441.446 360.25C440.746 359.03 440.396 357.63 440.396 356.05C440.396 354.47 440.736 353.07 441.416 351.85C442.116 350.63 443.066 349.68 444.266 349C445.486 348.3 446.856 347.95 448.376 347.95C449.916 347.95 451.276 348.29 452.456 348.97C453.636 349.65 454.556 350.61 455.216 351.85C455.896 353.07 456.236 354.5 456.236 356.14C456.236 356.26 456.226 356.4 456.206 356.56C456.206 356.72 456.196 356.87 456.176 357.01H442.646V354.94H454.676L453.506 355.66C453.526 354.64 453.316 353.73 452.876 352.93C452.436 352.13 451.826 351.51 451.046 351.07C450.286 350.61 449.396 350.38 448.376 350.38C447.376 350.38 446.486 350.61 445.706 351.07C444.926 351.51 444.316 352.14 443.876 352.96C443.436 353.76 443.216 354.68 443.216 355.72V356.2C443.216 357.26 443.456 358.21 443.936 359.05C444.436 359.87 445.126 360.51 446.006 360.97C446.886 361.43 447.896 361.66 449.036 361.66C449.976 361.66 450.826 361.5 451.586 361.18C452.366 360.86 453.046 360.38 453.626 359.74L455.216 361.6C454.496 362.44 453.596 363.08 452.516 363.52C451.456 363.96 450.266 364.18 448.946 364.18ZM467.165 364.18C465.545 364.18 464.095 363.83 462.815 363.13C461.555 362.43 460.565 361.47 459.845 360.25C459.125 359.03 458.765 357.63 458.765 356.05C458.765 354.47 459.125 353.07 459.845 351.85C460.565 350.63 461.555 349.68 462.815 349C464.095 348.3 465.545 347.95 467.165 347.95C468.605 347.95 469.885 348.24 471.005 348.82C472.145 349.38 473.025 350.22 473.645 351.34L471.455 352.75C470.935 351.97 470.295 351.4 469.535 351.04C468.795 350.66 467.995 350.47 467.135 350.47C466.095 350.47 465.165 350.7 464.345 351.16C463.525 351.62 462.875 352.27 462.395 353.11C461.915 353.93 461.675 354.91 461.675 356.05C461.675 357.19 461.915 358.18 462.395 359.02C462.875 359.86 463.525 360.51 464.345 360.97C465.165 361.43 466.095 361.66 467.135 361.66C467.995 361.66 468.795 361.48 469.535 361.12C470.295 360.74 470.935 360.16 471.455 359.38L473.645 360.76C473.025 361.86 472.145 362.71 471.005 363.31C469.885 363.89 468.605 364.18 467.165 364.18ZM477.168 364V348.1H480.048V364H477.168ZM478.608 345.04C478.048 345.04 477.578 344.86 477.198 344.5C476.838 344.14 476.658 343.7 476.658 343.18C476.658 342.64 476.838 342.19 477.198 341.83C477.578 341.47 478.048 341.29 478.608 341.29C479.168 341.29 479.628 341.47 479.988 341.83C480.368 342.17 480.558 342.6 480.558 343.12C480.558 343.66 480.378 344.12 480.018 344.5C479.658 344.86 479.188 345.04 478.608 345.04ZM485.967 364V346.69C485.967 345.13 486.417 343.89 487.317 342.97C488.237 342.03 489.537 341.56 491.217 341.56C491.837 341.56 492.427 341.64 492.987 341.8C493.567 341.94 494.057 342.17 494.457 342.49L493.587 344.68C493.287 344.44 492.947 344.26 492.567 344.14C492.187 344 491.787 343.93 491.367 343.93C490.527 343.93 489.887 344.17 489.447 344.65C489.007 345.11 488.787 345.8 488.787 346.72V348.85L488.847 350.17V364H485.967ZM483.267 350.47V348.1H493.407V350.47H483.267ZM497.107 370C496.347 370 495.607 369.87 494.887 369.61C494.167 369.37 493.547 369.01 493.027 368.53L494.257 366.37C494.657 366.75 495.097 367.04 495.577 367.24C496.057 367.44 496.567 367.54 497.107 367.54C497.807 367.54 498.387 367.36 498.847 367C499.307 366.64 499.737 366 500.137 365.08L501.127 362.89L501.427 362.53L507.667 348.1H510.487L502.777 365.59C502.317 366.71 501.797 367.59 501.217 368.23C500.657 368.87 500.037 369.32 499.357 369.58C498.677 369.86 497.927 370 497.107 370ZM500.887 364.51L493.627 348.1H496.627L502.807 362.26L500.887 364.51ZM167.644 384H170.644V405H167.644V384ZM155.584 405H152.584V384H155.584V405ZM167.914 395.64H155.284V393.03H167.914V395.64ZM183.589 405.18C181.889 405.18 180.389 404.83 179.089 404.13C177.809 403.43 176.809 402.47 176.089 401.25C175.389 400.03 175.039 398.63 175.039 397.05C175.039 395.47 175.379 394.07 176.059 392.85C176.759 391.63 177.709 390.68 178.909 390C180.129 389.3 181.499 388.95 183.019 388.95C184.559 388.95 185.919 389.29 187.099 389.97C188.279 390.65 189.199 391.61 189.859 392.85C190.539 394.07 190.879 395.5 190.879 397.14C190.879 397.26 190.869 397.4 190.849 397.56C190.849 397.72 190.839 397.87 190.819 398.01H177.289V395.94H189.319L188.149 396.66C188.169 395.64 187.959 394.73 187.519 393.93C187.079 393.13 186.469 392.51 185.689 392.07C184.929 391.61 184.039 391.38 183.019 391.38C182.019 391.38 181.129 391.61 180.349 392.07C179.569 392.51 178.959 393.14 178.519 393.96C178.079 394.76 177.859 395.68 177.859 396.72V397.2C177.859 398.26 178.099 399.21 178.579 400.05C179.079 400.87 179.769 401.51 180.649 401.97C181.529 402.43 182.539 402.66 183.679 402.66C184.619 402.66 185.469 402.5 186.229 402.18C187.009 401.86 187.689 401.38 188.269 400.74L189.859 402.6C189.139 403.44 188.239 404.08 187.159 404.52C186.099 404.96 184.909 405.18 183.589 405.18ZM194.878 405V389.1H197.638V393.42L197.368 392.34C197.808 391.24 198.548 390.4 199.588 389.82C200.628 389.24 201.908 388.95 203.428 388.95V391.74C203.308 391.72 203.188 391.71 203.068 391.71C202.968 391.71 202.868 391.71 202.768 391.71C201.228 391.71 200.008 392.17 199.108 393.09C198.208 394.01 197.758 395.34 197.758 397.08V405H194.878ZM202.412 408L212.312 379.74H214.922L205.022 408H202.412ZM232.009 384H235.009V405H232.009V384ZM219.949 405H216.949V384H219.949V405ZM232.279 395.64H219.649V393.03H232.279V395.64ZM240.875 405V389.1H243.755V405H240.875ZM242.315 386.04C241.755 386.04 241.285 385.86 240.905 385.5C240.545 385.14 240.365 384.7 240.365 384.18C240.365 383.64 240.545 383.19 240.905 382.83C241.285 382.47 241.755 382.29 242.315 382.29C242.875 382.29 243.335 382.47 243.695 382.83C244.075 383.17 244.265 383.6 244.265 384.12C244.265 384.66 244.085 385.12 243.725 385.5C243.365 385.86 242.895 386.04 242.315 386.04ZM253.813 405.18C252.493 405.18 251.233 405 250.033 404.64C248.853 404.28 247.923 403.84 247.243 403.32L248.443 401.04C249.123 401.5 249.963 401.89 250.963 402.21C251.963 402.53 252.983 402.69 254.023 402.69C255.363 402.69 256.323 402.5 256.903 402.12C257.503 401.74 257.803 401.21 257.803 400.53C257.803 400.03 257.623 399.64 257.263 399.36C256.903 399.08 256.423 398.87 255.823 398.73C255.243 398.59 254.593 398.47 253.873 398.37C253.153 398.25 252.433 398.11 251.713 397.95C250.993 397.77 250.333 397.53 249.733 397.23C249.133 396.91 248.653 396.48 248.293 395.94C247.933 395.38 247.753 394.64 247.753 393.72C247.753 392.76 248.023 391.92 248.563 391.2C249.103 390.48 249.863 389.93 250.843 389.55C251.843 389.15 253.023 388.95 254.383 388.95C255.423 388.95 256.473 389.08 257.533 389.34C258.613 389.58 259.493 389.93 260.173 390.39L258.943 392.67C258.223 392.19 257.473 391.86 256.693 391.68C255.913 391.5 255.133 391.41 254.353 391.41C253.093 391.41 252.153 391.62 251.533 392.04C250.913 392.44 250.603 392.96 250.603 393.6C250.603 394.14 250.783 394.56 251.143 394.86C251.523 395.14 252.003 395.36 252.583 395.52C253.183 395.68 253.843 395.82 254.563 395.94C255.283 396.04 256.003 396.18 256.723 396.36C257.443 396.52 258.093 396.75 258.673 397.05C259.273 397.35 259.753 397.77 260.113 398.31C260.493 398.85 260.683 399.57 260.683 400.47C260.683 401.43 260.403 402.26 259.843 402.96C259.283 403.66 258.493 404.21 257.473 404.61C256.453 404.99 255.233 405.18 253.813 405.18ZM272.759 405V384H280.949C282.789 384 284.359 384.29 285.659 384.87C286.959 385.45 287.959 386.29 288.659 387.39C289.359 388.49 289.709 389.8 289.709 391.32C289.709 392.84 289.359 394.15 288.659 395.25C287.959 396.33 286.959 397.17 285.659 397.77C284.359 398.35 282.789 398.64 280.949 398.64H274.409L275.759 397.23V405H272.759ZM275.759 397.53L274.409 396.03H280.859C282.779 396.03 284.229 395.62 285.209 394.8C286.209 393.98 286.709 392.82 286.709 391.32C286.709 389.82 286.209 388.66 285.209 387.84C284.229 387.02 282.779 386.61 280.859 386.61H274.409L275.759 385.11V397.53ZM293.404 405V389.1H296.164V393.42L295.894 392.34C296.334 391.24 297.074 390.4 298.114 389.82C299.154 389.24 300.434 388.95 301.954 388.95V391.74C301.834 391.72 301.714 391.71 301.594 391.71C301.494 391.71 301.394 391.71 301.294 391.71C299.754 391.71 298.534 392.17 297.634 393.09C296.734 394.01 296.284 395.34 296.284 397.08V405H293.404ZM312.167 405.18C310.567 405.18 309.147 404.83 307.907 404.13C306.667 403.43 305.687 402.47 304.967 401.25C304.247 400.01 303.887 398.61 303.887 397.05C303.887 395.47 304.247 394.07 304.967 392.85C305.687 391.63 306.667 390.68 307.907 390C309.147 389.3 310.567 388.95 312.167 388.95C313.747 388.95 315.157 389.3 316.397 390C317.657 390.68 318.637 391.63 319.337 392.85C320.057 394.05 320.417 395.45 320.417 397.05C320.417 398.63 320.057 400.03 319.337 401.25C318.637 402.47 317.657 403.43 316.397 404.13C315.157 404.83 313.747 405.18 312.167 405.18ZM312.167 402.66C313.187 402.66 314.097 402.43 314.897 401.97C315.717 401.51 316.357 400.86 316.817 400.02C317.277 399.16 317.507 398.17 317.507 397.05C317.507 395.91 317.277 394.93 316.817 394.11C316.357 393.27 315.717 392.62 314.897 392.16C314.097 391.7 313.187 391.47 312.167 391.47C311.147 391.47 310.237 391.7 309.437 392.16C308.637 392.62 307.997 393.27 307.517 394.11C307.037 394.93 306.797 395.91 306.797 397.05C306.797 398.17 307.037 399.16 307.517 400.02C307.997 400.86 308.637 401.51 309.437 401.97C310.237 402.43 311.147 402.66 312.167 402.66ZM332.83 405.18C331.47 405.18 330.24 404.88 329.14 404.28C328.06 403.66 327.2 402.75 326.56 401.55C325.94 400.35 325.63 398.85 325.63 397.05C325.63 395.25 325.95 393.75 326.59 392.55C327.25 391.35 328.12 390.45 329.2 389.85C330.3 389.25 331.51 388.95 332.83 388.95C334.39 388.95 335.77 389.29 336.97 389.97C338.17 390.65 339.12 391.6 339.82 392.82C340.52 394.02 340.87 395.43 340.87 397.05C340.87 398.67 340.52 400.09 339.82 401.31C339.12 402.53 338.17 403.48 336.97 404.16C335.77 404.84 334.39 405.18 332.83 405.18ZM324.4 405V382.74H327.28V393.33L326.98 397.02L327.16 400.71V405H324.4ZM332.59 402.66C333.61 402.66 334.52 402.43 335.32 401.97C336.14 401.51 336.78 400.86 337.24 400.02C337.72 399.16 337.96 398.17 337.96 397.05C337.96 395.91 337.72 394.93 337.24 394.11C336.78 393.27 336.14 392.62 335.32 392.16C334.52 391.7 333.61 391.47 332.59 391.47C331.59 391.47 330.68 391.7 329.86 392.16C329.06 392.62 328.42 393.27 327.94 394.11C327.48 394.93 327.25 395.91 327.25 397.05C327.25 398.17 327.48 399.16 327.94 400.02C328.42 400.86 329.06 401.51 329.86 401.97C330.68 402.43 331.59 402.66 332.59 402.66ZM344.849 405V382.74H347.729V405H344.849ZM360.308 405.18C358.608 405.18 357.108 404.83 355.808 404.13C354.528 403.43 353.528 402.47 352.808 401.25C352.108 400.03 351.758 398.63 351.758 397.05C351.758 395.47 352.098 394.07 352.778 392.85C353.478 391.63 354.428 390.68 355.628 390C356.848 389.3 358.218 388.95 359.738 388.95C361.278 388.95 362.638 389.29 363.818 389.97C364.998 390.65 365.918 391.61 366.578 392.85C367.258 394.07 367.598 395.5 367.598 397.14C367.598 397.26 367.588 397.4 367.568 397.56C367.568 397.72 367.558 397.87 367.538 398.01H354.008V395.94H366.038L364.868 396.66C364.888 395.64 364.678 394.73 364.238 393.93C363.798 393.13 363.188 392.51 362.408 392.07C361.648 391.61 360.758 391.38 359.738 391.38C358.738 391.38 357.848 391.61 357.068 392.07C356.288 392.51 355.678 393.14 355.238 393.96C354.798 394.76 354.578 395.68 354.578 396.72V397.2C354.578 398.26 354.818 399.21 355.298 400.05C355.798 400.87 356.488 401.51 357.368 401.97C358.248 402.43 359.258 402.66 360.398 402.66C361.338 402.66 362.188 402.5 362.948 402.18C363.728 401.86 364.408 401.38 364.988 400.74L366.578 402.6C365.858 403.44 364.958 404.08 363.878 404.52C362.818 404.96 361.628 405.18 360.308 405.18ZM391.487 388.95C392.767 388.95 393.897 389.2 394.877 389.7C395.857 390.2 396.617 390.96 397.157 391.98C397.717 393 397.997 394.29 397.997 395.85V405H395.117V396.18C395.117 394.64 394.757 393.48 394.037 392.7C393.317 391.92 392.307 391.53 391.007 391.53C390.047 391.53 389.207 391.73 388.487 392.13C387.767 392.53 387.207 393.12 386.807 393.9C386.427 394.68 386.237 395.65 386.237 396.81V405H383.357V396.18C383.357 394.64 382.997 393.48 382.277 392.7C381.577 391.92 380.567 391.53 379.247 391.53C378.307 391.53 377.477 391.73 376.757 392.13C376.037 392.53 375.477 393.12 375.077 393.9C374.677 394.68 374.477 395.65 374.477 396.81V405H371.597V389.1H374.357V393.33L373.907 392.25C374.407 391.21 375.177 390.4 376.217 389.82C377.257 389.24 378.467 388.95 379.847 388.95C381.367 388.95 382.677 389.33 383.777 390.09C384.877 390.83 385.597 391.96 385.937 393.48L384.767 393C385.247 391.78 386.087 390.8 387.287 390.06C388.487 389.32 389.887 388.95 391.487 388.95Z" fill="white"/>
<circle cx="275" cy="462.5" r="37.5" fill="white"/>
<path d="M265.985 479.5V474.775L278.135 463.3C279.095 462.43 279.8 461.65 280.25 460.96C280.7 460.27 281 459.64 281.15 459.07C281.33 458.5 281.42 457.975 281.42 457.495C281.42 456.235 280.985 455.275 280.115 454.615C279.275 453.925 278.03 453.58 276.38 453.58C275.06 453.58 273.83 453.835 272.69 454.345C271.58 454.855 270.635 455.65 269.855 456.73L264.545 453.31C265.745 451.51 267.425 450.085 269.585 449.035C271.745 447.985 274.235 447.46 277.055 447.46C279.395 447.46 281.435 447.85 283.175 448.63C284.945 449.38 286.31 450.445 287.27 451.825C288.26 453.205 288.755 454.855 288.755 456.775C288.755 457.795 288.62 458.815 288.35 459.835C288.11 460.825 287.6 461.875 286.82 462.985C286.07 464.095 284.96 465.34 283.49 466.72L273.41 476.215L272.015 473.56H289.79V479.5H265.985Z" fill="#6184F4"/>
</g>
<path d="M-5962 -15348H28116V-15350H-5962V-15348ZM28117 -15347V5435H28119V-15347H28117ZM28116 5436H-5962V5438H28116V5436ZM-5963 5435V-15347H-5965V5435H-5963ZM-5962 5436C-5962.55 5436 -5963 5435.55 -5963 5435H-5965C-5965 5436.66 -5963.66 5438 -5962 5438V5436ZM28117 5435C28117 5435.55 28116.6 5436 28116 5436V5438C28117.7 5438 28119 5436.66 28119 5435H28117ZM28116 -15348C28116.6 -15348 28117 -15347.6 28117 -15347H28119C28119 -15348.7 28117.7 -15350 28116 -15350V-15348ZM-5962 -15350C-5963.66 -15350 -5965 -15348.7 -5965 -15347H-5963C-5963 -15347.6 -5962.55 -15348 -5962 -15348V-15350Z" fill="black" fill-opacity="0.1"/>
<defs>
<clipPath id="clip0_0_1">
<rect width="1440" height="3623" fill="white" transform="translate(-790 -800)"/>
</clipPath>
<clipPath id="clip1_0_1">
<rect width="411.1" height="371.3" fill="white" transform="translate(69.4492 -48.2998)"/>
</clipPath>
</defs>
</svg>
