<svg width="588" height="588" viewBox="0 0 588 588" fill="none" xmlns="http://www.w3.org/2000/svg">
<rect y="38" width="550" height="550" rx="30" fill="#809CF6"/>
<path opacity="0.1056" d="M351.143 271.219C349.29 270.292 347.283 269.829 345.199 269.829C343.114 269.829 341.107 270.292 339.254 271.219L150.422 380.998C147.18 382.85 147.18 385.938 150.499 387.868L248.776 444.611C250.628 445.537 252.636 446 254.72 446C256.804 446 258.812 445.537 260.664 444.611L449.419 334.832C452.662 332.902 452.662 329.891 449.342 327.961L351.143 271.219Z" fill="#1D4B5B"/>
<path d="M451.428 318.62V332.362C451.582 332.285 451.659 332.208 451.737 332.13V318.389C451.659 318.466 451.582 318.543 451.428 318.62Z" fill="#1D546D"/>
<path d="M451.734 318.389V332.131C452.352 331.822 452.815 331.359 453.201 330.818C453.587 330.278 453.819 329.583 453.819 328.965V315.224C453.742 315.918 453.587 316.536 453.201 317.076C452.815 317.617 452.352 318.08 451.734 318.389Z" fill="#1D546D"/>
<path d="M149.959 368.183V381.924C149.959 382.387 150.036 382.851 150.268 383.237C150.422 383.623 150.731 384.009 151.117 384.317V370.576C150.808 370.267 150.499 369.881 150.268 369.495C150.036 369.109 149.959 368.646 149.959 368.183Z" fill="#1D546D"/>
<path d="M151.039 370.575V384.317C151.502 384.703 151.965 385.089 152.429 385.398V371.656C151.888 371.347 151.425 371.038 151.039 370.575Z" fill="#1D546D"/>
<path opacity="0.96" d="M353.073 255.007C351.22 254.08 349.213 253.617 347.129 253.617C345.044 253.617 343.037 254.08 341.184 255.007L152.352 364.786C149.11 366.639 149.11 369.727 152.429 371.657L250.782 428.399C252.635 429.325 254.642 429.788 256.727 429.788C258.811 429.788 260.818 429.325 262.671 428.399L451.503 318.62C454.746 316.767 454.746 313.679 451.426 311.749L353.073 255.007Z" fill="#1D546D"/>
<path d="M250.705 428.4V442.142L251.091 442.374V428.555L250.705 428.323" fill="#1D546D"/>
<path d="M251.092 428.631V442.373C254.103 443.685 257.499 443.917 260.665 442.913V429.171C257.499 430.175 254.103 430.02 251.092 428.631Z" fill="#1D546D"/>
<path d="M260.664 429.249V442.99C261.359 442.836 261.976 442.527 262.517 442.141V428.399C261.976 428.708 261.359 429.017 260.664 429.249Z" fill="#1D546D"/>
<path d="M451.426 318.62L262.593 428.399C260.741 429.326 258.733 429.789 256.649 429.789C254.565 429.789 252.557 429.326 250.705 428.399L151.734 371.271C151.193 370.962 150.807 370.499 150.421 369.959C150.112 369.418 149.958 368.801 149.881 368.26V382.002C149.958 382.62 150.112 383.237 150.498 383.778C150.884 384.318 151.27 384.781 151.811 385.09L250.627 442.141C252.48 443.067 254.487 443.531 256.572 443.531C258.656 443.531 260.663 443.067 262.516 442.141L451.348 332.439C452.97 331.513 453.819 330.278 453.819 329.042V315.301C453.819 316.459 452.97 317.617 451.426 318.62Z" fill="#164859"/>
<path d="M328.291 266.279L174.971 355.369L277.107 414.427L430.504 325.338L328.291 266.279Z" fill="#EDF8FF"/>
<path d="M404.026 296.463C403.563 296.232 403.022 296.077 402.482 296.077C401.942 296.077 401.401 296.232 400.938 296.463C400.784 296.54 400.629 296.695 400.475 296.849C400.398 297.004 400.32 297.235 400.32 297.39C400.32 297.621 400.398 297.776 400.475 297.93C400.552 298.084 400.706 298.239 400.938 298.316C401.401 298.548 401.942 298.702 402.482 298.702C403.022 298.702 403.563 298.548 404.026 298.316C404.952 297.776 404.952 297.004 404.026 296.463Z" fill="#173E49"/>
<path d="M383.568 285.194C383.259 285.039 382.873 284.962 382.41 284.962C381.947 284.962 381.638 285.039 381.252 285.194C380.635 285.502 380.635 286.12 381.252 286.429L394.685 294.226C394.994 294.38 395.38 294.458 395.766 294.458C396.152 294.458 396.538 294.38 396.847 294.226C397.464 293.917 397.464 293.3 396.847 292.914L383.568 285.194Z" fill="#173E49"/>
<path d="M216.274 391.266L214.499 390.262L214.19 390.802L215.965 391.806L216.274 391.266ZM216.737 391.574C216.583 391.42 216.429 391.266 216.197 391.188L216.043 391.729C216.12 391.729 216.197 391.806 216.274 391.883L216.737 391.574ZM216.892 392.192C216.892 391.96 216.815 391.729 216.66 391.574L216.197 391.883C216.274 391.96 216.274 392.038 216.274 392.192H216.892ZM216.737 392.81C216.892 392.655 216.969 392.424 216.969 392.192H216.351C216.351 392.269 216.351 392.424 216.274 392.501L216.737 392.81ZM216.197 393.196C216.429 393.118 216.583 392.964 216.737 392.81L216.274 392.501C216.197 392.578 216.12 392.655 216.043 392.655L216.197 393.196ZM214.653 394.122L216.274 393.196L215.965 392.655L214.344 393.582L214.653 394.122ZM213.186 394.508C213.649 394.508 214.19 394.354 214.576 394.199L214.267 393.659C213.881 393.813 213.495 393.968 213.109 393.968V394.508H213.186ZM211.797 394.199C212.26 394.431 212.723 394.508 213.186 394.508V393.89C212.8 393.89 212.414 393.813 212.028 393.582L211.797 394.199ZM210.021 393.118L211.797 394.199L212.105 393.659L210.33 392.578L210.021 393.118ZM209.558 392.732C209.712 392.887 209.867 393.041 210.098 393.118L210.253 392.578C210.175 392.578 210.098 392.501 210.021 392.424L209.558 392.732ZM209.326 392.115C209.326 392.346 209.403 392.578 209.558 392.732L210.021 392.424C209.944 392.346 209.944 392.269 209.944 392.115H209.326ZM209.558 391.497C209.403 391.652 209.326 391.883 209.326 392.115H209.944C209.944 392.038 209.944 391.883 210.021 391.806L209.558 391.497ZM210.021 391.111C209.789 391.188 209.635 391.343 209.481 391.497L209.944 391.806C210.021 391.729 210.098 391.652 210.175 391.652L210.021 391.111ZM211.642 390.185L210.021 391.111L210.33 391.652L211.951 390.725L211.642 390.185ZM213.032 389.876C212.569 389.876 212.028 390.03 211.642 390.262L211.951 390.802C212.337 390.648 212.723 390.494 213.109 390.494V389.876H213.032ZM214.421 390.185C213.958 389.953 213.495 389.799 213.032 389.799V390.416C213.418 390.416 213.804 390.494 214.19 390.725L214.421 390.185ZM216.12 391.497L215.965 391.729L216.12 391.497ZM216.66 392.192H216.351H216.66ZM216.12 392.964L216.043 392.655L216.12 392.964ZM214.499 393.89L214.653 394.122L214.499 393.89ZM211.951 393.89L211.797 394.122L211.951 393.89ZM210.175 392.81L210.33 392.578L210.175 392.81ZM209.635 392.115H209.944H209.635ZM210.175 391.343L210.253 391.652L210.175 391.343ZM211.719 390.494L211.565 390.262L211.719 390.494ZM214.267 390.494L214.421 390.262L214.267 390.494Z" fill="#EDF8FF"/>
<path d="M246.458 408.944L242.984 406.937L242.676 407.478L246.15 409.485L246.458 408.944ZM242.984 406.937C242.83 406.86 242.676 406.937 242.598 407.014C242.521 407.169 242.598 407.323 242.676 407.4L242.984 406.937ZM246.15 409.485C246.304 409.562 246.458 409.485 246.536 409.408C246.613 409.253 246.536 409.099 246.458 409.022L246.15 409.485Z" fill="#EDF8FF"/>
<path d="M245.225 409.794L241.751 407.787L241.442 408.327L244.916 410.334L245.225 409.794ZM241.674 407.787C241.519 407.71 241.365 407.787 241.288 407.864C241.211 408.018 241.288 408.173 241.365 408.25L241.674 407.787ZM244.916 410.334C245.071 410.412 245.225 410.334 245.302 410.257C245.379 410.103 245.302 409.948 245.225 409.871L244.916 410.334Z" fill="#EDF8FF"/>
<path d="M243.757 410.798L240.283 408.791L239.974 409.331L243.448 411.338L243.757 410.798ZM240.283 408.791C240.129 408.714 239.974 408.791 239.897 408.868C239.82 409.022 239.897 409.177 239.974 409.254L240.283 408.791ZM243.448 411.261C243.603 411.338 243.757 411.261 243.834 411.184C243.912 411.03 243.834 410.875 243.757 410.798L243.448 411.261Z" fill="#EDF8FF"/>
<path d="M185.316 376.906H181.688V377.524H185.316V376.906ZM184.39 374.281L185.007 377.292L185.625 377.138L185.007 374.127L184.39 374.281ZM181.688 376.906C181.533 376.906 181.379 377.061 181.379 377.215C181.379 377.369 181.533 377.524 181.688 377.524V376.906ZM185.316 377.215V377.524C185.393 377.524 185.471 377.447 185.548 377.447C185.625 377.369 185.625 377.292 185.625 377.215H185.316ZM185.007 374.204C185.007 374.05 184.853 373.973 184.621 373.973C184.467 373.973 184.39 374.127 184.39 374.359L185.007 374.204Z" fill="#EDF8FF"/>
<path d="M415.142 334.447L430.505 325.338L328.292 266.279L313.006 275.389L415.142 334.447Z" fill="#C7E0EF"/>
<path d="M259.97 314.605L257.268 316.149L343.037 365.635L345.662 364.091L259.97 314.605Z" fill="white"/>
<path d="M249.933 320.628L247.309 322.172L333.001 371.657L335.703 370.191L249.933 320.628Z" fill="white"/>
<path d="M239.742 326.494L237.117 327.961L322.81 377.446L325.512 375.98L239.742 326.494Z" fill="white"/>
<path d="M229.785 332.517L227.16 333.983L312.853 383.469L315.555 382.002L229.785 332.517Z" fill="white"/>
<path d="M410.046 319.161C410.2 319.238 410.355 319.315 410.432 319.47C410.509 319.624 410.586 319.778 410.586 319.933C410.586 320.087 410.509 320.242 410.432 320.396C410.355 320.55 410.2 320.628 410.046 320.705L349.289 356.14C348.903 356.371 348.44 356.449 347.977 356.449C347.514 356.449 347.051 356.371 346.665 356.14L265.218 309.125C265.064 309.047 264.909 308.97 264.832 308.816C264.755 308.661 264.678 308.507 264.678 308.353C264.678 308.198 264.755 308.044 264.832 307.889C264.909 307.735 265.064 307.658 265.218 307.581L325.975 272.146C326.361 271.914 326.824 271.837 327.287 271.837C327.75 271.837 328.214 271.914 328.6 272.146L410.046 319.161Z" fill="#6184F4"/>
<path d="M280.968 382.388C285.214 384.859 285.291 388.873 281.045 391.343C276.799 393.814 269.928 393.814 265.605 391.343L214.807 362.007C210.561 359.537 210.484 355.522 214.73 353.052C218.976 350.582 225.847 350.582 230.17 353.052L280.968 382.388Z" fill="#6184F4"/>
<path d="M221.756 358.842C222.528 358.842 223.3 358.61 223.918 358.224C224.613 357.838 224.921 357.375 224.921 356.989C224.921 356.526 224.458 356.062 223.686 355.676L222.76 355.136L218.514 357.606L219.517 358.224C220.135 358.61 220.907 358.842 221.756 358.842ZM227.083 357.066C227.16 357.838 226.62 358.533 225.539 359.15C224.458 359.768 223.146 360.077 221.911 360.077C220.521 360 219.131 359.614 217.973 358.919L215.58 357.529L222.605 353.438L225.153 354.904C226.311 355.599 227.006 356.294 227.083 357.066Z" fill="white"/>
<path d="M231.945 358.842L224.92 362.934L223.299 362.008L230.401 357.916L231.945 358.842Z" fill="white"/>
<path d="M231.559 363.397L233.334 364.401L234.492 362.702L231.559 363.397ZM237.349 361.93L233.334 367.798L231.636 366.794L232.485 365.559L229.551 363.86L227.39 364.324L225.691 363.32L235.805 361.004L237.349 361.93Z" fill="white"/>
<path d="M244.684 366.022C245.147 366.254 245.456 366.485 245.765 366.871C246.073 367.257 246.228 367.643 246.305 368.107L244.298 368.338C244.298 368.029 244.143 367.721 243.989 367.489C243.757 367.257 243.526 367.026 243.294 366.871C242.677 366.485 241.905 366.331 241.133 366.331C240.361 366.331 239.589 366.485 238.894 366.871C238.199 367.257 237.89 367.721 237.89 368.107C237.89 368.338 237.967 368.57 238.122 368.801C238.276 369.033 238.431 369.187 238.662 369.265C239.203 369.573 239.743 369.805 240.361 369.882L242.291 368.724L243.912 369.651L241.441 371.117C239.975 371.195 238.585 370.809 237.35 370.114C236.887 369.959 236.578 369.651 236.269 369.265C235.96 368.879 235.806 368.493 235.729 368.029C235.729 367.257 236.192 366.485 237.273 365.945C238.431 365.327 239.666 365.019 240.978 365.019C242.291 365.096 243.526 365.405 244.684 366.022Z" fill="white"/>
<path d="M255.415 372.352L248.313 376.444L246.769 375.517L247.773 371.04L243.372 373.587L241.828 372.661L248.853 368.569L250.32 369.419L249.239 374.051L253.794 371.426L255.415 372.352Z" fill="white"/>
<path d="M256.881 379.145C257.653 379.145 258.425 378.913 259.12 378.605C259.352 378.527 259.583 378.296 259.815 378.064C259.969 377.833 260.124 377.601 260.124 377.292C260.124 376.983 260.047 376.752 259.892 376.52C259.738 376.289 259.506 376.134 259.275 375.98C258.58 375.594 257.885 375.439 257.113 375.517C256.341 375.517 255.569 375.748 254.874 376.134C254.643 376.211 254.411 376.443 254.179 376.675C254.025 376.906 253.871 377.138 253.871 377.447C253.871 377.678 253.948 377.987 254.102 378.219C254.257 378.45 254.488 378.605 254.72 378.682C255.337 378.991 256.109 379.145 256.881 379.145ZM262.208 377.292C262.208 377.755 262.054 378.219 261.745 378.605C261.436 378.991 261.127 379.299 260.664 379.454C259.583 380.071 258.271 380.38 257.036 380.38C255.723 380.38 254.488 380.071 253.33 379.454C252.867 379.299 252.558 378.991 252.249 378.605C251.941 378.219 251.786 377.755 251.709 377.292C251.709 376.829 251.863 376.366 252.172 375.98C252.404 375.594 252.79 375.285 253.253 375.131C254.334 374.513 255.646 374.204 256.881 374.204C258.194 374.204 259.429 374.513 260.587 375.131C261.05 375.285 261.359 375.594 261.668 375.98C261.977 376.366 262.131 376.829 262.208 377.292Z" fill="white"/>
<path d="M267.921 379.377C268.384 379.609 268.77 379.918 269.079 380.304C269.388 380.612 269.542 380.998 269.62 381.384L267.69 381.616C267.612 381.307 267.458 380.998 267.226 380.767C266.995 380.535 266.763 380.304 266.454 380.149C266.223 379.995 265.914 379.918 265.605 379.918C265.374 379.918 265.142 379.918 264.91 380.072C264.679 380.226 264.601 380.304 264.679 380.535C264.91 380.921 265.219 381.23 265.528 381.539C265.914 381.848 266.223 382.388 266.377 382.851C266.454 383.237 266.145 383.623 265.451 384.009C264.756 384.395 263.984 384.55 263.212 384.472C262.363 384.395 261.513 384.164 260.741 383.7C260.278 383.469 259.815 383.16 259.506 382.697C259.197 382.234 258.966 381.77 258.889 381.23L260.973 381.076C260.973 381.462 261.127 381.77 261.282 382.156C261.513 382.465 261.745 382.774 262.054 382.928C262.363 383.083 262.671 383.16 262.98 383.237C263.212 383.237 263.521 383.237 263.752 383.083C263.984 382.928 264.061 382.774 263.984 382.62C263.829 382.311 263.598 382.002 263.289 381.77C262.826 381.384 262.44 380.844 262.208 380.304C262.131 379.918 262.44 379.532 263.135 379.146C263.829 378.76 264.602 378.605 265.374 378.682C266.377 378.76 267.226 378.991 267.921 379.377Z" fill="white"/>
<path d="M273.48 382.774L266.455 386.866L264.834 385.939L271.859 381.925L273.48 382.774Z" fill="white"/>
<path d="M277.726 385.012C278.189 385.244 278.575 385.552 278.884 385.938C279.193 386.247 279.347 386.633 279.424 387.019L277.494 387.251C277.417 386.942 277.263 386.633 277.031 386.402C276.799 386.17 276.568 385.938 276.259 385.784C276.027 385.63 275.719 385.552 275.41 385.552C275.178 385.552 274.947 385.552 274.715 385.707C274.483 385.861 274.406 385.938 274.483 386.17C274.715 386.556 275.024 386.865 275.333 387.174C275.719 387.482 276.027 387.946 276.182 388.486C276.182 388.872 275.95 389.258 275.255 389.644C274.561 390.03 273.789 390.184 273.017 390.107C272.167 390.03 271.318 389.798 270.546 389.335C270.083 389.104 269.62 388.795 269.311 388.332C269.002 387.868 268.771 387.405 268.693 386.865L270.778 386.71C270.778 387.096 270.932 387.405 271.087 387.791C271.318 388.1 271.55 388.409 271.859 388.563C272.167 388.718 272.476 388.795 272.785 388.872C273.017 388.872 273.325 388.872 273.557 388.718C273.789 388.563 273.866 388.409 273.789 388.254C273.634 387.946 273.403 387.637 273.094 387.405C272.631 387.019 272.245 386.479 272.013 385.938C271.936 385.552 272.245 385.166 272.939 384.78C273.634 384.394 274.406 384.24 275.178 384.317C276.182 384.394 277.031 384.626 277.726 385.012Z" fill="white"/>
<path opacity="0.07" d="M287.452 177.111C287.452 177.111 306.521 178.733 312.234 175.645C312.234 175.645 305.517 181.512 287.066 179.968L287.452 177.111Z" fill="#010101"/>
<path d="M311.693 85.2441C317.637 86.7109 323.35 89.0269 328.754 92.0378C337.709 97.133 347.282 105.702 348.903 119.135C349.907 126.546 349.444 134.112 347.745 141.369C343.499 158.276 331.379 171.709 311.461 176.341C297.488 179.583 282.125 178.116 270.545 169.701C258.965 161.286 251.554 142.913 253.947 127.241C256.263 111.647 262.825 103.155 273.016 95.589C283.206 88.0233 296.716 84.5493 311.693 85.2441Z" fill="#FFB681"/>
<path d="M285.445 147.853C285.754 149.165 286.372 150.323 287.298 151.172C288.225 152.099 289.383 152.716 290.695 152.948C293.706 153.411 296.253 151.481 297.952 149.088C298.955 147.776 285.059 146.309 285.445 147.853Z" fill="white"/>
<path d="M290.928 142.218H290.85C290.156 142.141 289.461 142.063 288.766 141.909C288.148 141.832 287.531 141.523 287.068 141.137C286.604 140.751 286.218 140.211 285.987 139.593C285.755 138.821 285.678 137.509 286.913 135.733C287.994 134.189 288.148 131.101 288.071 130.097C288.071 129.943 288.071 129.866 288.148 129.711C288.226 129.557 288.226 129.48 288.303 129.403C288.38 129.325 288.457 129.248 288.612 129.171C288.766 129.094 288.843 129.094 288.998 129.094C289.229 129.094 289.461 129.171 289.692 129.325C289.924 129.48 290.001 129.711 290.001 129.943C290.001 130.097 290.233 134.498 288.457 136.968C288.226 137.2 287.994 137.586 287.84 137.895C287.685 138.203 287.685 138.589 287.685 138.975C287.84 139.439 288.38 139.747 289.152 139.979C289.692 140.133 290.31 140.211 290.928 140.211C291.082 140.211 291.159 140.288 291.314 140.288C291.468 140.365 291.545 140.442 291.622 140.519C291.7 140.597 291.777 140.751 291.777 140.828C291.777 140.905 291.854 141.06 291.854 141.214C291.854 141.446 291.777 141.677 291.545 141.832C291.391 142.063 291.159 142.141 290.928 142.218Z" fill="#ED8A43"/>
<path opacity="0.32" d="M256.728 151.559C258.117 152.254 259.661 152.563 261.205 152.486C266.609 152.331 270.855 147.545 270.701 141.755C270.546 136.042 265.992 131.564 260.588 131.719C258.58 131.796 256.728 132.491 255.184 133.649" fill="#FB9A4D"/>
<path d="M270.16 130.406C270.083 132.568 271.164 134.266 272.631 134.344C274.097 134.421 275.255 132.722 275.333 130.561C275.41 128.399 274.329 126.701 272.862 126.624C271.395 126.546 270.237 128.245 270.16 130.406Z" fill="#002019"/>
<path d="M310.459 133.571C310.382 135.732 311.463 137.431 312.929 137.508C314.319 137.585 315.554 135.887 315.631 133.802C315.709 131.718 314.628 129.865 313.161 129.865C311.771 129.711 310.536 131.409 310.459 133.571Z" fill="#002019"/>
<path opacity="0.32" d="M338.56 143.608C338.714 149.707 334.237 154.802 328.447 155.034C322.657 155.265 317.793 150.479 317.639 144.38C317.484 138.281 321.962 133.186 327.752 132.954C333.465 132.723 338.328 137.509 338.56 143.608Z" fill="#FB9A4D"/>
<path d="M338.095 151.79C338.867 151.944 339.639 152.021 340.489 152.099C342.264 151.944 343.885 151.172 345.043 149.86C346.201 148.547 346.819 146.849 346.819 145.151C346.742 143.375 346.047 141.754 344.812 140.519C343.577 139.283 341.878 138.589 340.103 138.589C339.176 138.589 338.018 138.28 337.246 138.666C337.941 141.445 338.25 144.379 338.25 147.235L338.095 151.79Z" fill="#FFB681"/>
<path opacity="0.37" d="M343.501 146.617C343.27 146.617 343.038 146.54 342.884 146.386C342.729 146.231 342.575 146 342.575 145.768C342.421 144.996 342.112 144.224 341.494 143.684C340.954 143.143 340.182 142.757 339.41 142.68C339.178 142.68 338.947 142.526 338.792 142.294C338.638 142.062 338.561 141.831 338.561 141.599C338.561 141.445 338.638 141.368 338.638 141.213C338.715 141.136 338.792 140.982 338.869 140.904C338.947 140.827 339.101 140.75 339.178 140.75C339.255 140.75 339.41 140.673 339.564 140.673C340.799 140.827 341.88 141.368 342.729 142.217C343.579 143.066 344.196 144.147 344.351 145.382C344.428 145.614 344.351 145.922 344.196 146.154C344.042 146.386 343.81 146.54 343.579 146.617H343.501Z" fill="#ED8A43"/>
<path d="M271.086 185.604C271.086 185.604 262.903 187.997 258.425 201.661C253.562 216.638 248.698 245.974 247.077 261.723C243.989 291.908 244.915 305.573 244.915 305.573L264.602 310.977L271.086 185.604Z" fill="white"/>
<path d="M259.428 238.487C260.818 243.814 261.435 249.295 261.358 254.776C261.358 264.426 250.318 361.081 250.318 361.081C250.318 361.081 350.138 379.069 349.598 364.787C348.98 350.582 349.598 273.999 349.598 273.999C349.598 273.999 353.844 205.445 329.14 187.38C315.244 177.19 307.369 177.962 296.793 177.807C284.904 177.576 277.724 179.12 271.008 183.829C250.396 198.111 259.428 238.487 259.428 238.487Z" fill="white"/>
<path opacity="0.08" d="M277.803 354.21L284.982 253.541C284.982 253.464 284.982 253.464 285.06 253.386L317.252 215.327L311.539 207.529L320.881 206.68L326.207 185.682L328.06 186.685L323.66 208.687L315.785 209.614L320.109 216.485L285.523 253.618L280.35 355.677" fill="#070707"/>
<path opacity="0.08" d="M277.263 180.432L276.182 198.574L282.049 202.048L275.565 203.437L284.829 253.386L272.477 201.739L276.645 201.044L273.326 198.96L272.863 182.67L277.263 180.432Z" fill="#070707"/>
<path d="M319.877 182.362L285.6 249.681L285.137 178.425C285.137 178.425 312.62 180.818 319.877 182.362Z" fill="#6184F4"/>
<path d="M284.982 178.888C285.832 176.649 286.372 174.333 286.758 171.94C301.58 174.024 327.211 153.489 318.796 174.024C317.87 176.186 317.561 180.355 319.877 182.362C319.877 182.362 308.992 185.913 298.647 184.91C287.607 183.829 285.137 178.425 285.137 178.425" fill="#FFB681"/>
<path opacity="0.32" d="M285.832 176.186C285.832 176.186 308.065 178.811 314.859 175.491C314.859 175.491 306.676 180.895 285.137 178.425L285.832 176.186Z" fill="#FB9A4D"/>
<path d="M279.58 232.464C279.58 237.405 276.492 241.419 272.709 241.419C268.926 241.419 265.838 237.405 265.838 232.464C265.838 227.523 268.926 223.509 272.709 223.509C276.492 223.509 279.58 227.523 279.58 232.464Z" fill="#7AE2E2"/>
<path d="M276.258 232.464C276.258 236.788 273.556 240.339 270.159 240.339C266.84 240.339 264.061 236.788 264.061 232.464C264.061 228.141 266.763 224.59 270.159 224.59C273.479 224.59 276.258 228.141 276.258 232.464Z" fill="#1D546D"/>
<path d="M279.578 186.839C280.736 183.211 282.666 179.891 285.368 178.347L284.518 176.958C281.276 178.81 279.192 182.67 277.956 186.376L279.578 186.839ZM272.63 225.362C273.479 225.439 273.479 225.439 273.479 225.439C273.479 225.439 273.479 225.439 273.479 225.362C273.479 225.285 273.479 225.208 273.479 225.131C273.479 224.899 273.556 224.59 273.556 224.204C273.633 223.355 273.788 222.197 273.942 220.807C274.251 217.951 274.714 214.014 275.332 209.768C276.49 201.276 278.034 191.626 279.578 186.839L278.034 186.376C276.412 191.317 274.868 201.121 273.71 209.536C273.17 213.782 272.63 217.719 272.321 220.576C272.166 222.043 272.012 223.201 271.935 223.973C271.858 224.359 271.858 224.667 271.858 224.899C271.858 224.976 271.858 225.053 271.858 225.131V225.208C271.858 225.285 271.858 225.285 272.63 225.362ZM285.368 178.347C285.754 178.116 285.908 177.652 285.676 177.189C285.445 176.803 284.982 176.649 284.518 176.88L285.368 178.347ZM278.806 186.608L279.578 186.839L278.806 186.608ZM271.858 225.285C271.78 225.748 272.166 226.134 272.552 226.211C273.016 226.289 273.402 225.903 273.479 225.517L271.858 225.285Z" fill="#1D546D"/>
<path opacity="0.08" d="M329.758 242.964V313.525H333.541L329.758 242.964Z" fill="#070707"/>
<path d="M318.024 209.536C319.027 206.293 320.417 199.886 321.112 193.787C321.498 190.776 321.652 187.765 321.498 185.372C321.42 184.137 321.266 183.056 321.034 182.13C320.803 181.203 320.417 180.354 319.799 179.814L318.641 181.049C318.95 181.28 319.182 181.821 319.413 182.593C319.645 183.365 319.722 184.368 319.799 185.526C319.954 187.842 319.722 190.699 319.413 193.632C318.718 199.577 317.329 205.985 316.402 209.073L318.024 209.536ZM319.799 179.891C319.49 179.582 318.95 179.582 318.641 179.891C318.332 180.2 318.332 180.74 318.641 181.049L319.799 179.891ZM316.48 209.073C316.325 209.536 316.557 209.999 317.02 210.076C317.483 210.153 317.946 209.999 318.024 209.536L316.48 209.073Z" fill="#1D546D"/>
<path d="M318.255 212.084C320.417 212.779 322.115 214.941 323.505 218.106C324.817 221.194 325.744 225.054 326.361 228.837C326.979 232.62 327.288 236.325 327.365 239.027C327.442 240.417 327.442 241.498 327.519 242.347C327.519 242.733 327.519 243.042 327.519 243.273C327.519 243.35 327.519 243.428 327.519 243.505V243.582C327.519 243.582 327.519 243.582 328.368 243.582C329.218 243.582 329.218 243.582 329.218 243.582C329.218 243.582 329.218 243.582 329.218 243.505C329.218 243.428 329.218 243.35 329.218 243.273C329.218 243.042 329.218 242.733 329.218 242.347C329.218 241.575 329.14 240.417 329.063 239.027C328.909 236.248 328.6 232.542 327.982 228.682C327.365 224.822 326.438 220.808 325.049 217.566C323.659 214.323 321.652 211.621 318.795 210.695L318.255 212.084ZM301.425 243.428C302.275 243.428 302.275 243.428 302.275 243.428V243.35C302.275 243.273 302.275 243.196 302.275 243.042C302.275 242.81 302.275 242.347 302.352 241.884C302.429 240.88 302.506 239.413 302.738 237.715C303.124 234.318 303.741 229.84 304.899 225.517C306.057 221.194 307.679 217.18 309.917 214.555C310.998 213.242 312.233 212.316 313.623 211.853C315.013 211.39 316.557 211.39 318.332 212.007L318.873 210.463C316.788 209.768 314.858 209.768 313.083 210.309C311.384 210.849 309.917 212.007 308.682 213.474C306.212 216.408 304.513 220.731 303.355 225.131C302.197 229.532 301.503 234.086 301.117 237.56C300.962 239.259 300.808 240.726 300.731 241.729C300.731 242.27 300.653 242.656 300.653 242.887C300.653 243.042 300.653 243.119 300.653 243.196V243.273C300.576 243.428 300.576 243.428 301.425 243.428ZM327.519 243.428C327.519 243.891 327.905 244.277 328.368 244.277C328.832 244.277 329.218 243.891 329.218 243.428H327.519ZM318.564 211.235L318.332 212.007L318.564 211.235ZM300.576 243.428C300.576 243.891 300.885 244.277 301.348 244.277C301.811 244.277 302.197 243.968 302.197 243.505L300.576 243.428Z" fill="#1D546D"/>
<path d="M303.974 243.427C303.897 243.89 303.665 244.353 303.356 244.739C303.047 245.125 302.584 245.357 302.121 245.511C301.658 245.666 301.117 245.588 300.654 245.434C300.191 245.28 299.805 244.971 299.419 244.585C299.11 244.199 298.879 243.736 298.879 243.272C298.801 242.809 298.879 242.269 299.11 241.806C299.342 241.342 299.651 240.956 300.037 240.725C300.423 240.493 300.963 240.339 301.426 240.339C302.198 240.416 302.893 240.802 303.356 241.342C303.819 241.96 304.051 242.732 303.974 243.427Z" fill="#7AE2E2"/>
<path d="M330.917 244.431C330.84 244.894 330.608 245.357 330.3 245.743C329.991 246.129 329.528 246.361 329.064 246.515C328.601 246.67 328.061 246.592 327.598 246.438C327.134 246.284 326.748 245.975 326.362 245.589C326.054 245.203 325.822 244.74 325.822 244.276C325.745 243.813 325.822 243.273 326.054 242.81C326.285 242.346 326.594 241.96 326.98 241.729C327.366 241.497 327.906 241.343 328.37 241.343C329.142 241.42 329.836 241.806 330.3 242.346C330.763 242.964 330.994 243.659 330.917 244.431Z" fill="#7AE2E2"/>
<path d="M353.228 179.505C366.12 174.256 381.252 161.054 375.384 143.993C371.602 133.031 367.664 111.878 354.077 88.7947C344.427 72.5054 316.249 65.7118 295.791 69.4946C276.259 73.1231 260.665 77.1375 250.706 115.815C240.824 154.492 240.438 149.86 237.35 154.878C234.262 159.819 246.691 174.796 274.02 171.94L269.852 169.238C269.852 169.238 259.97 163.062 257.191 143.375C254.334 123.689 263.444 106.628 263.444 106.628C263.444 106.628 296.794 123.844 321.035 126.932C334.237 128.553 333.851 151.713 330.685 158.198C325.976 167.925 316.172 172.712 318.642 175.954C326.131 185.604 342.574 183.828 353.228 179.505Z" fill="#554047"/>
<path d="M214.498 153.18L217.972 188.537C217.972 188.537 264.909 187.148 271.085 183.828C271.085 183.828 265.836 213.628 262.902 218.8C259.969 223.895 211.101 217.874 202.686 215.944C194.271 214.014 193.422 156.808 193.422 156.808L214.498 153.18Z" fill="white"/>
<path d="M196.588 156.268C196.588 156.268 190.721 147.699 190.721 143.144C190.721 138.589 206.161 136.891 206.161 136.891C206.161 136.891 203.768 129.325 206.161 127.935C208.554 126.546 211.719 135.424 211.719 141.677V153.643L196.588 156.268Z" fill="#FFB681"/>
<path opacity="0.32" d="M192.496 147.776C192.496 147.776 197.746 149.783 201.22 149.783C204.694 149.783 208.863 146.078 208.863 143.685C208.863 141.291 207.01 137.972 207.01 137.972C207.01 137.972 210.252 141.214 210.252 142.835C210.252 145.692 207.936 148.317 205.466 149.783C202.995 151.25 197.9 151.482 194.967 149.783C193.963 149.243 193.114 148.548 192.496 147.776Z" fill="#FB9A4D"/>
<path opacity="0.32" d="M204.153 142.681C204.153 142.681 206.083 147.004 209.557 147.004C210.637 147.004 210.792 146.927 210.792 146.927C210.792 146.927 211.255 146.386 210.56 145.151C209.865 143.839 210.251 140.442 210.251 140.442C210.251 140.442 207.009 138.898 205.388 139.824C204.925 140.133 204.539 140.596 204.307 141.137C204.075 141.6 203.998 142.14 204.153 142.681Z" fill="#FB9A4D"/>
<path d="M208.014 146.155C208.014 146.155 204.926 144.148 204.926 141.986C204.926 139.825 208.786 139.902 210.175 140.442C212.8 141.446 212.26 144.225 211.642 146.387C211.025 148.548 208.014 146.155 208.014 146.155Z" fill="#FFB681"/>
<path opacity="0.08" d="M254.179 205.136L251.709 220.807H253.562L254.179 205.136Z" fill="#070707"/>
<path d="M170.803 166.612L205.312 167.616L205.389 165.068L170.88 164.065L170.803 166.612ZM164.55 147.466L169.568 165.686L172.038 164.991L167.02 146.772L164.55 147.466ZM159.532 175.722L167.02 147.466L164.55 146.849L157.061 175.104L159.532 175.722ZM147.566 119.057L157.061 175.645L159.609 175.259L150.113 118.671L147.566 119.057ZM138.302 161.208L150.036 119.134L147.566 118.439L135.831 160.513L138.302 161.208ZM128.729 149.01L135.986 161.594L138.224 160.282L130.968 147.698L128.729 149.01ZM116.84 167.075L130.813 149.088L128.806 147.544L114.833 165.531L116.84 167.075ZM103.716 143.915L114.678 166.844L116.994 165.763L106.032 142.757L103.716 143.915ZM98.5435 164.296L106.032 143.838L103.639 142.989L96.1503 163.37L98.5435 164.296ZM205.234 167.616C205.929 167.616 206.547 167.075 206.547 166.381C206.547 165.686 206.006 165.068 205.312 165.068L205.234 167.616ZM170.803 165.3L169.568 165.609C169.722 166.149 170.185 166.535 170.726 166.535L170.803 165.3ZM165.785 147.158L167.02 146.849C166.866 146.308 166.325 145.922 165.785 145.922C165.245 145.922 164.704 146.308 164.55 146.849L165.785 147.158ZM158.297 175.413L157.061 175.645C157.139 176.262 157.679 176.648 158.297 176.725C158.914 176.725 159.455 176.339 159.609 175.799L158.297 175.413ZM148.801 118.825L150.036 118.593C149.959 117.976 149.419 117.59 148.878 117.513C148.261 117.513 147.72 117.899 147.566 118.439L148.801 118.825ZM137.066 160.899L135.986 161.517C136.217 161.98 136.758 162.212 137.221 162.135C137.761 162.057 138.147 161.671 138.302 161.208L137.066 160.899ZM129.81 148.316L130.89 147.698C130.659 147.312 130.273 147.08 129.887 147.08C129.501 147.08 129.038 147.235 128.806 147.544L129.81 148.316ZM115.836 166.303L114.678 166.844C114.833 167.23 115.219 167.539 115.682 167.539C116.145 167.616 116.531 167.384 116.84 167.075L115.836 166.303ZM104.874 143.375L106.032 142.834C105.8 142.371 105.337 142.062 104.797 142.14C104.256 142.14 103.87 142.526 103.639 142.989L104.874 143.375ZM96.1503 163.37C95.9187 164.065 96.2275 164.759 96.9223 164.991C97.6171 165.223 98.3119 164.914 98.5435 164.219L96.1503 163.37Z" fill="#6184F4"/>
<path opacity="0.47" d="M427.108 346.413C427.108 346.413 427.031 347.108 426.877 347.648C426.336 350.504 425.564 353.361 424.561 356.14C424.561 356.14 428.961 347.108 428.961 345.332L427.108 346.413Z" fill="#EAB28C"/>
<path opacity="0.29" d="M285.291 361.93C285.291 361.93 295.79 369.341 300.113 369.959C304.36 370.576 308.065 363.088 308.065 363.088C306.444 362.007 298.261 355.985 292.548 354.904C290.618 354.518 287.916 357.606 287.916 357.606L285.291 361.93Z" fill="white"/>
<path opacity="0.29" d="M365.503 334.523C365.503 334.523 369.363 343.015 372.991 345.254C376.697 347.492 383.182 341.78 383.182 341.78C382.178 340.158 376.929 330.972 371.679 328.347C368.668 326.88 363.959 330.663 363.959 330.663L365.503 334.523Z" fill="white"/>
<path d="M342.961 405.316C342.961 405.316 342.653 404.621 342.189 403.386L342.961 405.316Z" fill="#F9D0AF"/>
<path opacity="0.29" d="M325.127 344.869C325.127 344.869 331.535 353.284 336.09 354.828C340.644 356.372 347.978 350.119 347.978 350.119C347.978 350.119 335.009 336.3 331.38 335.528C327.443 334.679 322.039 341.163 322.039 341.163L325.127 344.869Z" fill="white"/>
<path opacity="0.32" d="M336.398 416.279C338.405 411.415 339.872 407.71 339.872 407.092C339.872 404.853 338.173 398.137 338.173 398.137L340.567 396.747C340.567 396.747 344.967 401.842 343.5 406.86C342.033 411.878 330.144 435.656 330.144 435.656L327.365 436.274C327.365 436.274 335.008 419.058 339.64 407.941" fill="#FB9A4D"/>
<path opacity="0.32" d="M368.59 375.285C368.59 375.285 373.686 385.167 373.686 391.96C373.686 394.122 371.91 403.849 371.91 403.849L367.664 405.856C367.664 405.856 370.752 392.038 370.366 389.644C370.057 387.483 368.204 379.454 368.204 379.454L368.59 375.285Z" fill="#FB9A4D"/>
<path opacity="0.32" d="M398.621 362.394C398.775 364.941 398.698 367.566 398.466 370.114C398.312 372.275 395.919 382.388 395.919 382.388L393.371 383.855C393.371 383.855 396.305 369.882 396.305 367.412C396.227 366.254 396.15 365.096 395.996 363.938L398.621 362.394Z" fill="#FB9A4D"/>
<path d="M71.9439 487V466H80.1339C81.9739 466 83.5439 466.29 84.8439 466.87C86.1439 467.45 87.1439 468.29 87.8439 469.39C88.5439 470.49 88.8939 471.8 88.8939 473.32C88.8939 474.84 88.5439 476.15 87.8439 477.25C87.1439 478.33 86.1439 479.17 84.8439 479.77C83.5439 480.35 81.9739 480.64 80.1339 480.64H73.5939L74.9439 479.23V487H71.9439ZM74.9439 479.53L73.5939 478.03H80.0439C81.9639 478.03 83.4139 477.62 84.3939 476.8C85.3939 475.98 85.8939 474.82 85.8939 473.32C85.8939 471.82 85.3939 470.66 84.3939 469.84C83.4139 469.02 81.9639 468.61 80.0439 468.61H73.5939L74.9439 467.11V479.53ZM99.8643 487.18C98.5043 487.18 97.3043 486.93 96.2643 486.43C95.2443 485.93 94.4443 485.17 93.8643 484.15C93.3043 483.11 93.0243 481.81 93.0243 480.25V471.1H95.9043V479.92C95.9043 481.48 96.2743 482.65 97.0143 483.43C97.7743 484.21 98.8343 484.6 100.194 484.6C101.194 484.6 102.064 484.4 102.804 484C103.544 483.58 104.114 482.98 104.514 482.2C104.914 481.4 105.114 480.44 105.114 479.32V471.1H107.994V487H105.264V482.71L105.714 483.85C105.194 484.91 104.414 485.73 103.374 486.31C102.334 486.89 101.164 487.18 99.8643 487.18ZM118.937 487.18C117.337 487.18 116.097 486.75 115.217 485.89C114.337 485.03 113.897 483.8 113.897 482.2V467.62H116.777V482.08C116.777 482.94 116.987 483.6 117.407 484.06C117.847 484.52 118.467 484.75 119.267 484.75C120.167 484.75 120.917 484.5 121.517 484L122.417 486.07C121.977 486.45 121.447 486.73 120.827 486.91C120.227 487.09 119.597 487.18 118.937 487.18ZM111.197 473.47V471.1H121.337V473.47H111.197ZM149.436 466H152.436V487H149.436V466ZM137.376 487H134.376V466H137.376V487ZM149.706 477.64H137.076V475.03H149.706V477.64ZM158.301 487V471.1H161.181V487H158.301ZM159.741 468.04C159.181 468.04 158.711 467.86 158.331 467.5C157.971 467.14 157.791 466.7 157.791 466.18C157.791 465.64 157.971 465.19 158.331 464.83C158.711 464.47 159.181 464.29 159.741 464.29C160.301 464.29 160.761 464.47 161.121 464.83C161.501 465.17 161.691 465.6 161.691 466.12C161.691 466.66 161.511 467.12 161.151 467.5C160.791 467.86 160.321 468.04 159.741 468.04ZM186.57 470.95C187.85 470.95 188.98 471.2 189.96 471.7C190.94 472.2 191.7 472.96 192.24 473.98C192.8 475 193.08 476.29 193.08 477.85V487H190.2V478.18C190.2 476.64 189.84 475.48 189.12 474.7C188.4 473.92 187.39 473.53 186.09 473.53C185.13 473.53 184.29 473.73 183.57 474.13C182.85 474.53 182.29 475.12 181.89 475.9C181.51 476.68 181.32 477.65 181.32 478.81V487H178.44V478.18C178.44 476.64 178.08 475.48 177.36 474.7C176.66 473.92 175.65 473.53 174.33 473.53C173.39 473.53 172.56 473.73 171.84 474.13C171.12 474.53 170.56 475.12 170.16 475.9C169.76 476.68 169.56 477.65 169.56 478.81V487H166.68V471.1H169.44V475.33L168.99 474.25C169.49 473.21 170.26 472.4 171.3 471.82C172.34 471.24 173.55 470.95 174.93 470.95C176.45 470.95 177.76 471.33 178.86 472.09C179.96 472.83 180.68 473.96 181.02 475.48L179.85 475C180.33 473.78 181.17 472.8 182.37 472.06C183.57 471.32 184.97 470.95 186.57 470.95ZM206.856 487V466H209.856V487H206.856ZM224.213 470.95C225.513 470.95 226.653 471.2 227.633 471.7C228.633 472.2 229.413 472.96 229.973 473.98C230.533 475 230.813 476.29 230.813 477.85V487H227.933V478.18C227.933 476.64 227.553 475.48 226.793 474.7C226.053 473.92 225.003 473.53 223.643 473.53C222.623 473.53 221.733 473.73 220.973 474.13C220.213 474.53 219.623 475.12 219.203 475.9C218.803 476.68 218.603 477.65 218.603 478.81V487H215.723V471.1H218.483V475.39L218.033 474.25C218.553 473.21 219.353 472.4 220.433 471.82C221.513 471.24 222.773 470.95 224.213 470.95ZM248.79 487V468.61H241.59V466H258.96V468.61H251.76V487H248.79ZM266.977 487.18C265.377 487.18 263.957 486.83 262.717 486.13C261.477 485.43 260.497 484.47 259.777 483.25C259.057 482.01 258.697 480.61 258.697 479.05C258.697 477.47 259.057 476.07 259.777 474.85C260.497 473.63 261.477 472.68 262.717 472C263.957 471.3 265.377 470.95 266.977 470.95C268.557 470.95 269.967 471.3 271.207 472C272.467 472.68 273.447 473.63 274.147 474.85C274.867 476.05 275.227 477.45 275.227 479.05C275.227 480.63 274.867 482.03 274.147 483.25C273.447 484.47 272.467 485.43 271.207 486.13C269.967 486.83 268.557 487.18 266.977 487.18ZM266.977 484.66C267.997 484.66 268.907 484.43 269.707 483.97C270.527 483.51 271.167 482.86 271.627 482.02C272.087 481.16 272.317 480.17 272.317 479.05C272.317 477.91 272.087 476.93 271.627 476.11C271.167 475.27 270.527 474.62 269.707 474.16C268.907 473.7 267.997 473.47 266.977 473.47C265.957 473.47 265.047 473.7 264.247 474.16C263.447 474.62 262.807 475.27 262.327 476.11C261.847 476.93 261.607 477.91 261.607 479.05C261.607 480.17 261.847 481.16 262.327 482.02C262.807 482.86 263.447 483.51 264.247 483.97C265.047 484.43 265.957 484.66 266.977 484.66ZM285.899 487.18C284.539 487.18 283.339 486.93 282.299 486.43C281.279 485.93 280.479 485.17 279.899 484.15C279.339 483.11 279.059 481.81 279.059 480.25V471.1H281.939V479.92C281.939 481.48 282.309 482.65 283.049 483.43C283.809 484.21 284.869 484.6 286.229 484.6C287.229 484.6 288.099 484.4 288.839 484C289.579 483.58 290.149 482.98 290.549 482.2C290.949 481.4 291.149 480.44 291.149 479.32V471.1H294.029V487H291.299V482.71L291.749 483.85C291.229 484.91 290.449 485.73 289.409 486.31C288.369 486.89 287.199 487.18 285.899 487.18ZM306.442 487.18C304.822 487.18 303.372 486.83 302.092 486.13C300.832 485.43 299.842 484.47 299.122 483.25C298.402 482.03 298.042 480.63 298.042 479.05C298.042 477.47 298.402 476.07 299.122 474.85C299.842 473.63 300.832 472.68 302.092 472C303.372 471.3 304.822 470.95 306.442 470.95C307.882 470.95 309.162 471.24 310.282 471.82C311.422 472.38 312.302 473.22 312.922 474.34L310.732 475.75C310.212 474.97 309.572 474.4 308.812 474.04C308.072 473.66 307.272 473.47 306.412 473.47C305.372 473.47 304.442 473.7 303.622 474.16C302.802 474.62 302.152 475.27 301.672 476.11C301.192 476.93 300.952 477.91 300.952 479.05C300.952 480.19 301.192 481.18 301.672 482.02C302.152 482.86 302.802 483.51 303.622 483.97C304.442 484.43 305.372 484.66 306.412 484.66C307.272 484.66 308.072 484.48 308.812 484.12C309.572 483.74 310.212 483.16 310.732 482.38L312.922 483.76C312.302 484.86 311.422 485.71 310.282 486.31C309.162 486.89 307.882 487.18 306.442 487.18ZM324.936 470.95C326.236 470.95 327.376 471.2 328.356 471.7C329.356 472.2 330.136 472.96 330.696 473.98C331.256 475 331.536 476.29 331.536 477.85V487H328.656V478.18C328.656 476.64 328.276 475.48 327.516 474.7C326.776 473.92 325.726 473.53 324.366 473.53C323.346 473.53 322.456 473.73 321.696 474.13C320.936 474.53 320.346 475.12 319.926 475.9C319.526 476.68 319.326 477.65 319.326 478.81V487H316.446V464.74H319.326V475.39L318.756 474.25C319.276 473.21 320.076 472.4 321.156 471.82C322.236 471.24 323.496 470.95 324.936 470.95ZM350.172 487L343.152 466H346.242L352.692 485.38H351.132L357.822 466H360.582L367.122 485.38H365.622L372.162 466H375.012L367.992 487H364.842L358.722 469.03H359.532L353.382 487H350.172ZM378.262 487V471.1H381.142V487H378.262ZM379.702 468.04C379.142 468.04 378.672 467.86 378.292 467.5C377.932 467.14 377.752 466.7 377.752 466.18C377.752 465.64 377.932 465.19 378.292 464.83C378.672 464.47 379.142 464.29 379.702 464.29C380.262 464.29 380.722 464.47 381.082 464.83C381.462 465.17 381.652 465.6 381.652 466.12C381.652 466.66 381.472 467.12 381.112 467.5C380.752 467.86 380.282 468.04 379.702 468.04ZM392.101 487.18C390.501 487.18 389.261 486.75 388.381 485.89C387.501 485.03 387.061 483.8 387.061 482.2V467.62H389.941V482.08C389.941 482.94 390.151 483.6 390.571 484.06C391.011 484.52 391.631 484.75 392.431 484.75C393.331 484.75 394.081 484.5 394.681 484L395.581 486.07C395.141 486.45 394.611 486.73 393.991 486.91C393.391 487.09 392.761 487.18 392.101 487.18ZM384.361 473.47V471.1H394.501V473.47H384.361ZM407.553 470.95C408.853 470.95 409.993 471.2 410.973 471.7C411.973 472.2 412.753 472.96 413.313 473.98C413.873 475 414.153 476.29 414.153 477.85V487H411.273V478.18C411.273 476.64 410.893 475.48 410.133 474.7C409.393 473.92 408.343 473.53 406.983 473.53C405.963 473.53 405.073 473.73 404.313 474.13C403.553 474.53 402.963 475.12 402.543 475.9C402.143 476.68 401.943 477.65 401.943 478.81V487H399.063V464.74H401.943V475.39L401.373 474.25C401.893 473.21 402.693 472.4 403.773 471.82C404.853 471.24 406.113 470.95 407.553 470.95ZM432.13 487V468.61H424.93V466H442.3V468.61H435.1V487H432.13ZM453.637 470.95C454.937 470.95 456.077 471.2 457.057 471.7C458.057 472.2 458.837 472.96 459.397 473.98C459.957 475 460.237 476.29 460.237 477.85V487H457.357V478.18C457.357 476.64 456.977 475.48 456.217 474.7C455.477 473.92 454.427 473.53 453.067 473.53C452.047 473.53 451.157 473.73 450.397 474.13C449.637 474.53 449.047 475.12 448.627 475.9C448.227 476.68 448.027 477.65 448.027 478.81V487H445.147V464.74H448.027V475.39L447.457 474.25C447.977 473.21 448.777 472.4 449.857 471.82C450.937 471.24 452.197 470.95 453.637 470.95ZM472.647 487.18C470.947 487.18 469.447 486.83 468.147 486.13C466.867 485.43 465.867 484.47 465.147 483.25C464.447 482.03 464.097 480.63 464.097 479.05C464.097 477.47 464.437 476.07 465.117 474.85C465.817 473.63 466.767 472.68 467.967 472C469.187 471.3 470.557 470.95 472.077 470.95C473.617 470.95 474.977 471.29 476.157 471.97C477.337 472.65 478.257 473.61 478.917 474.85C479.597 476.07 479.937 477.5 479.937 479.14C479.937 479.26 479.927 479.4 479.907 479.56C479.907 479.72 479.897 479.87 479.877 480.01H466.347V477.94H478.377L477.207 478.66C477.227 477.64 477.017 476.73 476.577 475.93C476.137 475.13 475.527 474.51 474.747 474.07C473.987 473.61 473.097 473.38 472.077 473.38C471.077 473.38 470.187 473.61 469.407 474.07C468.627 474.51 468.017 475.14 467.577 475.96C467.137 476.76 466.917 477.68 466.917 478.72V479.2C466.917 480.26 467.157 481.21 467.637 482.05C468.137 482.87 468.827 483.51 469.707 483.97C470.587 484.43 471.597 484.66 472.737 484.66C473.677 484.66 474.527 484.5 475.287 484.18C476.067 483.86 476.747 483.38 477.327 482.74L478.917 484.6C478.197 485.44 477.297 486.08 476.217 486.52C475.157 486.96 473.967 487.18 472.647 487.18ZM224.932 528V507H233.122C234.962 507 236.532 507.29 237.832 507.87C239.132 508.45 240.132 509.29 240.832 510.39C241.532 511.49 241.882 512.8 241.882 514.32C241.882 515.84 241.532 517.15 240.832 518.25C240.132 519.33 239.132 520.17 237.832 520.77C236.532 521.35 234.962 521.64 233.122 521.64H226.582L227.932 520.23V528H224.932ZM227.932 520.53L226.582 519.03H233.032C234.952 519.03 236.402 518.62 237.382 517.8C238.382 516.98 238.882 515.82 238.882 514.32C238.882 512.82 238.382 511.66 237.382 510.84C236.402 510.02 234.952 509.61 233.032 509.61H226.582L227.932 508.11V520.53ZM252.891 528.18C251.191 528.18 249.691 527.83 248.391 527.13C247.111 526.43 246.111 525.47 245.391 524.25C244.691 523.03 244.341 521.63 244.341 520.05C244.341 518.47 244.681 517.07 245.361 515.85C246.061 514.63 247.011 513.68 248.211 513C249.431 512.3 250.801 511.95 252.321 511.95C253.861 511.95 255.221 512.29 256.401 512.97C257.581 513.65 258.501 514.61 259.161 515.85C259.841 517.07 260.181 518.5 260.181 520.14C260.181 520.26 260.171 520.4 260.151 520.56C260.151 520.72 260.141 520.87 260.121 521.01H246.591V518.94H258.621L257.451 519.66C257.471 518.64 257.261 517.73 256.821 516.93C256.381 516.13 255.771 515.51 254.991 515.07C254.231 514.61 253.341 514.38 252.321 514.38C251.321 514.38 250.431 514.61 249.651 515.07C248.871 515.51 248.261 516.14 247.821 516.96C247.381 517.76 247.161 518.68 247.161 519.72V520.2C247.161 521.26 247.401 522.21 247.881 523.05C248.381 523.87 249.071 524.51 249.951 524.97C250.831 525.43 251.841 525.66 252.981 525.66C253.921 525.66 254.771 525.5 255.531 525.18C256.311 524.86 256.991 524.38 257.571 523.74L259.161 525.6C258.441 526.44 257.541 527.08 256.461 527.52C255.401 527.96 254.211 528.18 252.891 528.18ZM264.18 528V512.1H266.94V516.42L266.67 515.34C267.11 514.24 267.85 513.4 268.89 512.82C269.93 512.24 271.21 511.95 272.73 511.95V514.74C272.61 514.72 272.49 514.71 272.37 514.71C272.27 514.71 272.17 514.71 272.07 514.71C270.53 514.71 269.31 515.17 268.41 516.09C267.51 517.01 267.06 518.34 267.06 520.08V528H264.18ZM281.016 528.18C279.696 528.18 278.436 528 277.236 527.64C276.056 527.28 275.126 526.84 274.446 526.32L275.646 524.04C276.326 524.5 277.166 524.89 278.166 525.21C279.166 525.53 280.186 525.69 281.226 525.69C282.566 525.69 283.526 525.5 284.106 525.12C284.706 524.74 285.006 524.21 285.006 523.53C285.006 523.03 284.826 522.64 284.466 522.36C284.106 522.08 283.626 521.87 283.026 521.73C282.446 521.59 281.796 521.47 281.076 521.37C280.356 521.25 279.636 521.11 278.916 520.95C278.196 520.77 277.536 520.53 276.936 520.23C276.336 519.91 275.856 519.48 275.496 518.94C275.136 518.38 274.956 517.64 274.956 516.72C274.956 515.76 275.226 514.92 275.766 514.2C276.306 513.48 277.066 512.93 278.046 512.55C279.046 512.15 280.226 511.95 281.586 511.95C282.626 511.95 283.676 512.08 284.736 512.34C285.816 512.58 286.696 512.93 287.376 513.39L286.146 515.67C285.426 515.19 284.676 514.86 283.896 514.68C283.116 514.5 282.336 514.41 281.556 514.41C280.296 514.41 279.356 514.62 278.736 515.04C278.116 515.44 277.806 515.96 277.806 516.6C277.806 517.14 277.986 517.56 278.346 517.86C278.726 518.14 279.206 518.36 279.786 518.52C280.386 518.68 281.046 518.82 281.766 518.94C282.486 519.04 283.206 519.18 283.926 519.36C284.646 519.52 285.296 519.75 285.876 520.05C286.476 520.35 286.956 520.77 287.316 521.31C287.696 521.85 287.886 522.57 287.886 523.47C287.886 524.43 287.606 525.26 287.046 525.96C286.486 526.66 285.696 527.21 284.676 527.61C283.656 527.99 282.436 528.18 281.016 528.18ZM298.295 528.18C296.695 528.18 295.275 527.83 294.035 527.13C292.795 526.43 291.815 525.47 291.095 524.25C290.375 523.01 290.015 521.61 290.015 520.05C290.015 518.47 290.375 517.07 291.095 515.85C291.815 514.63 292.795 513.68 294.035 513C295.275 512.3 296.695 511.95 298.295 511.95C299.875 511.95 301.285 512.3 302.525 513C303.785 513.68 304.765 514.63 305.465 515.85C306.185 517.05 306.545 518.45 306.545 520.05C306.545 521.63 306.185 523.03 305.465 524.25C304.765 525.47 303.785 526.43 302.525 527.13C301.285 527.83 299.875 528.18 298.295 528.18ZM298.295 525.66C299.315 525.66 300.225 525.43 301.025 524.97C301.845 524.51 302.485 523.86 302.945 523.02C303.405 522.16 303.635 521.17 303.635 520.05C303.635 518.91 303.405 517.93 302.945 517.11C302.485 516.27 301.845 515.62 301.025 515.16C300.225 514.7 299.315 514.47 298.295 514.47C297.275 514.47 296.365 514.7 295.565 515.16C294.765 515.62 294.125 516.27 293.645 517.11C293.165 517.93 292.925 518.91 292.925 520.05C292.925 521.17 293.165 522.16 293.645 523.02C294.125 523.86 294.765 524.51 295.565 524.97C296.365 525.43 297.275 525.66 298.295 525.66ZM319.018 511.95C320.318 511.95 321.458 512.2 322.438 512.7C323.438 513.2 324.218 513.96 324.778 514.98C325.338 516 325.618 517.29 325.618 518.85V528H322.738V519.18C322.738 517.64 322.358 516.48 321.598 515.7C320.858 514.92 319.808 514.53 318.448 514.53C317.428 514.53 316.538 514.73 315.778 515.13C315.018 515.53 314.428 516.12 314.008 516.9C313.608 517.68 313.408 518.65 313.408 519.81V528H310.528V512.1H313.288V516.39L312.838 515.25C313.358 514.21 314.158 513.4 315.238 512.82C316.318 512.24 317.578 511.95 319.018 511.95Z" fill="white"/>
<circle cx="550.5" cy="37.5" r="37.5" fill="white"/>
<path d="M548.97 55.04C546.78 55.04 544.605 54.755 542.445 54.185C540.285 53.585 538.455 52.745 536.955 51.665L539.79 46.085C540.99 46.955 542.385 47.645 543.975 48.155C545.565 48.665 547.17 48.92 548.79 48.92C550.62 48.92 552.06 48.56 553.11 47.84C554.16 47.12 554.685 46.13 554.685 44.87C554.685 43.67 554.22 42.725 553.29 42.035C552.36 41.345 550.86 41 548.79 41H545.46V36.185L554.235 26.24L555.045 28.85H538.53V23H560.58V27.725L551.85 37.67L548.16 35.555H550.275C554.145 35.555 557.07 36.425 559.05 38.165C561.03 39.905 562.02 42.14 562.02 44.87C562.02 46.64 561.555 48.305 560.625 49.865C559.695 51.395 558.27 52.64 556.35 53.6C554.43 54.56 551.97 55.04 548.97 55.04Z" fill="#6184F4"/>
</svg>
