<svg width="550" height="599" viewBox="0 0 550 599" fill="none" xmlns="http://www.w3.org/2000/svg">
<rect y="49" width="550" height="550" rx="30" fill="#809CF6"/>
<g clip-path="url(#clip0_173_4450)">
<path d="M133.348 318.5C133.348 318.5 88.5478 315 73.6478 265C58.7478 215 87.5478 187.1 99.2478 165.9C110.948 144.7 101.848 112.6 93.8478 86.4002C85.9478 60.2002 93.1478 24.2002 129.848 12.4002C166.548 0.700195 184.848 26.5002 209.348 24.9002C233.848 23.3002 240.848 0.700195 288.748 0.700195C336.648 0.700195 344.448 26.4002 367.048 27.2002C389.648 28.0002 410.548 3.7002 440.848 21.7002C471.148 39.7002 466.348 79.4002 461.748 101.9C456.048 129.8 449.648 145.9 460.948 169.7C470.248 189.4 481.948 209.9 480.548 234.2C478.848 263.7 454.848 309.3 423.548 314.4C392.048 319.4 133.348 318.5 133.348 318.5Z" fill="#6184F4"/>
<path d="M137.648 289.6H408.748C413.048 289.6 416.548 286.1 416.548 281.8V109.7C416.548 105.4 413.048 101.9 408.748 101.9H137.648C133.348 101.9 129.848 105.4 129.848 109.7V281.8C129.848 286.1 133.348 289.6 137.648 289.6ZM131.648 109.7C131.648 106.4 134.348 103.7 137.648 103.7H408.748C412.048 103.7 414.748 106.4 414.748 109.7V281.8C414.748 285.1 412.048 287.8 408.748 287.8H137.648C134.348 287.8 131.648 285.1 131.648 281.8V109.7Z" fill="#77C3ED"/>
<path d="M121.949 290.9V100.6C121.949 97 124.949 94 128.549 94H417.949C421.549 94 424.549 97 424.549 100.6V290.9C424.549 294.5 421.549 297.5 417.949 297.5H128.449C124.849 297.5 121.949 294.5 121.949 290.9ZM438.449 366.7C434.449 369.6 430.449 370.2 430.049 370.2H130.749C115.449 370.2 104.249 366.9 98.1491 360.7C95.4491 357.9 94.2491 355 93.8491 353.1C96.7491 355.2 102.949 356.1 114.249 356.1H437.049C437.349 356.1 443.449 355.6 446.949 352.3C445.749 358.6 442.849 363.5 438.449 366.7ZM447.749 346.7C447.649 347.7 447.449 348.6 446.949 349.4C444.549 353.5 437.449 354.2 437.049 354.2H114.249C105.749 354.2 95.7491 353.8 93.8491 350.5C93.1491 349.3 93.5491 347.5 94.9491 345L95.4491 344.1C117.049 308 122.949 299.7 124.449 298.3C125.649 298.9 126.949 299.3 128.349 299.3H417.749C419.049 299.3 420.249 299 421.349 298.5C424.249 303.1 440.149 329.1 446.149 341.1C447.349 343.2 447.849 345 447.749 346.7Z" fill="#6184F4"/>
<path d="M352.349 317.2C352.249 316.9 351.849 316.7 351.549 316.7C273.649 316.8 125.549 317 122.049 316.7C121.649 316.6 121.249 316.8 121.049 317.2L105.449 346.3C105.249 346.6 105.349 346.9 105.449 347.2C105.649 347.5 105.949 347.6 106.249 347.6H364.849C365.149 347.6 365.449 347.4 365.649 347.2C365.849 346.9 365.849 346.6 365.749 346.3L352.349 317.2ZM107.749 345.8L122.449 318.5C134.949 318.9 284.649 318.6 351.049 318.5L363.449 345.8H107.749Z" fill="#77C3ED"/>
<path d="M125.249 313.3H348.949C349.249 313.3 349.549 313.1 349.749 312.8C349.949 312.5 349.949 312.2 349.749 311.9L344.649 303C344.449 302.7 344.149 302.5 343.849 302.5H130.749C130.449 302.5 130.149 302.7 129.949 302.9L124.449 311.8C124.249 312.1 124.249 312.4 124.449 312.7C124.549 313.1 124.949 313.3 125.249 313.3ZM131.249 304.4H343.249L347.249 311.5H126.849L131.249 304.4Z" fill="#77C3ED"/>
<path d="M420.349 315.8C420.149 315.5 419.849 315.4 419.549 315.4L359.249 316.1C358.949 316.1 358.649 316.3 358.449 316.5C358.249 316.8 358.249 317.1 358.449 317.4L373.549 347.1C373.749 347.4 374.049 347.6 374.349 347.6H439.849C440.149 347.6 440.449 347.4 440.649 347.1C440.849 346.8 440.749 346.4 440.649 346.2L420.349 315.8ZM374.949 345.8L360.749 317.9L419.149 317.2L438.249 345.8H374.949V345.8Z" fill="#77C3ED"/>
<path d="M356.148 311.9C356.348 312.2 356.648 312.4 356.948 312.4H417.648C417.948 312.4 418.248 312.2 418.448 311.9C418.648 311.6 418.548 311.3 418.448 311L413.348 303C413.148 302.7 412.848 302.6 412.548 302.6H352.548C352.248 302.6 351.948 302.8 351.748 303C351.548 303.3 351.548 303.6 351.748 303.9L356.148 311.9ZM412.048 304.4L415.948 310.6H357.448L354.048 304.4H412.048Z" fill="#77C3ED"/>
<path d="M137.648 289.6H408.748C413.048 289.6 416.548 286.1 416.548 281.8V109.7C416.548 105.4 413.048 101.9 408.748 101.9H137.648C133.348 101.9 129.848 105.4 129.848 109.7V281.8C129.848 286.1 133.348 289.6 137.648 289.6ZM131.648 109.7C131.648 106.4 134.348 103.7 137.648 103.7H408.748C412.048 103.7 414.748 106.4 414.748 109.7V281.8C414.748 285.1 412.048 287.8 408.748 287.8H137.648C134.348 287.8 131.648 285.1 131.648 281.8V109.7Z" fill="white"/>
<path d="M447.949 340.2C441.949 328.1 425.949 302.2 423.049 297.5C425.049 296 426.349 293.6 426.349 290.9V100.6C426.349 96.0002 422.549 92.2002 417.949 92.2002H128.449C123.849 92.2002 120.049 96.0002 120.049 100.6V290.9C120.049 293.5 121.249 295.8 123.049 297.3C120.849 299.7 114.649 308.7 93.9486 343.2L93.4486 344.1C91.8486 346.8 91.3486 348.9 91.9486 350.7H91.7486C91.7486 350.9 91.5486 356.5 96.8486 362C103.349 368.7 114.749 372.1 130.749 372.1H430.049C430.249 372.1 447.849 370.3 449.449 347.5C449.449 347.3 449.449 347.1 449.549 346.9C449.649 344.8 449.049 342.6 447.949 340.2ZM121.949 290.9V100.6C121.949 97.0002 124.949 94.0002 128.549 94.0002H417.949C421.549 94.0002 424.549 97.0002 424.549 100.6V290.9C424.549 294.5 421.549 297.5 417.949 297.5H128.449C124.849 297.5 121.949 294.5 121.949 290.9ZM438.449 366.7C434.449 369.6 430.449 370.2 430.049 370.2H130.749C115.449 370.2 104.249 366.9 98.1486 360.7C95.4486 357.9 94.2486 355 93.8486 353.1C96.7486 355.2 102.949 356.1 114.249 356.1H437.049C437.349 356.1 443.449 355.6 446.949 352.3C445.749 358.6 442.849 363.5 438.449 366.7ZM447.749 346.7C447.649 347.7 447.449 348.6 446.949 349.4C444.549 353.5 437.449 354.2 437.049 354.2H114.249C105.749 354.2 95.7486 353.8 93.8486 350.5C93.1486 349.3 93.5486 347.5 94.9486 345L95.4486 344.1C117.049 308 122.949 299.7 124.449 298.3C125.649 298.9 126.949 299.3 128.349 299.3H417.749C419.049 299.3 420.249 299 421.349 298.5C424.249 303.1 440.149 329.1 446.149 341.1C447.349 343.2 447.849 345 447.749 346.7Z" fill="white"/>
<path d="M418.448 311.001L413.348 303.001C413.148 302.701 412.848 302.601 412.548 302.601H352.548C352.248 302.601 351.948 302.801 351.748 303.001C351.548 303.301 351.548 303.601 351.748 303.901L356.148 311.901C356.348 312.201 356.648 312.401 356.948 312.401H417.648C417.948 312.401 418.248 312.201 418.448 311.901C418.648 311.601 418.548 311.301 418.448 311.001ZM373.148 304.401H382.348L385.448 310.601H376.548L373.148 304.401ZM375.448 310.601H366.848L363.548 304.401H372.048L375.448 310.601ZM383.548 304.401H392.048L395.348 310.601H386.648L383.548 304.401ZM393.248 304.401H401.948L406.248 310.601H396.448L393.248 304.401ZM354.048 304.401H362.348L365.648 310.601H357.448L354.048 304.401ZM407.348 310.601L403.148 304.401H412.048L415.948 310.601H407.348Z" fill="white"/>
<path d="M440.649 346.2L420.349 315.8C420.149 315.5 419.849 315.4 419.549 315.4L359.249 316.1C358.949 316.1 358.649 316.3 358.449 316.5C358.249 316.8 358.249 317.1 358.449 317.4L373.549 347.1C373.749 347.4 374.049 347.6 374.349 347.6H439.849C440.149 347.6 440.449 347.4 440.649 347.1C440.849 346.8 440.849 346.5 440.649 346.2ZM432.049 336.6H422.649L418.349 330H427.649L432.049 336.6ZM386.149 329.3L383.149 323.6H391.649L394.849 329.3H386.149ZM395.249 330L398.949 336.6H389.949L386.449 330H395.249ZM392.849 323.6H401.849L405.249 329.3H395.949L392.849 323.6ZM403.049 323.6H412.849L416.449 329.3H406.449L403.049 323.6ZM402.349 322.6L399.249 317.4L408.749 317.3L412.149 322.6H402.349ZM401.249 322.6H392.249L389.449 317.5L398.149 317.4L401.249 322.6ZM391.149 322.6H382.649L380.049 317.7L388.349 317.6L391.149 322.6ZM381.549 322.6H373.049L370.449 317.8L378.949 317.7L381.549 322.6ZM382.049 323.6L385.049 329.3H376.549L373.549 323.6H382.049ZM385.449 330L388.949 336.6H380.449L376.949 330H385.449ZM389.449 337.6L393.749 345.8H385.249L380.949 337.6H389.449ZM390.549 337.6H399.549L404.149 345.8H394.849L390.549 337.6ZM400.749 337.6H410.349L415.249 345.8H405.249L400.749 337.6ZM400.149 336.6L396.449 330H405.749L409.749 336.6H400.149ZM406.849 330H416.849L421.049 336.6H410.749L406.849 330ZM427.249 329.3H417.949L414.249 323.6H423.449L427.249 329.3ZM422.749 322.6H413.549L410.149 317.3L419.149 317.2L422.749 322.6ZM360.749 317.9L369.349 317.8L371.849 322.6H363.149L360.749 317.9ZM363.649 323.6H372.349L375.349 329.3H366.549L363.649 323.6ZM366.949 330H375.849L379.349 336.6H370.349L366.949 330ZM370.849 337.6H379.849L384.149 345.8H374.949L370.849 337.6ZM411.449 337.6H421.749L427.049 345.8H416.449L411.449 337.6ZM428.649 345.8L423.349 337.6H432.849L438.249 345.8H428.649Z" fill="white"/>
<path d="M365.649 346.3L352.349 317.2C352.249 316.9 351.849 316.7 351.549 316.7C273.649 316.8 125.549 317 122.049 316.7C121.649 316.6 121.249 316.8 121.049 317.2L105.449 346.3C105.249 346.6 105.349 346.9 105.449 347.2C105.649 347.5 105.949 347.6 106.249 347.6H351.149L351.249 347.8L351.749 347.6H364.949C365.249 347.6 365.549 347.4 365.749 347.2C365.749 346.9 365.749 346.6 365.649 346.3ZM360.049 338.3H348.749L346.349 332H357.149L360.049 338.3ZM150.949 331H139.749L141.949 324.1H153.149L150.949 331ZM154.249 324.1H165.449L163.249 331H152.049L154.249 324.1ZM150.649 332L148.549 338.3H137.349L139.449 332H150.649ZM151.649 332H162.849L160.749 338.3H149.649L151.649 332ZM163.949 332H175.149L173.049 338.3H161.849L163.949 332ZM176.149 332H187.349L185.249 338.3H174.049L176.149 332ZM188.449 332H199.649L197.549 338.3H186.349L188.449 332ZM200.649 332H211.849L209.749 338.3H198.549L200.649 332ZM300.849 331H290.949V324.1H300.249L300.849 331ZM301.249 324.1H309.949L311.249 331H301.749L301.249 324.1ZM289.949 331H277.349L278.049 324.1H289.949V331ZM276.349 331H263.449L265.049 324.1H277.049L276.349 331ZM262.449 331H251.049L252.649 324.1H263.949L262.449 331ZM250.049 331H237.949L240.049 324.1H251.649L250.049 331ZM236.949 331H225.449L227.649 324.1H238.949L236.949 331ZM224.449 331H213.249L215.449 324.1H226.649L224.449 331ZM212.149 331H200.949L203.149 324.1H214.449L212.149 331ZM212.849 332H224.049L221.949 338.3H210.749L212.849 332ZM225.149 332H236.649L234.749 338.3H223.049L225.149 332ZM237.649 332H249.749L248.249 338.3H235.749L237.649 332ZM250.849 332H262.249L260.849 338.3H249.349L250.849 332ZM263.249 332H276.249L275.549 338.3H261.849L263.249 332ZM277.249 332H289.949V338.3H276.549L277.249 332ZM290.949 332H300.949L301.449 338.3H290.949V332ZM301.949 332H311.549L312.749 338.3H302.449L301.949 332ZM312.549 332H323.049L324.649 338.3H313.849L312.549 332ZM312.349 331L311.049 324.1H321.049L322.749 331H312.349ZM322.149 324.1H331.449L333.749 331H323.849L322.149 324.1ZM332.449 324.1H342.249L344.849 331H334.749L332.449 324.1ZM332.149 323.1L330.649 318.5C333.949 318.5 337.149 318.5 340.249 318.5L341.949 323.1H332.149ZM331.149 323.1H321.849L320.749 318.5C323.749 318.5 326.749 318.5 329.649 318.5L331.149 323.1ZM320.849 323.1H310.849L309.949 318.6C313.249 318.6 316.549 318.6 319.749 318.6L320.849 323.1ZM309.849 323.1H301.249L300.849 318.6C303.549 318.6 306.349 318.6 308.949 318.6L309.849 323.1ZM300.149 323.1H290.949V318.6C293.949 318.6 296.849 318.6 299.849 318.6L300.149 323.1ZM289.949 323.1H278.149L278.649 318.6C282.449 318.6 286.249 318.6 289.949 318.6V323.1ZM277.149 323.1H265.249L266.249 318.6C270.049 318.6 273.849 318.6 277.549 318.6L277.149 323.1ZM264.249 323.1H252.949L254.049 318.6C257.749 318.6 261.549 318.6 265.249 318.6L264.249 323.1ZM251.949 323.1H240.349L241.649 318.6C245.449 318.6 249.149 318.6 252.949 318.6L251.949 323.1ZM239.349 323.1H228.049L229.449 318.7C233.149 318.7 236.849 318.7 240.649 318.7L239.349 323.1ZM226.949 323.1H215.749L217.149 318.7C220.849 318.7 224.549 318.7 228.349 318.7L226.949 323.1ZM214.749 323.1H203.549L204.949 318.7C208.649 318.7 212.349 318.7 216.149 318.7L214.749 323.1ZM202.449 323.1H191.249L192.649 318.7C196.349 318.7 200.049 318.7 203.849 318.7L202.449 323.1ZM202.149 324.1L199.949 331H188.749L190.949 324.1H202.149ZM187.649 331H176.449L178.649 324.1H189.849L187.649 331ZM175.449 331H164.249L166.449 324.1H177.649L175.449 331ZM166.849 323.1L168.249 318.7C171.849 318.7 175.549 318.7 179.449 318.7L178.049 323.1H166.849ZM165.749 323.1H154.549L155.949 318.7C159.449 318.7 163.249 318.7 167.149 318.7L165.749 323.1ZM153.549 323.1H142.349L143.849 318.6C147.249 318.6 151.049 318.6 155.049 318.6L153.549 323.1ZM141.249 323.1H130.149L131.649 318.6C134.749 318.6 138.549 318.6 142.849 318.6L141.249 323.1ZM140.949 324.1L138.749 331H127.549L129.749 324.1H140.949ZM138.449 332L136.349 338.3H125.149L127.249 332H138.449ZM136.049 339.3L133.949 345.8H122.749L124.849 339.3H136.049ZM137.049 339.3H148.249L146.149 345.8H134.949L137.049 339.3ZM149.349 339.3H160.449L158.349 345.8H147.249L149.349 339.3ZM161.549 339.3H172.749L170.649 345.8H159.449L161.549 339.3ZM173.749 339.3H184.949L182.849 345.8H171.649L173.749 339.3ZM186.049 339.3H197.249L195.149 345.8H183.949L186.049 339.3ZM198.249 339.3H209.449L207.349 345.8H196.149L198.249 339.3ZM210.549 339.3H221.749L219.649 345.8H208.449L210.549 339.3ZM222.749 339.3H234.449L232.549 345.8H220.649L222.749 339.3ZM235.549 339.3H248.149L246.649 345.8H233.749L235.549 339.3ZM249.049 339.3H260.549L259.049 345.8H247.449L249.049 339.3ZM261.649 339.3H275.449L274.749 345.8H260.149L261.649 339.3ZM276.449 339.3H289.949V345.8H275.849L276.449 339.3ZM290.949 339.3H301.549L302.049 345.8H290.849V339.3H290.949ZM302.549 339.3H312.949L314.249 345.8H303.149L302.549 339.3ZM313.949 339.3H324.749L326.349 345.8H315.149L313.949 339.3ZM325.849 339.3H336.449L338.549 345.8H327.449L325.849 339.3ZM325.649 338.3L324.049 332H334.049L336.149 338.3H325.649ZM335.049 332H345.249L347.649 338.3H337.149L335.049 332ZM356.649 331H345.949L343.349 324.1H353.449L356.649 331ZM353.049 323.1H342.949L341.249 318.5C344.649 318.5 347.849 318.5 350.949 318.5L353.049 323.1ZM191.649 318.7L190.249 323.1H179.049L180.449 318.7C184.149 318.7 187.849 318.7 191.649 318.7ZM122.349 318.5C123.649 318.5 126.449 318.6 130.449 318.6L128.949 323.1H119.849L122.349 318.5ZM119.349 324.1H128.749L126.549 331H115.649L119.349 324.1ZM115.149 332H126.149L124.049 338.3H111.749L115.149 332ZM111.149 339.3H123.749L121.649 345.8H107.749L111.149 339.3ZM339.649 345.8L337.549 339.3H348.049L350.449 345.8H339.649ZM351.449 345.8L349.049 339.3H360.449L363.349 345.8H351.449Z" fill="white"/>
<path d="M349.649 311.9L344.549 303C344.349 302.7 344.049 302.5 343.749 302.5H130.749C130.449 302.5 130.149 302.7 129.949 302.9L124.449 311.8C124.249 312.1 124.249 312.4 124.449 312.7C124.649 313 124.949 313.2 125.249 313.2H340.049L340.349 313.5L341.249 313.4L341.149 313.3H348.849C349.149 313.3 349.449 313.1 349.649 312.8C349.849 312.5 349.849 312.2 349.649 311.9ZM156.449 304.4H167.649L161.249 311.5H150.149L156.449 304.4ZM149.049 311.4H137.949L144.349 304.3H155.449L149.049 311.4ZM168.749 304.4H179.949L173.549 311.5H162.349L168.749 304.4ZM180.949 304.4H192.149L185.749 311.5H174.549L180.949 304.4ZM193.149 304.4H204.349L197.949 311.5H186.749L193.149 304.4ZM205.349 304.4H216.549L210.149 311.5H198.949L205.349 304.4ZM217.649 304.4H228.849L223.049 311.5H211.249L217.649 304.4ZM229.849 304.4H241.449L236.749 311.5H224.049L229.849 304.4ZM242.449 304.4H253.749L249.349 311.5H237.849L242.449 304.4ZM254.749 304.4H266.549L264.549 311.5H250.349L254.749 304.4ZM267.549 304.4H279.249V311.5H265.449L267.549 304.4ZM280.249 304.4H289.449L291.149 311.5H280.349V304.4H280.249ZM290.349 304.4H298.849L302.649 311.5H291.949L290.349 304.4ZM299.949 304.4H309.849L314.649 311.5H303.649L299.949 304.4ZM310.949 304.4H320.149L326.549 311.5H315.749L310.949 304.4ZM131.249 304.4H143.249L136.849 311.5H126.849L131.249 304.4ZM327.549 311.4L321.149 304.3H330.849L338.149 311.4H327.549ZM339.249 311.4L331.949 304.3H343.249L347.249 311.4H339.249Z" fill="white"/>
<path d="M165.948 143.101C165.948 143.101 145.648 154.201 154.648 171.901C154.648 171.901 149.548 172.201 147.048 177.301C144.548 182.301 151.448 188.401 151.448 188.401C151.448 188.401 140.748 194.601 142.648 206.001C144.548 217.301 156.048 224.601 164.148 220.801C164.148 220.801 171.048 236.201 185.848 234.001L229.248 198.401L223.348 168.701L178.948 138.601L165.948 143.101Z" fill="#273B6D"/>
<path d="M293.048 143.101C293.048 143.101 313.348 154.201 304.348 171.901C304.348 171.901 309.448 172.201 311.948 177.301C314.448 182.301 307.548 188.401 307.548 188.401C307.548 188.401 318.248 194.601 316.348 206.001C314.448 217.301 302.948 224.601 294.848 220.801C294.848 220.801 287.948 236.201 273.148 234.001L229.748 198.401L235.648 168.701L280.048 138.601L293.048 143.101Z" fill="#273B6D"/>
<path d="M243.448 192.001V181.301C241.848 181.901 240.148 182.301 238.348 182.601V182.501C238.348 182.501 234.148 183.201 228.648 183.201C223.248 183.101 218.948 182.501 218.948 182.501V182.601C217.148 182.301 215.448 181.901 213.848 181.301V192.001C223.348 196.001 234.848 196.701 243.448 192.001Z" fill="#D8A884"/>
<path d="M250.502 179.902C280.046 167.664 294.075 133.793 281.837 104.249C269.6 74.7056 235.729 60.6762 206.185 72.9139C176.641 85.1516 162.612 119.022 174.85 148.566C187.087 178.11 220.958 192.139 250.502 179.902Z" fill="#EDC8A9"/>
<path d="M170.746 121.201C170.746 121.201 167.446 118.401 161.746 119.101C156.046 119.801 153.046 129.101 155.946 136.901C158.946 144.701 167.946 147.101 173.646 145.201C173.546 145.301 168.946 131.001 170.746 121.201Z" fill="#D8A884"/>
<path d="M285.947 121.201C285.947 121.201 289.247 118.401 294.947 119.101C300.647 119.801 303.647 129.101 300.747 136.901C297.747 144.701 288.747 147.101 283.047 145.201C283.047 145.301 287.647 131.001 285.947 121.201Z" fill="#D8A884"/>
<path d="M198.047 124.401C198.047 127.301 195.647 129.701 192.747 129.701C189.847 129.701 187.447 127.301 187.447 124.401C187.447 121.501 189.847 119.101 192.747 119.101C195.647 119.101 198.047 121.501 198.047 124.401Z" fill="#684832"/>
<path d="M269.948 124.401C269.948 127.301 267.548 129.701 264.648 129.701C261.748 129.701 259.348 127.301 259.348 124.401C259.348 121.501 261.748 119.101 264.648 119.101C267.548 119.101 269.948 121.501 269.948 124.401Z" fill="#684832"/>
<path d="M231.047 147.501C222.447 147.501 219.247 140.201 219.147 139.901C218.947 139.401 219.147 138.901 219.647 138.701C220.147 138.501 220.647 138.701 220.847 139.201C220.947 139.501 223.747 145.701 231.047 145.701C238.447 145.701 240.947 139.501 241.047 139.201C241.247 138.701 241.747 138.501 242.247 138.701C242.747 138.901 242.947 139.401 242.747 139.901C242.747 140.001 239.647 147.501 231.047 147.501Z" fill="#C49474"/>
<path d="M229.747 135.401C228.547 135.401 227.547 134.901 226.947 134.501C226.547 134.201 226.547 133.601 226.847 133.201C227.147 132.801 227.747 132.801 228.147 133.101C228.347 133.301 230.347 134.701 233.247 131.801C234.747 130.301 234.847 128.501 234.647 127.301C234.247 124.801 232.547 122.401 230.247 121.201C229.847 121.001 229.647 120.401 229.847 120.001C230.047 119.601 230.647 119.401 231.047 119.601C233.847 121.101 235.947 124.101 236.347 127.101C236.647 129.401 236.047 131.601 234.447 133.201C232.847 134.801 231.147 135.401 229.747 135.401Z" fill="#C49474"/>
<path d="M194.247 154.3C200.432 154.3 205.447 149.286 205.447 143.1C205.447 136.915 200.432 131.9 194.247 131.9C188.061 131.9 183.047 136.915 183.047 143.1C183.047 149.286 188.061 154.3 194.247 154.3Z" fill="#D69585"/>
<path d="M266.048 154.3C272.233 154.3 277.248 149.286 277.248 143.1C277.248 136.915 272.233 131.9 266.048 131.9C259.862 131.9 254.848 136.915 254.848 143.1C254.848 149.286 259.862 154.3 266.048 154.3Z" fill="#D69585"/>
<path d="M235.947 237.601C239.247 222.001 243.147 207.401 245.147 192.401C244.047 192.201 243.447 192.101 243.447 192.101V192.001C234.747 196.701 223.347 196.001 213.947 192.101V192.201C213.947 192.201 213.447 192.201 212.447 192.501C218.447 214.901 224.447 237.301 229.447 260.101C231.547 252.501 234.047 245.001 235.947 237.601Z" fill="#77C3ED"/>
<path d="M269.948 203.001C256.248 195.501 248.348 193.201 245.148 192.501C243.148 207.501 239.248 222.101 235.948 237.701C234.048 245.101 231.548 252.601 229.448 260.101C224.448 237.301 218.448 214.901 212.448 192.501C209.348 193.201 201.448 195.501 187.548 203.101C169.048 213.201 162.748 266.201 162.748 287.801L163.848 288.801H221.448H236.048H293.748L294.848 287.801C294.748 266.101 288.448 213.101 269.948 203.001Z" fill="white"/>
<path d="M262.448 198.401L233.748 230.501L235.148 231.701L250.648 214.301L260.848 220.601L229.248 258.401L197.648 220.601L207.748 214.301L223.248 231.701L224.648 230.501L195.948 198.401L194.648 199.601L206.548 213.001L194.848 220.201L228.048 259.801V286.801H229.948V260.401L263.548 220.201L251.848 213.001L263.848 199.601L262.448 198.401Z" fill="#77C3ED"/>
<path d="M185.848 286.802H187.648C187.848 275.302 190.948 243.602 191.048 243.302L189.248 243.102C189.148 243.502 186.048 275.202 185.848 286.802Z" fill="#77C3ED"/>
<path d="M269.847 243.102L268.047 243.302C268.047 243.602 271.247 275.302 271.447 286.802H273.247C273.047 275.202 269.947 243.502 269.847 243.102Z" fill="#77C3ED"/>
<path d="M170.747 121.201C170.747 121.201 187.547 114.201 191.047 98.9006C191.047 98.9006 198.147 101.401 213.947 98.9006C229.747 96.4006 238.347 89.0006 242.747 82.6006L238.747 60.3006C238.747 60.3006 227.447 47.6006 205.347 47.1006C183.247 46.5006 168.847 63.4006 168.847 63.4006C168.847 63.4006 155.647 66.5006 150.847 78.3006C146.047 90.1006 154.647 100.301 154.647 100.301C154.647 100.301 146.847 114.601 158.947 121.101C159.047 121.201 161.747 119.201 170.747 121.201Z" fill="#273B6D"/>
<path d="M242.748 82.601C242.748 82.601 274.248 122.201 285.948 121.201C285.948 121.201 288.848 118.501 294.948 119.101C294.948 119.101 303.248 104.301 292.448 97.801C292.448 97.801 298.448 86.001 292.448 76.101C286.448 66.201 270.648 64.501 270.648 64.501C270.648 64.501 253.448 46.501 238.848 60.301L236.648 81.701L242.748 82.601Z" fill="#273B6D"/>
<path d="M268.949 252.7H265.149C265.149 252.7 261.049 199.9 243.449 192.1V188.3C243.449 188.3 266.649 193.1 268.949 252.7Z" fill="#7C7C7C"/>
<path d="M274.041 263.869C278.571 259.339 278.571 251.995 274.041 247.465C269.511 242.935 262.166 242.935 257.636 247.465C253.106 251.995 253.106 259.339 257.636 263.869C262.166 268.399 269.511 268.399 274.041 263.869Z" fill="#5E5E5E"/>
<path d="M270.65 255.7C270.65 258.4 268.45 260.6 265.75 260.6C263.05 260.6 260.85 258.4 260.85 255.7C260.85 253 263.05 250.8 265.75 250.8C268.45 250.8 270.65 253 270.65 255.7Z" fill="#7C7C7C"/>
<path d="M188.449 252.7L192.449 250.8C192.449 250.8 196.449 199.9 213.949 192V188.2C213.949 188.3 190.749 193.1 188.449 252.7Z" fill="#7C7C7C"/>
<path d="M174.449 279.4C174.449 279.4 168.949 265.9 175.949 255.7C182.949 245.6 196.249 247.4 201.149 249.7C206.049 252 214.649 263.3 209.349 278.4L205.949 277.6C205.949 277.6 208.549 263.4 205.349 258.5C202.049 253.5 193.949 250 183.249 254.5C172.549 259 178.149 278.4 178.149 278.4L174.449 279.4Z" fill="#7C7C7C"/>
<path d="M205.948 277.601C205.948 277.601 202.448 280.901 203.848 283.201C205.248 285.501 209.448 285.401 209.348 278.401L205.948 277.601Z" fill="#565656"/>
<path d="M174.449 279.4L178.149 278.3C178.149 278.3 179.949 278.7 180.849 281C181.849 283.3 180.849 285 177.649 285C174.449 285.1 174.449 279.4 174.449 279.4Z" fill="#565656"/>
<path d="M367.649 152.8C354.249 152.8 342.549 160.2 336.549 171.2C327.849 168.9 314.649 165.7 313.349 168C312.649 169.3 325.049 181.4 332.149 188.1C332.149 188.2 332.149 188.3 332.149 188.4C332.149 208 348.049 223.9 367.649 223.9C387.249 223.9 403.149 208 403.149 188.4C403.149 168.7 387.249 152.8 367.649 152.8Z" fill="#E5826E"/>
<path d="M370.449 165.9C360.749 165.3 350.949 168.4 350.949 180.3H355.749C355.749 180.3 355.149 174.8 359.049 172.1C362.949 169.4 371.649 168.7 375.649 172C379.649 175.3 379.049 182.8 376.649 184.7C374.249 186.6 369.049 189.3 366.949 190.7C364.849 192 364.049 193.2 363.849 197.1C363.649 201 363.849 203.2 363.849 203.2H368.249C368.249 203.2 368.349 197.7 368.249 196.8C368.149 195.9 368.849 192.9 373.149 191C377.449 189.1 382.449 187 382.849 181.1C383.549 175.2 380.249 166.5 370.449 165.9Z" fill="white"/>
<path d="M366.45 206.399C364.45 206.399 362.75 207.999 362.75 210.099C362.75 212.099 364.35 213.799 366.45 213.799C368.45 213.799 370.15 212.199 370.15 210.099C370.15 207.999 368.45 206.399 366.45 206.399Z" fill="white"/>
<path d="M432.649 39.9004H318.149C314.149 39.9004 310.849 43.2004 310.849 47.2004V127.5L307.549 150.3L341.049 136.6H432.649C436.649 136.6 439.949 133.3 439.949 129.3V47.1004C439.949 43.2004 436.649 39.9004 432.649 39.9004Z" fill="#FFE164"/>
<path d="M424.748 54.2004H326.348C325.948 54.2004 325.648 53.8004 325.648 53.3004C325.648 52.8004 325.948 52.4004 326.348 52.4004H424.748C425.148 52.4004 425.448 52.8004 425.448 53.3004C425.448 53.8004 425.048 54.2004 424.748 54.2004Z" fill="white"/>
<path d="M424.748 62.7004H326.348C325.948 62.7004 325.648 62.3004 325.648 61.8004C325.648 61.3004 325.948 60.9004 326.348 60.9004H424.748C425.148 60.9004 425.448 61.3004 425.448 61.8004C425.448 62.3004 425.048 62.7004 424.748 62.7004Z" fill="white"/>
<path d="M424.748 71.2004H326.348C325.948 71.2004 325.648 70.8004 325.648 70.3004C325.648 69.8004 325.948 69.4004 326.348 69.4004H424.748C425.148 69.4004 425.448 69.8004 425.448 70.3004C425.448 70.8004 425.048 71.2004 424.748 71.2004Z" fill="white"/>
<path d="M424.748 79.6008H326.348C325.948 79.6008 325.648 79.2008 325.648 78.7008C325.648 78.2008 325.948 77.8008 326.348 77.8008H424.748C425.148 77.8008 425.448 78.2008 425.448 78.7008C425.448 79.2008 425.048 79.6008 424.748 79.6008Z" fill="white"/>
<path d="M424.748 88.1008H326.348C325.948 88.1008 325.648 87.7008 325.648 87.2008C325.648 86.7008 325.948 86.3008 326.348 86.3008H424.748C425.148 86.3008 425.448 86.7008 425.448 87.2008C425.448 87.7008 425.048 88.1008 424.748 88.1008Z" fill="white"/>
<path d="M424.748 96.6008H326.348C325.948 96.6008 325.648 96.2008 325.648 95.7008C325.648 95.2008 325.948 94.8008 326.348 94.8008H424.748C425.148 94.8008 425.448 95.2008 425.448 95.7008C425.448 96.2008 425.048 96.6008 424.748 96.6008Z" fill="white"/>
<path d="M424.748 104.601H326.348C325.948 104.601 325.648 104.201 325.648 103.701C325.648 103.201 325.948 102.801 326.348 102.801H424.748C425.148 102.801 425.448 103.201 425.448 103.701C425.448 104.201 425.048 104.601 424.748 104.601Z" fill="white"/>
<path d="M424.748 113.101H326.348C325.948 113.101 325.648 112.701 325.648 112.201C325.648 111.701 325.948 111.301 326.348 111.301H424.748C425.148 111.301 425.448 111.701 425.448 112.201C425.448 112.701 425.048 113.101 424.748 113.101Z" fill="white"/>
<path d="M424.748 121.601H326.348C325.948 121.601 325.648 121.201 325.648 120.701C325.648 120.201 325.948 119.801 326.348 119.801H424.748C425.148 119.801 425.448 120.201 425.448 120.701C425.448 121.101 425.048 121.601 424.748 121.601Z" fill="white"/>
</g>
<path d="M46.8757 413V394.61H39.6757V392H57.0457V394.61H49.8457V413H46.8757ZM68.9135 413V409.64L68.7635 409.01V403.28C68.7635 402.06 68.4035 401.12 67.6835 400.46C66.9835 399.78 65.9235 399.44 64.5035 399.44C63.5635 399.44 62.6435 399.6 61.7435 399.92C60.8435 400.22 60.0835 400.63 59.4635 401.15L58.2635 398.99C59.0835 398.33 60.0635 397.83 61.2035 397.49C62.3635 397.13 63.5735 396.95 64.8335 396.95C67.0135 396.95 68.6935 397.48 69.8735 398.54C71.0535 399.6 71.6435 401.22 71.6435 403.4V413H68.9135ZM63.6935 413.18C62.5135 413.18 61.4735 412.98 60.5735 412.58C59.6935 412.18 59.0135 411.63 58.5335 410.93C58.0535 410.21 57.8135 409.4 57.8135 408.5C57.8135 407.64 58.0135 406.86 58.4135 406.16C58.8335 405.46 59.5035 404.9 60.4235 404.48C61.3635 404.06 62.6235 403.85 64.2035 403.85H69.2435V405.92H64.3235C62.8835 405.92 61.9135 406.16 61.4135 406.64C60.9135 407.12 60.6635 407.7 60.6635 408.38C60.6635 409.16 60.9735 409.79 61.5935 410.27C62.2135 410.73 63.0735 410.96 64.1735 410.96C65.2535 410.96 66.1935 410.72 66.9935 410.24C67.8135 409.76 68.4035 409.06 68.7635 408.14L69.3335 410.12C68.9535 411.06 68.2835 411.81 67.3235 412.37C66.3635 412.91 65.1535 413.18 63.6935 413.18ZM76.9732 413V390.74H79.8532V413H76.9732ZM87.6921 409.16L87.7521 405.47L96.9021 397.1H100.382L93.3621 404L91.8021 405.32L87.6921 409.16ZM85.3521 413V390.74H88.2321V413H85.3521ZM97.5021 413L91.2621 405.26L93.1221 402.95L101.042 413H97.5021ZM116.485 413V394.61H109.285V392H126.655V394.61H119.455V413H116.485ZM134.672 413.18C133.072 413.18 131.652 412.83 130.412 412.13C129.172 411.43 128.192 410.47 127.472 409.25C126.752 408.01 126.392 406.61 126.392 405.05C126.392 403.47 126.752 402.07 127.472 400.85C128.192 399.63 129.172 398.68 130.412 398C131.652 397.3 133.072 396.95 134.672 396.95C136.252 396.95 137.662 397.3 138.902 398C140.162 398.68 141.142 399.63 141.842 400.85C142.562 402.05 142.922 403.45 142.922 405.05C142.922 406.63 142.562 408.03 141.842 409.25C141.142 410.47 140.162 411.43 138.902 412.13C137.662 412.83 136.252 413.18 134.672 413.18ZM134.672 410.66C135.692 410.66 136.602 410.43 137.402 409.97C138.222 409.51 138.862 408.86 139.322 408.02C139.782 407.16 140.012 406.17 140.012 405.05C140.012 403.91 139.782 402.93 139.322 402.11C138.862 401.27 138.222 400.62 137.402 400.16C136.602 399.7 135.692 399.47 134.672 399.47C133.652 399.47 132.742 399.7 131.942 400.16C131.142 400.62 130.502 401.27 130.022 402.11C129.542 402.93 129.302 403.91 129.302 405.05C129.302 406.17 129.542 407.16 130.022 408.02C130.502 408.86 131.142 409.51 131.942 409.97C132.742 410.43 133.652 410.66 134.672 410.66ZM159.551 413V394.61H152.351V392H169.721V394.61H162.521V413H159.551ZM181.059 396.95C182.359 396.95 183.499 397.2 184.479 397.7C185.479 398.2 186.259 398.96 186.819 399.98C187.379 401 187.659 402.29 187.659 403.85V413H184.779V404.18C184.779 402.64 184.399 401.48 183.639 400.7C182.899 399.92 181.849 399.53 180.489 399.53C179.469 399.53 178.579 399.73 177.819 400.13C177.059 400.53 176.469 401.12 176.049 401.9C175.649 402.68 175.449 403.65 175.449 404.81V413H172.569V390.74H175.449V401.39L174.879 400.25C175.399 399.21 176.199 398.4 177.279 397.82C178.359 397.24 179.619 396.95 181.059 396.95ZM200.069 413.18C198.369 413.18 196.869 412.83 195.569 412.13C194.289 411.43 193.289 410.47 192.569 409.25C191.869 408.03 191.519 406.63 191.519 405.05C191.519 403.47 191.859 402.07 192.539 400.85C193.239 399.63 194.189 398.68 195.389 398C196.609 397.3 197.979 396.95 199.499 396.95C201.039 396.95 202.399 397.29 203.579 397.97C204.759 398.65 205.679 399.61 206.339 400.85C207.019 402.07 207.359 403.5 207.359 405.14C207.359 405.26 207.349 405.4 207.329 405.56C207.329 405.72 207.319 405.87 207.299 406.01H193.769V403.94H205.799L204.629 404.66C204.649 403.64 204.439 402.73 203.999 401.93C203.559 401.13 202.949 400.51 202.169 400.07C201.409 399.61 200.519 399.38 199.499 399.38C198.499 399.38 197.609 399.61 196.829 400.07C196.049 400.51 195.439 401.14 194.999 401.96C194.559 402.76 194.339 403.68 194.339 404.72V405.2C194.339 406.26 194.579 407.21 195.059 408.05C195.559 408.87 196.249 409.51 197.129 409.97C198.009 410.43 199.019 410.66 200.159 410.66C201.099 410.66 201.949 410.5 202.709 410.18C203.489 409.86 204.169 409.38 204.749 408.74L206.339 410.6C205.619 411.44 204.719 412.08 203.639 412.52C202.579 412.96 201.389 413.18 200.069 413.18ZM219.835 413V392H228.685C230.925 392 232.895 392.44 234.595 393.32C236.315 394.2 237.645 395.43 238.585 397.01C239.545 398.59 240.025 400.42 240.025 402.5C240.025 404.58 239.545 406.41 238.585 407.99C237.645 409.57 236.315 410.8 234.595 411.68C232.895 412.56 230.925 413 228.685 413H219.835ZM222.835 410.39H228.505C230.245 410.39 231.745 410.06 233.005 409.4C234.285 408.74 235.275 407.82 235.975 406.64C236.675 405.44 237.025 404.06 237.025 402.5C237.025 400.92 236.675 399.54 235.975 398.36C235.275 397.18 234.285 396.26 233.005 395.6C231.745 394.94 230.245 394.61 228.505 394.61H222.835V410.39ZM251.01 413.18C249.41 413.18 247.99 412.83 246.75 412.13C245.51 411.43 244.53 410.47 243.81 409.25C243.09 408.01 242.73 406.61 242.73 405.05C242.73 403.47 243.09 402.07 243.81 400.85C244.53 399.63 245.51 398.68 246.75 398C247.99 397.3 249.41 396.95 251.01 396.95C252.59 396.95 254 397.3 255.24 398C256.5 398.68 257.48 399.63 258.18 400.85C258.9 402.05 259.26 403.45 259.26 405.05C259.26 406.63 258.9 408.03 258.18 409.25C257.48 410.47 256.5 411.43 255.24 412.13C254 412.83 252.59 413.18 251.01 413.18ZM251.01 410.66C252.03 410.66 252.94 410.43 253.74 409.97C254.56 409.51 255.2 408.86 255.66 408.02C256.12 407.16 256.35 406.17 256.35 405.05C256.35 403.91 256.12 402.93 255.66 402.11C255.2 401.27 254.56 400.62 253.74 400.16C252.94 399.7 252.03 399.47 251.01 399.47C249.99 399.47 249.08 399.7 248.28 400.16C247.48 400.62 246.84 401.27 246.36 402.11C245.88 402.93 245.64 403.91 245.64 405.05C245.64 406.17 245.88 407.16 246.36 408.02C246.84 408.86 247.48 409.51 248.28 409.97C249.08 410.43 249.99 410.66 251.01 410.66ZM270.173 413.18C268.553 413.18 267.103 412.83 265.823 412.13C264.563 411.43 263.573 410.47 262.853 409.25C262.133 408.03 261.773 406.63 261.773 405.05C261.773 403.47 262.133 402.07 262.853 400.85C263.573 399.63 264.563 398.68 265.823 398C267.103 397.3 268.553 396.95 270.173 396.95C271.613 396.95 272.893 397.24 274.013 397.82C275.153 398.38 276.033 399.22 276.653 400.34L274.463 401.75C273.943 400.97 273.303 400.4 272.543 400.04C271.803 399.66 271.003 399.47 270.143 399.47C269.103 399.47 268.173 399.7 267.353 400.16C266.533 400.62 265.883 401.27 265.403 402.11C264.923 402.93 264.683 403.91 264.683 405.05C264.683 406.19 264.923 407.18 265.403 408.02C265.883 408.86 266.533 409.51 267.353 409.97C268.173 410.43 269.103 410.66 270.143 410.66C271.003 410.66 271.803 410.48 272.543 410.12C273.303 409.74 273.943 409.16 274.463 408.38L276.653 409.76C276.033 410.86 275.153 411.71 274.013 412.31C272.893 412.89 271.613 413.18 270.173 413.18ZM286.046 413.18C284.446 413.18 283.206 412.75 282.326 411.89C281.446 411.03 281.006 409.8 281.006 408.2V393.62H283.886V408.08C283.886 408.94 284.096 409.6 284.516 410.06C284.956 410.52 285.576 410.75 286.376 410.75C287.276 410.75 288.026 410.5 288.626 410L289.526 412.07C289.086 412.45 288.556 412.73 287.936 412.91C287.336 413.09 286.706 413.18 286.046 413.18ZM278.306 399.47V397.1H288.446V399.47H278.306ZM299.291 413.18C297.691 413.18 296.271 412.83 295.031 412.13C293.791 411.43 292.811 410.47 292.091 409.25C291.371 408.01 291.011 406.61 291.011 405.05C291.011 403.47 291.371 402.07 292.091 400.85C292.811 399.63 293.791 398.68 295.031 398C296.271 397.3 297.691 396.95 299.291 396.95C300.871 396.95 302.281 397.3 303.521 398C304.781 398.68 305.761 399.63 306.461 400.85C307.181 402.05 307.541 403.45 307.541 405.05C307.541 406.63 307.181 408.03 306.461 409.25C305.761 410.47 304.781 411.43 303.521 412.13C302.281 412.83 300.871 413.18 299.291 413.18ZM299.291 410.66C300.311 410.66 301.221 410.43 302.021 409.97C302.841 409.51 303.481 408.86 303.941 408.02C304.401 407.16 304.631 406.17 304.631 405.05C304.631 403.91 304.401 402.93 303.941 402.11C303.481 401.27 302.841 400.62 302.021 400.16C301.221 399.7 300.311 399.47 299.291 399.47C298.271 399.47 297.361 399.7 296.561 400.16C295.761 400.62 295.121 401.27 294.641 402.11C294.161 402.93 293.921 403.91 293.921 405.05C293.921 406.17 294.161 407.16 294.641 408.02C295.121 408.86 295.761 409.51 296.561 409.97C297.361 410.43 298.271 410.66 299.291 410.66ZM311.524 413V397.1H314.284V401.42L314.014 400.34C314.454 399.24 315.194 398.4 316.234 397.82C317.274 397.24 318.554 396.95 320.074 396.95V399.74C319.954 399.72 319.834 399.71 319.714 399.71C319.614 399.71 319.514 399.71 319.414 399.71C317.874 399.71 316.654 400.17 315.754 401.09C314.854 402.01 314.404 403.34 314.404 405.08V413H311.524ZM329.125 413L338.635 392H341.605L351.145 413H347.995L339.505 393.68H340.705L332.215 413H329.125ZM333.175 407.75L333.985 405.35H345.805L346.675 407.75H333.175ZM362.348 396.95C363.648 396.95 364.788 397.2 365.768 397.7C366.768 398.2 367.548 398.96 368.108 399.98C368.668 401 368.948 402.29 368.948 403.85V413H366.068V404.18C366.068 402.64 365.688 401.48 364.928 400.7C364.188 399.92 363.138 399.53 361.778 399.53C360.758 399.53 359.868 399.73 359.108 400.13C358.348 400.53 357.758 401.12 357.338 401.9C356.938 402.68 356.738 403.65 356.738 404.81V413H353.858V397.1H356.618V401.39L356.168 400.25C356.688 399.21 357.488 398.4 358.568 397.82C359.648 397.24 360.908 396.95 362.348 396.95ZM380.848 413.18C379.308 413.18 377.928 412.84 376.708 412.16C375.508 411.48 374.558 410.53 373.858 409.31C373.158 408.09 372.808 406.67 372.808 405.05C372.808 403.43 373.158 402.02 373.858 400.82C374.558 399.6 375.508 398.65 376.708 397.97C377.928 397.29 379.308 396.95 380.848 396.95C382.188 396.95 383.398 397.25 384.478 397.85C385.558 398.45 386.418 399.35 387.058 400.55C387.718 401.75 388.048 403.25 388.048 405.05C388.048 406.85 387.728 408.35 387.088 409.55C386.468 410.75 385.618 411.66 384.538 412.28C383.458 412.88 382.228 413.18 380.848 413.18ZM381.088 410.66C382.088 410.66 382.988 410.43 383.788 409.97C384.608 409.51 385.248 408.86 385.708 408.02C386.188 407.16 386.428 406.17 386.428 405.05C386.428 403.91 386.188 402.93 385.708 402.11C385.248 401.27 384.608 400.62 383.788 400.16C382.988 399.7 382.088 399.47 381.088 399.47C380.068 399.47 379.158 399.7 378.358 400.16C377.558 400.62 376.918 401.27 376.438 402.11C375.958 402.93 375.718 403.91 375.718 405.05C375.718 406.17 375.958 407.16 376.438 408.02C376.918 408.86 377.558 409.51 378.358 409.97C379.158 410.43 380.068 410.66 381.088 410.66ZM386.518 413V408.71L386.698 405.02L386.398 401.33V390.74H389.278V413H386.518ZM409.324 413.24C407.724 413.24 406.194 413 404.734 412.52C403.274 412.02 402.124 411.38 401.284 410.6L402.394 408.26C403.194 408.96 404.214 409.54 405.454 410C406.694 410.46 407.984 410.69 409.324 410.69C410.544 410.69 411.534 410.55 412.294 410.27C413.054 409.99 413.614 409.61 413.974 409.13C414.334 408.63 414.514 408.07 414.514 407.45C414.514 406.73 414.274 406.15 413.794 405.71C413.334 405.27 412.724 404.92 411.964 404.66C411.224 404.38 410.404 404.14 409.504 403.94C408.604 403.74 407.694 403.51 406.774 403.25C405.874 402.97 405.044 402.62 404.284 402.2C403.544 401.78 402.944 401.22 402.484 400.52C402.024 399.8 401.794 398.88 401.794 397.76C401.794 396.68 402.074 395.69 402.634 394.79C403.214 393.87 404.094 393.14 405.274 392.6C406.474 392.04 407.994 391.76 409.834 391.76C411.054 391.76 412.264 391.92 413.464 392.24C414.664 392.56 415.704 393.02 416.584 393.62L415.594 396.02C414.694 395.42 413.744 394.99 412.744 394.73C411.744 394.45 410.774 394.31 409.834 394.31C408.654 394.31 407.684 394.46 406.924 394.76C406.164 395.06 405.604 395.46 405.244 395.96C404.904 396.46 404.734 397.02 404.734 397.64C404.734 398.38 404.964 398.97 405.424 399.41C405.904 399.85 406.514 400.2 407.254 400.46C408.014 400.72 408.844 400.96 409.744 401.18C410.644 401.38 411.544 401.61 412.444 401.87C413.364 402.13 414.194 402.47 414.934 402.89C415.694 403.31 416.304 403.87 416.764 404.57C417.224 405.27 417.454 406.17 417.454 407.27C417.454 408.33 417.164 409.32 416.584 410.24C416.004 411.14 415.104 411.87 413.884 412.43C412.684 412.97 411.164 413.24 409.324 413.24ZM429.847 413.18C428.527 413.18 427.317 412.88 426.217 412.28C425.137 411.66 424.267 410.75 423.607 409.55C422.967 408.35 422.647 406.85 422.647 405.05C422.647 403.25 422.957 401.75 423.577 400.55C424.217 399.35 425.077 398.45 426.157 397.85C427.257 397.25 428.487 396.95 429.847 396.95C431.407 396.95 432.787 397.29 433.987 397.97C435.187 398.65 436.137 399.6 436.837 400.82C437.537 402.02 437.887 403.43 437.887 405.05C437.887 406.67 437.537 408.09 436.837 409.31C436.137 410.53 435.187 411.48 433.987 412.16C432.787 412.84 431.407 413.18 429.847 413.18ZM421.417 418.82V397.1H424.177V401.39L423.997 405.08L424.297 408.77V418.82H421.417ZM429.607 410.66C430.627 410.66 431.537 410.43 432.337 409.97C433.157 409.51 433.797 408.86 434.257 408.02C434.737 407.16 434.977 406.17 434.977 405.05C434.977 403.91 434.737 402.93 434.257 402.11C433.797 401.27 433.157 400.62 432.337 400.16C431.537 399.7 430.627 399.47 429.607 399.47C428.607 399.47 427.697 399.7 426.877 400.16C426.077 400.62 425.437 401.27 424.957 402.11C424.497 402.93 424.267 403.91 424.267 405.05C424.267 406.17 424.497 407.16 424.957 408.02C425.437 408.86 426.077 409.51 426.877 409.97C427.697 410.43 428.607 410.66 429.607 410.66ZM448.946 413.18C447.246 413.18 445.746 412.83 444.446 412.13C443.166 411.43 442.166 410.47 441.446 409.25C440.746 408.03 440.396 406.63 440.396 405.05C440.396 403.47 440.736 402.07 441.416 400.85C442.116 399.63 443.066 398.68 444.266 398C445.486 397.3 446.856 396.95 448.376 396.95C449.916 396.95 451.276 397.29 452.456 397.97C453.636 398.65 454.556 399.61 455.216 400.85C455.896 402.07 456.236 403.5 456.236 405.14C456.236 405.26 456.226 405.4 456.206 405.56C456.206 405.72 456.196 405.87 456.176 406.01H442.646V403.94H454.676L453.506 404.66C453.526 403.64 453.316 402.73 452.876 401.93C452.436 401.13 451.826 400.51 451.046 400.07C450.286 399.61 449.396 399.38 448.376 399.38C447.376 399.38 446.486 399.61 445.706 400.07C444.926 400.51 444.316 401.14 443.876 401.96C443.436 402.76 443.216 403.68 443.216 404.72V405.2C443.216 406.26 443.456 407.21 443.936 408.05C444.436 408.87 445.126 409.51 446.006 409.97C446.886 410.43 447.896 410.66 449.036 410.66C449.976 410.66 450.826 410.5 451.586 410.18C452.366 409.86 453.046 409.38 453.626 408.74L455.216 410.6C454.496 411.44 453.596 412.08 452.516 412.52C451.456 412.96 450.266 413.18 448.946 413.18ZM467.165 413.18C465.545 413.18 464.095 412.83 462.815 412.13C461.555 411.43 460.565 410.47 459.845 409.25C459.125 408.03 458.765 406.63 458.765 405.05C458.765 403.47 459.125 402.07 459.845 400.85C460.565 399.63 461.555 398.68 462.815 398C464.095 397.3 465.545 396.95 467.165 396.95C468.605 396.95 469.885 397.24 471.005 397.82C472.145 398.38 473.025 399.22 473.645 400.34L471.455 401.75C470.935 400.97 470.295 400.4 469.535 400.04C468.795 399.66 467.995 399.47 467.135 399.47C466.095 399.47 465.165 399.7 464.345 400.16C463.525 400.62 462.875 401.27 462.395 402.11C461.915 402.93 461.675 403.91 461.675 405.05C461.675 406.19 461.915 407.18 462.395 408.02C462.875 408.86 463.525 409.51 464.345 409.97C465.165 410.43 466.095 410.66 467.135 410.66C467.995 410.66 468.795 410.48 469.535 410.12C470.295 409.74 470.935 409.16 471.455 408.38L473.645 409.76C473.025 410.86 472.145 411.71 471.005 412.31C469.885 412.89 468.605 413.18 467.165 413.18ZM477.168 413V397.1H480.048V413H477.168ZM478.608 394.04C478.048 394.04 477.578 393.86 477.198 393.5C476.838 393.14 476.658 392.7 476.658 392.18C476.658 391.64 476.838 391.19 477.198 390.83C477.578 390.47 478.048 390.29 478.608 390.29C479.168 390.29 479.628 390.47 479.988 390.83C480.368 391.17 480.558 391.6 480.558 392.12C480.558 392.66 480.378 393.12 480.018 393.5C479.658 393.86 479.188 394.04 478.608 394.04ZM485.967 413V395.69C485.967 394.13 486.417 392.89 487.317 391.97C488.237 391.03 489.537 390.56 491.217 390.56C491.837 390.56 492.427 390.64 492.987 390.8C493.567 390.94 494.057 391.17 494.457 391.49L493.587 393.68C493.287 393.44 492.947 393.26 492.567 393.14C492.187 393 491.787 392.93 491.367 392.93C490.527 392.93 489.887 393.17 489.447 393.65C489.007 394.11 488.787 394.8 488.787 395.72V397.85L488.847 399.17V413H485.967ZM483.267 399.47V397.1H493.407V399.47H483.267ZM497.107 419C496.347 419 495.607 418.87 494.887 418.61C494.167 418.37 493.547 418.01 493.027 417.53L494.257 415.37C494.657 415.75 495.097 416.04 495.577 416.24C496.057 416.44 496.567 416.54 497.107 416.54C497.807 416.54 498.387 416.36 498.847 416C499.307 415.64 499.737 415 500.137 414.08L501.127 411.89L501.427 411.53L507.667 397.1H510.487L502.777 414.59C502.317 415.71 501.797 416.59 501.217 417.23C500.657 417.87 500.037 418.32 499.357 418.58C498.677 418.86 497.927 419 497.107 419ZM500.887 413.51L493.627 397.1H496.627L502.807 411.26L500.887 413.51ZM167.644 433H170.644V454H167.644V433ZM155.584 454H152.584V433H155.584V454ZM167.914 444.64H155.284V442.03H167.914V444.64ZM183.589 454.18C181.889 454.18 180.389 453.83 179.089 453.13C177.809 452.43 176.809 451.47 176.089 450.25C175.389 449.03 175.039 447.63 175.039 446.05C175.039 444.47 175.379 443.07 176.059 441.85C176.759 440.63 177.709 439.68 178.909 439C180.129 438.3 181.499 437.95 183.019 437.95C184.559 437.95 185.919 438.29 187.099 438.97C188.279 439.65 189.199 440.61 189.859 441.85C190.539 443.07 190.879 444.5 190.879 446.14C190.879 446.26 190.869 446.4 190.849 446.56C190.849 446.72 190.839 446.87 190.819 447.01H177.289V444.94H189.319L188.149 445.66C188.169 444.64 187.959 443.73 187.519 442.93C187.079 442.13 186.469 441.51 185.689 441.07C184.929 440.61 184.039 440.38 183.019 440.38C182.019 440.38 181.129 440.61 180.349 441.07C179.569 441.51 178.959 442.14 178.519 442.96C178.079 443.76 177.859 444.68 177.859 445.72V446.2C177.859 447.26 178.099 448.21 178.579 449.05C179.079 449.87 179.769 450.51 180.649 450.97C181.529 451.43 182.539 451.66 183.679 451.66C184.619 451.66 185.469 451.5 186.229 451.18C187.009 450.86 187.689 450.38 188.269 449.74L189.859 451.6C189.139 452.44 188.239 453.08 187.159 453.52C186.099 453.96 184.909 454.18 183.589 454.18ZM194.878 454V438.1H197.638V442.42L197.368 441.34C197.808 440.24 198.548 439.4 199.588 438.82C200.628 438.24 201.908 437.95 203.428 437.95V440.74C203.308 440.72 203.188 440.71 203.068 440.71C202.968 440.71 202.868 440.71 202.768 440.71C201.228 440.71 200.008 441.17 199.108 442.09C198.208 443.01 197.758 444.34 197.758 446.08V454H194.878ZM202.412 457L212.312 428.74H214.922L205.022 457H202.412ZM232.009 433H235.009V454H232.009V433ZM219.949 454H216.949V433H219.949V454ZM232.279 444.64H219.649V442.03H232.279V444.64ZM240.875 454V438.1H243.755V454H240.875ZM242.315 435.04C241.755 435.04 241.285 434.86 240.905 434.5C240.545 434.14 240.365 433.7 240.365 433.18C240.365 432.64 240.545 432.19 240.905 431.83C241.285 431.47 241.755 431.29 242.315 431.29C242.875 431.29 243.335 431.47 243.695 431.83C244.075 432.17 244.265 432.6 244.265 433.12C244.265 433.66 244.085 434.12 243.725 434.5C243.365 434.86 242.895 435.04 242.315 435.04ZM253.813 454.18C252.493 454.18 251.233 454 250.033 453.64C248.853 453.28 247.923 452.84 247.243 452.32L248.443 450.04C249.123 450.5 249.963 450.89 250.963 451.21C251.963 451.53 252.983 451.69 254.023 451.69C255.363 451.69 256.323 451.5 256.903 451.12C257.503 450.74 257.803 450.21 257.803 449.53C257.803 449.03 257.623 448.64 257.263 448.36C256.903 448.08 256.423 447.87 255.823 447.73C255.243 447.59 254.593 447.47 253.873 447.37C253.153 447.25 252.433 447.11 251.713 446.95C250.993 446.77 250.333 446.53 249.733 446.23C249.133 445.91 248.653 445.48 248.293 444.94C247.933 444.38 247.753 443.64 247.753 442.72C247.753 441.76 248.023 440.92 248.563 440.2C249.103 439.48 249.863 438.93 250.843 438.55C251.843 438.15 253.023 437.95 254.383 437.95C255.423 437.95 256.473 438.08 257.533 438.34C258.613 438.58 259.493 438.93 260.173 439.39L258.943 441.67C258.223 441.19 257.473 440.86 256.693 440.68C255.913 440.5 255.133 440.41 254.353 440.41C253.093 440.41 252.153 440.62 251.533 441.04C250.913 441.44 250.603 441.96 250.603 442.6C250.603 443.14 250.783 443.56 251.143 443.86C251.523 444.14 252.003 444.36 252.583 444.52C253.183 444.68 253.843 444.82 254.563 444.94C255.283 445.04 256.003 445.18 256.723 445.36C257.443 445.52 258.093 445.75 258.673 446.05C259.273 446.35 259.753 446.77 260.113 447.31C260.493 447.85 260.683 448.57 260.683 449.47C260.683 450.43 260.403 451.26 259.843 451.96C259.283 452.66 258.493 453.21 257.473 453.61C256.453 453.99 255.233 454.18 253.813 454.18ZM272.759 454V433H280.949C282.789 433 284.359 433.29 285.659 433.87C286.959 434.45 287.959 435.29 288.659 436.39C289.359 437.49 289.709 438.8 289.709 440.32C289.709 441.84 289.359 443.15 288.659 444.25C287.959 445.33 286.959 446.17 285.659 446.77C284.359 447.35 282.789 447.64 280.949 447.64H274.409L275.759 446.23V454H272.759ZM275.759 446.53L274.409 445.03H280.859C282.779 445.03 284.229 444.62 285.209 443.8C286.209 442.98 286.709 441.82 286.709 440.32C286.709 438.82 286.209 437.66 285.209 436.84C284.229 436.02 282.779 435.61 280.859 435.61H274.409L275.759 434.11V446.53ZM293.404 454V438.1H296.164V442.42L295.894 441.34C296.334 440.24 297.074 439.4 298.114 438.82C299.154 438.24 300.434 437.95 301.954 437.95V440.74C301.834 440.72 301.714 440.71 301.594 440.71C301.494 440.71 301.394 440.71 301.294 440.71C299.754 440.71 298.534 441.17 297.634 442.09C296.734 443.01 296.284 444.34 296.284 446.08V454H293.404ZM312.167 454.18C310.567 454.18 309.147 453.83 307.907 453.13C306.667 452.43 305.687 451.47 304.967 450.25C304.247 449.01 303.887 447.61 303.887 446.05C303.887 444.47 304.247 443.07 304.967 441.85C305.687 440.63 306.667 439.68 307.907 439C309.147 438.3 310.567 437.95 312.167 437.95C313.747 437.95 315.157 438.3 316.397 439C317.657 439.68 318.637 440.63 319.337 441.85C320.057 443.05 320.417 444.45 320.417 446.05C320.417 447.63 320.057 449.03 319.337 450.25C318.637 451.47 317.657 452.43 316.397 453.13C315.157 453.83 313.747 454.18 312.167 454.18ZM312.167 451.66C313.187 451.66 314.097 451.43 314.897 450.97C315.717 450.51 316.357 449.86 316.817 449.02C317.277 448.16 317.507 447.17 317.507 446.05C317.507 444.91 317.277 443.93 316.817 443.11C316.357 442.27 315.717 441.62 314.897 441.16C314.097 440.7 313.187 440.47 312.167 440.47C311.147 440.47 310.237 440.7 309.437 441.16C308.637 441.62 307.997 442.27 307.517 443.11C307.037 443.93 306.797 444.91 306.797 446.05C306.797 447.17 307.037 448.16 307.517 449.02C307.997 449.86 308.637 450.51 309.437 450.97C310.237 451.43 311.147 451.66 312.167 451.66ZM332.83 454.18C331.47 454.18 330.24 453.88 329.14 453.28C328.06 452.66 327.2 451.75 326.56 450.55C325.94 449.35 325.63 447.85 325.63 446.05C325.63 444.25 325.95 442.75 326.59 441.55C327.25 440.35 328.12 439.45 329.2 438.85C330.3 438.25 331.51 437.95 332.83 437.95C334.39 437.95 335.77 438.29 336.97 438.97C338.17 439.65 339.12 440.6 339.82 441.82C340.52 443.02 340.87 444.43 340.87 446.05C340.87 447.67 340.52 449.09 339.82 450.31C339.12 451.53 338.17 452.48 336.97 453.16C335.77 453.84 334.39 454.18 332.83 454.18ZM324.4 454V431.74H327.28V442.33L326.98 446.02L327.16 449.71V454H324.4ZM332.59 451.66C333.61 451.66 334.52 451.43 335.32 450.97C336.14 450.51 336.78 449.86 337.24 449.02C337.72 448.16 337.96 447.17 337.96 446.05C337.96 444.91 337.72 443.93 337.24 443.11C336.78 442.27 336.14 441.62 335.32 441.16C334.52 440.7 333.61 440.47 332.59 440.47C331.59 440.47 330.68 440.7 329.86 441.16C329.06 441.62 328.42 442.27 327.94 443.11C327.48 443.93 327.25 444.91 327.25 446.05C327.25 447.17 327.48 448.16 327.94 449.02C328.42 449.86 329.06 450.51 329.86 450.97C330.68 451.43 331.59 451.66 332.59 451.66ZM344.849 454V431.74H347.729V454H344.849ZM360.308 454.18C358.608 454.18 357.108 453.83 355.808 453.13C354.528 452.43 353.528 451.47 352.808 450.25C352.108 449.03 351.758 447.63 351.758 446.05C351.758 444.47 352.098 443.07 352.778 441.85C353.478 440.63 354.428 439.68 355.628 439C356.848 438.3 358.218 437.95 359.738 437.95C361.278 437.95 362.638 438.29 363.818 438.97C364.998 439.65 365.918 440.61 366.578 441.85C367.258 443.07 367.598 444.5 367.598 446.14C367.598 446.26 367.588 446.4 367.568 446.56C367.568 446.72 367.558 446.87 367.538 447.01H354.008V444.94H366.038L364.868 445.66C364.888 444.64 364.678 443.73 364.238 442.93C363.798 442.13 363.188 441.51 362.408 441.07C361.648 440.61 360.758 440.38 359.738 440.38C358.738 440.38 357.848 440.61 357.068 441.07C356.288 441.51 355.678 442.14 355.238 442.96C354.798 443.76 354.578 444.68 354.578 445.72V446.2C354.578 447.26 354.818 448.21 355.298 449.05C355.798 449.87 356.488 450.51 357.368 450.97C358.248 451.43 359.258 451.66 360.398 451.66C361.338 451.66 362.188 451.5 362.948 451.18C363.728 450.86 364.408 450.38 364.988 449.74L366.578 451.6C365.858 452.44 364.958 453.08 363.878 453.52C362.818 453.96 361.628 454.18 360.308 454.18ZM391.487 437.95C392.767 437.95 393.897 438.2 394.877 438.7C395.857 439.2 396.617 439.96 397.157 440.98C397.717 442 397.997 443.29 397.997 444.85V454H395.117V445.18C395.117 443.64 394.757 442.48 394.037 441.7C393.317 440.92 392.307 440.53 391.007 440.53C390.047 440.53 389.207 440.73 388.487 441.13C387.767 441.53 387.207 442.12 386.807 442.9C386.427 443.68 386.237 444.65 386.237 445.81V454H383.357V445.18C383.357 443.64 382.997 442.48 382.277 441.7C381.577 440.92 380.567 440.53 379.247 440.53C378.307 440.53 377.477 440.73 376.757 441.13C376.037 441.53 375.477 442.12 375.077 442.9C374.677 443.68 374.477 444.65 374.477 445.81V454H371.597V438.1H374.357V442.33L373.907 441.25C374.407 440.21 375.177 439.4 376.217 438.82C377.257 438.24 378.467 437.95 379.847 437.95C381.367 437.95 382.677 438.33 383.777 439.09C384.877 439.83 385.597 440.96 385.937 442.48L384.767 442C385.247 440.78 386.087 439.8 387.287 439.06C388.487 438.32 389.887 437.95 391.487 437.95Z" fill="white"/>
<circle cx="275" cy="511.5" r="37.5" fill="white"/>
<path d="M265.985 528.5V523.775L278.135 512.3C279.095 511.43 279.8 510.65 280.25 509.96C280.7 509.27 281 508.64 281.15 508.07C281.33 507.5 281.42 506.975 281.42 506.495C281.42 505.235 280.985 504.275 280.115 503.615C279.275 502.925 278.03 502.58 276.38 502.58C275.06 502.58 273.83 502.835 272.69 503.345C271.58 503.855 270.635 504.65 269.855 505.73L264.545 502.31C265.745 500.51 267.425 499.085 269.585 498.035C271.745 496.985 274.235 496.46 277.055 496.46C279.395 496.46 281.435 496.85 283.175 497.63C284.945 498.38 286.31 499.445 287.27 500.825C288.26 502.205 288.755 503.855 288.755 505.775C288.755 506.795 288.62 507.815 288.35 508.835C288.11 509.825 287.6 510.875 286.82 511.985C286.07 513.095 284.96 514.34 283.49 515.72L273.41 525.215L272.015 522.56H289.79V528.5H265.985Z" fill="#6184F4"/>
<defs>
<clipPath id="clip0_173_4450">
<rect width="411.1" height="371.3" fill="white" transform="translate(69.4492 0.700195)"/>
</clipPath>
</defs>
</svg>
