<svg width="358" height="378" viewBox="0 0 358 378" fill="none" xmlns="http://www.w3.org/2000/svg">
<path opacity="0.1056" d="M255.143 203.219C253.29 202.292 251.283 201.829 249.199 201.829C247.114 201.829 245.107 202.292 243.254 203.219L54.4222 312.998C51.1798 314.85 51.1798 317.938 54.4994 319.868L152.776 376.611C154.628 377.537 156.636 378 158.72 378C160.804 378 162.812 377.537 164.664 376.611L353.419 266.832C356.662 264.902 356.662 261.891 353.342 259.961L255.143 203.219Z" fill="#1D4B5B"/>
<path d="M355.428 250.62V264.362C355.582 264.285 355.659 264.208 355.737 264.13V250.389C355.659 250.466 355.582 250.543 355.428 250.62Z" fill="#1D546D"/>
<path d="M355.734 250.389V264.131C356.352 263.822 356.815 263.359 357.201 262.818C357.587 262.278 357.819 261.583 357.819 260.965V247.224C357.742 247.918 357.587 248.536 357.201 249.076C356.815 249.617 356.352 250.08 355.734 250.389Z" fill="#1D546D"/>
<path d="M53.959 300.183V313.924C53.959 314.387 54.0362 314.851 54.2678 315.237C54.4222 315.623 54.731 316.009 55.117 316.317V302.576C54.8082 302.267 54.4994 301.881 54.2678 301.495C54.0362 301.109 53.959 300.646 53.959 300.183Z" fill="#1D546D"/>
<path d="M55.0391 302.575V316.317C55.5023 316.703 55.9655 317.089 56.4287 317.398V303.656C55.8883 303.347 55.4251 303.038 55.0391 302.575Z" fill="#1D546D"/>
<path opacity="0.96" d="M257.073 187.007C255.22 186.08 253.213 185.617 251.129 185.617C249.044 185.617 247.037 186.08 245.184 187.007L56.3519 296.786C53.1095 298.639 53.1095 301.727 56.4291 303.657L154.782 360.399C156.635 361.325 158.642 361.788 160.727 361.788C162.811 361.788 164.818 361.325 166.671 360.399L355.503 250.62C358.746 248.767 358.746 245.679 355.426 243.749L257.073 187.007Z" fill="#1D546D"/>
<path d="M154.705 360.4V374.142L155.091 374.374V360.555L154.705 360.323" fill="#1D546D"/>
<path d="M155.092 360.631V374.373C158.103 375.685 161.499 375.917 164.665 374.913V361.171C161.499 362.175 158.103 362.02 155.092 360.631Z" fill="#1D546D"/>
<path d="M164.664 361.249V374.99C165.359 374.836 165.976 374.527 166.517 374.141V360.399C165.976 360.708 165.359 361.017 164.664 361.249Z" fill="#1D546D"/>
<path d="M355.426 250.62L166.593 360.399C164.741 361.326 162.733 361.789 160.649 361.789C158.565 361.789 156.557 361.326 154.705 360.399L55.7337 303.271C55.1933 302.962 54.8073 302.499 54.4213 301.959C54.1125 301.418 53.9581 300.801 53.8809 300.26V314.002C53.9581 314.62 54.1125 315.237 54.4985 315.778C54.8845 316.318 55.2705 316.781 55.8109 317.09L154.627 374.141C156.48 375.067 158.487 375.531 160.572 375.531C162.656 375.531 164.663 375.067 166.516 374.141L355.348 264.439C356.97 263.513 357.819 262.278 357.819 261.042V247.301C357.819 248.459 356.97 249.617 355.426 250.62Z" fill="#164859"/>
<path d="M232.291 198.279L78.9707 287.369L181.107 346.427L334.504 257.338L232.291 198.279Z" fill="#EDF8FF"/>
<path d="M308.026 228.463C307.563 228.232 307.022 228.077 306.482 228.077C305.942 228.077 305.401 228.232 304.938 228.463C304.784 228.54 304.629 228.695 304.475 228.849C304.398 229.004 304.32 229.235 304.32 229.39C304.32 229.621 304.398 229.776 304.475 229.93C304.552 230.084 304.706 230.239 304.938 230.316C305.401 230.548 305.942 230.702 306.482 230.702C307.022 230.702 307.563 230.548 308.026 230.316C308.952 229.776 308.952 229.004 308.026 228.463Z" fill="#173E49"/>
<path d="M287.568 217.194C287.259 217.039 286.873 216.962 286.41 216.962C285.947 216.962 285.638 217.039 285.252 217.194C284.635 217.502 284.635 218.12 285.252 218.429L298.685 226.226C298.994 226.38 299.38 226.458 299.766 226.458C300.152 226.458 300.538 226.38 300.847 226.226C301.464 225.917 301.464 225.3 300.847 224.914L287.568 217.194Z" fill="#173E49"/>
<path d="M120.274 323.266L118.499 322.262L118.19 322.802L119.965 323.806L120.274 323.266ZM120.737 323.574C120.583 323.42 120.429 323.266 120.197 323.188L120.043 323.729C120.12 323.729 120.197 323.806 120.274 323.883L120.737 323.574ZM120.892 324.192C120.892 323.96 120.815 323.729 120.66 323.574L120.197 323.883C120.274 323.96 120.274 324.038 120.274 324.192H120.892ZM120.737 324.81C120.892 324.655 120.969 324.424 120.969 324.192H120.351C120.351 324.269 120.351 324.424 120.274 324.501L120.737 324.81ZM120.197 325.196C120.429 325.118 120.583 324.964 120.737 324.81L120.274 324.501C120.197 324.578 120.12 324.655 120.043 324.655L120.197 325.196ZM118.653 326.122L120.274 325.196L119.965 324.655L118.344 325.582L118.653 326.122ZM117.186 326.508C117.649 326.508 118.19 326.354 118.576 326.199L118.267 325.659C117.881 325.813 117.495 325.968 117.109 325.968V326.508H117.186ZM115.797 326.199C116.26 326.431 116.723 326.508 117.186 326.508V325.89C116.8 325.89 116.414 325.813 116.028 325.582L115.797 326.199ZM114.021 325.118L115.797 326.199L116.105 325.659L114.33 324.578L114.021 325.118ZM113.558 324.732C113.712 324.887 113.867 325.041 114.098 325.118L114.253 324.578C114.175 324.578 114.098 324.501 114.021 324.424L113.558 324.732ZM113.326 324.115C113.326 324.346 113.403 324.578 113.558 324.732L114.021 324.424C113.944 324.346 113.944 324.269 113.944 324.115H113.326ZM113.558 323.497C113.403 323.652 113.326 323.883 113.326 324.115H113.944C113.944 324.038 113.944 323.883 114.021 323.806L113.558 323.497ZM114.021 323.111C113.789 323.188 113.635 323.343 113.481 323.497L113.944 323.806C114.021 323.729 114.098 323.652 114.175 323.652L114.021 323.111ZM115.642 322.185L114.021 323.111L114.33 323.652L115.951 322.725L115.642 322.185ZM117.032 321.876C116.569 321.876 116.028 322.03 115.642 322.262L115.951 322.802C116.337 322.648 116.723 322.494 117.109 322.494V321.876H117.032ZM118.421 322.185C117.958 321.953 117.495 321.799 117.032 321.799V322.416C117.418 322.416 117.804 322.494 118.19 322.725L118.421 322.185ZM120.12 323.497L119.965 323.729L120.12 323.497ZM120.66 324.192H120.351H120.66ZM120.12 324.964L120.043 324.655L120.12 324.964ZM118.499 325.89L118.653 326.122L118.499 325.89ZM115.951 325.89L115.797 326.122L115.951 325.89ZM114.175 324.81L114.33 324.578L114.175 324.81ZM113.635 324.115H113.944H113.635ZM114.175 323.343L114.253 323.652L114.175 323.343ZM115.719 322.494L115.565 322.262L115.719 322.494ZM118.267 322.494L118.421 322.262L118.267 322.494Z" fill="#EDF8FF"/>
<path d="M150.458 340.944L146.984 338.937L146.676 339.478L150.15 341.485L150.458 340.944ZM146.984 338.937C146.83 338.86 146.676 338.937 146.598 339.014C146.521 339.169 146.598 339.323 146.676 339.4L146.984 338.937ZM150.15 341.485C150.304 341.562 150.458 341.485 150.536 341.408C150.613 341.253 150.536 341.099 150.458 341.022L150.15 341.485Z" fill="#EDF8FF"/>
<path d="M149.225 341.794L145.751 339.787L145.442 340.327L148.916 342.334L149.225 341.794ZM145.674 339.787C145.519 339.71 145.365 339.787 145.288 339.864C145.211 340.018 145.288 340.173 145.365 340.25L145.674 339.787ZM148.916 342.334C149.071 342.412 149.225 342.334 149.302 342.257C149.379 342.103 149.302 341.948 149.225 341.871L148.916 342.334Z" fill="#EDF8FF"/>
<path d="M147.757 342.798L144.283 340.791L143.974 341.331L147.448 343.338L147.757 342.798ZM144.283 340.791C144.129 340.714 143.974 340.791 143.897 340.868C143.82 341.022 143.897 341.177 143.974 341.254L144.283 340.791ZM147.448 343.261C147.603 343.338 147.757 343.261 147.834 343.184C147.912 343.03 147.834 342.875 147.757 342.798L147.448 343.261Z" fill="#EDF8FF"/>
<path d="M89.3161 308.906H85.6877V309.524H89.3161V308.906ZM88.3897 306.281L89.0073 309.292L89.6249 309.138L89.0073 306.127L88.3897 306.281ZM85.6877 308.906C85.5333 308.906 85.3789 309.061 85.3789 309.215C85.3789 309.369 85.5333 309.524 85.6877 309.524V308.906ZM89.3161 309.215V309.524C89.3933 309.524 89.4705 309.447 89.5477 309.447C89.6249 309.369 89.6249 309.292 89.6249 309.215H89.3161ZM89.0073 306.204C89.0073 306.05 88.8529 305.973 88.6213 305.973C88.4669 305.973 88.3897 306.127 88.3897 306.359L89.0073 306.204Z" fill="#EDF8FF"/>
<path d="M319.142 266.447L334.505 257.338L232.292 198.279L217.006 207.389L319.142 266.447Z" fill="#C7E0EF"/>
<path d="M163.97 246.605L161.268 248.149L247.037 297.635L249.662 296.091L163.97 246.605Z" fill="white"/>
<path d="M153.933 252.628L151.309 254.172L237.001 303.657L239.703 302.191L153.933 252.628Z" fill="white"/>
<path d="M143.742 258.494L141.117 259.961L226.81 309.446L229.512 307.98L143.742 258.494Z" fill="white"/>
<path d="M133.785 264.517L131.16 265.983L216.853 315.469L219.555 314.002L133.785 264.517Z" fill="white"/>
<path d="M314.046 251.161C314.2 251.238 314.355 251.315 314.432 251.47C314.509 251.624 314.586 251.778 314.586 251.933C314.586 252.087 314.509 252.242 314.432 252.396C314.355 252.55 314.2 252.628 314.046 252.705L253.289 288.14C252.903 288.371 252.44 288.449 251.977 288.449C251.514 288.449 251.051 288.371 250.665 288.14L169.218 241.125C169.064 241.047 168.909 240.97 168.832 240.816C168.755 240.661 168.678 240.507 168.678 240.353C168.678 240.198 168.755 240.044 168.832 239.889C168.909 239.735 169.064 239.658 169.218 239.581L229.975 204.146C230.361 203.914 230.824 203.837 231.287 203.837C231.75 203.837 232.214 203.914 232.6 204.146L314.046 251.161Z" fill="#6184F4"/>
<path d="M184.968 314.388C189.214 316.859 189.291 320.873 185.045 323.343C180.799 325.814 173.928 325.814 169.605 323.343L118.807 294.007C114.561 291.537 114.484 287.522 118.73 285.052C122.976 282.582 129.847 282.582 134.17 285.052L184.968 314.388Z" fill="#6184F4"/>
<path d="M125.756 290.842C126.528 290.842 127.3 290.61 127.918 290.224C128.613 289.838 128.921 289.375 128.921 288.989C128.921 288.526 128.458 288.062 127.686 287.676L126.76 287.136L122.514 289.606L123.517 290.224C124.135 290.61 124.907 290.842 125.756 290.842ZM131.083 289.066C131.16 289.838 130.62 290.533 129.539 291.15C128.458 291.768 127.146 292.077 125.911 292.077C124.521 292 123.131 291.614 121.973 290.919L119.58 289.529L126.605 285.438L129.153 286.904C130.311 287.599 131.006 288.294 131.083 289.066Z" fill="white"/>
<path d="M135.945 290.842L128.92 294.934L127.299 294.008L134.401 289.916L135.945 290.842Z" fill="white"/>
<path d="M135.559 295.397L137.334 296.401L138.492 294.702L135.559 295.397ZM141.349 293.93L137.334 299.798L135.636 298.794L136.485 297.559L133.551 295.86L131.39 296.324L129.691 295.32L139.805 293.004L141.349 293.93Z" fill="white"/>
<path d="M148.684 298.022C149.147 298.254 149.456 298.485 149.765 298.871C150.073 299.257 150.228 299.643 150.305 300.107L148.298 300.338C148.298 300.029 148.143 299.721 147.989 299.489C147.757 299.257 147.526 299.026 147.294 298.871C146.677 298.485 145.905 298.331 145.133 298.331C144.361 298.331 143.589 298.485 142.894 298.871C142.199 299.257 141.89 299.721 141.89 300.107C141.89 300.338 141.967 300.57 142.122 300.801C142.276 301.033 142.431 301.187 142.662 301.265C143.203 301.573 143.743 301.805 144.361 301.882L146.291 300.724L147.912 301.651L145.441 303.117C143.975 303.195 142.585 302.809 141.35 302.114C140.887 301.959 140.578 301.651 140.269 301.265C139.96 300.879 139.806 300.493 139.729 300.029C139.729 299.257 140.192 298.485 141.273 297.945C142.431 297.327 143.666 297.019 144.978 297.019C146.291 297.096 147.526 297.405 148.684 298.022Z" fill="white"/>
<path d="M159.415 304.352L152.313 308.444L150.769 307.517L151.773 303.04L147.372 305.587L145.828 304.661L152.853 300.569L154.32 301.419L153.239 306.051L157.794 303.426L159.415 304.352Z" fill="white"/>
<path d="M160.881 311.145C161.653 311.145 162.425 310.913 163.12 310.605C163.352 310.527 163.583 310.296 163.815 310.064C163.969 309.833 164.124 309.601 164.124 309.292C164.124 308.983 164.047 308.752 163.892 308.52C163.738 308.289 163.506 308.134 163.275 307.98C162.58 307.594 161.885 307.439 161.113 307.517C160.341 307.517 159.569 307.748 158.874 308.134C158.643 308.211 158.411 308.443 158.179 308.675C158.025 308.906 157.871 309.138 157.871 309.447C157.871 309.678 157.948 309.987 158.102 310.219C158.257 310.45 158.488 310.605 158.72 310.682C159.337 310.991 160.109 311.145 160.881 311.145ZM166.208 309.292C166.208 309.755 166.054 310.219 165.745 310.605C165.436 310.991 165.127 311.299 164.664 311.454C163.583 312.071 162.271 312.38 161.036 312.38C159.723 312.38 158.488 312.071 157.33 311.454C156.867 311.299 156.558 310.991 156.249 310.605C155.941 310.219 155.786 309.755 155.709 309.292C155.709 308.829 155.863 308.366 156.172 307.98C156.404 307.594 156.79 307.285 157.253 307.131C158.334 306.513 159.646 306.204 160.881 306.204C162.194 306.204 163.429 306.513 164.587 307.131C165.05 307.285 165.359 307.594 165.668 307.98C165.977 308.366 166.131 308.829 166.208 309.292Z" fill="white"/>
<path d="M171.921 311.377C172.384 311.609 172.77 311.918 173.079 312.304C173.388 312.612 173.542 312.998 173.62 313.384L171.69 313.616C171.612 313.307 171.458 312.998 171.226 312.767C170.995 312.535 170.763 312.304 170.454 312.149C170.223 311.995 169.914 311.918 169.605 311.918C169.374 311.918 169.142 311.918 168.91 312.072C168.679 312.226 168.601 312.304 168.679 312.535C168.91 312.921 169.219 313.23 169.528 313.539C169.914 313.848 170.223 314.388 170.377 314.851C170.454 315.237 170.145 315.623 169.451 316.009C168.756 316.395 167.984 316.55 167.212 316.472C166.363 316.395 165.513 316.164 164.741 315.7C164.278 315.469 163.815 315.16 163.506 314.697C163.197 314.234 162.966 313.77 162.889 313.23L164.973 313.076C164.973 313.462 165.127 313.77 165.282 314.156C165.513 314.465 165.745 314.774 166.054 314.928C166.363 315.083 166.671 315.16 166.98 315.237C167.212 315.237 167.521 315.237 167.752 315.083C167.984 314.928 168.061 314.774 167.984 314.62C167.829 314.311 167.598 314.002 167.289 313.77C166.826 313.384 166.44 312.844 166.208 312.304C166.131 311.918 166.44 311.532 167.135 311.146C167.829 310.76 168.602 310.605 169.374 310.682C170.377 310.76 171.226 310.991 171.921 311.377Z" fill="white"/>
<path d="M177.48 314.774L170.455 318.866L168.834 317.939L175.859 313.925L177.48 314.774Z" fill="white"/>
<path d="M181.726 317.012C182.189 317.244 182.575 317.552 182.884 317.938C183.193 318.247 183.347 318.633 183.424 319.019L181.494 319.251C181.417 318.942 181.263 318.633 181.031 318.402C180.799 318.17 180.568 317.938 180.259 317.784C180.027 317.63 179.719 317.552 179.41 317.552C179.178 317.552 178.947 317.552 178.715 317.707C178.483 317.861 178.406 317.938 178.483 318.17C178.715 318.556 179.024 318.865 179.333 319.174C179.719 319.482 180.027 319.946 180.182 320.486C180.182 320.872 179.95 321.258 179.255 321.644C178.561 322.03 177.789 322.184 177.017 322.107C176.167 322.03 175.318 321.798 174.546 321.335C174.083 321.104 173.62 320.795 173.311 320.332C173.002 319.868 172.771 319.405 172.693 318.865L174.778 318.71C174.778 319.096 174.932 319.405 175.087 319.791C175.318 320.1 175.55 320.409 175.859 320.563C176.167 320.718 176.476 320.795 176.785 320.872C177.017 320.872 177.325 320.872 177.557 320.718C177.789 320.563 177.866 320.409 177.789 320.254C177.634 319.946 177.403 319.637 177.094 319.405C176.631 319.019 176.245 318.479 176.013 317.938C175.936 317.552 176.245 317.166 176.939 316.78C177.634 316.394 178.406 316.24 179.178 316.317C180.182 316.394 181.031 316.626 181.726 317.012Z" fill="white"/>
<path opacity="0.07" d="M191.452 109.111C191.452 109.111 210.521 110.733 216.234 107.645C216.234 107.645 209.517 113.512 191.066 111.968L191.452 109.111Z" fill="#010101"/>
<path d="M215.693 17.2441C221.637 18.7109 227.35 21.0269 232.754 24.0378C241.709 29.133 251.282 37.7022 252.903 51.1351C253.907 58.5463 253.444 66.112 251.745 73.3688C247.499 90.2757 235.379 103.709 215.461 108.341C201.488 111.583 186.125 110.116 174.545 101.701C162.965 93.2865 155.554 74.9128 157.947 59.2411C160.263 43.6467 166.825 35.1546 177.016 27.589C187.206 20.0233 200.716 16.5493 215.693 17.2441Z" fill="#FFB681"/>
<path d="M189.445 79.8528C189.754 81.1652 190.372 82.3232 191.298 83.1724C192.225 84.0988 193.383 84.7164 194.695 84.948C197.706 85.4112 200.253 83.4812 201.952 81.088C202.955 79.7756 189.059 78.3088 189.445 79.8528Z" fill="white"/>
<path d="M194.928 74.2178H194.85C194.156 74.1406 193.461 74.0634 192.766 73.909C192.148 73.8318 191.531 73.523 191.068 73.137C190.604 72.751 190.218 72.2106 189.987 71.593C189.755 70.821 189.678 69.5086 190.913 67.733C191.994 66.189 192.148 63.101 192.071 62.0974C192.071 61.943 192.071 61.8658 192.148 61.7114C192.226 61.557 192.226 61.4797 192.303 61.4025C192.38 61.3253 192.457 61.2481 192.612 61.1709C192.766 61.0937 192.843 61.0938 192.998 61.0938C193.229 61.0938 193.461 61.171 193.692 61.3254C193.924 61.4798 194.001 61.7113 194.001 61.9429C194.001 62.0973 194.233 66.4978 192.457 68.9682C192.226 69.1998 191.994 69.5858 191.84 69.8946C191.685 70.2034 191.685 70.5894 191.685 70.9754C191.84 71.4386 192.38 71.7474 193.152 71.979C193.692 72.1334 194.31 72.2106 194.928 72.2106C195.082 72.2106 195.159 72.2878 195.314 72.2878C195.468 72.365 195.545 72.4422 195.622 72.5194C195.7 72.5966 195.777 72.751 195.777 72.8282C195.777 72.9054 195.854 73.0598 195.854 73.2142C195.854 73.4458 195.777 73.6774 195.545 73.8318C195.391 74.0634 195.159 74.1406 194.928 74.2178Z" fill="#ED8A43"/>
<path opacity="0.32" d="M160.728 83.5592C162.117 84.254 163.661 84.5628 165.205 84.4856C170.609 84.3312 174.855 79.5448 174.701 73.7548C174.546 68.0419 169.992 63.5643 164.588 63.7187C162.58 63.7959 160.728 64.4907 159.184 65.6487" fill="#FB9A4D"/>
<path d="M174.16 62.4064C174.083 64.5681 175.164 66.2665 176.631 66.3437C178.097 66.4209 179.255 64.7225 179.333 62.5608C179.41 60.3992 178.329 58.7008 176.862 58.6236C175.395 58.5464 174.237 60.2448 174.16 62.4064Z" fill="#002019"/>
<path d="M214.459 65.5708C214.382 67.7325 215.463 69.4309 216.929 69.5081C218.319 69.5853 219.554 67.8868 219.631 65.8024C219.709 63.718 218.628 61.8652 217.161 61.8652C215.771 61.7108 214.536 63.4092 214.459 65.5708Z" fill="#002019"/>
<path opacity="0.32" d="M242.56 75.608C242.714 81.7068 238.237 86.8021 232.447 87.0337C226.657 87.2653 221.793 82.4788 221.639 76.38C221.484 70.2812 225.962 65.186 231.752 64.9544C237.465 64.7228 242.328 69.5092 242.56 75.608Z" fill="#FB9A4D"/>
<path d="M242.095 83.7899C242.867 83.9443 243.639 84.0215 244.489 84.0987C246.264 83.9443 247.885 83.1723 249.043 81.8599C250.201 80.5475 250.819 78.8491 250.819 77.1507C250.742 75.3751 250.047 73.7538 248.812 72.5186C247.577 71.2834 245.878 70.5886 244.103 70.5886C243.176 70.5886 242.018 70.2798 241.246 70.6658C241.941 73.445 242.25 76.3787 242.25 79.2351L242.095 83.7899Z" fill="#FFB681"/>
<path opacity="0.37" d="M247.501 78.6173C247.27 78.6173 247.038 78.5401 246.884 78.3857C246.729 78.2313 246.575 77.9997 246.575 77.7681C246.421 76.9961 246.112 76.2241 245.494 75.6837C244.954 75.1433 244.182 74.7573 243.41 74.6801C243.178 74.6801 242.947 74.5257 242.792 74.2941C242.638 74.0625 242.561 73.8309 242.561 73.5993C242.561 73.4449 242.638 73.3677 242.638 73.2133C242.715 73.1361 242.792 72.9817 242.869 72.9045C242.947 72.8273 243.101 72.75 243.178 72.75C243.255 72.75 243.41 72.6729 243.564 72.6729C244.799 72.8273 245.88 73.3677 246.729 74.2169C247.579 75.0661 248.196 76.1469 248.351 77.3821C248.428 77.6137 248.351 77.9225 248.196 78.1541C248.042 78.3857 247.81 78.5401 247.579 78.6173H247.501Z" fill="#ED8A43"/>
<path d="M175.086 117.604C175.086 117.604 166.903 119.997 162.425 133.661C157.562 148.638 152.698 177.974 151.077 193.723C147.989 223.908 148.915 237.573 148.915 237.573L168.602 242.977L175.086 117.604Z" fill="white"/>
<path d="M163.428 170.487C164.818 175.814 165.435 181.295 165.358 186.776C165.358 196.426 154.318 293.081 154.318 293.081C154.318 293.081 254.138 311.069 253.598 296.787C252.98 282.582 253.598 205.999 253.598 205.999C253.598 205.999 257.844 137.445 233.14 119.38C219.244 109.19 211.369 109.962 200.793 109.807C188.904 109.576 181.724 111.12 175.008 115.829C154.396 130.111 163.428 170.487 163.428 170.487Z" fill="white"/>
<path opacity="0.08" d="M181.803 286.21L188.982 185.541C188.982 185.464 188.982 185.464 189.06 185.386L221.252 147.327L215.539 139.529L224.881 138.68L230.207 117.682L232.06 118.685L227.66 140.687L219.785 141.614L224.109 148.485L189.523 185.618L184.35 287.677" fill="#070707"/>
<path opacity="0.08" d="M181.263 112.432L180.182 130.574L186.049 134.048L179.565 135.437L188.829 185.386L176.477 133.739L180.645 133.044L177.326 130.96L176.863 114.67L181.263 112.432Z" fill="#070707"/>
<path d="M223.877 114.362L189.6 181.681L189.137 110.425C189.137 110.425 216.62 112.818 223.877 114.362Z" fill="#6184F4"/>
<path d="M188.982 110.888C189.832 108.649 190.372 106.333 190.758 103.94C205.58 106.024 231.211 85.4891 222.796 106.024C221.87 108.186 221.561 112.355 223.877 114.362C223.877 114.362 212.992 117.913 202.647 116.91C191.607 115.829 189.137 110.425 189.137 110.425" fill="#FFB681"/>
<path opacity="0.32" d="M189.832 108.186C189.832 108.186 212.065 110.811 218.859 107.491C218.859 107.491 210.676 112.895 189.137 110.425L189.832 108.186Z" fill="#FB9A4D"/>
<path d="M183.58 164.464C183.58 169.405 180.492 173.419 176.709 173.419C172.926 173.419 169.838 169.405 169.838 164.464C169.838 159.523 172.926 155.509 176.709 155.509C180.492 155.509 183.58 159.523 183.58 164.464Z" fill="#7AE2E2"/>
<path d="M180.258 164.464C180.258 168.788 177.556 172.339 174.159 172.339C170.84 172.339 168.061 168.788 168.061 164.464C168.061 160.141 170.763 156.59 174.159 156.59C177.479 156.59 180.258 160.141 180.258 164.464Z" fill="#1D546D"/>
<path d="M183.578 118.839C184.736 115.211 186.666 111.891 189.368 110.347L188.518 108.958C185.276 110.81 183.192 114.67 181.956 118.376L183.578 118.839ZM176.63 157.362C177.479 157.439 177.479 157.439 177.479 157.439C177.479 157.439 177.479 157.439 177.479 157.362C177.479 157.285 177.479 157.208 177.479 157.131C177.479 156.899 177.556 156.59 177.556 156.204C177.633 155.355 177.788 154.197 177.942 152.807C178.251 149.951 178.714 146.014 179.332 141.768C180.49 133.276 182.034 123.626 183.578 118.839L182.034 118.376C180.412 123.317 178.868 133.121 177.71 141.536C177.17 145.782 176.63 149.719 176.321 152.576C176.166 154.043 176.012 155.201 175.935 155.973C175.858 156.359 175.858 156.667 175.858 156.899C175.858 156.976 175.858 157.053 175.858 157.131V157.208C175.858 157.285 175.858 157.285 176.63 157.362ZM189.368 110.347C189.754 110.116 189.908 109.652 189.676 109.189C189.445 108.803 188.982 108.649 188.518 108.88L189.368 110.347ZM182.806 118.608L183.578 118.839L182.806 118.608ZM175.858 157.285C175.78 157.748 176.166 158.134 176.552 158.211C177.016 158.289 177.402 157.903 177.479 157.517L175.858 157.285Z" fill="#1D546D"/>
<path opacity="0.08" d="M233.758 174.964V245.525H237.541L233.758 174.964Z" fill="#070707"/>
<path d="M222.024 141.536C223.027 138.293 224.417 131.886 225.112 125.787C225.498 122.776 225.652 119.765 225.498 117.372C225.42 116.137 225.266 115.056 225.034 114.13C224.803 113.203 224.417 112.354 223.799 111.814L222.641 113.049C222.95 113.28 223.182 113.821 223.413 114.593C223.645 115.365 223.722 116.368 223.799 117.526C223.954 119.842 223.722 122.699 223.413 125.632C222.718 131.577 221.329 137.985 220.402 141.073L222.024 141.536ZM223.799 111.891C223.49 111.582 222.95 111.582 222.641 111.891C222.332 112.2 222.332 112.74 222.641 113.049L223.799 111.891ZM220.48 141.073C220.325 141.536 220.557 141.999 221.02 142.076C221.483 142.153 221.946 141.999 222.024 141.536L220.48 141.073Z" fill="#1D546D"/>
<path d="M222.255 144.084C224.417 144.779 226.115 146.941 227.505 150.106C228.817 153.194 229.744 157.054 230.361 160.837C230.979 164.62 231.288 168.325 231.365 171.027C231.442 172.417 231.442 173.498 231.519 174.347C231.519 174.733 231.519 175.042 231.519 175.273C231.519 175.35 231.519 175.428 231.519 175.505V175.582C231.519 175.582 231.519 175.582 232.368 175.582C233.218 175.582 233.218 175.582 233.218 175.582C233.218 175.582 233.218 175.582 233.218 175.505C233.218 175.428 233.218 175.35 233.218 175.273C233.218 175.042 233.218 174.733 233.218 174.347C233.218 173.575 233.14 172.417 233.063 171.027C232.909 168.248 232.6 164.542 231.982 160.682C231.365 156.822 230.438 152.808 229.049 149.566C227.659 146.323 225.652 143.621 222.795 142.695L222.255 144.084ZM205.425 175.428C206.275 175.428 206.275 175.428 206.275 175.428V175.35C206.275 175.273 206.275 175.196 206.275 175.042C206.275 174.81 206.275 174.347 206.352 173.884C206.429 172.88 206.506 171.413 206.738 169.715C207.124 166.318 207.741 161.84 208.899 157.517C210.057 153.194 211.679 149.18 213.917 146.555C214.998 145.242 216.233 144.316 217.623 143.853C219.013 143.39 220.557 143.39 222.332 144.007L222.873 142.463C220.788 141.768 218.858 141.768 217.083 142.309C215.384 142.849 213.917 144.007 212.682 145.474C210.212 148.408 208.513 152.731 207.355 157.131C206.197 161.532 205.503 166.086 205.117 169.56C204.962 171.259 204.808 172.726 204.731 173.729C204.731 174.27 204.653 174.656 204.653 174.887C204.653 175.042 204.653 175.119 204.653 175.196V175.273C204.576 175.428 204.576 175.428 205.425 175.428ZM231.519 175.428C231.519 175.891 231.905 176.277 232.368 176.277C232.832 176.277 233.218 175.891 233.218 175.428H231.519ZM222.564 143.235L222.332 144.007L222.564 143.235ZM204.576 175.428C204.576 175.891 204.885 176.277 205.348 176.277C205.811 176.277 206.197 175.968 206.197 175.505L204.576 175.428Z" fill="#1D546D"/>
<path d="M207.974 175.427C207.897 175.89 207.665 176.353 207.356 176.739C207.047 177.125 206.584 177.357 206.121 177.511C205.658 177.666 205.117 177.588 204.654 177.434C204.191 177.28 203.805 176.971 203.419 176.585C203.11 176.199 202.879 175.736 202.879 175.272C202.801 174.809 202.879 174.269 203.11 173.806C203.342 173.342 203.651 172.956 204.037 172.725C204.423 172.493 204.963 172.339 205.426 172.339C206.198 172.416 206.893 172.802 207.356 173.342C207.819 173.96 208.051 174.732 207.974 175.427Z" fill="#7AE2E2"/>
<path d="M234.917 176.431C234.84 176.894 234.608 177.357 234.3 177.743C233.991 178.129 233.528 178.361 233.064 178.515C232.601 178.67 232.061 178.592 231.598 178.438C231.134 178.284 230.748 177.975 230.362 177.589C230.054 177.203 229.822 176.74 229.822 176.276C229.745 175.813 229.822 175.273 230.054 174.81C230.285 174.346 230.594 173.96 230.98 173.729C231.366 173.497 231.906 173.343 232.37 173.343C233.142 173.42 233.836 173.806 234.3 174.346C234.763 174.964 234.994 175.659 234.917 176.431Z" fill="#7AE2E2"/>
<path d="M257.228 111.505C270.12 106.256 285.252 93.0543 279.384 75.993C275.602 65.0306 271.664 43.8776 258.077 20.7947C248.427 4.50545 220.249 -2.28818 199.791 1.49463C180.259 5.12305 164.665 9.13748 154.706 47.8149C144.824 86.4923 144.438 81.8602 141.35 86.8783C138.262 91.8191 150.691 106.796 178.02 103.94L173.852 101.238C173.852 101.238 163.97 95.0615 161.191 75.3754C158.334 55.6893 167.444 38.628 167.444 38.628C167.444 38.628 200.794 55.8437 225.035 58.9317C238.237 60.5529 237.851 83.713 234.685 90.1979C229.976 99.9251 220.172 104.712 222.642 107.954C230.131 117.604 246.574 115.828 257.228 111.505Z" fill="#554047"/>
<path d="M118.498 85.1797L121.972 120.537C121.972 120.537 168.909 119.148 175.085 115.828C175.085 115.828 169.836 145.628 166.902 150.8C163.969 155.895 115.101 149.874 106.686 147.944C98.2711 146.014 97.4219 88.8081 97.4219 88.8081L118.498 85.1797Z" fill="white"/>
<path d="M100.588 88.2679C100.588 88.2679 94.7207 79.6987 94.7207 75.1438C94.7207 70.589 110.161 68.8906 110.161 68.8906C110.161 68.8906 107.768 61.325 110.161 59.9354C112.554 58.5458 115.719 67.4238 115.719 73.677V85.6431L100.588 88.2679Z" fill="#FFB681"/>
<path opacity="0.32" d="M96.4961 79.7761C96.4961 79.7761 101.746 81.7833 105.22 81.7833C108.694 81.7833 112.863 78.0777 112.863 75.6845C112.863 73.2913 111.01 69.9717 111.01 69.9717C111.01 69.9717 114.252 73.2141 114.252 74.8353C114.252 77.6917 111.936 80.3165 109.466 81.7833C106.995 83.2501 101.9 83.4818 98.9665 81.7833C97.9629 81.2429 97.1137 80.5481 96.4961 79.7761Z" fill="#FB9A4D"/>
<path opacity="0.32" d="M108.153 74.6807C108.153 74.6807 110.083 79.004 113.557 79.004C114.637 79.004 114.792 78.9268 114.792 78.9268C114.792 78.9268 115.255 78.3864 114.56 77.1512C113.865 75.8388 114.251 72.4419 114.251 72.4419C114.251 72.4419 111.009 70.8979 109.388 71.8243C108.925 72.1331 108.539 72.5963 108.307 73.1367C108.075 73.5999 107.998 74.1403 108.153 74.6807Z" fill="#FB9A4D"/>
<path d="M112.014 78.155C112.014 78.155 108.926 76.1478 108.926 73.9862C108.926 71.8246 112.786 71.9018 114.175 72.4422C116.8 73.4458 116.26 76.225 115.642 78.3866C115.025 80.5482 112.014 78.155 112.014 78.155Z" fill="#FFB681"/>
<path opacity="0.08" d="M158.179 137.136L155.709 152.807H157.562L158.179 137.136Z" fill="#070707"/>
<path d="M74.803 98.6121L109.312 99.6157L109.389 97.0681L74.8802 96.0645L74.803 98.6121ZM68.5498 79.4664L73.5678 97.6857L76.0382 96.9909L71.0202 78.7716L68.5498 79.4664ZM63.5318 107.722L71.0202 79.4664L68.5498 78.8488L61.0614 107.104L63.5318 107.722ZM51.5657 51.0567L61.0614 107.645L63.609 107.259L54.1133 50.6707L51.5657 51.0567ZM42.3017 93.2081L54.0361 51.1339L51.5657 50.4391L39.8313 92.5133L42.3017 93.2081ZM32.7288 81.0105L39.9857 93.5941L42.2245 92.2817L34.9676 79.698L32.7288 81.0105ZM20.84 99.0753L34.8132 81.0877L32.806 79.5436L18.8327 97.5313L20.84 99.0753ZM7.71589 75.9152L18.6784 98.8437L20.9944 97.7629L10.0319 74.7572L7.71589 75.9152ZM2.54347 96.2961L10.0319 75.838L7.63869 74.9888L0.150256 95.3697L2.54347 96.2961ZM109.234 99.6157C109.929 99.6157 110.547 99.0753 110.547 98.3805C110.547 97.6857 110.006 97.0681 109.312 97.0681L109.234 99.6157ZM74.803 97.2997L73.5678 97.6085C73.7222 98.1489 74.1854 98.5349 74.7258 98.5349L74.803 97.2997ZM69.785 79.1576L71.0202 78.8488C70.8658 78.3084 70.3254 77.9224 69.785 77.9224C69.2446 77.9224 68.7042 78.3084 68.5498 78.8488L69.785 79.1576ZM62.2966 107.413L61.0614 107.645C61.1386 108.262 61.679 108.648 62.2966 108.725C62.9142 108.725 63.4546 108.339 63.609 107.799L62.2966 107.413ZM52.8009 50.8251L54.0361 50.5935C53.9589 49.9759 53.4185 49.5899 52.8781 49.5127C52.2605 49.5127 51.7201 49.8987 51.5657 50.4391L52.8009 50.8251ZM41.0665 92.8993L39.9857 93.5169C40.2173 93.9801 40.7577 94.2117 41.2209 94.1345C41.7613 94.0573 42.1473 93.6713 42.3017 93.2081L41.0665 92.8993ZM33.8096 80.3156L34.8904 79.698C34.6588 79.312 34.2728 79.0804 33.8868 79.0804C33.5008 79.0804 33.0376 79.2348 32.806 79.5436L33.8096 80.3156ZM19.8364 98.3033L18.6784 98.8437C18.8328 99.2297 19.2188 99.5386 19.682 99.5386C20.1452 99.6157 20.5312 99.3841 20.84 99.0753L19.8364 98.3033ZM8.8739 75.3748L10.0319 74.8344C9.8003 74.3712 9.3371 74.0624 8.7967 74.1396C8.2563 74.1396 7.8703 74.5256 7.63869 74.9888L8.8739 75.3748ZM0.150256 95.3697C-0.0813456 96.0645 0.227456 96.7593 0.92226 96.9909C1.61706 97.2225 2.31187 96.9137 2.54347 96.2189L0.150256 95.3697Z" fill="#6184F4"/>
<path opacity="0.47" d="M331.108 278.413C331.108 278.413 331.031 279.108 330.877 279.648C330.336 282.504 329.564 285.361 328.561 288.14C328.561 288.14 332.961 279.108 332.961 277.332L331.108 278.413Z" fill="#EAB28C"/>
<path opacity="0.29" d="M189.291 293.93C189.291 293.93 199.79 301.341 204.113 301.959C208.36 302.576 212.065 295.088 212.065 295.088C210.444 294.007 202.261 287.985 196.548 286.904C194.618 286.518 191.916 289.606 191.916 289.606L189.291 293.93Z" fill="white"/>
<path opacity="0.29" d="M269.503 266.523C269.503 266.523 273.363 275.015 276.991 277.254C280.697 279.492 287.182 273.78 287.182 273.78C286.178 272.158 280.929 262.972 275.679 260.347C272.668 258.88 267.959 262.663 267.959 262.663L269.503 266.523Z" fill="white"/>
<path d="M246.961 337.316C246.961 337.316 246.653 336.621 246.189 335.386L246.961 337.316Z" fill="#F9D0AF"/>
<path opacity="0.29" d="M229.127 276.869C229.127 276.869 235.535 285.284 240.09 286.828C244.644 288.372 251.978 282.119 251.978 282.119C251.978 282.119 239.009 268.3 235.38 267.528C231.443 266.679 226.039 273.163 226.039 273.163L229.127 276.869Z" fill="white"/>
<path opacity="0.32" d="M240.398 348.279C242.405 343.415 243.872 339.71 243.872 339.092C243.872 336.853 242.173 330.137 242.173 330.137L244.567 328.747C244.567 328.747 248.967 333.842 247.5 338.86C246.033 343.878 234.144 367.656 234.144 367.656L231.365 368.274C231.365 368.274 239.008 351.058 243.64 339.941" fill="#FB9A4D"/>
<path opacity="0.32" d="M272.59 307.285C272.59 307.285 277.686 317.167 277.686 323.96C277.686 326.122 275.91 335.849 275.91 335.849L271.664 337.856C271.664 337.856 274.752 324.038 274.366 321.644C274.057 319.483 272.204 311.454 272.204 311.454L272.59 307.285Z" fill="#FB9A4D"/>
<path opacity="0.32" d="M302.621 294.394C302.775 296.941 302.698 299.566 302.466 302.114C302.312 304.275 299.919 314.388 299.919 314.388L297.371 315.855C297.371 315.855 300.305 301.882 300.305 299.412C300.227 298.254 300.15 297.096 299.996 295.938L302.621 294.394Z" fill="#FB9A4D"/>
</svg>
