<svg width="412" height="372" viewBox="0 0 412 372" fill="none" xmlns="http://www.w3.org/2000/svg">
<g clip-path="url(#clip0_173_4451)">
<path d="M64.3478 318.5C64.3478 318.5 19.5478 315 4.64776 265C-10.2522 215 18.5478 187.1 30.2478 165.9C41.9478 144.7 32.8478 112.6 24.8478 86.4002C16.9478 60.2002 24.1478 24.2002 60.8478 12.4002C97.5478 0.700195 115.848 26.5002 140.348 24.9002C164.848 23.3002 171.848 0.700195 219.748 0.700195C267.648 0.700195 275.448 26.4002 298.048 27.2002C320.648 28.0002 341.548 3.7002 371.848 21.7002C402.148 39.7002 397.348 79.4002 392.748 101.9C387.048 129.8 380.648 145.9 391.948 169.7C401.248 189.4 412.948 209.9 411.548 234.2C409.848 263.7 385.848 309.3 354.548 314.4C323.048 319.4 64.3478 318.5 64.3478 318.5Z" fill="#6184F4"/>
<path d="M68.6477 289.6H339.748C344.048 289.6 347.548 286.1 347.548 281.8V109.7C347.548 105.4 344.048 101.9 339.748 101.9H68.6477C64.3477 101.9 60.8477 105.4 60.8477 109.7V281.8C60.8477 286.1 64.3477 289.6 68.6477 289.6ZM62.6477 109.7C62.6477 106.4 65.3477 103.7 68.6477 103.7H339.748C343.048 103.7 345.748 106.4 345.748 109.7V281.8C345.748 285.1 343.048 287.8 339.748 287.8H68.6477C65.3477 287.8 62.6477 285.1 62.6477 281.8V109.7Z" fill="#77C3ED"/>
<path d="M52.9491 290.9V100.6C52.9491 97 55.9491 94 59.5491 94H348.949C352.549 94 355.549 97 355.549 100.6V290.9C355.549 294.5 352.549 297.5 348.949 297.5H59.4491C55.8491 297.5 52.9491 294.5 52.9491 290.9ZM369.449 366.7C365.449 369.6 361.449 370.2 361.049 370.2H61.7491C46.4491 370.2 35.2491 366.9 29.1491 360.7C26.4491 357.9 25.2491 355 24.8491 353.1C27.7491 355.2 33.9491 356.1 45.2491 356.1H368.049C368.349 356.1 374.449 355.6 377.949 352.3C376.749 358.6 373.849 363.5 369.449 366.7ZM378.749 346.7C378.649 347.7 378.449 348.6 377.949 349.4C375.549 353.5 368.449 354.2 368.049 354.2H45.2491C36.7491 354.2 26.7491 353.8 24.8491 350.5C24.1491 349.3 24.5491 347.5 25.9491 345L26.4491 344.1C48.0491 308 53.9491 299.7 55.4491 298.3C56.6491 298.9 57.9491 299.3 59.3491 299.3H348.749C350.049 299.3 351.249 299 352.349 298.5C355.249 303.1 371.149 329.1 377.149 341.1C378.349 343.2 378.849 345 378.749 346.7Z" fill="#6184F4"/>
<path d="M283.349 317.2C283.249 316.9 282.849 316.7 282.549 316.7C204.649 316.8 56.5495 317 53.0495 316.7C52.6495 316.6 52.2495 316.8 52.0495 317.2L36.4495 346.3C36.2495 346.6 36.3495 346.9 36.4495 347.2C36.6495 347.5 36.9495 347.6 37.2495 347.6H295.849C296.149 347.6 296.449 347.4 296.649 347.2C296.849 346.9 296.849 346.6 296.749 346.3L283.349 317.2ZM38.7495 345.8L53.4495 318.5C65.9495 318.9 215.649 318.6 282.049 318.5L294.449 345.8H38.7495Z" fill="#77C3ED"/>
<path d="M56.2488 313.3H279.949C280.249 313.3 280.549 313.1 280.749 312.8C280.949 312.5 280.949 312.2 280.749 311.9L275.649 303C275.449 302.7 275.149 302.5 274.849 302.5H61.7488C61.4488 302.5 61.1488 302.7 60.9488 302.9L55.4488 311.8C55.2488 312.1 55.2488 312.4 55.4488 312.7C55.5488 313.1 55.9488 313.3 56.2488 313.3ZM62.2488 304.4H274.249L278.249 311.5H57.8488L62.2488 304.4Z" fill="#77C3ED"/>
<path d="M351.349 315.8C351.149 315.5 350.849 315.4 350.549 315.4L290.249 316.1C289.949 316.1 289.649 316.3 289.449 316.5C289.249 316.8 289.249 317.1 289.449 317.4L304.549 347.1C304.749 347.4 305.049 347.6 305.349 347.6H370.849C371.149 347.6 371.449 347.4 371.649 347.1C371.849 346.8 371.749 346.4 371.649 346.2L351.349 315.8ZM305.949 345.8L291.749 317.9L350.149 317.2L369.249 345.8H305.949Z" fill="#77C3ED"/>
<path d="M287.148 311.9C287.348 312.2 287.648 312.4 287.948 312.4H348.648C348.948 312.4 349.248 312.2 349.448 311.9C349.648 311.6 349.548 311.3 349.448 311L344.348 303C344.148 302.7 343.848 302.6 343.548 302.6H283.548C283.248 302.6 282.948 302.8 282.748 303C282.548 303.3 282.548 303.6 282.748 303.9L287.148 311.9ZM343.048 304.4L346.948 310.6H288.448L285.048 304.4H343.048Z" fill="#77C3ED"/>
<path d="M68.6477 289.6H339.748C344.048 289.6 347.548 286.1 347.548 281.8V109.7C347.548 105.4 344.048 101.9 339.748 101.9H68.6477C64.3477 101.9 60.8477 105.4 60.8477 109.7V281.8C60.8477 286.1 64.3477 289.6 68.6477 289.6ZM62.6477 109.7C62.6477 106.4 65.3477 103.7 68.6477 103.7H339.748C343.048 103.7 345.748 106.4 345.748 109.7V281.8C345.748 285.1 343.048 287.8 339.748 287.8H68.6477C65.3477 287.8 62.6477 285.1 62.6477 281.8V109.7Z" fill="white"/>
<path d="M378.949 340.2C372.949 328.1 356.949 302.2 354.049 297.5C356.049 296 357.349 293.6 357.349 290.9V100.6C357.349 96.0002 353.549 92.2002 348.949 92.2002H59.4486C54.8486 92.2002 51.0486 96.0002 51.0486 100.6V290.9C51.0486 293.5 52.2486 295.8 54.0486 297.3C51.8486 299.7 45.6486 308.7 24.9486 343.2L24.4486 344.1C22.8486 346.8 22.3486 348.9 22.9486 350.7H22.7486C22.7486 350.9 22.5486 356.5 27.8486 362C34.3486 368.7 45.7486 372.1 61.7486 372.1H361.049C361.249 372.1 378.849 370.3 380.449 347.5C380.449 347.3 380.449 347.1 380.549 346.9C380.649 344.8 380.049 342.6 378.949 340.2ZM52.9486 290.9V100.6C52.9486 97.0002 55.9486 94.0002 59.5486 94.0002H348.949C352.549 94.0002 355.549 97.0002 355.549 100.6V290.9C355.549 294.5 352.549 297.5 348.949 297.5H59.4486C55.8486 297.5 52.9486 294.5 52.9486 290.9ZM369.449 366.7C365.449 369.6 361.449 370.2 361.049 370.2H61.7486C46.4486 370.2 35.2486 366.9 29.1486 360.7C26.4486 357.9 25.2486 355 24.8486 353.1C27.7486 355.2 33.9486 356.1 45.2486 356.1H368.049C368.349 356.1 374.449 355.6 377.949 352.3C376.749 358.6 373.849 363.5 369.449 366.7ZM378.749 346.7C378.649 347.7 378.449 348.6 377.949 349.4C375.549 353.5 368.449 354.2 368.049 354.2H45.2486C36.7486 354.2 26.7486 353.8 24.8486 350.5C24.1486 349.3 24.5486 347.5 25.9486 345L26.4486 344.1C48.0486 308 53.9486 299.7 55.4486 298.3C56.6486 298.9 57.9486 299.3 59.3486 299.3H348.749C350.049 299.3 351.249 299 352.349 298.5C355.249 303.1 371.149 329.1 377.149 341.1C378.349 343.2 378.849 345 378.749 346.7Z" fill="white"/>
<path d="M349.448 311.001L344.348 303.001C344.148 302.701 343.848 302.601 343.548 302.601H283.548C283.248 302.601 282.948 302.801 282.748 303.001C282.548 303.301 282.548 303.601 282.748 303.901L287.148 311.901C287.348 312.201 287.648 312.401 287.948 312.401H348.648C348.948 312.401 349.248 312.201 349.448 311.901C349.648 311.601 349.548 311.301 349.448 311.001ZM304.148 304.401H313.348L316.448 310.601H307.548L304.148 304.401ZM306.448 310.601H297.848L294.548 304.401H303.048L306.448 310.601ZM314.548 304.401H323.048L326.348 310.601H317.648L314.548 304.401ZM324.248 304.401H332.948L337.248 310.601H327.448L324.248 304.401ZM285.048 304.401H293.348L296.648 310.601H288.448L285.048 304.401ZM338.348 310.601L334.148 304.401H343.048L346.948 310.601H338.348Z" fill="white"/>
<path d="M371.649 346.2L351.349 315.8C351.149 315.5 350.849 315.4 350.549 315.4L290.249 316.1C289.949 316.1 289.649 316.3 289.449 316.5C289.249 316.8 289.249 317.1 289.449 317.4L304.549 347.1C304.749 347.4 305.049 347.6 305.349 347.6H370.849C371.149 347.6 371.449 347.4 371.649 347.1C371.849 346.8 371.849 346.5 371.649 346.2ZM363.049 336.6H353.649L349.349 330H358.649L363.049 336.6ZM317.149 329.3L314.149 323.6H322.649L325.849 329.3H317.149ZM326.249 330L329.949 336.6H320.949L317.449 330H326.249ZM323.849 323.6H332.849L336.249 329.3H326.949L323.849 323.6ZM334.049 323.6H343.849L347.449 329.3H337.449L334.049 323.6ZM333.349 322.6L330.249 317.4L339.749 317.3L343.149 322.6H333.349ZM332.249 322.6H323.249L320.449 317.5L329.149 317.4L332.249 322.6ZM322.149 322.6H313.649L311.049 317.7L319.349 317.6L322.149 322.6ZM312.549 322.6H304.049L301.449 317.8L309.949 317.7L312.549 322.6ZM313.049 323.6L316.049 329.3H307.549L304.549 323.6H313.049ZM316.449 330L319.949 336.6H311.449L307.949 330H316.449ZM320.449 337.6L324.749 345.8H316.249L311.949 337.6H320.449ZM321.549 337.6H330.549L335.149 345.8H325.849L321.549 337.6ZM331.749 337.6H341.349L346.249 345.8H336.249L331.749 337.6ZM331.149 336.6L327.449 330H336.749L340.749 336.6H331.149ZM337.849 330H347.849L352.049 336.6H341.749L337.849 330ZM358.249 329.3H348.949L345.249 323.6H354.449L358.249 329.3ZM353.749 322.6H344.549L341.149 317.3L350.149 317.2L353.749 322.6ZM291.749 317.9L300.349 317.8L302.849 322.6H294.149L291.749 317.9ZM294.649 323.6H303.349L306.349 329.3H297.549L294.649 323.6ZM297.949 330H306.849L310.349 336.6H301.349L297.949 330ZM301.849 337.6H310.849L315.149 345.8H305.949L301.849 337.6ZM342.449 337.6H352.749L358.049 345.8H347.449L342.449 337.6ZM359.649 345.8L354.349 337.6H363.849L369.249 345.8H359.649Z" fill="white"/>
<path d="M296.649 346.3L283.349 317.2C283.249 316.9 282.849 316.7 282.549 316.7C204.649 316.8 56.5495 317 53.0495 316.7C52.6495 316.6 52.2495 316.8 52.0495 317.2L36.4495 346.3C36.2495 346.6 36.3495 346.9 36.4495 347.2C36.6495 347.5 36.9495 347.6 37.2495 347.6H282.149L282.249 347.8L282.749 347.6H295.949C296.249 347.6 296.549 347.4 296.749 347.2C296.749 346.9 296.749 346.6 296.649 346.3ZM291.049 338.3H279.749L277.349 332H288.149L291.049 338.3ZM81.9495 331H70.7495L72.9495 324.1H84.1495L81.9495 331ZM85.2495 324.1H96.4495L94.2495 331H83.0495L85.2495 324.1ZM81.6495 332L79.5495 338.3H68.3495L70.4495 332H81.6495ZM82.6495 332H93.8495L91.7495 338.3H80.6495L82.6495 332ZM94.9495 332H106.149L104.049 338.3H92.8495L94.9495 332ZM107.149 332H118.349L116.249 338.3H105.049L107.149 332ZM119.449 332H130.649L128.549 338.3H117.349L119.449 332ZM131.649 332H142.849L140.749 338.3H129.549L131.649 332ZM231.849 331H221.949V324.1H231.249L231.849 331ZM232.249 324.1H240.949L242.249 331H232.749L232.249 324.1ZM220.949 331H208.349L209.049 324.1H220.949V331ZM207.349 331H194.449L196.049 324.1H208.049L207.349 331ZM193.449 331H182.049L183.649 324.1H194.949L193.449 331ZM181.049 331H168.949L171.049 324.1H182.649L181.049 331ZM167.949 331H156.449L158.649 324.1H169.949L167.949 331ZM155.449 331H144.249L146.449 324.1H157.649L155.449 331ZM143.149 331H131.949L134.149 324.1H145.449L143.149 331ZM143.849 332H155.049L152.949 338.3H141.749L143.849 332ZM156.149 332H167.649L165.749 338.3H154.049L156.149 332ZM168.649 332H180.749L179.249 338.3H166.749L168.649 332ZM181.849 332H193.249L191.849 338.3H180.349L181.849 332ZM194.249 332H207.249L206.549 338.3H192.849L194.249 332ZM208.249 332H220.949V338.3H207.549L208.249 332ZM221.949 332H231.949L232.449 338.3H221.949V332ZM232.949 332H242.549L243.749 338.3H233.449L232.949 332ZM243.549 332H254.049L255.649 338.3H244.849L243.549 332ZM243.349 331L242.049 324.1H252.049L253.749 331H243.349ZM253.149 324.1H262.449L264.749 331H254.849L253.149 324.1ZM263.449 324.1H273.249L275.849 331H265.749L263.449 324.1ZM263.149 323.1L261.649 318.5C264.949 318.5 268.149 318.5 271.249 318.5L272.949 323.1H263.149ZM262.149 323.1H252.849L251.749 318.5C254.749 318.5 257.749 318.5 260.649 318.5L262.149 323.1ZM251.849 323.1H241.849L240.949 318.6C244.249 318.6 247.549 318.6 250.749 318.6L251.849 323.1ZM240.849 323.1H232.249L231.849 318.6C234.549 318.6 237.349 318.6 239.949 318.6L240.849 323.1ZM231.149 323.1H221.949V318.6C224.949 318.6 227.849 318.6 230.849 318.6L231.149 323.1ZM220.949 323.1H209.149L209.649 318.6C213.449 318.6 217.249 318.6 220.949 318.6V323.1ZM208.149 323.1H196.249L197.249 318.6C201.049 318.6 204.849 318.6 208.549 318.6L208.149 323.1ZM195.249 323.1H183.949L185.049 318.6C188.749 318.6 192.549 318.6 196.249 318.6L195.249 323.1ZM182.949 323.1H171.349L172.649 318.6C176.449 318.6 180.149 318.6 183.949 318.6L182.949 323.1ZM170.349 323.1H159.049L160.449 318.7C164.149 318.7 167.849 318.7 171.649 318.7L170.349 323.1ZM157.949 323.1H146.749L148.149 318.7C151.849 318.7 155.549 318.7 159.349 318.7L157.949 323.1ZM145.749 323.1H134.549L135.949 318.7C139.649 318.7 143.349 318.7 147.149 318.7L145.749 323.1ZM133.449 323.1H122.249L123.649 318.7C127.349 318.7 131.049 318.7 134.849 318.7L133.449 323.1ZM133.149 324.1L130.949 331H119.749L121.949 324.1H133.149ZM118.649 331H107.449L109.649 324.1H120.849L118.649 331ZM106.449 331H95.2495L97.4495 324.1H108.649L106.449 331ZM97.8495 323.1L99.2495 318.7C102.849 318.7 106.549 318.7 110.449 318.7L109.049 323.1H97.8495ZM96.7495 323.1H85.5495L86.9495 318.7C90.4495 318.7 94.2495 318.7 98.1495 318.7L96.7495 323.1ZM84.5495 323.1H73.3495L74.8495 318.6C78.2495 318.6 82.0495 318.6 86.0495 318.6L84.5495 323.1ZM72.2495 323.1H61.1495L62.6495 318.6C65.7495 318.6 69.5495 318.6 73.8495 318.6L72.2495 323.1ZM71.9495 324.1L69.7495 331H58.5495L60.7495 324.1H71.9495ZM69.4495 332L67.3495 338.3H56.1495L58.2495 332H69.4495ZM67.0495 339.3L64.9495 345.8H53.7495L55.8495 339.3H67.0495ZM68.0495 339.3H79.2495L77.1495 345.8H65.9495L68.0495 339.3ZM80.3495 339.3H91.4495L89.3495 345.8H78.2495L80.3495 339.3ZM92.5495 339.3H103.749L101.649 345.8H90.4495L92.5495 339.3ZM104.749 339.3H115.949L113.849 345.8H102.649L104.749 339.3ZM117.049 339.3H128.249L126.149 345.8H114.949L117.049 339.3ZM129.249 339.3H140.449L138.349 345.8H127.149L129.249 339.3ZM141.549 339.3H152.749L150.649 345.8H139.449L141.549 339.3ZM153.749 339.3H165.449L163.549 345.8H151.649L153.749 339.3ZM166.549 339.3H179.149L177.649 345.8H164.749L166.549 339.3ZM180.049 339.3H191.549L190.049 345.8H178.449L180.049 339.3ZM192.649 339.3H206.449L205.749 345.8H191.149L192.649 339.3ZM207.449 339.3H220.949V345.8H206.849L207.449 339.3ZM221.949 339.3H232.549L233.049 345.8H221.849V339.3H221.949ZM233.549 339.3H243.949L245.249 345.8H234.149L233.549 339.3ZM244.949 339.3H255.749L257.349 345.8H246.149L244.949 339.3ZM256.849 339.3H267.449L269.549 345.8H258.449L256.849 339.3ZM256.649 338.3L255.049 332H265.049L267.149 338.3H256.649ZM266.049 332H276.249L278.649 338.3H268.149L266.049 332ZM287.649 331H276.949L274.349 324.1H284.449L287.649 331ZM284.049 323.1H273.949L272.249 318.5C275.649 318.5 278.849 318.5 281.949 318.5L284.049 323.1ZM122.649 318.7L121.249 323.1H110.049L111.449 318.7C115.149 318.7 118.849 318.7 122.649 318.7ZM53.3495 318.5C54.6495 318.5 57.4495 318.6 61.4495 318.6L59.9495 323.1H50.8495L53.3495 318.5ZM50.3495 324.1H59.7495L57.5495 331H46.6495L50.3495 324.1ZM46.1495 332H57.1495L55.0495 338.3H42.7495L46.1495 332ZM42.1495 339.3H54.7495L52.6495 345.8H38.7495L42.1495 339.3ZM270.649 345.8L268.549 339.3H279.049L281.449 345.8H270.649ZM282.449 345.8L280.049 339.3H291.449L294.349 345.8H282.449Z" fill="white"/>
<path d="M280.649 311.9L275.549 303C275.349 302.7 275.049 302.5 274.749 302.5H61.7488C61.4488 302.5 61.1488 302.7 60.9488 302.9L55.4488 311.8C55.2488 312.1 55.2488 312.4 55.4488 312.7C55.6488 313 55.9488 313.2 56.2488 313.2H271.049L271.349 313.5L272.249 313.4L272.149 313.3H279.849C280.149 313.3 280.449 313.1 280.649 312.8C280.849 312.5 280.849 312.2 280.649 311.9ZM87.4488 304.4H98.6488L92.2488 311.5H81.1488L87.4488 304.4ZM80.0488 311.4H68.9488L75.3488 304.3H86.4488L80.0488 311.4ZM99.7488 304.4H110.949L104.549 311.5H93.3488L99.7488 304.4ZM111.949 304.4H123.149L116.749 311.5H105.549L111.949 304.4ZM124.149 304.4H135.349L128.949 311.5H117.749L124.149 304.4ZM136.349 304.4H147.549L141.149 311.5H129.949L136.349 304.4ZM148.649 304.4H159.849L154.049 311.5H142.249L148.649 304.4ZM160.849 304.4H172.449L167.749 311.5H155.049L160.849 304.4ZM173.449 304.4H184.749L180.349 311.5H168.849L173.449 304.4ZM185.749 304.4H197.549L195.549 311.5H181.349L185.749 304.4ZM198.549 304.4H210.249V311.5H196.449L198.549 304.4ZM211.249 304.4H220.449L222.149 311.5H211.349V304.4H211.249ZM221.349 304.4H229.849L233.649 311.5H222.949L221.349 304.4ZM230.949 304.4H240.849L245.649 311.5H234.649L230.949 304.4ZM241.949 304.4H251.149L257.549 311.5H246.749L241.949 304.4ZM62.2488 304.4H74.2488L67.8488 311.5H57.8488L62.2488 304.4ZM258.549 311.4L252.149 304.3H261.849L269.149 311.4H258.549ZM270.249 311.4L262.949 304.3H274.249L278.249 311.4H270.249Z" fill="white"/>
<path d="M96.948 143.101C96.948 143.101 76.648 154.201 85.648 171.901C85.648 171.901 80.548 172.201 78.048 177.301C75.548 182.301 82.448 188.401 82.448 188.401C82.448 188.401 71.748 194.601 73.648 206.001C75.548 217.301 87.048 224.601 95.148 220.801C95.148 220.801 102.048 236.201 116.848 234.001L160.248 198.401L154.348 168.701L109.948 138.601L96.948 143.101Z" fill="#273B6D"/>
<path d="M224.048 143.101C224.048 143.101 244.348 154.201 235.348 171.901C235.348 171.901 240.448 172.201 242.948 177.301C245.448 182.301 238.548 188.401 238.548 188.401C238.548 188.401 249.248 194.601 247.348 206.001C245.448 217.301 233.948 224.601 225.848 220.801C225.848 220.801 218.948 236.201 204.148 234.001L160.748 198.401L166.648 168.701L211.048 138.601L224.048 143.101Z" fill="#273B6D"/>
<path d="M174.448 192.001V181.301C172.848 181.901 171.148 182.301 169.348 182.601V182.501C169.348 182.501 165.148 183.201 159.648 183.201C154.248 183.101 149.948 182.501 149.948 182.501V182.601C148.148 182.301 146.448 181.901 144.848 181.301V192.001C154.348 196.001 165.848 196.701 174.448 192.001Z" fill="#D8A884"/>
<path d="M181.502 179.902C211.046 167.664 225.075 133.793 212.837 104.249C200.6 74.7056 166.729 60.6762 137.185 72.9139C107.641 85.1516 93.612 119.022 105.85 148.566C118.087 178.11 151.958 192.139 181.502 179.902Z" fill="#EDC8A9"/>
<path d="M101.746 121.201C101.746 121.201 98.4463 118.401 92.7463 119.101C87.0463 119.801 84.0463 129.101 86.9463 136.901C89.9463 144.701 98.9463 147.101 104.646 145.201C104.546 145.301 99.9463 131.001 101.746 121.201Z" fill="#D8A884"/>
<path d="M216.947 121.201C216.947 121.201 220.247 118.401 225.947 119.101C231.647 119.801 234.647 129.101 231.747 136.901C228.747 144.701 219.747 147.101 214.047 145.201C214.047 145.301 218.647 131.001 216.947 121.201Z" fill="#D8A884"/>
<path d="M129.047 124.401C129.047 127.301 126.647 129.701 123.747 129.701C120.847 129.701 118.447 127.301 118.447 124.401C118.447 121.501 120.847 119.101 123.747 119.101C126.647 119.101 129.047 121.501 129.047 124.401Z" fill="#684832"/>
<path d="M200.948 124.401C200.948 127.301 198.548 129.701 195.648 129.701C192.748 129.701 190.348 127.301 190.348 124.401C190.348 121.501 192.748 119.101 195.648 119.101C198.548 119.101 200.948 121.501 200.948 124.401Z" fill="#684832"/>
<path d="M162.047 147.501C153.447 147.501 150.247 140.201 150.147 139.901C149.947 139.401 150.147 138.901 150.647 138.701C151.147 138.501 151.647 138.701 151.847 139.201C151.947 139.501 154.747 145.701 162.047 145.701C169.447 145.701 171.947 139.501 172.047 139.201C172.247 138.701 172.747 138.501 173.247 138.701C173.747 138.901 173.947 139.401 173.747 139.901C173.747 140.001 170.647 147.501 162.047 147.501Z" fill="#C49474"/>
<path d="M160.747 135.401C159.547 135.401 158.547 134.901 157.947 134.501C157.547 134.201 157.547 133.601 157.847 133.201C158.147 132.801 158.747 132.801 159.147 133.101C159.347 133.301 161.347 134.701 164.247 131.801C165.747 130.301 165.847 128.501 165.647 127.301C165.247 124.801 163.547 122.401 161.247 121.201C160.847 121.001 160.647 120.401 160.847 120.001C161.047 119.601 161.647 119.401 162.047 119.601C164.847 121.101 166.947 124.101 167.347 127.101C167.647 129.401 167.047 131.601 165.447 133.201C163.847 134.801 162.147 135.401 160.747 135.401Z" fill="#C49474"/>
<path d="M125.247 154.3C131.432 154.3 136.447 149.286 136.447 143.1C136.447 136.915 131.432 131.9 125.247 131.9C119.061 131.9 114.047 136.915 114.047 143.1C114.047 149.286 119.061 154.3 125.247 154.3Z" fill="#D69585"/>
<path d="M197.048 154.3C203.233 154.3 208.248 149.286 208.248 143.1C208.248 136.915 203.233 131.9 197.048 131.9C190.862 131.9 185.848 136.915 185.848 143.1C185.848 149.286 190.862 154.3 197.048 154.3Z" fill="#D69585"/>
<path d="M166.947 237.601C170.247 222.001 174.147 207.401 176.147 192.401C175.047 192.201 174.447 192.101 174.447 192.101V192.001C165.747 196.701 154.347 196.001 144.947 192.101V192.201C144.947 192.201 144.447 192.201 143.447 192.501C149.447 214.901 155.447 237.301 160.447 260.101C162.547 252.501 165.047 245.001 166.947 237.601Z" fill="#77C3ED"/>
<path d="M200.948 203.001C187.248 195.501 179.348 193.201 176.148 192.501C174.148 207.501 170.248 222.101 166.948 237.701C165.048 245.101 162.548 252.601 160.448 260.101C155.448 237.301 149.448 214.901 143.448 192.501C140.348 193.201 132.448 195.501 118.548 203.101C100.048 213.201 93.748 266.201 93.748 287.801L94.848 288.801H152.448H167.048H224.748L225.848 287.801C225.748 266.101 219.448 213.101 200.948 203.001Z" fill="white"/>
<path d="M193.448 198.401L164.748 230.501L166.148 231.701L181.648 214.301L191.848 220.601L160.248 258.401L128.648 220.601L138.748 214.301L154.248 231.701L155.648 230.501L126.948 198.401L125.648 199.601L137.548 213.001L125.848 220.201L159.048 259.801V286.801H160.948V260.401L194.548 220.201L182.848 213.001L194.848 199.601L193.448 198.401Z" fill="#77C3ED"/>
<path d="M116.848 286.802H118.648C118.848 275.302 121.948 243.602 122.048 243.302L120.248 243.102C120.148 243.502 117.048 275.202 116.848 286.802Z" fill="#77C3ED"/>
<path d="M200.847 243.102L199.047 243.302C199.047 243.602 202.247 275.302 202.447 286.802H204.247C204.047 275.202 200.947 243.502 200.847 243.102Z" fill="#77C3ED"/>
<path d="M101.747 121.201C101.747 121.201 118.547 114.201 122.047 98.9006C122.047 98.9006 129.147 101.401 144.947 98.9006C160.747 96.4006 169.347 89.0006 173.747 82.6006L169.747 60.3006C169.747 60.3006 158.447 47.6006 136.347 47.1006C114.247 46.5006 99.8473 63.4006 99.8473 63.4006C99.8473 63.4006 86.6473 66.5006 81.8473 78.3006C77.0473 90.1006 85.6473 100.301 85.6473 100.301C85.6473 100.301 77.8473 114.601 89.9473 121.101C90.0473 121.201 92.7473 119.201 101.747 121.201Z" fill="#273B6D"/>
<path d="M173.748 82.601C173.748 82.601 205.248 122.201 216.948 121.201C216.948 121.201 219.848 118.501 225.948 119.101C225.948 119.101 234.248 104.301 223.448 97.801C223.448 97.801 229.448 86.001 223.448 76.101C217.448 66.201 201.648 64.501 201.648 64.501C201.648 64.501 184.448 46.501 169.848 60.301L167.648 81.701L173.748 82.601Z" fill="#273B6D"/>
<path d="M199.949 252.7H196.149C196.149 252.7 192.049 199.9 174.449 192.1V188.3C174.449 188.3 197.649 193.1 199.949 252.7Z" fill="#7C7C7C"/>
<path d="M205.041 263.869C209.571 259.339 209.571 251.995 205.041 247.465C200.511 242.935 193.166 242.935 188.636 247.465C184.106 251.995 184.106 259.339 188.636 263.869C193.166 268.399 200.511 268.399 205.041 263.869Z" fill="#5E5E5E"/>
<path d="M201.65 255.7C201.65 258.4 199.45 260.6 196.75 260.6C194.05 260.6 191.85 258.4 191.85 255.7C191.85 253 194.05 250.8 196.75 250.8C199.45 250.8 201.65 253 201.65 255.7Z" fill="#7C7C7C"/>
<path d="M119.449 252.7L123.449 250.8C123.449 250.8 127.449 199.9 144.949 192V188.2C144.949 188.3 121.749 193.1 119.449 252.7Z" fill="#7C7C7C"/>
<path d="M105.449 279.4C105.449 279.4 99.9485 265.9 106.949 255.7C113.949 245.6 127.249 247.4 132.149 249.7C137.049 252 145.649 263.3 140.349 278.4L136.949 277.6C136.949 277.6 139.549 263.4 136.349 258.5C133.049 253.5 124.949 250 114.249 254.5C103.549 259 109.149 278.4 109.149 278.4L105.449 279.4Z" fill="#7C7C7C"/>
<path d="M136.948 277.601C136.948 277.601 133.448 280.901 134.848 283.201C136.248 285.501 140.448 285.401 140.348 278.401L136.948 277.601Z" fill="#565656"/>
<path d="M105.449 279.4L109.149 278.3C109.149 278.3 110.949 278.7 111.849 281C112.849 283.3 111.849 285 108.649 285C105.449 285.1 105.449 279.4 105.449 279.4Z" fill="#565656"/>
<path d="M298.649 152.8C285.249 152.8 273.549 160.2 267.549 171.2C258.849 168.9 245.649 165.7 244.349 168C243.649 169.3 256.049 181.4 263.149 188.1C263.149 188.2 263.149 188.3 263.149 188.4C263.149 208 279.049 223.9 298.649 223.9C318.249 223.9 334.149 208 334.149 188.4C334.149 168.7 318.249 152.8 298.649 152.8Z" fill="#E5826E"/>
<path d="M301.449 165.9C291.749 165.3 281.949 168.4 281.949 180.3H286.749C286.749 180.3 286.149 174.8 290.049 172.1C293.949 169.4 302.649 168.7 306.649 172C310.649 175.3 310.049 182.8 307.649 184.7C305.249 186.6 300.049 189.3 297.949 190.7C295.849 192 295.049 193.2 294.849 197.1C294.649 201 294.849 203.2 294.849 203.2H299.249C299.249 203.2 299.349 197.7 299.249 196.8C299.149 195.9 299.849 192.9 304.149 191C308.449 189.1 313.449 187 313.849 181.1C314.549 175.2 311.249 166.5 301.449 165.9Z" fill="white"/>
<path d="M297.45 206.399C295.45 206.399 293.75 207.999 293.75 210.099C293.75 212.099 295.35 213.799 297.45 213.799C299.45 213.799 301.15 212.199 301.15 210.099C301.15 207.999 299.45 206.399 297.45 206.399Z" fill="white"/>
<path d="M363.649 39.9004H249.149C245.149 39.9004 241.849 43.2004 241.849 47.2004V127.5L238.549 150.3L272.049 136.6H363.649C367.649 136.6 370.949 133.3 370.949 129.3V47.1004C370.949 43.2004 367.649 39.9004 363.649 39.9004Z" fill="#FFE164"/>
<path d="M355.748 54.2004H257.348C256.948 54.2004 256.648 53.8004 256.648 53.3004C256.648 52.8004 256.948 52.4004 257.348 52.4004H355.748C356.148 52.4004 356.448 52.8004 356.448 53.3004C356.448 53.8004 356.048 54.2004 355.748 54.2004Z" fill="white"/>
<path d="M355.748 62.7004H257.348C256.948 62.7004 256.648 62.3004 256.648 61.8004C256.648 61.3004 256.948 60.9004 257.348 60.9004H355.748C356.148 60.9004 356.448 61.3004 356.448 61.8004C356.448 62.3004 356.048 62.7004 355.748 62.7004Z" fill="white"/>
<path d="M355.748 71.2004H257.348C256.948 71.2004 256.648 70.8004 256.648 70.3004C256.648 69.8004 256.948 69.4004 257.348 69.4004H355.748C356.148 69.4004 356.448 69.8004 356.448 70.3004C356.448 70.8004 356.048 71.2004 355.748 71.2004Z" fill="white"/>
<path d="M355.748 79.6008H257.348C256.948 79.6008 256.648 79.2008 256.648 78.7008C256.648 78.2008 256.948 77.8008 257.348 77.8008H355.748C356.148 77.8008 356.448 78.2008 356.448 78.7008C356.448 79.2008 356.048 79.6008 355.748 79.6008Z" fill="white"/>
<path d="M355.748 88.1008H257.348C256.948 88.1008 256.648 87.7008 256.648 87.2008C256.648 86.7008 256.948 86.3008 257.348 86.3008H355.748C356.148 86.3008 356.448 86.7008 356.448 87.2008C356.448 87.7008 356.048 88.1008 355.748 88.1008Z" fill="white"/>
<path d="M355.748 96.6008H257.348C256.948 96.6008 256.648 96.2008 256.648 95.7008C256.648 95.2008 256.948 94.8008 257.348 94.8008H355.748C356.148 94.8008 356.448 95.2008 356.448 95.7008C356.448 96.2008 356.048 96.6008 355.748 96.6008Z" fill="white"/>
<path d="M355.748 104.601H257.348C256.948 104.601 256.648 104.201 256.648 103.701C256.648 103.201 256.948 102.801 257.348 102.801H355.748C356.148 102.801 356.448 103.201 356.448 103.701C356.448 104.201 356.048 104.601 355.748 104.601Z" fill="white"/>
<path d="M355.748 113.101H257.348C256.948 113.101 256.648 112.701 256.648 112.201C256.648 111.701 256.948 111.301 257.348 111.301H355.748C356.148 111.301 356.448 111.701 356.448 112.201C356.448 112.701 356.048 113.101 355.748 113.101Z" fill="white"/>
<path d="M355.748 121.601H257.348C256.948 121.601 256.648 121.201 256.648 120.701C256.648 120.201 256.948 119.801 257.348 119.801H355.748C356.148 119.801 356.448 120.201 356.448 120.701C356.448 121.101 356.048 121.601 355.748 121.601Z" fill="white"/>
</g>
<defs>
<clipPath id="clip0_173_4451">
<rect width="411.1" height="371.3" fill="white" transform="translate(0.449219 0.700195)"/>
</clipPath>
</defs>
</svg>
