<svg width="336" height="388" viewBox="0 0 336 388" fill="none" xmlns="http://www.w3.org/2000/svg">
<path d="M90.9113 256.874C55.4772 265.928 6.84963 240.88 14.4642 196.139C22.3803 149.589 68.8969 150.192 76.4361 111.941C82.9197 79.0459 72.6665 22.6117 121.897 9.10668C168.112 -3.64385 178.366 42.077 196.459 51.1306C241.016 73.3874 285.045 20.2728 318.443 65.5409C339.477 94.0599 313.241 137.442 288.211 168.601C261.07 202.402 302.385 240.729 272.228 263.891C241.996 287.053 202.038 268.795 172.108 254.762C152.355 245.406 116.469 250.31 90.9113 256.874Z" fill="#EAF6FE"/>
<path d="M309.698 151.475C290.926 176.674 293.263 195.536 312.488 173.203C331.713 150.796 326.134 129.444 309.698 151.475Z" fill="#EAF6FE"/>
<path d="M326.434 125.37C322.061 132.387 324.549 139.932 330.429 130.652C336.31 121.372 333.294 114.506 326.434 125.37Z" fill="#EAF6FE"/>
<path d="M57.6636 63.0516C52.0846 85.5348 64.1473 108.018 71.0079 78.2164C77.8685 48.4903 65.4289 31.4393 57.6636 63.0516Z" fill="#EAF6FE"/>
<path d="M40.9274 138.422C30.1464 150.569 34.1421 157.661 44.6216 147.702C55.2518 137.818 53.6686 124.162 40.9274 138.422Z" fill="#EAF6FE"/>
<path d="M12.7298 252.273C20.9475 269.248 46.5053 270.606 35.7243 256.272C24.8679 242.012 3.15512 232.43 12.7298 252.273Z" fill="#EAF6FE"/>
<path d="M284.44 36.9469C284.892 40.9456 278.861 44.9443 271.02 45.8496C263.179 46.755 256.394 44.1898 255.942 40.1911C255.489 36.1924 261.521 32.1937 269.362 31.2884C277.202 30.383 283.912 32.9482 284.44 36.9469Z" fill="#EAF6FE"/>
<path d="M294.996 46.1514C297.936 46.1514 300.274 43.8126 300.274 40.8701C300.274 37.9277 297.936 35.5889 294.996 35.5889C292.056 35.5889 289.719 37.9277 289.719 40.8701C289.719 43.8126 292.131 46.1514 294.996 46.1514Z" fill="#EAF6FE"/>
<path d="M314.07 30.0817C314.07 30.4589 313.995 30.7607 313.769 31.0625C313.618 31.3643 313.316 31.5906 313.015 31.7415C312.713 31.8924 312.336 31.8924 312.035 31.8924C311.658 31.817 311.356 31.6661 311.13 31.4398C310.904 31.2134 310.678 30.9116 310.602 30.5344C310.527 30.2326 310.527 29.8554 310.678 29.5536C310.828 29.2518 311.055 28.95 311.281 28.7237C311.507 28.4973 311.884 28.4219 312.261 28.4219C312.487 28.4219 312.713 28.4219 312.939 28.5728C313.166 28.7237 313.316 28.7991 313.543 28.95C313.769 29.1009 313.844 29.3272 313.919 29.4781C313.995 29.629 314.07 29.8554 314.07 30.0817Z" fill="#EAF6FE"/>
<path d="M70.8575 41.7752C74.4009 41.7752 77.2658 38.9082 77.2658 35.3622C77.2658 31.8162 74.4009 28.9492 70.8575 28.9492C67.3141 28.9492 64.4492 31.8162 64.4492 35.3622C64.4492 38.9082 67.3141 41.7752 70.8575 41.7752Z" fill="#EAF6FE"/>
<path d="M54.7985 128.916C56.6079 128.916 58.0403 127.483 58.0403 125.672C58.0403 123.861 56.6079 122.428 54.7985 122.428C52.9891 122.428 51.5566 123.861 51.5566 125.672C51.5566 127.483 53.0645 128.916 54.7985 128.916Z" fill="#EAF6FE"/>
<path d="M16.2735 148.231C16.2735 148.608 16.1981 148.91 15.9719 149.212C15.7457 149.514 15.5195 149.74 15.218 149.891C14.9164 150.042 14.5395 150.042 14.2379 149.966C13.8609 149.891 13.5594 149.74 13.3332 149.514C13.107 149.287 12.9562 148.986 12.8808 148.608C12.8054 148.231 12.8808 147.929 12.9562 147.628C13.107 147.326 13.3332 147.024 13.6348 146.873C13.9363 146.647 14.2379 146.571 14.6148 146.571C15.0672 146.571 15.5195 146.722 15.8211 147.099C16.1227 147.477 16.2735 147.703 16.2735 148.231Z" fill="#EAF6FE"/>
<path d="M53.3673 266.079C53.3673 267.06 53.0658 268.041 52.538 268.871C52.0103 269.701 51.181 270.304 50.2763 270.681C49.3716 271.059 48.3915 271.134 47.4114 270.983C46.4313 270.757 45.5266 270.304 44.8481 269.625C44.1696 268.946 43.6418 268.041 43.491 267.06C43.2649 266.079 43.4156 265.098 43.7926 264.193C44.1696 263.288 44.7727 262.533 45.602 261.93C46.4313 261.326 47.4114 261.1 48.3915 261.1C49.6731 261.1 50.9548 261.628 51.9349 262.533C52.915 263.438 53.3673 264.721 53.3673 266.079Z" fill="#EAF6FE"/>
<path d="M335.331 144.081C335.331 144.307 335.256 144.534 335.105 144.76C334.954 144.986 334.804 145.137 334.577 145.213C334.351 145.288 334.125 145.288 333.899 145.288C333.673 145.213 333.446 145.137 333.296 144.986C333.145 144.835 332.994 144.609 332.994 144.383C332.919 144.156 332.994 143.93 333.069 143.704C333.145 143.477 333.296 143.326 333.522 143.176C333.748 143.025 333.974 142.949 334.2 142.949C334.351 142.949 334.502 142.949 334.653 143.025C334.804 143.1 334.954 143.176 335.03 143.251C335.105 143.326 335.256 143.477 335.256 143.628C335.256 143.779 335.331 143.93 335.331 144.081Z" fill="#EAF6FE"/>
<path d="M143.762 99.1151C142.556 99.3414 141.575 97.3798 140.897 95.5691C139.615 92.174 139.163 90.8159 137.957 88.2507C135.619 87.2699 133.207 86.44 130.794 85.761L131.322 87.1945C132.151 89.307 132.679 91.5704 132.981 93.8338C132.981 93.9847 132.981 94.211 132.981 94.3619C132.905 94.5128 132.83 94.7392 132.755 94.8901C132.151 95.4182 131.322 94.6637 130.87 93.9847L124.838 84.252C123.783 84.0257 122.652 83.7994 121.597 83.573C120.315 83.3467 118.958 83.1203 117.601 82.894L120.013 88.4016C120.541 89.6088 121.069 90.9668 120.541 92.174C120.466 92.4003 120.39 92.5512 120.24 92.7021C120.089 92.853 119.938 93.0039 119.712 93.0793C119.335 93.1548 118.958 93.0793 118.656 92.9284C118.355 92.7775 118.053 92.5512 117.827 92.2494C115.565 90.0615 114.359 87.0436 112.776 84.3275C112.323 83.4976 111.796 82.6677 111.268 81.9132C107.046 81.3851 102.824 80.9324 98.6022 80.706C100.185 83.6485 101.693 86.6663 103.201 89.6088C103.503 90.1369 103.653 90.9668 103.126 91.1931C102.975 91.2686 102.749 91.344 102.523 91.2686C100.939 91.1177 99.8085 89.5333 99.0546 88.0998C97.5467 85.5346 96.0389 83.0449 94.6065 80.4797C90.7615 80.4042 86.9165 80.4042 83.0715 80.6306C83.6747 83.1203 84.0516 85.6855 84.2778 88.2507C84.3532 89.6088 84.2778 91.1932 83.1469 91.8722C82.9208 92.0231 82.6946 92.0985 82.393 92.0985C82.1668 92.0985 81.8653 91.9476 81.7145 91.7967C81.5637 91.5704 81.4129 91.2686 81.4129 90.9668C80.8852 87.5717 80.2067 84.252 79.2266 80.9324C75.2308 81.3096 71.2351 81.8377 67.3147 82.6677C68.2948 84.1766 69.2749 85.6855 70.1796 87.1945C70.4058 87.4208 70.4811 87.798 70.5565 88.0998C70.5565 88.2507 70.4811 88.4016 70.4058 88.5525C70.3304 88.7034 70.1796 88.7789 69.9534 88.7789C69.7272 88.7789 69.5765 88.628 69.4257 88.4771L64.676 84.4029L63.5451 83.4976C58.2677 84.9311 53.0657 86.7418 48.0898 88.9297C49.2961 92.4003 53.7442 96.9271 56.986 99.0396C59.5494 97.9079 62.1127 96.5499 64.8268 95.72C65.3545 95.5691 65.8823 95.4936 66.41 95.5691C66.6362 95.6445 66.9377 95.72 67.0885 95.9463C67.2393 96.1726 67.3901 96.399 67.3901 96.6253C67.3901 96.8517 67.3147 97.078 67.1639 97.2289C67.0885 97.4552 66.9377 97.6061 66.7116 97.6816C65.0529 99.1151 63.3189 100.398 61.3588 101.454C63.7713 102.661 66.1838 103.717 68.5964 104.623C72.3659 106.056 76.2109 107.414 80.0559 108.621C80.5836 108.395 81.1114 108.093 81.5637 107.791C84.7302 105.905 87.2935 103.038 90.6861 101.605C90.7615 101.529 90.8369 101.529 90.9123 101.529C90.9877 101.529 91.0631 101.529 91.2138 101.529C91.2892 101.605 91.3646 101.68 91.44 101.756C91.5154 101.831 91.5154 101.982 91.5154 102.058C91.5908 103.114 91.44 104.245 91.0631 105.226C90.6861 106.207 90.083 107.188 89.329 107.942C88.349 108.848 87.2181 109.602 86.0118 110.206C88.2736 110.809 90.6107 111.337 92.9478 111.79C93.6264 111.111 94.2295 110.357 94.6819 109.527C95.2096 108.47 95.8127 107.49 96.4912 106.584C97.019 105.905 98.0745 105.302 98.753 105.905C98.9792 106.132 99.0546 106.433 99.13 106.66C99.2053 106.962 99.2053 107.263 99.0546 107.565C98.6776 109.225 98.1499 110.885 97.4713 112.469L97.3959 112.62C101.015 113.299 104.634 113.752 108.328 114.129C109.986 112.922 111.57 111.564 113.077 110.13C114.359 108.923 115.867 107.565 117.601 107.867C117.827 107.867 118.053 108.018 118.279 108.093C118.506 108.169 118.656 108.395 118.807 108.621C118.958 108.923 118.958 109.225 118.883 109.602C118.656 110.96 117.978 112.243 117.073 113.224C116.696 113.752 116.244 114.204 115.791 114.657C116.696 114.733 117.526 114.733 118.43 114.808C121.823 114.959 125.215 114.959 128.683 114.657L129.136 114.204C131.548 111.413 133.735 108.32 136.75 106.207C136.826 106.132 136.977 106.056 137.127 106.056C137.429 106.056 137.58 106.358 137.655 106.584C138.107 107.942 137.504 109.376 136.901 110.658C136.449 111.715 135.921 112.696 135.469 113.752C136.072 113.903 137.58 114.431 140.369 113.525C153.337 109.376 154.694 100.926 154.694 100.926C151.904 96.6253 148.059 93.0793 143.611 90.5896C143.988 91.7213 144.29 92.853 144.516 94.0601C144.968 96.7762 144.968 98.9642 143.762 99.1151Z" fill="#6184F4"/>
<path d="M112.775 84.4037C112.323 83.5737 111.795 82.7438 111.267 81.9894C107.045 81.4612 102.823 81.0085 98.6014 80.7822C100.185 83.7246 101.692 86.7425 103.2 89.6849C103.502 90.2131 103.653 91.043 103.125 91.2693C102.974 91.3448 102.748 91.4202 102.522 91.3448C100.939 91.1939 99.8077 89.6095 99.0538 88.176C97.5459 85.6108 96.0381 83.1211 94.6057 80.5559C90.7607 80.4804 86.9157 80.4804 83.0708 80.7068C83.6739 83.1965 84.0509 85.7617 84.277 88.3269C84.3524 89.6849 84.277 91.2693 83.1462 91.9483C82.92 92.0992 82.6938 92.1747 82.3922 92.1747C82.1661 92.1747 81.8645 92.0238 81.7137 91.8729C81.5629 91.6466 81.4121 91.3448 81.4121 91.043C80.8844 87.6479 80.2059 84.3282 79.2258 81.0085C75.23 81.3858 71.2343 81.9139 67.3139 82.7438C68.294 84.2528 69.2741 85.7617 70.1788 87.2706C70.405 87.497 70.4804 87.8742 70.5558 88.176C70.5558 88.3269 70.4804 88.4778 70.405 88.6287C70.3296 88.7796 70.1788 88.855 69.9526 88.855C69.7264 88.855 69.5757 88.7041 69.4249 88.5532L64.6752 84.4791L63.5443 83.5737C58.3423 85.0072 53.2911 86.7425 48.3906 88.855C53.1403 90.2885 59.7748 91.3448 73.4206 93.6836C87.5942 96.0979 137.579 101.153 154.467 101.832C154.542 101.606 154.542 101.455 154.617 101.228C151.828 96.9278 147.983 93.3818 143.535 90.8921C143.912 92.0238 144.213 93.1555 144.44 94.3626C145.043 96.6261 145.043 98.8895 143.836 99.0404C142.63 99.1912 141.65 97.3051 140.972 95.4944C139.69 92.0992 139.237 90.7412 138.031 88.176C135.694 87.1952 133.282 86.3653 130.869 85.6863L131.397 87.1197C132.226 89.2323 132.754 91.4957 133.055 93.7591C133.131 93.9854 133.055 94.1363 133.055 94.3626C132.98 94.589 132.905 94.7399 132.754 94.8908C132.151 95.4189 131.321 94.6644 130.869 93.9854L124.838 84.2528C123.782 84.0264 122.651 83.8001 121.596 83.5737C120.314 83.3474 118.957 83.1211 117.6 82.8947C118.429 84.7054 119.183 86.5916 120.013 88.4023C120.54 89.6095 121.068 90.9675 120.54 92.1747C120.465 92.401 120.39 92.5519 120.239 92.7028C120.088 92.8537 119.937 93.0046 119.711 93.08C119.334 93.1555 118.957 93.08 118.656 92.9292C118.354 92.7783 118.052 92.5519 117.826 92.2501C115.565 90.1376 114.358 87.1952 112.775 84.4037Z" fill="#6184F4"/>
<path d="M165.324 102.209C156.729 102.209 148.134 101.907 139.54 101.304C130.945 100.7 122.426 99.8704 113.831 98.965C105.312 98.0597 96.7172 97.0789 88.2734 95.8717C79.7541 94.6646 71.3103 93.3065 62.791 91.873C71.3103 93.1556 79.7541 94.4382 88.2734 95.4945C96.7926 96.6262 105.312 97.607 113.907 98.286C122.501 99.0405 131.02 99.795 139.615 100.323C148.21 100.851 156.729 101.078 165.324 101.002C165.399 101.002 165.474 101.002 165.55 101.078C165.625 101.078 165.701 101.153 165.701 101.228C165.776 101.304 165.776 101.379 165.851 101.379C165.851 101.455 165.927 101.53 165.927 101.606C165.927 101.681 165.927 101.757 165.851 101.832C165.851 101.907 165.776 101.983 165.701 101.983C165.625 102.058 165.55 102.058 165.55 102.134C165.474 102.134 165.399 102.134 165.324 102.209Z" fill="#0F385D"/>
<path d="M123.631 252.197C122.651 253.027 120.841 251.819 119.409 250.537C116.619 248.122 115.564 247.293 113.227 245.633C110.739 246.01 108.251 246.463 105.838 247.066C106.215 247.368 106.668 247.745 106.969 248.047C108.779 249.481 110.362 251.14 111.644 252.951C111.794 253.102 111.87 253.253 111.945 253.479C112.021 253.63 112.021 253.856 112.021 254.083C111.794 254.913 110.663 254.611 109.91 254.234L99.8825 248.801C98.827 249.103 97.7715 249.481 96.716 249.858C95.4344 250.31 94.2281 250.763 92.9464 251.216L97.7715 254.762C98.827 255.592 99.9578 256.422 100.184 257.78C100.184 258.006 100.184 258.232 100.184 258.459C100.109 258.685 100.033 258.836 99.8825 259.062C99.5809 259.289 99.2793 259.439 98.9024 259.439C98.5254 259.515 98.1485 259.44 97.8469 259.289C94.8312 258.459 92.2679 256.497 89.5538 254.913C88.7245 254.46 87.8952 254.007 87.0659 253.555C83.0701 255.139 79.2252 256.95 75.4556 258.836C78.3205 260.571 81.11 262.457 83.8994 264.268C84.4272 264.57 84.9549 265.173 84.7287 265.702C84.578 265.852 84.4272 266.003 84.2764 266.079C82.7686 266.758 81.11 265.928 79.6775 265.098L71.9122 260.647C68.5196 262.457 65.2023 264.419 62.0359 266.531C63.7699 268.418 65.3531 270.455 66.8609 272.567C67.6903 273.699 68.3688 275.132 67.6903 276.264C67.6149 276.491 67.3887 276.717 67.1625 276.792C66.9363 276.943 66.7102 276.943 66.4086 276.868C66.107 276.717 65.8809 276.566 65.7301 276.264C63.6191 273.548 61.282 271.058 58.8694 268.644C55.5522 270.983 52.3858 273.397 49.3701 276.038C50.9533 276.868 52.5365 277.698 54.1198 278.528C54.4213 278.678 54.7229 278.829 54.9491 279.131C55.0245 279.282 55.0999 279.433 55.0245 279.584C55.0245 279.735 54.8737 279.886 54.7983 279.961C54.5721 280.037 54.4213 280.037 54.1952 279.961L48.0884 278.754L46.656 278.452C42.811 282.3 39.1922 286.449 35.875 290.825C38.6645 293.24 44.7712 294.975 48.6162 295.201C50.3502 292.938 51.858 290.448 53.8182 288.411C54.1952 288.034 54.5721 287.657 55.0999 287.506C55.326 287.43 55.6276 287.43 55.8538 287.506C56.0799 287.581 56.3061 287.732 56.4569 287.958C56.5323 288.185 56.6077 288.411 56.6077 288.562C56.6077 288.713 56.5323 289.015 56.4569 289.166C55.7784 291.203 54.8737 293.24 53.7428 295.126C56.3815 294.975 59.0202 294.673 61.6589 294.296C65.6547 293.692 69.575 292.938 73.5708 292.033C73.8724 291.58 74.2493 291.052 74.4755 290.599C76.2849 287.43 77.0388 283.583 79.3006 280.716C79.3759 280.64 79.3759 280.565 79.4513 280.489C79.5267 280.414 79.6021 280.414 79.6775 280.414C79.9037 280.414 80.0545 280.565 80.2053 280.791C80.8084 281.696 81.1853 282.677 81.3361 283.809C81.4869 284.865 81.4115 285.997 81.1853 286.978C80.733 288.26 80.1299 289.467 79.3759 290.599C81.6377 289.995 83.8994 289.316 86.1612 288.562C86.3874 287.657 86.5382 286.676 86.5382 285.77C86.4628 284.639 86.5381 283.432 86.6135 282.3C86.7643 281.47 87.4428 280.414 88.1968 280.64C88.7999 280.716 89.1015 281.395 89.3276 281.923C89.78 283.583 90.1569 285.318 90.3831 286.978C90.3831 287.053 90.3831 287.053 90.3831 287.129C93.8511 285.921 97.2438 284.563 100.636 283.054C101.466 281.168 102.22 279.282 102.823 277.245C103.35 275.585 103.954 273.624 105.612 273.02C105.838 272.944 106.065 272.869 106.366 272.869C106.592 272.869 106.818 272.944 107.045 273.095C107.271 273.322 107.497 273.548 107.648 273.925C108.1 275.208 108.176 276.641 107.874 277.999C107.799 278.603 107.648 279.207 107.497 279.886C108.326 279.508 109.08 279.056 109.91 278.678C112.925 277.094 115.865 275.359 118.73 273.473C118.806 273.246 118.806 273.095 118.881 272.869C119.56 269.248 119.937 265.475 121.52 262.156C121.595 262.005 121.671 261.929 121.746 261.854C121.972 261.703 122.274 261.854 122.575 262.08C123.631 263.061 123.857 264.57 123.932 265.928C124.008 267.06 124.159 268.191 124.234 269.323C124.837 269.172 126.345 268.87 128.38 266.682C137.503 256.648 134.487 248.651 134.487 248.651C129.888 246.312 124.837 245.18 119.71 245.255C120.615 246.085 121.444 246.915 122.198 247.821C123.405 249.556 124.536 251.442 123.631 252.197Z" fill="#244C69"/>
<path d="M89.3284 254.762C88.4991 254.309 87.6698 253.856 86.8405 253.404C82.8447 254.988 78.9998 256.799 75.2302 258.685C78.0951 260.42 80.8846 262.306 83.674 264.117C84.2018 264.419 84.7295 265.022 84.5034 265.55C84.3526 265.701 84.2018 265.852 84.051 265.928C82.5432 266.607 80.8846 265.777 79.4521 264.947L71.7622 260.496C68.3696 262.306 65.0523 264.268 61.8859 266.38C63.6199 268.267 65.2031 270.304 66.7109 272.416C67.5403 273.548 68.2188 274.981 67.5403 276.113C67.4649 276.339 67.2387 276.566 67.0125 276.641C66.7863 276.792 66.5602 276.792 66.2586 276.717C65.957 276.566 65.7309 276.415 65.5801 276.113C63.4691 273.397 61.132 270.907 58.7194 268.493C55.4022 270.832 52.2358 273.246 49.2201 275.887C50.8033 276.717 52.3865 277.547 53.9698 278.376C54.2713 278.527 54.5729 278.678 54.7991 278.98C54.8745 279.131 54.9499 279.282 54.8745 279.433C54.8745 279.584 54.7237 279.735 54.6483 279.81C54.4221 279.885 54.2713 279.885 54.0452 279.81L47.9384 278.603L46.506 278.301C42.661 282.073 39.193 286.147 35.9512 290.448C40.7762 289.392 47.0337 286.977 60.0765 282.224C73.5716 277.32 119.485 256.874 134.413 249.028C134.337 248.801 134.337 248.65 134.262 248.424C129.663 246.085 124.612 244.953 119.485 245.029C120.39 245.859 121.219 246.689 121.973 247.594C123.632 249.329 124.762 251.216 123.782 251.97C122.802 252.725 120.993 251.593 119.56 250.31C116.771 247.896 115.715 247.066 113.378 245.406C110.89 245.708 108.402 246.236 105.99 246.84C106.367 247.141 106.819 247.519 107.121 247.82C108.93 249.254 110.513 250.914 111.795 252.725C111.946 252.875 112.021 253.026 112.097 253.253C112.172 253.479 112.172 253.63 112.172 253.856C111.946 254.686 110.815 254.384 110.061 254.007L100.034 248.575C98.9785 248.877 97.9231 249.254 96.8676 249.631C95.5859 250.084 94.3797 250.537 93.098 250.989L97.9231 254.535C98.9785 255.365 100.109 256.195 100.336 257.553C100.336 257.779 100.336 258.006 100.336 258.232C100.26 258.458 100.185 258.609 100.034 258.836C99.7325 259.062 99.4309 259.213 99.0539 259.213C98.677 259.288 98.3 259.213 97.9985 259.062C94.6812 258.383 92.0425 256.421 89.3284 254.762Z" fill="#6184F4"/>
<path d="M143.761 244.123C136.297 248.424 128.682 252.422 120.917 256.119C113.152 259.892 105.311 263.362 97.4701 266.833C89.6294 270.303 81.7133 273.698 73.7218 276.867C65.7303 280.036 57.7388 283.129 49.6719 286.072C57.6634 282.978 65.6549 279.81 73.6464 276.565C81.5625 273.321 89.4786 269.926 97.244 266.229C105.009 262.608 112.85 259.062 120.54 255.214C128.23 251.366 135.844 247.367 143.233 242.991C143.384 242.916 143.534 242.916 143.685 242.916C143.836 242.916 143.987 243.067 144.062 243.142C144.138 243.218 144.138 243.293 144.138 243.369C144.138 243.444 144.138 243.52 144.138 243.595C144.138 243.67 144.062 243.746 144.062 243.821C143.911 244.048 143.836 244.048 143.761 244.123Z" fill="#0F385D"/>
<path d="M161.025 79.0457C161.176 78.2913 162.533 78.1404 163.739 78.1404C166.001 78.2158 166.906 78.2158 168.715 78.0649C169.846 76.9332 170.826 75.7261 171.806 74.4435H170.826C169.394 74.4435 167.961 74.2926 166.604 73.9154C166.453 73.9154 166.378 73.8399 166.303 73.7645C166.227 73.689 166.152 73.6136 166.076 73.4627C165.85 73.01 166.529 72.6328 167.056 72.5573L174.219 71.2747C174.596 70.6711 175.048 70.0676 175.35 69.5394C175.726 68.9359 176.254 68.1059 176.707 67.3515L172.937 67.5024C172.56 67.5778 172.108 67.5778 171.731 67.5024C171.354 67.4269 170.901 67.2006 170.6 66.9742C170.524 66.8988 170.449 66.7479 170.374 66.6725C170.298 66.5216 170.298 66.4461 170.298 66.2952C170.298 65.8425 170.751 65.4653 171.203 65.3144C173.012 64.4845 175.048 64.4845 177.008 64.1827C177.611 64.1073 178.214 63.9564 178.742 63.8809C180.024 61.4666 181.23 59.1278 182.361 56.7135C180.25 57.0153 178.139 57.1661 176.028 57.3925C175.651 57.3925 175.123 57.3925 175.123 57.0153C175.123 56.8644 175.123 56.7889 175.199 56.638C175.651 55.7327 176.782 55.4309 177.837 55.28L183.416 54.3746C184.396 52.1112 185.226 49.8478 185.98 47.5089C184.396 47.2826 182.813 46.9054 181.23 46.4527C180.401 46.2264 179.496 45.7737 179.345 44.9438C179.345 44.7929 179.345 44.642 179.421 44.4911C179.496 44.3402 179.571 44.2647 179.722 44.1893C179.873 44.1138 180.099 44.1138 180.25 44.1893C182.361 44.642 184.472 45.0192 186.658 45.1701C187.337 42.7558 187.94 40.266 188.392 37.7763C187.261 38.0026 186.206 38.229 185.075 38.4553C184.849 38.5308 184.623 38.5308 184.472 38.4553C184.396 38.4553 184.321 38.3799 184.246 38.229C184.17 38.1535 184.17 38.0026 184.246 37.9272C184.321 37.8518 184.396 37.7009 184.547 37.7009L188.015 35.8901L188.845 35.4374C189.222 31.9669 189.372 28.5718 189.222 25.1012C186.884 25.0258 183.19 26.6102 181.23 28.0437C181.381 29.8544 181.456 31.5897 181.381 33.4004C181.381 33.7022 181.305 34.0794 181.079 34.3812C181.004 34.5321 180.853 34.6075 180.702 34.683C180.552 34.7584 180.401 34.7584 180.25 34.683C180.024 34.5321 179.798 34.3057 179.722 34.0794C179.27 32.7968 178.893 31.4388 178.742 30.0807C177.536 31.2124 176.33 32.4196 175.199 33.6267C173.465 35.5129 171.806 37.4745 170.298 39.4361C170.298 39.8134 170.374 40.1906 170.449 40.4924C170.826 42.7558 171.957 44.9438 172.032 47.2826C172.032 47.3581 172.032 47.4335 172.032 47.4335C172.032 47.4335 171.957 47.5089 171.957 47.5844C171.881 47.5844 171.806 47.6598 171.731 47.6598C171.655 47.6598 171.58 47.6598 171.505 47.5844C170.826 47.3581 170.223 47.0563 169.771 46.6036C169.318 46.1509 168.866 45.6228 168.564 44.9438C168.263 44.1138 168.112 43.2839 168.037 42.454C167.132 43.6612 166.303 44.8683 165.473 46.1509C165.699 46.679 166.001 47.2072 166.378 47.6598C166.83 48.188 167.283 48.7915 167.66 49.3951C167.961 49.8478 168.037 50.6023 167.509 50.9041C167.358 50.9795 167.132 50.9795 166.981 50.9041C166.83 50.8286 166.604 50.8286 166.453 50.6777C165.549 50.0741 164.719 49.3197 163.89 48.5652L163.815 48.4898C162.608 50.4514 161.402 52.4884 160.422 54.5255C160.724 55.8081 161.176 57.0153 161.628 58.2224C162.081 59.2787 162.533 60.4858 161.93 61.3912C161.854 61.5421 161.779 61.6175 161.628 61.7684C161.477 61.9193 161.327 61.9193 161.176 61.9193C160.95 61.9193 160.799 61.8439 160.573 61.7684C159.819 61.3157 159.216 60.6367 158.839 59.8822C158.613 59.505 158.462 59.2032 158.311 58.826C158.085 59.3541 157.859 59.8068 157.632 60.3349C156.728 62.2965 155.974 64.3336 155.371 66.3707C155.446 66.5216 155.522 66.597 155.522 66.7479C156.577 68.785 157.934 70.822 158.462 73.0854C158.462 73.1609 158.462 73.2363 158.462 73.3118C158.386 73.4627 158.16 73.5381 158.009 73.5381C157.105 73.3872 156.351 72.8591 155.823 72.1801C155.295 71.652 154.843 71.1238 154.315 70.5957C153.637 71.4256 153.335 72.4819 153.335 73.5381C152.807 82.1391 157.406 84.8552 157.406 84.8552C160.573 84.1761 163.513 82.7426 166.001 80.7056C165.247 80.6301 164.493 80.5547 163.739 80.4038C162.156 80.2529 160.874 79.8002 161.025 79.0457Z" fill="#244C69"/>
<path d="M176.782 64.183C177.385 64.1076 177.988 63.9567 178.516 63.8812C179.798 61.4669 181.004 59.1281 182.135 56.7138C180.024 57.0156 177.913 57.1665 175.802 57.3928C175.425 57.3928 174.897 57.3928 174.897 57.0156C174.897 56.8647 174.897 56.7892 174.973 56.6383C175.425 55.733 176.556 55.4312 177.611 55.2803L183.19 54.3749C184.17 52.187 185 49.8481 185.754 47.5847C184.17 47.3584 182.587 46.9811 181.004 46.5284C180.175 46.3021 179.27 45.8494 179.119 45.0195C179.119 44.8686 179.119 44.7177 179.194 44.5668C179.27 44.4159 179.345 44.3405 179.496 44.265C179.647 44.1896 179.873 44.1896 180.024 44.265C182.135 44.7177 184.246 45.095 186.432 45.2458C187.111 42.8315 187.714 40.3418 188.166 37.8521C187.035 38.0784 185.98 38.3047 184.849 38.5311C184.623 38.6065 184.472 38.6065 184.246 38.5311C184.17 38.5311 184.095 38.4556 184.02 38.3047C183.944 38.2293 183.944 38.0784 184.02 38.0029C184.095 37.9275 184.17 37.7766 184.321 37.7766L187.789 35.9659L188.618 35.5132C188.995 32.1181 189.146 28.7984 188.995 25.4033C187.035 27.8176 184.924 31.5145 180.401 38.9838C175.726 46.7548 161.251 74.9719 157.029 84.78C157.105 84.8555 157.255 84.9309 157.331 85.0064C160.497 84.3273 163.438 82.8938 165.926 80.8568C165.172 80.7813 164.418 80.7059 163.664 80.555C162.156 80.3287 160.874 79.876 161.025 79.1215C161.176 78.367 162.533 78.2161 163.739 78.2161C166.001 78.2916 166.906 78.2916 168.715 78.1407C169.846 77.009 170.826 75.8018 171.806 74.5192H170.826C169.394 74.5192 167.961 74.3683 166.604 73.9911C166.453 73.9911 166.378 73.9157 166.302 73.8402C166.227 73.7648 166.152 73.6893 166.076 73.5384C165.85 73.0857 166.529 72.7085 167.056 72.6331L174.219 71.3505C174.596 70.7469 175.048 70.1433 175.349 69.6152C175.726 69.0116 176.254 68.1817 176.707 67.4272L172.937 67.5781C172.56 67.6536 172.108 67.6536 171.731 67.5781C171.354 67.5027 170.901 67.2763 170.6 67.05C170.524 66.9746 170.449 66.8237 170.374 66.7482C170.298 66.6728 170.298 66.5219 170.298 66.371C170.298 65.9183 170.751 65.5411 171.203 65.3902C172.786 64.4848 174.822 64.4848 176.782 64.183Z" fill="#6184F4"/>
<path d="M154.316 90.9666C158.387 80.8568 162.91 71.0487 168.037 61.4669C170.449 56.6383 173.088 51.8852 175.727 47.132C178.366 42.3788 181.08 37.7011 183.869 33.0234C181.155 37.7011 178.441 42.4543 175.878 47.2074C173.239 51.9606 170.751 56.7138 168.338 61.6178C165.926 66.5218 163.513 71.3505 161.252 76.2545C158.99 81.1586 156.879 86.138 154.994 91.2684C154.919 91.3439 154.919 91.4193 154.768 91.4193C154.617 91.4193 154.617 91.4193 154.466 91.4193C154.391 91.4193 154.316 91.3439 154.24 91.2684C154.24 91.193 154.24 91.1175 154.316 90.9666Z" fill="#0F385D"/>
<path d="M233.326 181.503C234.381 181.503 235.06 183.239 235.437 184.898C236.115 187.992 236.417 189.199 237.171 191.538C239.056 192.669 241.091 193.65 243.127 194.48C243.051 194.027 242.901 193.65 242.825 193.198C242.373 191.236 242.147 189.274 242.147 187.313C242.147 187.162 242.147 187.011 242.222 186.785C242.297 186.634 242.373 186.483 242.524 186.332C243.127 185.955 243.73 186.709 244.031 187.313C245.389 190.331 246.746 193.424 248.178 196.442C249.083 196.744 249.987 197.121 250.968 197.423C252.098 197.8 253.154 198.102 254.285 198.479L252.777 193.424C252.475 192.368 252.174 191.085 252.702 190.104C252.777 189.953 252.928 189.802 253.078 189.652C253.229 189.501 253.38 189.425 253.606 189.425C253.908 189.425 254.209 189.501 254.511 189.652C254.812 189.802 255.039 190.029 255.189 190.331C256.923 192.518 257.602 195.235 258.657 197.8C258.959 198.63 259.336 199.309 259.713 200.063C263.332 201.044 266.951 201.874 270.569 202.553C269.514 199.837 268.534 197.045 267.554 194.329C267.403 193.801 267.327 193.122 267.78 192.971C267.931 192.896 268.157 192.896 268.308 192.971C269.665 193.273 270.419 194.782 271.022 196.064L274.037 203.232C277.355 203.76 280.672 204.137 284.064 204.364C283.838 202.1 283.763 199.837 283.914 197.649C283.989 196.517 284.215 195.084 285.271 194.631C285.497 194.556 285.723 194.48 285.949 194.556C286.175 194.631 286.402 194.706 286.552 194.857C286.703 195.084 286.779 195.385 286.703 195.687C286.779 198.705 287.005 201.648 287.532 204.59C291.076 204.741 294.544 204.665 298.087 204.439C297.409 203.006 296.73 201.648 296.127 200.214C295.976 199.988 295.901 199.686 295.901 199.384C295.901 199.082 296.202 198.781 296.504 198.856C296.655 198.931 296.806 199.007 296.881 199.158L300.5 203.232L301.329 204.137C306.079 203.458 310.753 202.477 315.352 201.195C314.673 198.026 311.356 193.575 308.793 191.462C306.38 192.141 304.043 193.047 301.631 193.424C301.178 193.499 300.726 193.499 300.274 193.348C300.047 193.273 299.897 193.122 299.746 192.971C299.595 192.745 299.52 192.518 299.595 192.292C299.67 191.915 299.972 191.613 300.274 191.387C301.857 190.331 303.515 189.425 305.325 188.671C303.44 187.388 301.329 186.181 299.369 185.125C296.278 183.465 293.111 181.88 289.87 180.447C289.417 180.598 288.889 180.749 288.437 180.975C285.497 182.258 282.934 184.446 279.843 185.351C279.767 185.351 279.692 185.426 279.616 185.426C279.541 185.426 279.466 185.426 279.39 185.351C279.239 185.276 279.239 184.974 279.239 184.823C279.315 183.842 279.541 182.937 279.993 182.107C280.446 181.277 281.049 180.522 281.878 179.919C282.858 179.24 283.914 178.712 285.045 178.334C283.084 177.505 281.2 176.826 279.239 176.147C278.561 176.675 278.033 177.278 277.505 177.882C276.902 178.712 276.299 179.542 275.621 180.296C275.093 180.824 274.113 181.201 273.585 180.673C273.434 180.447 273.359 180.221 273.359 179.919C273.359 179.693 273.359 179.391 273.51 179.164C274.037 177.731 274.716 176.373 275.47 175.09C275.47 175.015 275.545 175.015 275.545 174.939C272.454 173.959 269.363 173.129 266.272 172.374C264.689 173.204 263.181 174.185 261.749 175.241C260.542 176.147 259.034 177.203 257.602 176.75C257.376 176.675 257.225 176.599 257.074 176.448C256.923 176.297 256.773 176.147 256.697 175.92C256.622 175.618 256.622 175.317 256.697 175.09C257.074 173.959 257.753 172.902 258.657 172.148C259.034 171.771 259.487 171.393 259.939 171.092C259.185 170.941 258.431 170.79 257.677 170.714C254.737 170.186 251.797 169.884 248.781 169.658L248.404 170.035C245.992 172.223 243.805 174.638 240.94 176.147C240.865 176.222 240.714 176.222 240.639 176.222C240.413 176.222 240.262 175.92 240.187 175.694C239.96 174.487 240.639 173.28 241.242 172.223C241.77 171.393 242.297 170.563 242.825 169.734C241.468 169.13 239.96 169.055 238.603 169.432C226.918 171.544 224.807 178.712 224.807 178.712C226.767 182.71 229.707 186.256 233.326 188.897C233.1 187.841 233.024 186.86 232.949 185.804C232.044 183.465 232.27 181.503 233.326 181.503Z" fill="#6184F4"/>
<path d="M258.582 197.723C258.884 198.553 259.261 199.232 259.638 199.987C263.257 200.968 266.876 201.797 270.494 202.477C269.439 199.76 268.459 196.969 267.479 194.253C267.328 193.725 267.253 193.046 267.705 192.895C267.856 192.819 268.082 192.819 268.233 192.895C269.59 193.197 270.344 194.705 270.947 195.988L273.962 203.156C277.28 203.684 280.597 204.061 283.989 204.287C283.763 202.024 283.688 199.76 283.839 197.572C283.914 196.441 284.14 195.007 285.196 194.555C285.422 194.479 285.648 194.404 285.874 194.479C286.1 194.555 286.327 194.63 286.477 194.781C286.628 195.007 286.704 195.309 286.628 195.611C286.704 198.629 286.93 201.571 287.457 204.514C291.001 204.664 294.469 204.589 298.012 204.363C297.334 202.929 296.655 201.571 296.052 200.138C295.901 199.911 295.826 199.61 295.826 199.308C295.826 199.006 296.127 198.704 296.429 198.78C296.58 198.855 296.731 198.93 296.806 199.081L300.425 203.156L301.254 204.061C305.928 203.457 310.452 202.477 314.975 201.194C311.055 199.383 305.401 197.799 293.79 194.253C281.803 190.556 238.981 180.597 224.43 178.183C224.355 178.334 224.279 178.484 224.279 178.711C226.239 182.709 229.18 186.255 232.799 188.896C232.572 187.84 232.497 186.859 232.422 185.803C232.195 183.766 232.422 181.804 233.477 181.804C234.533 181.804 235.211 183.539 235.588 185.199C236.267 188.292 236.568 189.5 237.322 191.838C239.207 192.97 241.242 193.951 243.278 194.781C243.203 194.328 243.052 193.951 242.976 193.498C242.524 191.537 242.298 189.575 242.298 187.613C242.298 187.463 242.298 187.312 242.373 187.085C242.449 186.934 242.524 186.784 242.675 186.633C243.278 186.255 243.881 187.01 244.183 187.613C245.54 190.631 246.897 193.725 248.329 196.743C249.234 197.044 250.139 197.422 251.119 197.723C252.25 198.101 253.305 198.402 254.436 198.78L252.928 193.725C252.627 192.668 252.325 191.386 252.853 190.405C252.928 190.254 253.079 190.103 253.23 189.952C253.38 189.801 253.531 189.726 253.757 189.726C254.059 189.726 254.361 189.801 254.662 189.952C254.964 190.103 255.19 190.33 255.341 190.631C256.773 192.367 257.527 195.158 258.582 197.723Z" fill="#6184F4"/>
<path d="M215.005 176.448C222.469 177.429 229.857 178.636 237.246 180.145C244.634 181.654 251.947 183.314 259.26 185.049C266.573 186.709 273.886 188.595 281.123 190.632C288.361 192.669 295.599 194.706 302.761 196.894C295.523 194.782 288.286 192.745 281.048 190.859C273.81 188.972 266.498 187.162 259.185 185.577C251.872 183.993 244.559 182.333 237.17 180.975C229.782 179.617 222.393 178.41 214.93 177.58C214.779 177.58 214.703 177.505 214.628 177.429C214.553 177.354 214.477 177.203 214.553 177.052C214.553 176.976 214.553 176.901 214.628 176.901C214.628 176.825 214.703 176.825 214.779 176.75C214.854 176.675 214.854 176.675 214.93 176.675C214.854 176.448 214.93 176.448 215.005 176.448Z" fill="#0F385D"/>
<path d="M166.755 151.4C164.343 145.817 130.869 73.3121 47.4102 45.3213L47.0332 46.5284C132.829 75.3491 165.398 151.475 165.7 152.23L166.83 151.777C166.83 151.777 166.755 151.626 166.755 151.4Z" fill="#59B6D2"/>
<path d="M49.746 46.9055C49.746 46.9055 33.5368 33.0987 30.9735 39.9644C28.4102 46.9055 49.746 46.9055 49.746 46.9055Z" fill="#59B6D2"/>
<path d="M57.2113 49.7721C57.2113 49.7721 59.9254 28.647 52.7632 30.2313C45.601 31.8157 57.2113 49.7721 57.2113 49.7721Z" fill="#59B6D2"/>
<path d="M71.2343 55.8087C71.2343 55.8087 77.9442 35.6644 70.5558 35.8153C63.2428 35.9662 71.2343 55.8087 71.2343 55.8087Z" fill="#59B6D2"/>
<path d="M89.0273 65.4657C89.0273 65.4657 90.0074 44.1897 82.996 46.3776C76.06 48.5656 89.0273 65.4657 89.0273 65.4657Z" fill="#59B6D2"/>
<path d="M110.74 81.3094C110.74 81.3094 120.089 62.2214 112.776 61.3914C105.463 60.5615 110.74 81.3094 110.74 81.3094Z" fill="#59B6D2"/>
<path d="M123.781 92.853C123.781 92.853 131.094 72.8596 123.706 72.8596C116.317 72.7841 123.781 92.853 123.781 92.853Z" fill="#59B6D2"/>
<path d="M127.551 97.0778C127.551 97.0778 108.779 87.1942 107.723 94.4371C106.743 101.68 127.551 97.0778 127.551 97.0778Z" fill="#59B6D2"/>
<path d="M135.316 104.999C135.316 104.999 143.006 85.1567 135.617 85.0058C128.304 84.7795 135.316 104.999 135.316 104.999Z" fill="#59B6D2"/>
<path d="M137.805 108.093C137.805 108.093 118.354 99.4924 117.826 106.811C117.299 114.129 137.805 108.093 137.805 108.093Z" fill="#59B6D2"/>
<path d="M147.607 120.994C147.607 120.994 153.487 100.548 146.174 101.001C138.861 101.529 147.607 120.994 147.607 120.994Z" fill="#59B6D2"/>
<path d="M155.747 133.142C155.747 133.142 162.382 116.468 156.2 116.317C150.093 116.167 155.747 133.142 155.747 133.142Z" fill="#59B6D2"/>
<path d="M150.018 123.937C150.018 123.937 133.055 111.187 130.868 118.203C128.682 125.22 150.018 123.937 150.018 123.937Z" fill="#59B6D2"/>
<path d="M91.3629 67.427C91.3629 67.427 70.1025 67.2761 72.515 74.2172C74.9276 81.1584 91.3629 67.427 91.3629 67.427Z" fill="#59B6D2"/>
<path d="M110.287 80.8574C110.287 80.8574 89.4787 85.2333 93.3237 91.4954C97.1686 97.7575 110.287 80.8574 110.287 80.8574Z" fill="#59B6D2"/>
<path d="M59.7748 50.9805C59.7748 50.9805 38.5898 52.9421 41.7562 59.6569C44.9227 66.2962 59.7748 50.9805 59.7748 50.9805Z" fill="#59B6D2"/>
<path d="M73.4952 56.79C73.4952 56.79 54.3457 66.07 59.6231 71.2004C64.8251 76.2553 73.4952 56.79 73.4952 56.79Z" fill="#59B6D2"/>
<path d="M103.878 76.3299C103.878 76.3299 83.1456 71.5768 84.0503 78.8951C84.955 86.2135 103.878 76.3299 103.878 76.3299Z" fill="#59B6D2"/>
<path d="M98.9022 72.03C98.9022 72.03 106.894 52.3383 99.5807 52.0365C92.1923 51.7347 98.9022 72.03 98.9022 72.03Z" fill="#59B6D2"/>
<path d="M135.014 76.4053C133.506 81.5357 128.003 91.2684 114.734 87.1188C101.465 82.8938 94.3026 67.7289 95.2073 52.7905C96.112 37.852 103.5 25.705 109.23 19.1411C114.96 12.5773 117.599 8.88037 117.825 6.39062C122.197 12.2755 128.757 15.8969 136.22 18.7639C145.795 22.3854 153.033 26.5349 159.139 42.077C165.698 58.8262 157.556 75.1227 151.449 78.6687C143.006 83.4219 135.014 76.4053 135.014 76.4053Z" fill="#6184F4"/>
<path d="M151.451 78.5933C143.083 83.4219 135.016 76.4053 135.016 76.4053C135.016 76.4053 134.94 76.5562 134.94 76.6317C131.171 67.4272 128.155 57.9963 125.893 48.3391C122.35 33.5515 119.561 17.8586 118.053 6.39062C122.425 12.1246 128.909 15.8215 136.297 18.613C145.872 22.2345 153.11 26.384 159.217 41.9261C165.7 58.7508 157.558 75.0473 151.451 78.5933Z" fill="#6184F4"/>
<path d="M137.427 84.6295C137.05 83.9504 136.598 83.3469 136.296 82.6679C135.995 81.9888 135.618 81.3853 135.392 80.7062C134.864 79.4236 134.261 78.0656 133.808 76.7075C133.356 75.3495 132.828 74.0669 132.376 72.7089C131.924 71.4263 131.471 70.0682 131.019 68.7102C129.285 63.3535 127.777 57.9213 126.42 52.4891C124.988 47.0569 123.781 41.5493 122.65 36.0417C121.52 30.5341 120.615 25.0264 120.012 19.4434C120.841 25.0264 121.972 30.4586 123.178 35.9662C124.384 41.3984 125.892 46.8306 127.4 52.1873C128.908 57.544 130.642 62.9008 132.527 68.1821C132.979 69.4646 133.431 70.8227 133.959 72.1807C134.487 73.5388 134.939 74.7459 135.467 76.0285C135.995 77.3111 136.598 78.5937 137.126 79.8009C137.427 80.4044 137.729 81.008 138.106 81.6116C138.407 82.2152 138.784 82.6678 139.161 83.2714L139.237 83.4978C139.387 83.7241 139.463 84.0259 139.387 84.3277C139.312 84.6295 139.161 84.8558 138.935 85.0067C138.709 85.1576 138.407 85.233 138.106 85.1576C137.804 85.0821 137.578 84.9313 137.427 84.6295Z" fill="#224763"/>
<path d="M98.2988 61.9199C99.7313 65.3905 101.842 68.4838 104.481 71.1999C107.044 73.8405 110.135 76.0285 113.603 77.462C115.337 78.141 117.071 78.6691 118.881 78.9709C120.69 79.2727 122.5 79.3482 124.384 79.1973C126.194 79.1218 128.003 78.7446 129.662 78.0656C130.491 77.7638 131.245 77.3111 131.999 76.783C132.376 76.5566 132.677 76.2548 132.979 75.953C133.281 75.6513 133.507 75.3495 133.808 75.0477L135.015 75.7267C134.713 76.1794 134.336 76.5566 133.959 76.9339C133.582 77.3111 133.205 77.6129 132.753 77.8392C131.923 78.3673 131.094 78.8955 130.114 79.1973C128.305 79.8763 126.345 80.2535 124.46 80.2535C124.007 80.329 123.48 80.2535 123.027 80.2535C122.575 80.2535 122.047 80.2535 121.595 80.1781L120.162 80.0272C119.71 79.9517 119.182 79.8763 118.73 79.8008C116.845 79.4236 115.036 78.8955 113.302 78.0656C109.834 76.4812 106.743 74.2178 104.255 71.4262C101.691 68.6347 99.6559 65.3905 98.2988 61.9199Z" fill="#224763"/>
<path d="M100.863 42.1523C101.466 46.3019 102.748 50.3761 104.633 54.1484C106.442 57.9207 108.855 61.3913 111.795 64.4092C114.66 67.427 118.128 69.8413 121.973 71.4257C125.818 73.0101 129.889 73.84 134.036 73.84V75.2735C129.738 75.1981 125.516 74.2173 121.596 72.4065C117.751 70.5958 114.208 68.0306 111.343 64.8619C108.478 61.6931 106.141 58.1471 104.407 54.2993C102.522 50.4515 101.391 46.3774 100.863 42.1523Z" fill="#224763"/>
<path d="M110.286 26.9121C110.06 31.2126 110.588 35.5131 111.794 39.6626C112.925 43.8122 114.433 47.8109 116.317 51.6587C118.127 55.5065 120.389 59.1279 123.027 62.523C124.309 64.1829 125.817 65.6918 127.4 67.1253C128.983 68.4833 130.717 69.5396 132.677 70.2186L132.225 71.5767C130.114 70.7468 128.229 69.5396 126.571 68.0307C124.987 66.5217 123.48 64.9373 122.198 63.2021C119.635 59.7315 117.448 55.9592 115.639 52.0359C113.829 48.1127 112.472 44.0386 111.417 39.8135C110.361 35.5131 109.985 31.2126 110.286 26.9121Z" fill="#224763"/>
<path d="M115.867 25.4033C116.244 27.6667 117.073 29.7792 118.28 31.6654C118.883 32.5708 119.561 33.4761 120.391 34.2306C121.069 34.9851 121.974 35.4378 122.954 35.5132V36.9467C121.672 36.7958 120.466 36.1168 119.637 35.0605C118.883 34.1552 118.204 33.1743 117.677 32.1181C116.697 30.0056 116.093 27.7422 115.867 25.4033Z" fill="#224763"/>
<path d="M157.256 52.5645C156.879 55.5069 156.05 58.3739 154.844 61.09C153.637 63.806 152.054 66.3712 150.169 68.6346C148.209 70.898 145.797 72.7842 143.083 74.1423C140.368 75.4249 137.353 76.1039 134.262 76.1039V74.6704C137.127 74.8213 139.991 74.2932 142.63 73.1615C145.269 71.9543 147.606 70.2945 149.566 68.182C151.526 66.0694 153.185 63.5797 154.467 61.0145C155.824 58.223 156.728 55.4314 157.256 52.5645Z" fill="#224763"/>
<path d="M146.173 31.8916C147.454 35.5131 148.058 39.3608 147.907 43.2086C147.681 50.9797 145.57 58.5243 141.8 65.3146C139.915 68.7851 137.352 71.803 134.261 74.2173L133.432 73.0856C136.447 70.8222 138.935 68.0307 140.82 64.8619C144.74 58.298 147.002 50.9042 147.454 43.2841C147.756 39.4363 147.304 35.5885 146.173 31.8916Z" fill="#224763"/>
<path d="M132 26.083C133.432 29.1763 134.488 32.496 135.091 35.8157C135.77 39.2108 136.147 42.6059 136.222 46.001C136.373 49.4715 136.147 52.8666 135.543 56.3372C135.242 58.0725 134.79 59.7323 134.186 61.3922C133.583 63.1274 132.679 64.6364 131.472 65.9944L130.492 65.0136C131.623 63.8064 132.452 62.4484 133.055 60.9395C133.659 59.3551 134.186 57.7707 134.488 56.1109C135.166 52.7912 135.468 49.3961 135.468 46.001C135.468 42.6059 135.242 39.2108 134.639 35.8157C134.262 32.5714 133.282 29.2518 132 26.083Z" fill="#224763"/>
<path d="M110.815 229.789C115.489 232.429 123.857 239.823 116.921 251.895C109.985 263.966 93.5499 267.663 79.2255 263.589C64.9011 259.439 54.5725 249.707 49.3704 242.69C44.1684 235.674 41.1528 232.279 38.7402 231.524C45.3747 228.506 50.4259 222.923 54.7232 216.208C60.3022 207.607 65.8812 201.496 82.4674 198.856C100.184 195.989 114.358 207.456 116.544 214.247C119.409 223.376 110.815 229.789 110.815 229.789Z" fill="#6184F4"/>
<path d="M116.469 214.172C119.409 223.376 110.814 229.789 110.814 229.789L111.04 229.94C101.315 231.676 91.4386 232.581 81.4869 232.732C66.3332 233.034 50.4255 232.355 38.8906 231.449C45.4497 228.431 50.4255 222.848 54.7229 216.209C60.3018 207.608 65.8808 201.497 82.467 198.856C100.184 195.914 114.358 207.382 116.469 214.172Z" fill="#6184F4"/>
<path d="M119.409 229.11C118.73 229.336 117.976 229.638 117.298 229.789C116.619 229.94 115.865 230.166 115.187 230.317C113.754 230.543 112.397 230.845 110.965 230.996C109.532 231.147 108.175 231.373 106.743 231.524C105.31 231.675 103.953 231.826 102.521 231.977C96.942 232.505 91.2876 232.806 85.7086 233.033C80.1297 233.259 74.4753 233.259 68.8963 233.184C63.3173 233.108 57.663 232.806 52.084 232.278C57.663 232.656 63.2419 232.731 68.8963 232.656C74.5507 232.58 80.0543 232.354 85.6333 231.977C91.2122 231.599 96.7912 231.071 102.295 230.392C103.652 230.241 105.084 230.015 106.441 229.864C107.798 229.638 109.231 229.487 110.588 229.185C111.945 228.883 113.302 228.657 114.659 228.355C115.338 228.204 115.941 227.978 116.619 227.827C117.298 227.676 117.825 227.374 118.429 227.148L118.655 227.073C118.806 226.997 118.956 226.997 119.032 226.997C119.183 226.997 119.333 227.073 119.409 227.073C119.559 227.148 119.635 227.223 119.71 227.299C119.786 227.374 119.861 227.525 119.936 227.676C120.012 227.827 120.012 227.978 120.012 228.053C120.012 228.204 119.936 228.355 119.936 228.431C119.861 228.581 119.786 228.657 119.71 228.732C119.635 229.034 119.559 229.11 119.409 229.11Z" fill="#224763"/>
<path d="M88.8008 262.533C92.495 261.854 95.963 260.42 99.2048 258.458C102.371 256.497 105.085 253.932 107.272 250.914C108.327 249.405 109.232 247.745 109.835 246.085C110.514 244.35 110.966 242.615 111.343 240.804C111.644 238.993 111.644 237.182 111.343 235.372C111.192 234.466 110.891 233.636 110.514 232.806C110.363 232.429 110.137 232.052 109.91 231.675C109.684 231.298 109.458 230.996 109.157 230.694L110.137 229.638C110.514 230.015 110.815 230.468 111.117 230.92C111.343 231.373 111.569 231.826 111.795 232.278C112.172 233.184 112.474 234.165 112.625 235.145C112.926 237.032 112.851 238.993 112.474 240.879C112.398 241.332 112.248 241.785 112.172 242.313C112.097 242.765 111.946 243.218 111.795 243.671L111.343 245.029C111.192 245.482 110.966 245.934 110.815 246.387C110.061 248.122 109.081 249.782 107.95 251.291C105.688 254.309 102.824 256.874 99.5064 258.76C96.1138 260.646 92.5704 261.929 88.8008 262.533Z" fill="#224763"/>
<path d="M70.1035 255.743C74.3254 256.045 78.5474 255.667 82.6185 254.611C86.6897 253.63 90.61 251.97 94.1534 249.782C97.6968 247.595 100.788 244.728 103.2 241.332C105.613 237.937 107.272 234.09 108.101 230.091L109.458 230.393C108.478 234.618 106.593 238.541 104.03 241.936C101.466 245.331 98.1492 248.198 94.455 250.311C90.7608 252.423 86.7651 254.007 82.6185 254.913C78.5474 255.969 74.3254 256.195 70.1035 255.743Z" fill="#224763"/>
<path d="M57.2109 243.294C61.3575 244.426 65.6548 244.803 69.9521 244.577C74.2494 244.35 78.4714 243.747 82.6179 242.766C86.7644 241.785 90.8356 240.352 94.6052 238.541C96.49 237.635 98.2994 236.504 100.033 235.221C101.692 234.014 103.124 232.505 104.18 230.694L105.386 231.373C104.18 233.26 102.597 234.844 100.712 236.127C98.9025 237.409 97.0177 238.465 95.0575 239.371C91.1372 241.106 86.9906 242.464 82.6933 243.369C78.4714 244.275 74.174 244.727 69.8767 244.878C65.6548 245.029 61.3575 244.501 57.2109 243.294Z" fill="#224763"/>
<path d="M56.9844 237.485C59.2461 237.56 61.5079 237.259 63.6188 236.429C64.6743 236.051 65.6544 235.523 66.5591 234.92C67.3884 234.392 67.9916 233.637 68.2931 232.656L69.6502 232.958C69.1978 234.241 68.2931 235.221 67.0868 235.825C66.0314 236.429 64.9759 236.806 63.7696 237.108C61.5833 237.711 59.2461 237.862 56.9844 237.485Z" fill="#224763"/>
<path d="M92.2676 202.93C95.0571 203.91 97.6958 205.344 100.033 207.079C102.445 208.815 104.556 210.927 106.366 213.266C108.175 215.68 109.532 218.396 110.211 221.339C110.889 224.281 110.889 227.374 110.286 230.392L108.929 230.091C109.683 227.299 109.758 224.432 109.231 221.641C108.628 218.774 107.497 216.133 105.838 213.719C104.179 211.304 102.144 209.192 99.8821 207.381C97.545 205.495 94.9817 203.986 92.2676 202.93Z" fill="#224763"/>
<path d="M69.8008 209.343C73.6458 208.89 77.4907 209.117 81.1849 210.173C88.7241 212.059 95.6601 215.756 101.39 220.886C104.406 223.452 106.818 226.62 108.552 230.166L107.27 230.695C105.763 227.299 103.501 224.206 100.787 221.641C95.2077 216.435 88.4979 212.587 81.1849 210.475C77.4907 209.419 73.6458 209.041 69.8008 209.343Z" fill="#224763"/>
<path d="M61.0547 221.867C64.3719 221.188 67.8399 220.811 71.2326 220.962C74.6252 221.037 78.0932 221.414 81.4858 222.018C84.8784 222.622 88.1957 223.602 91.3621 224.885C92.9453 225.564 94.5286 226.318 96.0364 227.299C97.5442 228.205 98.9013 229.487 100.032 230.921L98.8259 231.751C97.9212 230.393 96.7149 229.261 95.3579 228.356C94.0008 227.375 92.493 226.62 90.9852 225.941C87.8941 224.583 84.6523 223.527 81.335 222.848C78.0178 222.093 74.6252 221.641 71.2326 221.414C67.8399 221.113 64.4473 221.264 61.0547 221.867Z" fill="#224763"/>
<path d="M235.436 91.3446C231.666 91.3446 223.976 89.5338 224.127 79.6503C224.278 69.7668 233.25 61.9203 243.503 59.5814C252.097 57.7707 261.144 58.7515 269.136 62.373C274.715 64.9381 277.731 66.0699 279.54 65.6926C276.449 69.8422 275.243 74.9726 274.79 80.6311C274.263 87.874 272.83 93.5325 263.557 100.851C253.53 108.622 240.864 106.358 237.245 102.888C232.345 98.2102 235.436 91.3446 235.436 91.3446Z" fill="#6184F4"/>
<path d="M237.246 102.963C232.27 98.2102 235.436 91.3445 235.436 91.3445H235.21C240.638 86.9686 246.444 83.0454 252.55 79.5748C261.899 74.2181 271.926 69.2386 279.39 65.9189C276.374 70.0685 275.168 75.1235 274.791 80.782C274.263 88.0249 272.831 93.6834 263.557 101.002C253.53 108.697 240.865 106.358 237.246 102.963Z" fill="#6184F4"/>
<path d="M230.384 94.6638C231.741 93.1549 233.325 91.7968 234.983 90.5897C236.567 89.3825 238.225 88.1754 239.884 87.1191C243.201 84.8557 246.518 82.8187 249.986 80.7816C253.379 78.7445 256.847 76.7829 260.39 74.9722C263.934 73.1615 267.477 71.3507 271.096 69.8418C267.477 71.5016 263.934 73.3878 260.541 75.274C257.148 77.2356 253.68 79.2727 250.363 81.3852C247.046 83.5731 243.729 85.6856 240.562 88.0245C238.979 89.1562 237.396 90.4388 235.888 91.5705C234.38 92.7022 232.948 94.0603 231.666 95.4937L231.591 95.5692C231.515 95.6446 231.44 95.7201 231.364 95.7955C231.289 95.871 231.214 95.871 231.063 95.871C230.912 95.871 230.837 95.871 230.761 95.871C230.686 95.871 230.535 95.7955 230.46 95.7201C230.384 95.6446 230.309 95.5692 230.234 95.4937C230.158 95.4183 230.158 95.2674 230.158 95.1919C230.158 95.1165 230.158 94.9656 230.234 94.8902C230.309 94.8147 230.309 94.8147 230.384 94.6638Z" fill="#224763"/>
<path d="M237.999 63.5791C237.019 64.409 236.039 65.3898 235.21 66.3706C234.38 67.3514 233.627 68.4831 232.948 69.6149C231.666 71.8783 230.837 74.4435 230.535 77.0086C230.309 79.5738 230.611 82.2145 231.516 84.7042C231.893 85.9114 232.571 87.0431 233.325 88.0239C233.702 88.4766 234.154 88.9292 234.682 89.3065C235.134 89.6837 235.662 89.9855 236.265 90.1364L236.039 91.1172C235.361 90.8909 234.682 90.5136 234.154 90.061C233.627 89.6083 233.099 89.0801 232.722 88.552C231.893 87.4203 231.289 86.2132 230.912 84.9306C230.083 82.3654 229.782 79.6493 230.159 76.9332C230.535 74.2926 231.44 71.7274 232.873 69.464C233.551 68.3323 234.38 67.276 235.285 66.2952C236.039 65.2389 237.019 64.3336 237.999 63.5791Z" fill="#224763"/>
<path d="M251.873 61.3916C249.159 62.5988 246.671 64.334 244.485 66.2956C242.299 68.2573 240.414 70.5961 238.906 73.2368C237.474 75.802 236.493 78.5935 236.192 81.5359C235.89 84.4784 236.192 87.4208 237.021 90.2123L236.041 90.5141C235.287 87.5717 235.061 84.4783 235.513 81.4605C235.966 78.4426 237.021 75.5756 238.529 73.0104C240.112 70.4452 242.072 68.1064 244.334 66.1448C246.596 64.1077 249.159 62.5233 251.873 61.3916Z" fill="#224763"/>
<path d="M264.161 64.7119C261.221 65.4664 258.356 66.5981 255.793 68.2579C253.229 69.8423 250.742 71.653 248.555 73.6901C246.293 75.7272 244.258 77.9906 242.524 80.4049C241.695 81.612 240.941 82.8946 240.262 84.2527C239.659 85.6107 239.282 87.0442 239.207 88.4777H238.227C238.377 86.8933 238.754 85.3844 239.508 83.9509C240.187 82.5928 240.941 81.2348 241.921 79.9522C243.73 77.4624 245.841 75.2745 248.178 73.3129C250.515 71.3512 253.003 69.5405 255.642 68.0316C258.281 66.5226 261.146 65.3909 264.161 64.7119Z" fill="#224763"/>
<path d="M266.273 68.2568C264.841 68.9359 263.559 69.9167 262.504 71.1238C261.976 71.7274 261.524 72.331 261.222 73.0854C260.845 73.689 260.77 74.368 260.92 75.0471L259.94 75.3488C259.79 74.4435 260.016 73.4627 260.544 72.7082C260.996 72.0292 261.524 71.3502 262.127 70.822C263.333 69.6903 264.69 68.785 266.273 68.2568Z" fill="#224763"/>
<path d="M256.094 101.681C254.059 101.982 251.948 102.058 249.837 101.756C247.726 101.53 245.69 100.926 243.806 100.096C241.845 99.1908 240.111 97.9836 238.679 96.3993C237.247 94.8149 236.191 92.9287 235.588 90.8162L236.568 90.5898C237.096 92.5515 238 94.3622 239.282 95.9466C240.564 97.5309 242.222 98.8135 244.032 99.7189C245.841 100.624 247.877 101.303 249.912 101.605C251.948 101.907 253.983 101.982 256.094 101.681Z" fill="#224763"/>
<path d="M267.854 90.0613C265.668 91.6457 263.18 92.8529 260.541 93.4564C257.903 94.1355 255.189 94.5127 252.474 94.5127C249.76 94.5881 247.046 94.2864 244.332 93.6828C241.618 93.0792 239.055 91.9475 236.793 90.3631L237.396 89.5332C239.507 91.1176 241.92 92.2493 244.558 92.9283C249.76 94.2864 255.264 94.3618 260.466 93.1547C263.105 92.6265 265.593 91.5703 267.854 90.0613Z" fill="#224763"/>
<path d="M268.986 79.2725C267.176 80.8568 265.141 82.2149 262.955 83.2711C260.768 84.4028 258.582 85.3082 256.245 86.0627C253.908 86.8171 251.57 87.3453 249.083 87.6471C247.876 87.798 246.595 87.798 245.388 87.7225L244.484 87.6471C244.182 87.5716 243.88 87.4962 243.579 87.4207C242.976 87.2698 242.373 87.0435 241.77 86.8171L242.222 85.9118C244.257 86.8926 246.67 87.0435 249.083 86.8171C251.495 86.5908 253.832 86.1381 256.094 85.4591C258.431 84.7801 260.617 83.9502 262.804 82.8939C265.066 82.064 267.101 80.7814 268.986 79.2725Z" fill="#224763"/>
<path d="M245.841 208.287C243.203 205.496 239.207 198.781 246.444 192.066C253.682 185.351 265.519 186.332 274.339 192.217C281.577 197.197 287.081 204.364 290.021 212.663C292.056 218.548 293.338 221.415 294.846 222.471C289.719 223.075 285.196 225.791 280.823 229.412C275.244 234.015 270.117 236.957 258.432 235.222C245.841 233.411 238.754 222.622 238.754 217.643C238.679 210.777 245.841 208.287 245.841 208.287Z" fill="#6184F4"/>
<path d="M238.754 217.642C238.754 210.776 245.916 208.287 245.916 208.287L245.765 208.136C252.701 209.041 259.562 210.55 266.272 212.512C276.6 215.53 287.155 219.377 294.77 222.471C289.719 223.15 285.195 225.79 280.822 229.412C275.243 234.014 270.117 236.956 258.431 235.221C245.841 233.41 238.754 222.622 238.754 217.642Z" fill="#6184F4"/>
<path d="M239.96 206.929C241.995 206.853 244.031 207.079 246.066 207.457C248.027 207.758 250.062 208.136 251.947 208.588C255.792 209.418 259.712 210.399 263.482 211.455C267.327 212.512 271.097 213.643 274.866 214.926C278.636 216.208 282.33 217.567 285.949 219.151C282.254 217.717 278.485 216.435 274.715 215.303C270.946 214.171 267.101 213.115 263.256 212.21C259.411 211.304 255.566 210.399 251.645 209.72C249.685 209.343 247.725 209.041 245.84 208.815C243.956 208.513 241.995 208.362 240.111 208.513H240.035C239.809 208.513 239.658 208.437 239.507 208.362C239.357 208.211 239.281 208.06 239.281 207.834C239.281 207.608 239.357 207.457 239.432 207.306C239.507 207.079 239.658 206.929 239.96 206.929Z" fill="#224763"/>
<path d="M267.628 190.934C266.347 190.783 264.99 190.783 263.633 190.859C262.351 190.934 260.994 191.161 259.712 191.462C257.149 192.141 254.736 193.273 252.701 194.858C250.665 196.442 249.007 198.479 247.8 200.818C247.197 201.95 246.82 203.157 246.67 204.439C246.594 205.043 246.594 205.722 246.67 206.325C246.745 206.929 246.896 207.457 247.122 208.061L246.217 208.589C245.916 207.91 245.765 207.231 245.689 206.476C245.614 205.797 245.689 205.118 245.765 204.364C245.991 203.006 246.443 201.723 247.122 200.516C248.404 198.102 250.213 196.065 252.399 194.48C254.586 192.896 257.074 191.84 259.637 191.236C260.919 190.934 262.276 190.783 263.633 190.708C264.99 190.633 266.347 190.708 267.628 190.934Z" fill="#224763"/>
<path d="M278.861 199.459C273.282 197.271 267.251 196.894 261.446 198.327C258.581 199.006 255.867 200.289 253.53 202.1C251.193 203.91 249.308 206.098 247.8 208.663L246.971 208.135C248.554 205.57 250.665 203.307 253.077 201.496C255.565 199.761 258.355 198.478 261.295 197.875C264.235 197.196 267.251 197.045 270.191 197.346C273.132 197.573 276.072 198.252 278.861 199.459Z" fill="#224763"/>
<path d="M284.893 210.625C282.33 208.965 279.54 207.758 276.6 207.079C273.66 206.325 270.644 205.796 267.628 205.57C264.613 205.344 261.597 205.419 258.657 205.872C257.149 206.098 255.716 206.475 254.284 206.928C252.927 207.381 251.645 208.135 250.514 209.116L249.836 208.362C251.042 207.381 252.475 206.551 253.982 206.098C255.415 205.646 256.998 205.268 258.506 205.117C261.522 204.74 264.613 204.74 267.704 205.042C270.719 205.344 273.735 205.947 276.675 206.777C279.54 207.607 282.33 208.89 284.893 210.625Z" fill="#224763"/>
<path d="M283.837 214.549C282.329 214.021 280.746 213.795 279.163 213.87C278.409 213.87 277.58 214.021 276.901 214.247C276.223 214.398 275.62 214.851 275.243 215.379L274.338 214.926C274.866 214.172 275.77 213.644 276.675 213.568C277.504 213.417 278.334 213.342 279.163 213.417C280.746 213.417 282.329 213.87 283.837 214.549Z" fill="#224763"/>
<path d="M252.627 230.393C250.969 229.11 249.461 227.602 248.255 225.942C246.973 224.282 245.993 222.396 245.314 220.359C244.636 218.322 244.334 216.209 244.41 214.097C244.561 211.984 245.239 209.872 246.295 207.985L247.124 208.513C246.068 210.249 245.39 212.135 245.164 214.172C244.937 216.209 245.164 218.246 245.767 220.208C246.37 222.169 247.275 224.056 248.481 225.791C249.612 227.526 251.044 229.035 252.627 230.393Z" fill="#224763"/>
<path d="M269.213 230.771C266.574 230.318 264.011 229.262 261.674 227.828C256.999 224.961 253.079 221.038 250.289 216.285C248.857 213.946 247.877 211.305 247.5 208.514L248.48 208.438C248.782 211.079 249.611 213.644 250.968 215.908C253.607 220.585 257.301 224.584 261.824 227.602C264.011 229.186 266.499 230.243 269.213 230.771Z" fill="#224763"/>
<path d="M277.732 224.206C275.319 223.98 272.907 223.452 270.645 222.622C268.383 221.867 266.121 220.886 264.01 219.755C261.824 218.623 259.788 217.265 257.904 215.756C256.923 215.002 256.094 214.096 255.265 213.191L254.662 212.436C254.511 212.21 254.36 211.908 254.134 211.606C253.832 211.078 253.531 210.475 253.305 209.871L254.285 209.569C254.963 211.682 256.622 213.568 258.356 215.152C260.165 216.737 262.125 218.095 264.161 219.302C266.272 220.509 268.383 221.565 270.645 222.395C272.982 223.225 275.319 223.904 277.732 224.206Z" fill="#224763"/>
<path d="M145.119 140.083C141.5 139.404 93.0232 131.482 49.9746 164.377L50.427 164.981C94.6818 131.181 144.666 140.762 145.194 140.913L145.345 140.159L145.119 140.083Z" fill="#59B6D2"/>
<path d="M51.6316 163.697C51.6316 163.697 39.0413 167.168 41.68 170.865C44.2433 174.562 51.6316 163.697 51.6316 163.697Z" fill="#59B6D2"/>
<path d="M55.628 160.831C55.628 160.831 45.8271 152.155 44.1684 156.38C42.5098 160.605 55.628 160.831 55.628 160.831Z" fill="#59B6D2"/>
<path d="M63.5443 155.851C63.5443 155.851 55.5528 145.515 53.1403 149.287C50.7277 153.06 63.5443 155.851 63.5443 155.851Z" fill="#59B6D2"/>
<path d="M74.6271 150.042C74.6271 150.042 64.1477 142.196 62.866 146.496C61.509 150.872 74.6271 150.042 74.6271 150.042Z" fill="#59B6D2"/>
<path d="M90.1573 144.459C90.1573 144.459 83.6736 133.142 80.7333 136.537C77.7931 140.007 90.1573 144.459 90.1573 144.459Z" fill="#59B6D2"/>
<path d="M100.487 141.818C100.487 141.818 92.7974 131.255 90.3095 134.952C87.7462 138.649 100.487 141.818 100.487 141.818Z" fill="#59B6D2"/>
<path d="M103.954 141.289C103.954 141.289 92.4194 147.476 95.812 150.494C99.2047 153.511 103.954 141.289 103.954 141.289Z" fill="#59B6D2"/>
<path d="M110.664 140.083C110.664 140.083 103.2 129.369 100.561 133.066C97.9979 136.763 110.664 140.083 110.664 140.083Z" fill="#59B6D2"/>
<path d="M113.076 139.932C113.076 139.932 101.993 146.873 105.537 149.664C109.156 152.456 113.076 139.932 113.076 139.932Z" fill="#59B6D2"/>
<path d="M123.027 139.328C123.027 139.328 114.659 129.294 112.397 133.141C110.135 137.065 123.027 139.328 123.027 139.328Z" fill="#59B6D2"/>
<path d="M132.074 139.403C132.074 139.403 125.892 130.274 123.63 133.367C121.444 136.385 132.074 139.403 132.074 139.403Z" fill="#59B6D2"/>
<path d="M125.366 139.178C125.366 139.178 113.001 143.478 115.866 146.949C118.731 150.495 125.366 139.178 125.366 139.178Z" fill="#59B6D2"/>
<path d="M76.4346 149.589C76.4346 149.589 69.0462 160.378 73.4189 161.509C77.7916 162.641 76.4346 149.589 76.4346 149.589Z" fill="#59B6D2"/>
<path d="M89.7796 144.534C89.7796 144.534 84.8038 156.681 89.3272 156.832C93.8507 157.058 89.7796 144.534 89.7796 144.534Z" fill="#59B6D2"/>
<path d="M57.1365 160.001C57.1365 160.001 50.879 171.469 55.3271 172.148C59.7752 172.827 57.1365 160.001 57.1365 160.001Z" fill="#59B6D2"/>
<path d="M64.8261 155.021C64.8261 155.021 63.0167 167.998 67.3894 167.093C71.7621 166.112 64.8261 155.021 64.8261 155.021Z" fill="#59B6D2"/>
<path d="M85.2573 146.194C85.2573 146.194 75.6826 155.097 79.6783 157.21C83.7495 159.247 85.2573 146.194 85.2573 146.194Z" fill="#59B6D2"/>
<path d="M81.3367 147.326C81.3367 147.326 74.0237 136.461 71.385 140.083C68.7463 143.704 81.3367 147.326 81.3367 147.326Z" fill="#59B6D2"/>
<path d="M217.57 96.4741C218.851 93.0036 236.719 47.2073 286.93 26.9121L287.231 27.5911C235.664 48.4899 218.399 96.3987 218.248 96.9268L217.494 96.7005C217.57 96.5496 217.57 96.4741 217.57 96.4741Z" fill="#59B6D2"/>
<path d="M285.498 27.8928C285.498 27.8928 294.922 18.8392 296.731 22.9887C298.616 27.1383 285.498 27.8928 285.498 27.8928Z" fill="#59B6D2"/>
<path d="M281.05 29.9298C281.05 29.9298 278.637 17.1039 283.085 17.7829C287.533 18.4619 281.05 29.9298 281.05 29.9298Z" fill="#59B6D2"/>
<path d="M272.68 34.1547C272.68 34.1547 267.855 22.0077 272.378 21.8568C276.827 21.7059 272.68 34.1547 272.68 34.1547Z" fill="#59B6D2"/>
<path d="M262.051 40.7952C262.051 40.7952 260.618 27.8184 264.991 28.8746C269.439 29.9309 262.051 40.7952 262.051 40.7952Z" fill="#59B6D2"/>
<path d="M249.385 51.3575C249.385 51.3575 242.977 39.965 247.425 39.2106C251.873 38.4561 249.385 51.3575 249.385 51.3575Z" fill="#59B6D2"/>
<path d="M241.769 58.9008C241.769 58.9008 236.567 46.9048 241.091 46.603C245.614 46.3012 241.769 58.9008 241.769 58.9008Z" fill="#59B6D2"/>
<path d="M239.584 61.6183C239.584 61.6183 250.742 54.8281 251.647 59.204C252.551 63.6554 239.584 61.6183 239.584 61.6183Z" fill="#59B6D2"/>
<path d="M235.136 66.7485C235.136 66.7485 229.708 54.8279 234.156 54.4506C238.679 54.0734 235.136 66.7485 235.136 66.7485Z" fill="#59B6D2"/>
<path d="M233.703 68.7862C233.703 68.7862 245.313 62.7505 245.917 67.2773C246.52 71.7286 233.703 68.7862 233.703 68.7862Z" fill="#59B6D2"/>
<path d="M228.198 77.084C228.198 77.084 223.826 64.7861 228.349 64.7861C232.873 64.7861 228.198 77.084 228.198 77.084Z" fill="#59B6D2"/>
<path d="M223.6 84.78C223.6 84.78 218.926 74.821 222.696 74.4438C226.465 74.142 223.6 84.78 223.6 84.78Z" fill="#59B6D2"/>
<path d="M226.842 78.9705C226.842 78.9705 236.794 70.5205 238.377 74.7455C239.96 78.9705 226.842 78.9705 226.842 78.9705Z" fill="#59B6D2"/>
<path d="M260.768 42.0766C260.768 42.0766 273.81 41.1712 272.529 45.5471C271.322 49.8476 260.768 42.0766 260.768 42.0766Z" fill="#59B6D2"/>
<path d="M249.611 51.0547C249.611 51.0547 262.579 52.9409 260.392 56.9395C258.206 60.9382 249.611 51.0547 249.611 51.0547Z" fill="#59B6D2"/>
<path d="M279.541 30.8359C279.541 30.8359 292.584 31.2886 290.925 35.4382C289.191 39.6632 279.541 30.8359 279.541 30.8359Z" fill="#59B6D2"/>
<path d="M271.248 34.835C271.248 34.835 283.311 39.8145 280.295 43.1341C277.279 46.5292 271.248 34.835 271.248 34.835Z" fill="#59B6D2"/>
<path d="M253.379 47.9623C253.379 47.9623 265.894 44.2654 265.668 48.7922C265.366 53.2436 253.379 47.9623 253.379 47.9623Z" fill="#59B6D2"/>
<path d="M256.246 45.1708C256.246 45.1708 250.592 33.401 255.115 32.9484C259.639 32.4957 256.246 45.1708 256.246 45.1708Z" fill="#59B6D2"/>
<path d="M224.128 197.573C226.314 194.631 256.396 155.775 310.301 150.494L310.376 151.324C254.963 156.756 224.957 197.875 224.656 198.252L224.053 197.799L224.128 197.573Z" fill="#59B6D2"/>
<path d="M308.643 151.098C308.643 151.098 320.253 145.062 320.856 149.513C321.459 153.889 308.643 151.098 308.643 151.098Z" fill="#59B6D2"/>
<path d="M303.816 151.702C303.816 151.702 305.098 138.725 309.169 140.611C313.24 142.497 303.816 151.702 303.816 151.702Z" fill="#59B6D2"/>
<path d="M294.543 153.436C294.543 153.436 293.337 140.384 297.71 141.516C302.082 142.648 294.543 153.436 294.543 153.436Z" fill="#59B6D2"/>
<path d="M282.557 156.757C282.557 156.757 284.894 143.856 288.814 146.119C292.659 148.382 282.557 156.757 282.557 156.757Z" fill="#59B6D2"/>
<path d="M267.402 163.244C267.402 163.244 264.462 150.494 268.91 151.022C273.358 151.55 267.402 163.244 267.402 163.244Z" fill="#59B6D2"/>
<path d="M257.979 168.376C257.979 168.376 256.395 155.399 260.768 156.38C265.141 157.361 257.979 168.376 257.979 168.376Z" fill="#59B6D2"/>
<path d="M255.113 170.337C255.113 170.337 267.779 167.017 267.327 171.544C266.874 175.995 255.113 170.337 255.113 170.337Z" fill="#59B6D2"/>
<path d="M249.385 174.033C249.385 174.033 247.5 161.056 251.948 162.037C256.321 162.867 249.385 174.033 249.385 174.033Z" fill="#59B6D2"/>
<path d="M247.424 175.543C247.424 175.543 260.24 173.053 259.562 177.504C258.883 182.031 247.424 175.543 247.424 175.543Z" fill="#59B6D2"/>
<path d="M239.811 181.955C239.811 181.955 239.132 168.903 243.429 170.185C247.727 171.468 239.811 181.955 239.811 181.955Z" fill="#59B6D2"/>
<path d="M233.176 188.066C233.176 188.066 231.517 177.202 235.212 177.956C238.906 178.711 233.176 188.066 233.176 188.066Z" fill="#59B6D2"/>
<path d="M237.924 183.389C237.924 183.389 249.836 178.108 250.213 182.559C250.59 187.011 237.924 183.389 237.924 183.389Z" fill="#59B6D2"/>
<path d="M280.898 157.661C280.898 157.661 293.64 160.528 291.227 164.3C288.815 168.073 280.898 157.661 280.898 157.661Z" fill="#59B6D2"/>
<path d="M267.703 163.094C267.703 163.094 279.615 168.601 276.449 171.846C273.207 175.014 267.703 163.094 267.703 163.094Z" fill="#59B6D2"/>
<path d="M302.084 152.154C302.084 152.154 314.524 156.304 311.734 159.85C308.945 163.32 302.084 152.154 302.084 152.154Z" fill="#59B6D2"/>
<path d="M293.037 153.663C293.037 153.663 303.215 161.887 299.37 164.226C295.525 166.565 293.037 153.663 293.037 153.663Z" fill="#59B6D2"/>
<path d="M272.152 161.207C272.152 161.207 285.195 161.207 283.687 165.432C282.179 169.733 272.152 161.207 272.152 161.207Z" fill="#59B6D2"/>
<path d="M275.697 159.322C275.697 159.322 273.586 146.42 278.11 147.25C282.633 148.08 275.697 159.322 275.697 159.322Z" fill="#59B6D2"/>
<path d="M273.886 119.485L271.172 116.317C268.986 113.827 265.97 112.318 262.653 112.092C259.411 111.865 256.169 112.922 253.681 115.109L227.37 138.121C224.882 140.309 223.374 143.327 223.148 146.646C222.921 149.89 224.052 153.135 226.163 155.624L228.877 158.718C231.064 161.207 234.079 162.716 237.397 162.943C240.638 163.169 243.88 162.113 246.368 159.925L272.68 136.914C275.168 134.726 276.676 131.708 276.902 128.464C277.128 125.219 276.073 121.975 273.886 119.485Z" fill="#D87C4D"/>
<path d="M228.954 158.719C231.14 161.208 234.156 162.717 237.473 162.944C240.715 163.17 243.956 162.038 246.444 159.926L272.756 136.915C274.565 135.33 275.847 133.293 276.526 130.954C265.669 132.161 255.341 124.919 252.174 116.544L227.446 138.122C224.958 140.31 223.45 143.328 223.224 146.647C222.998 149.891 224.129 153.136 226.239 155.625L228.954 158.719Z" fill="#EEAA68"/>
<path d="M123.329 347.788C123.329 347.788 152.506 343.186 163.89 337.075C184.095 326.211 191.709 317.534 193.745 309.31C197.288 294.976 138.106 293.24 138.106 293.24L101.164 333.529L123.329 347.788Z" fill="#D87C4D"/>
<path d="M117.977 325.456C126.119 318.137 159.216 318.665 172.183 320.778C185.075 322.89 188.92 318.665 188.92 318.665C188.92 318.665 192.614 314.591 192.69 312.403C173.389 312.705 129.964 313.233 129.964 313.233C126.27 317.534 122.274 321.608 117.977 325.456Z" fill="#BA6040"/>
<path d="M254.209 97.0771H250.967V128.614H254.209C254.661 128.614 255.113 128.463 255.415 128.086C255.716 127.784 255.943 127.331 255.943 126.879V98.8879C255.943 98.6615 255.943 98.4352 255.792 98.2089C255.641 97.9825 255.566 97.8316 255.415 97.6053C255.264 97.3789 255.038 97.3035 254.812 97.228C254.736 97.1526 254.51 97.0771 254.209 97.0771Z" fill="#5E605F"/>
<path d="M254.209 134.047H250.967V153.059H254.209C254.435 153.059 254.661 152.984 254.887 152.909C255.113 152.833 255.264 152.682 255.49 152.531C255.641 152.38 255.792 152.154 255.867 151.928C255.943 151.701 256.018 151.475 256.018 151.249V135.707C256.018 135.48 255.943 135.254 255.867 135.028C255.792 134.801 255.641 134.65 255.49 134.424C255.34 134.273 255.113 134.122 254.887 134.047C254.736 134.047 254.51 134.047 254.209 134.047Z" fill="#5E605F"/>
<path d="M236.191 52.6396H122.5C113.076 52.6396 105.537 60.2598 105.537 69.6152V297.993C105.537 307.424 113.152 314.968 122.5 314.968H236.266C245.69 314.968 253.229 307.348 253.229 297.993V69.6152C253.229 60.2598 245.615 52.6396 236.191 52.6396Z" fill="#666665"/>
<path d="M234.682 58.2979H124.008C117.222 58.2979 111.719 63.8055 111.719 70.5957V296.257C111.719 303.048 117.222 308.555 124.008 308.555H234.682C241.468 308.555 246.971 303.048 246.971 296.257V70.5957C246.971 63.8055 241.468 58.2979 234.682 58.2979Z" fill="#434442"/>
<path d="M232.572 59.8828H126.119C119.334 59.8828 113.83 65.3904 113.83 72.1807V294.674C113.83 301.464 119.334 306.971 126.119 306.971H232.572C239.357 306.971 244.861 301.464 244.861 294.674V72.1807C244.861 65.3904 239.357 59.8828 232.572 59.8828Z" fill="#6184F4"/>
<path d="M233.475 86.9678H208.445V89.3821H233.475V86.9678Z" fill="#FFFDF0"/>
<path d="M233.475 94.6631H208.445V97.0774H233.475V94.6631Z" fill="#FFFDF0"/>
<path d="M233.477 102.436H188.393V104.85H233.477V102.436Z" fill="#FFFDF0"/>
<path d="M233.477 110.131H188.393V112.545H233.477V110.131Z" fill="#FFFDF0"/>
<path d="M196.988 99.8692C201.277 99.8692 204.753 96.39 204.753 92.0982C204.753 87.8064 201.277 84.3271 196.988 84.3271C192.699 84.3271 189.223 87.8064 189.223 92.0982C189.223 96.39 192.699 99.8692 196.988 99.8692Z" fill="#FFFDF0"/>
<path d="M196.309 95.5693V94.2112L198.646 92.0233C198.797 91.8724 198.872 91.7215 198.947 91.646C199.023 91.5706 199.098 91.4197 199.098 91.3442C199.098 91.2688 199.098 91.1933 199.098 91.1179C199.098 90.967 199.023 90.8161 198.947 90.7407C198.872 90.6652 198.721 90.5898 198.495 90.5898C198.269 90.5898 198.118 90.6652 197.967 90.7407C197.816 90.8161 197.666 90.967 197.59 91.1933L195.932 90.3634C196.158 89.9107 196.535 89.5335 196.987 89.3072C197.44 89.0054 198.043 88.8545 198.721 88.8545C199.249 88.8545 199.701 88.9299 200.078 89.0808C200.455 89.2317 200.757 89.4581 200.983 89.7599C201.209 90.0616 201.284 90.4389 201.284 90.8161C201.284 91.0424 201.284 91.2688 201.209 91.4197C201.134 91.646 201.058 91.8724 200.908 92.0987C200.757 92.3251 200.531 92.5514 200.229 92.8532L198.495 94.4376L198.118 93.6831H201.511V95.4184H196.309V95.5693ZM193.293 95.5693V89.8353L194.198 90.7407H192.162V89.0808H195.479V95.5693H193.293Z" fill="#B7E3EC"/>
<path opacity="0.52" d="M121.595 81.3101C121.595 80.4047 122.349 79.5748 123.329 79.5748V78.8203C121.972 78.8203 120.841 79.952 120.841 81.3101H121.595ZM121.595 115.337V81.3101H120.766V115.337H121.595ZM123.329 116.996C122.424 116.996 121.595 116.242 121.595 115.261H120.766C120.766 116.619 121.897 117.751 123.254 117.751V116.996H123.329ZM173.238 116.996H123.329V117.826H173.238V116.996ZM174.972 115.337C174.972 116.242 174.218 117.072 173.238 117.072V117.902C174.595 117.902 175.726 116.77 175.726 115.412H174.972V115.337ZM174.972 81.3101V115.337H175.801V81.3101H174.972ZM173.238 79.5748C174.143 79.5748 174.972 80.3293 174.972 81.3101H175.801C175.801 79.952 174.671 78.8203 173.314 78.8203V79.5748H173.238ZM123.329 79.5748H173.238V78.8203H123.329V79.5748Z" fill="#FFFDF0"/>
<path opacity="0.52" d="M184.623 81.3101C184.623 80.4047 185.377 79.5748 186.357 79.5748V78.8203C185 78.8203 183.87 79.952 183.87 81.3101H184.623ZM184.623 115.337V81.3101H183.794V115.337H184.623ZM186.282 116.996C185.377 116.996 184.548 116.242 184.548 115.261H183.719C183.719 116.619 184.85 117.751 186.207 117.751V116.996H186.282ZM236.267 116.996H186.357V117.826H236.267V116.996ZM237.925 115.337C237.925 116.242 237.171 117.072 236.191 117.072V117.902C237.548 117.902 238.679 116.77 238.679 115.412H237.925V115.337ZM237.925 81.3101V115.337H238.755V81.3101H237.925ZM236.267 79.5748C237.171 79.5748 238.001 80.3293 238.001 81.3101H238.83C238.83 79.952 237.699 78.8203 236.342 78.8203V79.5748H236.267ZM186.282 79.5748H236.191V78.8203H186.282V79.5748Z" fill="#FFFDF0"/>
<path opacity="0.52" d="M121.595 126.503C121.595 125.597 122.349 124.767 123.329 124.767V123.938C121.972 123.938 120.841 125.069 120.841 126.427H121.595V126.503ZM121.595 160.529V126.503H120.766V160.529H121.595ZM123.329 162.265C122.424 162.265 121.595 161.51 121.595 160.529H120.766C120.766 161.887 121.897 163.019 123.254 163.019V162.265H123.329ZM173.238 162.265H123.329V163.094H173.238V162.265ZM174.972 160.529C174.972 161.435 174.218 162.265 173.238 162.265V163.094C174.595 163.094 175.726 161.963 175.726 160.605H174.972V160.529ZM174.972 126.503V160.529H175.801V126.503H174.972ZM173.238 124.843C174.143 124.843 174.972 125.597 174.972 126.578H175.801C175.801 125.22 174.671 124.088 173.314 124.088V124.843H173.238ZM123.329 124.843H173.238V124.013H123.329V124.843Z" fill="#FFFDF0"/>
<path opacity="0.52" d="M184.623 126.503C184.623 125.597 185.377 124.767 186.357 124.767V123.938C185 123.938 183.87 125.069 183.87 126.427H184.623V126.503ZM184.623 160.529V126.503H183.794V160.529H184.623ZM186.282 162.265C185.377 162.265 184.548 161.51 184.548 160.529H183.719C183.719 161.887 184.85 163.019 186.207 163.019V162.265H186.282ZM236.267 162.265H186.357V163.094H236.267V162.265ZM237.925 160.529C237.925 161.435 237.171 162.265 236.191 162.265V163.094C237.548 163.094 238.679 161.963 238.679 160.605H237.925V160.529ZM237.925 126.503V160.529H238.755V126.503H237.925ZM236.267 124.843C237.171 124.843 238.001 125.597 238.001 126.578H238.83C238.83 125.22 237.699 124.088 236.342 124.088V124.843H236.267ZM186.282 124.843H236.191V124.013H186.282V124.843Z" fill="#FFFDF0"/>
<path opacity="0.52" d="M121.595 171.77C121.595 170.865 122.349 170.035 123.329 170.035V169.205C121.972 169.205 120.841 170.337 120.841 171.695H121.595V171.77ZM121.595 205.721V171.695H120.766V205.721H121.595ZM123.329 207.457C122.424 207.457 121.595 206.702 121.595 205.721H120.766C120.766 207.079 121.897 208.211 123.254 208.211V207.457H123.329ZM173.238 207.457H123.329V208.287H173.238V207.457ZM174.972 205.721C174.972 206.627 174.218 207.457 173.238 207.457V208.287C174.595 208.287 175.726 207.155 175.726 205.797H174.972V205.721ZM174.972 171.77V205.797H175.801V171.77H174.972ZM173.238 170.035C174.143 170.035 174.972 170.789 174.972 171.77H175.801C175.801 170.412 174.671 169.281 173.314 169.281V170.035H173.238ZM123.329 170.035H173.238V169.205H123.329V170.035Z" fill="#FFFDF0"/>
<path opacity="0.52" d="M184.623 171.77C184.623 170.865 185.377 170.035 186.357 170.035V169.205C185 169.205 183.87 170.337 183.87 171.695H184.623V171.77ZM184.623 205.721V171.695H183.794V205.721H184.623ZM186.282 207.457C185.377 207.457 184.548 206.702 184.548 205.721H183.719C183.719 207.079 184.85 208.211 186.207 208.211V207.457H186.282ZM236.267 207.457H186.357V208.287H236.267V207.457ZM237.925 205.721C237.925 206.627 237.171 207.457 236.191 207.457V208.287C237.548 208.287 238.679 207.155 238.679 205.797H237.925V205.721ZM237.925 171.77V205.797H238.755V171.77H237.925ZM236.267 170.035C237.171 170.035 238.001 170.789 238.001 171.77H238.83C238.83 170.412 237.699 169.281 236.342 169.281V170.035H236.267ZM186.282 170.035H236.191V169.205H186.282V170.035Z" fill="#FFFDF0"/>
<path opacity="0.52" d="M121.595 216.964C121.595 216.058 122.349 215.228 123.329 215.228V214.398C121.972 214.398 120.841 215.53 120.841 216.888H121.595V216.964ZM121.595 250.99V216.964H120.766V250.99H121.595ZM123.329 252.65C122.424 252.65 121.595 251.896 121.595 250.915H120.766C120.766 252.273 121.897 253.404 123.254 253.404V252.65H123.329ZM173.238 252.65H123.329V253.48H173.238V252.65ZM174.972 250.99C174.972 251.896 174.218 252.725 173.238 252.725V253.555C174.595 253.555 175.726 252.424 175.726 251.066H174.972V250.99ZM174.972 216.964V250.99H175.801V216.964H174.972ZM173.238 215.228C174.143 215.228 174.972 215.983 174.972 216.964H175.801C175.801 215.606 174.671 214.474 173.314 214.474V215.228H173.238ZM123.329 215.228H173.238V214.398H123.329V215.228Z" fill="#FFFDF0"/>
<path opacity="0.52" d="M184.623 216.964C184.623 216.058 185.377 215.228 186.357 215.228V214.398C185 214.398 183.87 215.53 183.87 216.888H184.623V216.964ZM184.623 250.99V216.964H183.794V250.99H184.623ZM186.282 252.65C185.377 252.65 184.548 251.896 184.548 250.915H183.719C183.719 252.273 184.85 253.404 186.207 253.404V252.65H186.282ZM236.267 252.65H186.357V253.48H236.267V252.65ZM237.925 250.99C237.925 251.896 237.171 252.725 236.191 252.725V253.555C237.548 253.555 238.679 252.424 238.679 251.066H237.925V250.99ZM237.925 216.964V250.99H238.755V216.964H237.925ZM236.267 215.228C237.171 215.228 238.001 215.983 238.001 216.964H238.83C238.83 215.606 237.699 214.474 236.342 214.474V215.228H236.267ZM186.282 215.228H236.191V214.398H186.282V215.228Z" fill="#FFFDF0"/>
<path opacity="0.52" d="M121.595 262.156C121.595 261.251 122.349 260.421 123.329 260.421V259.591C121.972 259.591 120.841 260.723 120.841 262.081H121.595V262.156ZM121.595 296.183V262.156H120.766V296.183H121.595ZM123.329 297.918C122.424 297.918 121.595 297.163 121.595 296.183H120.766C120.766 297.541 121.897 298.672 123.254 298.672V297.918H123.329ZM173.238 297.918H123.329V298.748H173.238V297.918ZM174.972 296.183C174.972 297.088 174.218 297.918 173.238 297.918V298.748C174.595 298.748 175.726 297.616 175.726 296.258H174.972V296.183ZM174.972 262.156V296.183H175.801V262.156H174.972ZM173.238 260.496C174.143 260.496 174.972 261.251 174.972 262.231H175.801C175.801 260.873 174.671 259.742 173.314 259.742V260.496H173.238ZM123.329 260.496H173.238V259.666H123.329V260.496Z" fill="#FFFDF0"/>
<path opacity="0.52" d="M184.623 262.156C184.623 261.251 185.377 260.421 186.357 260.421V259.591C185 259.591 183.87 260.723 183.87 262.081H184.623V262.156ZM184.623 296.183V262.156H183.794V296.183H184.623ZM186.282 297.918C185.377 297.918 184.548 297.163 184.548 296.183H183.719C183.719 297.541 184.85 298.672 186.207 298.672V297.918H186.282ZM236.267 297.918H186.357V298.748H236.267V297.918ZM237.925 296.183C237.925 297.088 237.171 297.918 236.191 297.918V298.748C237.548 298.748 238.679 297.616 238.679 296.258H237.925V296.183ZM237.925 262.156V296.183H238.755V262.156H237.925ZM236.267 260.496C237.171 260.496 238.001 261.251 238.001 262.231H238.83C238.83 260.873 237.699 259.742 236.342 259.742V260.496H236.267ZM186.282 260.496H236.191V259.666H186.282V260.496Z" fill="#FFFDF0"/>
<path d="M197.062 71.2748H162.758C159.893 71.2748 157.255 70.0676 156.124 68.2569L149.791 57.6943H210.029L203.621 68.3323C202.565 70.0676 200.002 71.2748 197.062 71.2748Z" fill="#666665"/>
<path d="M193.368 63.6553H166.604C166.303 63.6553 166.077 63.7307 165.85 63.9571C165.624 64.1834 165.549 64.4097 165.549 64.7115C165.549 65.0133 165.624 65.2397 165.85 65.466C166.077 65.6923 166.303 65.7678 166.604 65.7678H193.368C193.67 65.7678 193.896 65.6923 194.122 65.466C194.348 65.2397 194.424 65.0133 194.424 64.7115C194.424 64.4097 194.348 64.1834 194.122 63.9571C193.896 63.7307 193.594 63.6553 193.368 63.6553Z" fill="#434442"/>
<path opacity="0.52" d="M244.861 76.9336L113.83 207.985V294.673C113.83 296.484 114.282 298.295 115.036 299.955L244.785 170.11V76.9336H244.861Z" fill="#FFFDF0"/>
<path opacity="0.52" d="M232.572 59.8828H222.771L113.83 168.904V186.709L238.754 61.6181C236.945 60.4864 234.758 59.8828 232.572 59.8828Z" fill="#FFFDF0"/>
<path opacity="0.52" d="M244.86 189.727L127.701 306.971H145.494L244.86 207.532V189.727Z" fill="#FFFDF0"/>
<path d="M271.022 177.354L269.966 173.355C269.137 170.186 267.026 167.47 264.161 165.886C261.296 164.226 257.903 163.849 254.737 164.679L242.448 167.998C239.282 168.828 236.568 170.941 234.984 173.808C233.326 176.675 232.949 180.07 233.778 183.239L234.834 187.237C235.663 190.406 237.774 193.122 240.639 194.707C243.504 196.367 246.896 196.744 250.063 195.914L262.352 192.594C265.518 191.764 268.232 189.652 269.815 186.785C271.399 183.918 271.851 180.523 271.022 177.354Z" fill="#D87C4D"/>
<path opacity="0.56" d="M240.487 173.505C240.487 173.505 239.431 186.558 245.463 191.537C250.589 189.425 253.831 184.596 251.343 178.787C248.177 171.091 240.487 173.505 240.487 173.505Z" fill="#FFDAB6"/>
<path d="M249.988 195.838L262.277 192.518C264.614 191.914 266.8 190.556 268.383 188.746C269.966 186.935 271.022 184.596 271.324 182.182C256.396 190.783 241.77 191.16 234.834 187.161C235.739 190.33 237.774 192.971 240.639 194.63C243.504 196.215 246.821 196.667 249.988 195.838Z" fill="#EEAA68"/>
<path d="M277.958 209.268L276.903 205.269C276.073 202.1 273.962 199.384 271.098 197.8C268.233 196.14 264.84 195.763 261.674 196.593L227.974 205.647C224.807 206.476 222.093 208.589 220.51 211.456C218.851 214.323 218.474 217.718 219.304 220.887L220.359 224.885C221.188 228.054 223.299 230.77 226.164 232.355C229.029 234.015 232.422 234.392 235.588 233.562L269.288 224.508C272.455 223.678 275.169 221.566 276.752 218.699C278.411 215.832 278.787 212.437 277.958 209.268Z" fill="#D87C4D"/>
<path opacity="0.56" d="M224.581 211.983C224.581 211.983 223.903 224.96 229.934 229.185C236.569 227.224 239.358 224.055 237.247 217.038C234.759 209.192 224.581 211.983 224.581 211.983Z" fill="#FFDAB6"/>
<path d="M220.584 225.488C221.564 228.506 223.675 230.995 226.465 232.504C229.254 234.013 232.496 234.391 235.587 233.561L269.287 224.507C271.926 223.828 274.263 222.244 275.921 220.056C277.58 217.868 278.485 215.227 278.409 212.436C274.866 215.831 268.608 218.622 256.244 221.716C243.352 224.884 228.651 227.449 220.584 225.488Z" fill="#EEAA68"/>
<path d="M268.911 248.047L267.931 244.425C267.554 242.992 266.876 241.634 265.971 240.427C265.066 239.219 263.935 238.239 262.654 237.484C261.372 236.73 259.939 236.277 258.507 236.051C256.999 235.824 255.567 235.975 254.134 236.352L234.156 241.634C231.291 242.388 228.803 244.274 227.295 246.915C225.787 249.48 225.41 252.574 226.164 255.441L227.144 259.062C227.898 261.929 229.783 264.419 232.422 265.928C234.985 267.437 238.076 267.889 241.016 267.059L260.995 261.778C263.86 261.024 266.348 259.137 267.856 256.497C269.288 254.007 269.665 250.914 268.911 248.047Z" fill="#D87C4D"/>
<path opacity="0.56" d="M231.592 247.369C231.592 247.369 231.441 259.817 236.643 263.741C242.072 261.704 244.333 258.535 242.298 251.895C240.036 244.351 231.592 247.369 231.592 247.369Z" fill="#FFDAB6"/>
<path d="M227.145 259.364C227.974 262.155 229.859 264.57 232.422 266.003C234.985 267.437 238.001 267.814 240.866 267.059L260.845 261.778C263.709 261.024 266.197 259.137 267.705 256.497C269.213 253.856 269.59 250.838 268.836 247.896L268.384 246.312C262.88 250.612 256.698 253.932 250.139 256.12C241.846 258.987 233.025 259.967 227.145 259.364Z" fill="#EEAA68"/>
<path d="M134.111 263.816C152.054 315.874 106.593 332.02 106.593 332.02L56.5332 304.406C56.5332 304.406 79.9046 271.813 82.1663 226.998C84.2773 185.955 77.7182 169.356 84.8804 164.679C91.0626 160.68 102.597 167.998 105.312 176.147C108.478 185.427 109.081 214.851 108.478 230.242C121.973 239.296 129.211 249.707 134.111 263.816Z" fill="#D87C4D"/>
<path d="M62.7152 295.881L0.667969 378.872H111.267L137.428 340.47L62.7152 295.881Z" fill="#D87C4D"/>
<path d="M24.9562 378.366C41.6177 355.204 74.9408 321.781 81.4999 288.433C88.0589 255.086 79.6905 247.843 79.6905 247.843C79.6905 247.843 78.5596 255.689 74.3377 267.836C72.3775 273.721 70.0403 279.455 67.4016 285.038C61.2195 297.713 58.0531 301.863 56.1683 304.428C51.4186 310.841 0.90625 378.366 0.90625 378.366H24.9562Z" fill="#BA6040"/>
<path d="M102.974 232.807C104.105 232.958 105.236 232.882 106.367 232.505C107.422 232.128 108.402 231.524 109.156 230.619L108.553 230.166C109.156 214.775 108.553 185.351 105.386 176.071C104.105 172.751 101.994 169.884 99.1289 167.696C104.482 178.938 105.914 200.591 102.974 232.807Z" fill="#BA6040"/>
<path d="M204.075 160.68H128.155C124.084 160.68 120.691 163.999 120.691 168.149V217.34C120.691 221.414 124.009 224.81 128.155 224.81H204.075C208.146 224.81 211.538 221.49 211.538 217.34V168.149C211.463 163.999 208.146 160.68 204.075 160.68Z" fill="#B7E3EC"/>
<path d="M202.34 157.964H126.421C122.35 157.964 118.957 161.284 118.957 165.433V214.624C118.957 218.699 122.274 222.094 126.421 222.094H202.34C206.411 222.094 209.804 218.774 209.804 214.624V165.433C209.728 161.284 206.411 157.964 202.34 157.964Z" fill="white"/>
<path d="M202.113 170.714H160.045V174.713H202.113V170.714Z" fill="#C5DDE6"/>
<path d="M202.113 183.691H160.045V187.69H202.113V183.691Z" fill="#C5DDE6"/>
<path d="M202.188 196.667H126.42V200.666H202.188V196.667Z" fill="#C5DDE6"/>
<path d="M202.188 209.645H126.42V213.643H202.188V209.645Z" fill="#C5DDE6"/>
<path d="M140.669 193.197C147.83 193.197 153.636 187.387 153.636 180.22C153.636 173.053 147.83 167.243 140.669 167.243C133.507 167.243 127.701 173.053 127.701 180.22C127.701 187.387 133.507 193.197 140.669 193.197Z" fill="#6184F4"/>
<path d="M132.377 178.032V174.788H137.654V186.181H134.036V178.032H132.377Z" fill="white"/>
<path d="M147.531 177.806H143.007V179.089C143.234 178.938 143.46 178.787 143.761 178.636C144.063 178.56 144.44 178.485 144.817 178.485C145.495 178.485 146.099 178.636 146.626 179.013C147.079 179.315 147.456 179.768 147.682 180.371C147.908 180.899 148.059 181.503 148.059 182.182C148.059 183.464 147.682 184.37 147.003 185.124C146.325 185.803 145.345 186.181 144.138 186.181C143.234 186.181 142.48 186.03 141.801 185.728C141.123 185.426 140.67 184.973 140.293 184.445C139.992 183.917 139.841 183.238 139.841 182.559H143.234C143.234 182.71 143.309 182.861 143.384 183.012C143.535 183.163 143.686 183.238 143.912 183.238C144.138 183.238 144.365 183.163 144.515 182.936C144.666 182.785 144.666 182.484 144.666 182.182C144.666 181.88 144.591 181.654 144.44 181.503C144.289 181.352 144.138 181.276 143.837 181.276C143.611 181.276 143.46 181.352 143.309 181.427C143.158 181.503 143.158 181.654 143.158 181.805H139.766V174.788H147.38V177.806H147.531Z" fill="white"/>
<path d="M151.676 191.235C144.137 201.873 144.816 225.337 151.676 241.332C158.537 257.402 183.341 314.817 183.341 314.817H205.958C205.958 314.817 174.294 245.331 168.866 235.598C163.513 226.016 151.676 191.235 151.676 191.235Z" fill="#B7E3EC"/>
<path d="M221.942 374.421C205.431 357.068 185.528 344.242 185.302 331.718C185.151 319.194 201.737 300.03 201.737 300.03C201.737 300.03 227.37 361.293 221.942 374.421Z" fill="#BA6040"/>
<path d="M245.238 386.568C234.759 384.832 215.081 378.797 213.574 353.446C212.066 328.096 200.079 306.896 191.258 292.561C182.437 278.226 160.649 243.219 154.542 231.902C146.626 217.189 143.761 191.311 157.407 184.445C164.871 180.673 174.068 183.163 176.406 197.045C179.12 213.04 183.115 218.019 192.238 232.731C201.36 247.444 215.986 265.777 215.986 265.777C215.986 265.777 255.341 253.555 270.72 252.272C286.025 250.99 301.179 251.744 309.321 267.211C317.463 282.677 329.978 315.421 328.923 341.677C327.716 370.271 290.925 394.188 245.238 386.568Z" fill="#D87C4D"/>
<path opacity="0.56" d="M158.085 207.759C155.748 198.101 158.161 188.52 165.851 187.69C172.937 186.86 173.541 198.177 174.521 203.383C172.636 205.118 166.228 207.306 158.085 207.759Z" fill="#FFDAB6"/>
<path d="M299.218 256.422C291.151 251.594 280.898 251.518 270.569 252.348C255.34 253.555 216.438 265.627 215.91 265.853C218.097 268.796 220.811 271.813 220.811 271.813C220.811 271.813 273.057 257.479 299.218 256.422Z" fill="#BA6040"/>
<path d="M177.612 211.832C177.762 212.21 173.993 213.794 169.243 215.454C164.493 217.038 160.498 218.095 160.422 217.717C160.272 217.34 164.041 215.756 168.791 214.096C173.54 212.436 177.461 211.455 177.612 211.832Z" fill="#BA6040"/>
<path d="M317.387 80.9328L316.633 80.6311L317.387 80.9328ZM322.664 88.0248C321.458 85.1579 319.573 82.5927 317.311 80.4802L316.784 81.0837C319.046 83.1208 320.78 85.5351 321.986 88.3266L322.664 88.0248ZM324.474 97.0785C324.549 93.9852 323.946 90.8918 322.664 88.0248L321.91 88.3266C323.117 91.1182 323.72 94.0606 323.644 97.0785H324.474ZM322.287 106.057C323.644 103.265 324.398 100.172 324.474 97.0785H323.644C323.569 100.096 322.89 103.039 321.533 105.755L322.287 106.057ZM316.633 113.3C319.045 111.338 321.006 108.848 322.363 106.057L321.684 105.679C320.403 108.396 318.518 110.81 316.181 112.696L316.633 113.3ZM308.415 117.6C311.431 116.77 314.22 115.337 316.633 113.375L316.105 112.771C313.768 114.658 311.129 116.091 308.189 116.846L308.415 117.6ZM299.217 118.053C302.309 118.581 305.4 118.43 308.415 117.6L308.189 116.846C305.324 117.6 302.233 117.751 299.293 117.298L299.217 118.053ZM290.623 114.658C293.186 116.393 296.126 117.6 299.217 118.053L299.368 117.298C296.428 116.77 293.563 115.714 291.075 113.979L290.623 114.658ZM284.215 107.943C285.873 110.583 287.984 112.847 290.623 114.658L291.075 113.979C288.587 112.319 286.476 110.131 284.893 107.566L284.215 107.943ZM274.866 106.358L284.441 108.169L284.592 107.415L275.017 105.604L274.866 106.358ZM281.199 98.0593L274.715 105.679L275.318 106.208L281.802 98.5874L281.199 98.0593ZM283.838 85.8369C281.727 89.6092 280.747 93.9851 281.124 98.3611L281.877 98.2856C281.5 94.0606 282.481 89.911 284.516 86.2141L283.838 85.8369ZM293.111 77.0851C289.19 79.0467 285.949 82.0645 283.838 85.8369L284.516 86.2141C286.552 82.5927 289.718 79.5748 293.488 77.7641L293.111 77.0851ZM305.777 75.048C301.479 74.4444 297.031 75.1234 293.186 77.0851L293.563 77.7641C297.333 75.8779 301.555 75.1989 305.701 75.8025L305.777 75.048ZM317.311 80.4802C314.07 77.5377 310.074 75.6516 305.701 75.048L305.626 75.8025C309.772 76.406 313.693 78.2168 316.784 81.0083L317.311 80.4802ZM317.01 80.782L316.633 80.6311L316.558 80.8574L316.784 81.0083L317.01 80.782ZM284.592 107.716L284.893 107.49L284.818 107.339H284.667L284.592 107.716ZM274.941 105.906L274.64 105.679L274.188 106.208L274.866 106.358L274.941 105.906ZM281.5 98.2856L281.802 98.512L281.877 98.3611V98.2102L281.5 98.2856ZM317.085 80.782L317.462 80.9328L317.538 80.7065L317.311 80.5556L317.085 80.782Z" fill="#B7E3EC"/>
<path d="M310.15 95.4192C310.678 102.134 313.693 105.906 313.693 105.906L294.996 107.34C294.996 107.34 296.881 103.115 296.429 96.4754C296.278 94.6647 296.881 92.854 298.087 91.4205C299.293 90.0624 300.952 89.1571 302.761 89.0062C304.571 88.8553 306.38 89.4589 307.813 90.666C309.094 91.8732 309.999 93.533 310.15 95.4192Z" fill="#59B6D2"/>
<path d="M304.27 88.7028V88.5519C304.195 88.1746 304.044 87.8729 303.742 87.6465C303.441 87.4202 303.139 87.3447 302.762 87.3447C302.385 87.3447 302.084 87.4956 301.857 87.7974C301.631 88.0237 301.48 88.401 301.48 88.7782V88.8537C301.857 88.7782 302.234 88.7028 302.611 88.7028C303.214 88.5519 303.742 88.6273 304.27 88.7028Z" fill="#59B6D2"/>
<path d="M307.21 106.962C307.21 107.716 306.984 108.395 306.456 108.924C305.929 109.452 305.25 109.829 304.572 109.829C303.818 109.904 303.139 109.678 302.536 109.225C301.933 108.773 301.631 108.094 301.48 107.339L307.21 106.962Z" fill="#59B6D2"/>
<path d="M299.293 86.3642C299.897 85.7606 300.651 85.308 301.48 85.0816L301.254 84.3271C300.274 84.5535 299.444 85.0816 298.69 85.7606L299.293 86.3642ZM298.012 88.4767C298.238 87.6468 298.69 86.8923 299.293 86.2888L298.766 85.6852C298.087 86.3642 297.559 87.2696 297.258 88.1749L298.012 88.4767ZM301.555 85.0816C301.781 85.0062 301.857 84.7798 301.857 84.6289C301.857 84.478 301.555 84.3271 301.404 84.3271L301.555 85.0816ZM297.258 88.2504C297.182 88.4767 297.333 88.7031 297.559 88.7785C297.786 88.854 298.012 88.7031 298.087 88.4767L297.258 88.2504Z" fill="#59B6D2"/>
<path d="M297.936 84.7798C298.841 83.8744 299.972 83.1954 301.178 82.8936L300.877 81.7619C299.444 82.1391 298.163 82.8936 297.107 83.9499L297.936 84.7798ZM295.976 88.024C296.353 86.8168 297.032 85.6851 297.936 84.7798L297.107 83.9499C296.052 85.0061 295.298 86.2887 294.845 87.7222L295.976 88.024ZM301.178 82.8936C301.48 82.8182 301.706 82.5164 301.555 82.1391C301.48 81.8373 301.178 81.611 300.801 81.7619L301.178 82.8936ZM294.845 87.7222C294.77 88.024 294.921 88.3258 295.222 88.4767C295.524 88.5521 295.825 88.4012 295.976 88.0994L294.845 87.7222Z" fill="#59B6D2"/>
<path d="M306.983 85.1568C306.154 84.5533 305.249 84.176 304.269 84.1006L304.193 84.8551C305.023 84.9305 305.852 85.3077 306.531 85.7604L306.983 85.1568ZM308.868 87.4202C308.415 86.5149 307.812 85.7604 306.983 85.1568L306.531 85.8359C307.209 86.364 307.812 87.043 308.114 87.7975L308.868 87.4202ZM304.269 84.1006C304.043 84.1006 303.892 84.2515 303.816 84.4778C303.816 84.7042 303.967 84.8551 304.193 84.9305L304.269 84.1006ZM308.114 87.722C308.189 87.9484 308.415 88.0238 308.641 87.9484C308.868 87.8729 308.943 87.6466 308.868 87.4202L308.114 87.722Z" fill="#59B6D2"/>
<path d="M308.341 83.1205C307.135 82.2906 305.703 81.687 304.27 81.5361L304.12 82.7433C305.401 82.8942 306.607 83.3469 307.663 84.1013L308.341 83.1205ZM311.131 86.4402C310.528 85.0821 309.548 83.9504 308.341 83.0451L307.663 84.0259C308.718 84.7803 309.548 85.7612 310.075 86.9683L311.131 86.4402ZM304.27 81.5361C303.969 81.4607 303.667 81.7625 303.592 82.0643C303.516 82.3661 303.818 82.6678 304.12 82.7433L304.27 81.5361ZM310.075 86.9683C310.226 87.2701 310.603 87.421 310.829 87.2701C311.131 87.1192 311.282 86.742 311.131 86.5156L310.075 86.9683Z" fill="#59B6D2"/>
<path d="M239.885 32.9479C239.885 33.1742 239.81 33.4005 239.734 33.5514C239.584 33.7023 239.433 33.8532 239.282 33.9287C239.056 34.0041 238.905 34.0041 238.679 34.0041C238.453 34.0041 238.302 33.8532 238.151 33.7023C238 33.5514 237.925 33.4005 237.85 33.1742C237.774 32.9479 237.85 32.7215 237.925 32.5706C238 32.3443 238.151 32.1934 238.302 32.1179C238.453 31.967 238.679 31.8916 238.905 31.8916C239.056 31.8916 239.207 31.8916 239.357 31.967C239.508 32.0425 239.584 32.1179 239.734 32.1934C239.885 32.2688 239.885 32.4197 239.961 32.5706C239.885 32.6461 239.885 32.797 239.885 32.9479Z" fill="#59B6D2"/>
<path d="M254.436 17.3312C254.436 17.7085 254.361 18.0103 254.134 18.312C253.908 18.6138 253.682 18.8402 253.305 18.9911C253.004 19.142 252.627 19.142 252.25 19.0665C251.873 18.9911 251.571 18.8402 251.345 18.6138C251.119 18.3875 250.893 18.0857 250.893 17.7085C250.893 17.3312 250.893 17.0294 250.968 16.6522C251.043 16.275 251.345 16.0486 251.646 15.8223C251.948 15.596 252.25 15.5205 252.627 15.5205C253.079 15.5205 253.531 15.6714 253.908 16.0486C254.21 16.4259 254.436 16.8786 254.436 17.3312Z" fill="#59B6D2"/>
<path d="M276.525 55.8079C276.525 55.8833 276.525 55.9588 276.45 56.0342C276.375 56.1097 276.375 56.1851 276.299 56.1851C276.224 56.1851 276.148 56.2606 276.073 56.1851C275.998 56.1851 275.922 56.1097 275.847 56.1097C275.771 56.1097 275.771 55.9588 275.771 55.8833C275.771 55.8079 275.771 55.7325 275.771 55.657C275.771 55.5816 275.847 55.5061 275.922 55.5061C275.998 55.4307 276.073 55.4307 276.148 55.4307C276.224 55.4307 276.375 55.5061 276.45 55.5816C276.525 55.5816 276.525 55.657 276.525 55.8079Z" fill="#59B6D2"/>
<path d="M294.997 54.5259C294.997 55.054 294.846 55.6576 294.545 56.1103C294.243 56.563 293.791 56.9402 293.263 57.1666C292.735 57.3929 292.208 57.4683 291.604 57.3174C291.001 57.1666 290.549 56.9402 290.172 56.563C289.795 56.1857 289.494 55.6576 289.418 55.1295C289.343 54.6014 289.343 53.9978 289.569 53.4697C289.795 52.9415 290.172 52.4888 290.624 52.1871C291.077 51.8853 291.68 51.7344 292.208 51.7344C292.962 51.7344 293.715 52.0362 294.243 52.5643C294.696 53.017 294.997 53.7714 294.997 54.5259Z" fill="#59B6D2"/>
<path d="M285.27 136.989C285.948 136.989 286.552 136.385 286.552 135.706C286.552 135.027 285.948 134.424 285.27 134.424C284.591 134.424 283.988 135.027 283.988 135.706C283.988 136.385 284.591 136.989 285.27 136.989Z" fill="#59B6D2"/>
<path d="M301.858 171.77C301.858 171.996 301.782 172.223 301.707 172.373C301.556 172.524 301.405 172.675 301.255 172.751C301.029 172.826 300.878 172.826 300.652 172.826C300.425 172.826 300.275 172.675 300.124 172.524C299.973 172.373 299.898 172.147 299.822 171.996C299.747 171.845 299.822 171.544 299.898 171.393C299.973 171.166 300.124 171.015 300.275 170.94C300.425 170.865 300.652 170.789 300.878 170.789C301.179 170.789 301.405 170.94 301.632 171.091C301.707 171.242 301.858 171.544 301.858 171.77Z" fill="#59B6D2"/>
<path d="M324.776 170.111C326.192 170.111 327.34 168.962 327.34 167.546C327.34 166.129 326.192 164.98 324.776 164.98C323.361 164.98 322.213 166.129 322.213 167.546C322.213 168.962 323.361 170.111 324.776 170.111Z" fill="#59B6D2"/>
<path d="M322.439 189.5C322.439 189.726 322.363 189.953 322.213 190.179C322.062 190.405 321.911 190.556 321.685 190.632C321.459 190.707 321.232 190.782 321.006 190.707C320.78 190.632 320.554 190.556 320.403 190.405C320.252 190.254 320.102 190.028 320.102 189.802C320.102 189.575 320.102 189.349 320.177 189.123C320.252 188.896 320.403 188.745 320.629 188.594C320.855 188.444 321.082 188.368 321.308 188.368C321.609 188.368 321.911 188.519 322.137 188.745C322.288 188.896 322.439 189.198 322.439 189.5Z" fill="#59B6D2"/>
<path d="M307.511 221.792C307.511 222.094 307.435 222.471 307.209 222.697C307.058 222.999 306.757 223.225 306.455 223.301C306.154 223.452 305.777 223.452 305.475 223.376C305.173 223.301 304.872 223.15 304.646 222.924C304.42 222.697 304.269 222.395 304.193 222.094C304.118 221.792 304.193 221.415 304.269 221.113C304.42 220.811 304.646 220.509 304.872 220.358C305.173 220.208 305.475 220.057 305.777 220.057C306.003 220.057 306.229 220.132 306.38 220.208C306.606 220.283 306.757 220.434 306.907 220.585C307.058 220.736 307.209 220.887 307.284 221.113C307.435 221.339 307.511 221.566 307.511 221.792Z" fill="#59B6D2"/>
<path d="M162.383 27.5165C162.383 27.7428 162.307 28.0446 162.157 28.1955C162.006 28.3464 161.78 28.5728 161.554 28.6482C161.327 28.7236 161.026 28.7991 160.8 28.7236C160.573 28.6482 160.347 28.5728 160.121 28.3464C159.97 28.1955 159.82 27.9692 159.744 27.6674C159.669 27.4411 159.744 27.1393 159.82 26.9129C159.895 26.6866 160.046 26.4602 160.272 26.3094C160.498 26.1585 160.724 26.083 160.95 26.083C161.327 26.083 161.629 26.2339 161.855 26.4602C162.307 26.9129 162.383 27.2147 162.383 27.5165Z" fill="#59B6D2"/>
<path d="M174.295 14.6901C174.295 15.0674 174.22 15.4446 173.993 15.7464C173.767 16.0482 173.466 16.2745 173.164 16.4254C172.863 16.5763 172.41 16.5763 172.033 16.5009C171.656 16.4254 171.279 16.2745 171.053 15.9727C170.752 15.6709 170.601 15.3692 170.525 14.9919C170.45 14.6147 170.525 14.2375 170.601 13.8602C170.752 13.483 170.978 13.1812 171.279 13.0303C171.581 12.8794 171.958 12.7285 172.335 12.7285C172.863 12.7285 173.315 12.9549 173.692 13.2566C174.069 13.7093 174.295 14.162 174.295 14.6901Z" fill="#59B6D2"/>
<path d="M156.653 2.99583C156.653 3.44851 156.502 3.90119 156.276 4.35387C156.05 4.73111 155.673 5.03289 155.221 5.25923C154.768 5.41013 154.316 5.48558 153.864 5.41013C153.411 5.33468 152.959 5.10834 152.657 4.73111C152.356 4.42932 152.13 3.97664 151.979 3.52396C151.828 3.07128 151.903 2.6186 152.13 2.16591C152.28 1.71323 152.582 1.336 153.034 1.10966C153.487 0.883316 153.864 0.732422 154.391 0.732422C154.994 0.732422 155.598 0.958762 156.05 1.41144C156.427 1.71323 156.653 2.31681 156.653 2.99583Z" fill="#59B6D2"/>
<path d="M86.7649 21.4044C86.7649 21.5553 86.7649 21.6307 86.6895 21.7816C86.6141 21.9325 86.5387 21.9325 86.3879 22.0079C86.2371 22.0834 86.1617 22.0834 86.0109 22.0079C85.8602 22.0079 85.7848 21.9325 85.7094 21.857C85.634 21.7816 85.5586 21.6307 85.5586 21.5553C85.5586 21.4044 85.5586 21.3289 85.5586 21.178C85.634 21.0271 85.7094 20.9517 85.7848 20.8762C85.8602 20.8008 86.0109 20.8008 86.1617 20.8008C86.3125 20.8008 86.4633 20.8762 86.6141 20.9517C86.6895 21.1026 86.7649 21.2535 86.7649 21.4044Z" fill="#59B6D2"/>
<path d="M84.8801 34.2308C84.8801 34.4572 84.8047 34.608 84.7293 34.7589C84.6539 34.9098 84.5031 35.0607 84.277 35.1362C84.1262 35.2116 83.9 35.2116 83.7492 35.2116C83.5985 35.2116 83.3723 35.0607 83.2215 34.9098C83.0707 34.7589 82.9953 34.608 82.9199 34.3817C82.9199 34.2308 82.9199 34.0045 82.9953 33.8536C83.0707 33.7027 83.2215 33.5518 83.3723 33.4009C83.5231 33.3255 83.7492 33.25 83.9 33.25C84.0508 33.25 84.1262 33.25 84.277 33.3254C84.4278 33.4009 84.5031 33.4763 84.5785 33.5518C84.6539 33.6272 84.7293 33.7781 84.8047 33.8536C84.8047 34.0045 84.8801 34.0799 84.8801 34.2308Z" fill="#59B6D2"/>
<path d="M75.5309 6.01326C77.1131 6.01326 78.3958 4.72967 78.3958 3.14628C78.3958 1.56289 77.1131 0.279297 75.5309 0.279297C73.9487 0.279297 72.666 1.56289 72.666 3.14628C72.666 4.72967 73.9487 6.01326 75.5309 6.01326Z" fill="#59B6D2"/>
<path d="M96.8668 5.41057C98.0327 5.41057 98.9778 4.46477 98.9778 3.29806C98.9778 2.13135 98.0327 1.18555 96.8668 1.18555C95.701 1.18555 94.7559 2.13135 94.7559 3.29806C94.7559 4.46477 95.701 5.41057 96.8668 5.41057Z" fill="#59B6D2"/>
<path d="M37.5348 76.2547C38.5149 76.2547 39.2688 75.5003 39.2688 74.5195C39.2688 73.5387 38.5149 72.7842 37.5348 72.7842C36.5547 72.7842 35.8008 73.5387 35.8008 74.5195C35.8008 75.5003 36.6301 76.2547 37.5348 76.2547Z" fill="#59B6D2"/>
<path d="M15.7449 81.0828C16.5742 81.0828 17.1774 80.4038 17.1774 79.6493C17.1774 78.8948 16.4989 78.2158 15.7449 78.2158C14.9156 78.2158 14.3125 78.8948 14.3125 79.6493C14.3125 80.4038 14.991 81.0828 15.7449 81.0828Z" fill="#59B6D2"/>
<path d="M35.0465 111.488C36.0042 111.488 36.7805 110.711 36.7805 109.753C36.7805 108.794 36.0042 108.018 35.0465 108.018C34.0888 108.018 33.3125 108.794 33.3125 109.753C33.3125 110.711 34.0888 111.488 35.0465 111.488Z" fill="#59B6D2"/>
<path d="M72.6666 124.541C72.6666 124.993 72.5158 125.446 72.2897 125.899C72.0635 126.276 71.6865 126.578 71.2342 126.804C70.7818 127.03 70.3295 127.03 69.8771 126.955C69.4248 126.88 68.9725 126.653 68.6709 126.276C68.3693 125.974 68.1431 125.522 67.9924 125.069C67.917 124.616 67.917 124.164 68.1431 123.711C68.2939 123.258 68.5955 122.881 69.0478 122.655C69.4248 122.428 69.8771 122.277 70.4049 122.277C71.008 122.277 71.6112 122.504 72.0635 122.956C72.4405 123.334 72.6666 123.937 72.6666 124.541Z" fill="#59B6D2"/>
<path d="M57.4371 198.478C58.4172 198.478 59.1711 197.724 59.1711 196.743C59.1711 195.762 58.4172 195.008 57.4371 195.008C56.457 195.008 55.7031 195.762 55.7031 196.743C55.7031 197.648 56.457 198.478 57.4371 198.478Z" fill="#59B6D2"/>
<path d="M39.493 211.606C40.3223 211.606 40.9254 210.927 40.9254 210.173C40.9254 209.418 40.2469 208.739 39.493 208.739C38.6637 208.739 38.0605 209.418 38.0605 210.173C38.0605 210.927 38.6637 211.606 39.493 211.606Z" fill="#59B6D2"/>
<path d="M7.9059 261.627C9.48813 261.627 10.7708 260.344 10.7708 258.761C10.7708 257.177 9.48813 255.894 7.9059 255.894C6.32367 255.894 5.04102 257.177 5.04102 258.761C5.04102 260.344 6.32367 261.627 7.9059 261.627Z" fill="#59B6D2"/>
<path d="M40.3239 258.459C41.9061 258.459 43.1887 257.175 43.1887 255.592C43.1887 254.008 41.9061 252.725 40.3239 252.725C38.7416 252.725 37.459 254.008 37.459 255.592C37.459 257.175 38.7416 258.459 40.3239 258.459Z" fill="#59B6D2"/>
</svg>
