<svg width="34" height="27" viewBox="0 0 34 27" fill="none" xmlns="http://www.w3.org/2000/svg">
<path d="M3.34351 24.0213C1.41227 21.9701 0.37539 19.6694 0.37539 15.9401C0.375391 9.37755 4.98227 3.49568 11.6816 0.587553L13.356 3.1713C7.10289 6.5538 5.88039 10.9432 5.39289 13.7107C6.39977 13.1894 7.71789 13.0076 9.00976 13.1276C12.3923 13.4407 15.0585 16.2176 15.0585 19.6694C15.0585 21.4099 14.3671 23.0791 13.1364 24.3098C11.9057 25.5405 10.2365 26.2319 8.49601 26.2319C6.48414 26.2319 4.56039 25.3132 3.34351 24.0213ZM22.0935 24.0213C20.1623 21.9701 19.1254 19.6694 19.1254 15.9401C19.1254 9.37755 23.7323 3.49568 30.4316 0.587555L32.106 3.17131C25.8529 6.55381 24.6304 10.9432 24.1429 13.7107C25.1498 13.1894 26.4679 13.0076 27.7598 13.1276C31.1423 13.4407 33.8066 16.2176 33.8066 19.6694C33.8066 21.4099 33.1152 23.0791 31.8845 24.3098C30.6538 25.5405 28.9846 26.2319 27.2441 26.2319C25.2323 26.2319 23.3085 25.3132 22.0916 24.0213L22.0935 24.0213Z" fill="#6184F4"/>
</svg>
