<svg width="34" height="26" viewBox="0 0 34 26" fill="none" xmlns="http://www.w3.org/2000/svg">
<path d="M30.9065 2.31817C32.8377 4.36942 33.8746 6.67005 33.8746 10.3994C33.8746 16.9619 29.2677 22.8438 22.5684 25.7519L20.894 23.1682C27.1471 19.7857 28.3696 15.3963 28.8571 12.6288C27.8502 13.15 26.5321 13.3319 25.2402 13.2119C21.8577 12.8988 19.1915 10.1219 19.1915 6.67004C19.1915 4.92956 19.8829 3.26036 21.1136 2.02966C22.3443 0.798949 24.0135 0.107544 25.754 0.107544C27.7659 0.107544 29.6896 1.02629 30.9065 2.31817ZM12.1565 2.31817C14.0877 4.36942 15.1246 6.67005 15.1246 10.3994C15.1246 16.9619 10.5177 22.8438 3.81836 25.7519L2.14398 23.1682C8.39711 19.7857 9.61961 15.3963 10.1071 12.6288C9.10023 13.15 7.78211 13.3319 6.49023 13.2119C3.10773 12.8988 0.443359 10.1219 0.443359 6.67004C0.443359 4.92956 1.13476 3.26036 2.36547 2.02966C3.59618 0.798949 5.26538 0.107544 7.00586 0.107544C9.01773 0.107544 10.9415 1.02629 12.1584 2.31817H12.1565Z" fill="#6184F4"/>
</svg>
