<svg width="122" height="68" viewBox="0 0 122 68" fill="none" xmlns="http://www.w3.org/2000/svg">
<g clip-path="url(#clip0_2703_14125)">
<path d="M104.783 0.818359H108.143V1.26217H104.783V0.818359Z" fill="#FFC727"/>
<path d="M120.57 5.85113H121.014C121.013 4.52055 120.485 3.24447 119.546 2.30153C118.607 1.35859 117.334 0.825393 116.003 0.818359H109.967V1.26217H116.003C117.216 1.2692 118.377 1.75563 119.232 2.61535C120.088 3.47506 120.569 4.63825 120.57 5.85113Z" fill="#FFC727"/>
<path opacity="0.7" d="M63.6052 2.37183H116.005C117.925 2.37183 119.48 3.92764 119.48 5.84683V14.4744C119.48 16.3936 117.925 17.9494 116.005 17.9494H63.6052C61.686 17.9494 60.1302 16.3936 60.1302 14.4744V5.84683C60.1302 3.92764 61.686 2.37183 63.6052 2.37183Z" fill="#6184F4"/>
<path d="M96.8932 7.81274L96.1299 9.35719L94.4212 9.60572L95.6594 10.8084L95.3665 12.5127L96.8932 11.7094L98.4199 12.5127L98.127 10.8084L99.3652 9.60572L97.6566 9.35719L96.8932 7.81274Z" fill="white"/>
<path d="M89.9616 7.81274L89.1982 9.35719L87.4896 9.60572L88.7278 10.8084L88.4349 12.5127L89.9616 11.7094L91.4883 12.5127L91.1954 10.8084L92.4336 9.60572L90.7249 9.35719L89.9616 7.81274Z" fill="white"/>
<path d="M83.03 7.81274L82.2666 9.35719L80.5579 9.60572L81.7917 10.8084L81.5033 12.5127L83.03 11.7094L84.5566 12.5127L84.2637 10.8084L85.502 9.60572L83.7933 9.35719L83.03 7.81274Z" fill="white"/>
<path d="M76.0964 7.81299L75.333 9.35744L73.6244 9.60597L74.8581 10.8087L74.5697 12.5129L76.0964 11.7096L77.623 12.5129L77.3301 10.8087L78.5684 9.60597L76.8597 9.35744L76.0964 7.81299Z" fill="white"/>
<path opacity="0.3" d="M69.1661 8.8157L68.8022 9.55686C68.7697 9.6212 68.722 9.67665 68.6632 9.7184C68.6044 9.76016 68.5364 9.78697 68.4649 9.79652L67.6483 9.91635L68.2386 10.4933C68.2899 10.5432 68.3285 10.6048 68.3509 10.6728C68.3733 10.7408 68.3789 10.8132 68.3673 10.8838L68.2297 11.7004L68.9575 11.3365C69.0227 11.3053 69.0939 11.2886 69.1661 11.2877C69.2371 11.2874 69.3071 11.3042 69.3703 11.3365L70.1026 11.7226L69.9783 10.8927C69.9667 10.8221 69.9723 10.7496 69.9947 10.6816C70.0171 10.6136 70.0556 10.5521 70.107 10.5022L70.6973 9.92522L69.8807 9.8054C69.8072 9.79678 69.737 9.76994 69.6766 9.72731C69.6161 9.68468 69.5673 9.62761 69.5345 9.5613L69.1706 8.82014M69.1706 7.81714L69.9339 9.36159L71.6426 9.61012L70.4044 10.8173L70.6973 12.5171L69.1706 11.7138L67.6439 12.5171L67.9368 10.8173L66.6986 9.61012L68.4072 9.36159L69.1706 7.81714Z" fill="white"/>
<path opacity="0.2" d="M108.654 15.4906C105.711 15.4906 103.324 13.1042 103.324 10.1604C103.324 7.2167 105.711 4.83032 108.654 4.83032C111.598 4.83032 113.984 7.2167 113.984 10.1604C113.984 13.1042 111.598 15.4906 108.654 15.4906Z" fill="white"/>
<path d="M104.254 10.1605C104.253 11.1399 104.579 12.0916 105.18 12.8648C105.781 13.638 106.623 14.1885 107.572 14.4291C108.521 14.6696 109.524 14.5864 110.42 14.1926C111.317 13.7988 112.057 13.117 112.522 12.2553C112.874 11.6132 113.057 10.8925 113.055 10.1605C113.018 9.01765 112.539 7.93375 111.718 7.13816C110.896 6.34257 109.798 5.89771 108.654 5.89771C107.511 5.89771 106.412 6.34257 105.591 7.13816C104.77 7.93375 104.29 9.01765 104.254 10.1605Z" fill="white"/>
<path d="M104.784 12.2553C105.16 12.9535 105.718 13.5368 106.399 13.9434C107.08 14.3499 107.859 14.5646 108.652 14.5646C109.445 14.5646 110.223 14.3499 110.904 13.9434C111.585 13.5368 112.143 12.9535 112.52 12.2553C111.374 11.4911 110.028 11.0833 108.652 11.0833C107.275 11.0833 105.929 11.4911 104.784 12.2553Z" fill="#263238"/>
<path d="M106.692 8.67354C106.692 9.06151 106.807 9.44077 107.023 9.76336C107.238 10.0859 107.544 10.3374 107.903 10.4858C108.261 10.6343 108.656 10.6732 109.036 10.5975C109.417 10.5218 109.766 10.335 110.041 10.0606C110.315 9.78628 110.502 9.43675 110.578 9.05623C110.653 8.67571 110.614 8.2813 110.466 7.92286C110.317 7.56442 110.066 7.25805 109.743 7.04251C109.421 6.82696 109.042 6.71191 108.654 6.71191C108.133 6.71191 107.634 6.91858 107.267 7.28646C106.899 7.65434 106.692 8.15328 106.692 8.67354Z" fill="#FFC3BD"/>
</g>
<path d="M19.9801 20.8638H108.664C111.912 20.8638 114.545 23.4969 114.545 26.745V41.3466C114.545 44.5946 111.912 47.2277 108.664 47.2277H19.9801C16.732 47.2277 14.0989 44.5946 14.0989 41.3466V26.745C14.0989 23.4969 16.732 20.8638 19.9801 20.8638Z" fill="#FFC727"/>
<path d="M16.8254 36.2991L23.1348 47.2277H7.36144L16.8254 36.2991Z" fill="#FFC727"/>
<path d="M76.3222 30.0649L75.0303 32.6863L72.1385 33.1069L74.2341 35.1424L73.7384 38.0192L76.3222 36.6597L78.906 38.0192L78.4103 35.1424L80.5059 33.1069L77.6141 32.6863L76.3222 30.0649Z" fill="white"/>
<path d="M64.5878 30.0649L63.2959 32.6863L60.4041 33.1069L62.4997 35.1424L62.004 38.0192L64.5878 36.6597L67.1716 38.0192L66.6759 35.1424L68.7715 33.1069L65.8797 32.6863L64.5878 30.0649Z" fill="white"/>
<path d="M52.8632 30.0649L51.5713 32.6863L48.6795 33.1069L50.7751 35.1424L50.2794 38.0192L52.8632 36.6597L55.447 38.0192L54.9513 35.1424L57.0469 33.1069L54.1551 32.6863L52.8632 30.0649Z" fill="white"/>
<path d="M41.1386 30.0649L39.8467 32.6863L36.9549 33.1069L39.0505 35.1424L38.5548 38.0192L41.1386 36.6597L43.7224 38.0192L43.2267 35.1424L45.3223 33.1069L42.4305 32.6863L41.1386 30.0649Z" fill="white"/>
<path d="M29.414 30.0649L28.1221 32.6863L25.2303 33.1069L27.3259 35.1424L26.8301 38.0192L29.414 36.6597L31.9978 38.0192L31.5021 35.1424L33.5977 33.1069L30.7059 32.6863L29.414 30.0649Z" fill="white"/>
<path opacity="0.2" d="M96.2253 43.0663C91.2432 43.0663 87.2044 39.0276 87.2044 34.0455C87.2044 29.0634 91.2432 25.0247 96.2253 25.0247C101.207 25.0247 105.246 29.0634 105.246 34.0455C105.246 39.0276 101.207 43.0663 96.2253 43.0663Z" fill="white"/>
<path d="M88.7756 34.0457C88.7736 35.7032 89.325 37.3139 90.3422 38.6225C91.3594 39.9312 92.7843 40.8628 94.391 41.2699C95.9977 41.677 97.6943 41.5361 99.2119 40.8697C100.729 40.2033 101.981 39.0494 102.769 37.5909C103.364 36.5043 103.674 35.2846 103.67 34.0457C103.702 33.0478 103.533 32.0537 103.173 31.1225C102.813 30.1913 102.269 29.3419 101.574 28.6248C100.88 27.9077 100.048 27.3376 99.1287 26.9482C98.2094 26.5588 97.2212 26.3582 96.2228 26.3582C95.2244 26.3582 94.2362 26.5588 93.3169 26.9482C92.3975 27.3376 91.5658 27.9077 90.8712 28.6248C90.1765 29.3419 89.633 30.1913 89.273 31.1225C88.913 32.0537 88.7439 33.0478 88.7756 34.0457Z" fill="white"/>
<path d="M89.6757 37.5911C90.3142 38.7706 91.2596 39.7557 92.4118 40.4421C93.5641 41.1286 94.8804 41.491 96.2216 41.491C97.5629 41.491 98.8792 41.1286 100.031 40.4421C101.184 39.7557 102.129 38.7706 102.768 37.5911C100.829 36.2977 98.5517 35.6074 96.2216 35.6074C93.8916 35.6074 91.6138 36.2977 89.6757 37.5911Z" fill="#FFC727"/>
<path d="M92.9071 31.4996C92.9071 32.1562 93.1018 32.7981 93.4666 33.3441C93.8314 33.89 94.3499 34.3155 94.9565 34.5668C95.5631 34.8181 96.2306 34.8838 96.8746 34.7557C97.5186 34.6276 98.1102 34.3114 98.5745 33.8471C99.0388 33.3828 99.355 32.7913 99.4831 32.1473C99.6112 31.5033 99.5454 30.8358 99.2942 30.2291C99.0429 29.6225 98.6174 29.104 98.0714 28.7392C97.5255 28.3744 96.8836 28.1797 96.227 28.1797C95.7907 28.1787 95.3586 28.2639 94.9553 28.4304C94.5521 28.5969 94.1857 28.8414 93.8772 29.1499C93.5687 29.4584 93.3242 29.8247 93.1578 30.228C92.9913 30.6312 92.9061 31.0633 92.9071 31.4996Z" fill="#B55B52"/>
<path d="M20.0101 66.9407H28.8906V67.3845H20.0101V66.9407Z" fill="#FFC727"/>
<path opacity="0.7" d="M16.3962 50.2534H68.7965C70.7157 50.2534 72.2715 51.8092 72.2715 53.7284V62.356C72.2715 64.2752 70.7157 65.831 68.7965 65.831H16.3962C14.477 65.831 12.9212 64.2752 12.9212 62.356V53.7284C12.9212 51.8092 14.477 50.2534 16.3962 50.2534Z" fill="#6184F4"/>
<path d="M49.6862 55.6899L48.9228 57.2388L47.2142 57.4829L48.4524 58.6901L48.1595 60.3899L49.6862 59.5866L51.2129 60.3899L50.92 58.6901L52.1582 57.4829L50.4495 57.2388L49.6862 55.6899Z" fill="white"/>
<path d="M42.7546 55.6899L41.9912 57.2388L40.2826 57.4829L41.5208 58.6901L41.2279 60.3899L42.7546 59.5866L44.2813 60.3899L43.9883 58.6901L45.2266 57.4829L43.5179 57.2388L42.7546 55.6899Z" fill="white"/>
<path d="M35.8229 55.6899L35.0596 57.2388L33.3509 57.4829L34.5847 58.6901L34.2962 60.3899L35.8229 59.5866L37.3496 60.3899L37.0567 58.6901L38.2949 57.4829L36.5863 57.2388L35.8229 55.6899Z" fill="white"/>
<path d="M28.8893 55.6899L28.126 57.2388L26.4173 57.4829L27.6511 58.6901L27.3626 60.3899L28.8893 59.5866L30.416 60.3899L30.1231 58.6901L31.3613 57.4829L29.6527 57.2388L28.8893 55.6899Z" fill="white"/>
<path opacity="0.3" d="M21.8868 56.8492L21.5229 57.5903C21.4904 57.6546 21.4427 57.7101 21.3839 57.7518C21.3251 57.7936 21.2571 57.8204 21.1856 57.83L20.369 57.9498L20.9593 58.5267C21.0107 58.5766 21.0492 58.6382 21.0716 58.7062C21.094 58.7742 21.0996 58.8466 21.088 58.9173L20.9504 59.7339L21.6782 59.37C21.7434 59.3387 21.8146 59.3221 21.8868 59.3212C21.9578 59.3209 22.0278 59.3376 22.091 59.37L22.8233 59.7561L22.699 58.9262C22.6874 58.8555 22.693 58.7831 22.7154 58.7151C22.7378 58.6471 22.7763 58.5855 22.8277 58.5356L23.418 57.9587L22.6014 57.8388C22.5279 57.8302 22.4577 57.8034 22.3973 57.7608C22.3368 57.7181 22.288 57.6611 22.2552 57.5947L21.8913 56.8536M21.8913 55.8506L22.6546 57.395L24.3633 57.6436L23.1251 58.8507L23.418 60.5505L21.8913 59.7472L20.3646 60.5505L20.6575 58.8507L19.4193 57.6436L21.1279 57.395L21.8913 55.8506Z" fill="white"/>
<path opacity="0.2" d="M57.6755 61.8107C55.594 59.7292 55.594 56.3543 57.6755 54.2728C59.7571 52.1912 63.1319 52.1912 65.2135 54.2728C67.295 56.3543 67.295 59.7292 65.2135 61.8107C63.1319 63.8923 59.7571 63.8923 57.6755 61.8107Z" fill="white"/>
<path d="M57.045 58.038C57.0429 59.0177 57.3679 59.9701 57.9686 60.7441C58.5693 61.518 59.4112 62.0693 60.3608 62.3104C61.3104 62.5515 62.3133 62.4686 63.2105 62.0749C64.1076 61.6812 64.8476 60.9992 65.3131 60.1372C65.6648 59.4935 65.848 58.7714 65.8457 58.038C65.8094 56.8951 65.3299 55.8112 64.5086 55.0156C63.6873 54.22 62.5888 53.7751 61.4453 53.7751C60.3019 53.7751 59.2033 54.22 58.3821 55.0156C57.5608 55.8112 57.0813 56.8951 57.045 58.038Z" fill="white"/>
<path opacity="0.5" d="M57.5769 60.1372C57.9542 60.8341 58.5128 61.4161 59.1936 61.8218C59.8744 62.2274 60.6522 62.4415 61.4447 62.4415C62.2372 62.4415 63.015 62.2274 63.6958 61.8218C64.3766 61.4161 64.9352 60.8341 65.3125 60.1372C64.1673 59.3729 62.8215 58.9651 61.4447 58.9651C60.068 58.9651 58.7221 59.3729 57.5769 60.1372Z" fill="#FFC727"/>
<path d="M59.485 56.5334C59.4841 56.9215 59.5984 57.3012 59.8134 57.6244C60.0284 57.9476 60.3345 58.1997 60.6928 58.3488C61.0512 58.498 61.4457 58.5375 61.8265 58.4623C62.2074 58.3871 62.5573 58.2006 62.8321 57.9264C63.1069 57.6523 63.2941 57.3028 63.3702 56.9221C63.4462 56.5415 63.4076 56.1468 63.2593 55.7881C63.111 55.4294 62.8595 55.1228 62.5369 54.9071C62.2142 54.6913 61.8347 54.5762 61.4466 54.5762C60.9271 54.5762 60.4288 54.7822 60.0611 55.1491C59.6933 55.5161 59.4861 56.0139 59.485 56.5334Z" fill="#FFB573"/>
<defs>
<clipPath id="clip0_2703_14125">
<rect width="120.273" height="17.0197" fill="white" transform="matrix(-1 0 0 1 121.092 0.818359)"/>
</clipPath>
</defs>
</svg>
