<svg width="131" height="23" viewBox="0 0 131 23" fill="none" xmlns="http://www.w3.org/2000/svg">
<g clip-path="url(#clip0_27_2948)">
<path d="M21.0617 8.41939C21.0041 8.24958 20.8979 8.10037 20.7565 7.99018C20.615 7.87999 20.4443 7.81365 20.2656 7.79934L15.0364 7.38383L12.7736 2.37482C12.7015 2.21349 12.5843 2.07646 12.4361 1.98028C12.2879 1.88409 12.115 1.83286 11.9383 1.83276C11.7616 1.83267 11.5886 1.88371 11.4403 1.97973C11.292 2.07575 11.1746 2.21265 11.1024 2.3739L8.83957 7.38383L3.61042 7.79934C3.43473 7.81326 3.26677 7.8775 3.12663 7.98438C2.98649 8.09125 2.88011 8.23624 2.82022 8.40199C2.76032 8.56774 2.74945 8.74724 2.7889 8.91901C2.82834 9.09078 2.91644 9.24755 3.04265 9.37056L6.90696 13.1376L5.54028 19.0556C5.49878 19.2348 5.51208 19.4222 5.57846 19.5937C5.64483 19.7652 5.76121 19.9128 5.9125 20.0173C6.06378 20.1218 6.24299 20.1785 6.42687 20.1799C6.61074 20.1813 6.79079 20.1274 6.94365 20.0252L11.938 16.6956L16.9323 20.0252C17.0886 20.1289 17.2728 20.1823 17.4603 20.1782C17.6478 20.1741 17.8296 20.1126 17.9811 20.0022C18.1326 19.8917 18.2467 19.7374 18.308 19.5602C18.3692 19.3829 18.3747 19.1912 18.3238 19.0107L16.6462 13.1404L20.8067 9.39625C21.0791 9.15043 21.1791 8.76702 21.0617 8.41939Z" fill="#6184F4"/>
<path d="M48.0773 8.41939C48.0197 8.24958 47.9136 8.10037 47.7721 7.99018C47.6306 7.87999 47.4599 7.81365 47.2812 7.79934L42.052 7.38383L39.7892 2.37482C39.7172 2.21349 39.5999 2.07646 39.4517 1.98028C39.3035 1.88409 39.1306 1.83286 38.9539 1.83276C38.7772 1.83267 38.6043 1.88371 38.4559 1.97973C38.3076 2.07575 38.1903 2.21265 38.118 2.3739L35.8552 7.38383L30.626 7.79934C30.4504 7.81326 30.2824 7.8775 30.1423 7.98438C30.0021 8.09125 29.8957 8.23624 29.8358 8.40199C29.7759 8.56774 29.7651 8.74724 29.8045 8.91901C29.844 9.09078 29.9321 9.24755 30.0583 9.37056L33.9226 13.1376L32.5559 19.0556C32.5144 19.2348 32.5277 19.4222 32.5941 19.5937C32.6605 19.7652 32.7768 19.9128 32.9281 20.0173C33.0794 20.1218 33.2586 20.1785 33.4425 20.1799C33.6264 20.1813 33.8064 20.1274 33.9593 20.0252L38.9536 16.6956L43.948 20.0252C44.1042 20.1289 44.2885 20.1823 44.4759 20.1782C44.6634 20.1741 44.8452 20.1126 44.9967 20.0022C45.1483 19.8917 45.2623 19.7374 45.3236 19.5602C45.3849 19.3829 45.3904 19.1912 45.3394 19.0107L43.6618 13.1404L47.8224 9.39625C48.0948 9.15043 48.1948 8.76702 48.0773 8.41939Z" fill="#6184F4"/>
<path d="M75.0891 8.41939C75.0314 8.24958 74.9253 8.10037 74.7838 7.99018C74.6423 7.87999 74.4717 7.81365 74.2929 7.79934L69.0638 7.38383L66.8009 2.37482C66.7289 2.21349 66.6117 2.07646 66.4634 1.98028C66.3152 1.88409 66.1423 1.83286 65.9656 1.83276C65.7889 1.83267 65.616 1.88371 65.4677 1.97973C65.3193 2.07575 65.202 2.21265 65.1297 2.3739L62.8669 7.38383L57.6378 7.79934C57.4621 7.81326 57.2941 7.8775 57.154 7.98438C57.0138 8.09125 56.9075 8.23624 56.8476 8.40199C56.7877 8.56774 56.7768 8.74724 56.8162 8.91901C56.8557 9.09078 56.9438 9.24755 57.07 9.37056L60.9343 13.1376L59.5676 19.0556C59.5261 19.2348 59.5394 19.4222 59.6058 19.5937C59.6722 19.7652 59.7886 19.9128 59.9398 20.0173C60.0911 20.1218 60.2703 20.1785 60.4542 20.1799C60.6381 20.1813 60.8181 20.1274 60.971 20.0252L65.9653 16.6956L70.9597 20.0252C71.1159 20.1289 71.3002 20.1823 71.4877 20.1782C71.6752 20.1741 71.8569 20.1126 72.0084 20.0022C72.16 19.8917 72.274 19.7374 72.3353 19.5602C72.3966 19.3829 72.4021 19.1912 72.3511 19.0107L70.6735 13.1404L74.8341 9.39625C75.1065 9.15043 75.2065 8.76702 75.0891 8.41939Z" fill="#6184F4"/>
<path d="M102.103 8.41939C102.045 8.24958 101.939 8.10037 101.797 7.99018C101.656 7.87999 101.485 7.81365 101.307 7.79934L96.0774 7.38383L93.8146 2.37482C93.7425 2.21349 93.6253 2.07646 93.4771 1.98028C93.3289 1.88409 93.156 1.83286 92.9793 1.83276C92.8026 1.83267 92.6297 1.88371 92.4813 1.97973C92.333 2.07575 92.2156 2.21265 92.1434 2.3739L89.8806 7.38383L84.6514 7.79934C84.4757 7.81326 84.3078 7.8775 84.1676 7.98438C84.0275 8.09125 83.9211 8.23624 83.8612 8.40199C83.8013 8.56774 83.7905 8.74724 83.8299 8.91901C83.8694 9.09078 83.9575 9.24755 84.0837 9.37056L87.948 13.1376L86.5813 19.0556C86.5398 19.2348 86.5531 19.4222 86.6195 19.5937C86.6858 19.7652 86.8022 19.9128 86.9535 20.0173C87.1048 20.1218 87.284 20.1785 87.4679 20.1799C87.6518 20.1813 87.8318 20.1274 87.9847 20.0252L92.979 16.6956L97.9733 20.0252C98.1296 20.1289 98.3138 20.1823 98.5013 20.1782C98.6888 20.1741 98.8706 20.1126 99.0221 20.0022C99.1736 19.8917 99.2877 19.7374 99.349 19.5602C99.4102 19.3829 99.4158 19.1912 99.3648 19.0107L97.6872 13.1404L101.848 9.39625C102.12 9.15043 102.22 8.76702 102.103 8.41939Z" fill="#6184F4"/>
<path d="M129.116 8.41939C129.059 8.24958 128.953 8.10037 128.811 7.99018C128.67 7.87999 128.499 7.81365 128.32 7.79934L123.091 7.38383L120.828 2.37482C120.756 2.21349 120.639 2.07646 120.491 1.98028C120.343 1.88409 120.17 1.83286 119.993 1.83276C119.816 1.83267 119.643 1.88371 119.495 1.97973C119.347 2.07575 119.229 2.21265 119.157 2.3739L116.894 7.38383L111.665 7.79934C111.489 7.81326 111.321 7.8775 111.181 7.98438C111.041 8.09125 110.935 8.23624 110.875 8.40199C110.815 8.56774 110.804 8.74724 110.844 8.91901C110.883 9.09078 110.971 9.24755 111.097 9.37056L114.962 13.1376L113.595 19.0556C113.553 19.2348 113.567 19.4222 113.633 19.5937C113.7 19.7652 113.816 19.9128 113.967 20.0173C114.118 20.1218 114.298 20.1785 114.482 20.1799C114.665 20.1813 114.845 20.1274 114.998 20.0252L119.993 16.6956L124.987 20.0252C125.143 20.1289 125.328 20.1823 125.515 20.1782C125.703 20.1741 125.884 20.1126 126.036 20.0022C126.187 19.8917 126.301 19.7374 126.363 19.5602C126.424 19.3829 126.429 19.1912 126.378 19.0107L124.701 13.1404L128.861 9.39625C129.134 9.15043 129.234 8.76702 129.116 8.41939Z" fill="#6184F4"/>
</g>
<defs>
<clipPath id="clip0_27_2948">
<rect width="130.068" height="22.0136" fill="white" transform="translate(0.931641)"/>
</clipPath>
</defs>
</svg>
