<svg width="318" height="481" viewBox="0 0 318 481" fill="none" xmlns="http://www.w3.org/2000/svg">
<g clip-path="url(#clip0_170_1626)">
<path d="M43.1172 0H34.2344V1.17342H43.1172V0Z" fill="#FFC727"/>
<path d="M1.3785 13.3066H0.205078C0.208129 9.78854 1.603 6.41461 4.08513 3.92148C6.56726 1.42836 9.935 0.0185963 13.453 0H29.4115V1.17342H13.453C10.2462 1.19201 7.17694 2.47815 4.91486 4.75121C2.65279 7.02427 1.38154 10.0997 1.3785 13.3066Z" fill="#FFC727"/>
<path opacity="0.7" d="M151.999 4.10693H13.4535C8.37918 4.10693 4.26562 8.22048 4.26562 13.2948V36.1061C4.26562 41.1804 8.37918 45.294 13.4535 45.294H151.999C157.074 45.294 161.187 41.1804 161.187 36.1061V13.2948C161.187 8.22048 157.074 4.10693 151.999 4.10693Z" fill="#6184F4"/>
<path d="M63.9813 18.4932L65.9996 22.5767L70.5172 23.2338L67.2434 26.4138L68.0178 30.9197L63.9813 28.7958L59.9447 30.9197L60.7192 26.4138L57.4453 23.2338L61.963 22.5767L63.9813 18.4932Z" fill="white"/>
<path d="M82.3094 18.4932L84.3277 22.5767L88.8453 23.2338L85.5715 26.4138L86.346 30.9197L82.3094 28.7958L78.2728 30.9197L79.0473 26.4138L75.7734 23.2338L80.2911 22.5767L82.3094 18.4932Z" fill="white"/>
<path d="M100.638 18.4932L102.656 22.5767L107.173 23.2338L103.911 26.4138L104.674 30.9197L100.638 28.7958L96.6009 30.9197L97.3754 26.4138L94.1016 23.2338L98.6192 22.5767L100.638 18.4932Z" fill="white"/>
<path d="M118.968 18.4932L120.986 22.5767L125.504 23.2338L122.241 26.4138L123.004 30.9197L118.968 28.7958L114.931 30.9197L115.705 26.4138L112.432 23.2338L116.949 22.5767L118.968 18.4932Z" fill="white"/>
<path opacity="0.3" d="M137.296 21.1451L138.258 23.1047C138.344 23.2748 138.47 23.4214 138.625 23.5318C138.781 23.6422 138.961 23.7131 139.15 23.7383L141.309 24.0552L139.748 25.5806C139.612 25.7125 139.51 25.8753 139.451 26.0551C139.392 26.2349 139.377 26.4264 139.408 26.6132L139.772 28.7723L137.847 27.8101C137.675 27.7275 137.487 27.6835 137.296 27.681C137.108 27.6803 136.923 27.7245 136.756 27.8101L134.82 28.831L135.148 26.6367C135.179 26.4499 135.164 26.2584 135.105 26.0786C135.046 25.8988 134.944 25.736 134.808 25.6041L133.247 24.0786L135.407 23.7618C135.601 23.739 135.786 23.6681 135.946 23.5554C136.106 23.4426 136.235 23.2918 136.322 23.1164L137.284 21.1568M137.284 18.5049L135.266 22.5884L130.748 23.2455L134.022 26.4372L133.247 30.9314L137.284 28.8075L141.321 30.9314L140.546 26.4372L143.82 23.2455L139.302 22.5884L137.284 18.5049Z" fill="white"/>
<path opacity="0.2" d="M32.8857 38.7932C40.669 38.7932 46.9785 32.4837 46.9785 24.7004C46.9785 16.9172 40.669 10.6077 32.8857 10.6077C25.1025 10.6077 18.793 16.9172 18.793 24.7004C18.793 32.4837 25.1025 38.7932 32.8857 38.7932Z" fill="white"/>
<path d="M44.5248 24.7005C44.5278 27.2899 43.6665 29.8062 42.0774 31.8506C40.4883 33.895 38.2623 35.3505 35.7522 35.9865C33.2421 36.6224 30.5916 36.4024 28.2207 35.3613C25.8498 34.3201 23.8943 32.5175 22.664 30.239C21.7342 28.5415 21.2497 26.636 21.2559 24.7005C21.3519 21.6788 22.6197 18.813 24.7911 16.7094C26.9625 14.6059 29.8672 13.4297 32.8904 13.4297C35.9136 13.4297 38.8182 14.6059 40.9896 16.7094C43.161 18.813 44.4289 21.6788 44.5248 24.7005Z" fill="white"/>
<path d="M43.1168 30.2391C42.122 32.085 40.6461 33.6273 38.8456 34.7022C37.0452 35.7772 34.9874 36.3448 32.8904 36.3448C30.7935 36.3448 28.7357 35.7772 26.9352 34.7022C25.1348 33.6273 23.6589 32.085 22.6641 30.2391C25.6918 28.2185 29.2503 27.1401 32.8904 27.1401C36.5305 27.1401 40.089 28.2185 43.1168 30.2391Z" fill="#263238"/>
<path d="M38.0723 20.7695C38.0723 21.7953 37.7681 22.7981 37.1982 23.651C36.6283 24.5039 35.8182 25.1687 34.8705 25.5612C33.9228 25.9538 32.88 26.0565 31.8739 25.8564C30.8678 25.6563 29.9437 25.1623 29.2183 24.4369C28.493 23.7116 27.999 22.7874 27.7989 21.7814C27.5988 20.7753 27.7015 19.7324 28.094 18.7847C28.4866 17.837 29.1513 17.027 30.0043 16.4571C30.8572 15.8872 31.8599 15.583 32.8857 15.583C34.2613 15.583 35.5805 16.1294 36.5532 17.1021C37.5258 18.0748 38.0723 19.394 38.0723 20.7695Z" fill="#FFC3BD"/>
</g>
<path d="M267.333 53H32.8545C24.2666 53 17.3047 59.9619 17.3047 68.5498V107.156C17.3047 115.744 24.2666 122.706 32.8545 122.706H267.333C275.921 122.706 282.883 115.744 282.883 107.156V68.5498C282.883 59.9619 275.921 53 267.333 53Z" fill="#FFC727"/>
<path d="M275.674 93.8108L258.992 122.706H300.697L275.674 93.8108Z" fill="#FFC727"/>
<path d="M118.368 77.3279L121.784 84.2587L129.43 85.3709L123.889 90.7527L125.2 98.3588L118.368 94.7643L111.537 98.3588L112.847 90.7527L107.307 85.3709L114.952 84.2587L118.368 77.3279Z" fill="white"/>
<path d="M149.39 77.3279L152.806 84.2587L160.451 85.3709L154.911 90.7527L156.221 98.3588L149.39 94.7643L142.558 98.3588L143.869 90.7527L138.328 85.3709L145.974 84.2587L149.39 77.3279Z" fill="white"/>
<path d="M180.39 77.3279L183.806 84.2587L191.451 85.3709L185.911 90.7527L187.221 98.3588L180.39 94.7643L173.558 98.3588L174.869 90.7527L169.328 85.3709L176.974 84.2587L180.39 77.3279Z" fill="white"/>
<path d="M211.39 77.3279L214.806 84.2587L222.451 85.3709L216.911 90.7527L218.221 98.3588L211.39 94.7643L204.558 98.3588L205.869 90.7527L200.328 85.3709L207.974 84.2587L211.39 77.3279Z" fill="white"/>
<path d="M242.39 77.3279L245.806 84.2587L253.451 85.3709L247.911 90.7527L249.221 98.3588L242.39 94.7643L235.558 98.3588L236.869 90.7527L231.328 85.3709L238.974 84.2587L242.39 77.3279Z" fill="white"/>
<path opacity="0.2" d="M65.7416 111.704C78.9142 111.704 89.5926 101.025 89.5926 87.8529C89.5926 74.6804 78.9142 64.002 65.7416 64.002C52.5691 64.002 41.8906 74.6804 41.8906 87.8529C41.8906 101.025 52.5691 111.704 65.7416 111.704Z" fill="white"/>
<path d="M85.4416 87.8531C85.4468 92.2355 83.989 96.4942 81.2995 99.9542C78.6101 103.414 74.8427 105.878 70.5946 106.954C66.3464 108.03 61.8606 107.658 57.8481 105.896C53.8356 104.134 50.526 101.083 48.4438 97.2267C46.8701 94.3538 46.0502 91.1288 46.0607 87.8531C45.9769 85.2147 46.4242 82.5864 47.376 80.1242C48.3278 77.6621 49.7648 75.4163 51.6015 73.5203C53.4382 71.6244 55.6372 70.1169 58.0679 69.0874C60.4986 68.0579 63.1114 67.5273 65.7512 67.5273C68.3909 67.5273 71.0037 68.0579 73.4344 69.0874C75.8651 70.1169 78.0642 71.6244 79.9009 73.5203C81.7376 75.4163 83.1745 77.6621 84.1263 80.1242C85.0782 82.5864 85.5254 85.2147 85.4416 87.8531Z" fill="white"/>
<path d="M83.0581 97.2267C81.3699 100.345 78.8704 102.95 75.8238 104.765C72.7773 106.58 69.297 107.538 65.7507 107.538C62.2045 107.538 58.7241 106.58 55.6776 104.765C52.6311 102.95 50.1316 100.345 48.4434 97.2267C53.5676 93.807 59.5902 91.9819 65.7507 91.9819C71.9113 91.9819 77.9338 93.807 83.0581 97.2267Z" fill="#FFC727"/>
<path d="M74.5185 81.1208C74.5185 82.8569 74.0037 84.554 73.0392 85.9975C72.0746 87.441 70.7037 88.5661 69.0998 89.2305C67.4959 89.8949 65.731 90.0687 64.0282 89.73C62.3255 89.3913 60.7614 88.5553 59.5338 87.3277C58.3063 86.1001 57.4703 84.536 57.1316 82.8333C56.7929 81.1306 56.9667 79.3657 57.6311 77.7617C58.2954 76.1578 59.4205 74.7869 60.864 73.8224C62.3075 72.8578 64.0046 72.343 65.7407 72.343C66.8941 72.3404 68.0368 72.5657 69.1029 73.0059C70.1691 73.4461 71.1378 74.0926 71.9534 74.9082C72.769 75.7238 73.4155 76.6925 73.8557 77.7586C74.2959 78.8248 74.5211 79.9674 74.5185 81.1208Z" fill="#B55B52"/>
<path d="M267.259 174.827H243.779V176H267.259V174.827Z" fill="#FFC727"/>
<path opacity="0.7" d="M276.812 130.706H138.266C133.192 130.706 129.078 134.82 129.078 139.894V162.705C129.078 167.78 133.192 171.893 138.266 171.893H276.812C281.886 171.893 286 167.78 286 162.705V139.894C286 134.82 281.886 130.706 276.812 130.706Z" fill="#6184F4"/>
<path d="M188.794 145.081L190.812 149.176L195.33 149.821L192.056 153.013L192.83 157.507L188.794 155.383L184.757 157.507L185.532 153.013L182.258 149.821L186.775 149.176L188.794 145.081Z" fill="white"/>
<path d="M207.122 145.081L209.14 149.176L213.658 149.821L210.384 153.013L211.158 157.507L207.122 155.383L203.085 157.507L203.86 153.013L200.586 149.821L205.104 149.176L207.122 145.081Z" fill="white"/>
<path d="M225.45 145.081L227.468 149.176L231.986 149.821L228.724 153.013L229.487 157.507L225.45 155.383L221.413 157.507L222.188 153.013L218.914 149.821L223.432 149.176L225.45 145.081Z" fill="white"/>
<path d="M243.78 145.081L245.798 149.176L250.316 149.821L247.054 153.013L247.817 157.507L243.78 155.383L239.744 157.507L240.518 153.013L237.244 149.821L241.762 149.176L243.78 145.081Z" fill="white"/>
<path opacity="0.3" d="M262.296 148.145L263.258 150.105C263.344 150.275 263.47 150.421 263.625 150.532C263.781 150.642 263.961 150.713 264.15 150.738L266.309 151.055L264.748 152.581C264.612 152.713 264.51 152.875 264.451 153.055C264.392 153.235 264.377 153.426 264.408 153.613L264.772 155.772L262.847 154.81C262.675 154.728 262.487 154.683 262.296 154.681C262.108 154.68 261.923 154.725 261.756 154.81L259.82 155.831L260.148 153.637C260.179 153.45 260.164 153.258 260.105 153.079C260.046 152.899 259.944 152.736 259.808 152.604L258.247 151.079L260.407 150.762C260.601 150.739 260.786 150.668 260.946 150.555C261.106 150.443 261.235 150.292 261.322 150.116L262.284 148.157M262.284 145.505L260.266 149.588L255.748 150.246L259.022 153.437L258.247 157.931L262.284 155.808L266.321 157.931L265.546 153.437L268.82 150.246L264.302 149.588L262.284 145.505Z" fill="white"/>
<path opacity="0.2" d="M167.671 161.263C173.174 155.759 173.174 146.836 167.671 141.333C162.167 135.829 153.244 135.829 147.74 141.333C142.237 146.836 142.237 155.759 147.74 161.263C153.244 166.767 162.167 166.767 167.671 161.263Z" fill="white"/>
<path d="M169.337 151.288C169.343 153.878 168.484 156.396 166.895 158.443C165.307 160.489 163.081 161.947 160.57 162.584C158.06 163.222 155.408 163.003 153.036 161.962C150.664 160.921 148.707 159.118 147.477 156.838C146.547 155.136 146.062 153.227 146.068 151.288C146.164 148.266 147.432 145.4 149.604 143.297C151.775 141.193 154.68 140.017 157.703 140.017C160.726 140.017 163.631 141.193 165.802 143.297C167.974 145.4 169.241 148.266 169.337 151.288Z" fill="white"/>
<path opacity="0.5" d="M167.929 156.838C166.932 158.681 165.455 160.22 163.655 161.292C161.855 162.365 159.798 162.931 157.703 162.931C155.608 162.931 153.551 162.365 151.751 161.292C149.951 160.22 148.474 158.681 147.477 156.838C150.504 154.818 154.063 153.739 157.703 153.739C161.343 153.739 164.902 154.818 167.929 156.838Z" fill="#FFC727"/>
<path d="M162.885 147.31C162.887 148.336 162.585 149.34 162.016 150.195C161.448 151.049 160.639 151.716 159.691 152.11C158.744 152.504 157.7 152.609 156.694 152.41C155.687 152.211 154.761 151.718 154.035 150.993C153.308 150.268 152.813 149.344 152.612 148.338C152.411 147.332 152.513 146.288 152.905 145.34C153.298 144.391 153.962 143.581 154.816 143.01C155.669 142.44 156.672 142.135 157.698 142.135C159.072 142.135 160.389 142.68 161.361 143.65C162.334 144.62 162.882 145.937 162.885 147.31Z" fill="#FFB573"/>
<g clip-path="url(#clip1_170_1626)">
<path d="M245.883 358H254.766V359.173H245.883V358Z" fill="#FFC727"/>
<path d="M287.622 371.307H288.795C288.792 367.789 287.397 364.415 284.915 361.921C282.433 359.428 279.065 358.019 275.547 358H259.588V359.173H275.547C278.754 359.192 281.823 360.478 284.085 362.751C286.347 365.024 287.618 368.1 287.622 371.307Z" fill="#FFC727"/>
<path opacity="0.7" d="M137.001 362.107H275.546C280.621 362.107 284.734 366.22 284.734 371.295V394.106C284.734 399.18 280.621 403.294 275.546 403.294H137.001C131.926 403.294 127.813 399.18 127.813 394.106V371.295C127.813 366.22 131.926 362.107 137.001 362.107Z" fill="#6184F4"/>
<path d="M225.019 376.493L223 380.577L218.483 381.234L221.757 384.414L220.982 388.92L225.019 386.796L229.055 388.92L228.281 384.414L231.555 381.234L227.037 380.577L225.019 376.493Z" fill="white"/>
<path d="M206.691 376.493L204.672 380.577L200.155 381.234L203.428 384.414L202.654 388.92L206.691 386.796L210.727 388.92L209.953 384.414L213.227 381.234L208.709 380.577L206.691 376.493Z" fill="white"/>
<path d="M188.362 376.493L186.344 380.577L181.827 381.234L185.089 384.414L184.326 388.92L188.362 386.796L192.399 388.92L191.625 384.414L194.898 381.234L190.381 380.577L188.362 376.493Z" fill="white"/>
<path d="M170.032 376.493L168.014 380.577L163.496 381.234L166.759 384.414L165.996 388.92L170.032 386.796L174.069 388.92L173.295 384.414L176.568 381.234L172.051 380.577L170.032 376.493Z" fill="white"/>
<path opacity="0.3" d="M151.704 379.145L150.742 381.105C150.656 381.275 150.53 381.421 150.375 381.532C150.219 381.642 150.039 381.713 149.85 381.738L147.691 382.055L149.252 383.581C149.388 383.713 149.49 383.875 149.549 384.055C149.608 384.235 149.623 384.426 149.592 384.613L149.228 386.772L151.153 385.81C151.325 385.728 151.513 385.683 151.704 385.681C151.892 385.68 152.077 385.725 152.244 385.81L154.18 386.831L153.852 384.637C153.821 384.45 153.836 384.258 153.895 384.079C153.954 383.899 154.056 383.736 154.192 383.604L155.753 382.079L153.593 381.762C153.399 381.739 153.214 381.668 153.054 381.555C152.894 381.443 152.765 381.292 152.678 381.116L151.716 379.157M151.716 376.505L153.734 380.588L158.252 381.246L154.978 384.437L155.753 388.931L151.716 386.808L147.679 388.931L148.454 384.437L145.18 381.246L149.698 380.588L151.716 376.505Z" fill="white"/>
<path opacity="0.2" d="M256.114 396.793C248.331 396.793 242.021 390.484 242.021 382.7C242.021 374.917 248.331 368.608 256.114 368.608C263.897 368.608 270.207 374.917 270.207 382.7C270.207 390.484 263.897 396.793 256.114 396.793Z" fill="white"/>
<path d="M244.475 382.7C244.472 385.29 245.333 387.806 246.923 389.851C248.512 391.895 250.738 393.351 253.248 393.986C255.758 394.622 258.408 394.402 260.779 393.361C263.15 392.32 265.106 390.517 266.336 388.239C267.266 386.541 267.75 384.636 267.744 382.7C267.648 379.679 266.38 376.813 264.209 374.709C262.037 372.606 259.133 371.43 256.11 371.43C253.086 371.43 250.182 372.606 248.01 374.709C245.839 376.813 244.571 379.679 244.475 382.7Z" fill="white"/>
<path d="M245.883 388.239C246.878 390.085 248.354 391.627 250.154 392.702C251.955 393.777 254.013 394.345 256.11 394.345C258.207 394.345 260.264 393.777 262.065 392.702C263.865 391.627 265.341 390.085 266.336 388.239C263.308 386.218 259.75 385.14 256.11 385.14C252.469 385.14 248.911 386.218 245.883 388.239Z" fill="#263238"/>
<path d="M250.928 378.77C250.928 379.795 251.232 380.798 251.802 381.651C252.372 382.504 253.182 383.169 254.129 383.561C255.077 383.954 256.12 384.057 257.126 383.856C258.132 383.656 259.056 383.162 259.782 382.437C260.507 381.712 261.001 380.787 261.201 379.781C261.401 378.775 261.299 377.732 260.906 376.785C260.513 375.837 259.849 375.027 258.996 374.457C258.143 373.887 257.14 373.583 256.114 373.583C254.739 373.583 253.42 374.129 252.447 375.102C251.474 376.075 250.928 377.394 250.928 378.77Z" fill="#FFC3BD"/>
</g>
<path opacity="0.7" d="M22.6377 413H243.362C251.446 413 258 419.592 258 427.723V464.277C258 472.408 251.446 479 243.362 479H22.6377C14.5535 479 8 472.408 8 464.277V427.723C8 419.592 14.5535 413 22.6377 413Z" fill="#FFC727"/>
<path d="M164.725 435.328L161.31 442.259L153.664 443.371L159.205 448.753L157.894 456.359L164.725 452.764L171.557 456.359L170.246 448.753L175.787 443.371L168.141 442.259L164.725 435.328Z" fill="white"/>
<path d="M133.704 435.328L130.288 442.259L122.642 443.371L128.183 448.753L126.872 456.359L133.704 452.764L140.536 456.359L139.225 448.753L144.766 443.371L137.12 442.259L133.704 435.328Z" fill="white"/>
<path d="M102.704 435.328L99.2882 442.259L91.6424 443.371L97.1831 448.753L95.8724 456.359L102.704 452.764L109.536 456.359L108.225 448.753L113.766 443.371L106.12 442.259L102.704 435.328Z" fill="white"/>
<path d="M71.704 435.328L68.2882 442.259L60.6424 443.371L66.1831 448.753L64.8724 456.359L71.704 452.764L78.5356 456.359L77.2249 448.753L82.7656 443.371L75.1198 442.259L71.704 435.328Z" fill="white"/>
<path d="M40.704 435.328L37.2882 442.259L29.6424 443.371L35.1831 448.753L33.8724 456.359L40.704 452.764L47.5356 456.359L46.2249 448.753L51.7656 443.371L44.1198 442.259L40.704 435.328Z" fill="white"/>
<path opacity="0.2" d="M217.352 469.704C204.18 469.704 193.501 459.025 193.501 445.853C193.501 432.68 204.18 422.002 217.352 422.002C230.525 422.002 241.203 432.68 241.203 445.853C241.203 459.025 230.525 469.704 217.352 469.704Z" fill="white"/>
<path d="M197.652 445.853C197.647 450.235 199.105 454.494 201.794 457.954C204.484 461.414 208.251 463.878 212.499 464.954C216.747 466.03 221.233 465.658 225.246 463.896C229.258 462.134 232.568 459.083 234.65 455.227C236.224 452.354 237.044 449.129 237.033 445.853C237.117 443.215 236.67 440.586 235.718 438.124C234.766 435.662 233.329 433.416 231.492 431.52C229.656 429.624 227.457 428.117 225.026 427.087C222.595 426.058 219.982 425.527 217.343 425.527C214.703 425.527 212.09 426.058 209.659 427.087C207.229 428.117 205.03 429.624 203.193 431.52C201.356 433.416 199.919 435.662 198.967 438.124C198.016 440.586 197.568 443.215 197.652 445.853Z" fill="white"/>
<path d="M200.036 455.227C201.724 458.345 204.223 460.95 207.27 462.765C210.316 464.58 213.797 465.538 217.343 465.538C220.889 465.538 224.37 464.58 227.416 462.765C230.463 460.95 232.962 458.345 234.65 455.227C229.526 451.807 223.504 449.982 217.343 449.982C211.182 449.982 205.16 451.807 200.036 455.227Z" fill="#FFC727"/>
<path d="M208.575 439.121C208.575 440.857 209.09 442.554 210.055 443.998C211.019 445.441 212.39 446.566 213.994 447.23C215.598 447.895 217.363 448.069 219.066 447.73C220.768 447.391 222.332 446.555 223.56 445.328C224.787 444.1 225.623 442.536 225.962 440.833C226.301 439.131 226.127 437.366 225.463 435.762C224.798 434.158 223.673 432.787 222.23 431.822C220.786 430.858 219.089 430.343 217.353 430.343C216.2 430.34 215.057 430.566 213.991 431.006C212.925 431.446 211.956 432.093 211.14 432.908C210.325 433.724 209.678 434.692 209.238 435.759C208.798 436.825 208.573 437.967 208.575 439.121Z" fill="#B55B52"/>
<defs>
<clipPath id="clip0_170_1626">
<rect width="318" height="45" fill="white"/>
</clipPath>
<clipPath id="clip1_170_1626">
<rect width="289" height="45" fill="white" transform="matrix(-1 0 0 1 289 358)"/>
</clipPath>
</defs>
</svg>
